<svg xmlns="http://www.w3.org/2000/svg" viewBox="0 0 64 64" role="img" aria-labelledby="title description">
  <title id="title">#Mitmachen – Kompasspunkt Signet</title>
  <desc id="description">Vier gerichtete Achsen treffen sich in einem gemeinsamen farbigen Mittelpunkt.</desc>
  <circle cx="32" cy="32" r="27" fill="none" stroke="#DCE3EF" stroke-width="2"/>
  <g fill="none" stroke-linecap="round" stroke-width="5.5">
    <path d="m24 10-4 44M45 10l-4 44" stroke="#08164F"/>
    <path d="M9 24h46M8 42h46" stroke="#00A846"/>
  </g>
  <path d="m24 3 5 9H19Zm21 0 5 9H40ZM3 24l9-5v10Zm58 0-9-5v10ZM2 42l9-5v10Zm58 0-9-5v10ZM19 61l5-9 5 9Zm21 0 5-9 5 9Z" fill="#08164F"/>
  <rect x="27" y="27" width="10" height="10" rx="3" transform="rotate(45 32 32)" fill="#F2A53B" stroke="#fff" stroke-width="2"/>
</svg>
