<svg width="320" height="240" viewBox="0 0 320 240" fill="none" xmlns="http://www.w3.org/2000/svg">
  <rect width="320" height="240" rx="28" fill="#EEF6F0"/>
  <circle cx="160" cy="94" r="44" fill="#D8ECDD"/>
  <path d="M160 146C118.8 146 85 176.5 85 214H235C235 176.5 201.2 146 160 146Z" fill="#C9E3D0"/>
  <circle cx="160" cy="88" r="26" fill="#F6DDC6"/>
  <path d="M134 81C136.7 63.8 148.9 54 164.9 54C178.2 54 187.9 61.5 190.5 72.2C191.9 78 191.8 86.4 187.1 91.1C183.7 80.9 176.2 73.3 163.4 73.3C151.8 73.3 141.5 76.9 134 81Z" fill="#2E4A3F"/>
  <rect x="104" y="182" width="112" height="12" rx="6" fill="#A4CCB0"/>
  <rect x="122" y="201" width="76" height="10" rx="5" fill="#BDDCC6"/>
</svg>
