<?xml version="1.0" encoding="UTF-8"?><svg id="Logos" xmlns="http://www.w3.org/2000/svg" viewBox="0 0 675 220"><defs><style>.cls-1{fill:#035f1d;}.cls-2{fill:#003a40;}.cls-3{fill:#9bc43a;}.cls-4{fill:#07272d;}.cls-5{fill:#007d8a;}</style></defs><path class="cls-2" d="M340.936,31.8883l-5.0402-1.1278c-1.4787-.3251-2.4881-.7768-3.0269-1.3536-.5401-.5768-.8094-1.2543-.8094-2.0311,0-.6775.1823-1.2856.5455-1.8243s.9346-.9713,1.7114-1.2978c.7768-.3251,1.7685-.4897,2.9711-.4897,1.6297,0,3.0405.3197,4.2322.9591,1.1903.6394,2.2623,1.6869,3.216,3.1411l2.7072-2.5956c-1.1278-1.6297-2.5072-2.8636-4.1369-3.7043-1.6297-.8394-3.5601-1.2597-5.7925-1.2597-2.0066,0-3.7356.3442-5.1899,1.0339s-2.5643,1.6053-3.3289,2.7453c-.7645,1.1414-1.1468,2.4147-1.1468,3.8186,0,1.0774.2381,2.0501.7142,2.9139.4761.8652,1.2039,1.5985,2.1821,2.2011.9781.6013,2.2188,1.0665,3.7234,1.3917l5.4538,1.2407c1.3291.3006,2.2378.7278,2.7262,1.2788.4897.5523.7332,1.1917.7332,1.9181,0,.7523-.219,1.3985-.6571,1.9372-.4394.5401-1.0788.9468-1.9181,1.223-.8407.2762-1.8379.4136-2.9915.4136-1.3032,0-2.4881-.1877-3.5533-.5646-1.0665-.3755-1.9998-.9087-2.8024-1.5985s-1.4665-1.4719-1.993-2.3507l-2.7833,2.7833c.6761,1.0026,1.5413,1.8937,2.5943,2.6704,1.0543.7781,2.2814,1.3917,3.6866,1.8433,1.4039.4516,2.9833.6761,4.7396.6761,1.9794,0,3.7043-.3006,5.1708-.9019s2.6147-1.4665,3.4418-2.5956c.8271-1.1278,1.2407-2.4569,1.2407-3.9859,0-1.6556-.502-3.0214-1.5046-4.1002-1.0026-1.0774-2.7072-1.8814-5.115-2.4079Z"/><path class="cls-2" d="M362.226,42.2136c-.502.2136-1.091.3197-1.7685.3197-.8271,0-1.4855-.2136-1.9739-.6394-.4897-.4258-.7346-1.1033-.7346-2.0311v-10.0056h6.47v-3.1588h-6.47v-5.5286l-4.024,1.1278v4.4008h-3.6105v3.1588h3.6105v10.6817c.0245,1.2788.2884,2.314.7904,3.103.5006.7904,1.2026,1.3617,2.1059,1.7114.9033.351,1.8923.5265,2.9711.5265,1.0285,0,1.9617-.1442,2.8024-.4312.8394-.2884,1.5481-.6829,2.1249-1.1849l-.9033-2.9344c-.4258.3768-.8897.6707-1.3903.8843Z"/><rect class="cls-2" x="367.8295" y="26.6984" width="4.0227" height="18.806"/><path class="cls-2" d="M369.8605,18.5361c-.8788,0-1.5495.2136-2.012.6394-.4653.4272-.6965,1.0407-.6965,1.8433s.2313,1.423.6965,1.8624c.4625.438,1.1332.6584,2.012.6584.8516,0,1.51-.2204,1.9753-.6584.4625-.4394.6965-1.0597.6965-1.8624s-.234-1.4162-.6965-1.8433c-.4653-.4258-1.1237-.6394-1.9753-.6394Z"/><path class="cls-2" d="M400.6651,42.2136c-.5033.2136-1.091.3197-1.7685.3197-.8271,0-1.4855-.2136-1.9753-.6394-.487-.4258-.7319-1.1033-.7319-2.0311v-10.0056h6.4673v-3.1588h-6.4673v-5.5286l-4.024,1.1278v4.4008h-9.0683v-2.4065c0-1.0788.2966-1.8556.8843-2.3331.5904-.4761,1.3985-.7142,2.4269-.7142.4516,0,.8516.0435,1.2026.132s.6639.219.9414.3945l.7509-2.8963c-.3265-.2748-.8081-.4952-1.4474-.6584-.6394-.1619-1.3468-.2435-2.1249-.2435-1.004,0-1.9127.1306-2.7262.3945-.8162.2639-1.51.6516-2.0868,1.1659-.5795.5142-1.0094,1.1468-1.2978,1.8991s-.4326,1.6053-.4326,2.5575v2.7085h-3.537v3.1588h3.537v15.6472h4.024v-15.6472h8.9541v10.6817c.0245,1.2788.2857,2.314.789,3.103.5006.7904,1.2026,1.3617,2.1059,1.7114.9033.351,1.8937.5265,2.9711.5265,1.0285,0,1.9617-.1442,2.8024-.4312.8407-.2884,1.5481-.6829,2.1249-1.1849l-.9033-2.9344c-.4272.3768-.8897.6707-1.3903.8843Z"/><path class="cls-2" d="M419.2071,36.8918c0,.9768-.1333,1.8297-.3945,2.5575-.2639.7264-.6339,1.3223-1.1101,1.7862s-1.0094.8026-1.5998,1.0148c-.5877.2136-1.1971.3197-1.8229.3197-1.3032,0-2.3208-.3197-3.0473-.9591s-1.091-1.8107-1.091-3.5166v-11.3959h-4.024v12.4122c0,1.6053.3129,2.9085.9414,3.9111.6258,1.004,1.4583,1.7304,2.5004,2.1821,1.0393.4516,2.1739.6761,3.4037.6761,1.5046,0,2.8078-.2762,3.9125-.8271,1.1019-.551,1.9807-1.4162,2.631-2.5943l.1905,3.0459h3.5343v-18.806h-4.024v10.1934Z"/><path class="cls-2" d="M442.8452,27.093c-1.0665-.5129-2.2637-.77-3.5914-.77-1.0285,0-1.9998.1632-2.9139.4884-.9169.3265-1.7059.8462-2.3698,1.5604-.4374.4695-.7804,1.046-1.081,1.6712l-.1787-3.3445h-3.5751v18.806h4.0267v-10.0043c0-1.4298.2558-2.5711.77-3.4227.5142-.853,1.159-1.4733,1.9372-1.8624.7754-.3877,1.578-.5822,2.4079-.5822,1.1509,0,2.1113.3564,2.8759,1.072.7645.7142,1.1482,1.9998,1.1482,3.854v10.9457h4.024v-12.1863c0-1.5794-.3129-2.8827-.9414-3.9111-.6258-1.0285-1.4719-1.7998-2.5385-2.314Z"/><path class="cls-2" d="M468.5891,22.7492h-.302c-1.0012,0-1.8991.2258-2.6881.6775-.789.4503-1.3985,1.072-1.8256,1.861-.2908.5414-.4459,1.1511-.5382,1.792-1.1971-.4982-2.5895-.7567-4.1987-.7567-1.6053,0-3.0173.2626-4.2335.789s-2.1603,1.2665-2.8378,2.2188c-.6775.9536-1.0176,2.0691-1.0176,3.3479,0,1.9059.6965,3.4418,2.0896,4.6076.275.2306.5926.4204.9154.6054-.6276.2226-1.1744.5202-1.6119.9183-.8271.7523-1.2407,1.6678-1.2407,2.7453,0,1.0788.3183,1.9127.9577,2.5017.369.3399.8271.6015,1.334.8203-.9616.2088-1.7064.5606-2.1992,1.0788-.7128.7523-1.072,1.6297-1.072,2.6323,0,1.4298.74,2.6201,2.2201,3.5737,1.4801.9523,3.7601,1.4284,6.8455,1.4284,1.8311,0,3.4527-.2503,4.8702-.7523s2.5385-1.2216,3.3656-2.1617c.8298-.9414,1.2434-2.0637,1.2434-3.367,0-1.4801-.5278-2.6391-1.5808-3.4785-1.0529-.8407-2.533-1.2611-4.4376-1.2611h-5.6429c-.8516,0-1.51-.1496-1.9753-.4503-.4625-.302-.6938-.7645-.6938-1.3917,0-.5265.2367-1.0026.7128-1.4298.2772-.2478.7042-.4241,1.2113-.562.8402.1818,1.7474.2995,2.7774.2995,1.6542,0,3.0881-.2639,4.307-.7904,1.2135-.5265,2.1549-1.2665,2.8187-2.2188.6639-.9536.9985-2.0691.9985-3.3479s-.3347-2.3943-.9985-3.3479c-.2671-.3831-.6117-.7067-.9683-1.0211.1078-.6822.3479-1.2663.8377-1.667.6258-.5142,1.5427-.7713,2.7453-.7713.0762,0,.1496.0054.2258.019.0762.0122.1496.0177.2258.0177l-.6394-3.1588ZM455.9892,45.8799h6.0564c1.2026,0,2.0351.1755,2.5004.5278.4625.3496.6965.8135.6965,1.3917,0,.5006-.2204.9591-.6584,1.3726-.4408.4136-1.1046.7523-1.9943,1.0148-.8897.2639-2.0243.3945-3.4037.3945-1.7821,0-3.1724-.2381-4.1764-.7142-1.0012-.4761-1.5019-1.1278-1.5019-1.9562,0-.6258.2367-1.1223.7128-1.4855s1.0665-.5455,1.7685-.5455ZM461.9504,35.2743c-.7645.6516-1.7359.9781-2.9139.9781-1.1536,0-2.114-.3265-2.8786-.9781s-1.1482-1.5168-1.1482-2.5956c0-1.0774.3836-1.9372,1.1482-2.5766s1.725-.9591,2.8786-.9591c1.1781,0,2.1494.3197,2.9139.9591s1.1482,1.4991,1.1482,2.5766c0,1.0788-.3836,1.944-1.1482,2.5956Z"/><path class="cls-2" d="M343.3439,80.6336c0,1.7807-.3823,3.1085-1.1482,3.9859-.7645.8788-1.9236,1.3169-3.4785,1.3169-1.5291,0-2.6772-.438-3.4418-1.3169-.7645-.8774-1.1468-2.2052-1.1468-3.9859v-14.82h-6.5067v14.7071c0,3.5098.94,6.1367,2.8201,7.8794,1.8814,1.7427,4.6389,2.6133,8.2752,2.6133,3.6608,0,6.4251-.8706,8.2929-2.6133s2.8024-4.3696,2.8024-7.8794v-14.7071h-6.4686v14.82Z"/><path class="cls-2" d="M369.6537,72.2074c-.9659-.5006-2.1004-.7509-3.4037-.7509-1.2039,0-2.2882.2313-3.2527.6952-.9659.4639-1.7685,1.1468-2.4079,2.0501-.2989.4217-.5465.9035-.7605,1.4242l-.1986-3.7939h-5.7163v18.806h6.3938v-9.9675c0-1.0529.1496-1.8923.4503-2.5194.302-.6271.7156-1.0842,1.242-1.3726s1.091-.4326,1.6923-.4326c.7768,0,1.4162.2503,1.9181.7523s.7523,1.4039.7523,2.7072v10.8327h6.3925v-12.5251c0-1.4787-.2748-2.7072-.8271-3.6853-.551-.9781-1.3087-1.7182-2.2746-2.2201Z"/><path class="cls-2" d="M393.7054,85.4848v-6.8822c0-1.5549-.3428-2.865-1.0339-3.9315-.6884-1.0652-1.6787-1.8664-2.9711-2.4065-1.2924-.5387-2.8514-.8081-4.6824-.8081-2.7344,0-4.8511.5387-6.3557,1.6161-1.5046,1.0788-2.4324,2.5208-2.7833,4.326l5.4143,1.2788c.2258-1.0529.6339-1.7862,1.2243-2.1997.5877-.4149,1.2978-.6217,2.1249-.6217s1.4855.2585,1.9753.7713c.487.5142.7319,1.2107.7319,2.0882v.5377l-6.5054,1.3424c-1.7576.351-3.0418.9727-3.8553,1.8624-.8162.8897-1.2243,2.012-1.2243,3.3656,0,1.1278.2585,2.0746.7727,2.8391.5142.7659,1.2461,1.3481,2.1984,1.7495.955.4013,2.0705.6013,3.3493.6013,1.1019,0,2.163-.1755,3.1779-.5265,1.0148-.3496,1.842-.8897,2.4813-1.6161.2012-.2291.3149-.5059.453-.7695.1054.3557.2393.689.4312.9762.4272.6394,1.0148,1.1155,1.7685,1.4284.7509.3129,1.6161.4707,2.5956.4707,1.0774,0,1.9916-.1755,2.7453-.5265l.3755-3.6486c-.2748.1007-.6394.1496-1.091.1496-.8761,0-1.3169-.4884-1.3169-1.4665ZM387.0857,85.1093c-.1741.4013-.4136.7332-.7128.9958-.302.2639-.6475.4584-1.0339.5836-.3891.1252-.7972.1877-1.2243.1877-.5523,0-1.0285-.1374-1.4284-.4136-.4027-.2762-.6013-.6897-.6013-1.2407,0-.5768.1823-1.0094.5442-1.2978.3646-.2884.9223-.5074,1.6733-.6584l3.0473-.6344v1.048c0,.5523-.0871,1.0285-.2639,1.4298Z"/><path class="cls-2" d="M414.4458,72.6223c-1.14-.7768-2.4378-1.1659-3.8907-1.1659-1.8311,0-3.2867.5074-4.3641,1.5223-.6724.6341-1.1528,1.4105-1.5427,2.2542v-11.3742h-6.3938v26.7792h5.6048l.2069-4.1766c.1886.5105.4146.9977.6963,1.4503.6013.9645,1.3713,1.7236,2.3127,2.2746s2.0243.8271,3.254.8271c1.5536,0,2.9085-.3809,4.0621-1.1468,1.1536-.7645,2.0542-1.8733,2.7072-3.3289.653-1.4529.9795-3.1969.9795-5.228,0-2.08-.3211-3.8553-.9604-5.3218s-1.5291-2.5888-2.6718-3.3656ZM410.7047,85.0903c-.6258.8149-1.491,1.2216-2.5956,1.2216-.702,0-1.3169-.1932-1.842-.5822-.5278-.3891-.9278-.9591-1.2053-1.7114-.2748-.7523-.4136-1.6678-.4136-2.7453,0-1.0788.1388-1.9943.4136-2.7466.2775-.7523.672-1.3345,1.1863-1.7481s1.1346-.6203,1.861-.6203c1.1046,0,1.9698.4068,2.5956,1.2216s.9414,2.1004.9414,3.8553-.3156,3.0405-.9414,3.8553Z"/><path class="cls-2" d="M437.205,72.2074c-.9659-.5006-2.1004-.7509-3.4037-.7509-1.3549,0-2.5466.3197-3.5751.9591s-1.8175,1.5862-2.3698,2.8391v-11.3959h-6.3938v26.7792h6.3938v-9.8914c0-1.0543.1524-1.9059.4516-2.5575.302-.653.7156-1.1291,1.2407-1.4298.5278-.3006,1.091-.4516,1.695-.4516.7999,0,1.4474.2571,1.9345.7713.4897.5142.7346,1.4474.7346,2.8024v10.7566h6.3938v-12.5251c0-1.4787-.2748-2.7072-.8271-3.6853s-1.3114-1.7182-2.2746-2.2201Z"/><path class="cls-2" d="M456.6313,69.7261c1.004,0,1.793-.2571,2.3698-.7713s.8652-1.223.8652-2.1249c0-.9278-.2884-1.642-.8652-2.144s-1.3658-.7523-2.3698-.7523c-.9768,0-1.7495.2503-2.3127.7523s-.8462,1.2162-.8462,2.144c0,.9019.283,1.6107.8462,2.1249s1.3359.7713,2.3127.7713Z"/><path class="cls-2" d="M448.3575,69.7261c1.0285,0,1.8229-.2571,2.3888-.7713.5632-.5142.8462-1.223.8462-2.1249,0-.9278-.283-1.642-.8462-2.144-.5659-.502-1.3604-.7523-2.3888-.7523-.9795,0-1.7495.2503-2.3127.7523-.5659.502-.8462,1.2162-.8462,2.144,0,.9019.2802,1.6107.8462,2.1249.5632.5142,1.3332.7713,2.3127.7713Z"/><path class="cls-2" d="M461.2566,85.4848v-6.8822c0-1.5549-.3428-2.865-1.0339-3.9315-.6884-1.0652-1.6787-1.8664-2.9711-2.4065-1.2924-.5387-2.8514-.8081-4.6824-.8081-2.7344,0-4.8511.5387-6.3557,1.6161-1.5046,1.0788-2.4324,2.5208-2.7833,4.326l5.4143,1.2788c.2258-1.0529.6339-1.7862,1.2243-2.1997.5877-.4149,1.2978-.6217,2.1249-.6217s1.4855.2585,1.9753.7713c.487.5142.7319,1.2107.7319,2.0882v.5377l-6.5054,1.3424c-1.7576.351-3.0418.9727-3.8553,1.8624-.8162.8897-1.2243,2.012-1.2243,3.3656,0,1.1278.2585,2.0746.7727,2.8391.5142.7659,1.2461,1.3481,2.1984,1.7495.955.4013,2.0705.6013,3.3493.6013,1.1019,0,2.163-.1755,3.1779-.5265,1.0148-.3496,1.842-.8897,2.4813-1.6161.2012-.2291.3149-.5059.453-.7695.1054.3557.2393.689.4312.9762.4272.6394,1.0148,1.1155,1.7685,1.4284.7509.3129,1.6161.4707,2.5956.4707,1.0774,0,1.9916-.1755,2.7453-.5265l.3755-3.6486c-.2748.1007-.6394.1496-1.091.1496-.8761,0-1.3169-.4884-1.3169-1.4665ZM454.637,85.1093c-.1741.4013-.4136.7332-.7128.9958-.302.2639-.6475.4584-1.0339.5836-.3891.1252-.7972.1877-1.2243.1877-.5523,0-1.0285-.1374-1.4284-.4136-.4027-.2762-.6013-.6897-.6013-1.2407,0-.5768.1823-1.0094.5442-1.2978.3646-.2884.9223-.5074,1.6733-.6584l3.0473-.6344v1.048c0,.5523-.0871,1.0285-.2639,1.4298Z"/><path class="cls-2" d="M481.5509,72.2074c-.9659-.5006-2.1004-.7509-3.4037-.7509-1.2053,0-2.2909.2313-3.254.6952-.9659.4639-1.7685,1.1468-2.4079,2.0501-.2984.421-.5459.9023-.7599,1.4221l-.1978-3.7919h-5.7191v18.806h6.3938v-9.9675c0-1.0529.1524-1.8923.4516-2.5194.302-.6271.7156-1.0842,1.2407-1.3726.5278-.2884,1.091-.4326,1.695-.4326.7754,0,1.4148.2503,1.9181.7523.5006.502.7509,1.4039.7509,2.7072v10.8327h6.3938v-12.5251c0-1.4787-.2748-2.7072-.8271-3.6853s-1.3114-1.7182-2.2746-2.2201Z"/><path class="cls-2" d="M506.5792,70.9667c.1496,0,.2993.0068.4516.019.1496.0122.2993.0435.4516.0939l-.5278-4.2879c-.1007-.0245-.2068-.0367-.3183-.0367h-.283c-1.2026,0-2.2011.3006-2.9901.9019s-1.374,1.3794-1.7495,2.3317c-.2534.6433-.3892,1.3097-.4715,1.9865-1.1655-.3154-2.4543-.5186-3.966-.5186-1.9317,0-3.5724.2503-4.9273.7509-1.3549.502-2.3888,1.223-3.1044,2.163-.7128.94-1.072,2.1004-1.072,3.4799,0,2.0311.7727,3.5982,2.3154,4.7015.2289.1639.5066.2908.7674.4304-.6095.2056-1.1517.4834-1.6136.8484-.955.7523-1.4311,1.7304-1.4311,2.933,0,1.2039.3755,2.1576,1.1291,2.8595.428.4001,1.0181.6958,1.6996.9329-1.0184.1704-1.8282.4515-2.3771.8723-.8516.6516-1.2788,1.5046-1.2788,2.5575,0,1.4529.7537,2.6065,2.2582,3.4595s3.9614,1.2788,7.3706,1.2788c2.1059,0,3.9315-.2571,5.4715-.77,1.5427-.5142,2.7398-1.2856,3.5941-2.314.8516-1.0285,1.2788-2.3195,1.2788-3.8744,0-1.7046-.585-3.0146-1.7495-3.9302-1.1672-.9142-2.8405-1.3726-5.0225-1.3726h-5.9803c-.702,0-1.2271-.1061-1.578-.3197-.351-.2122-.5278-.5319-.5278-.9591,0-.4013.2013-.7387.6013-1.0148.1796-.1231.4367-.2156.7302-.2938,1.0222.2069,2.1533.3306,3.4462.3306,1.9045,0,3.5343-.2449,4.8892-.7332s2.3888-1.2094,3.1017-2.163c.7156-.9523,1.072-2.1059,1.072-3.4595,0-1.3794-.3564-2.5398-1.072-3.4799-.4346-.5731-1.0296-1.0368-1.7029-1.4469.1282-.4258.3221-.8195.6499-1.1473.5387-.5401,1.3604-.8094,2.465-.8094ZM493.6774,91.465h6.7339c.7264,0,1.2271.1061,1.5046.3197.2748.2136.4136.5088.4136.8843s-.2013.7088-.6013.9972c-.4027.287-.9985.5129-1.7875.6761s-1.7875.2449-2.9901.2449c-1.5291,0-2.7208-.1564-3.5724-.4707-.8543-.3129-1.2788-.7577-1.2788-1.3345,0-.3768.1442-.6897.4326-.94.2857-.2517.6693-.3768,1.1454-.3768ZM499.1706,79.8433c-.5278.4761-1.1917.7142-1.9943.7142-.8271,0-1.4991-.2381-2.0134-.7142s-.77-1.14-.77-1.993c0-.8774.2558-1.5549.77-2.0311s1.1863-.7156,2.0134-.7156c.8026,0,1.4665.2394,1.9943.7156.5251.4761.789,1.1536.789,2.0311,0,.853-.2639,1.5168-.789,1.993Z"/><path class="cls-2" d="M512.633,63.52c-1.3032,0-2.2501.2449-2.8378.7332-.5904.4884-.8843,1.2733-.8843,2.3507,0,1.0529.2938,1.8243.8843,2.3127.5877.4897,1.5345.7332,2.8378.7332,1.2788,0,2.2201-.2435,2.8214-.7332.6013-.4884.9033-1.2597.9033-2.3127,0-1.0774-.302-1.8624-.9033-2.3507s-1.5427-.7332-2.8214-.7332Z"/><rect class="cls-2" x="509.4361" y="71.8319" width="6.3938" height="18.806"/><path class="cls-2" d="M537.8355,70.9667c.1496,0,.2993.0068.4516.019.1496.0122.2993.0435.4516.0939l-.5278-4.2879c-.1007-.0245-.2068-.0367-.3183-.0367h-.283c-1.2026,0-2.2011.3006-2.9901.9019s-1.374,1.3794-1.7495,2.3317c-.2534.6433-.3892,1.3097-.4715,1.9865-1.1655-.3154-2.4543-.5186-3.966-.5186-1.9317,0-3.5724.2503-4.9273.7509-1.3549.502-2.3888,1.223-3.1044,2.163-.7128.94-1.072,2.1004-1.072,3.4799,0,2.0311.7727,3.5982,2.3154,4.7015.2289.1639.5066.2908.7674.4304-.6095.2056-1.1517.4834-1.6136.8484-.955.7523-1.4311,1.7304-1.4311,2.933,0,1.2039.3755,2.1576,1.1291,2.8595.428.4001,1.0181.6958,1.6996.9329-1.0184.1704-1.8282.4515-2.3771.8723-.8516.6516-1.2788,1.5046-1.2788,2.5575,0,1.4529.7537,2.6065,2.2582,3.4595s3.9614,1.2788,7.3706,1.2788c2.1059,0,3.9315-.2571,5.4715-.77,1.5427-.5142,2.7398-1.2856,3.5941-2.314.8516-1.0285,1.2788-2.3195,1.2788-3.8744,0-1.7046-.585-3.0146-1.7495-3.9302-1.1672-.9142-2.8405-1.3726-5.0225-1.3726h-5.9803c-.702,0-1.2271-.1061-1.578-.3197-.351-.2122-.5278-.5319-.5278-.9591,0-.4013.2013-.7387.6013-1.0148.1796-.1231.4367-.2156.7302-.2938,1.0222.2069,2.1533.3306,3.4462.3306,1.9045,0,3.5343-.2449,4.8892-.7332s2.3888-1.2094,3.1017-2.163c.7156-.9523,1.072-2.1059,1.072-3.4595,0-1.3794-.3564-2.5398-1.072-3.4799-.4346-.5731-1.0296-1.0368-1.7029-1.4469.1282-.4258.3221-.8195.6499-1.1473.5387-.5401,1.3604-.8094,2.465-.8094ZM524.9336,91.465h6.7339c.7264,0,1.2271.1061,1.5046.3197.2748.2136.4136.5088.4136.8843s-.2013.7088-.6013.9972c-.4027.287-.9985.5129-1.7875.6761s-1.7875.2449-2.9901.2449c-1.5291,0-2.7208-.1564-3.5724-.4707-.8543-.3129-1.2788-.7577-1.2788-1.3345,0-.3768.1442-.6897.4326-.94.2857-.2517.6693-.3768,1.1454-.3768ZM530.4268,79.8433c-.5278.4761-1.1917.7142-1.9943.7142-.8271,0-1.4991-.2381-2.0134-.7142s-.77-1.14-.77-1.993c0-.8774.2558-1.5549.77-2.0311s1.1863-.7156,2.0134-.7156c.8026,0,1.4665.2394,1.9943.7156.5251.4761.789,1.1536.789,2.0311,0,.853-.2639,1.5168-.789,1.993Z"/><path class="cls-2" d="M557.8059,75.7621c-.7264-1.3413-1.7848-2.3943-3.1779-3.1588-1.3903-.7645-3.0772-1.1468-5.0579-1.1468-1.9317,0-3.6431.3891-5.1341,1.1659-1.4937.7768-2.6528,1.8937-3.4799,3.3465-.8271,1.4543-1.2407,3.2105-1.2407,5.2661,0,2.0569.4136,3.8118,1.2407,5.2661s1.9998,2.5698,3.518,3.3465c1.5155.7781,3.3139,1.1659,5.3953,1.1659,1.3032,0,2.5521-.1877,3.7438-.5632,1.189-.3768,2.2174-.9346,3.0826-1.6746.8652-.7387,1.4747-1.6474,1.8256-2.7262l-5.115-1.6923c-.2775.6761-.6965,1.2039-1.2597,1.5794-.5659.3755-1.325.5646-2.2773.5646-.8516,0-1.578-.17-2.1793-.5088-.604-.3374-1.0665-.8897-1.393-1.6542-.1794-.4198-.2986-.9256-.3794-1.4855h12.8296c.049-.3006.0871-.6775.1116-1.1291.0245-.4503.0381-.9019.0381-1.3536,0-1.7304-.3646-3.2663-1.091-4.6076ZM547.5187,76.4953c.5659-.3755,1.2488-.5632,2.0515-.5632,1.1264,0,1.9617.4013,2.5004,1.2026.3812.568.5783,1.3755.6899,2.295h-6.7961c.0704-.4221.1532-.8251.2756-1.1659.2884-.8026.7156-1.3917,1.2788-1.7685Z"/><path class="cls-2" d="M336.3161,155.6902h-8.7622v24.8243h8.7622c3.8866,0,6.9148-1.072,9.0833-3.216,2.1698-2.144,3.254-5.2089,3.254-9.1962s-1.0842-7.0522-3.254-9.1962c-2.1685-2.144-5.1967-3.216-9.0833-3.216ZM342.3535,174.741c-1.3917,1.5672-3.4037,2.3507-6.0374,2.3507h-4.7382v-17.9789h4.7382c2.6337,0,4.6457.7849,6.0374,2.3507,1.3917,1.5672,2.0868,3.7805,2.0868,6.6387s-.6952,5.0715-2.0868,6.6387Z"/><path class="cls-2" d="M366.4065,162.4608c-1.2788-.7523-2.8337-1.1278-4.6648-1.1278-1.7807,0-3.3724.3891-4.7763,1.1659s-2.5004,1.8991-3.2908,3.3656-1.1849,3.216-1.1849,5.247.3945,3.7805,1.1849,5.247,1.8991,2.5888,3.3289,3.3656c1.4284.7781,3.084,1.1659,4.964,1.1659,1.2543,0,2.4079-.1755,3.4608-.5265,1.0529-.3496,1.9617-.8584,2.7262-1.5223s1.374-1.4488,1.8243-2.3507l-3.1969-1.5046c-.4503.853-1.0652,1.5168-1.842,1.993-.7781.4761-1.793.7142-3.0473.7142-1.1278,0-2.1059-.2503-2.933-.7523-.8285-.5006-1.4679-1.2407-1.9195-2.2188-.3154-.6851-.48-1.5127-.5748-2.4065h13.7392c.0517-.3006.0898-.6516.1116-1.0529.0272-.4013.0381-.8285.0381-1.2788,0-1.6556-.3374-3.1343-1.0148-4.4389-.6761-1.3032-1.6542-2.3317-2.933-3.084ZM357.0035,167.5201c.4258-.9904,1.0393-1.7372,1.8433-2.2378.8013-.502,1.7413-.7523,2.8201-.7523,1.4801,0,2.6459.4571,3.4976,1.3726.7465.8013,1.1456,1.9232,1.2388,3.3289h-9.8846c.1063-.6271.2646-1.2009.4848-1.7114Z"/><path class="cls-2" d="M387.9958,171.9019c0,.9768-.1333,1.8297-.3945,2.5575-.2639.7264-.6339,1.3223-1.1101,1.7862s-1.0094.8026-1.5998,1.0148c-.5877.2136-1.1971.3197-1.8229.3197-1.3032,0-2.3208-.3197-3.0473-.9591s-1.091-1.8107-1.091-3.5166v-11.3959h-4.024v12.4122c0,1.6053.3129,2.9085.9414,3.9111.6258,1.004,1.4583,1.7304,2.5004,2.1821,1.0393.4516,2.1739.6761,3.4037.6761,1.5046,0,2.8078-.2762,3.9125-.8271,1.1019-.551,1.9807-1.4162,2.631-2.5943l.1905,3.0459h3.5343v-18.806h-4.024v10.1934Z"/><path class="cls-2" d="M407.8901,177.2237c-.5033.2136-1.091.3197-1.7685.3197-.8271,0-1.4855-.2136-1.9753-.6394-.487-.4258-.7319-1.1033-.7319-2.0311v-10.0056h6.4673v-3.1588h-6.4673v-5.5286l-4.024,1.1278v4.4008h-3.6132v3.1588h3.6132v10.6817c.0245,1.2788.2857,2.314.789,3.103.5006.7904,1.2026,1.3617,2.1059,1.7114.9033.351,1.8937.5265,2.9711.5265,1.0285,0,1.9617-.1442,2.8024-.4312.8407-.2884,1.5481-.6829,2.1249-1.1849l-.9033-2.9344c-.4272.3768-.8897.6707-1.3903.8843Z"/><path class="cls-2" d="M423.5726,169.9837l-4.2879-.9033c-.9768-.2-1.6542-.4884-2.0297-.8652-.3755-.3755-.5659-.8149-.5659-1.3169,0-.4748.1524-.8897.4516-1.2407.302-.351.74-.6258,1.3169-.8271s1.2652-.3006,2.0678-.3006c1.004,0,1.9698.2435,2.8976.7332.9278.4884,1.6297,1.2352,2.1059,2.2378l2.7833-2.3317c-.702-1.2284-1.7168-2.1753-3.0473-2.8405-1.3277-.6639-2.933-.9958-4.813-.9958-1.6297,0-3.0282.2694-4.1954.8081-1.1645.5401-2.0487,1.2475-2.65,2.1249s-.9033,1.8311-.9033,2.8582c0,1.3794.4272,2.514,1.2788,3.4037.8516.8911,2.2827,1.5372,4.2879,1.9372l3.9506.8285c.8761.2,1.4719.4829,1.7848.8462s.4707.7836.4707,1.2597c0,.7278-.3374,1.291-1.0148,1.6923s-1.5944.6013-2.7453.6013c-1.4556,0-2.7044-.3061-3.7438-.921-1.0393-.6135-1.8365-1.4352-2.3888-2.4637l-2.7833,2.4079c.9033,1.3291,2.1331,2.3562,3.6866,3.084,1.5536.7264,3.2731,1.0897,5.1531,1.0897,1.6297,0,3.0337-.2503,4.2118-.7509,1.1781-.502,2.0814-1.2107,2.7099-2.1263.6258-.9142.9387-1.9739.9387-3.1779s-.37-2.2242-1.1101-3.0649c-.74-.8394-2.0106-1.4352-3.8172-1.7862Z"/><path class="cls-2" d="M444.9198,176.0198c-.4163.5401-.9359.9536-1.5617,1.2407-.6285.2898-1.3685.4326-2.2201.4326-1.1019,0-2.0569-.2503-2.8568-.7523-.8026-.5006-1.4175-1.2407-1.8447-2.2188s-.6394-2.1685-.6394-3.5724c0-1.4298.2068-2.6337.6203-3.6118.4136-.9768,1.023-1.7236,1.8256-2.2378.8026-.5129,1.7658-.77,2.8949-.77,1.1536,0,2.0868.3074,2.8024.921.7156.6149,1.2352,1.4991,1.5617,2.6514l3.7982-1.5046c-.3755-1.0271-.9278-1.9426-1.6542-2.7453-.7292-.8026-1.6243-1.423-2.6908-1.8624-1.0638-.438-2.3507-.6571-3.8553-.6571-1.8039,0-3.4146.3891-4.8321,1.1659s-2.5194,1.8991-3.3112,3.3656c-.789,1.4665-1.1835,3.216-1.1835,5.247s.3945,3.7805,1.1835,5.247c.7917,1.4665,1.9018,2.5888,3.3302,3.3656,1.4284.7781,3.0718,1.1659,4.9273,1.1659,1.4284,0,2.6936-.2313,3.7982-.6952s2.0242-1.1155,2.7643-1.9562c.74-.8394,1.2842-1.8243,1.6352-2.952l-3.6458-1.2407c-.1524.7768-.4326,1.4352-.8462,1.9739Z"/><path class="cls-2" d="M467.4478,162.103c-1.0665-.5129-2.2637-.77-3.5914-.77-1.3032,0-2.4895.2694-3.5533.8081-1.0665.5401-1.9127,1.3985-2.5385,2.5766v-11.4721h-4.0267v27.2689h4.0267v-9.9295c0-1.4543.2558-2.6147.77-3.4799.5142-.8638,1.1645-1.491,1.9562-1.8801.789-.3877,1.5862-.5822,2.3888-.5822,1.1509,0,2.1113.3632,2.8759,1.0897.7645.7278,1.1482,2.0188,1.1482,3.8744v10.9076h4.024v-12.1863c0-1.5794-.3129-2.8827-.9414-3.9111-.6258-1.0285-1.4719-1.7998-2.5385-2.314Z"/><path class="cls-2" d="M482.6596,177.693c-.7509,0-1.2924-.1741-1.6161-.5265-.3265-.351-.4897-.9904-.4897-1.9181v-22.0029h-4.024v22.3416c0,1.8052.3945,3.1411,1.1835,4.0063.7917.8652,2.0243,1.2964,3.7057,1.2964.5523,0,1.1019-.0558,1.6542-.1687s1.0421-.2694,1.4665-.4707l.4516-3.0078c-.4761.1755-.8706.2938-1.1835.3564-.3129.0639-.6965.0939-1.1482.0939Z"/><path class="cls-2" d="M502.9348,176.4143v-8.3868c0-1.5291-.3319-2.7833-.9958-3.7615-.6666-.9781-1.5753-1.7114-2.7289-2.1997-1.1536-.4897-2.4813-.7332-3.9859-.7332-2.2065,0-4.005.4639-5.398,1.3903-1.3903.9291-2.3263,2.1576-2.8024,3.6866l3.3846,1.4298c.3782-1.1795.9659-2.0311,1.7685-2.5575.8026-.5278,1.7685-.7904,2.8976-.7904,1.2026,0,2.1494.3455,2.8378,1.0339.6911.6897,1.0366,1.6624,1.0366,2.9153v.7191l-6.6958,1.3119c-1.6814.3265-2.9792.94-3.8934,1.8433-.9142.9019-1.374,2.0555-1.374,3.4595,0,1.1291.2694,2.0759.8108,2.8405.5387.7645,1.2788,1.3345,2.2174,1.7114.9414.3755,1.9998.5632,3.1779.5632.955,0,1.8937-.1564,2.8214-.4693s1.744-.7904,2.446-1.4298c.2862-.2607.5057-.5686.7125-.8854.0911.3534.2209.6761.3976.9616.3619.589.8652,1.0285,1.5046,1.3155.6394.2884,1.3577.4326,2.1603.4326.8788,0,1.6053-.1374,2.1821-.4136l.2258-2.7833c-.4272.1265-.8652.1877-1.3169.1877-.9278,0-1.3903-.4639-1.3903-1.3917ZM498.5516,175.4933c-.2612.5401-.6312.9781-1.1074,1.3169-.4789.3387-1.0121.5822-1.5998.7332-.5904.1496-1.1971.2258-1.8229.2258-.9033,0-1.6243-.2068-2.163-.6203-.5414-.4149-.8108-.9727-.8108-1.6746,0-.7264.2639-1.2788.7917-1.6542.5251-.3768,1.3169-.6652,2.3698-.8652l4.7396-.9752v1.5765c0,.7523-.1333,1.3985-.3972,1.9372Z"/><path class="cls-2" d="M522.8508,162.103c-1.0665-.5129-2.2637-.77-3.5914-.77-1.0285,0-1.9998.1632-2.9139.4884-.9169.3265-1.7059.8462-2.3698,1.5604-.4374.4695-.7804,1.046-1.081,1.6712l-.1787-3.3445h-3.5751v18.806h4.0267v-10.0043c0-1.4298.2558-2.5711.77-3.4227.5142-.853,1.159-1.4733,1.9372-1.8624.7754-.3877,1.578-.5822,2.4079-.5822,1.1509,0,2.1113.3564,2.8759,1.072.7645.7142,1.1482,1.9998,1.1482,3.854v10.9457h4.024v-12.1863c0-1.5794-.3129-2.8827-.9414-3.9111-.6258-1.0285-1.4719-1.7998-2.5385-2.314Z"/><path class="cls-2" d="M545.3625,153.2456v11.7956c-.4178-.9212-.962-1.751-1.7685-2.3926-1.1019-.8774-2.4569-1.3155-4.0621-1.3155-1.5536,0-2.982.3823-4.2879,1.1468-1.3032.7645-2.3426,1.8746-3.1207,3.3289s-1.1672,3.2336-1.1672,5.3409c0,2.0311.3646,3.7737,1.091,5.228.7292,1.4543,1.725,2.5698,2.9901,3.3465,1.2679.7781,2.6772,1.1659,4.2335,1.1659,1.1019,0,2.1358-.219,3.1017-.6571.9659-.4394,1.7739-1.0665,2.4269-1.8814.3313-.4153.5977-.8732.8062-1.3696l.2086,3.5326h3.5724v-27.2689h-4.024ZM544.7231,174.4961c-.4272,1.004-1.0285,1.7807-1.8039,2.3317-.7781.5523-1.7059.8285-2.7833.8285-1.6325,0-2.8976-.5836-3.8009-1.7495-.9006-1.1659-1.3522-2.7643-1.3522-4.7954s.4625-3.6227,1.3903-4.7763,2.231-1.7304,3.9125-1.7304c1.0012,0,1.8855.2503,2.65.7523s1.3604,1.2216,1.7875,2.163c.4272.94.6394,2.0623.6394,3.3656,0,1.4053-.2122,2.6079-.6394,3.6105Z"/><path class="cls-2" d="M343.9737,111.7729c-1.4298-.6516-3.1588-.9781-5.1899-.9781h-11.3973v24.8243h6.47v-8.2752h4.9273c2.0311,0,3.7601-.3251,5.1899-.9768s2.5194-1.593,3.2717-2.8214,1.1291-2.7208,1.1291-4.4757-.3768-3.2472-1.1291-4.4757-1.842-2.1685-3.2717-2.8214ZM340.8326,121.6465c-.6897.5632-1.7114.8462-3.0649.8462h-3.9111v-6.8455h3.9111c1.3536,0,2.3752.2816,3.0649.8462s1.0353,1.423,1.0353,2.5766-.3455,2.012-1.0353,2.5766Z"/><path class="cls-2" d="M368.5355,130.4659v-6.8822c0-1.5549-.3455-2.865-1.0339-3.9315-.6911-1.0652-1.6814-1.8664-2.9724-2.4065-1.291-.5387-2.8527-.8081-4.6824-.8081-2.733,0-4.8511.5387-6.3557,1.6161-1.5046,1.0788-2.4324,2.5208-2.7833,4.326l5.4157,1.2788c.2258-1.0529.6326-1.7862,1.223-2.1997.5877-.4149,1.2964-.6217,2.1249-.6217.8271,0,1.4855.2585,1.9739.7713.4897.5142.7332,1.2107.7332,2.0882v.5379l-6.5067,1.3422c-1.7549.351-3.0405.9727-3.8553,1.8624s-1.2216,2.012-1.2216,3.3656c0,1.1278.2571,2.0746.7713,2.8391.5129.7659,1.2461,1.3481,2.1997,1.7495.9523.4013,2.0691.6013,3.3479.6013,1.1019,0,2.1617-.1755,3.1779-.5265,1.0148-.3496,1.8433-.8897,2.4827-1.6161.201-.2289.3146-.5056.4523-.769.1056.3556.2394.6887.4306.9757.4272.6394,1.0162,1.1155,1.7685,1.4284s1.6175.4707,2.5956.4707c1.0774,0,1.993-.1755,2.7453-.5265l.3755-3.6486c-.2762.1007-.6394.1496-1.0897.1496-.8788,0-1.3169-.4884-1.3169-1.4665ZM361.9159,130.0904c-.1755.4013-.4136.7332-.7156.9958-.3006.2639-.6448.4584-1.0339.5836s-.7958.1877-1.2216.1877c-.5523,0-1.0285-.1374-1.4298-.4136s-.6013-.6897-.6013-1.2407c0-.5768.1809-1.0094.5442-1.2978s.9223-.5074,1.6746-.6584l3.0459-.6346v1.0482c0,.5523-.0871,1.0285-.2626,1.4298Z"/><path class="cls-2" d="M384.2371,131.2373c-.4394.1388-.9591.2068-1.5604.2068-.7781,0-1.3862-.1932-1.8243-.5822-.4394-.3891-.6584-1.0353-.6584-1.9372v-7.561h5.6048v-4.5505h-5.6048v-5.9803l-6.3938,1.7671v4.2131h-3.235v4.5505h3.235v8.614c.0245,1.4543.3197,2.6201.8843,3.4976.5632.8774,1.3658,1.5168,2.4065,1.9181s2.2759.6013,3.7043.6013c1.0026,0,1.9807-.1252,2.9344-.3755.9523-.2503,1.7427-.6013,2.3698-1.0529l-.6775-3.9492c-.351.2762-.7469.4829-1.1849.6203Z"/><path class="cls-2" d="M391.5913,108.5011c-1.3046,0-2.2514.2449-2.8405.7332s-.8843,1.2733-.8843,2.3507c0,1.0529.2952,1.8243.8843,2.3127.589.4897,1.5359.7332,2.8405.7332,1.2788,0,2.2188-.2435,2.8201-.7332.6027-.4884.9033-1.2597.9033-2.3127,0-1.0774-.3006-1.8624-.9033-2.3507-.6013-.4884-1.5413-.7332-2.8201-.7332Z"/><rect class="cls-2" x="388.3944" y="116.8131" width="6.3938" height="18.806"/><path class="cls-2" d="M412.8963,117.5844c-1.3917-.7645-3.0786-1.1468-5.0593-1.1468-1.9304,0-3.6418.3891-5.1327,1.1659-1.4923.7768-2.6528,1.8937-3.4799,3.3465-.8271,1.4543-1.2407,3.2105-1.2407,5.2661,0,2.0569.4136,3.8118,1.2407,5.2661s1.9998,2.5698,3.5166,3.3465c1.5168.7781,3.3153,1.1659,5.398,1.1659,1.3032,0,2.5507-.1877,3.7424-.5632,1.1903-.3768,2.2188-.9346,3.084-1.6746.8652-.7387,1.4719-1.6474,1.8243-2.7262l-5.115-1.6923c-.2762.6761-.6965,1.2039-1.2611,1.5794-.5632.3755-1.3223.5646-2.2746.5646-.853,0-1.5808-.17-2.1821-.5088-.6013-.3374-1.0665-.8897-1.3917-1.6542-.1794-.4198-.2983-.9256-.3787-1.4855h12.8289c.049-.3006.0871-.6775.1129-1.1291.0245-.4503.0367-.9019.0367-1.3536,0-1.7304-.3632-3.2663-1.091-4.6076-.7264-1.3413-1.7862-2.3943-3.1779-3.1588ZM405.7883,121.4765c.5632-.3755,1.2461-.5632,2.0487-.5632,1.1291,0,1.9617.4013,2.5017,1.2026.3812.568.5783,1.3755.6899,2.295h-6.7951c.0704-.4221.1529-.8251.276-1.1659.287-.8026.7142-1.3917,1.2788-1.7685Z"/><path class="cls-2" d="M436.1031,117.1886c-.9659-.5006-2.1004-.7509-3.4037-.7509-1.2039,0-2.2882.2313-3.2527.6952-.9659.4639-1.7685,1.1468-2.4079,2.0501-.2989.4217-.5465.9035-.7605,1.4242l-.1986-3.7939h-5.7163v18.806h6.3938v-9.9675c0-1.0529.1496-1.8923.4503-2.5194.302-.6271.7156-1.0842,1.242-1.3726s1.091-.4326,1.6923-.4326c.7768,0,1.4162.2503,1.9181.7523s.7523,1.4039.7523,2.7072v10.8327h6.3938v-12.5251c0-1.4787-.2762-2.7072-.8271-3.6853-.5523-.9781-1.3101-1.7182-2.2759-2.2201Z"/><path class="cls-2" d="M455.0982,131.2373c-.4394.1388-.9591.2068-1.5604.2068-.7781,0-1.3862-.1932-1.8243-.5822-.4394-.3891-.6584-1.0353-.6584-1.9372v-7.561h5.6048v-4.5505h-5.6048v-5.9803l-6.3938,1.7671v4.2131h-3.235v4.5505h3.235v8.614c.0245,1.4543.3197,2.6201.8843,3.4976.5632.8774,1.3658,1.5168,2.4065,1.9181s2.2759.6013,3.7043.6013c1.0026,0,1.9807-.1252,2.9344-.3755.9523-.2503,1.7427-.6013,2.3698-1.0529l-.6775-3.9492c-.351.2762-.7469.4829-1.1849.6203Z"/><path class="cls-2" d="M473.1899,117.5844c-1.3917-.7645-3.0786-1.1468-5.0593-1.1468-1.9304,0-3.6418.3891-5.1327,1.1659-1.4923.7768-2.6528,1.8937-3.4799,3.3465-.8271,1.4543-1.2407,3.2105-1.2407,5.2661,0,2.0569.4136,3.8118,1.2407,5.2661s1.9998,2.5698,3.5166,3.3465c1.5168.7781,3.3153,1.1659,5.398,1.1659,1.3032,0,2.5507-.1877,3.7424-.5632,1.1903-.3768,2.2188-.9346,3.084-1.6746.8652-.7387,1.4719-1.6474,1.8243-2.7262l-5.115-1.6923c-.2762.6761-.6965,1.2039-1.2611,1.5794-.5632.3755-1.3223.5646-2.2746.5646-.853,0-1.5808-.17-2.1821-.5088-.6013-.3374-1.0665-.8897-1.3917-1.6542-.1794-.4198-.2983-.9256-.3787-1.4855h12.8289c.049-.3006.0871-.6775.1129-1.1291.0245-.4503.0367-.9019.0367-1.3536,0-1.7304-.3632-3.2663-1.091-4.6076-.7264-1.3413-1.7862-2.3943-3.1779-3.1588ZM466.0819,121.4765c.5632-.3755,1.2461-.5632,2.0487-.5632,1.1291,0,1.9617.4013,2.5017,1.2026.3812.568.5783,1.3755.6899,2.295h-6.7951c.0704-.4221.1529-.8251.276-1.1659.287-.8026.7142-1.3917,1.2788-1.7685Z"/><path class="cls-2" d="M496.3954,117.1886c-.9659-.5006-2.1004-.7509-3.4037-.7509-1.2039,0-2.2882.2313-3.2527.6952-.9659.4639-1.7685,1.1468-2.4079,2.0501-.2989.4217-.5465.9035-.7605,1.4242l-.1986-3.7939h-5.7163v18.806h6.3938v-9.9675c0-1.0529.1496-1.8923.4503-2.5194.302-.6271.7156-1.0842,1.242-1.3726s1.091-.4326,1.6923-.4326c.7768,0,1.4162.2503,1.9181.7523s.7523,1.4039.7523,2.7072v10.8327h6.3938v-12.5251c0-1.4787-.2762-2.7072-.8271-3.6853-.5523-.9781-1.3101-1.7182-2.2759-2.2201Z"/><path class="cls-2" d="M519.7913,117.6035c-1.1414-.7768-2.4392-1.1659-3.8934-1.1659-1.8297,0-3.284.5074-4.3628,1.5223-.6714.6333-1.1516,1.4085-1.5413,2.2506v-11.3706h-6.3938v26.7792h5.6034l.2076-4.1735c.1882.5091.4137.9955.6957,1.4473.6013.9645,1.3726,1.7236,2.3127,2.2746s2.0243.8271,3.254.8271c1.5536,0,2.9085-.3809,4.0621-1.1468,1.1522-.7645,2.0555-1.8733,2.7072-3.3289.6516-1.4529.9781-3.1969.9781-5.228,0-2.08-.3197-3.8553-.9591-5.3218s-1.5291-2.5888-2.6704-3.3656ZM516.0489,130.0714c-.6271.8149-1.4923,1.2216-2.5956,1.2216-.702,0-1.3155-.1932-1.842-.5822-.5278-.3891-.9291-.9591-1.2039-1.7114-.2762-.7523-.4136-1.6678-.4136-2.7453,0-1.0788.1374-1.9943.4136-2.7466.2748-.7523.6707-1.3345,1.1849-1.7481.5129-.4136,1.1332-.6203,1.861-.6203,1.1033,0,1.9685.4068,2.5956,1.2216s.94,2.1004.94,3.8553-.3129,3.0405-.94,3.8553Z"/><path class="cls-2" d="M540.7399,117.5844c-1.3917-.7645-3.0786-1.1468-5.0593-1.1468-1.9304,0-3.6418.3891-5.1327,1.1659-1.4923.7768-2.6528,1.8937-3.4799,3.3465-.8271,1.4543-1.2407,3.2105-1.2407,5.2661,0,2.0569.4136,3.8118,1.2407,5.2661s1.9998,2.5698,3.5166,3.3465c1.5168.7781,3.3153,1.1659,5.398,1.1659,1.3032,0,2.5507-.1877,3.7424-.5632,1.1903-.3768,2.2188-.9346,3.084-1.6746.8652-.7387,1.4719-1.6474,1.8243-2.7262l-5.115-1.6923c-.2762.6761-.6965,1.2039-1.2611,1.5794-.5632.3755-1.3223.5646-2.2746.5646-.853,0-1.5808-.17-2.1821-.5088-.6013-.3374-1.0665-.8897-1.3917-1.6542-.1794-.4198-.2983-.9256-.3787-1.4855h12.8289c.049-.3006.0871-.6775.1129-1.1291.0245-.4503.0367-.9019.0367-1.3536,0-1.7304-.3632-3.2663-1.091-4.6076-.7264-1.3413-1.7862-2.3943-3.1779-3.1588ZM533.6319,121.4765c.5632-.3755,1.2461-.5632,2.0487-.5632,1.1291,0,1.9617.4013,2.5017,1.2026.3812.568.5783,1.3755.6899,2.295h-6.7951c.0704-.4221.1529-.8251.276-1.1659.287-.8026.7142-1.3917,1.2788-1.7685Z"/><path class="cls-2" d="M559.8288,116.4376c-1.4543,0-2.6514.3891-3.5928,1.1659-.94.7768-1.6488,1.8678-2.1249,3.2717l-.2626-4.0621h-5.6415v18.806h6.3938v-9.4778c0-.9781.1932-1.7875.5822-2.4269s.9087-1.121,1.5617-1.4474c.6516-.3251,1.3536-.4884,2.1059-.4884.551,0,1.0216.0313,1.4107.0939.3877.0626.7074.1442.9591.2435l.6394-5.2647c-.2013-.1252-.4707-.2258-.8094-.302-.3387-.0748-.7455-.1116-1.2216-.1116Z"/><path class="cls-2" d="M580.6264,130.4659v-6.8822c0-1.5549-.3455-2.865-1.0339-3.9315-.6911-1.0652-1.6814-1.8664-2.9724-2.4065-1.291-.5387-2.8527-.8081-4.6824-.8081-2.733,0-4.8511.5387-6.3557,1.6161-1.5046,1.0788-2.4324,2.5208-2.7833,4.326l5.4157,1.2788c.2258-1.0529.6326-1.7862,1.223-2.1997.5877-.4149,1.2964-.6217,2.1249-.6217.8271,0,1.4855.2585,1.9739.7713.4897.5142.7332,1.2107.7332,2.0882v.5379l-6.5067,1.3422c-1.7549.351-3.0405.9727-3.8553,1.8624s-1.2216,2.012-1.2216,3.3656c0,1.1278.2571,2.0746.7713,2.8391.5129.7659,1.2461,1.3481,2.1997,1.7495.9523.4013,2.0691.6013,3.3479.6013,1.1019,0,2.1617-.1755,3.1779-.5265,1.0148-.3496,1.8433-.8897,2.4827-1.6161.201-.2289.3146-.5056.4523-.769.1056.3556.2394.6887.4306.9757.4272.6394,1.0162,1.1155,1.7685,1.4284s1.6175.4707,2.5956.4707c1.0774,0,1.993-.1755,2.7453-.5265l.3755-3.6486c-.2762.1007-.6394.1496-1.0897.1496-.8788,0-1.3169-.4884-1.3169-1.4665ZM574.0067,130.0904c-.1755.4013-.4136.7332-.7156.9958-.3006.2639-.6448.4584-1.0339.5836s-.7958.1877-1.2216.1877c-.5523,0-1.0285-.1374-1.4298-.4136s-.6013-.6897-.6013-1.2407c0-.5768.1809-1.0094.5442-1.2978s.9223-.5074,1.6746-.6584l3.0459-.6346v1.0482c0,.5523-.0871,1.0285-.2626,1.4298Z"/><path class="cls-2" d="M596.3293,131.2373c-.4394.1388-.9591.2068-1.5604.2068-.7781,0-1.3862-.1932-1.8243-.5822-.4394-.3891-.6584-1.0353-.6584-1.9372v-7.561h5.6048v-4.5505h-5.6048v-5.9803l-6.3938,1.7671v4.2131h-3.235v4.5505h3.235v8.614c.0245,1.4543.3197,2.6201.8843,3.4976.5632.8774,1.3658,1.5168,2.4065,1.9181s2.2759.6013,3.7043.6013c1.0026,0,1.9807-.1252,2.9344-.3755.9523-.2503,1.7427-.6013,2.3698-1.0529l-.6775-3.9492c-.351.2762-.7469.4829-1.1849.6203Z"/><path class="cls-2" d="M612.7832,126.8935c0,.7264-.0816,1.3604-.2435,1.8991-.1632.5387-.3959.9781-.6965,1.3169-.3006.3374-.6516.589-1.0529.7523s-.8271.2435-1.2788.2435c-.8774,0-1.5549-.2381-2.0311-.7142s-.7142-1.3169-.7142-2.5194v-11.0586h-6.3938v12.5618c0,1.5808.2748,2.8595.8271,3.8376.551.9768,1.3101,1.6855,2.2759,2.1249.9645.438,2.0868.6571,3.3656.6571,1.5291,0,2.8337-.3197,3.9111-.9591,1.0788-.6394,1.9181-1.6229,2.5208-2.952l.1877,3.5356h5.7177v-18.806h-6.3952v10.0805Z"/><path class="cls-2" d="M639.1311,117.1886c-.9659-.5006-2.1004-.7509-3.4037-.7509-1.2039,0-2.2882.2313-3.2527.6952-.9659.4639-1.7685,1.1468-2.4079,2.0501-.2989.4217-.5465.9035-.7605,1.4242l-.1986-3.7939h-5.7163v18.806h6.3938v-9.9675c0-1.0529.1496-1.8923.4503-2.5194.302-.6271.7156-1.0842,1.242-1.3726s1.091-.4326,1.6923-.4326c.7768,0,1.4162.2503,1.9181.7523s.7523,1.4039.7523,2.7072v10.8327h6.3938v-12.5251c0-1.4787-.2762-2.7072-.8271-3.6853-.5523-.9781-1.3101-1.7182-2.2759-2.2201Z"/><path class="cls-2" d="M663.0902,132.8167c-1.1659-.9142-2.8405-1.3726-5.0212-1.3726h-5.9803c-.7033,0-1.2298-.1061-1.5808-.3197-.351-.2122-.5265-.5319-.5265-.9591,0-.4013.2013-.7387.6027-1.0148.1784-.1231.4355-.2156.729-.2938,1.022.2069,2.153.3306,3.446.3306,1.9045,0,3.5356-.2449,4.8892-.7332s2.3888-1.2094,3.103-2.163c.7142-.9523,1.072-2.1059,1.072-3.4595,0-1.3794-.3578-2.5398-1.072-3.4799-.4353-.5731-1.031-1.0364-1.7042-1.4468.1284-.4258.3224-.8195.6513-1.1475.5387-.5401,1.359-.8094,2.4637-.8094.1496,0,.3006.0068.4503.019.151.0122.302.0435.4516.0939l-.5265-4.2879c-.1007-.0245-.2068-.0367-.3197-.0367h-.2816c-1.2039,0-2.2011.3006-2.9901.9019-.7904.6013-1.3726,1.3794-1.7495,2.3317-.2532.6433-.3896,1.3095-.4724,1.9862-1.165-.3153-2.4538-.5183-3.9652-.5183-1.9317,0-3.5737.2503-4.9273.7509-1.3549.502-2.3888,1.223-3.103,2.163s-1.072,2.1004-1.072,3.4799c0,2.0311.7713,3.5982,2.3127,4.7015.2292.1639.5071.2908.7681.4304-.6098.2058-1.1524.4834-1.6143.8484-.9536.7523-1.4284,1.7304-1.4284,2.933,0,1.2039.3755,2.1576,1.1278,2.8595.4289.4001,1.0188.696,1.7.9331-1.0182.1702-1.8277.4513-2.3774.8722-.853.6516-1.2788,1.5046-1.2788,2.5575,0,1.4529.7523,2.6065,2.2569,3.4595s3.9614,1.2788,7.3719,1.2788c2.1059,0,3.9302-.2571,5.4728-.77,1.5413-.5142,2.7385-1.2856,3.5914-2.314s1.2788-2.3195,1.2788-3.8744c0-1.7046-.5822-3.0146-1.7481-3.9302ZM652.7472,120.8004c.5129-.4761,1.1835-.7156,2.012-.7156.8013,0,1.4665.2394,1.993.7156s.7904,1.1536.7904,2.0311c0,.853-.2639,1.5168-.7904,1.993s-1.1917.7142-1.993.7142c-.8285,0-1.4991-.2381-2.012-.7142-.5142-.4761-.7713-1.14-.7713-1.993,0-.8774.2571-1.5549.7713-2.0311ZM659.3097,138.6473c-.4013.287-.9972.5129-1.7862.6761-.7904.1632-1.7862.2449-2.9901.2449-1.5304,0-2.7208-.1564-3.5737-.4707-.853-.3129-1.2788-.7577-1.2788-1.3345,0-.3768.1442-.6897.4326-.94.2884-.2517.6707-.3768,1.1468-.3768h6.7325c.7278,0,1.2284.1061,1.5046.3197s.4136.5088.4136.8843-.2.7088-.6013.9972Z"/><path class="cls-3" d="M158.8178,123.1255c0,35.5725,28.8482,64.4125,64.433,64.4125s64.433-28.84,64.433-64.4125V38.6575c0-2.6914-1.5421-3.3349-3.4477-1.4293,0,0,3.4477-3.4477-26.1861,26.1779-1.9057,1.9057-5.3576,2.3821-7.7104,1.0698-5.0191-2.8-15.705-5.763-27.0888-5.763-35.5848,0-64.433,28.84-64.433,64.4125"/><path class="cls-5" d="M201.6976,123.0065c0-35.5725-28.8475-64.4125-64.4315-64.4125-35.584,0-64.4314,28.84-64.4314,64.4126v84.468c0,2.6914,1.5421,3.3349,3.4477,1.4293,0,0-3.4476,3.4477,26.1855-26.1779,1.9056-1.9057,5.3575-2.3821,7.7102-1.0698,5.019,2.8,15.7046,5.763,27.0881,5.763,35.584,0,64.4314-28.84,64.4314-64.4126"/><path class="cls-2" d="M9.9359,10v63.6645c0,35.163,28.5055,63.6686,63.664,63.6686s63.6682-28.5057,63.6682-63.6686V10H9.9359Z"/><path class="cls-1" d="M158.8178,123.1255c0,19.0236,8.2554,36.1162,21.3744,47.9077,13.1979-11.7954,21.5123-28.9379,21.5123-48.0272,0-19.0236-8.2554-36.1162-21.3744-47.9077-13.1979,11.7954-21.5123,28.9379-21.5123,48.0272Z"/><path class="cls-4" d="M72.8385,123.0059v14.3079c.2547.0031.5061.0192.7615.0192,35.1627,0,63.6681-28.5057,63.6681-63.6686v-15.0709c-35.583.0017-64.4296,28.841-64.4296,64.4124Z"/></svg>