<?xml version="1.0" encoding="UTF-8"?>
<svg id="Ebene_2" xmlns="http://www.w3.org/2000/svg" version="1.1" viewBox="0 0 1544 550">
  <!-- Generator: Adobe Illustrator 29.3.1, SVG Export Plug-In . SVG Version: 2.1.0 Build 151)  -->
  <defs>
    <style>
      .st0 {
        fill: #a1c854;
      }
    </style>
  </defs>
  <polygon class="st0" points="1792.9 212.4 839.7 212.4 839.7 17.9 697.8 17.9 697.8 212.4 -231.3 212.4 -231.3 200.2 685.6 200.2 685.6 5.7 851.9 5.7 851.9 200.2 1792.9 200.2 1792.9 212.4"/>
  <g>
    <path class="st0" d="M13.2,380h12.1v21.4h13.5v-21.4h12.1v56.3h-12.1v-24.6h-13.5v24.6h-12.1v-56.3Z"/>
    <path class="st0" d="M92.8,380h12.5l15.3,56.3h-12.9l-2.6-11.5h-13.2l-2.8,11.5h-12.5l16.1-56.3ZM94.2,415.8h8.9l-2.1-9.5c-1.2-5.1-1.7-8.9-2-11.8h-.2c-.5,2.9-.9,6.7-2.1,11.8l-2.4,9.5Z"/>
    <path class="st0" d="M144.5,417.8v-37.8h12.1v39.2c0,5.2.9,7.8,6.3,7.8s6.1-1.2,7.8-2.6v-44.4h12.1v56.3h-8.7l-1.5-3.8c-2.6,2.8-6.1,4.9-12.1,4.9-9.8,0-15.9-5.4-15.9-19.6Z"/>
    <path class="st0" d="M210,432.2l4-9.3c3.8,2.8,8.3,4.3,12.9,4.3s8.1-2.4,8.1-6.6-2.3-5.7-7.5-7.3c-9.3-2.9-15.3-6.4-15.3-17.8s7.3-16.5,17.9-16.5,11,1.4,15.3,3.8l-4.3,9c-3.5-2.1-6-2.8-9.9-2.8s-6.4,1.8-6.4,5.4,1.2,5.2,6.4,6.9c9,2.8,16.8,5.8,16.8,18.2s-5.1,17.9-19.7,17.9c-7.7,0-14.5-2.3-18.2-5.2Z"/>
    <path class="st0" d="M313.7,380h18.2c14.2,0,21.9,7,21.9,27.5s-5.4,28.8-21.4,28.8h-18.7v-56.3h0ZM331.7,426.1c6.6,0,9-3.1,9-18.8s-2.6-17-9.2-17h-5.5v35.8h5.7Z"/>
    <path class="st0" d="M382.1,380h30.2v10.3h-18.1v11.8h14.4v9.9h-14.4v13.9h19.4v10.4h-31.5v-56.3h0Z"/>
    <path class="st0" d="M440.7,380h17.8c14.4,0,19.7,5.8,19.7,16.1s-3.5,12.9-9.9,14.7c3.7,1.1,5.7,4.6,7.3,10.3l4.4,15.3h-13l-4.4-16.1c-1.5-5.7-2.9-6.9-7.2-6.9h-2.4v23h-12.1v-56.3h-.2ZM458.9,404.5c4.9,0,6.4-2.3,6.4-7.7s-1.8-6.6-6.6-6.6h-6v14.2h6.1Z"/>
    <path class="st0" d="M544.8,380h12.1v25.3l13.2-25.3h13l-14.5,25.7,16.1,30.6h-13.8l-13.9-29.5v29.5h-12.1v-56.3Z"/>
    <path class="st0" d="M609.7,380h17.8c14.4,0,19.7,5.8,19.7,16.1s-3.5,12.9-9.9,14.7c3.7,1.1,5.7,4.6,7.3,10.3l4.4,15.3h-13l-4.4-16.1c-1.5-5.7-2.9-6.9-7.2-6.9h-2.4v23h-12.1v-56.3h-.2ZM627.9,404.5c4.9,0,6.4-2.3,6.4-7.7s-1.8-6.6-6.6-6.6h-6v14.2h6.1Z"/>
    <path class="st0" d="M675.6,380h30.2v10.3h-18.1v11.8h14.4v9.9h-14.4v13.9h19.4v10.4h-31.5v-56.3h0Z"/>
    <path class="st0" d="M734.1,380h21.1c9,0,14.7,4.4,14.7,14.4s-1.7,9.6-7.3,11.9c5.2,1.2,9.3,5.4,9.3,13.5,0,11.5-5.7,16.5-17.8,16.5h-20.4v-56.3h.3ZM752,402.5c4.3,0,5.8-2.3,5.8-6.4s-1.8-6.1-6-6.1h-5.8v12.5h6ZM752.3,426.6c4.7,0,6.7-2.3,6.7-7.3s-1.5-7-6.7-7h-6.3v14.4h6.3Z"/>
    <path class="st0" d="M796.1,432.2l4-9.3c3.8,2.8,8.3,4.3,12.9,4.3s8.1-2.4,8.1-6.6-2.3-5.7-7.5-7.3c-9.3-2.9-15.3-6.4-15.3-17.8s7.3-16.5,17.9-16.5,11,1.4,15.3,3.8l-4.3,9c-3.5-2.1-6-2.8-9.9-2.8s-6.4,1.8-6.4,5.4,1.2,5.2,6.4,6.9c9,2.8,16.8,5.8,16.8,18.2s-5.1,17.9-19.7,17.9c-7.7,0-14.5-2.3-18.2-5.2Z"/>
    <path class="st0" d="M859.7,408.3h18.5v11.5h-18.5v-11.5Z"/>
    <path class="st0" d="M901.4,432.2l4-9.3c3.8,2.8,8.3,4.3,12.9,4.3s8.1-2.4,8.1-6.6-2.3-5.7-7.5-7.3c-9.3-2.9-15.3-6.4-15.3-17.8s7.3-16.5,17.9-16.5,11,1.4,15.3,3.8l-4.3,9c-3.5-2.1-6-2.8-9.9-2.8s-6.4,1.8-6.4,5.4,1.2,5.2,6.4,6.9c9,2.8,16.8,5.8,16.8,18.2s-5.1,17.9-19.7,17.9c-7.5,0-14.4-2.3-18.2-5.2Z"/>
    <path class="st0" d="M967.2,380h30.2v10.3h-18.1v11.8h14.4v9.9h-14.4v13.9h19.4v10.4h-31.5v-56.3h0Z"/>
    <path class="st0" d="M1025.9,380h11.9v45.9h17.3v10.4h-29.2v-56.3Z"/>
    <path class="st0" d="M1082.6,380h21.1c9,0,14.7,4.4,14.7,14.4s-1.7,9.6-7.3,11.9c5.2,1.2,9.3,5.4,9.3,13.5,0,11.5-5.7,16.5-17.8,16.5h-20.4v-56.3h.3ZM1100.5,402.5c4.3,0,5.8-2.3,5.8-6.4s-1.8-6.1-6-6.1h-5.8v12.5h6ZM1100.8,426.6c4.7,0,6.7-2.3,6.7-7.3s-1.5-7-6.7-7h-6.3v14.4h6.3Z"/>
    <path class="st0" d="M1144.6,432.2l4-9.3c3.8,2.8,8.3,4.3,12.9,4.3s8.1-2.4,8.1-6.6-2.3-5.7-7.5-7.3c-9.3-2.9-15.3-6.4-15.3-17.8s7.3-16.5,17.9-16.5,11,1.4,15.3,3.8l-4.3,9c-3.5-2.1-6-2.8-9.9-2.8s-6.4,1.8-6.4,5.4,1.2,5.2,6.4,6.9c9,2.8,16.8,5.8,16.8,18.2s-5.1,17.9-19.7,17.9c-7.7,0-14.5-2.3-18.2-5.2Z"/>
    <path class="st0" d="M1218.2,390.4h-12.1v-10.4h36.3v10.4h-12.1v45.9h-11.9v-45.9h-.2Z"/>
    <path class="st0" d="M1269.1,380h12.1v21.4h13.5v-21.4h12.1v56.3h-12.1v-24.6h-13.5v24.6h-12.1v-56.3Z"/>
    <path class="st0" d="M1335.3,429.8l5.5-1.2v-40.6l-5.5-1.2v-6.7h23.3v6.7l-5.5,1.2v40.6l5.5,1.2v6.6h-23.3v-6.6Z"/>
    <path class="st0" d="M1386.7,380h11.9v45.9h17.3v10.4h-29.2v-56.3h0Z"/>
    <path class="st0" d="M1443.6,380h29.5v10.3h-17.4v11.8h13.8v9.9h-13.8v24.3h-12.1v-56.3Z"/>
    <path class="st0" d="M1500.2,380h30.2v10.3h-18.1v11.8h14.4v9.9h-14.4v13.9h19.4v10.4h-31.5v-56.3Z"/>
    <path class="st0" d="M478.2,498.5h16.8c7.2,0,11.6,3.5,11.6,11.5s-1.2,7.7-5.8,9.5c4.1.9,7.5,4.3,7.5,10.7s-4.4,13.2-14.1,13.2h-16.1v-44.8ZM492.4,516.4c3.4,0,4.6-1.8,4.6-5.2s-1.4-4.9-4.7-4.9h-4.6v9.9h4.7v.2ZM492.6,535.4c3.7,0,5.4-1.8,5.4-5.8s-1.2-5.7-5.4-5.7h-5.1v11.3h5.1v.2Z"/>
    <path class="st0" d="M517.7,534.5v-24.2h9v22.5c0,3.2,1.2,4,3.2,4s3.2-.8,4.7-2v-24.3h9v32.9h-7.3l-.8-3.2c-2.4,2.4-4.3,4.1-8.7,4.1-5.4-.3-9.2-3.2-9.2-9.8Z"/>
    <path class="st0" d="M554.6,510.3h7.3l.8,3.2c2.4-2.3,5.2-4,9.2-4,5.7,0,8.6,2.4,8.6,9v24.6h-9.2v-22.5c0-3.2-1.2-3.8-3.1-3.8s-3.2.8-4.7,2v24.5h-9v-33.1h.2Z"/>
    <path class="st0" d="M589.9,527.1c0-13.8,3.5-17.6,10.9-17.6s6,1.5,7.5,3.1v-16.5h9v47h-7.3l-.8-3.1c-2.4,2.6-4.7,4-8.1,4-6.7,0-11.2-4-11.2-16.8ZM608.4,534.9v-16.4c-.9-.9-2.4-1.8-4.3-1.8-3.7,0-4.4,1.8-4.4,10.3s.8,9.8,4,9.8,3.5-.8,4.7-1.8Z"/>
    <path class="st0" d="M626.9,526.7c0-12.4,5.2-17.1,13.8-17.1s13.8,5.4,13.8,17.4v2.6h-17.8c.3,6,2,7.2,6,7.2s5.2-1.2,7.2-2.8l4,6c-2.4,2.3-6.3,4-10.9,4-11,0-16.1-5.1-16.1-17.3ZM636.7,523.4h8.4c-.2-5.2-.8-7.3-4.3-7.3s-3.8,1.4-4.1,7.3Z"/>
    <path class="st0" d="M661.2,541l2.9-6.9c2.1,1.4,4.9,2.4,7.7,2.4s4.4-.9,4.4-2.9-1.4-2.8-5.7-4c-4.9-1.4-7.8-4-7.8-10.1s4.1-9.9,11.2-9.9,7.2.8,10.1,2l-2.3,6.9c-2.1-1.1-4.3-1.5-6.9-1.5s-3.2.8-3.2,2.6.9,2.4,4.6,3.5c5.1,1.4,9,3.4,9,10.4s-3.7,10.9-12.1,10.9c-5.1-.5-9.3-1.8-11.9-3.4Z"/>
    <path class="st0" d="M690.6,510.3h9.5l3.5,12.1c.6,2,1.5,6.3,2.1,9.5h.2c.3-2.8,1.2-6.9,2-10.1l3.4-11.6h9.3l-10.9,32.9h-8l-11.2-32.8Z"/>
    <path class="st0" d="M726.7,526.7c0-12.4,5.2-17.1,13.8-17.1s13.8,5.4,13.8,17.4v2.6h-17.8c.3,6,2,7.2,6,7.2s5.2-1.2,7.2-2.8l4,6c-2.4,2.3-6.3,4-10.9,4-11.2,0-16.1-5.1-16.1-17.3ZM736.5,523.4h8.4c-.2-5.2-.8-7.3-4.3-7.3s-3.8,1.4-4.1,7.3Z"/>
    <path class="st0" d="M763.6,510.3h7.3l.8,3.7c2-2.8,4.7-4.3,8-4.3s2,.2,2.6.3l-1.5,9c-.8-.5-2-.9-3.2-.9-2.1,0-3.4.5-4.7,1.5v23.4h-9v-32.8h-.2Z"/>
    <path class="st0" d="M798.4,540.1l-.8,3.1h-7.3v-47h9v16.5c1.4-1.2,4.1-3.1,7.5-3.1,6.9,0,10.9,3.7,10.9,16.5s-3.7,18.1-11.2,18.1c-3.4-.3-6.3-2.1-8.1-4.1ZM808,526.5c0-8.1-.8-9.8-4.1-9.8s-3.4.8-4.6,1.8v16.4c.9.9,2.4,1.7,4.3,1.7,3.7.2,4.4-1.7,4.4-10.1Z"/>
    <path class="st0" d="M825.6,533.5c0-7.7,4.4-10.7,14.2-10.7h2v-1.2c0-3.2-.6-4.7-3.7-4.7s-6,1.4-8.6,2.8l-3.2-6.1c3.7-2.4,7.5-4,12.7-4,8.3,0,11.8,2.9,11.8,10.6v23.1h-7.2s-.5-1.2-.9-2.6c-1.7,1.8-4,3.4-7.7,3.4-6.6,0-9.5-4-9.5-10.4ZM841.8,536v-7.7h-.5c-5.8,0-6.9,1.5-6.9,5.1s.8,4.4,3.2,4.4c2,0,3.2-.9,4.1-1.8Z"/>
    <path class="st0" d="M861.7,510.3h7.3l.8,3.2c2.4-2.3,5.2-4,9.2-4,5.7,0,8.6,2.4,8.6,9v24.6h-9.2v-22.5c0-3.2-1.2-3.8-3.1-3.8s-3.2.8-4.7,2v24.5h-9v-33.1h.2Z"/>
    <path class="st0" d="M897.1,527.1c0-13.8,3.5-17.6,10.9-17.6s6,1.5,7.5,3.1v-16.5h9v47h-7.3l-.8-3.1c-2.4,2.6-4.7,4-8.1,4-6.9,0-11.2-4-11.2-16.8ZM915.4,534.9v-16.4c-.9-.9-2.4-1.8-4.3-1.8-3.7,0-4.4,1.8-4.4,10.3s.8,9.8,4,9.8,3.7-.8,4.7-1.8Z"/>
    <path class="st0" d="M952.8,526.7c0-12.4,5.2-17.1,13.8-17.1s13.8,5.4,13.8,17.4v2.6h-17.8c.3,6,2,7.2,6,7.2s5.2-1.2,7.2-2.8l4,6c-2.4,2.3-6.3,4-10.9,4-11,0-16.1-5.1-16.1-17.3ZM962.7,523.4h8.4c-.2-5.2-.8-7.3-4.3-7.3s-4,1.4-4.1,7.3Z"/>
    <path class="st0" d="M988.8,538.1c0-3.2,2.6-5.7,5.8-5.7s5.8,2.6,5.8,5.7-2.6,5.8-5.8,5.8-5.8-2.6-5.8-5.8Z"/>
    <path class="st0" d="M1017.1,498.5h10.4l5.4,21.9c.8,3.2,1.2,5.2,1.8,8.9h0c.6-3.7,1.1-5.5,2-8.9l6-22h9.9l-13.6,44.7h-8.7l-13.2-44.5Z"/>
    <path class="st0" d="M1053.8,538.1c0-3.2,2.6-5.7,5.8-5.7s5.8,2.6,5.8,5.7-2.6,5.8-5.8,5.8-5.8-2.6-5.8-5.8Z"/>
  </g>
</svg>