<?xml version="1.0" encoding="UTF-8"?>
<!-- Generator: Adobe Illustrator 15.1.0, SVG Export Plug-In . SVG Version: 6.00 Build 0)  -->
<svg xmlns="http://www.w3.org/2000/svg" xmlns:xlink="http://www.w3.org/1999/xlink" version="1.1" id="Ebene_1" x="0px" y="0px" width="250px" height="84px" viewBox="0 0 250 84" style="enable-background:new 0 0 250 84;" xml:space="preserve">
<style type="text/css">
<![CDATA[
	.st0{fill:#E3E3E3;}
	.st1{fill:none;stroke:#004F9F;stroke-width:0.3879;stroke-miterlimit:3.864;}
	.st2{fill:none;stroke:#004F9F;stroke-width:0.9164;stroke-linejoin:round;stroke-miterlimit:3.864;}
	.st3{fill:#004F9F;}
	.st4{fill:none;stroke:#E3E3E3;stroke-width:0.3879;stroke-miterlimit:3.864;}
]]>
</style>
<g>
	<path class="st0" d="M45.6,41.2l-0.4,0.4c-5.8,6.1-8.8,15.9-9,18.1c-0.2,2.1,0.4,9.4-0.2,10.7c-0.5,1.3-2.2,2.4-2.9,0.3   c-0.6-2-0.8-7.1-0.7-7.8c0.1-0.6,0.7-4.3,0.6-6.6c-0.1-2.3-0.8-0.9-0.6-2.9c0.2-1.9-0.7-3.2,0.1-5.2c0.8-2.1-1.5-3.7-1.3-6   c0.2-2.3,0.8-4.3,1.6-5.8c0.8-1.5,3.4-6.4,5-7.4c1.7-1,1.5-2.2,0.5-3.4c-0.6-0.8-1.5-2.1-2.1-3.4c-1.1,1.4-2.2,1.6-4.3,0.4   c-1-0.5-0.7,0.4-2.7,1.3c-2,0.9-3.4-2.1-3.4-2c0.1,1-0.6,1.2-0.8,3c-0.1,1.9-0.8,1.4-2.2,3.2c-1.3,1.7,3,6.8,3.3,8.7   c0.3,1.9,2.7,6.8,2.7,9.1c0,2.3-1.3,11-1.7,12.3c-0.4,1.3-0.2,2-1,3.5c-0.7,1.5-0.7,5.1-0.7,5.8c0,0.7-0.9,8.6-1.3,10.8   c-0.5,2.2-1.8,1.3-2,0.2c-0.2-1.1-0.7-15-0.7-17.1c0-2.1-8.4-20.5-11-25.7C7.9,30.5,4.9,23.4,4.4,20C4,16.6,5.9,10.2,8.7,7.7   c2.8-2.5,6.2-2.7,9.9-2.4c3.7,0.3,6.4,3.6,7.3,6.3c1,3,5.4,3.7,7.4,2.5c5.3-3.1,6.2-5,6.3-5c0,0,0,0,0,0.1C42.7,6,48.7,2.9,55,6.8   c7.3,4.4,5.6,11.9,3.6,17c-0.7,1.9-2.2,4.2-4,6.7c0,0-0.5-1.7-1.6-1.9c-1.1-0.2-5.9,0-5.9,0s-1.3,0.1-1.6,1.9   C45.3,32.2,45.6,41.2,45.6,41.2"></path>
	<path class="st4" d="M45.6,41.2l-0.4,0.4c-5.8,6.1-8.8,15.9-9,18.1c-0.2,2.1,0.4,9.4-0.2,10.7c-0.5,1.3-2.2,2.4-2.9,0.3   c-0.6-2-0.8-7.1-0.7-7.8c0.1-0.6,0.7-4.3,0.6-6.6c-0.1-2.3-0.8-0.9-0.6-2.9c0.2-1.9-0.7-3.2,0.1-5.2c0.8-2.1-1.5-3.7-1.3-6   c0.2-2.3,0.8-4.3,1.6-5.8c0.8-1.5,3.4-6.4,5-7.4c1.7-1,1.5-2.2,0.5-3.4c-0.6-0.8-1.5-2.1-2.1-3.4c-1.1,1.4-2.2,1.6-4.3,0.4   c-1-0.5-0.7,0.4-2.7,1.3c-2,0.9-3.4-2.1-3.4-2c0.1,1-0.6,1.2-0.8,3c-0.1,1.9-0.8,1.4-2.2,3.2c-1.3,1.7,3,6.8,3.3,8.7   c0.3,1.9,2.7,6.8,2.7,9.1c0,2.3-1.3,11-1.7,12.3c-0.4,1.3-0.2,2-1,3.5c-0.7,1.5-0.7,5.1-0.7,5.8c0,0.7-0.9,8.6-1.3,10.8   c-0.5,2.2-1.8,1.3-2,0.2c-0.2-1.1-0.7-15-0.7-17.1c0-2.1-8.4-20.5-11-25.7C7.9,30.5,4.9,23.4,4.5,20C4,16.6,6,10.2,8.7,7.7   C11.5,5.2,15,5,18.7,5.3c3.7,0.3,6.4,3.6,7.3,6.3c1,3,5.4,3.7,7.4,2.5c5.3-3.1,6.2-5,6.3-5c0,0,0,0,0,0.1C42.7,6,48.7,3,55,6.8   c7.3,4.4,5.6,11.9,3.6,17c-0.7,1.9-2.2,4.2-4,6.7c0,0-0.5-1.7-1.6-1.9c-1.1-0.2-5.9,0-5.9,0s-1.3,0.1-1.6,1.9   C45.3,32.3,45.6,41.2,45.6,41.2L45.6,41.2z"></path>
	<path class="st3" d="M25.6,71.6c0,0,0.5-0.9,0.6,0.1c0.1,1-0.2,1.6-0.2,2.2c0.1,0.7,0.2,2.1,0.1,2.4C26,76.7,26,78.1,26,78.7   c-0.1,0.6-0.4,2.4-0.8,3.1c-0.3,0.7-1.9,2.2-2.5,1.3c-0.7-0.9-0.7-1.7-0.6-2c0.2-0.2,0.4-0.1,0.6,0.2c0.2,0.3,0.5,1.1,1.1-0.1   c0.6-1.2,1.1-2.8,1.3-4.5c0.2-1.6,0.3-4.1,0.4-4.3C25.5,72.1,25.6,71.6,25.6,71.6"></path>
	<path class="st3" d="M55,31.5c0.2-0.2,0.3-0.5,0.4-0.6c2-2.8,6.2-9.5,5.9-13.7c-0.3-4.2-1.1-8.8-5.9-11c-4.8-2.3-9.6-3.1-12.9-1.3   c-3.2,1.8-4.4,3-5,4.2c-0.6,1.2-3.1,3.7-5.4,3.2c-2.3-0.5-2.9-0.9-4.9-2.5c-2-1.6-4.8-4.6-6.5-5.2c-1.7-0.6-4-1.6-7.2-0.7   c-3.2,0.9-5.8,2.6-7.1,4.5c-1.3,1.9-2.5,3.7-2.8,6.5c-0.3,2.8,0.1,6.1,0.8,8.9c0.7,2.8,2.5,8.6,4.4,11.7c1.8,3,4.3,7.3,5.6,9.8   c1.3,2.5,4.3,7.9,4.9,9c0.6,1.1,3.1,7.3,3.4,10.9c0.3,3.7,0.3,5.1,0.3,6.6c0.1,1.4,0.2,4,0.1,4.5C23,76.5,23,77.8,23,77.8   s-0.5,1.5-0.6,1.7c-0.2,0.2-0.4,0.4-0.4,0.4s-0.2-1.6-0.2-2.4c0.1-0.8-0.4-9-1.1-12.7c-0.7-3.7-1.3-7.6-5.6-15.2   c-4.3-7.6-4.5-8.6-6.8-12.4C5.9,33.4,0.2,22.4,1,15.9C1.8,9.4,2.7,5.4,6.6,3.4c4-2,6.1-2.9,9-2.5c2.9,0.5,5.7,1.7,7.3,3.5   c1.6,1.8,4.5,3.8,5.8,4.3c1.3,0.5,2.9,1.3,4.9,0.6c2-0.8,6.9-5.9,10.3-6.7c3.4-0.8,8.3-1.6,12.7,1c4.4,2.6,7.3,6,7.4,9.8   c0.2,3.8-1.4,8.4-2.1,10.2c-0.8,1.8-2.5,4.5-2.8,4.9c-0.1,0.1-1.7,2.1-3.8,4.6L55,31.5L55,31.5z"></path>
	<path class="st1" d="M55,31.5c0.2-0.2,0.3-0.5,0.4-0.6c2-2.8,6.2-9.5,5.9-13.7c-0.3-4.2-1.1-8.8-5.9-11c-4.8-2.3-9.6-3.1-12.9-1.3   c-3.2,1.8-4.4,3-5,4.2c-0.6,1.2-3.1,3.7-5.4,3.2c-2.3-0.5-2.9-0.9-4.9-2.5c-2-1.6-4.8-4.6-6.5-5.2c-1.7-0.6-4-1.6-7.2-0.7   c-3.2,0.9-5.8,2.6-7.1,4.5c-1.3,1.9-2.5,3.7-2.8,6.5c-0.3,2.8,0.1,6.1,0.8,8.9S7,32.3,8.8,35.3c1.8,3,4.3,7.2,5.6,9.8   c1.3,2.5,4.3,7.9,4.9,9c0.6,1.1,3.1,7.2,3.4,10.9c0.3,3.7,0.3,5.1,0.3,6.6c0.1,1.4,0.2,4,0.1,4.5c-0.1,0.4-0.1,1.8-0.1,1.8   s-0.5,1.5-0.6,1.7c-0.2,0.2-0.4,0.4-0.4,0.4s-0.2-1.6-0.2-2.4c0.1-0.8-0.4-9-1.1-12.7c-0.7-3.7-1.3-7.6-5.5-15.2   c-4.3-7.6-4.5-8.6-6.8-12.4C5.9,33.4,0.2,22.4,1,15.9C1.8,9.4,2.7,5.4,6.7,3.4c4-2,6.1-2.9,9-2.5c2.9,0.5,5.7,1.7,7.3,3.5   c1.6,1.8,4.5,3.8,5.8,4.3c1.3,0.5,2.9,1.3,4.9,0.6c2-0.8,6.9-5.9,10.3-6.7c3.4-0.8,8.3-1.6,12.7,1c4.4,2.6,7.2,6,7.4,9.8   c0.2,3.8-1.4,8.4-2.1,10.1c-0.8,1.8-2.5,4.5-2.8,4.9c-0.1,0.1-1.7,2.1-3.8,4.6L55,31.5L55,31.5z"></path>
	<path class="st3" d="M45.5,45.1c-0.5,0.7-0.9,1.1-1.1,1.3c-1.1,1.5-2.8,3.6-3.7,6.5c-0.9,2.9-2.2,7.7-2.7,11.4   c-0.5,3.7-0.9,4.9-0.9,4.9s-1.1-0.5-0.6-5.6c0.6-5.1,0.5-9.2,3.3-13.4c1.1-1.6,3.2-4.3,5.6-7.2L45.5,45.1L45.5,45.1z"></path>
	<path class="st1" d="M45.5,45.1c-0.5,0.7-0.9,1.1-1.1,1.3c-1.1,1.5-2.8,3.6-3.7,6.5c-0.9,2.9-2.2,7.7-2.7,11.4   c-0.5,3.7-0.9,4.8-0.9,4.8s-1.1-0.5-0.6-5.6c0.6-5.1,0.5-9.2,3.3-13.3c1.1-1.6,3.2-4.3,5.6-7.2L45.5,45.1L45.5,45.1z"></path>
	<path class="st3" d="M20.2,48.2c0,0-1.5-2.6-1.6-2.9c-0.2-0.3-0.8-1.2-0.1-1.1c0.7,0.1,1.5,0.2,2.5,2.1c1,1.9,3.2,6.2,3.5,7.2   s1.2,5.5,1.3,6.6c0.1,1.1,0.3,4.5,0.3,5.4c0,0.9-0.2,2.4-0.3,2.7c-0.1,0.3-0.3,0.5-0.3,0.5s-0.6-1.7-0.6-2.5c0-0.8-1.1-10-1.5-11.1   c-0.4-1.1-1.3-3.8-1.6-4.5C21.3,49.9,20.2,48.2,20.2,48.2"></path>
	<path class="st3" d="M27.3,61c0,0-1.3-10.5-1.6-11.2c-0.3-0.7-0.9-4.4-1.6-5.7c-0.7-1.4-3.4-6.4-3.8-6.8C20,37,18,34.6,19,34.6   c1,0.1,2.3,0.8,4.2,4.1c2,3.3,3.3,7.3,3.9,11.5c0.6,4.3,1.1,7.9,1.1,8.6c0.1,0.6,0,3-0.1,3.5c-0.1,0.5-0.8,1.4-1.1,1.2   c-0.3-0.3-0.4-0.5-0.5-0.8c-0.1-0.3,0-0.2,0.1-0.2c0.1,0,0.2,0.3,0.3-0.2C27.1,61.8,27.3,61,27.3,61"></path>
	<path class="st3" d="M28.9,48.9c0,0-0.8-6.3-2.3-10c-1.5-3.7-3.1-7.1-5.3-8.7c-2.2-1.6-4.9-2.8-4.5-3.2c0.4-0.5,1.1-0.3,1.7,0   c0.5,0.3,2.1,0.8,3.5,0.2c1.4-0.6,2.8-1.9,2.9-3.4c0.1-1.6-0.1-5.1-0.1-5.1s0.2-1.1,0.7,0.3c0.5,1.4,0.6,2.4,0.6,2.8   c0,0.4,0.1,3.7-1.3,5.2c-1.4,1.5-2.2,1.1-0.5,4c1.7,2.9,4.1,7.2,4.4,9.4c0.3,2.2,0.9,5.4,1.1,7.3c0.3,1.9,0.1,4.9-0.1,5.7   c-0.2,0.7-0.7,1.6-0.7,1.6s-0.7,0.7-0.3-0.9c0.4-1.6,0.2-3.7,0.2-4C29,49.7,28.9,48.9,28.9,48.9"></path>
	<path class="st3" d="M31.6,42.9c0,0,0.6-5,3.2-9.2c2.6-4.2,4-5.7,4.7-6.2c0.7-0.5,2.6-1.7,3.3-1.9c0.7-0.3,1.8-0.3,1.6-0.7   c-0.1-0.4-0.8-0.7-0.8-0.7s-3.4,0.3-4.6-1.4c-1.3-1.7-1.6-2.4-1.4-3.2c0.2-0.8,0.3-2.5,0.3-2.7c0-0.2,0.2-2.3-0.8,0.1   c-1,2.5-1.2,4.7,0,6c1.2,1.4,2.2,1,1.3,2.7c-0.9,1.7-3.8,4.5-4.6,6.1c-0.8,1.6-3.3,7.7-3.3,8.3c0,0.6-0.5,3.8-0.1,4.8   c0.4,1,0.6,1.9,0.6,1.9s0.5-0.4,0.3-1.5C31.2,44.3,31.6,42.9,31.6,42.9"></path>
	<path class="st3" d="M40.9,31.5c0,0,1.2-1.2,1.6-1.2c0.4,0,2-0.1,0.1,1.7c-1.9,1.8-4.7,4.8-5.6,6.4c-0.9,1.6-2.2,5.8-2.4,6.5   c-0.1,0.7-1.5,4.6-1.5,5.2c-0.1,0.6-0.4,2.1-0.3,2.4c0.1,0.3-0.1,0.7,0.1,0.9c0.2,0.1,0,0.2,0.3,0.1s0.5,0.2,0.1,0.5   c-0.3,0.2-1,0.7-1.3-0.3c-0.3-1-0.4-2.2-0.3-2.7c0.1-0.6,0.4-3.8,1.7-7.8c1.3-4.1,2.5-6.9,3.5-8C38.1,34.1,40.9,31.5,40.9,31.5"></path>
	<path class="st3" d="M37.8,43.7c0,0,3.2-3.8,3.4-4c0.3-0.2,1.1-1,1.5-0.9c0.4,0,1.2,0,0.9,0.5c-0.3,0.5-0.9,0.9-2.3,2.6   c-1.5,1.8-2.9,3.1-3.9,6c-1,3-1.9,7.1-2.1,8c-0.2,0.9-0.5,2.2-0.7,2.5c-0.2,0.3-0.7,1.8-0.8,0c-0.1-1.7,0.4-7.9,2-11.3   C37.4,43.8,37.8,43.7,37.8,43.7"></path>
	<path class="st3" d="M33,64.9c0,0,0.3-1.8,0.2-2.2c-0.1-0.3-0.1-1.3,0.1-1.4c0.2-0.1,0.5-0.3,0.6,0.8c0.1,1.1,0.1,4.4,0.3,5.2   c0.2,0.9,0.6,2.2,0.9,2.5c0.3,0.3,0.7,0.8,0.9,0.8c0.2-0.1,0.4-0.2,0.5-0.3c0.1-0.2,1-0.7,0.6,0.4c-0.4,1-1.3,1.5-2,1.2   c-0.7-0.3-2.1-2-2.1-3.4C33,67,33,64.9,33,64.9"></path>
	<path class="st3" d="M7.7,27.6c0.1-0.1,0.2-0.1,0.4-0.2c0.3-0.3,0.6-0.7,0.9-1.2C9,26,9.1,25.8,9.1,25.6c0.1-0.4,0.2-0.6,0.3-0.9   c0.3-1.2,0.4-1.5,0.3-2.9c-0.1-1.4-0.2-1.8-0.2-1.8s0.8,2.9,0.7,4.7c-0.1,1.1-0.3,1.7-0.5,2.2c-0.2,0.8-0.5,1.1-0.8,1.5   C8.5,29,8.4,29,7.8,29.3c-0.4,0.2-0.7,0.1-0.9,0.1c-0.2,0-0.3,0-0.6-0.1C5.8,29,5.6,29,5.2,28.5C4.7,28,3.6,26.9,4,26.1   C4.1,26,4.1,26,4.2,26c-0.1-0.2,0-0.4,0.1-0.6c0.4-0.7,1.6,1.5,2.2,2C6.9,27.7,7.4,27.7,7.7,27.6"></path>
	<path class="st3" d="M15.5,26.8c0.2-0.1,0.3-0.1,0.5-0.2c0.4-0.3,0.8-0.7,1.1-1.2c0.1-0.2,0.1-0.4,0.2-0.5c0.1-0.3,0.2-0.6,0.4-0.9   c0.4-1.2,0.5-1.5,0.4-2.9c-0.2-1.4-0.3-1.8-0.3-1.8s1.1,2.9,0.9,4.7c-0.1,1.1-0.3,1.7-0.6,2.2c-0.2,0.8-0.6,1.1-1,1.5   c-0.5,0.5-0.7,0.6-1.4,0.8c-0.5,0.2-0.9,0.1-1.1,0.1c-0.2,0-0.4,0-0.7-0.1c-0.7-0.2-0.9-0.2-1.5-0.7c-0.6-0.5-2-1.6-1.5-2.3   c0.1-0.1,0.2-0.1,0.3-0.1C11,25,11,24.8,11.1,24.6c0.5-0.7,2,1.5,2.8,2C14.5,26.9,15,26.9,15.5,26.8"></path>
	<path class="st3" d="M29.2,24.9c0.1-0.1,0.3-0.1,0.4-0.2c0.4-0.3,0.7-0.6,0.9-1.2c0.1-0.2,0.1-0.3,0.1-0.5c0.1-0.3,0.2-0.6,0.3-0.9   c0.3-1.2,0.4-1.5,0.3-2.8c-0.1-1.4-0.2-1.8-0.2-1.8s0.9,2.9,0.7,4.6c-0.1,1.1-0.3,1.7-0.5,2.2c-0.2,0.7-0.5,1.1-0.8,1.5   c-0.4,0.5-0.6,0.6-1.2,0.8c-0.4,0.2-0.7,0.1-0.9,0.1c-0.2,0-0.4,0-0.6-0.1c-0.6-0.2-0.8-0.2-1.3-0.7c-0.5-0.5-1.6-1.6-1.2-2.3   c0.1-0.1,0.1-0.1,0.2-0.1c-0.1-0.2,0-0.4,0.1-0.6c0.4-0.7,1.7,1.5,2.3,1.9C28.4,25,28.8,25,29.2,24.9"></path>
	<path class="st3" d="M31.8,23.4c-0.2-0.4-0.3-0.9-0.4-1.8c-0.1-1.4,0.4-1,0.7,0c0.1,0.2,0.2,0.4,0.3,0.7c0,0.2,0.1,0.3,0.1,0.4   c0.2,0.4,0.4,0.7,0.7,1c0.1,0.1,0.2,0.1,0.3,0.2c0.3,0.1,0.7,0.1,1.1-0.2c0.5-0.3,1.6-2.1,1.9-1.6c0.1,0.2,0.1,0.3,0,0.5   c0.1,0,0.1,0,0.2,0.1c0.3,0.6-0.6,1.5-1,1.9c-0.4,0.4-0.5,0.5-1,0.6c-0.2,0.1-0.4,0.1-0.5,0.1c-0.2,0.1-0.4,0.1-0.8-0.1   c-0.5-0.2-0.6-0.2-1-0.6C32.2,24.3,32,24,31.8,23.4"></path>
	<path class="st3" d="M42,22.1c-0.6-1.6,0.2-4.1,0.2-4.1s0,0.4,0.2,1.7c0.3,1.3,0.2,1.1,0.6,2.4c0.4,1.3,1.2,1.9,2.1,2.2   c0.2,0.1,0.4,0.1,0.5,0.1c0.5,0,1-0.1,1.5-0.5c0.7-0.5,1.6-2.8,2.3-2.2c0.2,0.2,0.3,0.3,0.3,0.5c0.1,0,0.2,0,0.3,0.1   c0.7,0.6-0.3,1.8-0.8,2.4c-0.5,0.6-0.7,0.6-1.3,0.9c-0.3,0.1-0.5,0.2-0.7,0.2C47,26,46.7,26,46.1,26c-0.8-0.1-1-0.1-1.7-0.5   c-0.7-0.4-1.4-0.9-2.2-2.5C42,22.5,41.9,22.2,42,22.1"></path>
	<path class="st3" d="M49.5,24.7c-0.3-0.5-0.6-1.2-0.8-2.3c-0.2-1.9,1.1-5,1.1-5s-0.2,0.4-0.4,1.9c-0.2,1.5,0,1.7,0.5,3   c0.2,0.2,0.3,0.5,0.4,0.9c0.1,0.2,0.1,0.4,0.2,0.6c0.4,0.6,0.8,1,1.3,1.3c0.2,0.1,0.4,0.2,0.6,0.2c0.6,0.1,1.2,0.1,1.9-0.3   c0.9-0.5,2.9-2.8,3.4-2.1c0.2,0.2,0.2,0.4,0.1,0.7c0.1,0,0.2,0,0.3,0.1c0.6,0.8-1,1.9-1.7,2.5c-0.7,0.5-1,0.6-1.8,0.8   c-0.4,0.1-0.7,0.1-0.9,0.1c-0.3,0.1-0.7,0.1-1.3-0.1c-0.8-0.2-1.1-0.3-1.7-0.9C50.2,25.9,49.8,25.5,49.5,24.7"></path>
	<polygon class="st3" points="120,45.8 123.8,45.8 128.9,30.5 125.9,30.5 122,42.5 121.9,42.5 118,30.5 114.7,30.5 120,45.8  "></polygon>
	<polygon class="st2" points="120,45.8 123.8,45.8 128.9,30.6 125.9,30.6 122,42.5 121.9,42.5 118,30.6 114.8,30.6 120,45.8  "></polygon>
	<polygon class="st3" points="131.2,45.8 134.3,45.8 134.3,30.5 131.2,30.5 131.2,45.8  "></polygon>
	<polygon class="st2" points="131.3,45.8 134.3,45.8 134.3,30.6 131.3,30.6 131.3,45.8  "></polygon>
	<path class="st3" d="M146.7,30.8c-1.1-0.4-2.3-0.5-3.7-0.5c-2.7,0-5.3,1.2-5.3,4.7c0,5.1,6.7,3.9,6.7,6.8c0,1.4-1.6,2-2.7,2   c-1.2,0-2.4-0.4-3.5-0.9l-0.3,2.8c1.5,0.4,2.3,0.6,3.9,0.6c3.1,0,5.7-1.3,5.7-4.6c0-5.1-6.7-4-6.7-6.7c0-1.7,1.4-2.1,2.4-2.1   c1.1,0,2.1,0.2,3.1,0.7L146.7,30.8L146.7,30.8z"></path>
	<path class="st2" d="M146.7,30.8c-1.1-0.4-2.3-0.5-3.6-0.5c-2.7,0-5.3,1.2-5.3,4.6c0,5,6.7,3.8,6.7,6.7c0,1.4-1.5,2-2.7,2   c-1.2,0-2.4-0.4-3.4-0.9l-0.3,2.7c1.5,0.4,2.2,0.6,3.9,0.6c3.1,0,5.7-1.3,5.7-4.6c0-5.1-6.7-4-6.7-6.6c0-1.7,1.3-2.1,2.4-2.1   c1.1,0,2.1,0.2,3.1,0.7L146.7,30.8L146.7,30.8z"></path>
	<polygon class="st3" points="150,45.8 160.6,45.8 160.6,43.4 153.2,43.4 160.4,33 160.4,30.5 150.3,30.5 150.3,32.9 157.1,32.9    150,43.3 150,45.8  "></polygon>
	<polygon class="st2" points="150,45.8 160.5,45.8 160.5,43.4 153.2,43.4 160.4,33 160.4,30.6 150.3,30.6 150.3,33 157.1,33    150,43.3 150,45.8  "></polygon>
	<polygon class="st3" points="163.5,45.8 166.5,45.8 166.5,30.5 163.5,30.5 163.5,45.8  "></polygon>
	<polygon class="st2" points="163.5,45.8 166.5,45.8 166.5,30.6 163.5,30.6 163.5,45.8  "></polygon>
	<path class="st3" d="M170.4,45.8h4.2c4.7,0,8.8-1.6,8.8-7.6c0-6.1-4.1-7.6-8.8-7.6h-4.2V45.8L170.4,45.8z M173.5,32.9h1.7   c2.6,0,5,1.9,5,5.2c0,3.3-2.5,5.2-5,5.2h-1.7V32.9L173.5,32.9z"></path>
	<path class="st2" d="M170.4,45.8h4.2c4.7,0,8.8-1.6,8.8-7.6c0-6-4.1-7.6-8.8-7.6h-4.2V45.8L170.4,45.8z M173.5,33h1.7   c2.5,0,5,1.9,5,5.2c0,3.3-2.5,5.2-5,5.2h-1.7V33L173.5,33z"></path>
	<path class="st3" d="M186.1,38.1c0,4.7,2.6,7.9,7.5,7.9c4.8,0,7.5-3.3,7.5-7.9c0-4.6-2.7-7.9-7.5-7.9   C188.7,30.3,186.1,33.4,186.1,38.1 M189.3,38.1c0-2.7,1.2-5.5,4.3-5.5c3,0,4.3,2.8,4.3,5.5c0,2.8-1.2,5.5-4.3,5.5   C190.4,43.7,189.3,40.9,189.3,38.1"></path>
	<path class="st2" d="M186.1,38.1c0,4.7,2.6,7.9,7.5,7.9c4.8,0,7.5-3.3,7.5-7.9c0-4.6-2.7-7.8-7.5-7.8   C188.7,30.3,186.1,33.5,186.1,38.1L186.1,38.1z M189.3,38.1c0-2.7,1.2-5.4,4.3-5.4c3,0,4.3,2.7,4.3,5.4c0,2.8-1.2,5.5-4.3,5.5   C190.4,43.6,189.3,40.9,189.3,38.1L189.3,38.1z"></path>
	<path class="st3" d="M212.9,30.8c-1.1-0.4-2.3-0.5-3.7-0.5c-2.7,0-5.3,1.2-5.3,4.7c0,5.1,6.7,3.9,6.7,6.8c0,1.4-1.6,2-2.7,2   c-1.2,0-2.4-0.4-3.5-0.9l-0.3,2.8c1.5,0.4,2.3,0.6,3.9,0.6c3.1,0,5.7-1.3,5.7-4.6c0-5.1-6.7-4-6.7-6.7c0-1.7,1.4-2.1,2.4-2.1   c1.1,0,2.1,0.2,3.1,0.7L212.9,30.8L212.9,30.8z"></path>
	<path class="st2" d="M212.9,30.8c-1.1-0.4-2.3-0.5-3.6-0.5c-2.7,0-5.3,1.2-5.3,4.6c0,5,6.7,3.8,6.7,6.7c0,1.4-1.5,2-2.7,2   c-1.2,0-2.4-0.4-3.4-0.9l-0.3,2.7c1.5,0.4,2.2,0.6,3.9,0.6c3.1,0,5.7-1.3,5.7-4.6c0-5.1-6.7-4-6.7-6.6c0-1.7,1.3-2.1,2.4-2.1   c1.1,0,2.1,0.2,3.1,0.7L212.9,30.8L212.9,30.8z"></path>
	<polygon class="st3" points="217.2,45.8 226.3,45.8 226.3,43.4 220.3,43.4 220.3,39.1 225.7,39.1 225.7,36.7 220.3,36.7    220.3,32.9 226.2,32.9 226.2,30.5 217.2,30.5 217.2,45.8  "></polygon>
	<polygon class="st2" points="217.2,45.8 226.2,45.8 226.2,43.4 220.3,43.4 220.3,39.1 225.7,39.1 225.7,36.7 220.3,36.7 220.3,33    226.2,33 226.2,30.6 217.2,30.6 217.2,45.8  "></polygon>
	<polygon class="st3" points="47.7,45.8 50.6,45.8 50.6,33.2 50.7,33.2 54.8,45.8 57.7,45.8 61.8,33.2 61.9,33.2 61.9,45.8    64.8,45.8 64.8,30.5 59.9,30.5 56.3,42.1 56.2,42.1 52.6,30.5 47.7,30.5 47.7,45.8  "></polygon>
	<polygon class="st2" points="47.7,45.8 50.6,45.8 50.6,33.3 50.7,33.2 54.8,45.8 57.7,45.8 61.8,33.2 61.8,33.2 61.8,45.8    64.8,45.8 64.8,30.6 59.9,30.6 56.3,42.1 56.2,42.1 52.6,30.6 47.7,30.6 47.7,45.8  "></polygon>
	<path class="st3" d="M68.8,40.3c0,4.1,2.3,5.8,6.2,5.8c3.9,0,6.2-1.7,6.2-5.8v-9.8h-3.1v8.8c0,2.6-0.8,4.3-3.2,4.3   c-2.3,0-3.2-1.7-3.2-4.3v-8.8h-3.1V40.3L68.8,40.3z"></path>
	<path class="st2" d="M68.9,40.3c0,4.1,2.3,5.8,6.2,5.8c3.9,0,6.2-1.7,6.2-5.8v-9.7h-3.1v8.8c0,2.6-0.8,4.3-3.2,4.3   c-2.3,0-3.2-1.7-3.2-4.3v-8.8h-3.1V40.3L68.9,40.3z"></path>
	<polygon class="st3" points="85.3,45.8 88.4,45.8 88.4,38.7 88.5,38.7 93.9,45.8 98,45.8 91.4,37.7 97.7,30.5 93.9,30.5 88.4,37.1    88.4,30.5 85.3,30.5 85.3,45.8  "></polygon>
	<polygon class="st2" points="85.4,45.8 88.4,45.8 88.4,38.7 88.5,38.7 93.9,45.8 97.9,45.8 91.4,37.7 97.7,30.6 93.9,30.6    88.4,37.1 88.4,30.6 85.4,30.6 85.4,45.8  "></polygon>
	<path class="st3" d="M98.8,38.1c0,4.7,2.6,7.9,7.5,7.9c4.8,0,7.5-3.3,7.5-7.9c0-4.6-2.7-7.9-7.5-7.9   C101.4,30.3,98.8,33.4,98.8,38.1 M102,38.1c0-2.7,1.2-5.5,4.3-5.5c3,0,4.3,2.8,4.3,5.5c0,2.8-1.2,5.5-4.3,5.5   C103.1,43.7,102,40.9,102,38.1"></path>
	<path class="st2" d="M98.8,38.1c0,4.7,2.6,7.9,7.5,7.9c4.8,0,7.5-3.3,7.5-7.9c0-4.6-2.7-7.8-7.5-7.8   C101.4,30.3,98.8,33.5,98.8,38.1L98.8,38.1z M102,38.1c0-2.7,1.2-5.4,4.3-5.4c3,0,4.3,2.7,4.3,5.4c0,2.7-1.2,5.5-4.3,5.5   C103.2,43.6,102,40.9,102,38.1L102,38.1z"></path>
	<path class="st3" d="M235,47.1v-0.3c0-1.4-0.3-2.2-0.8-2.7c-0.5-0.5-1.1-0.6-1.7-0.6c-0.8,0-1.4,0.3-1.9,0.8   c-0.5,0.6-0.8,1.3-0.8,2.4c0,2,1.1,3.2,2.9,3.2c0.8,0,1.6-0.3,2.3-0.8l-0.5-0.8c-0.5,0.4-1,0.6-1.6,0.6c-1.2,0-1.5-0.9-1.5-1.7   v-0.1H235L235,47.1z M233.6,46.2h-2.3c0-1,0.4-1.6,1.2-1.6C233.1,44.6,233.6,45.2,233.6,46.2L233.6,46.2z M238.3,49   c0-0.5-0.4-1-1-1c-0.5,0-1,0.4-1,1c0,0.5,0.4,1,1,1C237.9,50,238.3,49.6,238.3,49L238.3,49z M245.5,41.5H244l-1.6,4.7   c-0.3,0.9-0.4,1.4-0.5,1.8h0c-0.1-0.4-0.2-1-0.4-1.7l-1.5-4.7h-1.6l2.9,8.4h1.3L245.5,41.5L245.5,41.5z M246.9,49c0-0.5-0.4-1-1-1   c-0.5,0-1,0.4-1,1c0,0.5,0.4,1,1,1C246.5,50,246.9,49.6,246.9,49L246.9,49z"></path>
	<path class="st3" d="M74.7,54h-1.2l-0.9,4.4h-4.4l0.9-4.4h-1.2l-2.2,10.4h1.2l1.1-5h4.4l-1.1,5h1.2L74.7,54L74.7,54z M81.9,58.6   c0-1.2-0.7-2-2.2-2c-0.9,0-1.7,0.3-2.5,1.1c-1.1,1-1.7,2.7-1.7,4.1c0,1.7,1.1,2.7,2.5,2.7c1.5,0,2.3-0.3,3.1-1.1l-0.5-0.7   c-0.7,0.6-1.3,0.9-2.2,0.9c-0.8,0-1.5-0.6-1.5-1.6c0-0.3,0-0.6,0.1-1c0.3,0,0.7,0,0.9,0c1.7,0,2.6-0.3,3.3-0.9   C81.6,59.8,81.9,59.3,81.9,58.6L81.9,58.6z M80.7,58.6c0,0.4-0.1,0.7-0.4,0.9c-0.4,0.4-1,0.6-2.4,0.6c-0.2,0-0.6,0-0.8,0   c0.4-1.6,1.4-2.5,2.4-2.5C80.3,57.6,80.7,58.1,80.7,58.6L80.7,58.6z M86.1,53.3l-1.3,0.5c0.1,0.2,0.1,0.5,0.1,0.9   c0,0.4-0.1,0.9-0.2,1.4l-1.5,7c0,0.2-0.1,0.5-0.1,0.7c0,0.6,0.4,0.9,1,0.9c0.3,0,0.6,0,0.9-0.2L85,63.6c-0.1,0-0.2,0-0.3,0   c-0.2,0-0.3-0.1-0.3-0.4c0-0.1,0-0.3,0.1-0.5l1.4-6.7c0.1-0.6,0.2-1.3,0.2-1.9C86.2,53.8,86.1,53.5,86.1,53.3L86.1,53.3z    M92.8,53.8c-0.4-0.3-0.8-0.4-1.5-0.4c-0.6,0-1,0.1-1.4,0.4c-0.6,0.4-1,1-1.2,2l-0.2,1h-0.8l-0.2,0.9h0.8l-1.3,6.8   c-0.2,1.2-0.5,1.9-1,2.5l1,0.5c0.6-0.7,0.9-1.5,1.2-2.9l1.4-6.9h1.7l0.5-0.9h-2.1l0.2-1.2c0.2-0.9,0.6-1.3,1.3-1.3   c0.4,0,0.8,0.1,1.1,0.3L92.8,53.8L92.8,53.8z M97.9,58.6c0-1.2-0.7-2-2.2-2c-0.9,0-1.7,0.3-2.5,1.1c-1.1,1-1.7,2.7-1.7,4.1   c0,1.7,1.1,2.7,2.5,2.7c1.5,0,2.3-0.3,3.1-1.1l-0.5-0.7c-0.7,0.6-1.3,0.9-2.2,0.9c-0.8,0-1.5-0.6-1.5-1.6c0-0.3,0-0.6,0.1-1   c0.3,0,0.7,0,0.9,0c1.7,0,2.6-0.3,3.3-0.9C97.6,59.8,97.9,59.3,97.9,58.6L97.9,58.6z M96.7,58.6c0,0.4-0.1,0.7-0.4,0.9   c-0.4,0.4-1,0.6-2.4,0.6c-0.2,0-0.6,0-0.8,0c0.4-1.6,1.4-2.5,2.3-2.5C96.3,57.6,96.7,58.1,96.7,58.6L96.7,58.6z M105.8,58.2   c0-0.9-0.6-1.5-1.5-1.5c-1,0-2.1,0.5-2.9,1.6c0.1-0.3,0.1-0.5,0.1-0.8c0-0.3-0.1-0.6-0.2-0.9l-1.1,0.5c0.1,0.3,0.1,0.5,0.1,0.7   c0,0.3,0,0.6-0.2,1.2L99,64.4h1.2l1-4.9c1-1.3,2-1.8,2.6-1.8c0.5,0,0.7,0.3,0.7,0.8c0,0.2,0,0.4-0.1,0.8l-1.1,5.1h1.2l1.2-5.7   C105.8,58.5,105.8,58.4,105.8,58.2L105.8,58.2z M109.4,63.6c0-0.6-0.5-1-1-1c-0.6,0-1,0.4-1,1c0,0.6,0.4,1,1,1   C108.9,64.6,109.4,64.1,109.4,63.6L109.4,63.6z M122.9,54h-5.5l-2.2,10.4h1.3l1-4.9h3.3l0.2-1h-3.3l0.7-3.4h4L122.9,54L122.9,54z    M128.6,59.4c0-1.6-0.8-2.7-2.6-2.7c-2.4,0-4.2,2.2-4.2,5.2c0,1.7,0.9,2.7,2.6,2.7C126.9,64.6,128.6,62.3,128.6,59.4L128.6,59.4z    M127.3,59.3c0,2.3-0.9,4.4-2.7,4.4c-1,0-1.5-0.5-1.5-1.7c0-2.5,1-4.4,2.7-4.4C126.7,57.6,127.3,58.1,127.3,59.3L127.3,59.3z    M135.3,56.8c-0.2,0-0.3-0.1-0.6-0.1c-0.7,0-1.7,0.7-2.4,1.8c0.1-0.4,0.1-0.7,0.1-1c0-0.3-0.1-0.5-0.2-0.8l-1.1,0.5   c0.1,0.2,0.1,0.5,0.1,0.7c0,0.3-0.1,0.8-0.2,1.4l-1.1,5.1h1.2l1-4.7c0.7-1.1,1.5-1.7,2.2-1.7c0.2,0,0.3,0,0.5,0.1L135.3,56.8   L135.3,56.8z M141.4,57.1c-0.6-0.4-1.4-0.6-2.2-0.6c-1.8,0-3.1,1-3.1,2.3c0,0.9,0.4,1.4,1.5,1.9l0.9,0.4c0.7,0.3,1,0.7,1,1.3   c0,0.8-0.8,1.3-1.8,1.3c-0.8,0-1.6-0.2-2.2-0.7l-0.5,0.9c0.7,0.5,1.7,0.7,2.6,0.7c1.9,0,3.3-1,3.3-2.6c0-0.8-0.4-1.4-1.6-1.9   l-1-0.4c-0.6-0.3-0.8-0.5-0.8-1.1c0-0.7,0.7-1.1,1.7-1.1c0.7,0,1.2,0.2,1.8,0.5L141.4,57.1L141.4,57.1z M148.8,57.3   c-0.5-0.4-1.1-0.6-1.8-0.6c-0.8,0-1.5,0.3-2.3,0.9c-1,0.8-1.9,2.8-1.9,4.5c0,1.7,0.8,2.6,2.5,2.6c0.9,0,1.7-0.3,2.5-1l-0.5-0.8   c-0.6,0.5-1.2,0.8-1.8,0.8c-1,0-1.4-0.6-1.4-1.6c0-1.2,0.5-2.7,1.1-3.5c0.4-0.5,1-0.8,1.6-0.8c0.5,0,1.1,0.1,1.5,0.5L148.8,57.3   L148.8,57.3z M156.4,58.1c0-0.8-0.6-1.4-1.6-1.4c-0.9,0-2.1,0.5-3,1.6c0.1-0.4,0.3-1.1,0.4-1.4l0.2-0.8c0.3-1.2,0.3-2.2,0.2-2.8   l-1.3,0.5c0.2,0.5,0.1,1.3-0.1,2.3l-1.8,8.3h1.2l1-4.9c0.9-1.1,2-1.7,2.7-1.7c0.5,0,0.8,0.3,0.8,0.8c0,0.2-0.1,0.5-0.1,0.8   l-1.1,5.1h1.2l1.2-5.4C156.3,58.7,156.4,58.3,156.4,58.1L156.4,58.1z M164.5,58.6c0-1.2-0.7-2-2.2-2c-0.9,0-1.7,0.3-2.5,1.1   c-1.1,1-1.7,2.7-1.7,4.1c0,1.7,1.1,2.7,2.5,2.7c1.5,0,2.3-0.3,3.1-1.1l-0.5-0.7c-0.7,0.6-1.3,0.9-2.2,0.9c-0.8,0-1.5-0.6-1.5-1.6   c0-0.3,0-0.6,0.1-1c0.3,0,0.7,0,0.9,0c1.7,0,2.6-0.3,3.3-0.9C164.2,59.8,164.5,59.3,164.5,58.6L164.5,58.6z M163.3,58.6   c0,0.4-0.1,0.7-0.4,0.9c-0.4,0.4-1,0.6-2.4,0.6c-0.2,0-0.6,0-0.8,0c0.4-1.6,1.4-2.5,2.4-2.5C163,57.6,163.3,58.1,163.3,58.6   L163.3,58.6z M172.5,58.2c0-0.9-0.6-1.5-1.5-1.5c-1,0-2.1,0.5-2.9,1.6c0.1-0.3,0.1-0.5,0.1-0.8c0-0.3-0.1-0.6-0.2-0.9l-1.1,0.5   c0.1,0.3,0.1,0.5,0.1,0.7c0,0.3,0,0.6-0.2,1.2l-1.2,5.4h1.2l1-4.9c1-1.3,2-1.8,2.6-1.8c0.5,0,0.7,0.3,0.7,0.8c0,0.2,0,0.4-0.1,0.8   l-1.1,5.1h1.2l1.2-5.7C172.4,58.5,172.5,58.4,172.5,58.2L172.5,58.2z M176,63.6c0-0.6-0.5-1-1-1c-0.6,0-1,0.4-1,1c0,0.6,0.4,1,1,1   C175.5,64.6,176,64.1,176,63.6L176,63.6z M190.9,54h-1.2l-0.9,4.4h-4.4l0.9-4.4H184l-2.2,10.4h1.2l1.1-5h4.4l-1.1,5h1.2L190.9,54   L190.9,54z M198,58.6c0-1.2-0.7-2-2.2-2c-0.9,0-1.7,0.3-2.5,1.1c-1.1,1-1.7,2.7-1.7,4.1c0,1.7,1.1,2.7,2.5,2.7   c1.5,0,2.3-0.3,3.1-1.1l-0.5-0.7c-0.7,0.6-1.3,0.9-2.2,0.9c-0.8,0-1.5-0.6-1.5-1.6c0-0.3,0-0.6,0.1-1c0.3,0,0.7,0,0.9,0   c1.7,0,2.6-0.3,3.3-0.9C197.7,59.8,198,59.3,198,58.6L198,58.6z M196.8,58.6c0,0.4-0.1,0.7-0.4,0.9c-0.4,0.4-1,0.6-2.4,0.6   c-0.2,0-0.6,0-0.8,0c0.4-1.6,1.4-2.5,2.4-2.5C196.5,57.6,196.8,58.1,196.8,58.6L196.8,58.6z M201.9,56.7l-1.3,0.2l-1.6,7.5h1.3   L201.9,56.7L201.9,56.7z M202.7,54.5c0-0.5-0.4-0.9-0.9-0.9c-0.5,0-0.9,0.4-0.9,0.9c0,0.5,0.4,0.9,0.9,0.9   C202.3,55.5,202.7,55.1,202.7,54.5L202.7,54.5z M206.3,53.3l-1.3,0.5c0.1,0.2,0.1,0.5,0.1,0.9c0,0.4-0.1,0.9-0.2,1.4l-1.5,7   c0,0.2-0.1,0.5-0.1,0.7c0,0.6,0.4,0.9,1,0.9c0.3,0,0.6,0,0.9-0.2l-0.1-0.8c-0.1,0-0.2,0-0.3,0c-0.2,0-0.3-0.1-0.3-0.4   c0-0.1,0-0.3,0.1-0.5l1.4-6.7c0.1-0.6,0.2-1.3,0.2-1.9C206.4,53.8,206.4,53.5,206.3,53.3L206.3,53.3z M213.7,58.6   c0-1.2-0.7-2-2.2-2c-0.9,0-1.7,0.3-2.5,1.1c-1.1,1-1.7,2.7-1.7,4.1c0,1.7,1.1,2.7,2.5,2.7c1.5,0,2.3-0.3,3.1-1.1l-0.5-0.7   c-0.7,0.6-1.3,0.9-2.2,0.9c-0.8,0-1.5-0.6-1.5-1.6c0-0.3,0-0.6,0.1-1c0.3,0,0.7,0,0.9,0c1.7,0,2.6-0.3,3.3-0.9   C213.5,59.8,213.7,59.3,213.7,58.6L213.7,58.6z M212.5,58.6c0,0.4-0.1,0.7-0.4,0.9c-0.4,0.4-1,0.6-2.3,0.6c-0.2,0-0.6,0-0.8,0   c0.4-1.6,1.4-2.5,2.4-2.5C212.2,57.6,212.5,58.1,212.5,58.6L212.5,58.6z M221.7,58.2c0-0.9-0.6-1.5-1.5-1.5c-1,0-2.1,0.5-2.9,1.6   c0.1-0.3,0.1-0.5,0.1-0.8c0-0.3-0.1-0.6-0.2-0.9l-1.1,0.5c0.1,0.3,0.1,0.5,0.1,0.7c0,0.3,0,0.6-0.2,1.2l-1.2,5.4h1.2l1-4.9   c1-1.3,2-1.8,2.6-1.8c0.5,0,0.7,0.3,0.7,0.8c0,0.2,0,0.4-0.1,0.8l-1.1,5.1h1.2l1.2-5.7C221.7,58.5,221.7,58.4,221.7,58.2   L221.7,58.2z M225.3,63.6c0-0.6-0.5-1-1-1c-0.6,0-1,0.4-1,1c0,0.6,0.4,1,1,1C224.8,64.6,225.3,64.1,225.3,63.6L225.3,63.6z"></path>
</g>
</svg>
