<?xml version="1.0" encoding="utf-8"?>
<!-- Generator: Adobe Illustrator 13.0.0, SVG Export Plug-In . SVG Version: 6.00 Build 14948)  -->
<!DOCTYPE svg PUBLIC "-//W3C//DTD SVG 1.1//EN" "http://www.w3.org/Graphics/SVG/1.1/DTD/svg11.dtd">
<svg version="1.1" id="Ebene_1" xmlns="http://www.w3.org/2000/svg" xmlns:xlink="http://www.w3.org/1999/xlink" x="0px" y="0px"
	 width="474.428px" height="69.5px" viewBox="140.778 266.471 474.428 69.5" enable-background="new 140.778 266.471 474.428 69.5"
	 xml:space="preserve">
<g>
	<g>
		<g>
			<defs>
				<path id="SVGID_1_" d="M212.56,319.723c0,3.279,2.715,5.993,5.995,5.993c3.28,0,5.995-2.714,5.995-5.993
					c0-3.28-2.714-5.995-5.995-5.995C215.162,313.728,212.56,316.442,212.56,319.723 M192.654,312.257
					c4.298,9.275,8.708,18.21,10.405,21.717c1.018,2.148,2.262,1.922,4.75,1.696c2.488-0.227,2.488-2.263,2.036-3.167
					c-2.036-4.524-5.542-12.441-10.066-22.281C197.292,311.013,195.369,311.579,192.654,312.257 M163.36,303.436h-0.339
					c0,0,8.935-26.014,9.274-26.806c0.339-0.792,0.792-1.244,2.036-1.244c1.018,0,1.47,0.339,1.923,1.47
					c0.453,1.131,11.875,25.334,11.875,25.334l-0.452,0.113c-2.828,0.566-5.655,1.02-8.483,1.357
					c-2.488,0.227-4.977,0.34-7.465,0.34C168.79,303.888,166.075,303.774,163.36,303.436 M166.188,273.35l-10.066,28.954
					l-0.339-0.113c-3.846-0.904-7.352-2.035-10.405-3.506c-0.453-0.226-0.792-0.339-1.245-0.339c-1.131,0-2.262,0.679-2.827,1.923
					c-0.339,0.791-0.339,1.696-0.113,2.488c0.339,0.791,0.905,1.47,1.583,1.81c3.28,1.583,6.899,2.827,10.745,3.732l0.453,0.112
					l-0.113,0.453c-3.167,9.5-6.107,18.436-6.221,19.228c-0.226,1.244,0.113,2.149,2.375,3.054c2.262,0.792,3.054,0,3.959-2.148
					c0.565-1.357,6.786-19.454,6.786-19.454h0.226c5.881,0.792,12.102,0.792,18.436,0.226c18.888-1.695,35.514-9.5,45.128-21.149
					c0.565-0.679,0.792-1.471,0.792-2.375s-0.453-1.583-1.018-2.149c-0.565-0.565-1.357-0.792-2.262-0.792
					c-0.792,0.113-1.583,0.452-2.036,1.131c-5.429,6.56-13.007,11.423-24.544,15.381l-0.339,0.113l-13.346-28.388
					c-1.697-3.054-3.958-4.75-7.691-4.75C170.034,266.903,167.545,269.504,166.188,273.35"/>
			</defs>
			<clipPath id="SVGID_2_">
				<use xlink:href="#SVGID_1_"  overflow="visible"/>
			</clipPath>

				<linearGradient id="SVGID_3_" gradientUnits="userSpaceOnUse" x1="-621.9258" y1="720.0322" x2="-621.3282" y2="720.0322" gradientTransform="matrix(102.1021 -102.1021 -102.1021 -102.1021 137168.2813 10350.332)">
				<stop  offset="0" style="stop-color:#951B1A"/>
				<stop  offset="0.1" style="stop-color:#951B1A"/>
				<stop  offset="0.1283" style="stop-color:#9C1A1A"/>
				<stop  offset="0.2466" style="stop-color:#B6161A"/>
				<stop  offset="0.3773" style="stop-color:#CB131A"/>
				<stop  offset="0.5249" style="stop-color:#D9111A"/>
				<stop  offset="0.7037" style="stop-color:#E10F1A"/>
				<stop  offset="1" style="stop-color:#E40F1A"/>
			</linearGradient>
			<polygon clip-path="url(#SVGID_2_)" fill="url(#SVGID_3_)" points="183.267,378.31 260.063,301.513 183.267,224.716
				106.47,301.513 			"/>
		</g>
	</g>
	<g>
		<g>
			<defs>
				<rect id="SVGID_4_" x="140.853" y="266.564" width="474.354" height="69.558"/>
			</defs>
			<clipPath id="SVGID_5_">
				<use xlink:href="#SVGID_4_"  overflow="visible"/>
			</clipPath>
			<path clip-path="url(#SVGID_5_)" fill="#1F1F1D" d="M249.545,284.095h4.072c4.637,0,7.352,2.488,7.352,7.465
				s-2.714,7.578-7.239,7.578h-4.185V284.095z M253.391,296.989c3.053,0,4.75-1.697,4.75-5.429s-1.697-5.316-4.75-5.316h-1.131
				v10.745H253.391z"/>
		</g>
		<g>
			<defs>
				<rect id="SVGID_6_" x="140.853" y="266.564" width="474.354" height="69.558"/>
			</defs>
			<clipPath id="SVGID_7_">
				<use xlink:href="#SVGID_6_"  overflow="visible"/>
			</clipPath>
			<path clip-path="url(#SVGID_7_)" fill="#1F1F1D" d="M268.32,287.601c3.054,0,4.637,2.262,4.637,5.429
				c0,0.453,0,1.018-0.113,1.244h-7.125c0.226,2.036,1.47,3.167,3.393,3.167c1.018,0,1.81-0.339,2.601-0.792l0.905,1.697
				c-1.131,0.679-2.488,1.244-3.845,1.244c-3.167,0-5.542-2.149-5.542-5.881C263.117,289.863,265.605,287.601,268.32,287.601
				 M270.695,292.464c0-1.81-0.792-2.941-2.262-2.941c-1.357,0-2.488,1.018-2.714,2.941H270.695z"/>
		</g>
		<g>
			<defs>
				<rect id="SVGID_8_" x="140.853" y="266.564" width="474.354" height="69.558"/>
			</defs>
			<clipPath id="SVGID_9_">
				<use xlink:href="#SVGID_8_"  overflow="visible"/>
			</clipPath>
			<path clip-path="url(#SVGID_9_)" fill="#1F1F1D" d="M275.559,287.827h2.602v6.786c0,1.923,0.565,2.602,1.809,2.602
				c1.019,0,1.697-0.453,2.489-1.583v-7.804h2.601v11.311h-2.149l-0.226-1.697l0,0c-1.018,1.13-2.149,1.923-3.619,1.923
				c-2.375,0-3.506-1.584-3.506-4.525V287.827z"/>
		</g>
		<g>
			<defs>
				<rect id="SVGID_10_" x="140.853" y="266.564" width="474.354" height="69.558"/>
			</defs>
			<clipPath id="SVGID_11_">
				<use xlink:href="#SVGID_10_"  overflow="visible"/>
			</clipPath>
			<path clip-path="url(#SVGID_11_)" fill="#1F1F1D" d="M288.792,289.976h-1.583v-2.036l1.81-0.113v-3.054l2.488-0.679v3.732h2.94
				v2.149h-2.94v5.429c0,1.357,0.452,2.036,1.583,2.036c0.339,0,0.905-0.113,1.131-0.226l0.452,1.923
				c-0.679,0.227-1.357,0.452-2.262,0.452c-2.601,0-3.619-1.697-3.619-4.072V289.976z"/>
		</g>
		<g>
			<defs>
				<rect id="SVGID_12_" x="140.853" y="266.564" width="474.354" height="69.558"/>
			</defs>
			<clipPath id="SVGID_13_">
				<use xlink:href="#SVGID_12_"  overflow="visible"/>
			</clipPath>
			<path clip-path="url(#SVGID_13_)" fill="#1F1F1D" d="M297.388,296.197c1.018,0.792,2.036,1.244,3.167,1.244
				c1.244,0,1.81-0.565,1.81-1.357c0-0.904-1.244-1.357-2.375-1.81c-1.47-0.565-3.167-1.357-3.167-3.28
				c0-2.036,1.583-3.393,4.185-3.393c1.584,0,2.828,0.678,3.733,1.357l-1.244,1.583c-0.792-0.565-1.583-1.018-2.489-1.018
				c-1.131,0-1.696,0.566-1.696,1.244c0,0.905,1.131,1.245,2.375,1.697c1.584,0.565,3.28,1.357,3.28,3.393
				c0,1.923-1.583,3.507-4.411,3.507c-1.583,0-3.167-0.68-4.298-1.584L297.388,296.197z"/>
		</g>
		<g>
			<defs>
				<rect id="SVGID_14_" x="140.853" y="266.564" width="474.354" height="69.558"/>
			</defs>
			<clipPath id="SVGID_15_">
				<use xlink:href="#SVGID_14_"  overflow="visible"/>
			</clipPath>
			<path clip-path="url(#SVGID_15_)" fill="#1F1F1D" d="M312.317,287.601c1.47,0,2.601,0.565,3.28,1.357l-1.244,1.583
				c-0.566-0.565-1.244-0.792-1.923-0.792c-1.81,0-3.054,1.47-3.054,3.732s1.244,3.732,3.054,3.732c0.905,0,1.696-0.453,2.375-1.018
				l1.131,1.696c-1.019,0.905-2.375,1.471-3.732,1.471c-3.054,0-5.429-2.149-5.429-5.882
				C306.662,289.75,309.263,287.601,312.317,287.601"/>
		</g>
		<g>
			<defs>
				<rect id="SVGID_16_" x="140.853" y="266.564" width="474.354" height="69.558"/>
			</defs>
			<clipPath id="SVGID_17_">
				<use xlink:href="#SVGID_16_"  overflow="visible"/>
			</clipPath>
			<path clip-path="url(#SVGID_17_)" fill="#1F1F1D" d="M317.972,282.851l2.602-0.679v4.864l-0.113,2.149
				c0.905-0.905,2.036-1.697,3.62-1.697c2.375,0,3.506,1.583,3.506,4.524v7.125h-2.601v-6.786c0-1.923-0.566-2.602-1.81-2.602
				c-1.018,0-1.583,0.452-2.601,1.357v7.917h-2.602V282.851L317.972,282.851z"/>
		</g>
		<g>
			<defs>
				<rect id="SVGID_18_" x="140.853" y="266.564" width="474.354" height="69.558"/>
			</defs>
			<clipPath id="SVGID_19_">
				<use xlink:href="#SVGID_18_"  overflow="visible"/>
			</clipPath>
			<path clip-path="url(#SVGID_19_)" fill="#1F1F1D" d="M335.39,287.601c3.053,0,4.637,2.262,4.637,5.429
				c0,0.453,0,1.018-0.113,1.244h-7.239c0.227,2.036,1.471,3.167,3.393,3.167c1.019,0,1.81-0.339,2.602-0.792l0.905,1.697
				c-1.131,0.679-2.488,1.244-3.845,1.244c-3.167,0-5.542-2.149-5.542-5.881C330.074,289.863,332.675,287.601,335.39,287.601
				 M337.765,292.464c0-1.81-0.792-2.941-2.262-2.941c-1.357,0-2.489,1.018-2.715,2.941H337.765z"/>
		</g>
		<g>
			<defs>
				<rect id="SVGID_20_" x="140.853" y="266.564" width="474.354" height="69.558"/>
			</defs>
			<clipPath id="SVGID_21_">
				<use xlink:href="#SVGID_20_"  overflow="visible"/>
			</clipPath>
			<path clip-path="url(#SVGID_21_)" fill="#1F1F1D" d="M354.957,295.066h-5.089l-1.131,4.072h-2.714l4.863-15.043h3.167
				l4.864,15.043h-2.715L354.957,295.066z M354.392,293.03l-0.566-1.81c-0.452-1.583-0.905-3.28-1.357-4.977h-0.113
				c-0.452,1.697-0.904,3.393-1.356,4.977l-0.566,1.81H354.392z"/>
		</g>
		<g>
			<defs>
				<rect id="SVGID_22_" x="140.853" y="266.564" width="474.354" height="69.558"/>
			</defs>
			<clipPath id="SVGID_23_">
				<use xlink:href="#SVGID_22_"  overflow="visible"/>
			</clipPath>
			<path clip-path="url(#SVGID_23_)" fill="#1F1F1D" d="M360.725,282.851l2.602-0.679v14.138c0,0.679,0.34,0.905,0.566,0.905
				c0.113,0,0.226,0,0.452,0l0.339,2.036c-0.339,0.113-0.792,0.226-1.357,0.226c-1.922,0-2.602-1.243-2.602-3.167V282.851z"/>
		</g>
		<g>
			<defs>
				<rect id="SVGID_24_" x="140.853" y="266.564" width="474.354" height="69.558"/>
			</defs>
			<clipPath id="SVGID_25_">
				<use xlink:href="#SVGID_24_"  overflow="visible"/>
			</clipPath>
			<polygon clip-path="url(#SVGID_25_)" fill="#1F1F1D" points="366.38,297.78 371.809,289.976 367.059,289.976 367.059,287.827
				375.089,287.827 375.089,289.297 369.773,297.102 375.315,297.102 375.315,299.138 366.38,299.138 			"/>
		</g>
		<g>
			<defs>
				<rect id="SVGID_26_" x="140.853" y="266.564" width="474.354" height="69.558"/>
			</defs>
			<clipPath id="SVGID_27_">
				<use xlink:href="#SVGID_26_"  overflow="visible"/>
			</clipPath>
			<path clip-path="url(#SVGID_27_)" fill="#1F1F1D" d="M377.577,282.851l2.602-0.679v4.864l-0.113,2.149
				c0.905-0.905,2.036-1.697,3.62-1.697c2.375,0,3.505,1.583,3.505,4.524v7.125h-2.602v-6.786c0-1.923-0.566-2.602-1.809-2.602
				c-1.019,0-1.583,0.452-2.602,1.357v7.917h-2.602V282.851z"/>
		</g>
		<g>
			<defs>
				<rect id="SVGID_28_" x="140.853" y="266.564" width="474.354" height="69.558"/>
			</defs>
			<clipPath id="SVGID_29_">
				<use xlink:href="#SVGID_28_"  overflow="visible"/>
			</clipPath>
			<path clip-path="url(#SVGID_29_)" fill="#1F1F1D" d="M394.996,287.601c3.054,0,4.637,2.262,4.637,5.429
				c0,0.453,0,1.018-0.113,1.244h-7.239c0.227,2.036,1.47,3.167,3.394,3.167c1.017,0,1.81-0.339,2.601-0.792l0.905,1.697
				c-1.131,0.679-2.489,1.244-3.845,1.244c-3.167,0-5.542-2.149-5.542-5.881C389.679,289.863,392.281,287.601,394.996,287.601
				 M397.371,292.464c0-1.81-0.792-2.941-2.262-2.941c-1.358,0-2.488,1.018-2.714,2.941H397.371z"/>
		</g>
		<g>
			<defs>
				<rect id="SVGID_30_" x="140.853" y="266.564" width="474.354" height="69.558"/>
			</defs>
			<clipPath id="SVGID_31_">
				<use xlink:href="#SVGID_30_"  overflow="visible"/>
			</clipPath>
			<path clip-path="url(#SVGID_31_)" fill="#1F1F1D" d="M401.895,284.321c0-0.905,0.679-1.47,1.583-1.47
				c0.905,0,1.696,0.565,1.696,1.47c0,0.905-0.678,1.471-1.696,1.471C402.574,285.905,401.895,285.226,401.895,284.321
				 M402.234,287.827h2.602v11.311h-2.602V287.827z"/>
		</g>
		<g>
			<defs>
				<rect id="SVGID_32_" x="140.853" y="266.564" width="474.354" height="69.558"/>
			</defs>
			<clipPath id="SVGID_33_">
				<use xlink:href="#SVGID_32_"  overflow="visible"/>
			</clipPath>
			<path clip-path="url(#SVGID_33_)" fill="#1F1F1D" d="M408.228,287.827h2.149l0.226,1.583h0.113
				c0.905-1.018,2.036-1.81,3.507-1.81c1.696,0,2.602,0.792,3.166,2.036c1.132-1.131,2.262-2.036,3.62-2.036
				c2.375,0,3.506,1.583,3.506,4.524v7.126H421.8v-6.787c0-1.923-0.565-2.601-1.696-2.601c-0.679,0-1.47,0.452-2.375,1.357v7.917
				h-2.714v-6.786c0-1.923-0.565-2.602-1.81-2.602c-0.679,0-1.47,0.452-2.375,1.357v7.917h-2.602V287.827z"/>
		</g>
		<g>
			<defs>
				<rect id="SVGID_34_" x="140.853" y="266.564" width="474.354" height="69.558"/>
			</defs>
			<clipPath id="SVGID_35_">
				<use xlink:href="#SVGID_34_"  overflow="visible"/>
			</clipPath>
			<path clip-path="url(#SVGID_35_)" fill="#1F1F1D" d="M432.207,287.601c3.054,0,4.637,2.262,4.637,5.429
				c0,0.453,0,1.018-0.113,1.244h-7.238c0.227,2.036,1.47,3.167,3.394,3.167c1.017,0,1.81-0.339,2.601-0.792l0.904,1.697
				c-1.13,0.679-2.488,1.244-3.845,1.244c-3.167,0-5.542-2.149-5.542-5.881C426.89,289.863,429.492,287.601,432.207,287.601
				 M434.582,292.464c0-1.81-0.793-2.941-2.262-2.941c-1.358,0-2.488,1.018-2.715,2.941H434.582z"/>
		</g>
		<g>
			<defs>
				<rect id="SVGID_36_" x="140.853" y="266.564" width="474.354" height="69.558"/>
			</defs>
			<clipPath id="SVGID_37_">
				<use xlink:href="#SVGID_36_"  overflow="visible"/>
			</clipPath>
			<path clip-path="url(#SVGID_37_)" fill="#1F1F1D" d="M439.445,287.827h2.148l0.227,2.036h0.113
				c0.791-1.471,2.035-2.262,3.166-2.262c0.566,0,0.905,0.113,1.245,0.226l-0.453,2.262c-0.339-0.113-0.679-0.226-1.13-0.226
				c-0.906,0-2.037,0.678-2.715,2.375v6.899h-2.602V287.827L439.445,287.827z"/>
		</g>
		<g>
			<defs>
				<rect id="SVGID_38_" x="140.853" y="266.564" width="474.354" height="69.558"/>
			</defs>
			<clipPath id="SVGID_39_">
				<use xlink:href="#SVGID_38_"  overflow="visible"/>
			</clipPath>
			<path clip-path="url(#SVGID_39_)" fill="#1F1F1D" d="M459.916,283.755c2.036,0,3.508,0.905,4.524,1.923l-1.47,1.696
				c-0.792-0.792-1.583-1.244-3.055-1.244c-2.714,0-4.523,2.036-4.523,5.429s1.583,5.542,4.637,5.542
				c0.906,0,1.697-0.226,2.149-0.678v-3.28h-2.828v-2.149h5.316v6.673c-1.018,1.018-2.828,1.81-4.864,1.81
				c-4.07,0-7.012-2.714-7.012-7.804C452.677,286.696,455.845,283.755,459.916,283.755"/>
		</g>
		<g>
			<defs>
				<rect id="SVGID_40_" x="140.853" y="266.564" width="474.354" height="69.558"/>
			</defs>
			<clipPath id="SVGID_41_">
				<use xlink:href="#SVGID_40_"  overflow="visible"/>
			</clipPath>
			<path clip-path="url(#SVGID_41_)" fill="#1F1F1D" d="M472.358,287.601c3.054,0,4.638,2.262,4.638,5.429
				c0,0.453,0,1.018-0.113,1.244h-7.239c0.227,2.036,1.47,3.167,3.394,3.167c1.018,0,1.81-0.339,2.601-0.792l0.905,1.697
				c-1.131,0.679-2.488,1.244-3.846,1.244c-3.167,0-5.542-2.149-5.542-5.881C467.155,289.863,469.756,287.601,472.358,287.601
				 M474.733,292.464c0-1.81-0.792-2.941-2.263-2.941c-1.357,0-2.488,1.018-2.714,2.941H474.733z"/>
		</g>
		<g>
			<defs>
				<rect id="SVGID_42_" x="140.853" y="266.564" width="474.354" height="69.558"/>
			</defs>
			<clipPath id="SVGID_43_">
				<use xlink:href="#SVGID_42_"  overflow="visible"/>
			</clipPath>
			<path clip-path="url(#SVGID_43_)" fill="#1F1F1D" d="M479.823,296.197c1.017,0.792,2.036,1.244,3.166,1.244
				c1.245,0,1.811-0.565,1.811-1.357c0-0.904-1.245-1.357-2.375-1.81c-1.472-0.565-3.167-1.357-3.167-3.28
				c0-2.036,1.582-3.393,4.184-3.393c1.584,0,2.828,0.678,3.732,1.357l-1.244,1.583c-0.791-0.565-1.582-1.018-2.488-1.018
				c-1.13,0-1.695,0.566-1.695,1.244c0,0.905,1.13,1.245,2.375,1.697c1.583,0.565,3.279,1.357,3.279,3.393
				c0,1.923-1.583,3.507-4.411,3.507c-1.583,0-3.166-0.68-4.298-1.584L479.823,296.197z"/>
		</g>
		<g>
			<defs>
				<rect id="SVGID_44_" x="140.853" y="266.564" width="474.354" height="69.558"/>
			</defs>
			<clipPath id="SVGID_45_">
				<use xlink:href="#SVGID_44_"  overflow="visible"/>
			</clipPath>
			<path clip-path="url(#SVGID_45_)" fill="#1F1F1D" d="M494.298,287.601c3.055,0,4.639,2.262,4.639,5.429
				c0,0.453,0,1.018-0.113,1.244h-7.238c0.227,2.036,1.47,3.167,3.393,3.167c1.019,0,1.809-0.339,2.602-0.792l0.905,1.697
				c-1.132,0.679-2.488,1.244-3.847,1.244c-3.166,0-5.541-2.149-5.541-5.881C489.097,289.863,491.699,287.601,494.298,287.601
				 M496.674,292.464c0-1.81-0.791-2.941-2.263-2.941c-1.356,0-2.488,1.018-2.713,2.941H496.674z"/>
		</g>
		<g>
			<defs>
				<rect id="SVGID_46_" x="140.853" y="266.564" width="474.354" height="69.558"/>
			</defs>
			<clipPath id="SVGID_47_">
				<use xlink:href="#SVGID_46_"  overflow="visible"/>
			</clipPath>
			<path clip-path="url(#SVGID_47_)" fill="#1F1F1D" d="M501.538,282.851l2.602-0.679v14.138c0,0.679,0.339,0.905,0.565,0.905
				c0.113,0,0.227,0,0.453,0l0.34,2.036c-0.34,0.113-0.793,0.226-1.358,0.226c-1.923,0-2.602-1.243-2.602-3.167V282.851
				L501.538,282.851z"/>
		</g>
		<g>
			<defs>
				<rect id="SVGID_48_" x="140.853" y="266.564" width="474.354" height="69.558"/>
			</defs>
			<clipPath id="SVGID_49_">
				<use xlink:href="#SVGID_48_"  overflow="visible"/>
			</clipPath>
			<path clip-path="url(#SVGID_49_)" fill="#1F1F1D" d="M507.759,282.851l2.602-0.679v14.138c0,0.679,0.338,0.905,0.564,0.905
				c0.113,0,0.227,0,0.453,0l0.339,2.036c-0.339,0.113-0.792,0.226-1.356,0.226c-1.924,0-2.602-1.243-2.602-3.167V282.851
				L507.759,282.851z"/>
		</g>
		<g>
			<defs>
				<rect id="SVGID_50_" x="140.853" y="266.564" width="474.354" height="69.558"/>
			</defs>
			<clipPath id="SVGID_51_">
				<use xlink:href="#SVGID_50_"  overflow="visible"/>
			</clipPath>
			<path clip-path="url(#SVGID_51_)" fill="#1F1F1D" d="M514.432,296.197c1.017,0.792,2.036,1.244,3.167,1.244
				c1.244,0,1.81-0.565,1.81-1.357c0-0.904-1.245-1.357-2.376-1.81c-1.471-0.565-3.166-1.357-3.166-3.28
				c0-2.036,1.582-3.393,4.184-3.393c1.584,0,2.828,0.678,3.733,1.357l-1.245,1.583c-0.791-0.565-1.582-1.018-2.488-1.018
				c-1.13,0-1.695,0.566-1.695,1.244c0,0.905,1.131,1.245,2.375,1.697c1.582,0.565,3.28,1.357,3.28,3.393
				c0,1.923-1.585,3.507-4.411,3.507c-1.584,0-3.167-0.68-4.299-1.584L514.432,296.197z"/>
		</g>
		<g>
			<defs>
				<rect id="SVGID_52_" x="140.853" y="266.564" width="474.354" height="69.558"/>
			</defs>
			<clipPath id="SVGID_53_">
				<use xlink:href="#SVGID_52_"  overflow="visible"/>
			</clipPath>
			<path clip-path="url(#SVGID_53_)" fill="#1F1F1D" d="M529.362,287.601c1.47,0,2.601,0.565,3.279,1.357l-1.243,1.697
				c-0.566-0.565-1.245-0.792-1.924-0.792c-1.81,0-3.053,1.47-3.053,3.732c0,2.262,1.243,3.732,3.053,3.732
				c0.905,0,1.697-0.452,2.375-1.018l1.131,1.696c-1.018,0.905-2.375,1.47-3.731,1.47c-3.054,0-5.429-2.149-5.429-5.881
				C523.707,289.75,526.308,287.601,529.362,287.601"/>
		</g>
		<g>
			<defs>
				<rect id="SVGID_54_" x="140.853" y="266.564" width="474.354" height="69.558"/>
			</defs>
			<clipPath id="SVGID_55_">
				<use xlink:href="#SVGID_54_"  overflow="visible"/>
			</clipPath>
			<path clip-path="url(#SVGID_55_)" fill="#1F1F1D" d="M535.017,282.851l2.601-0.679v4.864l-0.112,2.149
				c0.904-0.905,2.035-1.697,3.619-1.697c2.374,0,3.506,1.583,3.506,4.524v7.125h-2.602v-6.786c0-1.923-0.566-2.602-1.81-2.602
				c-1.019,0-1.583,0.452-2.602,1.357v7.917h-2.601V282.851L535.017,282.851z"/>
		</g>
		<g>
			<defs>
				<rect id="SVGID_56_" x="140.853" y="266.564" width="474.354" height="69.558"/>
			</defs>
			<clipPath id="SVGID_57_">
				<use xlink:href="#SVGID_56_"  overflow="visible"/>
			</clipPath>
			<path clip-path="url(#SVGID_57_)" fill="#1F1F1D" d="M553.905,291.899c0-1.244-0.565-2.262-2.036-2.262
				c-1.131,0-2.148,0.453-3.167,1.131l-1.017-1.81c1.243-0.792,2.827-1.47,4.637-1.47c2.828,0,4.185,1.697,4.185,4.864v6.673h-2.149
				l-0.227-1.244l0,0c-1.018,0.904-2.148,1.471-3.506,1.471c-2.036,0-3.393-1.358-3.393-3.28
				C547.345,293.708,549.267,292.464,553.905,291.899 M551.529,297.328c0.906,0,1.584-0.452,2.488-1.244v-2.488
				c-3.053,0.339-4.07,1.244-4.07,2.375C549.833,296.989,550.511,297.328,551.529,297.328"/>
		</g>
		<g>
			<defs>
				<rect id="SVGID_58_" x="140.853" y="266.564" width="474.354" height="69.558"/>
			</defs>
			<clipPath id="SVGID_59_">
				<use xlink:href="#SVGID_58_"  overflow="visible"/>
			</clipPath>
			<path clip-path="url(#SVGID_59_)" fill="#1F1F1D" d="M565.441,285c-0.452-0.226-0.904-0.226-1.243-0.226
				c-0.905,0-1.472,0.565-1.472,1.923v1.244h2.263v2.149h-2.263v9.275h-2.602v-9.275h-1.47v-2.036l1.47-0.113v-1.131
				c0-2.375,1.132-4.071,3.733-4.071c0.791,0,1.583,0.226,2.036,0.339L565.441,285z"/>
		</g>
		<g>
			<defs>
				<rect id="SVGID_60_" x="140.853" y="266.564" width="474.354" height="69.558"/>
			</defs>
			<clipPath id="SVGID_61_">
				<use xlink:href="#SVGID_60_"  overflow="visible"/>
			</clipPath>
			<path clip-path="url(#SVGID_61_)" fill="#1F1F1D" d="M568.042,289.976h-1.583v-2.036l1.81-0.113v-3.054l2.488-0.679v3.732h2.94
				v2.149h-2.94v5.429c0,1.357,0.452,2.036,1.583,2.036c0.34,0,0.905-0.113,1.132-0.226l0.452,1.923
				c-0.679,0.227-1.357,0.452-2.263,0.452c-2.601,0-3.619-1.697-3.619-4.072V289.976z"/>
		</g>
		<g>
			<defs>
				<rect id="SVGID_62_" x="140.853" y="266.564" width="474.354" height="69.558"/>
			</defs>
			<clipPath id="SVGID_63_">
				<use xlink:href="#SVGID_62_"  overflow="visible"/>
			</clipPath>
			<path clip-path="url(#SVGID_63_)" fill="#1F1F1D" d="M585.686,287.601c3.054,0,4.639,2.262,4.639,5.429
				c0,0.453,0,1.018-0.113,1.244h-7.239c0.227,2.036,1.471,3.167,3.393,3.167c1.019,0,1.81-0.339,2.602-0.792l0.905,1.697
				c-1.132,0.679-2.488,1.244-3.846,1.244c-3.167,0-5.542-2.149-5.542-5.881C580.484,289.863,582.972,287.601,585.686,287.601
				 M588.061,292.464c0-1.81-0.791-2.941-2.262-2.941c-1.356,0-2.487,1.018-2.714,2.941H588.061z"/>
		</g>
		<g>
			<defs>
				<rect id="SVGID_64_" x="140.853" y="266.564" width="474.354" height="69.558"/>
			</defs>
			<clipPath id="SVGID_65_">
				<use xlink:href="#SVGID_64_"  overflow="visible"/>
			</clipPath>
			<path clip-path="url(#SVGID_65_)" fill="#1F1F1D" d="M594.283,295.857c1.018,0,1.696,0.792,1.696,1.81
				c0,1.018-0.792,1.81-1.696,1.81c-1.019,0-1.696-0.792-1.696-1.81C592.586,296.649,593.377,295.857,594.283,295.857"/>
		</g>
		<g>
			<defs>
				<rect id="SVGID_66_" x="140.853" y="266.564" width="474.354" height="69.558"/>
			</defs>
			<clipPath id="SVGID_67_">
				<use xlink:href="#SVGID_66_"  overflow="visible"/>
			</clipPath>
			<path clip-path="url(#SVGID_67_)" fill="#1F1F1D" d="M598.919,284.095h2.828l2.148,7.578c0.453,1.696,0.791,3.167,1.357,4.863
				h0.113c0.452-1.697,0.905-3.167,1.357-4.863l2.149-7.578h2.713l-4.637,15.043h-3.166L598.919,284.095z"/>
		</g>
		<g>
			<defs>
				<rect id="SVGID_68_" x="140.853" y="266.564" width="474.354" height="69.558"/>
			</defs>
			<clipPath id="SVGID_69_">
				<use xlink:href="#SVGID_68_"  overflow="visible"/>
			</clipPath>
			<path clip-path="url(#SVGID_69_)" fill="#1F1F1D" d="M613.51,295.857c1.018,0,1.696,0.792,1.696,1.81
				c0,1.018-0.792,1.81-1.696,1.81c-1.019,0-1.697-0.792-1.697-1.81C611.813,296.649,612.492,295.857,613.51,295.857"/>
		</g>
		<g>
			<defs>
				<rect id="SVGID_70_" x="140.853" y="266.564" width="474.354" height="69.558"/>
			</defs>
			<clipPath id="SVGID_71_">
				<use xlink:href="#SVGID_70_"  overflow="visible"/>
			</clipPath>
			<path clip-path="url(#SVGID_71_)" fill="#E40F1A" d="M249.998,321.759c1.131,1.018,2.488,1.695,3.958,1.695
				c1.696,0,2.601-0.791,2.601-1.922c0-1.244-1.018-1.584-2.375-2.262l-2.036-0.906c-1.471-0.678-3.054-1.809-3.054-4.07
				c0-2.376,2.149-4.299,5.09-4.299c1.81,0,3.506,0.792,4.637,1.923l-1.357,1.696c-1.018-0.791-2.036-1.244-3.28-1.244
				c-1.47,0-2.375,0.679-2.375,1.811c0,1.131,1.131,1.583,2.375,2.148l2.036,0.905c1.81,0.792,3.054,1.923,3.054,4.071
				c0,2.488-2.036,4.523-5.429,4.523c-2.036,0-4.072-0.791-5.429-2.262L249.998,321.759z"/>
		</g>
		<g>
			<defs>
				<rect id="SVGID_72_" x="140.853" y="266.564" width="474.354" height="69.558"/>
			</defs>
			<clipPath id="SVGID_73_">
				<use xlink:href="#SVGID_72_"  overflow="visible"/>
			</clipPath>
			<path clip-path="url(#SVGID_73_)" fill="#E40F1A" d="M266.624,313.841c3.054,0,4.637,2.262,4.637,5.43
				c0,0.452,0,1.018-0.113,1.244h-7.238c0.226,2.035,1.47,3.166,3.393,3.166c1.018,0,1.81-0.34,2.602-0.792l0.904,1.697
				c-1.131,0.678-2.488,1.243-3.845,1.243c-3.167,0-5.542-2.148-5.542-5.881C261.308,316.103,263.909,313.841,266.624,313.841
				 M268.999,318.817c0-1.81-0.792-2.941-2.262-2.941c-1.357,0-2.488,1.019-2.714,2.941H268.999z"/>
		</g>
		<g>
			<defs>
				<rect id="SVGID_74_" x="140.853" y="266.564" width="474.354" height="69.558"/>
			</defs>
			<clipPath id="SVGID_75_">
				<use xlink:href="#SVGID_74_"  overflow="visible"/>
			</clipPath>
			<path clip-path="url(#SVGID_75_)" fill="#E40F1A" d="M273.975,309.204l2.602-0.68v14.139c0,0.678,0.339,0.904,0.565,0.904
				c0.113,0,0.226,0,0.452,0l0.339,2.036c-0.339,0.112-0.792,0.226-1.357,0.226c-1.923,0-2.602-1.243-2.602-3.166V309.204z"/>
		</g>
		<g>
			<defs>
				<rect id="SVGID_76_" x="140.853" y="266.564" width="474.354" height="69.558"/>
			</defs>
			<clipPath id="SVGID_77_">
				<use xlink:href="#SVGID_76_"  overflow="visible"/>
			</clipPath>
			<path clip-path="url(#SVGID_77_)" fill="#E40F1A" d="M280.535,309.204l2.601-0.68v4.864l-0.113,1.923
				c0.905-0.792,2.149-1.357,3.28-1.357c2.828,0,4.524,2.262,4.524,5.769c0,3.958-2.375,6.106-4.864,6.106
				c-1.018,0-2.149-0.452-3.054-1.469h-0.113l-0.227,1.13h-2.149v-16.286H280.535z M285.512,323.567c1.47,0,2.601-1.356,2.601-3.845
				c0-2.263-0.792-3.62-2.488-3.62c-0.792,0-1.583,0.453-2.489,1.244v5.316C283.928,323.341,284.833,323.567,285.512,323.567"/>
		</g>
		<g>
			<defs>
				<rect id="SVGID_78_" x="140.853" y="266.564" width="474.354" height="69.558"/>
			</defs>
			<clipPath id="SVGID_79_">
				<use xlink:href="#SVGID_78_"  overflow="visible"/>
			</clipPath>
			<path clip-path="url(#SVGID_79_)" fill="#E40F1A" d="M293.768,322.55c1.018,0.791,2.036,1.244,3.167,1.244
				c1.244,0,1.81-0.566,1.81-1.357c0-0.904-1.244-1.357-2.375-1.811c-1.47-0.564-3.167-1.355-3.167-3.279
				c0-2.035,1.583-3.393,4.185-3.393c1.583,0,2.827,0.679,3.732,1.357l-1.244,1.583c-0.792-0.565-1.583-1.019-2.488-1.019
				c-1.131,0-1.697,0.566-1.697,1.245c0,0.905,1.131,1.243,2.375,1.696c1.583,0.565,3.28,1.357,3.28,3.394
				c0,1.923-1.583,3.505-4.411,3.505c-1.583,0-3.167-0.678-4.298-1.582L293.768,322.55z"/>
		</g>
		<g>
			<defs>
				<rect id="SVGID_80_" x="140.853" y="266.564" width="474.354" height="69.558"/>
			</defs>
			<clipPath id="SVGID_81_">
				<use xlink:href="#SVGID_80_"  overflow="visible"/>
			</clipPath>
			<path clip-path="url(#SVGID_81_)" fill="#E40F1A" d="M304.287,316.329h-1.583v-2.035l1.81-0.113v-3.055l2.488-0.678v3.732h2.941
				v2.148h-2.941v5.43c0,1.355,0.453,2.035,1.584,2.035c0.339,0,0.904-0.113,1.131-0.227l0.452,1.923
				c-0.679,0.226-1.357,0.452-2.262,0.452c-2.601,0-3.619-1.695-3.619-4.07V316.329z"/>
		</g>
		<g>
			<defs>
				<rect id="SVGID_82_" x="140.853" y="266.564" width="474.354" height="69.558"/>
			</defs>
			<clipPath id="SVGID_83_">
				<use xlink:href="#SVGID_82_"  overflow="visible"/>
			</clipPath>
			<path clip-path="url(#SVGID_83_)" fill="#E40F1A" d="M312.43,309.204l2.601-0.68v4.864l-0.113,2.149
				c0.905-0.905,2.037-1.697,3.62-1.697c2.375,0,3.506,1.584,3.506,4.523v7.126h-2.601v-6.786c0-1.922-0.566-2.602-1.81-2.602
				c-1.018,0-1.583,0.453-2.602,1.357v7.917h-2.602L312.43,309.204L312.43,309.204z"/>
		</g>
		<g>
			<defs>
				<rect id="SVGID_84_" x="140.853" y="266.564" width="474.354" height="69.558"/>
			</defs>
			<clipPath id="SVGID_85_">
				<use xlink:href="#SVGID_84_"  overflow="visible"/>
			</clipPath>
			<path clip-path="url(#SVGID_85_)" fill="#E40F1A" d="M325.211,310.674c0-0.905,0.678-1.47,1.696-1.47
				c1.018,0,1.583,0.678,1.583,1.47c0,0.905-0.679,1.471-1.583,1.471S325.211,311.579,325.211,310.674 M325.55,314.181h2.602v11.31
				h-2.602V314.181z"/>
		</g>
		<g>
			<defs>
				<rect id="SVGID_86_" x="140.853" y="266.564" width="474.354" height="69.558"/>
			</defs>
			<clipPath id="SVGID_87_">
				<use xlink:href="#SVGID_86_"  overflow="visible"/>
			</clipPath>
			<path clip-path="url(#SVGID_87_)" fill="#E40F1A" d="M331.771,309.204l2.602-0.68v14.139c0,0.678,0.339,0.904,0.565,0.904
				c0.113,0,0.226,0,0.453,0l0.453,2.036c-0.339,0.112-0.792,0.226-1.357,0.226c-1.923,0-2.602-1.243-2.602-3.166v-13.459H331.771z"
				/>
		</g>
		<g>
			<defs>
				<rect id="SVGID_88_" x="140.853" y="266.564" width="474.354" height="69.558"/>
			</defs>
			<clipPath id="SVGID_89_">
				<use xlink:href="#SVGID_88_"  overflow="visible"/>
			</clipPath>
			<path clip-path="url(#SVGID_89_)" fill="#E40F1A" d="M344.099,311.353c-0.453-0.227-0.905-0.227-1.244-0.227
				c-0.905,0-1.47,0.566-1.47,1.923v1.245h2.262v2.148h-2.262v9.273h-2.602v-9.273h-1.471v-2.148l1.471-0.113v-1.132
				c0-2.375,1.131-4.071,3.732-4.071c0.792,0,1.583,0.227,2.036,0.339L344.099,311.353z"/>
		</g>
		<g>
			<defs>
				<rect id="SVGID_90_" x="140.853" y="266.564" width="474.354" height="69.558"/>
			</defs>
			<clipPath id="SVGID_91_">
				<use xlink:href="#SVGID_90_"  overflow="visible"/>
			</clipPath>
			<path clip-path="url(#SVGID_91_)" fill="#E40F1A" d="M350.093,313.841c3.054,0,4.637,2.262,4.637,5.43
				c0,0.452,0,1.018-0.113,1.244h-7.239c0.227,2.035,1.471,3.166,3.393,3.166c1.018,0,1.81-0.34,2.602-0.792l0.905,1.697
				c-1.131,0.678-2.488,1.243-3.846,1.243c-3.167,0-5.542-2.148-5.542-5.881C344.891,316.103,347.492,313.841,350.093,313.841
				 M352.468,318.817c0-1.81-0.792-2.941-2.262-2.941c-1.357,0-2.488,1.019-2.714,2.941H352.468z"/>
		</g>
		<g>
			<defs>
				<rect id="SVGID_92_" x="140.853" y="266.564" width="474.354" height="69.558"/>
			</defs>
			<clipPath id="SVGID_93_">
				<use xlink:href="#SVGID_92_"  overflow="visible"/>
			</clipPath>
			<path clip-path="url(#SVGID_93_)" fill="#E40F1A" d="M362.761,310.448h4.071c4.637,0,7.352,2.488,7.352,7.465
				c0,4.976-2.715,7.577-7.239,7.577h-4.185V310.448z M366.606,323.341c3.054,0,4.75-1.695,4.75-5.428s-1.696-5.316-4.75-5.316
				h-1.131v10.744H366.606z"/>
		</g>
		<g>
			<defs>
				<rect id="SVGID_94_" x="140.853" y="266.564" width="474.354" height="69.558"/>
			</defs>
			<clipPath id="SVGID_95_">
				<use xlink:href="#SVGID_94_"  overflow="visible"/>
			</clipPath>
			<path clip-path="url(#SVGID_95_)" fill="#E40F1A" d="M381.649,313.841c3.053,0,4.637,2.262,4.637,5.43
				c0,0.452,0,1.018-0.113,1.244h-7.239c0.226,2.035,1.47,3.166,3.393,3.166c1.018,0,1.809-0.34,2.601-0.792l0.905,1.697
				c-1.131,0.678-2.488,1.243-3.846,1.243c-3.166,0-5.542-2.148-5.542-5.881C376.446,316.103,379.048,313.841,381.649,313.841
				 M384.025,318.817c0-1.81-0.792-2.941-2.263-2.941c-1.357,0-2.487,1.019-2.713,2.941H384.025z"/>
		</g>
		<g>
			<defs>
				<rect id="SVGID_96_" x="140.853" y="266.564" width="474.354" height="69.558"/>
			</defs>
			<clipPath id="SVGID_97_">
				<use xlink:href="#SVGID_96_"  overflow="visible"/>
			</clipPath>
			<path clip-path="url(#SVGID_97_)" fill="#E40F1A" d="M389.113,314.181h2.149l0.227,1.583h0.113
				c0.905-1.019,2.036-1.81,3.506-1.81c1.696,0,2.602,0.791,3.167,2.035c1.131-1.131,2.262-2.035,3.62-2.035
				c2.375,0,3.506,1.584,3.506,4.523v7.126h-2.714v-6.786c0-1.923-0.565-2.602-1.697-2.602c-0.678,0-1.47,0.453-2.375,1.357v7.917
				h-2.602v-6.786c0-1.922-0.564-2.602-1.81-2.602c-0.679,0-1.47,0.453-2.375,1.357v7.917h-2.602v-11.196H389.113z"/>
		</g>
		<g>
			<defs>
				<rect id="SVGID_98_" x="140.853" y="266.564" width="474.354" height="69.558"/>
			</defs>
			<clipPath id="SVGID_99_">
				<use xlink:href="#SVGID_98_"  overflow="visible"/>
			</clipPath>
			<path clip-path="url(#SVGID_99_)" fill="#E40F1A" d="M413.318,313.841c3.054,0,4.637,2.262,4.637,5.43
				c0,0.452,0,1.018-0.113,1.244h-7.239c0.227,2.035,1.471,3.166,3.394,3.166c1.018,0,1.81-0.34,2.602-0.792l0.904,1.697
				c-1.13,0.678-2.488,1.243-3.845,1.243c-3.167,0-5.542-2.148-5.542-5.881C408.115,316.103,410.603,313.841,413.318,313.841
				 M415.693,318.817c0-1.81-0.792-2.941-2.262-2.941c-1.357,0-2.488,1.019-2.715,2.941H415.693z"/>
		</g>
		<g>
			<defs>
				<rect id="SVGID_100_" x="140.853" y="266.564" width="474.354" height="69.558"/>
			</defs>
			<clipPath id="SVGID_101_">
				<use xlink:href="#SVGID_100_"  overflow="visible"/>
			</clipPath>
			<path clip-path="url(#SVGID_101_)" fill="#E40F1A" d="M420.783,314.181h2.148l0.227,1.47h0.113
				c1.018-1.018,2.148-1.81,3.732-1.81c2.375,0,3.506,1.584,3.506,4.523v7.126h-2.602v-6.786c0-1.922-0.564-2.602-1.809-2.602
				c-1.019,0-1.584,0.453-2.602,1.357v7.917h-2.602v-11.196H420.783z"/>
		</g>
		<g>
			<defs>
				<rect id="SVGID_102_" x="140.853" y="266.564" width="474.354" height="69.558"/>
			</defs>
			<clipPath id="SVGID_103_">
				<use xlink:href="#SVGID_102_"  overflow="visible"/>
			</clipPath>
			<polygon clip-path="url(#SVGID_103_)" fill="#E40F1A" points="432.998,324.021 438.313,316.329 433.563,316.329 433.563,314.181
				441.707,314.181 441.707,315.538 436.39,323.341 441.82,323.341 441.82,325.49 432.998,325.49 			"/>
		</g>
	</g>
</g>
</svg>
