<svg id="Gruppe_208" data-name="Gruppe 208" xmlns="http://www.w3.org/2000/svg" width="129.324" height="62.763" viewBox="0 0 129.324 62.763">
  <path id="Pfad_722" data-name="Pfad 722" d="M285.135,430.217v-.846a3.085,3.085,0,0,1-.555.529,2.8,2.8,0,0,1-.549.31,2.1,2.1,0,0,1-.542.145,4.2,4.2,0,0,1-.522.033,1.9,1.9,0,0,1-.925-.23,2.281,2.281,0,0,1-.728-.635,3.211,3.211,0,0,1-.482-.965,4.072,4.072,0,0,1-.179-1.237,3.809,3.809,0,0,1,.218-1.321,3.145,3.145,0,0,1,.6-1.025,2.7,2.7,0,0,1,.906-.669,2.733,2.733,0,0,1,1.144-.238,2.62,2.62,0,0,1,.886.152,1.947,1.947,0,0,1,.727.457v-4.1h.635v9.64Zm0-4.139a2.161,2.161,0,0,0-.066-.536,1.106,1.106,0,0,0-.239-.456,1.2,1.2,0,0,0-.464-.317,1.984,1.984,0,0,0-.743-.119,2.114,2.114,0,0,0-.921.2,2.191,2.191,0,0,0-.723.548,2.552,2.552,0,0,0-.478.84,3.189,3.189,0,0,0-.173,1.071,3.469,3.469,0,0,0,.126.931,2.606,2.606,0,0,0,.365.8,2.016,2.016,0,0,0,.571.556,1.36,1.36,0,0,0,.743.211,1.78,1.78,0,0,0,.631-.113,2.438,2.438,0,0,0,.55-.292,2.83,2.83,0,0,0,.457-.4,4.548,4.548,0,0,0,.365-.45Z" transform="translate(-233.214 -370.924)" fill="#161615"/>
  <path id="Pfad_723" data-name="Pfad 723" d="M285.135,430.217v-.846a3.085,3.085,0,0,1-.555.529,2.8,2.8,0,0,1-.549.31,2.1,2.1,0,0,1-.542.145,4.2,4.2,0,0,1-.522.033,1.9,1.9,0,0,1-.925-.23,2.281,2.281,0,0,1-.728-.635,3.211,3.211,0,0,1-.482-.965,4.072,4.072,0,0,1-.179-1.237,3.809,3.809,0,0,1,.218-1.321,3.145,3.145,0,0,1,.6-1.025,2.7,2.7,0,0,1,.906-.669,2.733,2.733,0,0,1,1.144-.238,2.62,2.62,0,0,1,.886.152,1.947,1.947,0,0,1,.727.457v-4.1h.635v9.64Zm0-4.139a2.161,2.161,0,0,0-.066-.536,1.106,1.106,0,0,0-.239-.456,1.2,1.2,0,0,0-.464-.317,1.984,1.984,0,0,0-.743-.119,2.114,2.114,0,0,0-.921.2,2.191,2.191,0,0,0-.723.548,2.552,2.552,0,0,0-.478.84,3.189,3.189,0,0,0-.173,1.071,3.469,3.469,0,0,0,.126.931,2.606,2.606,0,0,0,.365.8,2.016,2.016,0,0,0,.571.556,1.36,1.36,0,0,0,.743.211,1.78,1.78,0,0,0,.631-.113,2.438,2.438,0,0,0,.55-.292,2.83,2.83,0,0,0,.457-.4,4.548,4.548,0,0,0,.365-.45Z" transform="translate(-233.214 -370.924)" fill="none" stroke="#2b2765" stroke-width="0.25"/>
  <path id="Pfad_724" data-name="Pfad 724" d="M290.478,428.071a4.482,4.482,0,0,0,.092,1.163,2.526,2.526,0,0,0,.385.907,1.762,1.762,0,0,0,.681.581,2.186,2.186,0,0,0,.984.206,2.82,2.82,0,0,0,1.614-.569l.238.5a4.038,4.038,0,0,1-1.071.516,3.7,3.7,0,0,1-.991.132,2.328,2.328,0,0,1-1.919-.853,4.476,4.476,0,0,1-.494-3.682,2.789,2.789,0,0,1,.541-.952,2.428,2.428,0,0,1,.84-.615,2.62,2.62,0,0,1,1.084-.219,2.092,2.092,0,0,1,.853.172,1.93,1.93,0,0,1,.675.49,2.256,2.256,0,0,1,.442.766,3.028,3.028,0,0,1,.159,1.018v.436Zm3.005-1.851a1.386,1.386,0,0,0-1.086-.489,1.663,1.663,0,0,0-1.185.436,2.712,2.712,0,0,0-.694,1.375h3.4a1.921,1.921,0,0,0-.432-1.322" transform="translate(-235.436 -372.044)" fill="#161615"/>
  <path id="Pfad_725" data-name="Pfad 725" d="M290.478,428.071a4.482,4.482,0,0,0,.092,1.163,2.526,2.526,0,0,0,.385.907,1.762,1.762,0,0,0,.681.581,2.186,2.186,0,0,0,.984.206,2.82,2.82,0,0,0,1.614-.569l.238.5a4.038,4.038,0,0,1-1.071.516,3.7,3.7,0,0,1-.991.132,2.328,2.328,0,0,1-1.919-.853,4.476,4.476,0,0,1-.494-3.682,2.789,2.789,0,0,1,.541-.952,2.428,2.428,0,0,1,.84-.615,2.62,2.62,0,0,1,1.084-.219,2.092,2.092,0,0,1,.853.172,1.93,1.93,0,0,1,.675.49,2.256,2.256,0,0,1,.442.766,3.028,3.028,0,0,1,.159,1.018v.436Zm3.005-1.851a1.386,1.386,0,0,0-1.086-.489,1.663,1.663,0,0,0-1.185.436,2.712,2.712,0,0,0-.694,1.375h3.4A1.921,1.921,0,0,0,293.483,426.22Z" transform="translate(-235.436 -372.044)" fill="none" stroke="#2b2765" stroke-width="0.25"/>
  <path id="Pfad_726" data-name="Pfad 726" d="M303.4,429.454a3.327,3.327,0,0,1-.6,1.071,2.809,2.809,0,0,1-.912.708,2.574,2.574,0,0,1-1.137.257,2.875,2.875,0,0,1-.919-.132,1.616,1.616,0,0,1-.694-.476v3.609H298.5v-9.15h.635v.991a4.93,4.93,0,0,1,.529-.588,2.165,2.165,0,0,1,.509-.357,1.949,1.949,0,0,1,.529-.172,3.477,3.477,0,0,1,.588-.046,2.111,2.111,0,0,1,.925.2,2.14,2.14,0,0,1,.734.589,2.874,2.874,0,0,1,.489.925,3.853,3.853,0,0,1,.179,1.216,4.043,4.043,0,0,1-.218,1.349m-.582-2.24a2.288,2.288,0,0,0-.365-.747,1.81,1.81,0,0,0-.57-.5,1.5,1.5,0,0,0-.743-.185,1.8,1.8,0,0,0-1.147.37,4.9,4.9,0,0,0-.856.872v2.605a1.049,1.049,0,0,0,.139.542,1.3,1.3,0,0,0,.358.4,1.578,1.578,0,0,0,.485.237,1.813,1.813,0,0,0,.531.08,2.073,2.073,0,0,0,1.679-.8,2.717,2.717,0,0,0,.457-.879,3.571,3.571,0,0,0,.16-1.084,3.2,3.2,0,0,0-.126-.905" transform="translate(-237.548 -372.04)" fill="#161615"/>
  <path id="Pfad_727" data-name="Pfad 727" d="M303.4,429.454a3.327,3.327,0,0,1-.6,1.071,2.809,2.809,0,0,1-.912.708,2.574,2.574,0,0,1-1.137.257,2.875,2.875,0,0,1-.919-.132,1.616,1.616,0,0,1-.694-.476v3.609H298.5v-9.15h.635v.991a4.93,4.93,0,0,1,.529-.588,2.165,2.165,0,0,1,.509-.357,1.949,1.949,0,0,1,.529-.172,3.477,3.477,0,0,1,.588-.046,2.111,2.111,0,0,1,.925.2,2.14,2.14,0,0,1,.734.589,2.874,2.874,0,0,1,.489.925,3.853,3.853,0,0,1,.179,1.216A4.043,4.043,0,0,1,303.4,429.454Zm-.582-2.24a2.288,2.288,0,0,0-.365-.747,1.81,1.81,0,0,0-.57-.5,1.5,1.5,0,0,0-.743-.185,1.8,1.8,0,0,0-1.147.37,4.9,4.9,0,0,0-.856.872v2.605a1.049,1.049,0,0,0,.139.542,1.3,1.3,0,0,0,.358.4,1.578,1.578,0,0,0,.485.237,1.813,1.813,0,0,0,.531.08,2.073,2.073,0,0,0,1.679-.8,2.717,2.717,0,0,0,.457-.879,3.571,3.571,0,0,0,.16-1.084A3.2,3.2,0,0,0,302.817,427.214Z" transform="translate(-237.548 -372.04)" fill="none" stroke="#2b2765" stroke-width="0.25"/>
  <path id="Pfad_728" data-name="Pfad 728" d="M310.343,426.047a.6.6,0,0,0-.37-.146,1.051,1.051,0,0,0-.773.5,9.97,9.97,0,0,0-.827,1.3v3.646h-.635v-5.99h.635v1.534a3.916,3.916,0,0,1,.879-1.23,1.4,1.4,0,0,1,.866-.423.787.787,0,0,1,.292.059.622.622,0,0,1,.251.188Z" transform="translate(-239.791 -372.056)" fill="#161615"/>
  <path id="Pfad_729" data-name="Pfad 729" d="M310.343,426.047a.6.6,0,0,0-.37-.146,1.051,1.051,0,0,0-.773.5,9.97,9.97,0,0,0-.827,1.3v3.646h-.635v-5.99h.635v1.534a3.916,3.916,0,0,1,.879-1.23,1.4,1.4,0,0,1,.866-.423.787.787,0,0,1,.292.059.622.622,0,0,1,.251.188Z" transform="translate(-239.791 -372.056)" fill="none" stroke="#2b2765" stroke-width="0.25"/>
  <path id="Pfad_730" data-name="Pfad 730" d="M313.3,428.071a4.412,4.412,0,0,0,.093,1.163,2.509,2.509,0,0,0,.382.907,1.771,1.771,0,0,0,.681.581,2.19,2.19,0,0,0,.985.206,2.822,2.822,0,0,0,1.613-.569l.239.5a4.039,4.039,0,0,1-1.071.516,3.7,3.7,0,0,1-.992.132,2.325,2.325,0,0,1-1.917-.853,4.473,4.473,0,0,1-.5-3.682,2.766,2.766,0,0,1,.542-.952,2.4,2.4,0,0,1,.839-.615,2.624,2.624,0,0,1,1.085-.219,2.1,2.1,0,0,1,.853.172,1.948,1.948,0,0,1,.674.49,2.257,2.257,0,0,1,.443.766,3.046,3.046,0,0,1,.159,1.018v.436Zm3-1.851a1.387,1.387,0,0,0-1.086-.489,1.666,1.666,0,0,0-1.186.436,2.712,2.712,0,0,0-.693,1.375h3.4a1.922,1.922,0,0,0-.434-1.322" transform="translate(-240.978 -372.044)" fill="#161615"/>
  <path id="Pfad_731" data-name="Pfad 731" d="M313.3,428.071a4.412,4.412,0,0,0,.093,1.163,2.509,2.509,0,0,0,.382.907,1.771,1.771,0,0,0,.681.581,2.19,2.19,0,0,0,.985.206,2.822,2.822,0,0,0,1.613-.569l.239.5a4.039,4.039,0,0,1-1.071.516,3.7,3.7,0,0,1-.992.132,2.325,2.325,0,0,1-1.917-.853,4.473,4.473,0,0,1-.5-3.682,2.766,2.766,0,0,1,.542-.952,2.4,2.4,0,0,1,.839-.615,2.624,2.624,0,0,1,1.085-.219,2.1,2.1,0,0,1,.853.172,1.948,1.948,0,0,1,.674.49,2.257,2.257,0,0,1,.443.766,3.046,3.046,0,0,1,.159,1.018v.436Zm3-1.851a1.387,1.387,0,0,0-1.086-.489,1.666,1.666,0,0,0-1.186.436,2.712,2.712,0,0,0-.693,1.375h3.4A1.922,1.922,0,0,0,316.307,426.22Z" transform="translate(-240.978 -372.044)" fill="none" stroke="#2b2765" stroke-width="0.25"/>
  <path id="Pfad_732" data-name="Pfad 732" d="M324.631,430.577a1.524,1.524,0,0,1-.463.515,2.135,2.135,0,0,1-.694.312,3.426,3.426,0,0,1-.853.1,4.142,4.142,0,0,1-1-.112,3.991,3.991,0,0,1-.938-.376l.251-.582a7.218,7.218,0,0,0,.81.383,2.328,2.328,0,0,0,.876.159,2.3,2.3,0,0,0,.551-.066,1.64,1.64,0,0,0,.484-.2,1.151,1.151,0,0,0,.345-.323.758.758,0,0,0,.133-.444.962.962,0,0,0-.153-.555,1.454,1.454,0,0,0-.411-.4,3.986,3.986,0,0,0-.584-.317c-.217-.1-.441-.2-.671-.318a6.7,6.7,0,0,1-.7-.4,2.384,2.384,0,0,1-.444-.37,1.133,1.133,0,0,1-.238-.41,1.657,1.657,0,0,1-.074-.516,1.215,1.215,0,0,1,.609-1.111,3.075,3.075,0,0,1,1.613-.371,3.131,3.131,0,0,1,.872.112,4.894,4.894,0,0,1,.807.325l-.306.555a3.358,3.358,0,0,0-.709-.33,2.414,2.414,0,0,0-.778-.133,2.657,2.657,0,0,0-.538.053,1.43,1.43,0,0,0-.457.172,1,1,0,0,0-.32.3.741.741,0,0,0-.12.417.781.781,0,0,0,.153.489,1.541,1.541,0,0,0,.405.357,4.528,4.528,0,0,0,.558.3q.3.14.624.3.437.226.73.4a2.265,2.265,0,0,1,.472.37,1.184,1.184,0,0,1,.258.429,1.775,1.775,0,0,1,.08.569,1.435,1.435,0,0,1-.173.708" transform="translate(-242.933 -372.044)" fill="#161615"/>
  <path id="Pfad_733" data-name="Pfad 733" d="M324.631,430.577a1.524,1.524,0,0,1-.463.515,2.135,2.135,0,0,1-.694.312,3.426,3.426,0,0,1-.853.1,4.142,4.142,0,0,1-1-.112,3.991,3.991,0,0,1-.938-.376l.251-.582a7.218,7.218,0,0,0,.81.383,2.328,2.328,0,0,0,.876.159,2.3,2.3,0,0,0,.551-.066,1.64,1.64,0,0,0,.484-.2,1.151,1.151,0,0,0,.345-.323.758.758,0,0,0,.133-.444.962.962,0,0,0-.153-.555,1.454,1.454,0,0,0-.411-.4,3.986,3.986,0,0,0-.584-.317c-.217-.1-.441-.2-.671-.318a6.7,6.7,0,0,1-.7-.4,2.384,2.384,0,0,1-.444-.37,1.133,1.133,0,0,1-.238-.41,1.657,1.657,0,0,1-.074-.516,1.215,1.215,0,0,1,.609-1.111,3.075,3.075,0,0,1,1.613-.371,3.131,3.131,0,0,1,.872.112,4.894,4.894,0,0,1,.807.325l-.306.555a3.358,3.358,0,0,0-.709-.33,2.414,2.414,0,0,0-.778-.133,2.657,2.657,0,0,0-.538.053,1.43,1.43,0,0,0-.457.172,1,1,0,0,0-.32.3.741.741,0,0,0-.12.417.781.781,0,0,0,.153.489,1.541,1.541,0,0,0,.405.357,4.528,4.528,0,0,0,.558.3q.3.14.624.3.437.226.73.4a2.265,2.265,0,0,1,.472.37,1.184,1.184,0,0,1,.258.429,1.775,1.775,0,0,1,.08.569A1.435,1.435,0,0,1,324.631,430.577Z" transform="translate(-242.933 -372.044)" fill="none" stroke="#2b2765" stroke-width="0.25"/>
  <path id="Pfad_734" data-name="Pfad 734" d="M332.193,430.577a1.532,1.532,0,0,1-.463.515,2.143,2.143,0,0,1-.694.312,3.434,3.434,0,0,1-.853.1,4.144,4.144,0,0,1-1.005-.112,4.017,4.017,0,0,1-.938-.376l.251-.582a7.294,7.294,0,0,0,.811.383,2.326,2.326,0,0,0,.876.159,2.286,2.286,0,0,0,.55-.066,1.641,1.641,0,0,0,.485-.2,1.159,1.159,0,0,0,.345-.323.763.763,0,0,0,.133-.444.967.967,0,0,0-.153-.555,1.465,1.465,0,0,0-.411-.4,4.078,4.078,0,0,0-.585-.317c-.217-.1-.441-.2-.671-.318a6.685,6.685,0,0,1-.7-.4,2.333,2.333,0,0,1-.444-.37,1.136,1.136,0,0,1-.239-.41,1.683,1.683,0,0,1-.073-.516,1.215,1.215,0,0,1,.608-1.111,3.079,3.079,0,0,1,1.613-.371,3.133,3.133,0,0,1,.873.112,4.889,4.889,0,0,1,.806.325l-.305.555a3.346,3.346,0,0,0-.71-.33,2.406,2.406,0,0,0-.777-.133,2.656,2.656,0,0,0-.538.053,1.428,1.428,0,0,0-.458.172.994.994,0,0,0-.319.3.736.736,0,0,0-.12.417.781.781,0,0,0,.154.489,1.528,1.528,0,0,0,.405.357,4.466,4.466,0,0,0,.557.3q.306.14.624.3.438.226.73.4a2.226,2.226,0,0,1,.472.37,1.188,1.188,0,0,1,.259.429,1.8,1.8,0,0,1,.079.569,1.443,1.443,0,0,1-.172.708" transform="translate(-244.769 -372.044)" fill="#161615"/>
  <path id="Pfad_735" data-name="Pfad 735" d="M332.193,430.577a1.532,1.532,0,0,1-.463.515,2.143,2.143,0,0,1-.694.312,3.434,3.434,0,0,1-.853.1,4.144,4.144,0,0,1-1.005-.112,4.017,4.017,0,0,1-.938-.376l.251-.582a7.294,7.294,0,0,0,.811.383,2.326,2.326,0,0,0,.876.159,2.286,2.286,0,0,0,.55-.066,1.641,1.641,0,0,0,.485-.2,1.159,1.159,0,0,0,.345-.323.763.763,0,0,0,.133-.444.967.967,0,0,0-.153-.555,1.465,1.465,0,0,0-.411-.4,4.078,4.078,0,0,0-.585-.317c-.217-.1-.441-.2-.671-.318a6.685,6.685,0,0,1-.7-.4,2.333,2.333,0,0,1-.444-.37,1.136,1.136,0,0,1-.239-.41,1.683,1.683,0,0,1-.073-.516,1.215,1.215,0,0,1,.608-1.111,3.079,3.079,0,0,1,1.613-.371,3.133,3.133,0,0,1,.873.112,4.889,4.889,0,0,1,.806.325l-.305.555a3.346,3.346,0,0,0-.71-.33,2.406,2.406,0,0,0-.777-.133,2.656,2.656,0,0,0-.538.053,1.428,1.428,0,0,0-.458.172.994.994,0,0,0-.319.3.736.736,0,0,0-.12.417.781.781,0,0,0,.154.489,1.528,1.528,0,0,0,.405.357,4.466,4.466,0,0,0,.557.3q.306.14.624.3.438.226.73.4a2.226,2.226,0,0,1,.472.37,1.188,1.188,0,0,1,.259.429,1.8,1.8,0,0,1,.079.569A1.443,1.443,0,0,1,332.193,430.577Z" transform="translate(-244.769 -372.044)" fill="none" stroke="#2b2765" stroke-width="0.25"/>
  <path id="Pfad_736" data-name="Pfad 736" d="M337.059,422.824a.448.448,0,0,1-.648,0,.545.545,0,0,1,0-.728.447.447,0,0,1,.648,0,.547.547,0,0,1,0,.728m-.641,1.738h.635v5.989h-.635Z" transform="translate(-246.72 -371.259)" fill="#161615"/>
  <path id="Pfad_737" data-name="Pfad 737" d="M337.059,422.824a.448.448,0,0,1-.648,0,.545.545,0,0,1,0-.728.447.447,0,0,1,.648,0,.547.547,0,0,1,0,.728Zm-.641,1.738h.635v5.989h-.635Z" transform="translate(-246.72 -371.259)" fill="none" stroke="#2b2765" stroke-width="0.25"/>
  <path id="Pfad_738" data-name="Pfad 738" d="M345.111,429.584a3.161,3.161,0,0,1-.582,1,2.811,2.811,0,0,1-.879.674,2.429,2.429,0,0,1-1.092.251,2.455,2.455,0,0,1-1.1-.251,2.8,2.8,0,0,1-.879-.674,3.176,3.176,0,0,1-.583-1,3.734,3.734,0,0,1,0-2.472,3.188,3.188,0,0,1,.59-1,2.768,2.768,0,0,1,.879-.674,2.564,2.564,0,0,1,2.189,0,2.68,2.68,0,0,1,.879.674,3.244,3.244,0,0,1,.582,1,3.709,3.709,0,0,1,0,2.472m-.622-2.221a2.792,2.792,0,0,0-.439-.827,2.106,2.106,0,0,0-.659-.562,1.726,1.726,0,0,0-.832-.205,1.759,1.759,0,0,0-.837.205,2.081,2.081,0,0,0-.666.562,2.774,2.774,0,0,0-.439.827,3.117,3.117,0,0,0,0,1.97,2.77,2.77,0,0,0,.439.826,2.072,2.072,0,0,0,.666.562,1.743,1.743,0,0,0,.837.206,1.71,1.71,0,0,0,.832-.206,2.1,2.1,0,0,0,.659-.562,2.788,2.788,0,0,0,.439-.826,3.116,3.116,0,0,0,0-1.97" transform="translate(-247.572 -372.044)" fill="#161615"/>
  <path id="Pfad_739" data-name="Pfad 739" d="M345.111,429.584a3.161,3.161,0,0,1-.582,1,2.811,2.811,0,0,1-.879.674,2.429,2.429,0,0,1-1.092.251,2.455,2.455,0,0,1-1.1-.251,2.8,2.8,0,0,1-.879-.674,3.176,3.176,0,0,1-.583-1,3.734,3.734,0,0,1,0-2.472,3.188,3.188,0,0,1,.59-1,2.768,2.768,0,0,1,.879-.674,2.564,2.564,0,0,1,2.189,0,2.68,2.68,0,0,1,.879.674,3.244,3.244,0,0,1,.582,1,3.709,3.709,0,0,1,0,2.472Zm-.622-2.221a2.792,2.792,0,0,0-.439-.827,2.106,2.106,0,0,0-.659-.562,1.726,1.726,0,0,0-.832-.205,1.759,1.759,0,0,0-.837.205,2.081,2.081,0,0,0-.666.562,2.774,2.774,0,0,0-.439.827,3.117,3.117,0,0,0,0,1.97,2.77,2.77,0,0,0,.439.826,2.072,2.072,0,0,0,.666.562,1.743,1.743,0,0,0,.837.206,1.71,1.71,0,0,0,.832-.206,2.1,2.1,0,0,0,.659-.562,2.788,2.788,0,0,0,.439-.826,3.116,3.116,0,0,0,0-1.97Z" transform="translate(-247.572 -372.044)" fill="none" stroke="#2b2765" stroke-width="0.25"/>
  <path id="Pfad_740" data-name="Pfad 740" d="M353.585,431.337v-4.311a4.205,4.205,0,0,0-.026-.463,1.274,1.274,0,0,0-.113-.4.664.664,0,0,0-.264-.285.954.954,0,0,0-.483-.105,1.863,1.863,0,0,0-1.111.428,9.441,9.441,0,0,0-1.375,1.383v3.755h-.634v-5.99h.634v1.534c.168-.2.344-.405.529-.608a4.433,4.433,0,0,1,.588-.543,3.051,3.051,0,0,1,.675-.39,2.1,2.1,0,0,1,.812-.152,1.384,1.384,0,0,1,1.052.371,1.733,1.733,0,0,1,.351,1.215v4.563Z" transform="translate(-249.951 -372.044)" fill="#161615"/>
  <path id="Pfad_741" data-name="Pfad 741" d="M353.585,431.337v-4.311a4.205,4.205,0,0,0-.026-.463,1.274,1.274,0,0,0-.113-.4.664.664,0,0,0-.264-.285.954.954,0,0,0-.483-.105,1.863,1.863,0,0,0-1.111.428,9.441,9.441,0,0,0-1.375,1.383v3.755h-.634v-5.99h.634v1.534c.168-.2.344-.405.529-.608a4.433,4.433,0,0,1,.588-.543,3.051,3.051,0,0,1,.675-.39,2.1,2.1,0,0,1,.812-.152,1.384,1.384,0,0,1,1.052.371,1.733,1.733,0,0,1,.351,1.215v4.563Z" transform="translate(-249.951 -372.044)" fill="none" stroke="#2b2765" stroke-width="0.25"/>
  <path id="Pfad_742" data-name="Pfad 742" d="M362.159,430.577a1.525,1.525,0,0,1-.463.515,2.129,2.129,0,0,1-.694.312,3.426,3.426,0,0,1-.853.1,4.147,4.147,0,0,1-1-.112,4.015,4.015,0,0,1-.938-.376l.251-.582a7.27,7.27,0,0,0,.81.383,2.333,2.333,0,0,0,.877.159,2.3,2.3,0,0,0,.55-.066,1.654,1.654,0,0,0,.485-.2,1.158,1.158,0,0,0,.345-.323.763.763,0,0,0,.133-.444.956.956,0,0,0-.154-.555,1.45,1.45,0,0,0-.41-.4,4.04,4.04,0,0,0-.585-.317c-.217-.1-.441-.2-.671-.318a6.677,6.677,0,0,1-.7-.4,2.331,2.331,0,0,1-.444-.37,1.146,1.146,0,0,1-.239-.41,1.683,1.683,0,0,1-.073-.516,1.215,1.215,0,0,1,.608-1.111,3.076,3.076,0,0,1,1.613-.371,3.133,3.133,0,0,1,.873.112,4.916,4.916,0,0,1,.806.325l-.305.555a3.365,3.365,0,0,0-.71-.33,2.41,2.41,0,0,0-.777-.133,2.651,2.651,0,0,0-.538.053,1.428,1.428,0,0,0-.458.172,1,1,0,0,0-.32.3.741.741,0,0,0-.119.417.785.785,0,0,0,.152.489,1.545,1.545,0,0,0,.406.357,4.517,4.517,0,0,0,.557.3c.2.093.412.192.624.3q.438.226.73.4a2.224,2.224,0,0,1,.472.37,1.2,1.2,0,0,1,.259.429,1.8,1.8,0,0,1,.08.569,1.443,1.443,0,0,1-.172.708" transform="translate(-252.046 -372.044)" fill="#161615"/>
  <path id="Pfad_743" data-name="Pfad 743" d="M362.159,430.577a1.525,1.525,0,0,1-.463.515,2.129,2.129,0,0,1-.694.312,3.426,3.426,0,0,1-.853.1,4.147,4.147,0,0,1-1-.112,4.015,4.015,0,0,1-.938-.376l.251-.582a7.27,7.27,0,0,0,.81.383,2.333,2.333,0,0,0,.877.159,2.3,2.3,0,0,0,.55-.066,1.654,1.654,0,0,0,.485-.2,1.158,1.158,0,0,0,.345-.323.763.763,0,0,0,.133-.444.956.956,0,0,0-.154-.555,1.45,1.45,0,0,0-.41-.4,4.04,4.04,0,0,0-.585-.317c-.217-.1-.441-.2-.671-.318a6.677,6.677,0,0,1-.7-.4,2.331,2.331,0,0,1-.444-.37,1.146,1.146,0,0,1-.239-.41,1.683,1.683,0,0,1-.073-.516,1.215,1.215,0,0,1,.608-1.111,3.076,3.076,0,0,1,1.613-.371,3.133,3.133,0,0,1,.873.112,4.916,4.916,0,0,1,.806.325l-.305.555a3.365,3.365,0,0,0-.71-.33,2.41,2.41,0,0,0-.777-.133,2.651,2.651,0,0,0-.538.053,1.428,1.428,0,0,0-.458.172,1,1,0,0,0-.32.3.741.741,0,0,0-.119.417.785.785,0,0,0,.152.489,1.545,1.545,0,0,0,.406.357,4.517,4.517,0,0,0,.557.3c.2.093.412.192.624.3q.438.226.73.4a2.224,2.224,0,0,1,.472.37,1.2,1.2,0,0,1,.259.429,1.8,1.8,0,0,1,.08.569A1.443,1.443,0,0,1,362.159,430.577Z" transform="translate(-252.046 -372.044)" fill="none" stroke="#2b2765" stroke-width="0.25"/>
  <rect id="Rechteck_146" data-name="Rechteck 146" width="0.634" height="9.638" transform="translate(112.335 49.654)" fill="#161615"/>
  <rect id="Rechteck_147" data-name="Rechteck 147" width="0.634" height="9.638" transform="translate(112.335 49.654)" fill="none" stroke="#2b2765" stroke-width="0.25"/>
  <path id="Pfad_744" data-name="Pfad 744" d="M370.954,422.824a.447.447,0,0,1-.647,0,.545.545,0,0,1,0-.728.446.446,0,0,1,.647,0,.545.545,0,0,1,0,.728m-.641,1.738h.634v5.989h-.634Z" transform="translate(-254.951 -371.259)" fill="#161615"/>
  <path id="Pfad_745" data-name="Pfad 745" d="M370.954,422.824a.447.447,0,0,1-.647,0,.545.545,0,0,1,0-.728.446.446,0,0,1,.647,0,.545.545,0,0,1,0,.728Zm-.641,1.738h.634v5.989h-.634Z" transform="translate(-254.951 -371.259)" fill="none" stroke="#2b2765" stroke-width="0.25"/>
  <path id="Pfad_746" data-name="Pfad 746" d="M377.81,425.942a3.762,3.762,0,0,1,.226.4,2.766,2.766,0,0,1,.136.337,1.386,1.386,0,0,1,.065.316c.009.107.014.216.014.332a2.15,2.15,0,0,1-.166.832,2.24,2.24,0,0,1-.45.694,2.082,2.082,0,0,1-.668.469,1.941,1.941,0,0,1-.806.172h-.291a1.539,1.539,0,0,1-.317-.04,8.378,8.378,0,0,0-.708.688.863.863,0,0,0-.271.5.236.236,0,0,0,.166.245,1.938,1.938,0,0,0,.575.06h2.234a1.6,1.6,0,0,1,1.1.3,1.276,1.276,0,0,1,.33.979,2.046,2.046,0,0,1-.244.992,2.435,2.435,0,0,1-.666.774,3.166,3.166,0,0,1-.976.5,3.758,3.758,0,0,1-1.16.179,3.107,3.107,0,0,1-.858-.113,2.475,2.475,0,0,1-.678-.3,1.6,1.6,0,0,1-.449-.423.851.851,0,0,1-.165-.489,1.16,1.16,0,0,1,.119-.482,4.411,4.411,0,0,1,.283-.516,5.45,5.45,0,0,1,.35-.483c.123-.15.229-.273.316-.37a1.227,1.227,0,0,1-.72-.217.629.629,0,0,1-.232-.51.7.7,0,0,1,.046-.245,1.2,1.2,0,0,1,.179-.3,4.634,4.634,0,0,1,.363-.4q.232-.231.614-.548a1.832,1.832,0,0,1-.886-.767,2.175,2.175,0,0,1-.316-1.137,2.343,2.343,0,0,1,.164-.893,2.033,2.033,0,0,1,1.171-1.143,2.463,2.463,0,0,1,.9-.159c.105,0,.2,0,.285.013s.169.022.258.04a2.648,2.648,0,0,1,.3.079c.111.036.24.08.391.132h.965l.886-.079v.569Zm.342,5.8c-.092-.138-.293-.206-.6-.206h-2.209q-.119.173-.277.384c-.106.142-.2.282-.291.423a3.143,3.143,0,0,0-.225.423.963.963,0,0,0-.093.383.735.735,0,0,0,.126.423,1.1,1.1,0,0,0,.344.318,1.733,1.733,0,0,0,.5.2,2.554,2.554,0,0,0,.588.066,2.751,2.751,0,0,0,.887-.139,2.363,2.363,0,0,0,.72-.384,1.862,1.862,0,0,0,.49-.568,1.445,1.445,0,0,0,.178-.708,1.1,1.1,0,0,0-.138-.614m-.992-5.574a1.38,1.38,0,0,0-1.09-.476,1.359,1.359,0,0,0-.6.132,1.477,1.477,0,0,0-.468.357,1.571,1.571,0,0,0-.306.522,1.917,1.917,0,0,0-.1.641,1.8,1.8,0,0,0,.111.641,1.683,1.683,0,0,0,.311.522,1.5,1.5,0,0,0,.469.358,1.471,1.471,0,0,0,1.686-.338,1.889,1.889,0,0,0-.007-2.36" transform="translate(-255.828 -372.044)" fill="#161615"/>
  <path id="Pfad_747" data-name="Pfad 747" d="M377.81,425.942a3.762,3.762,0,0,1,.226.4,2.766,2.766,0,0,1,.136.337,1.386,1.386,0,0,1,.065.316c.009.107.014.216.014.332a2.15,2.15,0,0,1-.166.832,2.24,2.24,0,0,1-.45.694,2.082,2.082,0,0,1-.668.469,1.941,1.941,0,0,1-.806.172h-.291a1.539,1.539,0,0,1-.317-.04,8.378,8.378,0,0,0-.708.688.863.863,0,0,0-.271.5.236.236,0,0,0,.166.245,1.938,1.938,0,0,0,.575.06h2.234a1.6,1.6,0,0,1,1.1.3,1.276,1.276,0,0,1,.33.979,2.046,2.046,0,0,1-.244.992,2.435,2.435,0,0,1-.666.774,3.166,3.166,0,0,1-.976.5,3.758,3.758,0,0,1-1.16.179,3.107,3.107,0,0,1-.858-.113,2.475,2.475,0,0,1-.678-.3,1.6,1.6,0,0,1-.449-.423.851.851,0,0,1-.165-.489,1.16,1.16,0,0,1,.119-.482,4.411,4.411,0,0,1,.283-.516,5.45,5.45,0,0,1,.35-.483c.123-.15.229-.273.316-.37a1.227,1.227,0,0,1-.72-.217.629.629,0,0,1-.232-.51.7.7,0,0,1,.046-.245,1.2,1.2,0,0,1,.179-.3,4.634,4.634,0,0,1,.363-.4q.232-.231.614-.548a1.832,1.832,0,0,1-.886-.767,2.175,2.175,0,0,1-.316-1.137,2.343,2.343,0,0,1,.164-.893,2.033,2.033,0,0,1,1.171-1.143,2.463,2.463,0,0,1,.9-.159c.105,0,.2,0,.285.013s.169.022.258.04a2.648,2.648,0,0,1,.3.079c.111.036.24.08.391.132h.965l.886-.079v.569Zm.342,5.8c-.092-.138-.293-.206-.6-.206h-2.209q-.119.173-.277.384c-.106.142-.2.282-.291.423a3.143,3.143,0,0,0-.225.423.963.963,0,0,0-.093.383.735.735,0,0,0,.126.423,1.1,1.1,0,0,0,.344.318,1.733,1.733,0,0,0,.5.2,2.554,2.554,0,0,0,.588.066,2.751,2.751,0,0,0,.887-.139,2.363,2.363,0,0,0,.72-.384,1.862,1.862,0,0,0,.49-.568,1.445,1.445,0,0,0,.178-.708A1.1,1.1,0,0,0,378.151,431.741Zm-.992-5.574a1.38,1.38,0,0,0-1.09-.476,1.359,1.359,0,0,0-.6.132,1.477,1.477,0,0,0-.468.357,1.571,1.571,0,0,0-.306.522,1.917,1.917,0,0,0-.1.641,1.8,1.8,0,0,0,.111.641,1.683,1.683,0,0,0,.311.522,1.5,1.5,0,0,0,.469.358,1.471,1.471,0,0,0,1.686-.338,1.889,1.889,0,0,0-.007-2.36Z" transform="translate(-255.828 -372.044)" fill="none" stroke="#2b2765" stroke-width="0.25"/>
  <path id="Pfad_748" data-name="Pfad 748" d="M386.934,431.5a3.375,3.375,0,0,1-.45-.074.766.766,0,0,1-.3-.145.6.6,0,0,1-.179-.285,2.3,2.3,0,0,1-.086-.489,4.431,4.431,0,0,1-.886.713,2.165,2.165,0,0,1-1.137.279,1.388,1.388,0,0,1-1.025-.391,1.474,1.474,0,0,1-.39-1.09,1.618,1.618,0,0,1,.338-1.052,1.669,1.669,0,0,1,.931-.562l2.143-.529v-1.23a.8.8,0,0,0-.317-.694,1.452,1.452,0,0,0-.872-.231,2.6,2.6,0,0,0-.489.045,1.566,1.566,0,0,0-.416.139.888.888,0,0,0-.284.225.472.472,0,0,0-.106.3.171.171,0,0,0,.007.052.26.26,0,0,1,.006.053l-.661.067a.489.489,0,0,1-.027-.185.993.993,0,0,1,.542-.933,3.092,3.092,0,0,1,1.481-.3,2.194,2.194,0,0,1,1.309.331,1.242,1.242,0,0,1,.45,1.071v3.888a.594.594,0,0,0,.126.383.657.657,0,0,0,.456.2Zm-1.057-3.108-2.407.648a1.583,1.583,0,0,0-.251.476,1.874,1.874,0,0,0-.066.53.987.987,0,0,0,.225.653.857.857,0,0,0,.7.272,1.591,1.591,0,0,0,.812-.258,6.564,6.564,0,0,0,.986-.76Z" transform="translate(-257.94 -372.044)" fill="#161615"/>
  <path id="Pfad_749" data-name="Pfad 749" d="M386.934,431.5a3.375,3.375,0,0,1-.45-.074.766.766,0,0,1-.3-.145.6.6,0,0,1-.179-.285,2.3,2.3,0,0,1-.086-.489,4.431,4.431,0,0,1-.886.713,2.165,2.165,0,0,1-1.137.279,1.388,1.388,0,0,1-1.025-.391,1.474,1.474,0,0,1-.39-1.09,1.618,1.618,0,0,1,.338-1.052,1.669,1.669,0,0,1,.931-.562l2.143-.529v-1.23a.8.8,0,0,0-.317-.694,1.452,1.452,0,0,0-.872-.231,2.6,2.6,0,0,0-.489.045,1.566,1.566,0,0,0-.416.139.888.888,0,0,0-.284.225.472.472,0,0,0-.106.3.171.171,0,0,0,.007.052.26.26,0,0,1,.006.053l-.661.067a.489.489,0,0,1-.027-.185.993.993,0,0,1,.542-.933,3.092,3.092,0,0,1,1.481-.3,2.194,2.194,0,0,1,1.309.331,1.242,1.242,0,0,1,.45,1.071v3.888a.594.594,0,0,0,.126.383.657.657,0,0,0,.456.2Zm-1.057-3.108-2.407.648a1.583,1.583,0,0,0-.251.476,1.874,1.874,0,0,0-.066.53.987.987,0,0,0,.225.653.857.857,0,0,0,.7.272,1.591,1.591,0,0,0,.812-.258,6.564,6.564,0,0,0,.986-.76Z" transform="translate(-257.94 -372.044)" fill="none" stroke="#2b2765" stroke-width="0.25"/>
  <path id="Pfad_750" data-name="Pfad 750" d="M330.365,414.145V413.3a3.058,3.058,0,0,1-.556.529,2.8,2.8,0,0,1-.548.311,2.1,2.1,0,0,1-.542.145,4.343,4.343,0,0,1-.523.033,1.9,1.9,0,0,1-.925-.231,2.254,2.254,0,0,1-.728-.635,3.163,3.163,0,0,1-.482-.965,4.073,4.073,0,0,1-.179-1.236,3.794,3.794,0,0,1,.218-1.321,3.127,3.127,0,0,1,.6-1.025,2.7,2.7,0,0,1,.906-.669,2.733,2.733,0,0,1,1.144-.238,2.638,2.638,0,0,1,.886.152,1.947,1.947,0,0,1,.727.457v-4.1H331v9.639Zm0-4.138a2.154,2.154,0,0,0-.067-.536,1.1,1.1,0,0,0-.239-.456,1.192,1.192,0,0,0-.464-.317,1.981,1.981,0,0,0-.742-.119,2.121,2.121,0,0,0-.923.2,2.182,2.182,0,0,0-.723.548,2.552,2.552,0,0,0-.478.84,3.21,3.21,0,0,0-.173,1.071,3.472,3.472,0,0,0,.126.931,2.615,2.615,0,0,0,.365.8,2.023,2.023,0,0,0,.57.556,1.359,1.359,0,0,0,.743.21,1.773,1.773,0,0,0,.631-.112,2.49,2.49,0,0,0,.551-.291,2.794,2.794,0,0,0,.457-.4,4.548,4.548,0,0,0,.366-.45Z" transform="translate(-244.197 -367.021)" fill="#161615"/>
  <path id="Pfad_751" data-name="Pfad 751" d="M330.365,414.145V413.3a3.058,3.058,0,0,1-.556.529,2.8,2.8,0,0,1-.548.311,2.1,2.1,0,0,1-.542.145,4.343,4.343,0,0,1-.523.033,1.9,1.9,0,0,1-.925-.231,2.254,2.254,0,0,1-.728-.635,3.163,3.163,0,0,1-.482-.965,4.073,4.073,0,0,1-.179-1.236,3.794,3.794,0,0,1,.218-1.321,3.127,3.127,0,0,1,.6-1.025,2.7,2.7,0,0,1,.906-.669,2.733,2.733,0,0,1,1.144-.238,2.638,2.638,0,0,1,.886.152,1.947,1.947,0,0,1,.727.457v-4.1H331v9.639Zm0-4.138a2.154,2.154,0,0,0-.067-.536,1.1,1.1,0,0,0-.239-.456,1.192,1.192,0,0,0-.464-.317,1.981,1.981,0,0,0-.742-.119,2.121,2.121,0,0,0-.923.2,2.182,2.182,0,0,0-.723.548,2.552,2.552,0,0,0-.478.84,3.21,3.21,0,0,0-.173,1.071,3.472,3.472,0,0,0,.126.931,2.615,2.615,0,0,0,.365.8,2.023,2.023,0,0,0,.57.556,1.359,1.359,0,0,0,.743.21,1.773,1.773,0,0,0,.631-.112,2.49,2.49,0,0,0,.551-.291,2.794,2.794,0,0,0,.457-.4,4.548,4.548,0,0,0,.366-.45Z" transform="translate(-244.197 -367.021)" fill="none" stroke="#2b2765" stroke-width="0.25"/>
  <path id="Pfad_752" data-name="Pfad 752" d="M335.708,412a4.417,4.417,0,0,0,.093,1.163,2.5,2.5,0,0,0,.383.906,1.765,1.765,0,0,0,.681.582,2.191,2.191,0,0,0,.985.205,2.827,2.827,0,0,0,1.614-.569l.238.5a4.044,4.044,0,0,1-1.071.516,3.728,3.728,0,0,1-.991.132,2.326,2.326,0,0,1-1.918-.853,4.474,4.474,0,0,1-.5-3.682,2.766,2.766,0,0,1,.542-.952,2.411,2.411,0,0,1,.839-.616,2.635,2.635,0,0,1,1.085-.219,2.087,2.087,0,0,1,.853.173,1.944,1.944,0,0,1,.674.489,2.262,2.262,0,0,1,.443.767,3.044,3.044,0,0,1,.159,1.018V412Zm3.005-1.85a1.389,1.389,0,0,0-1.087-.49,1.664,1.664,0,0,0-1.186.436,2.709,2.709,0,0,0-.693,1.376h3.4a1.923,1.923,0,0,0-.433-1.322" transform="translate(-246.419 -368.141)" fill="#161615"/>
  <path id="Pfad_753" data-name="Pfad 753" d="M335.708,412a4.417,4.417,0,0,0,.093,1.163,2.5,2.5,0,0,0,.383.906,1.765,1.765,0,0,0,.681.582,2.191,2.191,0,0,0,.985.205,2.827,2.827,0,0,0,1.614-.569l.238.5a4.044,4.044,0,0,1-1.071.516,3.728,3.728,0,0,1-.991.132,2.326,2.326,0,0,1-1.918-.853,4.474,4.474,0,0,1-.5-3.682,2.766,2.766,0,0,1,.542-.952,2.411,2.411,0,0,1,.839-.616,2.635,2.635,0,0,1,1.085-.219,2.087,2.087,0,0,1,.853.173,1.944,1.944,0,0,1,.674.489,2.262,2.262,0,0,1,.443.767,3.044,3.044,0,0,1,.159,1.018V412Zm3.005-1.85a1.389,1.389,0,0,0-1.087-.49,1.664,1.664,0,0,0-1.186.436,2.709,2.709,0,0,0-.693,1.376h3.4A1.923,1.923,0,0,0,338.713,410.148Z" transform="translate(-246.419 -368.141)" fill="none" stroke="#2b2765" stroke-width="0.25"/>
  <path id="Pfad_754" data-name="Pfad 754" d="M347.666,415.315V413.94c-.15.2-.309.4-.476.582a3.336,3.336,0,0,1-.548.488,2.54,2.54,0,0,1-.655.337,2.351,2.351,0,0,1-.794.126,1.468,1.468,0,0,1-1.117-.436,1.787,1.787,0,0,1-.416-1.282v-4.429h.635V413.5a2.578,2.578,0,0,0,.047.482,1.488,1.488,0,0,0,.158.45.894.894,0,0,0,.311.331.916.916,0,0,0,.5.126,1.714,1.714,0,0,0,.528-.086,2.151,2.151,0,0,0,.549-.285,4.047,4.047,0,0,0,.6-.523q.31-.324.681-.787v-3.887h.635v5.989Z" transform="translate(-248.514 -368.192)" fill="#161615"/>
  <path id="Pfad_755" data-name="Pfad 755" d="M347.666,415.315V413.94c-.15.2-.309.4-.476.582a3.336,3.336,0,0,1-.548.488,2.54,2.54,0,0,1-.655.337,2.351,2.351,0,0,1-.794.126,1.468,1.468,0,0,1-1.117-.436,1.787,1.787,0,0,1-.416-1.282v-4.429h.635V413.5a2.578,2.578,0,0,0,.047.482,1.488,1.488,0,0,0,.158.45.894.894,0,0,0,.311.331.916.916,0,0,0,.5.126,1.714,1.714,0,0,0,.528-.086,2.151,2.151,0,0,0,.549-.285,4.047,4.047,0,0,0,.6-.523q.31-.324.681-.787v-3.887h.635v5.989Z" transform="translate(-248.514 -368.192)" fill="none" stroke="#2b2765" stroke-width="0.25"/>
  <path id="Pfad_756" data-name="Pfad 756" d="M354.4,414.8a1.543,1.543,0,0,1-.594.126.984.984,0,0,1-1.111-1.216v-4.443h-1v-.277l1-.265v-1.705h.634v1.745h1.415v.5h-1.415v4.508a.569.569,0,0,0,.171.476.629.629,0,0,0,.4.133.711.711,0,0,0,.383-.107,4.508,4.508,0,0,0,.41-.29l.291.422a1.859,1.859,0,0,1-.582.39" transform="translate(-250.465 -367.632)" fill="#161615"/>
  <path id="Pfad_757" data-name="Pfad 757" d="M354.4,414.8a1.543,1.543,0,0,1-.594.126.984.984,0,0,1-1.111-1.216v-4.443h-1v-.277l1-.265v-1.705h.634v1.745h1.415v.5h-1.415v4.508a.569.569,0,0,0,.171.476.629.629,0,0,0,.4.133.711.711,0,0,0,.383-.107,4.508,4.508,0,0,0,.41-.29l.291.422A1.859,1.859,0,0,1,354.4,414.8Z" transform="translate(-250.465 -367.632)" fill="none" stroke="#2b2765" stroke-width="0.25"/>
  <path id="Pfad_758" data-name="Pfad 758" d="M361.391,414.5a1.518,1.518,0,0,1-.463.516,2.127,2.127,0,0,1-.694.311,3.4,3.4,0,0,1-.853.105,4.142,4.142,0,0,1-1-.112,3.973,3.973,0,0,1-.939-.377l.251-.581a7.268,7.268,0,0,0,.811.383,2.431,2.431,0,0,0,1.427.093,1.663,1.663,0,0,0,.484-.2,1.155,1.155,0,0,0,.345-.324.762.762,0,0,0,.133-.444.955.955,0,0,0-.153-.555,1.47,1.47,0,0,0-.411-.4,3.993,3.993,0,0,0-.585-.317c-.217-.1-.441-.2-.67-.318a6.679,6.679,0,0,1-.7-.4,2.319,2.319,0,0,1-.444-.37,1.132,1.132,0,0,1-.239-.409,1.659,1.659,0,0,1-.073-.516,1.214,1.214,0,0,1,.609-1.11,3.067,3.067,0,0,1,1.613-.372,3.131,3.131,0,0,1,.872.113,4.889,4.889,0,0,1,.806.324l-.305.556a3.4,3.4,0,0,0-.709-.331,2.435,2.435,0,0,0-.778-.132,2.658,2.658,0,0,0-.538.053,1.45,1.45,0,0,0-.457.171,1,1,0,0,0-.319.3.735.735,0,0,0-.119.417.782.782,0,0,0,.152.489,1.552,1.552,0,0,0,.405.357,4.736,4.736,0,0,0,.557.3c.2.093.412.192.624.3q.438.225.73.4a2.253,2.253,0,0,1,.472.371,1.169,1.169,0,0,1,.259.429,1.779,1.779,0,0,1,.08.569,1.439,1.439,0,0,1-.173.707" transform="translate(-251.86 -368.141)" fill="#161615"/>
  <path id="Pfad_759" data-name="Pfad 759" d="M361.391,414.5a1.518,1.518,0,0,1-.463.516,2.127,2.127,0,0,1-.694.311,3.4,3.4,0,0,1-.853.105,4.142,4.142,0,0,1-1-.112,3.973,3.973,0,0,1-.939-.377l.251-.581a7.268,7.268,0,0,0,.811.383,2.431,2.431,0,0,0,1.427.093,1.663,1.663,0,0,0,.484-.2,1.155,1.155,0,0,0,.345-.324.762.762,0,0,0,.133-.444.955.955,0,0,0-.153-.555,1.47,1.47,0,0,0-.411-.4,3.993,3.993,0,0,0-.585-.317c-.217-.1-.441-.2-.67-.318a6.679,6.679,0,0,1-.7-.4,2.319,2.319,0,0,1-.444-.37,1.132,1.132,0,0,1-.239-.409,1.659,1.659,0,0,1-.073-.516,1.214,1.214,0,0,1,.609-1.11,3.067,3.067,0,0,1,1.613-.372,3.131,3.131,0,0,1,.872.113,4.889,4.889,0,0,1,.806.324l-.305.556a3.4,3.4,0,0,0-.709-.331,2.435,2.435,0,0,0-.778-.132,2.658,2.658,0,0,0-.538.053,1.45,1.45,0,0,0-.457.171,1,1,0,0,0-.319.3.735.735,0,0,0-.119.417.782.782,0,0,0,.152.489,1.552,1.552,0,0,0,.405.357,4.736,4.736,0,0,0,.557.3c.2.093.412.192.624.3q.438.225.73.4a2.253,2.253,0,0,1,.472.371,1.169,1.169,0,0,1,.259.429,1.779,1.779,0,0,1,.08.569A1.439,1.439,0,0,1,361.391,414.5Z" transform="translate(-251.86 -368.141)" fill="none" stroke="#2b2765" stroke-width="0.25"/>
  <path id="Pfad_760" data-name="Pfad 760" d="M369.249,410.161a2.327,2.327,0,0,0-.655-.331,2.436,2.436,0,0,0-.787-.132,2.067,2.067,0,0,0-.912.2,2.105,2.105,0,0,0-.7.541,2.444,2.444,0,0,0-.449.82,3.236,3.236,0,0,0-.159,1.031,3.277,3.277,0,0,0,.159,1.045,2.3,2.3,0,0,0,.456.813,2.023,2.023,0,0,0,.727.522,2.41,2.41,0,0,0,.959.185,2.079,2.079,0,0,0,.74-.12,2.734,2.734,0,0,0,.648-.357l.317.516a3.4,3.4,0,0,1-.866.4,3.207,3.207,0,0,1-.946.139,3.089,3.089,0,0,1-1.17-.217,2.515,2.515,0,0,1-.911-.628,2.923,2.923,0,0,1-.581-.979,3.672,3.672,0,0,1-.208-1.269,3.868,3.868,0,0,1,.214-1.309,3.056,3.056,0,0,1,.6-1.025,2.6,2.6,0,0,1,.931-.661,2.992,2.992,0,0,1,1.19-.232,3.845,3.845,0,0,1,.919.12,2.337,2.337,0,0,1,.839.383Z" transform="translate(-253.674 -368.141)" fill="#161615"/>
  <path id="Pfad_761" data-name="Pfad 761" d="M369.249,410.161a2.327,2.327,0,0,0-.655-.331,2.436,2.436,0,0,0-.787-.132,2.067,2.067,0,0,0-.912.2,2.105,2.105,0,0,0-.7.541,2.444,2.444,0,0,0-.449.82,3.236,3.236,0,0,0-.159,1.031,3.277,3.277,0,0,0,.159,1.045,2.3,2.3,0,0,0,.456.813,2.023,2.023,0,0,0,.727.522,2.41,2.41,0,0,0,.959.185,2.079,2.079,0,0,0,.74-.12,2.734,2.734,0,0,0,.648-.357l.317.516a3.4,3.4,0,0,1-.866.4,3.207,3.207,0,0,1-.946.139,3.089,3.089,0,0,1-1.17-.217,2.515,2.515,0,0,1-.911-.628,2.923,2.923,0,0,1-.581-.979,3.672,3.672,0,0,1-.208-1.269,3.868,3.868,0,0,1,.214-1.309,3.056,3.056,0,0,1,.6-1.025,2.6,2.6,0,0,1,.931-.661,2.992,2.992,0,0,1,1.19-.232,3.845,3.845,0,0,1,.919.12,2.337,2.337,0,0,1,.839.383Z" transform="translate(-253.674 -368.141)" fill="none" stroke="#2b2765" stroke-width="0.25"/>
  <path id="Pfad_762" data-name="Pfad 762" d="M377.021,414.145v-4.311a4.011,4.011,0,0,0-.027-.463,1.273,1.273,0,0,0-.112-.4.661.661,0,0,0-.265-.285.962.962,0,0,0-.482-.1,1.856,1.856,0,0,0-1.111.429,9.385,9.385,0,0,0-1.376,1.383v3.755h-.634v-9.639h.634v5.184q.252-.3.53-.609a4.467,4.467,0,0,1,.588-.542,3.064,3.064,0,0,1,.675-.391,2.114,2.114,0,0,1,.813-.152,1.381,1.381,0,0,1,1.052.372,1.737,1.737,0,0,1,.35,1.215v4.562Z" transform="translate(-255.642 -367.021)" fill="#161615"/>
  <path id="Pfad_763" data-name="Pfad 763" d="M377.021,414.145v-4.311a4.011,4.011,0,0,0-.027-.463,1.273,1.273,0,0,0-.112-.4.661.661,0,0,0-.265-.285.962.962,0,0,0-.482-.1,1.856,1.856,0,0,0-1.111.429,9.385,9.385,0,0,0-1.376,1.383v3.755h-.634v-9.639h.634v5.184q.252-.3.53-.609a4.467,4.467,0,0,1,.588-.542,3.064,3.064,0,0,1,.675-.391,2.114,2.114,0,0,1,.813-.152,1.381,1.381,0,0,1,1.052.372,1.737,1.737,0,0,1,.35,1.215v4.562Z" transform="translate(-255.642 -367.021)" fill="none" stroke="#2b2765" stroke-width="0.25"/>
  <path id="Pfad_764" data-name="Pfad 764" d="M382.193,412a4.48,4.48,0,0,0,.093,1.163,2.52,2.52,0,0,0,.383.906,1.765,1.765,0,0,0,.681.582,2.193,2.193,0,0,0,.985.205,2.827,2.827,0,0,0,1.614-.569l.239.5a4.067,4.067,0,0,1-1.071.516,3.734,3.734,0,0,1-.992.132,2.324,2.324,0,0,1-1.917-.853,4.479,4.479,0,0,1-.5-3.682,2.764,2.764,0,0,1,.542-.952,2.413,2.413,0,0,1,.84-.616,2.632,2.632,0,0,1,1.084-.219,2.087,2.087,0,0,1,.853.173,1.954,1.954,0,0,1,.675.489,2.274,2.274,0,0,1,.443.767,3.062,3.062,0,0,1,.159,1.018V412Zm3.005-1.85a1.388,1.388,0,0,0-1.087-.49,1.665,1.665,0,0,0-1.186.436,2.715,2.715,0,0,0-.693,1.376h3.4a1.919,1.919,0,0,0-.433-1.322" transform="translate(-257.707 -368.141)" fill="#161615"/>
  <path id="Pfad_765" data-name="Pfad 765" d="M382.193,412a4.48,4.48,0,0,0,.093,1.163,2.52,2.52,0,0,0,.383.906,1.765,1.765,0,0,0,.681.582,2.193,2.193,0,0,0,.985.205,2.827,2.827,0,0,0,1.614-.569l.239.5a4.067,4.067,0,0,1-1.071.516,3.734,3.734,0,0,1-.992.132,2.324,2.324,0,0,1-1.917-.853,4.479,4.479,0,0,1-.5-3.682,2.764,2.764,0,0,1,.542-.952,2.413,2.413,0,0,1,.84-.616,2.632,2.632,0,0,1,1.084-.219,2.087,2.087,0,0,1,.853.173,1.954,1.954,0,0,1,.675.489,2.274,2.274,0,0,1,.443.767,3.062,3.062,0,0,1,.159,1.018V412Zm3.005-1.85a1.388,1.388,0,0,0-1.087-.49,1.665,1.665,0,0,0-1.186.436,2.715,2.715,0,0,0-.693,1.376h3.4A1.919,1.919,0,0,0,385.2,410.148Z" transform="translate(-257.707 -368.141)" fill="none" stroke="#2b2765" stroke-width="0.25"/>
  <path id="Pfad_766" data-name="Pfad 766" d="M280.851,389.555a4.39,4.39,0,1,1-4.389,4.391,4.389,4.389,0,0,1,4.389-4.391" transform="translate(-232.196 -363.391)" fill="#2b2765"/>
  <path id="Pfad_767" data-name="Pfad 767" d="M280.569,373.735A5.268,5.268,0,1,1,275.3,379a5.267,5.267,0,0,1,5.267-5.268" transform="translate(-231.915 -359.549)" fill="#af1d77"/>
  <path id="Pfad_768" data-name="Pfad 768" d="M280.232,355a6.32,6.32,0,1,1-6.321,6.321A6.322,6.322,0,0,1,280.232,355" transform="translate(-231.577 -355)" fill="#ff7600"/>
  <path id="Pfad_769" data-name="Pfad 769" d="M300.879,397.981a4.39,4.39,0,1,1-6.208,0,4.39,4.39,0,0,1,6.208,0" transform="translate(-236.306 -365.125)" fill="#2b2765"/>
  <path id="Pfad_770" data-name="Pfad 770" d="M311.585,386.711a5.268,5.268,0,1,1-7.451,0,5.27,5.27,0,0,1,7.451,0" transform="translate(-238.541 -362.326)" fill="#af1d77"/>
  <path id="Pfad_771" data-name="Pfad 771" d="M324.256,373.364a6.321,6.321,0,1,1-8.941,0,6.322,6.322,0,0,1,8.941,0" transform="translate(-241.182 -359.01)" fill="#ff7600"/>
  <path id="Pfad_772" data-name="Pfad 772" d="M260.98,397.827a4.39,4.39,0,1,1,0,6.208,4.39,4.39,0,0,1,0-6.208" transform="translate(-228.125 -365.087)" fill="#2b2765"/>
  <path id="Pfad_773" data-name="Pfad 773" d="M249.711,386.556a5.268,5.268,0,1,1,0,7.452,5.268,5.268,0,0,1,0-7.452" transform="translate(-225.326 -362.288)" fill="#af1d77"/>
  <path id="Pfad_774" data-name="Pfad 774" d="M236.364,373.211a6.321,6.321,0,1,1,0,8.939,6.319,6.319,0,0,1,0-8.939" transform="translate(-222.01 -358.972)" fill="#ff7600"/>
  <path id="Pfad_775" data-name="Pfad 775" d="M252.555,417.7a4.39,4.39,0,1,1,4.39,4.389,4.39,4.39,0,0,1-4.39-4.389" transform="translate(-226.391 -369.159)" fill="#2b2765"/>
  <path id="Pfad_776" data-name="Pfad 776" d="M236.736,417.415a5.268,5.268,0,1,1,5.269,5.271,5.269,5.269,0,0,1-5.269-5.271" transform="translate(-222.55 -368.877)" fill="#af1d77"/>
  <path id="Pfad_777" data-name="Pfad 777" d="M218,417.078a6.321,6.321,0,1,1,6.322,6.322A6.323,6.323,0,0,1,218,417.078" transform="translate(-218 -368.539)" fill="#ff7600"/>
</svg>
