<?xml version="1.0" encoding="UTF-8"?>
<svg xmlns="http://www.w3.org/2000/svg" xmlns:xlink="http://www.w3.org/1999/xlink" version="1.1" id="Ebene_1" x="0px" y="0px" viewBox="0 0 600 400" style="enable-background:new 0 0 600 400;" xml:space="preserve">
<style type="text/css">
	.st0{fill:#A81916;}
</style>
<g>
	<g>
		<path class="st0" d="M309.3,175.5c0,28.9-8,51-24.1,66.3c-16.1,15.3-39.2,22.9-69.4,22.9h-49V89.6H221c27.9,0,49.6,7.5,65,22.5    C301.6,127.2,309.3,148.3,309.3,175.5z M279.1,176.5c0-41.9-19.6-62.9-58.8-62.9h-24.8v127.1h20.4    C258.1,240.7,279.1,219.3,279.1,176.5z"></path>
		<path class="st0" d="M332.2,264.8V89.6h28.6v150.6H435v24.6H332.2z"></path>
		<path class="st0" d="M598.4,264.8h-28.7v-78.9h-80.7v78.9h-28.6V89.6h28.6v71.6h80.7V89.6h28.7V264.8z"></path>
	</g>
	<g>
		<path class="st0" d="M95.8,158c3.3,11.2,10,21.7,16.6,31.9c8.6,13.3,16.7,25.9,16.5,38.5c-0.3,18.6-14.9,33.2-33.1,33.4    c-18.3-0.1-32.8-14.8-33.1-33.4c-0.2-12.6,7.9-25.2,16.5-38.5C85.7,179.7,92.5,169.2,95.8,158 M95.8,147.9c-0.5,0.1-1,0.7-1.2,1.8    c-3.5,28.2-35.2,52.8-34.8,78.8c0.3,20,16,36.1,36,36.2c19.9-0.1,35.6-16.2,36-36.2c0.4-26-31.3-50.6-34.8-78.8    C96.8,148.6,96.3,148,95.8,147.9L95.8,147.9z"></path>
	</g>
	<path class="st0" d="M39.5,204.9c-0.1,1.1-0.6,1.7-1.2,1.8c-0.5-0.1-1-0.7-1.2-1.8c-3.5-28.2-35.2-52.8-34.8-78.8   c0.3-20,16-36.1,36-36.2c19.9,0.1,35.6,16.2,36,36.2C74.7,152.1,43,176.7,39.5,204.9z"></path>
	<g>
		<path d="M20.7,324.5c0,3.7-1,6.5-3.1,8.4c-2.1,1.9-5.1,2.9-9,2.9H2.3v-22.2h7c3.6,0,6.4,1,8.5,2.9    C19.7,318.4,20.7,321.1,20.7,324.5z M15.8,324.7c0-4.8-2.1-7.2-6.3-7.2H7V332h2C13.5,332,15.8,329.5,15.8,324.7z"></path>
		<path d="M32.7,336.2c-2.7,0-4.9-0.8-6.4-2.3c-1.5-1.5-2.3-3.6-2.3-6.4c0-2.8,0.7-5.1,2.1-6.6c1.4-1.6,3.4-2.3,5.9-2.3    c2.4,0,4.3,0.7,5.6,2.1c1.3,1.4,2,3.3,2,5.7v2.2h-11c0.1,1.3,0.4,2.3,1.2,3.1c0.7,0.7,1.8,1.1,3.1,1.1c1,0,2-0.1,2.9-0.3    c0.9-0.2,1.9-0.6,2.9-1v3.6c-0.8,0.4-1.7,0.7-2.6,0.9C35.1,336.1,34,336.2,32.7,336.2z M32,321.9c-1,0-1.8,0.3-2.3,0.9    c-0.6,0.6-0.9,1.5-1,2.7h6.5c0-1.1-0.3-2-0.9-2.7C33.8,322.2,33,321.9,32,321.9z"></path>
		<path d="M55.4,335.9l-0.6-2.2h-0.2c-0.5,0.8-1.2,1.4-2.1,1.8c-0.9,0.4-2,0.6-3.1,0.6c-2,0-3.5-0.5-4.5-1.6s-1.5-2.6-1.5-4.6v-11.1    h4.6v9.9c0,1.2,0.2,2.1,0.7,2.8c0.4,0.6,1.1,0.9,2.1,0.9c1.3,0,2.2-0.4,2.8-1.3c0.6-0.9,0.9-2.3,0.9-4.3v-8H59v17H55.4z"></path>
		<path d="M71,332.5c0.8,0,1.8-0.2,2.9-0.5v3.5c-1.2,0.5-2.6,0.8-4.3,0.8c-1.9,0-3.2-0.5-4.1-1.4c-0.8-0.9-1.3-2.3-1.3-4.2v-8.2    h-2.2v-2l2.6-1.6l1.3-3.6h3v3.6h4.8v3.5H69v8.2c0,0.7,0.2,1.1,0.6,1.5S70.4,332.5,71,332.5z"></path>
		<path d="M89.2,330.8c0,1.7-0.6,3.1-1.8,4s-3,1.4-5.4,1.4c-1.2,0-2.3-0.1-3.2-0.3c-0.9-0.2-1.7-0.4-2.4-0.7v-3.8    c0.9,0.4,1.8,0.7,2.9,1s2,0.4,2.9,0.4c1.7,0,2.5-0.5,2.5-1.5c0-0.4-0.1-0.7-0.3-0.9c-0.2-0.2-0.6-0.5-1.2-0.8    c-0.5-0.3-1.3-0.6-2.2-1c-1.3-0.5-2.3-1.1-2.9-1.5c-0.6-0.5-1.1-1-1.3-1.6c-0.3-0.6-0.4-1.3-0.4-2.2c0-1.5,0.6-2.7,1.8-3.5    s2.8-1.2,5-1.2c2,0,4,0.4,6,1.3l-1.4,3.3c-0.9-0.4-1.6-0.7-2.4-0.9c-0.7-0.2-1.5-0.3-2.3-0.3c-1.4,0-2.1,0.4-2.1,1.1    c0,0.4,0.2,0.8,0.7,1.1c0.4,0.3,1.4,0.8,2.9,1.4c1.3,0.5,2.3,1,2.9,1.5c0.6,0.5,1.1,1,1.4,1.6C89.1,329.3,89.2,330,89.2,330.8z"></path>
		<path d="M99.7,336.2c-5.3,0-7.9-2.9-7.9-8.7c0-2.9,0.7-5.1,2.2-6.6c1.4-1.5,3.5-2.3,6.2-2.3c2,0,3.7,0.4,5.3,1.2l-1.4,3.6    c-0.7-0.3-1.4-0.5-2-0.7c-0.6-0.2-1.3-0.3-1.9-0.3c-2.4,0-3.6,1.7-3.6,5.1c0,3.3,1.2,5,3.6,5c0.9,0,1.7-0.1,2.5-0.4    s1.5-0.6,2.3-1.1v4c-0.8,0.5-1.5,0.8-2.3,1C101.9,336.1,100.9,336.2,99.7,336.2z"></path>
		<path d="M124.5,335.9h-4.6v-9.9c0-2.5-0.9-3.7-2.7-3.7c-1.3,0-2.2,0.4-2.8,1.3c-0.6,0.9-0.9,2.3-0.9,4.3v8h-4.6v-23.7h4.6v4.8    c0,0.4,0,1.3-0.1,2.6l-0.1,1.4h0.2c1-1.7,2.7-2.5,4.9-2.5c2,0,3.5,0.5,4.5,1.6c1,1.1,1.6,2.6,1.6,4.6V335.9z"></path>
		<path d="M137,336.2c-2.7,0-4.9-0.8-6.4-2.3c-1.5-1.5-2.3-3.6-2.3-6.4c0-2.8,0.7-5.1,2.1-6.6c1.4-1.6,3.4-2.3,5.9-2.3    c2.4,0,4.3,0.7,5.6,2.1c1.3,1.4,2,3.3,2,5.7v2.2h-11c0.1,1.3,0.4,2.3,1.2,3.1c0.7,0.7,1.8,1.1,3.1,1.1c1,0,2-0.1,2.9-0.3    c0.9-0.2,1.9-0.6,2.9-1v3.6c-0.8,0.4-1.7,0.7-2.6,0.9C139.4,336.1,138.3,336.2,137,336.2z M136.3,321.9c-1,0-1.8,0.3-2.3,0.9    c-0.6,0.6-0.9,1.5-1,2.7h6.5c0-1.1-0.3-2-0.9-2.7C138.1,322.2,137.3,321.9,136.3,321.9z"></path>
		<path d="M156.2,335.9v-22.2h4.7V332h9v3.9H156.2z"></path>
		<path d="M181.1,336.2c-2.7,0-4.9-0.8-6.4-2.3c-1.5-1.5-2.3-3.6-2.3-6.4c0-2.8,0.7-5.1,2.1-6.6c1.4-1.6,3.4-2.3,5.9-2.3    c2.4,0,4.3,0.7,5.6,2.1c1.3,1.4,2,3.3,2,5.7v2.2h-11c0.1,1.3,0.4,2.3,1.2,3.1c0.7,0.7,1.8,1.1,3.1,1.1c1,0,2-0.1,2.9-0.3    c0.9-0.2,1.9-0.6,2.9-1v3.6c-0.8,0.4-1.7,0.7-2.6,0.9C183.5,336.1,182.4,336.2,181.1,336.2z M180.4,321.9c-1,0-1.8,0.3-2.3,0.9    c-0.6,0.6-0.9,1.5-1,2.7h6.5c0-1.1-0.3-2-0.9-2.7C182.2,322.2,181.4,321.9,180.4,321.9z"></path>
		<path d="M203.8,335.9l-0.6-2.2H203c-0.5,0.8-1.2,1.4-2.1,1.8c-0.9,0.4-2,0.6-3.1,0.6c-2,0-3.5-0.5-4.5-1.6s-1.5-2.6-1.5-4.6v-11.1    h4.6v9.9c0,1.2,0.2,2.1,0.7,2.8c0.4,0.6,1.1,0.9,2.1,0.9c1.3,0,2.2-0.4,2.8-1.3c0.6-0.9,0.9-2.3,0.9-4.3v-8h4.6v17H203.8z"></path>
		<path d="M216.7,326.6l2-2.6l4.8-5.2h5.2l-6.8,7.4l7.2,9.6h-5.4l-4.9-6.9l-2,1.6v5.3h-4.6v-23.7h4.6v10.6L216.7,326.6L216.7,326.6z    "></path>
		<path d="M242.4,335.9l-0.9-2.3h-0.1c-0.8,1-1.6,1.7-2.4,2c-0.8,0.4-1.9,0.6-3.2,0.6c-1.6,0-2.9-0.5-3.9-1.4    c-0.9-0.9-1.4-2.3-1.4-4c0-1.8,0.6-3.1,1.9-4s3.2-1.3,5.7-1.4l2.9-0.1v-0.7c0-1.7-0.9-2.6-2.6-2.6c-1.4,0-3,0.4-4.8,1.2l-1.5-3.1    c2-1,4.1-1.5,6.5-1.5c2.3,0,4,0.5,5.2,1.5s1.8,2.5,1.8,4.5v11.3H242.4z M233.5,314.5c0-0.7,0.2-1.2,0.6-1.5    c0.4-0.4,0.9-0.5,1.5-0.5c0.7,0,1.2,0.2,1.6,0.6c0.4,0.4,0.6,0.9,0.6,1.5c0,0.6-0.2,1.1-0.6,1.5s-0.9,0.6-1.6,0.6    c-0.6,0-1.2-0.2-1.5-0.5C233.6,315.6,233.5,315.2,233.5,314.5z M241,328l-1.8,0.1c-1.3,0-2.4,0.3-3,0.7c-0.7,0.4-1,1.1-1,2    c0,1.3,0.8,2,2.3,2c1.1,0,1.9-0.3,2.6-0.9c0.6-0.6,1-1.4,1-2.5V328z M239.6,314.5c0-0.7,0.2-1.2,0.6-1.6c0.4-0.3,0.9-0.5,1.5-0.5    c0.7,0,1.2,0.2,1.6,0.5s0.6,0.9,0.6,1.5c0,0.6-0.2,1.1-0.6,1.5c-0.4,0.4-0.9,0.5-1.6,0.5c-0.6,0-1.1-0.2-1.5-0.5    C239.8,315.7,239.6,315.2,239.6,314.5z"></path>
		<path d="M265.6,335.9h-4.6v-9.9c0-1.2-0.2-2.1-0.6-2.8c-0.4-0.6-1.1-0.9-1.9-0.9c-1.2,0-2,0.4-2.6,1.3c-0.5,0.9-0.8,2.3-0.8,4.3v8    h-4.6v-17h3.5l0.6,2.2h0.3c0.5-0.8,1.1-1.4,2-1.8c0.9-0.4,1.8-0.7,3-0.7c2.5,0,4.3,0.8,5.2,2.5h0.4c0.5-0.8,1.1-1.4,2-1.8    c0.9-0.4,1.9-0.7,3-0.7c1.9,0,3.4,0.5,4.4,1.5s1.5,2.6,1.5,4.8v11.1h-4.7v-9.9c0-1.2-0.2-2.1-0.6-2.8c-0.4-0.6-1.1-0.9-1.9-0.9    c-1.1,0-2,0.4-2.5,1.2c-0.6,0.8-0.8,2.1-0.8,3.9V335.9z"></path>
		<path d="M280.7,314.5c0-1.5,0.8-2.3,2.5-2.3s2.5,0.8,2.5,2.3c0,0.7-0.2,1.3-0.6,1.7c-0.4,0.4-1.1,0.6-1.9,0.6    C281.6,316.8,280.7,316,280.7,314.5z M285.6,335.9h-4.6v-17h4.6V335.9z"></path>
		<path d="M298.1,336.2c-2.7,0-4.9-0.8-6.4-2.3c-1.5-1.5-2.3-3.6-2.3-6.4c0-2.8,0.7-5.1,2.1-6.6c1.4-1.6,3.4-2.3,5.9-2.3    c2.4,0,4.3,0.7,5.6,2.1c1.3,1.4,2,3.3,2,5.7v2.2h-11c0.1,1.3,0.4,2.3,1.2,3.1c0.7,0.7,1.8,1.1,3.1,1.1c1,0,2-0.1,2.9-0.3    c0.9-0.2,1.9-0.6,2.9-1v3.6c-0.8,0.4-1.7,0.7-2.6,0.9C300.6,336.1,299.5,336.2,298.1,336.2z M297.5,321.9c-1,0-1.8,0.3-2.3,0.9    c-0.6,0.6-0.9,1.5-1,2.7h6.5c0-1.1-0.3-2-0.9-2.7C299.3,322.2,298.5,321.9,297.5,321.9z"></path>
		<path d="M307.3,329.4v-3.8h8.2v3.8H307.3z"></path>
		<path d="M347.9,335.9h-5.7l-1.7-1.7c-1.9,1.3-4.1,2-6.6,2c-2.5,0-4.4-0.6-5.9-1.7c-1.4-1.1-2.2-2.7-2.2-4.6c0-1.4,0.3-2.6,0.9-3.6    s1.7-1.9,3.2-2.7c-0.8-0.9-1.3-1.7-1.7-2.5c-0.3-0.8-0.5-1.7-0.5-2.6c0-1.5,0.6-2.8,1.8-3.7s2.8-1.4,4.7-1.4    c1.9,0,3.4,0.4,4.5,1.3c1.1,0.9,1.7,2,1.7,3.5c0,1.2-0.3,2.3-1,3.3c-0.7,1-1.8,1.9-3.4,2.9l4.3,4.2c0.7-1.2,1.3-2.7,1.9-4.6h4.8    c-0.4,1.4-0.9,2.7-1.5,4c-0.6,1.3-1.4,2.5-2.2,3.5L347.9,335.9z M330.7,329.4c0,0.9,0.3,1.6,1,2.1c0.7,0.5,1.5,0.8,2.5,0.8    c1.3,0,2.4-0.3,3.5-0.9l-5-5c-0.6,0.4-1.1,0.9-1.4,1.4C330.8,328.2,330.7,328.8,330.7,329.4z M336.1,318.6c0-0.5-0.2-1-0.5-1.3    c-0.4-0.3-0.8-0.5-1.4-0.5c-0.7,0-1.2,0.2-1.6,0.5c-0.4,0.3-0.6,0.8-0.6,1.4c0,0.9,0.5,1.9,1.4,2.9c0.9-0.5,1.5-1,2-1.4    C335.9,319.8,336.1,319.3,336.1,318.6z"></path>
		<path d="M362.5,335.9v-22.2h4.7V332h9v3.9H362.5z"></path>
		<path d="M377.3,318.9h5.1l3.2,9.6c0.3,0.8,0.5,1.8,0.6,3h0.1c0.1-1,0.3-2,0.7-3l3.1-9.6h5l-7.2,19.2c-0.7,1.8-1.6,3.1-2.8,4    s-2.6,1.3-4.3,1.3c-0.8,0-1.6-0.1-2.4-0.3v-3.7c0.6,0.1,1.2,0.2,1.8,0.2c0.8,0,1.5-0.3,2.2-0.8c0.6-0.5,1.1-1.3,1.4-2.3l0.3-0.8    L377.3,318.9z"></path>
		<path d="M412.7,335.9H408v-9.9c0-1.2-0.2-2.1-0.6-2.8c-0.4-0.6-1.1-0.9-1.9-0.9c-1.2,0-2,0.4-2.6,1.3c-0.5,0.9-0.8,2.3-0.8,4.3v8    h-4.6v-17h3.5l0.6,2.2h0.3c0.5-0.8,1.1-1.4,2-1.8c0.9-0.4,1.9-0.7,3-0.7c2.5,0,4.3,0.8,5.2,2.5h0.4c0.5-0.8,1.1-1.4,2-1.8    c0.9-0.4,1.9-0.7,3-0.7c1.9,0,3.4,0.5,4.4,1.5s1.5,2.6,1.5,4.8v11.1h-4.7v-9.9c0-1.2-0.2-2.1-0.6-2.8c-0.4-0.6-1.1-0.9-1.9-0.9    c-1.1,0-2,0.4-2.5,1.2c-0.6,0.8-0.8,2.1-0.8,3.9V335.9z"></path>
		<path d="M437.4,336.2c-2,0-3.6-0.7-4.7-2.2h-0.2c0.2,1.4,0.2,2.2,0.2,2.5v6.9H428v-24.5h3.8l0.7,2.2h0.2c1.1-1.7,2.7-2.5,4.8-2.5    c2,0,3.6,0.8,4.7,2.3c1.1,1.6,1.7,3.7,1.7,6.5c0,1.8-0.3,3.4-0.8,4.7c-0.5,1.3-1.3,2.4-2.3,3.1    C439.8,335.8,438.7,336.2,437.4,336.2z M436,322.3c-1.1,0-2,0.4-2.5,1.1c-0.5,0.7-0.8,1.9-0.8,3.5v0.5c0,1.8,0.3,3.1,0.8,3.9    c0.5,0.8,1.4,1.2,2.6,1.2c2.1,0,3.1-1.7,3.1-5.1c0-1.7-0.3-2.9-0.8-3.8S437.1,322.3,436,322.3z"></path>
		<path d="M463.4,335.9h-4.6v-9.9c0-2.5-0.9-3.7-2.7-3.7c-1.3,0-2.2,0.4-2.8,1.3s-0.9,2.3-0.9,4.3v8h-4.6v-23.7h4.6v4.8    c0,0.4,0,1.3-0.1,2.6l-0.1,1.4h0.2c1-1.7,2.7-2.5,4.9-2.5c2,0,3.5,0.5,4.5,1.6c1,1.1,1.6,2.6,1.6,4.6V335.9z"></path>
		<path d="M483.6,327.3c0,2.8-0.7,4.9-2.2,6.5c-1.5,1.6-3.5,2.3-6.1,2.3c-1.6,0-3.1-0.4-4.3-1.1s-2.2-1.7-2.9-3.1    c-0.7-1.3-1-2.9-1-4.7c0-2.8,0.7-4.9,2.2-6.5s3.5-2.3,6.1-2.3c1.6,0,3.1,0.4,4.3,1.1c1.2,0.7,2.2,1.7,2.9,3.1    S483.6,325.6,483.6,327.3z M471.9,327.3c0,1.7,0.3,3,0.8,3.8c0.6,0.9,1.5,1.3,2.7,1.3c1.2,0,2.1-0.4,2.7-1.3    c0.5-0.9,0.8-2.1,0.8-3.8c0-1.7-0.3-2.9-0.8-3.8c-0.5-0.8-1.4-1.3-2.7-1.3c-1.2,0-2.1,0.4-2.7,1.3    C472.2,324.4,471.9,325.7,471.9,327.3z"></path>
		<path d="M502.7,335.9h-4.6v-9.9c0-1.2-0.2-2.1-0.6-2.8c-0.4-0.6-1.1-0.9-1.9-0.9c-1.2,0-2,0.4-2.6,1.3c-0.5,0.9-0.8,2.3-0.8,4.3v8    h-4.6v-17h3.5l0.6,2.2h0.3c0.5-0.8,1.1-1.4,2-1.8c0.9-0.4,1.9-0.7,3-0.7c2.5,0,4.3,0.8,5.2,2.5h0.4c0.5-0.8,1.1-1.4,2-1.8    c0.9-0.4,1.9-0.7,3-0.7c1.9,0,3.4,0.5,4.4,1.5s1.5,2.6,1.5,4.8v11.1h-4.7v-9.9c0-1.2-0.2-2.1-0.6-2.8c-0.4-0.6-1.1-0.9-1.9-0.9    c-1.1,0-2,0.4-2.5,1.2c-0.6,0.8-0.8,2.1-0.8,3.9V335.9z"></path>
		<path d="M516.5,329.4v-3.8h8.2v3.8H516.5z"></path>
		<path d="M546.7,335.9H542v-9.6h-8.8v9.6h-4.7v-22.2h4.7v8.7h8.8v-8.7h4.7V335.9z"></path>
		<path d="M551.7,314.5c0-1.5,0.8-2.3,2.5-2.3c1.7,0,2.5,0.8,2.5,2.3c0,0.7-0.2,1.3-0.6,1.7s-1.1,0.6-1.9,0.6    C552.5,316.8,551.7,316,551.7,314.5z M556.5,335.9h-4.6v-17h4.6V335.9z"></path>
		<path d="M566,335.9h-4.6v-23.7h4.6V335.9z"></path>
		<path d="M580.3,322.4h-4v13.5h-4.6v-13.5h-2.6v-2.2l2.6-1.2v-1.2c0-1.9,0.5-3.3,1.4-4.2c1-0.9,2.5-1.3,4.6-1.3    c1.6,0,3,0.2,4.3,0.7l-1.2,3.4c-0.9-0.3-1.8-0.4-2.6-0.4c-0.7,0-1.1,0.2-1.4,0.6c-0.3,0.4-0.4,0.9-0.4,1.5v1.1h4V322.4z"></path>
		<path d="M590.7,336.2c-2.7,0-4.9-0.8-6.4-2.3c-1.5-1.5-2.3-3.6-2.3-6.4c0-2.8,0.7-5.1,2.1-6.6c1.4-1.6,3.4-2.3,5.9-2.3    c2.4,0,4.3,0.7,5.6,2.1c1.3,1.4,2,3.3,2,5.7v2.2h-11c0.1,1.3,0.4,2.3,1.2,3.1c0.7,0.7,1.8,1.1,3.1,1.1c1,0,2-0.1,2.9-0.3    s1.9-0.6,2.9-1v3.6c-0.8,0.4-1.7,0.7-2.6,0.9C593.1,336.1,592,336.2,590.7,336.2z M590,321.9c-1,0-1.8,0.3-2.3,0.9    c-0.6,0.6-0.9,1.5-1,2.7h6.5c0-1.1-0.3-2-0.9-2.7C591.8,322.2,591,321.9,590,321.9z"></path>
	</g>
</g>
</svg>
