<svg width="227" height="141" viewBox="0 0 227 141" fill="none" xmlns="http://www.w3.org/2000/svg">
<path d="M66.1257 0.898926H1V66.0246H66.1257V0.898926Z" stroke="#009CB4" stroke-width="0.367"/>
<path d="M66.1259 65.716H59.3356V60.1602H59.1298C57.5865 63.2468 54.7058 65.0987 51.2077 66.0246C50.6933 66.1275 41.1251 66.1275 40.6106 65.9218C31.5568 63.4525 27.1328 54.8103 27.1328 44.9334C27.1328 33.3075 33.3059 23.5335 45.8577 23.5335C50.076 23.5335 56.1462 25.0767 59.1298 30.0152H59.3356V0.898926H66.1259V65.716ZM47.0923 60.6747C56.1462 60.6747 59.6442 52.8555 59.6442 45.1391C59.6442 37.0113 55.9404 29.5007 46.6808 29.5007C37.4212 29.5007 34.3347 37.4228 34.3347 45.4478C34.3347 53.267 38.3472 60.6747 47.0923 60.6747Z" fill="#009CB4"/>
<path d="M76.1055 24.5619H86.8054V30.1177H87.0112C89.9948 25.8994 94.2131 23.4302 99.5631 23.4302C104.707 23.4302 109.337 25.385 111.601 30.2205C113.967 26.6196 118.288 23.4302 124.05 23.4302C132.795 23.4302 139.071 27.4427 139.071 38.1426V65.7156H127.753V42.4638C127.753 37.0109 127.239 32.484 120.86 32.484C114.481 32.484 113.35 37.7311 113.35 42.8753V65.8185H102.032V42.6695C102.032 37.9369 102.341 32.3811 95.139 32.3811C92.8756 32.3811 87.5256 33.8215 87.5256 41.8464V65.7156H76.2084" fill="#1A4B7E"/>
<path d="M156.561 52.3406C156.664 57.2791 160.78 59.2339 165.204 59.2339C168.496 59.2339 172.611 57.9993 172.611 53.9868C172.611 50.5916 167.879 49.357 159.854 47.608C153.372 46.1676 146.787 43.9041 146.787 36.5994C146.787 26.1052 155.841 23.4302 164.689 23.4302C173.64 23.4302 181.974 26.4138 182.797 36.5994H172.097C171.788 32.1753 168.393 31.0436 164.38 31.0436C161.808 31.0436 158.105 31.558 158.105 34.8503C158.105 38.8628 164.483 39.4801 170.862 41.0234C177.447 42.5666 183.928 44.933 183.928 52.5464C183.928 63.3493 174.566 66.8473 165.204 66.8473C155.635 66.8473 146.376 63.2464 145.861 52.3406" fill="#1A4B7E"/>
<path d="M226.831 62.2178C226.831 75.5928 220.658 82.3831 207.695 82.3831C199.979 82.3831 191.028 79.2966 190.719 70.2428H197.509C197.818 75.1812 203.682 76.9302 208.209 76.9302C217.057 76.9302 220.555 70.5514 220.555 61.2919V58.7197H220.35C218.086 63.7611 212.736 66.2303 207.592 66.2303C195.349 66.2303 189.176 56.5592 189.176 45.3448C189.176 35.6737 193.908 23.6362 208.209 23.6362C213.354 23.6362 217.983 25.8997 220.453 30.4266H220.35H220.555V24.5622H226.934L226.831 62.2178ZM220.144 44.316C220.144 37.1141 216.955 29.6035 208.415 29.6035C199.773 29.6035 196.275 36.7025 196.275 44.5217C196.275 51.9294 198.95 60.1601 207.901 60.1601C216.852 60.263 220.144 52.0323 220.144 44.316Z" fill="#009CB4"/>
<path d="M94.9326 73.021H98.6364C99.2538 73.021 99.8711 73.021 100.283 73.1239C100.797 73.2268 101.209 73.3296 101.62 73.6383C102.032 73.8441 102.443 74.2556 102.752 74.6671C103.06 75.0787 103.369 75.5931 103.472 76.2104C103.678 76.8277 103.781 77.445 103.781 78.2681C103.781 79.8114 103.369 81.1489 102.649 82.1777C101.929 83.2065 100.591 83.721 98.8422 83.721H95.0355V73.021H94.9326ZM96.373 82.3835H98.6364C99.1509 82.3835 99.5624 82.3835 99.8711 82.2806C100.283 82.1777 100.591 82.0748 101.003 81.7662C101.414 81.5604 101.723 81.046 101.929 80.5315C102.135 79.9142 102.34 79.194 102.34 78.1652C102.34 77.6508 102.34 77.1364 102.237 76.6219C102.135 76.1075 101.929 75.696 101.723 75.3873C101.517 74.9758 101.209 74.77 100.797 74.5643C100.488 74.3585 100.18 74.2556 99.8711 74.2556C99.5624 74.2556 99.1509 74.1527 98.6364 74.1527H96.373V82.3835Z" fill="#486694"/>
<path d="M112.217 80.12H106.456C106.559 80.943 106.764 81.6632 107.176 82.0748C107.587 82.4863 108.102 82.795 108.822 82.795C109.336 82.795 109.748 82.6921 110.057 82.3834C110.365 82.0748 110.674 81.7661 110.88 81.1488L112.217 81.3546C112.011 82.1777 111.6 82.795 110.983 83.2065C110.365 83.618 109.645 83.8238 108.822 83.8238C107.69 83.8238 106.764 83.5151 106.147 82.795C105.53 82.0748 105.118 81.1488 105.118 79.9142C105.118 78.6796 105.427 77.7536 106.044 76.9306C106.661 76.2104 107.587 75.7988 108.719 75.7988C109.234 75.7988 109.851 75.9017 110.365 76.2104C110.88 76.4161 111.291 76.8277 111.703 77.445C112.011 77.9594 112.217 78.8854 112.217 80.12ZM110.88 79.0911C110.777 78.2681 110.571 77.7536 110.159 77.3421C109.748 77.0334 109.234 76.8277 108.719 76.8277C108.102 76.8277 107.587 77.0334 107.176 77.445C106.764 77.8565 106.559 78.3709 106.456 79.0911H110.88Z" fill="#486694"/>
<path d="M120.037 83.7202H118.905V82.5885C118.288 83.5144 117.465 83.926 116.436 83.926C115.921 83.926 115.407 83.8231 114.892 83.5144C114.481 83.3087 114.172 82.8971 113.967 82.4856C113.864 82.0741 113.761 81.4568 113.761 80.7366V76.0039H115.098V80.325C115.098 81.0452 115.098 81.4568 115.201 81.7654C115.304 82.0741 115.407 82.2798 115.716 82.4856C116.024 82.6914 116.333 82.7943 116.744 82.7943C117.259 82.7943 117.67 82.5885 118.185 82.2798C118.596 81.9712 118.802 81.251 118.802 80.1193V76.0039H120.14V83.7202H120.037Z" fill="#486694"/>
<path d="M125.078 83.6177C124.667 83.7206 124.358 83.7206 124.049 83.7206C123.432 83.7206 123.021 83.6177 122.815 83.412C122.506 83.2062 122.403 83.0004 122.3 82.6918C122.197 82.3831 122.197 81.9716 122.197 81.3543V76.9302H121.271V75.9014H122.197V73.9466L123.535 73.1235V75.7985H124.872V76.8274H123.535V81.3543C123.535 81.7658 123.535 81.9716 123.638 82.1774C123.741 82.3831 123.946 82.3831 124.255 82.3831C124.461 82.3831 124.667 82.3831 124.872 82.2802L125.078 83.6177Z" fill="#486694"/>
<path d="M130.531 78.1645C130.428 77.7529 130.325 77.4443 130.016 77.2385C129.707 77.0327 129.296 76.9299 128.884 76.9299C128.37 76.9299 127.958 77.0327 127.65 77.1356C127.341 77.3414 127.238 77.5472 127.238 77.8558C127.238 78.1645 127.341 78.3702 127.65 78.4731C127.856 78.576 128.37 78.7818 129.09 78.9875C129.913 79.1933 130.531 79.3991 130.942 79.502C131.354 79.7077 131.662 79.9135 131.868 80.2222C132.074 80.5308 132.177 80.9423 132.177 81.4568C132.177 82.177 131.868 82.6914 131.354 83.2058C130.839 83.7202 130.016 83.926 129.09 83.926C128.061 83.926 127.341 83.7202 126.827 83.3087C126.312 82.8971 125.901 82.2798 125.798 81.4568L127.135 81.251C127.238 81.7654 127.444 82.177 127.753 82.4856C128.061 82.7943 128.576 82.8971 129.193 82.8971C129.81 82.8971 130.222 82.7943 130.531 82.5885C130.839 82.3827 130.942 82.0741 130.942 81.6625C130.942 81.4568 130.839 81.251 130.736 81.1481C130.633 81.0452 130.428 80.9423 130.222 80.8395C130.016 80.7366 129.502 80.6337 128.781 80.4279C127.65 80.1193 126.93 79.8106 126.621 79.502C126.312 79.0904 126.107 78.6789 126.107 78.1645C126.107 77.5472 126.312 77.0327 126.827 76.6212C127.341 76.2097 128.061 76.0039 128.884 76.0039C129.81 76.0039 130.531 76.2097 131.045 76.5183C131.559 76.827 131.868 77.4443 131.971 78.1645H130.531Z" fill="#486694"/>
<path d="M139.996 81.0451C139.79 82.0739 139.482 82.7941 138.864 83.2057C138.247 83.6172 137.527 83.9259 136.807 83.9259C135.675 83.9259 134.852 83.5143 134.235 82.7941C133.617 82.0739 133.309 81.0451 133.309 79.9134C133.309 78.8845 133.514 78.0615 133.823 77.547C134.132 76.9297 134.646 76.5182 135.161 76.3124C135.675 76.1066 136.292 75.9009 136.807 75.9009C137.63 75.9009 138.247 76.1067 138.864 76.5182C139.482 76.9297 139.79 77.547 139.893 78.3701L138.659 78.5759C138.556 78.0615 138.35 77.6499 138.041 77.4441C137.733 77.1355 137.424 77.0326 136.91 77.0326C136.189 77.0326 135.572 77.3413 135.263 77.8557C134.852 78.3701 134.646 79.0903 134.646 80.0162C134.646 80.9422 134.852 81.6624 135.161 82.1768C135.572 82.6912 136.086 82.9999 136.807 82.9999C137.321 82.9999 137.836 82.7941 138.144 82.4855C138.453 82.1768 138.659 81.6624 138.761 81.0451H139.996Z" fill="#486694"/>
<path d="M147.403 83.7205H146.066V78.8849C146.066 78.2676 145.963 77.7532 145.654 77.4445C145.346 77.1359 144.934 76.9301 144.42 76.9301C143.905 76.9301 143.391 77.1359 142.979 77.4445C142.568 77.8561 142.362 78.4734 142.362 79.3993V83.6176H141.024V73.0205H142.362V76.8272C142.979 76.107 143.802 75.7984 144.728 75.7984C145.243 75.7984 145.757 75.9013 146.169 76.107C146.58 76.3128 146.992 76.6215 147.095 77.033C147.3 77.4445 147.403 78.0618 147.403 78.782V83.7205Z" fill="#486694"/>
<path d="M156.046 80.12H150.285C150.388 80.943 150.593 81.6632 151.005 82.0748C151.416 82.4863 151.931 82.795 152.651 82.795C153.166 82.795 153.577 82.6921 153.886 82.3834C154.194 82.0748 154.503 81.7661 154.709 81.1488L156.046 81.3546C155.841 82.1777 155.429 82.795 154.812 83.2065C154.194 83.618 153.474 83.8238 152.651 83.8238C151.519 83.8238 150.593 83.5151 149.976 82.795C149.359 82.0748 148.947 81.1488 148.947 79.9142C148.947 78.6796 149.256 77.7536 149.873 76.9306C150.491 76.2104 151.416 75.7988 152.548 75.7988C153.063 75.7988 153.68 75.9017 154.194 76.2104C154.709 76.4161 155.12 76.8277 155.532 77.445C155.841 77.9594 156.046 78.8854 156.046 80.12ZM154.709 79.0911C154.606 78.2681 154.4 77.7536 153.989 77.3421C153.577 77.0334 153.063 76.8277 152.548 76.8277C151.931 76.8277 151.416 77.0334 151.005 77.445C150.593 77.8565 150.388 78.3709 150.285 79.0911H154.709Z" fill="#486694"/>
<path d="M105.015 102.343H103.678V93.392L100.591 102.343H99.3566L96.2701 93.2891V102.343H94.9326V91.6429H97.0932L99.6653 99.1535C99.9739 99.9765 100.077 100.491 100.18 100.697C100.283 100.285 100.488 99.6679 100.797 98.9477L103.369 91.54H105.221V102.343H105.015Z" fill="#486694"/>
<path d="M113.348 102.342H112.216V101.211C111.599 102.137 110.776 102.548 109.747 102.548C109.233 102.548 108.718 102.445 108.204 102.137C107.792 101.931 107.484 101.519 107.278 101.108C107.175 100.696 107.072 100.079 107.072 99.3586V94.626H108.41V98.9471C108.41 99.6673 108.41 100.079 108.513 100.387C108.616 100.696 108.718 100.902 109.027 101.108C109.336 101.313 109.644 101.416 110.056 101.416C110.57 101.416 110.982 101.211 111.496 100.902C111.908 100.593 112.114 99.8731 112.114 98.7413V94.626H113.451V102.342H113.348Z" fill="#486694"/>
<path d="M116.744 102.343H115.406V91.6426H116.744V102.343Z" fill="#486694"/>
<path d="M121.785 102.342C121.374 102.445 121.065 102.445 120.756 102.445C120.139 102.445 119.728 102.342 119.522 102.137C119.213 101.931 119.11 101.725 119.007 101.416C118.904 101.108 118.904 100.696 118.904 100.079V95.6549H117.979V94.626H118.904V92.6712L120.242 91.8481V94.5231H121.579V95.552H120.242V100.079C120.242 100.49 120.242 100.696 120.345 100.902C120.448 101.108 120.654 101.108 120.962 101.108C121.168 101.108 121.374 101.108 121.579 101.005L121.785 102.342Z" fill="#486694"/>
<path d="M124.152 93.1858H122.814V91.6426H124.152V93.1858ZM124.152 102.343H122.814V94.6262H124.152V102.343Z" fill="#486694"/>
<path d="M127.444 95.6547C127.958 94.8316 128.678 94.5229 129.604 94.5229C130.633 94.5229 131.456 94.9345 131.971 95.6547C132.588 96.3749 132.896 97.3008 132.896 98.5354C132.896 99.77 132.588 100.799 131.971 101.519C131.353 102.239 130.53 102.651 129.604 102.651C128.781 102.651 128.164 102.342 127.649 101.622V105.429H126.209V94.6258H127.444V95.6547ZM129.398 101.416C130.016 101.416 130.53 101.21 130.942 100.696C131.353 100.182 131.559 99.4614 131.559 98.4325C131.559 97.5066 131.353 96.7864 130.942 96.272C130.53 95.7576 130.016 95.5518 129.501 95.5518C128.884 95.5518 128.37 95.8604 127.958 96.3749C127.546 96.9922 127.341 97.7124 127.341 98.5354C127.341 99.4614 127.546 100.182 127.958 100.696C128.37 101.21 128.781 101.416 129.398 101.416Z" fill="#486694"/>
<path d="M135.778 102.343H134.44V91.6426H135.778V102.343Z" fill="#486694"/>
<path d="M144.42 98.8441H138.659C138.762 99.6672 138.967 100.387 139.379 100.799C139.791 101.21 140.305 101.519 141.025 101.519C141.54 101.519 141.951 101.416 142.26 101.108C142.568 100.799 142.877 100.49 143.083 99.8729L144.42 100.079C144.215 100.902 143.803 101.519 143.186 101.931C142.568 102.342 141.848 102.548 141.025 102.548C139.893 102.548 138.967 102.239 138.35 101.519C137.733 100.799 137.321 99.8729 137.321 98.6383C137.321 97.4037 137.63 96.4777 138.247 95.6547C138.865 94.9345 139.791 94.5229 140.922 94.5229C141.437 94.5229 142.054 94.6258 142.568 94.9345C143.083 95.1402 143.494 95.5518 143.906 96.1691C144.317 96.6835 144.42 97.6095 144.42 98.8441ZM143.083 97.7124C142.98 96.8893 142.774 96.3749 142.363 95.9633C141.951 95.6547 141.437 95.4489 140.922 95.4489C140.305 95.4489 139.791 95.6547 139.379 96.0662C138.967 96.4777 138.762 96.9922 138.659 97.7124H143.083Z" fill="#486694"/>
<path d="M156.663 94.8318C156.561 94.1117 156.355 93.5972 155.943 93.2886C155.532 92.9799 154.914 92.7742 154.091 92.7742C153.371 92.7742 152.754 92.877 152.342 93.1857C151.931 93.4943 151.622 93.803 151.622 94.4203C151.622 94.8318 151.828 95.2434 152.136 95.4491C152.445 95.6549 153.165 95.8607 154.194 96.1693C155.12 96.3751 155.84 96.5809 156.355 96.7866C156.869 96.9924 157.384 97.3011 157.795 97.7126C158.207 98.1241 158.412 98.7414 158.412 99.4616C158.412 100.388 158.001 101.108 157.281 101.725C156.561 102.342 155.635 102.651 154.4 102.651C152.857 102.651 151.828 102.342 151.005 101.622C150.285 100.902 149.873 100.079 149.873 99.0501L151.211 98.9472C151.313 99.7703 151.622 100.388 152.239 100.799C152.857 101.211 153.577 101.416 154.4 101.416C155.223 101.416 155.84 101.211 156.355 100.902C156.869 100.593 157.075 100.182 157.075 99.5645C157.075 98.9472 156.869 98.5357 156.355 98.3299C155.84 98.0213 155.017 97.8155 153.783 97.5068C152.548 97.1982 151.725 96.8895 151.211 96.3751C150.696 95.8607 150.387 95.2434 150.387 94.5232C150.387 93.7001 150.696 92.9799 151.416 92.3626C152.136 91.8482 152.96 91.5396 154.194 91.5396C155.429 91.5396 156.355 91.8482 157.075 92.3626C157.795 92.877 158.207 93.7001 158.207 94.729L156.663 94.8318Z" fill="#486694"/>
<path d="M166.539 102.343H164.893L162.321 98.4329L161.395 99.3589V102.445H160.058V91.6426H161.395V97.7127L164.482 94.6262H166.231L163.247 97.507L166.539 102.343Z" fill="#486694"/>
<path d="M168.907 102.343H167.569V91.6426H168.907V102.343Z" fill="#486694"/>
<path d="M177.548 98.8441H171.787C171.89 99.6672 172.095 100.387 172.507 100.799C172.918 101.21 173.433 101.519 174.153 101.519C174.667 101.519 175.079 101.416 175.388 101.108C175.696 100.799 176.005 100.49 176.211 99.8729L177.548 100.079C177.342 100.902 176.931 101.519 176.314 101.931C175.696 102.342 174.976 102.548 174.153 102.548C173.021 102.548 172.095 102.239 171.478 101.519C170.861 100.799 170.449 99.8729 170.449 98.6383C170.449 97.4037 170.758 96.4777 171.375 95.6547C171.992 94.9345 172.918 94.5229 174.05 94.5229C174.565 94.5229 175.182 94.6258 175.696 94.9345C176.211 95.1402 176.622 95.5518 177.034 96.1691C177.445 96.6835 177.548 97.6095 177.548 98.8441ZM176.211 97.7124C176.108 96.8893 175.902 96.3749 175.491 95.9633C175.079 95.6547 174.565 95.4489 174.05 95.4489C173.433 95.4489 172.918 95.6547 172.507 96.0662C172.095 96.4777 171.89 96.9922 171.787 97.7124H176.211Z" fill="#486694"/>
<path d="M183.31 94.8315L182.899 96.0661C182.59 95.8603 182.281 95.7574 181.973 95.7574C181.458 95.7574 181.149 95.9632 180.841 96.3747C180.635 96.7863 180.429 97.4036 180.429 98.2266V102.239H179.092V94.5228H180.326V95.7574C180.738 94.8315 181.252 94.4199 181.973 94.4199C182.384 94.4199 182.899 94.6257 183.31 94.8315Z" fill="#486694"/>
<path d="M187.014 94.4199C188.043 94.4199 188.969 94.7286 189.586 95.4488C190.306 96.169 190.615 97.0949 190.615 98.3295C190.615 99.8728 190.203 100.902 189.483 101.519C188.763 102.136 187.94 102.445 187.014 102.445C186.088 102.445 185.162 102.136 184.442 101.519C183.722 100.902 183.413 99.8728 183.413 98.4324C183.413 97.0949 183.722 96.0661 184.442 95.3459C185.059 94.8315 185.985 94.4199 187.014 94.4199ZM187.014 101.416C187.734 101.416 188.352 101.107 188.763 100.593C189.175 100.079 189.38 99.3584 189.38 98.4324C189.38 97.5065 189.175 96.7863 188.763 96.2718C188.352 95.7574 187.734 95.5517 187.117 95.5517C186.5 95.5517 185.882 95.7574 185.471 96.2718C185.059 96.7863 184.853 97.5064 184.853 98.5353C184.853 99.5641 185.059 100.284 185.471 100.799C185.779 101.21 186.294 101.416 187.014 101.416Z" fill="#486694"/>
<path d="M196.479 96.7865C196.376 96.375 196.273 96.0664 195.964 95.8606C195.656 95.6548 195.244 95.5519 194.833 95.5519C194.318 95.5519 193.907 95.6548 193.598 95.7577C193.289 95.9635 193.186 96.1692 193.186 96.4779C193.186 96.7865 193.289 96.9923 193.598 97.0952C193.804 97.1981 194.318 97.4039 195.038 97.6096C195.861 97.8154 196.479 98.0212 196.89 98.124C197.302 98.3298 197.611 98.5356 197.816 98.8442C198.022 99.1529 198.125 99.5644 198.125 100.079C198.125 100.799 197.816 101.313 197.302 101.828C196.787 102.342 195.964 102.548 195.038 102.548C194.01 102.548 193.289 102.342 192.775 101.931C192.261 101.519 191.849 100.902 191.746 100.079L193.084 99.8731C193.186 100.387 193.392 100.799 193.701 101.108C194.01 101.416 194.524 101.519 195.141 101.519C195.759 101.519 196.17 101.416 196.479 101.211C196.787 101.005 196.89 100.696 196.89 100.285C196.89 100.079 196.787 99.8731 196.685 99.7702C196.582 99.6673 196.376 99.5644 196.17 99.4615C195.964 99.3586 195.45 99.2558 194.73 99.05C193.598 98.7413 192.878 98.4327 192.569 98.124C192.261 97.7125 192.055 97.301 192.055 96.7865C192.055 96.1692 192.261 95.6548 192.775 95.2433C193.289 94.8317 194.01 94.626 194.833 94.626C195.759 94.626 196.479 94.8317 196.993 95.1404C197.508 95.4491 197.816 96.0664 197.919 96.7865H196.479Z" fill="#486694"/>
<path d="M206.253 98.8441H200.492C200.595 99.6672 200.8 100.387 201.212 100.799C201.624 101.21 202.138 101.519 202.858 101.519C203.373 101.519 203.784 101.416 204.093 101.108C204.401 100.799 204.71 100.49 204.916 99.8729L206.253 100.079C206.048 100.902 205.636 101.519 205.019 101.931C204.401 102.342 203.681 102.548 202.858 102.548C201.726 102.548 200.8 102.239 200.183 101.519C199.566 100.799 199.154 99.8729 199.154 98.6383C199.154 97.4037 199.463 96.4777 200.08 95.6547C200.698 94.9345 201.624 94.5229 202.755 94.5229C203.27 94.5229 203.887 94.6258 204.401 94.9345C204.916 95.1402 205.327 95.5518 205.739 96.1691C206.15 96.6835 206.253 97.6095 206.253 98.8441ZM204.916 97.7124C204.813 96.8893 204.607 96.3749 204.196 95.9633C203.784 95.6547 203.27 95.4489 202.755 95.4489C202.138 95.4489 201.624 95.6547 201.212 96.0662C200.8 96.4777 200.595 96.9922 200.492 97.7124H204.916Z" fill="#486694"/>
<path d="M104.398 119.524C103.061 120.656 101.62 121.171 99.9744 121.171C98.3282 121.171 96.9907 120.656 96.0647 119.627C95.0359 118.598 94.5215 117.261 94.5215 115.615C94.5215 114.586 94.7273 113.66 95.1388 112.837C95.5503 112.014 96.1676 111.294 96.9907 110.779C97.8138 110.265 98.7397 110.059 99.8715 110.059C101.106 110.059 102.032 110.368 102.752 110.882C103.472 111.397 103.987 112.22 104.193 113.248L102.958 113.557C102.752 112.837 102.444 112.22 101.929 111.808C101.415 111.397 100.695 111.191 99.8715 111.191C98.6369 111.191 97.608 111.602 96.9907 112.323C96.3734 113.146 95.9619 114.174 95.9619 115.409C95.9619 116.335 96.1676 117.158 96.4763 117.775C96.7849 118.393 97.2994 118.907 97.9167 119.216C98.534 119.524 99.2542 119.73 99.9744 119.73C101.106 119.73 102.135 119.319 103.061 118.598V116.644H99.8715V115.409H104.398V119.524Z" fill="#486694"/>
<path d="M113.041 117.467H107.28C107.383 118.29 107.589 119.01 108 119.422C108.412 119.833 108.926 120.142 109.646 120.142C110.161 120.142 110.572 120.039 110.881 119.731C111.189 119.422 111.498 119.113 111.704 118.496L113.041 118.702C112.836 119.525 112.424 120.142 111.807 120.554C111.189 120.965 110.469 121.171 109.646 121.171C108.514 121.171 107.589 120.862 106.971 120.142C106.354 119.422 105.942 118.496 105.942 117.261C105.942 116.027 106.251 115.101 106.868 114.278C107.486 113.558 108.412 113.146 109.543 113.146C110.058 113.146 110.675 113.249 111.189 113.558C111.704 113.763 112.115 114.175 112.527 114.792C112.836 115.307 113.041 116.233 113.041 117.467ZM111.704 116.438C111.601 115.615 111.395 115.101 110.984 114.689C110.572 114.381 110.058 114.175 109.543 114.175C108.926 114.175 108.412 114.381 108 114.792C107.589 115.204 107.383 115.718 107.28 116.438H111.704Z" fill="#486694"/>
<path d="M118.906 115.41C118.803 114.998 118.7 114.689 118.391 114.484C118.082 114.278 117.671 114.175 117.259 114.175C116.745 114.175 116.333 114.278 116.025 114.381C115.716 114.587 115.613 114.792 115.613 115.101C115.613 115.41 115.716 115.615 116.025 115.718C116.231 115.821 116.745 116.027 117.465 116.233C118.288 116.438 118.906 116.644 119.317 116.747C119.729 116.953 120.037 117.159 120.243 117.467C120.449 117.776 120.552 118.187 120.552 118.702C120.552 119.422 120.243 119.936 119.729 120.451C119.214 120.965 118.391 121.171 117.465 121.171C116.436 121.171 115.716 120.965 115.202 120.554C114.687 120.142 114.276 119.525 114.173 118.702L115.51 118.496C115.613 119.011 115.819 119.422 116.128 119.731C116.436 120.039 116.951 120.142 117.568 120.142C118.185 120.142 118.597 120.039 118.906 119.834C119.214 119.628 119.317 119.319 119.317 118.908C119.317 118.702 119.214 118.496 119.111 118.393C119.008 118.29 118.803 118.187 118.597 118.085C118.391 117.982 117.877 117.879 117.156 117.673C116.025 117.364 115.305 117.056 114.996 116.747C114.687 116.336 114.481 115.924 114.481 115.41C114.481 114.792 114.687 114.278 115.202 113.866C115.716 113.455 116.436 113.249 117.259 113.249C118.185 113.249 118.906 113.455 119.42 113.763C119.934 114.072 120.243 114.689 120.346 115.41H118.906Z" fill="#486694"/>
<path d="M128.782 117.467H123.02C123.123 118.29 123.329 119.01 123.74 119.422C124.152 119.833 124.666 120.142 125.386 120.142C125.901 120.142 126.312 120.039 126.621 119.731C126.93 119.422 127.238 119.113 127.444 118.496L128.782 118.702C128.576 119.525 128.164 120.142 127.547 120.554C126.93 120.965 126.21 121.171 125.386 121.171C124.255 121.171 123.329 120.862 122.711 120.142C122.094 119.422 121.683 118.496 121.683 117.261C121.683 116.027 121.991 115.101 122.609 114.278C123.226 113.558 124.152 113.146 125.284 113.146C125.798 113.146 126.415 113.249 126.93 113.558C127.444 113.763 127.856 114.175 128.267 114.792C128.576 115.307 128.782 116.233 128.782 117.467ZM127.444 116.438C127.341 115.615 127.135 115.101 126.724 114.689C126.312 114.381 125.798 114.175 125.284 114.175C124.666 114.175 124.152 114.381 123.74 114.792C123.329 115.204 123.123 115.718 123.02 116.438H127.444Z" fill="#486694"/>
<path d="M131.663 120.965H130.325V110.265H131.663V120.965Z" fill="#486694"/>
<path d="M134.956 120.965H133.618V110.265H134.956V120.965Z" fill="#486694"/>
<path d="M141.231 115.41C141.128 114.998 141.025 114.689 140.716 114.484C140.408 114.278 139.996 114.175 139.585 114.175C139.07 114.175 138.659 114.278 138.35 114.381C138.041 114.587 137.938 114.792 137.938 115.101C137.938 115.41 138.041 115.615 138.35 115.718C138.556 115.821 139.07 116.027 139.79 116.233C140.613 116.438 141.231 116.644 141.642 116.747C142.054 116.953 142.362 117.159 142.568 117.467C142.774 117.776 142.877 118.187 142.877 118.702C142.877 119.422 142.568 119.936 142.054 120.451C141.539 120.965 140.716 121.171 139.79 121.171C138.761 121.171 138.041 120.965 137.527 120.554C137.012 120.142 136.601 119.525 136.498 118.702L137.836 118.496C137.938 119.011 138.144 119.422 138.453 119.731C138.761 120.039 139.276 120.142 139.893 120.142C140.511 120.142 140.922 120.039 141.231 119.834C141.539 119.628 141.642 119.319 141.642 118.908C141.642 118.702 141.539 118.496 141.436 118.393C141.334 118.29 141.128 118.187 140.922 118.085C140.716 117.982 140.202 117.879 139.482 117.673C138.35 117.364 137.63 117.056 137.321 116.747C137.012 116.336 136.807 115.924 136.807 115.41C136.807 114.792 137.012 114.278 137.527 113.866C138.041 113.455 138.761 113.249 139.585 113.249C140.511 113.249 141.231 113.455 141.745 113.763C142.26 114.072 142.568 114.689 142.671 115.41H141.231Z" fill="#486694"/>
<path d="M150.696 118.29C150.49 119.319 150.182 120.039 149.565 120.451C148.947 120.862 148.227 121.171 147.507 121.171C146.375 121.171 145.552 120.759 144.935 120.039C144.317 119.319 144.009 118.29 144.009 117.158C144.009 116.13 144.215 115.307 144.523 114.792C144.832 114.175 145.346 113.763 145.861 113.558C146.375 113.352 146.992 113.146 147.507 113.146C148.33 113.146 148.947 113.352 149.565 113.763C150.182 114.175 150.49 114.792 150.593 115.615L149.359 115.821C149.256 115.307 149.05 114.895 148.741 114.689C148.433 114.381 148.124 114.278 147.61 114.278C146.89 114.278 146.272 114.586 145.964 115.101C145.552 115.615 145.346 116.335 145.346 117.261C145.346 118.187 145.552 118.908 145.861 119.422C146.272 119.936 146.787 120.245 147.507 120.245C148.021 120.245 148.536 120.039 148.844 119.731C149.153 119.422 149.359 118.908 149.462 118.29H150.696Z" fill="#486694"/>
<path d="M158.104 120.965H156.767V116.129C156.767 115.512 156.664 114.998 156.355 114.689C156.047 114.38 155.635 114.175 155.121 114.175C154.606 114.175 154.092 114.38 153.68 114.689C153.269 115.101 153.063 115.718 153.063 116.644V120.862H151.726V110.162H153.063V113.969C153.68 113.249 154.503 112.94 155.429 112.94C155.944 112.94 156.458 113.043 156.87 113.249C157.281 113.454 157.693 113.763 157.796 114.175C158.002 114.586 158.104 115.203 158.104 115.924V120.965Z" fill="#486694"/>
<path d="M166.849 120.965H165.512C165.409 120.759 165.306 120.45 165.203 120.039C164.277 120.759 163.351 121.171 162.322 121.171C161.499 121.171 160.882 120.965 160.368 120.553C159.853 120.142 159.647 119.627 159.647 118.907C159.647 118.29 159.853 117.776 160.368 117.364C160.779 116.952 161.602 116.644 162.734 116.541L163.969 116.335C164.38 116.232 164.792 116.129 165.1 116.026C165.1 115.615 165.1 115.306 165.1 115.203C165.1 114.998 164.997 114.895 164.895 114.689C164.792 114.483 164.586 114.38 164.277 114.277C163.969 114.175 163.66 114.072 163.248 114.072C162.734 114.072 162.22 114.175 161.911 114.38C161.602 114.586 161.396 114.998 161.191 115.512L159.956 115.306C160.059 114.483 160.471 113.969 161.088 113.557C161.705 113.146 162.425 112.94 163.454 112.94C164.38 112.94 165.1 113.043 165.512 113.351C165.923 113.66 166.232 113.969 166.335 114.38C166.438 114.792 166.438 115.306 166.438 115.924V117.673C166.438 118.701 166.438 119.422 166.541 119.833C166.644 120.245 166.644 120.656 166.849 120.965ZM165.1 117.57V117.055C164.38 117.261 163.557 117.467 162.631 117.57C161.602 117.673 161.191 118.084 161.191 118.804C161.191 119.113 161.294 119.422 161.602 119.73C161.911 119.936 162.22 120.039 162.734 120.039C163.351 120.039 163.969 119.833 164.483 119.422C164.792 119.216 165.1 118.496 165.1 117.57Z" fill="#486694"/>
<path d="M171.994 110.265L171.788 111.397C171.479 111.397 171.274 111.294 171.068 111.294C170.759 111.294 170.45 111.397 170.245 111.5C170.039 111.602 169.936 112.014 169.936 112.528V113.249H171.376V114.277H169.936V120.965H168.599V114.277H167.467V113.249H168.599V112.426C168.599 112.014 168.599 111.705 168.701 111.397C168.804 111.088 169.01 110.779 169.319 110.574C169.627 110.368 170.142 110.162 170.759 110.162C171.171 110.162 171.582 110.162 171.994 110.265Z" fill="#486694"/>
<path d="M175.595 120.965C175.183 121.068 174.875 121.068 174.566 121.068C173.949 121.068 173.537 120.965 173.331 120.759C173.023 120.553 172.92 120.348 172.817 120.039C172.714 119.73 172.714 119.319 172.714 118.701V114.277H171.788V113.249H172.714V111.294L174.052 110.471V113.146H175.389V114.175H174.052V118.701C174.052 119.113 174.052 119.319 174.154 119.525C174.257 119.73 174.463 119.73 174.772 119.73C174.977 119.73 175.183 119.73 175.389 119.627L175.595 120.965Z" fill="#486694"/>
<path d="M100.9 134.031C101.62 134.236 102.032 134.545 102.443 135.059C102.752 135.471 102.958 136.088 102.958 136.603C102.958 137.117 102.855 137.734 102.546 138.249C102.237 138.763 101.826 139.072 101.311 139.381C100.797 139.586 99.9739 139.689 99.048 139.689H94.9326V128.989H98.9451C100.283 128.989 101.106 129.298 101.723 129.812C102.237 130.327 102.546 131.047 102.546 131.664C102.546 132.179 102.443 132.59 102.135 133.002C101.723 133.413 101.414 133.722 100.9 134.031ZM96.2701 133.516H98.5336C99.048 133.516 99.3566 133.516 99.7682 133.413C100.077 133.31 100.385 133.208 100.591 133.002C100.797 132.796 101.003 132.384 101.003 131.973C101.003 131.458 100.9 131.047 100.591 130.841C100.385 130.635 100.077 130.43 99.6653 130.43C99.3566 130.327 98.8422 130.327 98.3278 130.327H96.1672V133.516H96.2701ZM96.2701 138.455H98.9451C99.8711 138.455 100.591 138.249 100.9 137.94C101.311 137.632 101.414 137.117 101.414 136.603C101.414 135.985 101.209 135.574 100.797 135.265C100.385 134.957 99.6653 134.751 98.6364 134.751H96.1672V138.455H96.2701Z" fill="#486694"/>
<path d="M110.879 139.689H109.748V138.557C109.13 139.483 108.307 139.895 107.279 139.895C106.764 139.895 106.25 139.792 105.735 139.483C105.324 139.277 105.015 138.866 104.809 138.454C104.706 138.043 104.604 137.426 104.604 136.705V131.973H105.941V136.294C105.941 137.014 105.941 137.426 106.044 137.734C106.147 138.043 106.25 138.249 106.558 138.454C106.867 138.66 107.176 138.763 107.587 138.763C108.102 138.763 108.513 138.557 109.028 138.249C109.439 137.94 109.645 137.22 109.645 136.088V131.973H110.982V139.689H110.879Z" fill="#486694"/>
<path d="M119.213 139.689H117.978V134.956C117.978 134.133 117.876 133.619 117.567 133.31C117.258 133.001 116.847 132.898 116.435 132.898C116.024 132.898 115.715 133.001 115.303 133.207C114.995 133.413 114.686 133.619 114.583 134.03C114.48 134.339 114.378 134.853 114.378 135.471V139.689H113.04V131.973H114.172V133.104C114.48 132.693 114.789 132.384 115.201 132.178C115.612 131.973 116.024 131.87 116.641 131.87C117.053 131.87 117.464 131.973 117.876 132.075C118.287 132.178 118.596 132.487 118.802 132.693C119.007 133.001 119.213 133.31 119.213 133.619C119.316 133.927 119.316 134.442 119.316 134.956V139.689H119.213Z" fill="#486694"/>
<path d="M127.444 139.689H126.21V138.66C125.695 139.483 125.078 139.792 124.049 139.792C123.123 139.792 122.3 139.38 121.683 138.66C121.065 137.94 120.757 136.911 120.757 135.779C120.757 134.545 121.065 133.516 121.683 132.796C122.3 132.076 123.02 131.664 124.049 131.664C124.975 131.664 125.695 131.973 126.107 132.693V128.886H127.444V139.689ZM124.255 138.763C124.872 138.763 125.284 138.557 125.695 138.043C126.107 137.529 126.313 136.911 126.313 135.882C126.313 134.956 126.107 134.236 125.798 133.619C125.387 133.104 124.872 132.796 124.255 132.796C123.535 132.796 123.02 133.104 122.712 133.619C122.403 134.133 122.197 134.854 122.197 135.779C122.197 136.397 122.3 136.911 122.506 137.426C122.712 137.837 122.917 138.249 123.329 138.454C123.535 138.66 123.843 138.763 124.255 138.763Z" fill="#486694"/>
<path d="M136.189 136.191H130.427C130.53 137.014 130.736 137.734 131.148 138.146C131.559 138.557 132.073 138.866 132.794 138.866C133.308 138.866 133.72 138.763 134.028 138.454C134.337 138.146 134.646 137.837 134.851 137.22L136.189 137.425C135.983 138.248 135.572 138.866 134.954 139.277C134.337 139.689 133.617 139.895 132.794 139.895C131.662 139.895 130.736 139.586 130.119 138.866C129.501 138.146 129.09 137.22 129.09 135.985C129.09 134.75 129.398 133.824 130.016 133.001C130.633 132.281 131.559 131.87 132.691 131.87C133.205 131.87 133.823 131.973 134.337 132.281C134.851 132.487 135.263 132.898 135.674 133.516C136.086 134.03 136.189 134.956 136.189 136.191ZM134.851 135.059C134.748 134.236 134.543 133.722 134.131 133.31C133.72 133.001 133.205 132.796 132.691 132.796C132.073 132.796 131.559 133.001 131.148 133.413C130.736 133.824 130.53 134.339 130.427 135.059H134.851Z" fill="#486694"/>
<path d="M142.054 134.133C141.951 133.722 141.848 133.413 141.54 133.207C141.231 133.001 140.819 132.899 140.408 132.899C139.893 132.899 139.482 133.002 139.173 133.104C138.865 133.31 138.762 133.516 138.762 133.825C138.762 134.133 138.865 134.339 139.173 134.442C139.379 134.545 139.893 134.751 140.614 134.956C141.437 135.162 142.054 135.368 142.465 135.471C142.877 135.676 143.186 135.882 143.391 136.191C143.597 136.5 143.7 136.911 143.7 137.426C143.7 138.146 143.391 138.66 142.877 139.175C142.363 139.689 141.54 139.895 140.614 139.895C139.585 139.895 138.865 139.689 138.35 139.277C137.836 138.866 137.424 138.249 137.321 137.426L138.659 137.22C138.762 137.734 138.967 138.146 139.276 138.454C139.585 138.763 140.099 138.866 140.716 138.866C141.334 138.866 141.745 138.763 142.054 138.557C142.363 138.351 142.465 138.043 142.465 137.631C142.465 137.426 142.363 137.22 142.26 137.117C142.157 137.014 141.951 136.911 141.745 136.808C141.54 136.705 141.025 136.602 140.305 136.397C139.173 136.088 138.453 135.779 138.144 135.471C137.836 135.059 137.63 134.648 137.63 134.133C137.63 133.516 137.836 133.002 138.35 132.59C138.865 132.178 139.585 131.973 140.408 131.973C141.334 131.973 142.054 132.178 142.568 132.487C143.083 132.796 143.391 133.413 143.494 134.133H142.054Z" fill="#486694"/>
<path d="M151.519 131.973L148.638 139.689H147.403L144.522 131.973H145.86L147.403 136.397C147.712 137.22 147.918 137.837 147.918 138.146C148.021 137.837 148.123 137.426 148.329 136.911L150.078 131.973H151.519Z" fill="#486694"/>
<path d="M159.441 136.191H153.679C153.782 137.014 153.988 137.734 154.399 138.146C154.811 138.557 155.325 138.866 156.046 138.866C156.56 138.866 156.972 138.763 157.28 138.454C157.589 138.146 157.898 137.837 158.103 137.22L159.441 137.425C159.235 138.248 158.824 138.866 158.206 139.277C157.589 139.689 156.869 139.895 156.046 139.895C154.914 139.895 153.988 139.586 153.371 138.866C152.753 138.146 152.342 137.22 152.342 135.985C152.342 134.75 152.65 133.824 153.268 133.001C153.885 132.281 154.811 131.87 155.943 131.87C156.457 131.87 157.074 131.973 157.589 132.281C158.103 132.487 158.515 132.898 158.926 133.516C159.235 134.03 159.441 134.956 159.441 136.191ZM158 135.059C157.898 134.236 157.692 133.722 157.28 133.31C156.869 133.001 156.354 132.796 155.84 132.796C155.223 132.796 154.708 133.001 154.297 133.413C153.885 133.824 153.679 134.339 153.576 135.059H158Z" fill="#486694"/>
<path d="M165.1 132.179L164.689 133.414C164.38 133.208 164.071 133.105 163.763 133.105C163.248 133.105 162.94 133.311 162.631 133.722C162.425 134.134 162.219 134.751 162.219 135.574V139.587H160.882V131.87H162.116V133.002C162.528 132.076 163.042 131.665 163.763 131.665C164.277 131.767 164.689 131.87 165.1 132.179Z" fill="#486694"/>
<path d="M167.26 132.796C167.774 132.076 168.391 131.767 169.317 131.767C170.346 131.767 171.066 132.076 171.684 132.899C172.301 133.619 172.61 134.545 172.61 135.78C172.61 137.117 172.301 138.146 171.581 138.866C170.964 139.586 170.14 139.895 169.215 139.895C168.289 139.895 167.568 139.483 167.054 138.763V139.689H165.819V128.989H167.157L167.26 132.796ZM169.215 138.763C169.832 138.763 170.346 138.455 170.758 137.94C171.169 137.426 171.375 136.706 171.375 135.78C171.375 134.854 171.169 134.133 170.861 133.619C170.449 133.105 170.038 132.796 169.317 132.796C168.7 132.796 168.186 133.105 167.774 133.619C167.363 134.133 167.157 134.854 167.157 135.677C167.157 136.5 167.26 137.117 167.363 137.426C167.568 137.734 167.774 138.043 168.083 138.352C168.391 138.66 168.803 138.763 169.215 138.763Z" fill="#486694"/>
<path d="M180.944 139.69H179.607C179.504 139.484 179.401 139.175 179.298 138.764C178.372 139.484 177.446 139.895 176.417 139.895C175.594 139.895 174.977 139.69 174.462 139.278C173.948 138.866 173.742 138.352 173.742 137.632C173.742 137.015 173.948 136.5 174.462 136.089C174.874 135.677 175.697 135.368 176.829 135.265L178.063 135.06C178.475 134.957 178.886 134.854 179.195 134.751C179.195 134.34 179.195 134.031 179.195 133.928C179.195 133.722 179.092 133.619 178.989 133.414C178.886 133.208 178.681 133.105 178.372 133.002C178.063 132.899 177.755 132.796 177.343 132.796C176.829 132.796 176.314 132.899 176.006 133.105C175.697 133.311 175.491 133.722 175.285 134.237L174.051 134.031C174.154 133.208 174.565 132.693 175.183 132.282C175.8 131.87 176.52 131.665 177.549 131.665C178.475 131.665 179.195 131.767 179.607 132.076C180.018 132.385 180.327 132.693 180.43 133.105C180.533 133.516 180.533 134.031 180.533 134.648V136.397C180.533 137.426 180.533 138.146 180.635 138.558C180.738 138.969 180.738 139.278 180.944 139.69ZM179.195 136.294V135.78C178.475 135.986 177.652 136.191 176.726 136.294C175.697 136.397 175.285 136.809 175.285 137.529C175.285 137.838 175.388 138.146 175.697 138.455C176.006 138.661 176.314 138.764 176.829 138.764C177.446 138.764 178.063 138.558 178.578 138.146C178.886 137.838 179.195 137.22 179.195 136.294Z" fill="#486694"/>
<path d="M188.763 139.689H187.426V134.956C187.426 134.133 187.323 133.619 187.014 133.31C186.706 133.001 186.294 132.898 185.882 132.898C185.471 132.898 185.162 133.001 184.751 133.207C184.442 133.413 184.133 133.619 184.031 134.03C183.928 134.339 183.825 134.853 183.825 135.471V139.689H182.487V131.973H183.619V133.104C183.928 132.693 184.236 132.384 184.648 132.178C185.059 131.973 185.471 131.87 186.088 131.87C186.5 131.87 186.911 131.973 187.323 132.075C187.734 132.178 188.043 132.487 188.249 132.693C188.455 133.001 188.66 133.31 188.66 133.619C188.763 133.927 188.763 134.442 188.763 134.956V139.689Z" fill="#486694"/>
<path d="M196.994 139.689H195.76V138.66C195.245 139.483 194.628 139.792 193.599 139.792C192.673 139.792 191.85 139.38 191.233 138.66C190.615 137.94 190.307 136.911 190.307 135.779C190.307 134.545 190.615 133.516 191.233 132.796C191.85 132.076 192.57 131.664 193.599 131.664C194.525 131.664 195.245 131.973 195.657 132.693V128.886H196.994V139.689ZM193.805 138.763C194.422 138.763 194.834 138.557 195.245 138.043C195.657 137.529 195.862 136.911 195.862 135.882C195.862 134.956 195.657 134.236 195.348 133.619C194.936 133.104 194.422 132.796 193.805 132.796C193.085 132.796 192.57 133.104 192.261 133.619C191.953 134.133 191.747 134.854 191.747 135.779C191.747 136.397 191.85 136.911 192.056 137.426C192.261 137.837 192.467 138.249 192.879 138.454C193.085 138.66 193.393 138.763 193.805 138.763Z" fill="#486694"/>
<path d="M209.854 136.191H204.092C204.195 137.014 204.401 137.734 204.813 138.146C205.224 138.557 205.739 138.866 206.459 138.866C206.973 138.866 207.385 138.763 207.693 138.454C208.002 138.146 208.311 137.837 208.516 137.22L209.854 137.425C209.648 138.248 209.237 138.866 208.619 139.277C208.002 139.689 207.282 139.895 206.459 139.895C205.327 139.895 204.401 139.586 203.784 138.866C203.166 138.146 202.755 137.22 202.755 135.985C202.755 134.75 203.064 133.824 203.681 133.001C204.298 132.281 205.224 131.87 206.356 131.87C206.87 131.87 207.488 131.973 208.002 132.281C208.516 132.487 208.928 132.898 209.339 133.516C209.751 134.03 209.854 134.956 209.854 136.191ZM208.516 135.059C208.414 134.236 208.208 133.722 207.796 133.31C207.385 133.001 206.87 132.796 206.356 132.796C205.739 132.796 205.224 133.001 204.813 133.413C204.401 133.824 204.195 134.339 204.092 135.059H208.516Z" fill="#486694"/>
<path d="M213.25 139.689H211.81V138.249H213.25V139.689Z" fill="#486694"/>
<path d="M224.463 128.989L220.245 139.689H218.805L214.689 128.989H216.233L219.011 136.706C219.216 137.22 219.422 137.734 219.525 138.455C219.628 137.837 219.834 137.323 220.039 136.706L222.92 128.989H224.463Z" fill="#486694"/>
<path d="M225.492 139.689H223.949V138.249H225.39V139.689H225.492Z" fill="#486694"/>
<path d="M87.217 73.5352H76.1055V84.6466H87.217V73.5352Z" fill="#A0AAC8"/>
<path d="M87.217 91.7456H76.1055V102.857H87.217V91.7456Z" fill="#7486AD"/>
<path d="M87.217 110.779H76.1055V121.891H87.217V110.779Z" fill="#486694"/>
<path d="M87.217 128.99H76.1055V140.101H87.217V128.99Z" fill="#1A4B7E"/>
</svg>
