<svg xmlns="http://www.w3.org/2000/svg" width="297.009" height="59.095" viewBox="0 0 297.009 59.095">
  <g id="kvhb-logo_rgb" transform="translate(-167.6 -228.7)">
    <path id="Pfad_1" data-name="Pfad 1" d="M231.354,229.9l-6.682,25.257h-.123L217.684,229.9H192l-11.4,14.345h-.123V229.9H167.6v41.624h12.873V259.2l3.556-3.862,10.237,16.184h16l-17.532-25.379,12.751-13.793,11.709,39.172h14.345l13-41.624Z" transform="translate(0 -0.464)" fill="#1d1d1b"/>
    <g id="Gruppe_1" data-name="Gruppe 1" transform="translate(229.638 228.7)">
      <path id="Pfad_2" data-name="Pfad 2" d="M326.363,269.673c-.245,2.575-2.881,3.31-4.965,3.31h-7.234l1.962-6.253h6.559c2.329,0,3.985.49,3.678,2.943m-7.479,11.1c2.7,0,4.9.49,4.6,3.556-.368,3.372-3.556,4.23-5.885,4.23h-8.215l2.452-7.785h7.05Zm9.257-23.969H306.378l-4.536,14.467H290.133L294.67,256.8H281.8l-13,41.624h12.812l5.149-16.49H298.47l-5.149,16.49h24.337c9.073,0,17.532-3.985,18.575-13.977.368-3.862-1.655-7.54-5.456-8.337l.429-.123h-.368c5.149-1.349,8.153-4.782,8.7-10.054.674-5.946-2.391-9.134-11.4-9.134" transform="translate(-268.8 -239.574)" fill="#164193"/>
      <path id="Pfad_3" data-name="Pfad 3" d="M469.95,306.675v9.318h2.329v-5.272a2.565,2.565,0,0,1,.368-1.533,1.984,1.984,0,0,1,1.778-.8,1.621,1.621,0,0,1,1.41.613,2.743,2.743,0,0,1,.368,1.655v5.333h2.329v-5.885a4.4,4.4,0,0,0-.552-2.452,3.205,3.205,0,0,0-2.759-1.226,3.628,3.628,0,0,0-1.778.429,4.986,4.986,0,0,0-1.226.981v-1.165H469.95Zm-9.134,3.678a3.214,3.214,0,0,1,.429-1.471,1.757,1.757,0,0,1,1.655-.858,1.821,1.821,0,0,1,1.533.674,3.01,3.01,0,0,1,.368,1.655h-3.985Zm6.314,1.165a7.142,7.142,0,0,0-.552-3.126,3.646,3.646,0,0,0-3.617-1.962,4.568,4.568,0,0,0-3.494,1.41,4.919,4.919,0,0,0-1.165,3.494,5.132,5.132,0,0,0,1.1,3.433,4.365,4.365,0,0,0,3.556,1.471,4.6,4.6,0,0,0,2.881-.858,5.77,5.77,0,0,0,1.165-1.533l-2.023-.674a4.32,4.32,0,0,1-.674,1.1,1.618,1.618,0,0,1-1.165.429c-1.41,0-2.146-.92-2.268-2.82h6.375c-.123-.245-.123-.306-.123-.368M441.2,315.993h2.33v-5.272a2.511,2.511,0,0,1,.552-1.716,1.817,1.817,0,0,1,1.471-.613c1.165,0,1.716.674,1.716,2.084v5.517H449.6V310.66a2.537,2.537,0,0,1,.49-1.655,2.03,2.03,0,0,1,1.471-.613,1.552,1.552,0,0,1,1.349.552,2.565,2.565,0,0,1,.368,1.533v5.517h2.329V309.74a3.421,3.421,0,0,0-.8-2.391,3.282,3.282,0,0,0-2.452-.92,4.107,4.107,0,0,0-1.9.429,5.344,5.344,0,0,0-1.226.981,2.921,2.921,0,0,0-1.226-1.1,4.1,4.1,0,0,0-1.594-.307,4.681,4.681,0,0,0-1.655.307,6.318,6.318,0,0,0-1.226.92v-1.042H441.2Zm-9.134-5.64a3.214,3.214,0,0,1,.429-1.471,1.757,1.757,0,0,1,1.655-.858,1.821,1.821,0,0,1,1.533.674,3.01,3.01,0,0,1,.368,1.655h-3.985Zm6.314,1.165a7.142,7.142,0,0,0-.552-3.126,3.646,3.646,0,0,0-3.617-1.962,4.568,4.568,0,0,0-3.494,1.41,4.919,4.919,0,0,0-1.165,3.494,5.131,5.131,0,0,0,1.1,3.433,4.365,4.365,0,0,0,3.555,1.471,4.6,4.6,0,0,0,2.881-.858,5.77,5.77,0,0,0,1.165-1.533l-2.023-.674a4.32,4.32,0,0,1-.674,1.1,1.618,1.618,0,0,1-1.165.429c-1.41,0-2.146-.92-2.268-2.82H438.5c-.123-.245-.123-.306-.123-.368m-16.674,4.475h2.329v-4.6a3.716,3.716,0,0,1,.674-2.146,1.612,1.612,0,0,1,1.349-.736,1.478,1.478,0,0,1,.92.245,1.957,1.957,0,0,1,.429.368l.858-2.084a3,3,0,0,0-.674-.429,2.888,2.888,0,0,0-1.042-.245,2.444,2.444,0,0,0-1.471.429,5.732,5.732,0,0,0-1.1,1.226v-1.41h-2.268Zm-10.054-6.314h1.226a5.9,5.9,0,0,1,1.839.184A1.89,1.89,0,0,1,416,311.824a2.139,2.139,0,0,1-.736,1.716,3.455,3.455,0,0,1-2.146.552h-1.41v-4.414Zm0-5.64h1.41a3.2,3.2,0,0,1,1.778.368,1.551,1.551,0,0,1,.613,1.41,1.937,1.937,0,0,1-.736,1.655,3.547,3.547,0,0,1-2.023.429h-.981v-3.862Zm2.268,11.954c1.9,0,3.31-.552,4.046-1.716a3.955,3.955,0,0,0,.736-2.391,3.178,3.178,0,0,0-1.349-2.82,4.137,4.137,0,0,0-1.165-.552c.245-.184.49-.307.613-.429a2.886,2.886,0,0,0,.8-.92,3.3,3.3,0,0,0,.49-1.716,2.931,2.931,0,0,0-1.349-2.636,5.032,5.032,0,0,0-2.881-.613H409.2v13.854h4.72Z" transform="translate(-323.132 -257.143)" fill="#1d1d1b"/>
      <path id="Pfad_4" data-name="Pfad 4" d="M515.624,273.024a3.757,3.757,0,0,1,.49,2.084,4.363,4.363,0,0,1-.49,2.084,2.015,2.015,0,0,1-1.839,1.042,1.872,1.872,0,0,1-1.778-.981,3.99,3.99,0,0,1-.552-2.146,4.142,4.142,0,0,1,.552-2.146,2.123,2.123,0,0,1,3.617.061m.49-2.575v1.1a2.885,2.885,0,0,0-.858-.736,3.647,3.647,0,0,0-1.962-.552,4.6,4.6,0,0,0-1.594.306,3.763,3.763,0,0,0-1.471,1.042,6.009,6.009,0,0,0,0,7.111,3.949,3.949,0,0,0,3,1.349,3.628,3.628,0,0,0,1.778-.429,5.431,5.431,0,0,0,1.1-.858v.8a4.239,4.239,0,0,1-.368,2.023,2.117,2.117,0,0,1-2.023,1.165,2.208,2.208,0,0,1-2.207-1.9l-2.084.981a4.421,4.421,0,0,0,1.287,1.839,4.6,4.6,0,0,0,2.881.858,4.713,4.713,0,0,0,3.923-1.655,5.009,5.009,0,0,0,.981-3.126V270.51h-2.391Zm-18.452,0v9.318h2.329V274.5a2.565,2.565,0,0,1,.368-1.533,1.984,1.984,0,0,1,1.778-.8,1.621,1.621,0,0,1,1.41.613,2.743,2.743,0,0,1,.368,1.655v5.333h2.329v-5.885a4.4,4.4,0,0,0-.552-2.452,3.205,3.205,0,0,0-2.759-1.226,3.25,3.25,0,0,0-1.716.429,4.986,4.986,0,0,0-1.226.981v-1.165h-2.329Zm-3.31,9.318v-9.318h-2.329v5.211a2.767,2.767,0,0,1-.061.8,1.714,1.714,0,0,1-.674,1.1,2.089,2.089,0,0,1-1.349.429c-1.226,0-1.839-.8-1.839-2.329v-5.272H485.77v5.64a9.645,9.645,0,0,0,.123,1.533,2.675,2.675,0,0,0,1.41,1.9,3.628,3.628,0,0,0,1.778.429,3.251,3.251,0,0,0,1.716-.429,4.9,4.9,0,0,0,1.165-.981v1.165h2.391ZM479.7,273.024a3.757,3.757,0,0,1,.49,2.084,4.363,4.363,0,0,1-.49,2.084,2.015,2.015,0,0,1-1.839,1.042,1.872,1.872,0,0,1-1.778-.981,3.99,3.99,0,0,1-.552-2.146,4.141,4.141,0,0,1,.552-2.146,2.057,2.057,0,0,1,1.778-.981,2.218,2.218,0,0,1,1.839,1.042m.429-2.575v1.1a2.886,2.886,0,0,0-.858-.736,3.647,3.647,0,0,0-1.962-.552,4.6,4.6,0,0,0-1.594.306,3.762,3.762,0,0,0-1.471,1.042,6.009,6.009,0,0,0,0,7.111,3.949,3.949,0,0,0,3,1.349,3.628,3.628,0,0,0,1.778-.429,5.435,5.435,0,0,0,1.1-.858v.8a4.239,4.239,0,0,1-.368,2.023,2.117,2.117,0,0,1-2.023,1.165,2.208,2.208,0,0,1-2.207-1.9l-2.084.981a4.42,4.42,0,0,0,1.287,1.839,4.6,4.6,0,0,0,2.881.858,4.713,4.713,0,0,0,3.923-1.655,5.009,5.009,0,0,0,.981-3.126V270.51H480.13ZM468.054,266.1a1.447,1.447,0,0,0-.429.981,1.345,1.345,0,0,0,.429,1.042,1.492,1.492,0,0,0,1.962,0,1.447,1.447,0,0,0,.429-.981,1.143,1.143,0,0,0-.429-.981,1.392,1.392,0,0,0-.981-.368,1.075,1.075,0,0,0-.981.307m-.123,13.67h2.329v-9.318h-2.329ZM456.1,270.449v9.318h2.329V274.5a2.564,2.564,0,0,1,.368-1.533,1.984,1.984,0,0,1,1.778-.8,1.621,1.621,0,0,1,1.41.613,2.743,2.743,0,0,1,.368,1.655v5.333h2.33v-5.885a4.4,4.4,0,0,0-.552-2.452,3.205,3.205,0,0,0-2.759-1.226,3.628,3.628,0,0,0-1.778.429,4.985,4.985,0,0,0-1.226.981v-1.165H456.1Zm-5.517-4.352a1.447,1.447,0,0,0-.429.981,1.345,1.345,0,0,0,.429,1.042,1.492,1.492,0,0,0,1.962,0,1.447,1.447,0,0,0,.429-.981,1.143,1.143,0,0,0-.429-.981,1.392,1.392,0,0,0-.981-.368,1.075,1.075,0,0,0-.981.307m-.123,13.67h2.329v-9.318H450.46Zm-9.134-5.7a3.213,3.213,0,0,1,.429-1.471,2.05,2.05,0,0,1,3.188-.184,3.009,3.009,0,0,1,.368,1.655h-3.985Zm6.314,1.226a7.142,7.142,0,0,0-.552-3.126,3.646,3.646,0,0,0-3.617-1.962,4.568,4.568,0,0,0-3.494,1.41,4.919,4.919,0,0,0-1.165,3.494,5.132,5.132,0,0,0,1.1,3.433,4.365,4.365,0,0,0,3.556,1.471,4.6,4.6,0,0,0,2.881-.858,5.771,5.771,0,0,0,1.165-1.533l-2.023-.674a4.318,4.318,0,0,1-.674,1.1,1.618,1.618,0,0,1-1.165.429c-1.41,0-2.146-.92-2.268-2.82h6.375c-.123-.245-.123-.306-.123-.368m-16.613,4.475h2.329v-4.6a3.716,3.716,0,0,1,.674-2.146,1.613,1.613,0,0,1,1.349-.736,1.477,1.477,0,0,1,.919.245,1.955,1.955,0,0,1,.429.368l.858-2.084a3,3,0,0,0-.674-.429,2.888,2.888,0,0,0-1.042-.245,2.444,2.444,0,0,0-1.471.429,5.73,5.73,0,0,0-1.1,1.226v-1.41h-2.268Zm-9.134-5.7a3.213,3.213,0,0,1,.429-1.471,1.757,1.757,0,0,1,1.655-.858,1.821,1.821,0,0,1,1.533.674,3.009,3.009,0,0,1,.368,1.655h-3.985Zm6.314,1.226a7.141,7.141,0,0,0-.552-3.126,3.646,3.646,0,0,0-3.617-1.962,4.568,4.568,0,0,0-3.494,1.41,4.919,4.919,0,0,0-1.165,3.494,5.132,5.132,0,0,0,1.1,3.433,4.365,4.365,0,0,0,3.556,1.471,4.6,4.6,0,0,0,2.881-.858,5.772,5.772,0,0,0,1.165-1.533l-2.023-.674a4.319,4.319,0,0,1-.674,1.1,1.618,1.618,0,0,1-1.165.429c-1.41,0-2.146-.92-2.268-2.82h6.375c-.123-.245-.123-.306-.123-.368M406.2,265.913l5.027,13.854h2.207l5.762-13.854h-2.452l-4.23,10.36-3.678-10.36Z" transform="translate(-321.971 -243.047)" fill="#1d1d1b"/>
      <path id="Pfad_5" data-name="Pfad 5" d="M551.666,237.589a3.214,3.214,0,0,1,.429-1.471,2.05,2.05,0,0,1,3.188-.184,3.009,3.009,0,0,1,.368,1.655Zm6.314,1.226a7.142,7.142,0,0,0-.552-3.126,3.646,3.646,0,0,0-3.617-1.962,4.568,4.568,0,0,0-3.494,1.41,4.919,4.919,0,0,0-1.165,3.494,5.131,5.131,0,0,0,1.1,3.433,4.365,4.365,0,0,0,3.556,1.471,4.6,4.6,0,0,0,2.881-.858,5.772,5.772,0,0,0,1.165-1.533l-2.023-.674a4.322,4.322,0,0,1-.674,1.1A1.618,1.618,0,0,1,554,242c-1.41,0-2.146-.92-2.268-2.82H558.1a.949.949,0,0,1-.123-.368m-20.168-10.054v14.59h2.329v-5.272a2.564,2.564,0,0,1,.368-1.533,1.984,1.984,0,0,1,1.778-.8,1.621,1.621,0,0,1,1.41.613,2.743,2.743,0,0,1,.368,1.655v5.333h2.329v-5.885a4.4,4.4,0,0,0-.552-2.452,3.205,3.205,0,0,0-2.759-1.226,3.25,3.25,0,0,0-1.716.429,4.985,4.985,0,0,0-1.226.981v-6.375h-2.329Zm-2.636,7.172a2.544,2.544,0,0,0-.736-1.226,4.229,4.229,0,0,0-3-.981,4.356,4.356,0,0,0-3.494,1.349,5.214,5.214,0,0,0-1.226,3.556,5.106,5.106,0,0,0,1.226,3.556,4.344,4.344,0,0,0,3.372,1.287,4.223,4.223,0,0,0,3.494-1.41,3.974,3.974,0,0,0,.613-1.349l-2.207-.613a3,3,0,0,1-.49,1.165,1.583,1.583,0,0,1-1.287.552,1.73,1.73,0,0,1-1.594-.8,4.078,4.078,0,0,1-.613-2.391,4.362,4.362,0,0,1,.674-2.513,1.937,1.937,0,0,1,1.655-.736,1.338,1.338,0,0,1,1.287.613,3.22,3.22,0,0,1,.368,1.287l2.146-.736c-.061-.245-.123-.429-.184-.613M521.69,229.62a1.447,1.447,0,0,0-.429.981,1.345,1.345,0,0,0,.429,1.042,1.492,1.492,0,0,0,1.962,0,1.447,1.447,0,0,0,.429-.981,1.143,1.143,0,0,0-.429-.981,1.392,1.392,0,0,0-.981-.368,1.131,1.131,0,0,0-.981.307m-.123,13.67H523.9v-9.318h-2.329Zm-5.64,0h2.329V228.7h-2.329Zm-7.295-11.647v2.329h-1.41v1.9h1.41v3.678a6.87,6.87,0,0,0,.368,2.636,2.635,2.635,0,0,0,2.636,1.287,8.467,8.467,0,0,0,1.533-.184l.307-1.839a6.439,6.439,0,0,1-.8.123c-.92,0-1.533-.307-1.655-.981a5.578,5.578,0,0,1-.123-1.287v-3.433h2.391v-1.9H510.9v-3.188Zm-11.1,4.23h4.843l-5.333,5.762v1.716h8.521v-1.9h-5.456l5.211-5.64v-1.778H497.6v1.839Zm-8.4,7.418h2.329v-4.6a3.716,3.716,0,0,1,.674-2.146,1.612,1.612,0,0,1,1.349-.736,1.478,1.478,0,0,1,.92.245,1.956,1.956,0,0,1,.429.368l.858-2.084a3,3,0,0,0-.674-.429,2.888,2.888,0,0,0-1.042-.245,2.444,2.444,0,0,0-1.471.429,5.731,5.731,0,0,0-1.1,1.226v-1.41h-2.268Zm-6.621-13.609a1.247,1.247,0,0,0-.368.92,1.5,1.5,0,0,0,.368.981,1.3,1.3,0,1,0,.92-2.207,1.012,1.012,0,0,0-.92.307m-4.046,0a1.247,1.247,0,0,0-.368.92,1.5,1.5,0,0,0,.368.981,1.3,1.3,0,0,0,1.839-1.839,1.21,1.21,0,0,0-.858-.368,1.075,1.075,0,0,0-.981.307m4.6,6.866a3.757,3.757,0,0,1,.49,2.084,4.362,4.362,0,0,1-.49,2.084,2.123,2.123,0,0,1-3.617.061,3.99,3.99,0,0,1-.552-2.146,3.774,3.774,0,0,1,.552-2.084,2.057,2.057,0,0,1,1.778-.981,2.029,2.029,0,0,1,1.839.981m.429-2.575v1.1a3.733,3.733,0,0,0-.858-.858,2.955,2.955,0,0,0-1.839-.49,4.041,4.041,0,0,0-3.188,1.349,6.009,6.009,0,0,0,0,7.111,3.949,3.949,0,0,0,3,1.349,3.628,3.628,0,0,0,1.778-.429,3.38,3.38,0,0,0,1.1-.858v1.1h2.329v-9.318H483.5Zm-18.452,0v9.318h2.329v-5.272a2.564,2.564,0,0,1,.368-1.533,1.984,1.984,0,0,1,1.778-.8,1.621,1.621,0,0,1,1.41.613,2.743,2.743,0,0,1,.368,1.655v5.333h2.329V237.4a4.4,4.4,0,0,0-.552-2.452,3.205,3.205,0,0,0-2.759-1.226,3.628,3.628,0,0,0-1.778.429,4.986,4.986,0,0,0-1.226.981v-1.165h-2.268Zm-9.134,3.617a3.213,3.213,0,0,1,.429-1.471,1.757,1.757,0,0,1,1.655-.858,1.821,1.821,0,0,1,1.533.674,3.01,3.01,0,0,1,.368,1.655Zm6.314,1.226a7.141,7.141,0,0,0-.552-3.126,3.646,3.646,0,0,0-3.617-1.962,4.568,4.568,0,0,0-3.494,1.41,4.919,4.919,0,0,0-1.165,3.494,5.132,5.132,0,0,0,1.1,3.433,4.365,4.365,0,0,0,3.556,1.471,4.6,4.6,0,0,0,2.881-.858,5.771,5.771,0,0,0,1.165-1.533l-2.023-.674a4.32,4.32,0,0,1-.674,1.1,1.618,1.618,0,0,1-1.165.429c-1.41,0-2.146-.92-2.268-2.82h6.375a.949.949,0,0,1-.123-.368M450.15,234.4a4.435,4.435,0,0,0-2.575-.674,3.752,3.752,0,0,0-3.249,1.287,2.879,2.879,0,0,0-.49,1.594,2.21,2.21,0,0,0,.368,1.226,2.939,2.939,0,0,0,1.533,1.1c.245.061.613.184,1.1.307.736.184,1.165.368,1.41.429a.911.911,0,0,1,.49.858,1.1,1.1,0,0,1-.429.92,1.767,1.767,0,0,1-1.165.368c-.981,0-1.594-.552-1.962-1.655l-2.084.674a3.816,3.816,0,0,0,.736,1.41,3.884,3.884,0,0,0,3.126,1.226,4.987,4.987,0,0,0,3.126-.92,2.733,2.733,0,0,0,1.042-2.207,2.34,2.34,0,0,0-.981-2.023,5.725,5.725,0,0,0-2.146-.736,5.7,5.7,0,0,1-1.287-.368.933.933,0,0,1-.184-1.594,1.753,1.753,0,0,1,1.042-.307,1.66,1.66,0,0,1,1.165.368,2,2,0,0,1,.368.736l2.023-.858a4.694,4.694,0,0,0-.981-1.165m-10.115,0a4.435,4.435,0,0,0-2.575-.674,3.752,3.752,0,0,0-3.249,1.287,2.879,2.879,0,0,0-.49,1.594,2.21,2.21,0,0,0,.368,1.226,2.939,2.939,0,0,0,1.533,1.1c.245.061.613.184,1.1.307.736.184,1.165.368,1.41.429a.911.911,0,0,1,.49.858,1.1,1.1,0,0,1-.429.92,1.767,1.767,0,0,1-1.165.368c-.981,0-1.594-.552-1.962-1.655l-2.084.674a3.816,3.816,0,0,0,.736,1.41,3.884,3.884,0,0,0,3.126,1.226,4.987,4.987,0,0,0,3.126-.92,2.569,2.569,0,0,0,1.042-2.207,2.339,2.339,0,0,0-.981-2.023,5.725,5.725,0,0,0-2.146-.736,5.7,5.7,0,0,1-1.287-.368.933.933,0,0,1-.184-1.594,1.753,1.753,0,0,1,1.042-.307,1.66,1.66,0,0,1,1.165.368,2,2,0,0,1,.368.736l2.023-.858a4.693,4.693,0,0,0-.981-1.165m-12.26,2.146a3.757,3.757,0,0,1,.49,2.084,4.362,4.362,0,0,1-.49,2.084,2.123,2.123,0,0,1-3.617.061,3.99,3.99,0,0,1-.552-2.146,3.774,3.774,0,0,1,.552-2.084,2.057,2.057,0,0,1,1.778-.981,1.906,1.906,0,0,1,1.839.981m.49-2.575v1.1a5.535,5.535,0,0,0-.858-.858,2.955,2.955,0,0,0-1.839-.49,4.041,4.041,0,0,0-3.188,1.349,6.009,6.009,0,0,0,0,7.111,3.949,3.949,0,0,0,3,1.349,3.628,3.628,0,0,0,1.778-.429,3.38,3.38,0,0,0,1.1-.858v1.1h2.329v-9.318h-2.329ZM409.2,229.436V243.29h2.452v-6.5l5.517,6.5h3.249l-6.314-7.418,5.64-6.437h-2.881l-5.272,6.069v-6.069Z" transform="translate(-323.132 -228.7)" fill="#1d1d1b"/>
    </g>
  </g>
</svg>
