<svg aria-label="Kassenärztliche Vereinigung Brandenburg" xmlns="http://www.w3.org/2000/svg" viewBox="0 0 483.72 175.19">
    <defs>
        <style>.cls-1{fill:#005194;}.cls-2{fill:#d4003c;}</style>
    </defs>
    <path class="cls-1"
          d="M290.571,10.032c-9.329.245-6.126.05-12.566.257s-9.931,1.739-11.345,7.546c-1.268,5.141-7.968,36.615-14.422,59.694-8.959-36.029-15.555-67.367-15.555-67.367l-1.038-.494s-10.529.456-17.462.571c-10.458.18-14.582.038-23.431.154l-.805.363c-1.919,3.563-24.54,36.719-24.54,36.719.1-5.482.1-10.981.234-16.33.219-6.921.464-13.724.591-20.519l-.591-.591c-3.7.13-7.392.245-10.964.361H147.061l-.739.591c1.182,16.1,1.324,32.192,1.324,48.291,0,11.679-.13,23.357-.482,34.927l.716.712c2.862-.118,5.842-.23,8.707-.36,5.251-.1,8.036-.1,13.284,0l.846-.7c-.225-2.995-.479-5.973-.591-8.959-.246-3.447-.246-6.9-.246-10.484-.091-7.749-.349-15.5-.452-23.251,0,0,15.079,25.536,22.071,37.511a11.307,11.307,0,0,0,11.954,6.6c6.62-.325,10.662-.591,17.338-.751l.349-.949c-4.494-6.62-3.915-6.324-29.759-46.913,2.661-4.139,14.662-20.776,21.8-29.995,7.413,19.886,21.605,71.6,23.574,77.544l.91.712c5.027-.118,5.1-.23,10.289-.36,6.079-.1,9.757,0,15.81,0l1.182-.7c2.984-8.35,21.489-71.178,26.374-83.363Z"/>
    <path class="cls-1"
          d="M160.206,118.16c-1.676,1.93-4.654,5.523-6.753,8.178,2.46,3.4,5.056,6.714,7.711,9.964l-.168.3c-1.517,0-1.686,0-3.371.065l-.231-.156c-1.454-2.141-6.433-8.708-7.119-9.577,0,1.31.026,6.259.221,9.461l-.153.2c-1.5,0-1.558,0-2.916.065l-.13-.18c.089-2.892.089-3.477.089-10.73,0-3.914-.05-5.472-.195-7.56l.145-.18c1.41-.024,1.644-.024,2.939-.077l.142.18c-.142,4.069-.142,4.849-.142,8.4.221-.233.417-.508.65-.763.13-.156,4.731-5.874,5.9-7.586l.221-.154c1.479,0,1.606-.024,2.993-.077Z"/>
    <path class="cls-1"
          d="M170.3,129.256c-2.661.384-5.133.763-5.133,3.095a2.316,2.316,0,0,0,2.224,2.4,2.147,2.147,0,0,0,.266,0,4.185,4.185,0,0,0,2.888-1.153v-4.408Zm2.942,1.928a49.459,49.459,0,0,0,.157,5.236l-.13.142c-1.233.041-1.426.056-2.661.1l-.1-.151.035-.952a5.672,5.672,0,0,1-3.689,1.352,4.238,4.238,0,0,1-4.471-3.99c-.007-.139-.009-.277,0-.416,0-3.512,2.957-4.639,7.687-5.2l.456-.065a3.447,3.447,0,0,0-.222-1.617,2.279,2.279,0,0,0-2.179-.976,9.523,9.523,0,0,0-4.015.988l-.2-.118c.038-1.219.038-1.39.065-1.934l.168-.154a13.5,13.5,0,0,1,4.536-.869,4.068,4.068,0,0,1,4.405,2.711,19.161,19.161,0,0,1,.169,3.291Z"/>
    <path class="cls-1"
          d="M183.017,128.614a4.14,4.14,0,0,1,3.447,3.95,3.824,3.824,0,0,1-1.478,3.087,6.386,6.386,0,0,1-4.2,1.269,9.766,9.766,0,0,1-3.589-.66,4.232,4.232,0,0,1-.405-.171l-.127-.219c.088-1.038.088-1.168.153-2.229l.261-.063a5.714,5.714,0,0,0,3.669,1.254c2.07,0,2.838-1.153,2.838-1.984,0-1.182-1.156-1.605-2.746-2.123L180,130.43a4.09,4.09,0,0,1-3.448-3.811c0-2.709,2.383-4.057,5.322-4.057a10.636,10.636,0,0,1,3.8.739l.13.195c-.119.973-.13,1.065-.234,2.07l-.222.092a5.91,5.91,0,0,0-3.406-1.035,4.29,4.29,0,0,0-1.117.127,1.7,1.7,0,0,0-1.44,1.585c0,1.114,1.064,1.463,2.685,1.966Z"/>
    <path class="cls-1"
          d="M195.053,128.614a4.141,4.141,0,0,1,3.436,3.95,3.844,3.844,0,0,1-1.479,3.087,6.426,6.426,0,0,1-4.21,1.269,9.755,9.755,0,0,1-3.574-.666l-.417-.171-.1-.219c.089-1.038.089-1.168.154-2.229l.26-.062a5.6,5.6,0,0,0,3.628,1.253c2.114,0,2.85-1.153,2.85-1.984,0-1.182-1.123-1.605-2.732-2.123l-.828-.295a4.057,4.057,0,0,1-3.45-3.811c0-2.709,2.348-4.057,5.3-4.057a10.167,10.167,0,0,1,3.785.739l.156.195c-.121.973-.156,1.065-.218,2.07l-.249.092a5.851,5.851,0,0,0-3.382-1.035,4.389,4.389,0,0,0-1.13.127,1.728,1.728,0,0,0-1.448,1.585c0,1.114,1.088,1.463,2.708,1.966Z"/>
    <path class="cls-1"
          d="M210.026,126.521a2.936,2.936,0,0,0-2.868-2.046,3.58,3.58,0,0,0-3.486,3.613c3.2.024,4.175,0,6.623-.015a7.107,7.107,0,0,0-.269-1.552m2.46,6.868c-.142,1.038-.169,1.307-.234,2.33l-.154.183a8.554,8.554,0,0,1-4.21,1.012,6.446,6.446,0,0,1-7.04-7.052,6.46,6.46,0,0,1,5.569-7.243,6.666,6.666,0,0,1,.847-.054,5.471,5.471,0,0,1,4.314,1.83A8.4,8.4,0,0,1,213,129.942l-.192.151c-4.095-.024-4.8-.024-9.139,0a5.318,5.318,0,0,0,1,3.293,4.317,4.317,0,0,0,3.412,1.414,6.722,6.722,0,0,0,2.277-.4,6.251,6.251,0,0,0,1.892-1.141Z"/>
    <path class="cls-1"
          d="M228,136.562c-1.259.044-1.4.044-2.62.106l-.195-.18c0-.3.027-.591.027-.869.038-1.284.038-2.567.038-3.865a22.557,22.557,0,0,0-.168-4.872,2.288,2.288,0,0,0-2.365-2,5.768,5.768,0,0,0-3.5,1.478c-.039,4.577.026,6.975.219,10.053l-.151.154c-1.3.044-1.5.044-2.762.106l-.156-.18c.026-1.479.091-2.892.091-4.837,0-4.214-.195-6.44-.328-8.217l.172-.18c1.309-.234,1.552-.3,2.785-.518l.2.178-.042,1.378a7.9,7.9,0,0,1,4.639-1.647,4.408,4.408,0,0,1,2.162.505,3.706,3.706,0,0,1,1.534,1.712,8.449,8.449,0,0,1,.414,3.211v3.075c.065,3.069.1,4.263.169,5.26Z"/>
    <path class="cls-1"
          d="M241.774,117.707c0,.958,0,1.345.027,2.605l-.166.222h-2.826l-.142-.21c.026-1.215.026-1.579,0-2.605l.221-.18c1.1.026,1.426.026,2.724-.027Zm-2.433,11.549c-2.661.384-5.121.763-5.121,3.095a2.32,2.32,0,0,0,2.235,2.4,2.41,2.41,0,0,0,.269-.006,4.042,4.042,0,0,0,2.847-1.153v-4.408Zm-2.957-11.531c-.041,1.271-.041,1.659,0,2.605l-.168.21c-1.387,0-1.594,0-2.786.053l-.156-.21a17.066,17.066,0,0,0,0-2.578l.222-.234c1.295.024,1.528,0,2.708-.053Zm5.913,13.453a50.115,50.115,0,0,0,.148,5.242l-.13.142c-1.242.041-1.449.056-2.661.1l-.1-.151v-.952a5.585,5.585,0,0,1-3.664,1.352,4.243,4.243,0,0,1-4.47-4c-.007-.134-.008-.268,0-.4,0-3.512,2.957-4.639,7.661-5.2l.47-.065a3.077,3.077,0,0,0-.252-1.617,2.27,2.27,0,0,0-2.176-.976,9.6,9.6,0,0,0-4.006.988l-.2-.13c.065-1.207.065-1.378.065-1.922l.166-.154a13.775,13.775,0,0,1,4.547-.869,4.028,4.028,0,0,1,4.4,2.711,16.63,16.63,0,0,1,.195,3.291Z"/>
    <path class="cls-1"
          d="M252.628,125.637a3.017,3.017,0,0,0-1.053-.219,2.044,2.044,0,0,0-1.114.337c-1.076.766-1.076,1.907-1.076,4.651,0,2.98.076,4.524.2,6l-.13.192c-1.245,0-1.517.015-2.786.065l-.141-.157c0-2.01.065-3.822.065-6.259a52.8,52.8,0,0,0-.249-6.818l.172-.18c.97-.181,1.632-.3,2.72-.521l.154.157-.128,2.232a3.287,3.287,0,0,1,3.211-2.519,2.756,2.756,0,0,1,.74.083l.106.154c-.26,1.254-.325,1.514-.5,2.661Z"/>
    <path class="cls-1"
          d="M264.588,136.6l-5.157.015c-3.072,0-3.4,0-5,.05l-.119-.248c1.984-3.306,5.183-8.914,6.5-11.457-3.474.029-4.11.029-5.771.1l-.151-.153a14.732,14.732,0,0,0,.18-1.816l.169-.153c4.408,0,4.925,0,9.488-.08l.13.207c-2.333,3.843-5.665,10.111-6.39,11.43,2.28,0,4.509-.074,6.31-.154l.127.154c-.112.828-.127,1.183-.177,1.957Z"/>
    <path class="cls-1"
          d="M273.88,134.5a16.656,16.656,0,0,0-.1,1.827l-.154.16a7.086,7.086,0,0,1-1.96.245,3.374,3.374,0,0,1-3.1-1.386c-.479-.766-.479-1.387-.479-4.5l.08-5.781c-.946,0-.946.027-1.919.054l-.091-.157a18.324,18.324,0,0,0,.065-1.889l.153-.16c.592,0,.908.029,1.792,0-.038-.556-.038-1.138-.038-1.682s-.065-1-.092-1.5l.157-.184c1.165-.3,1.478-.363,2.7-.724l.157.13c-.08,1.721-.106,2.07-.106,3.991,1.114-.029,1.4-.029,2.927-.079l.13.156a15.97,15.97,0,0,0-.065,1.869l-.142.154c-1.322-.024-1.479-.054-2.877-.054l-.024,4.9v2.176c0,1.919.219,2.516,1.552,2.516a3.277,3.277,0,0,0,1.257-.237Z"/>
    <path class="cls-1"
          d="M279.48,136.562c-1.271.044-1.528.056-2.761.106l-.145-.18c.065-1.857.145-4.24.145-9.281,0-3.643,0-7.531-.257-10.9l.112-.148c1.3-.216,1.561-.269,2.88-.556l.13.183c-.157,3.448-.157,6.922-.157,10.369,0,5.757.065,7.753.195,10.251Z"/>
    <path class="cls-1"
          d="M286.686,119.082a28.721,28.721,0,0,0-2.916.207l-.171-.171c.027-.338.027-.71.027-1.047,0-.47-.027-.887-.054-1.413l.2-.157c1.36-.1,1.579-.142,2.916-.272l.139.168v2.5Zm-.039,17.48c-1.363.044-1.582.044-2.877.106l-.115-.18c.074-1.4.139-2.608.139-5.523a53.056,53.056,0,0,0-.26-7.531l.13-.18c1.141-.18,1.529-.234,2.853-.518l.26.154c-.065,1.375-.156,2.774-.156,6.183,0,4.887.065,5.558.156,7.335Z"/>
    <path class="cls-1"
          d="M300.774,133.466c-.092,1.115-.13,1.245-.207,2.333l-.171.207a7.657,7.657,0,0,1-3.634.887,6.413,6.413,0,0,1-6.577-6.245,6.485,6.485,0,0,1,.022-.724,6.668,6.668,0,0,1,5.962-7.305q.318-.031.637-.033a8.467,8.467,0,0,1,3.59.857l.115.166c-.115.961-.115,1.3-.18,2.069l-.219.119a4.94,4.94,0,0,0-2.907-1.023c-2.187,0-4.1,1.682-4.1,5.026,0,3.589,2.022,4.872,4.083,4.872a5.249,5.249,0,0,0,3.385-1.309Z"/>
    <path class="cls-1"
          d="M315.132,136.562c-1.266.044-1.423.044-2.632.106l-.189-.18.035-.869v-6.954a8.109,8.109,0,0,0-.13-1.774,2.3,2.3,0,0,0-2.365-2,5.956,5.956,0,0,0-3.524,1.478c-.039,4.577.026,6.975.195,10.053l-.13.153c-1.218.045-1.541.045-2.842.107l-.115-.18c.044-1.857.115-4.24.115-9.281,0-2.218,0-4.435-.05-6.638-.065-2.306-.115-3.069-.207-4.261l.142-.147c1.271-.216,1.688-.3,2.853-.556l.169.183c-.169,2.812-.169,5.65-.169,8.5a8.394,8.394,0,0,1,4.731-1.646,4.5,4.5,0,0,1,1.75.325,3.584,3.584,0,0,1,2.176,2.486,17.223,17.223,0,0,1,.16,2.617v3.075l.033,1.23c.065,2.2.065,2.575.156,4.03Z"/>
    <path class="cls-1"
          d="M327.833,126.521a2.926,2.926,0,0,0-2.888-2.046,3.548,3.548,0,0,0-3.445,3.613c3.185.024,4.169,0,6.6-.015a5.8,5.8,0,0,0-.264-1.552m2.451,6.868a17.5,17.5,0,0,0-.221,2.33l-.154.183a8.568,8.568,0,0,1-4.213,1.012,6.416,6.416,0,0,1-7-7.052,6.419,6.419,0,0,1,5.481-7.237,6.5,6.5,0,0,1,.882-.06,5.459,5.459,0,0,1,4.329,1.83,8.5,8.5,0,0,1,1.428,5.547l-.195.154c-4.122-.024-4.835-.024-9.122,0a4.853,4.853,0,0,0,1.008,3.293,4.231,4.231,0,0,0,3.383,1.414,6.541,6.541,0,0,0,2.271-.4,6.359,6.359,0,0,0,1.9-1.141Z"/>
    <path class="cls-1"
          d="M350.067,136.6c-1.774,0-1.927.015-3.82.065l-.183-.183q-1.247-4.436-2.605-8.87c-.452-1.478-2.761-8.956-2.891-9.42l.13-.18c1.478,0,1.685-.027,3.019-.077l.195.18c.467,1.816.609,2.487,2.2,8.32l2.3,8.279,2.321-8.243c.763-2.75,1.543-5.494,2.279-8.279l.142-.18c1.283,0,1.39,0,2.646-.077l.131.18c-.417,1.322-2.463,7.838-2.88,9.317-.887,2.634-1.748,5.274-2.513,7.906-.116.352-.21.689-.323,1.064Z"/>
    <path class="cls-1"
          d="M365.64,126.521a2.921,2.921,0,0,0-2.85-2.046,3.581,3.581,0,0,0-3.5,3.613c3.214.024,4.19,0,6.611-.015a4.558,4.558,0,0,0-.26-1.552m2.463,6.868c-.142,1.038-.157,1.307-.222,2.33l-.168.183a8.478,8.478,0,0,1-4.2,1.012,6.424,6.424,0,0,1-7.01-7.052,6.423,6.423,0,0,1,6.389-7.3,5.425,5.425,0,0,1,4.3,1.83,8.35,8.35,0,0,1,1.428,5.547l-.2.154c-4.092-.024-4.792-.024-9.136,0a5.357,5.357,0,0,0,1.011,3.293,4.325,4.325,0,0,0,3.4,1.414,6.892,6.892,0,0,0,2.306-.4,6.325,6.325,0,0,0,1.877-1.141Z"/>
    <path class="cls-1"
          d="M378.123,125.637a3.108,3.108,0,0,0-1.038-.219,2.117,2.117,0,0,0-1.141.337c-1.064.766-1.064,1.907-1.064,4.651,0,2.98.094,4.524.195,6l-.13.192c-1.269,0-1.541.015-2.824.065l-.13-.157c.053-2.01.068-3.822.068-6.259a57.9,57.9,0,0,0-.225-6.818l.157-.18c1.011-.181,1.62-.3,2.726-.521l.163.157-.128,2.232a3.286,3.286,0,0,1,3.2-2.519,2.951,2.951,0,0,1,.754.083l.076.154c-.245,1.254-.295,1.514-.49,2.661Z"/>
    <path class="cls-1"
          d="M389.749,126.521a2.9,2.9,0,0,0-2.854-2.046,3.548,3.548,0,0,0-3.462,3.613c3.176.024,4.178,0,6.611-.015a6.217,6.217,0,0,0-.295-1.552m2.459,6.868q-.159,1.159-.2,2.33l-.183.183a8.34,8.34,0,0,1-4.2,1.012,6.434,6.434,0,0,1-7.013-7.052,6.442,6.442,0,0,1,5.531-7.24,6.519,6.519,0,0,1,.861-.057,5.434,5.434,0,0,1,4.3,1.83,8.116,8.116,0,0,1,1.422,5.547l-.177.154c-4.095-.024-4.808-.024-9.116,0a5.076,5.076,0,0,0,.985,3.293A4.3,4.3,0,0,0,387.8,134.8a6.842,6.842,0,0,0,2.306-.4,6.734,6.734,0,0,0,1.9-1.141Z"/>
    <path class="cls-1"
          d="M399.015,119.082a29.012,29.012,0,0,0-2.916.207l-.156-.171c.026-.338.026-.71.026-1.047,0-.47-.026-.887-.026-1.413l.156-.157c1.358-.1,1.609-.142,2.916-.272l.165.168c-.035,1.065-.035,1.337,0,2.5Zm-.027,17.48c-1.36.044-1.57.044-2.85.106l-.169-.18c.1-1.4.195-2.608.195-5.523a53.657,53.657,0,0,0-.275-7.531l.119-.18c1.156-.18,1.514-.234,2.85-.518l.257.154c-.065,1.375-.162,2.774-.162,6.183,0,4.887.062,5.558.162,7.335Z"/>
    <path class="cls-1"
          d="M414.892,136.562c-1.3.044-1.44.044-2.661.106l-.163-.18v-.869c.027-1.284.027-2.567.027-3.865a25.427,25.427,0,0,0-.145-4.872,2.294,2.294,0,0,0-2.365-2,5.907,5.907,0,0,0-3.527,1.478c0,4.577.044,6.975.236,10.053l-.168.154c-1.3.044-1.479.044-2.75.106l-.127-.18c.023-1.479.065-2.892.065-4.837,0-4.214-.181-6.44-.325-8.217l.153-.18c1.337-.234,1.558-.3,2.788-.518l.2.178L406.1,124.3a7.906,7.906,0,0,1,4.621-1.647,4.426,4.426,0,0,1,2.179.505,3.529,3.529,0,0,1,1.517,1.712,8.11,8.11,0,0,1,.429,3.211v3.075c.068,3.069.091,4.263.153,5.26Z"/>
    <path class="cls-1"
          d="M422.02,119.082c-1.321.036-1.62.077-2.918.207l-.157-.171c.027-.338.027-.71.027-1.047,0-.47-.027-.887-.035-1.413l.165-.157c1.36-.1,1.609-.142,2.918-.272l.166.168c-.038,1.065-.038,1.337,0,2.5Zm0,17.48c-1.372.044-1.567.044-2.862.106l-.133-.18c.065-1.4.157-2.608.157-5.523a57.912,57.912,0,0,0-.26-7.531l.13-.18c1.1-.18,1.531-.234,2.841-.518l.269.154c-.091,1.375-.153,2.774-.153,6.183,0,4.887.026,5.558.153,7.335Z"/>
    <path class="cls-1"
          d="M431.08,124.626a2.741,2.741,0,0,0-2.8,2.678,2.8,2.8,0,0,0,.012.317,2.689,2.689,0,0,0,2.437,2.921,2.616,2.616,0,0,0,.354.009,2.578,2.578,0,0,0,2.683-2.469,2.633,2.633,0,0,0-.022-.461,2.7,2.7,0,0,0-2.388-2.979c-.091-.01-.182-.015-.273-.016m-1.671,11.315a3.985,3.985,0,0,0-1.558,2.865c0,.958.819,2.593,3.474,2.593,2.164,0,3.187-1.156,3.187-2.386,0-1.736-1.543-2.141-3.187-2.593Zm-.065-2.552c.683.181,4.054.985,4.793,1.242a3.989,3.989,0,0,1,3.2,3.844c0,2.267-1.931,4.68-6.132,4.68-3.927,0-5.949-1.892-5.949-4.121a4.858,4.858,0,0,1,2.333-3.826c-.544-.231-.713-.3-1.23-.544l-.027-.323c.8-1.165,1.1-1.658,1.774-2.661a4.086,4.086,0,0,1-2.525-3.953,5.2,5.2,0,0,1,.556-2.344,5.513,5.513,0,0,1,5.322-2.54c.429,0,.958.026,1.478.026l.648.021c1.5.027,2.069.027,3.968,0l.139.157c-.074.887-.074.887-.139,1.738l-.145.157-2.191-.171a3.823,3.823,0,0,1,1.233,2.941,4.657,4.657,0,0,1-4.738,4.574c-.141,0-.282-.011-.422-.026a7.539,7.539,0,0,1-1.182-.077Z"/>
    <path class="cls-1"
          d="M452.125,123c-.062,2-.1,3.861-.1,6,0,3.252.1,5.171.141,6.309,0,.364.03.727.054,1.1l-.092.154c-1.268.041-1.478.056-2.7.1l-.154-.151.023-1.1a6.763,6.763,0,0,1-4.139,1.5,4.919,4.919,0,0,1-2.983-.911,6.8,6.8,0,0,1-1.712-5.653v-1.632c-.056-3.761-.056-4.175-.133-5.588l.133-.193c1.23-.029,1.478-.029,2.72-.127l.154.178-.127,5.753c0,.731-.027,1.245,0,2.487.038,1.118.088,3.477,2.755,3.477a5.354,5.354,0,0,0,3.294-1.357v-4.166a48.334,48.334,0,0,0-.195-6.088l.18-.186c1.183-.027,1.5-.027,2.7-.1Z"/>
    <path class="cls-1"
          d="M468.038,136.562c-1.254.044-1.422.044-2.644.106l-.168-.18c0-.3.024-.591.024-.869v-3.865a24.267,24.267,0,0,0-.136-4.872,2.3,2.3,0,0,0-2.366-2,5.727,5.727,0,0,0-3.489,1.478c-.035,4.577.03,6.975.2,10.053l-.168.154c-1.295.044-1.478.044-2.75.106l-.127-.18c.027-1.479.062-2.892.062-4.837,0-4.214-.177-6.44-.322-8.217l.169-.18c1.321-.234,1.558-.3,2.776-.518l.192.178V124.3a7.789,7.789,0,0,1,4.6-1.647,4.424,4.424,0,0,1,2.19.505,3.627,3.627,0,0,1,1.541,1.712,8.954,8.954,0,0,1,.4,3.211v3.075c.053,3.069.077,4.263.168,5.26Z"/>
    <path class="cls-1"
          d="M477.1,124.626a2.745,2.745,0,0,0-2.788,2.995,2.682,2.682,0,0,0,2.419,2.921,2.838,2.838,0,0,0,.369.009,2.623,2.623,0,0,0,2.71-2.532,2.52,2.52,0,0,0-.017-.4,2.71,2.71,0,0,0-2.412-2.98,2.645,2.645,0,0,0-.281-.015m-1.659,11.315a3.882,3.882,0,0,0-1.543,2.865c0,.958.777,2.593,3.462,2.593,2.135,0,3.172-1.156,3.172-2.386,0-1.736-1.558-2.141-3.2-2.593Zm-.092-2.552c.686.181,4.057.985,4.793,1.242a3.973,3.973,0,0,1,3.214,3.844c0,2.267-1.928,4.68-6.141,4.68-3.9,0-5.952-1.892-5.952-4.121a4.959,4.959,0,0,1,2.333-3.826c-.529-.231-.724-.3-1.218-.544l-.035-.323c.8-1.165,1.123-1.658,1.774-2.661a4.138,4.138,0,0,1-2.534-3.953,5.241,5.241,0,0,1,.558-2.344,5.529,5.529,0,0,1,5.34-2.54c.426,0,.943.027,1.479.027l.671.02c1.478.027,2.069.027,3.953,0l.133.157-.133,1.738-.157.157-2.2-.157a3.828,3.828,0,0,1,1.245,2.942,4.665,4.665,0,0,1-4.755,4.574c-.139,0-.278-.011-.416-.026a7.1,7.1,0,0,1-1.129-.077Z"/>
    <path class="cls-1"
          d="M150.278,160.218c0,2.992,0,3.447.115,6.309h.479a13.941,13.941,0,0,0,4.612-.4,2.957,2.957,0,0,0,1.987-2.88c0-3.083-3.409-3.107-4.668-3.107-.231,0-.453,0-1.875.05Zm0-2.215a8.865,8.865,0,0,0,5.3-.86,3.076,3.076,0,0,0,1.076-2.291,2.752,2.752,0,0,0-.736-1.878,4.774,4.774,0,0,0-3.152-.887c-.854,0-1.644.021-2.486.074Zm-2.827,10.718-.13-.192c.038-1.259.065-2.478.065-4.861,0-1.129.038-6.634.038-7.867,0-2.759-.088-4.19-.195-5.547l.13-.195,3.513-.053h2.07a8.924,8.924,0,0,1,4.538.816,3.963,3.963,0,0,1,2.07,3.6,4.436,4.436,0,0,1-3.93,4.435,6.215,6.215,0,0,1,2.437.482,4.114,4.114,0,0,1,2.489,3.976,5.109,5.109,0,0,1-3.592,4.888,14.34,14.34,0,0,1-4.9.494Z"/>
    <path class="cls-1"
          d="M169.886,157.687a3.046,3.046,0,0,0-1.052-.234,2.028,2.028,0,0,0-1.1.338c-1.065.765-1.065,1.933-1.065,4.656,0,2.957.065,4.524.154,6l-.13.184c-1.23,0-1.517.038-2.77.091l-.145-.171c.038-2,.065-3.808.065-6.259a60.308,60.308,0,0,0-.234-6.8l.142-.18c1-.2,1.635-.328,2.738-.52l.18.141-.156,2.23a3.287,3.287,0,0,1,3.2-2.528,2.748,2.748,0,0,1,.739.077l.13.156c-.275,1.266-.325,1.529-.52,2.682Z"/>
    <path class="cls-1"
          d="M180.163,161.294c-2.661.387-5.12.763-5.12,3.111a2.317,2.317,0,0,0,2.243,2.39,2.489,2.489,0,0,0,.273-.007,4.123,4.123,0,0,0,2.85-1.153v-4.394Zm2.957,1.916a45.994,45.994,0,0,0,.157,5.263l-.145.127c-1.245.03-1.437.068-2.661.121l-.115-.171.038-.943a5.58,5.58,0,0,1-3.666,1.333,4.219,4.219,0,0,1-4.48-3.941,4.055,4.055,0,0,1,0-.441c0-3.524,2.956-4.668,7.687-5.209l.429-.051a3.51,3.51,0,0,0-.222-1.635,2.258,2.258,0,0,0-2.164-.961,9.458,9.458,0,0,0-4.018.994l-.2-.127c.054-1.2.054-1.375.065-1.919l.172-.157a13.564,13.564,0,0,1,4.538-.866,4.052,4.052,0,0,1,4.4,2.7,16.86,16.86,0,0,1,.195,3.291Z"/>
    <path class="cls-1"
          d="M198.983,168.6c-1.257.03-1.4.03-2.617.118l-.21-.189c0-.3.024-.591.024-.869.041-1.283.041-2.581.041-3.862a22.731,22.731,0,0,0-.168-4.863,2.3,2.3,0,0,0-2.366-2.008,5.8,5.8,0,0,0-3.5,1.478c-.039,4.574.026,6.972.209,10.053l-.141.157c-1.3.029-1.5.029-2.774.118l-.136-.2c.027-1.478.08-2.892.08-4.837,0-4.21-.168-6.454-.31-8.205l.168-.18c1.307-.245,1.532-.3,2.785-.518l.195.169-.041,1.363a8.1,8.1,0,0,1,4.645-1.623,4.432,4.432,0,0,1,2.161.494,3.619,3.619,0,0,1,1.529,1.711,8.839,8.839,0,0,1,.4,3.214v3.072c.077,3.081.115,4.264.183,5.257Z"/>
    <path class="cls-1"
          d="M212.048,156.859c-.444-.035-.766-.091-1.31-.091A5.541,5.541,0,0,0,206.912,158a5.459,5.459,0,0,0-1.525,4.14,5.028,5.028,0,0,0,.969,3.237,3.527,3.527,0,0,0,2.724,1.183,4.514,4.514,0,0,0,2.956-1.147c.027-3.451.027-4.24,0-8.545m0-8.669c1.322-.236,1.582-.3,2.785-.544l.172.154c-.172,3.657-.21,10.188-.21,12.8,0,4.095.1,6.026.21,7.841l-.11.183c-1.182,0-1.478.039-2.693.092l-.192-.171.053-.967a5.534,5.534,0,0,1-3.631,1.3,6.075,6.075,0,0,1-5.949-6.2c0-.184.015-.368.036-.55A7.276,7.276,0,0,1,204.8,156.5a8.423,8.423,0,0,1,5.807-1.815c.544,0,.8,0,1.517.05a56.983,56.983,0,0,0-.222-6.374Z"/>
    <path class="cls-1"
          d="M227.55,158.556a2.923,2.923,0,0,0-2.853-2.069,3.586,3.586,0,0,0-3.46,3.645c3.173.024,4.172,0,6.605-.026a5.673,5.673,0,0,0-.3-1.559m2.46,6.86a20.9,20.9,0,0,0-.192,2.344l-.2.181a8.192,8.192,0,0,1-4.174,1,7.185,7.185,0,0,1-.645-14.322,5.616,5.616,0,0,1,4.34,1.816,8.32,8.32,0,0,1,1.384,5.546l-.154.157c-4.121-.03-4.837-.03-9.136,0a4.927,4.927,0,0,0,1,3.279,4.25,4.25,0,0,0,3.382,1.437,7.05,7.05,0,0,0,2.292-.4,7.242,7.242,0,0,0,1.91-1.153Z"/>
    <path class="cls-1"
          d="M245.55,168.6c-1.248.03-1.411.03-2.646.118l-.181-.189c0-.3.042-.591.042-.869V163.8a22.537,22.537,0,0,0-.151-4.863,2.292,2.292,0,0,0-2.365-2.008,5.888,5.888,0,0,0-3.486,1.478c-.027,4.574.038,6.972.218,10.053l-.168.157c-1.295.029-1.478.029-2.747.118l-.13-.2c.024-1.478.065-2.892.065-4.837,0-4.21-.18-6.454-.3-8.205l.157-.18c1.31-.245,1.532-.3,2.759-.518l.195.169v1.363a8.029,8.029,0,0,1,4.615-1.623,4.432,4.432,0,0,1,2.179.494,3.576,3.576,0,0,1,1.552,1.711,8.814,8.814,0,0,1,.388,3.214v3.072c.065,3.081.091,4.264.157,5.257Z"/>
    <path class="cls-1"
          d="M253.4,166.646a5,5,0,0,0,5.857-5.393,4.235,4.235,0,0,0-1.218-3.394,3.511,3.511,0,0,0-2.579-1.089,5.173,5.173,0,0,0-2.838,1c-.027,3.95,0,4.834.065,8.87Zm-1.36,2.034h-2.07l-.157-.16c.065-1.644.095-3.391.095-7.048v-3.951a90.711,90.711,0,0,0-.272-9.165l.127-.169,2.764-.544.2.181-.13,7.983a6.149,6.149,0,0,1,3.7-1.183,5.939,5.939,0,0,1,5.868,6.011c0,.2-.015.4-.037.6a7.451,7.451,0,0,1-1.621,4.873,9.222,9.222,0,0,1-7.906,2.581Z"/>
    <path class="cls-1"
          d="M277.289,155.032c-.041,2-.065,3.864-.065,6,0,3.226.065,5.186.13,6.312,0,.364.027.737.051,1.1l-.116.157c-1.271.027-1.463.068-2.7.118l-.13-.165v-1.1a6.63,6.63,0,0,1-4.107,1.478,4.727,4.727,0,0,1-2.98-.887,6.677,6.677,0,0,1-1.724-5.665v-1.635c-.065-3.758-.065-4.172-.145-5.6l.145-.18c1.23-.027,1.464-.027,2.7-.133l.156.183-.091,5.757c0,.709-.042,1.242,0,2.513,0,1.1.062,3.471,2.732,3.471a5.364,5.364,0,0,0,3.29-1.372c.027-1.425.027-2.643.027-4.16a52.216,52.216,0,0,0-.192-6.1l.165-.184c1.183-.029,1.493-.029,2.685-.106Z"/>
    <path class="cls-1"
          d="M287.682,157.687a3.066,3.066,0,0,0-1.064-.234,2.015,2.015,0,0,0-1.1.338c-1.073.765-1.073,1.933-1.073,4.656,0,2.957.1,4.524.192,6l-.127.184c-1.26,0-1.556.038-2.812.091l-.118-.171c.023-2,.053-3.808.053-6.259a53.252,53.252,0,0,0-.237-6.8l.172-.18c.981-.2,1.617-.328,2.72-.52l.157.141-.131,2.23a3.271,3.271,0,0,1,3.211-2.513,2.927,2.927,0,0,1,.74.076l.106.157c-.26,1.266-.325,1.529-.506,2.682Z"/>
    <path class="cls-1"
          d="M295.692,156.664a2.773,2.773,0,0,0-2.8,2.75c0,.082,0,.163.009.245a2.66,2.66,0,0,0,2.4,2.9,2.512,2.512,0,0,0,.388.008,2.572,2.572,0,0,0,2.684-2.906,2.707,2.707,0,0,0-2.684-3.007m-1.659,11.3a4.005,4.005,0,0,0-1.543,2.88c0,.97.8,2.6,3.491,2.6,2.138,0,3.173-1.165,3.173-2.4,0-1.735-1.555-2.123-3.252-2.578Zm-.065-2.551c.689.192,4.059,1,4.787,1.23a4.045,4.045,0,0,1,3.184,3.888c0,2.256-1.892,4.668-6.1,4.668-3.915,0-5.949-1.883-5.949-4.124a4.842,4.842,0,0,1,2.333-3.811c-.547-.237-.713-.323-1.233-.556l-.051-.3c.828-1.182,1.13-1.658,1.789-2.684a4.091,4.091,0,0,1-2.528-3.939,5.12,5.12,0,0,1,.568-2.365,5.519,5.519,0,0,1,5.322-2.54c.4,0,.961.024,1.478.024l.648.024c1.5.029,2.069.029,3.973,0l.131.159c-.089.887-.089.887-.131,1.739l-.15.165-2.2-.165a3.819,3.819,0,0,1,1.23,2.956,4.676,4.676,0,0,1-4.773,4.575q-.192,0-.384-.024a10.593,10.593,0,0,1-1.167-.083Z"/>
    <path class="cls-1"
          d="M2.661,2.72V71.578C5.15,100.106,26.524,112.926,46.6,112.926S88.457,100.118,91.952,71.5V2.72ZM46.594,115.643C25.3,115.643,2.661,102.075,0,71.749V0H94.613V71.8C90.944,102.075,67.846,115.643,46.594,115.643Z"/>
    <path class="cls-2"
          d="M46.683,9.331c-.154-.739.827-1.182,1.658-1.375a.779.779,0,0,0-.2.547.915.915,0,0,0,.591.87,13.123,13.123,0,0,1,1.3-1.479,2.347,2.347,0,0,1,1.638.976c-.984,2.957-3.045,1.05-4.99.452m43.536,16.9A49.188,49.188,0,0,1,77.855,19c6.546-1.064,10.8-5.079,8.657-9.825-6.455,2.724-10.825-.26-16.4-.26-3.4,0-5.893,1.428-5.893,4.344a5.323,5.323,0,0,0,3.548,4.86,7.734,7.734,0,0,1-6.454,7c-2.487.647-2.167,4.772,1.1,3.693a10.485,10.485,0,0,0,6.416-10.121l1.428.467A14.827,14.827,0,0,1,56.558,34.9c-2.661,0-3.125-2.14-3.125-4.29A60.847,60.847,0,0,1,56,17.444a2.7,2.7,0,0,0,2.321,1.035,51.2,51.2,0,0,1-1.75-8.722c-.131-.713,1-1.632,1.75-2.229-7.776,1.256-10.538-4.873-13.92.419,0,0-7.956.3-4.976,6.038.571-2.244,4.666-2.232,6.839-1.792,1.3.257,2.918,1.011,3.252,2.256a12.572,12.572,0,0,0-5.978.521,37.945,37.945,0,0,1-5.934,2.1c2.069.638,2.98.118,6.013-.529a11.467,11.467,0,0,1,6.011.038c0,.3-.372,1.3-1.939,1.168-3.412-.662-5.872.8-6.067,2.344,2.306-.674,5.443-.115,5.443,1.387,0,1.83-3.72,5.145-6.117,9.151h-.042v.05a14.538,14.538,0,0,0-1.682,3.939,3.517,3.517,0,0,1-1.452.3A14.809,14.809,0,0,1,24.106,19.156l1.428-.467A10.526,10.526,0,0,0,31.9,28.81c3.291,1.079,3.616-3.046,1.153-3.693a7.771,7.771,0,0,1-6.481-7,5.273,5.273,0,0,0,3.566-4.86c0-2.916-2.5-4.344-5.884-4.344-5.561,0-9.928,2.984-16.4.26C5.754,13.92,9.982,17.935,16.486,19A48.651,48.651,0,0,1,4.139,26.217,7.451,7.451,0,0,0,16.684,28.36C11.3,34.773,11.886,54.846,6.117,60.4c10.1,6.322,16.558-17.225,20.321-20.61C22.06,51.221,24.91,54.175,18.455,73.7,33.2,77.169,36.367,50.027,39.477,49.87c.145,4.42.314,7.66.314,10.307,0,7.687-4.864,9.165-5.355,10.691a1.364,1.364,0,0,0,.4,1.555c-3.276,3.628-6.386,7.333-7.687,9.136s-5.635-7.554-9.112-3.279c-.518.624.295,1.727,1.1,1.647,2.632-.248,3.034.855,4.731,2.41-4.473-.3-8.87-.364-8.388,3.772.142,1.219,2.1,1.647,2.413.178.467-2.138,2.661-2.3,5.691-1.966-1.209-.145-5.691,5.274-3.412,7.391,1.334,1.23,2.309.231,2.366-.591.2-4.485,5.274-9.1,9.916-5.768a1.355,1.355,0,0,0,2.011-1.633c-.624-1.608-2.321-1.292-5.322-1.292,2.785-2.841,5.277-4.55,8.574-7.935a1.415,1.415,0,0,0,2-.134c.025-.028.049-.058.072-.088,3.29-4.834,4.278-4.482,4.278.038,0,19.559-10.759,11.706-16.474,17.06-5.509,5.1,1.428,11.274,6.622,10.757-4.987-8.968,7.623-6.9,10.393-14.71a24.753,24.753,0,0,1-.736,8.539c-1.257,4.252-3.527,4.808-3.527,6.871a3.329,3.329,0,0,0,4.473,2.957,7.312,7.312,0,0,0,2.333,3.991,7.2,7.2,0,0,0,2.347-3.991,3.35,3.35,0,0,0,4.486-2.957c0-2.069-2.3-2.619-3.566-6.871a25.071,25.071,0,0,1-.716-8.539c2.774,7.815,15.4,5.742,10.408,14.71,5.186.517,12.122-5.653,6.611-10.757-5.742-5.354-16.5,2.5-16.5-17.06,0-4.52,1.008-4.872,4.272-.038a1.478,1.478,0,0,0,2.075.256l.042-.034c3.252,3.385,5.792,5.094,8.574,7.935-2.992,0-4.73-.316-5.3,1.292a1.352,1.352,0,0,0,2.011,1.633c4.6-3.333,9.694,1.283,9.9,5.768.057.828,1.023,1.827,2.348.591,2.268-2.126-2.161-7.545-3.371-7.391,2.984-.337,5.216-.172,5.68,1.966.3,1.478,2.268,1.041,2.395-.178.479-4.139-3.923-4.071-8.4-3.772,1.727-1.555,2.126-2.661,4.731-2.41.819.08,1.62-1.023,1.114-1.647-3.477-4.275-7.829,5.109-9.109,3.279a118.594,118.594,0,0,0-7.687-9.136,1.4,1.4,0,0,0,.428-1.555c-.5-1.52-5.351-2.995-5.351-10.691,0-2.661.165-5.887.3-10.307,3.11.157,6.288,27.3,20.992,23.833-6.452-19.514-3.6-22.47-7.983-33.915,3.773,3.385,10.239,26.932,20.35,20.61-5.735-5.552-5.177-25.625-10.567-32.038a7.462,7.462,0,0,0,12.56-2.143Z"/>
    <path class="cls-2"
          d="M314.292,85.642c9.967,0,17.9.1,22.926-2.616a14.024,14.024,0,0,0,7.932-12.714c.1-10.668-7.1-14.582-25.028-14.582-3.1,0-5.815.222-8.887.222-.089,9.86.065,19.7.325,29.545.84,0,1.889.133,2.732.133M311.572,19.2c-.107,9.242.065,18.508-.13,27.641,10.783.237,17.808-.36,22.562-2.847a14.262,14.262,0,0,0,7.451-12.1c.082-7.607-5.322-12.932-17.9-12.932C319.5,18.961,315.6,19.2,311.572,19.2ZM299.509,94.767l-.686-.831c.384-6.883.57-13.763.635-20.647.178-20.528.707-41.28-.316-61.794l.624-.827c7.347-.234,14.958-.234,21.711-.364,9.615-.115,16,.13,21.666,2.853a17.781,17.781,0,0,1,10.174,17.208C353.19,45.893,340.012,49.225,335.6,50.3c2.957.236,22.175.467,21.992,20.152-.1,14.13-11.924,20.646-18.222,22.426a72.929,72.929,0,0,1-20.294,1.659C312.565,94.521,306.013,94.651,299.509,94.767Z"/>
    <path class="cls-2"
          d="M383.516,85.642c9.967,0,17.9.1,22.926-2.616a14.02,14.02,0,0,0,7.865-12.714c.065-10.668-7.153-14.582-25.079-14.582-3.072,0-5.8.222-8.905.222-.05,9.86.156,19.7.455,29.545.843,0,1.907.133,2.738.133M380.479,19.2c-.026,9.242.169,18.508,0,27.641,10.8.237,17.8-.36,22.551-2.847a14.313,14.313,0,0,0,7.427-12.1c.027-7.607-5.417-12.932-17.988-12.932C388.439,18.961,384.512,19.2,380.479,19.2ZM368.75,94.767l-.712-.831c.4-6.883.559-13.763.591-20.647.1-20.528.544-41.28-.547-61.794l.592-.827c7.35-.234,14.969-.234,21.71-.364,9.606-.115,16.008.13,21.711,2.853a17.951,17.951,0,0,1,10.236,17.211c-.062,15.525-13.258,18.857-17.663,19.931,2.98.236,22.2.467,22.107,20.152-.051,14.13-11.827,20.646-18.116,22.426a73.064,73.064,0,0,1-20.3,1.659C381.816,94.521,375.3,94.651,368.75,94.767Z"/>
</svg>
