<?xml version="1.0" encoding="utf-8"?>
<!-- Generator: Adobe Illustrator 25.3.1, SVG Export Plug-In . SVG Version: 6.00 Build 0)  -->
<svg version="1.1" id="Ebene_5" xmlns="http://www.w3.org/2000/svg" xmlns:xlink="http://www.w3.org/1999/xlink" x="0px" y="0px"
	 viewBox="0 0 284 151" style="enable-background:new 0 0 284 151;" xml:space="preserve">
<style type="text/css">
	.st0{fill:#3C6287;}
	.st1{fill:#A42026;}
	.st2{fill:none;stroke:#3C6287;stroke-width:4.7004;stroke-miterlimit:10;}
</style>
<g>
	<path class="st0" d="M41.7,70.5V46.4c0-0.2,0.1-0.4,0.4-0.4h2.7c0.2,0,0.4,0.1,0.4,0.4v11.3c0,0,0,0.1,0.1,0.1c0,0,0.1,0,0.1-0.1
		l10.1-11.5c0.1-0.1,0.2-0.2,0.4-0.2H59c0.1,0,0.2,0,0.3,0.1c0,0.1,0,0.2-0.1,0.3l-8.4,9.9c0,0.1,0,0.1,0,0.2l9,13.8
		c0,0.1,0.1,0.2,0.1,0.2c0,0.1-0.1,0.2-0.3,0.2h-3.1c-0.2,0-0.3-0.1-0.4-0.2l-7.6-11.6l-0.1-0.1h-0.1l-3,3.3c0,0.1-0.1,0.2-0.1,0.2
		v8c0,0.2-0.1,0.4-0.4,0.4H42C41.8,70.9,41.7,70.8,41.7,70.5z"/>
	<path class="st0" d="M73.4,53.4c1.1,0.5,1.9,1.2,2.5,2.1s0.9,1.9,0.9,3.1v12c0,0.2-0.1,0.4-0.4,0.4h-2.7c-0.2,0-0.4-0.1-0.4-0.4
		v-1.3c0-0.1-0.1-0.1-0.2-0.1c-0.6,0.6-1.4,1.1-2.2,1.5c-0.9,0.3-1.9,0.5-3,0.5c-1.7,0-3.2-0.4-4.3-1.3c-1.1-0.9-1.7-2.2-1.7-4
		s0.6-3.3,1.9-4.3s3.1-1.6,5.4-1.6h4c0.1,0,0.1,0,0.1-0.1v-1c0-1-0.3-1.8-0.9-2.4s-1.5-0.9-2.7-0.9c-1,0-1.8,0.2-2.4,0.6
		s-1,0.9-1.1,1.6c-0.1,0.2-0.2,0.3-0.4,0.3l-2.9-0.4c-0.2,0-0.3-0.1-0.3-0.3c0.2-1.4,0.9-2.5,2.2-3.4c1.3-0.9,2.9-1.3,4.9-1.3
		C71.1,52.6,72.3,52.9,73.4,53.4z M72,67.3c0.9-0.7,1.4-1.5,1.4-2.5v-2.1c0-0.1,0-0.1-0.1-0.1H70c-1.4,0-2.5,0.3-3.3,0.8
		s-1.2,1.3-1.2,2.3c0,0.9,0.3,1.5,0.9,2c0.6,0.4,1.4,0.7,2.5,0.7C70,68.3,71,68,72,67.3z"/>
	<path class="st0" d="M83.9,70.5c-1.1-0.4-1.9-1-2.5-1.8c-0.6-0.7-0.9-1.6-0.9-2.5v-0.4c0-0.2,0.1-0.4,0.4-0.4h2.5
		c0.2,0,0.4,0.1,0.4,0.4V66c0,0.7,0.4,1.2,1.1,1.7c0.7,0.5,1.6,0.7,2.7,0.7c1.1,0,1.9-0.2,2.6-0.7c0.7-0.5,1-1,1-1.8
		c0-0.7-0.3-1.2-0.9-1.5c-0.6-0.3-1.6-0.7-3-1.1c-1.3-0.4-2.5-0.8-3.4-1.2c-0.9-0.4-1.7-0.9-2.3-1.7c-0.6-0.7-0.9-1.6-0.9-2.8
		c0-1.6,0.6-2.8,1.9-3.8s2.9-1.4,4.9-1.4c1.4,0,2.6,0.2,3.6,0.7c1,0.4,1.9,1,2.4,1.8s0.8,1.7,0.8,2.6v0.1c0,0.2-0.1,0.4-0.4,0.4
		h-2.5c-0.2,0-0.4-0.1-0.4-0.4v-0.1c0-0.7-0.3-1.3-1-1.7c-0.7-0.5-1.6-0.7-2.7-0.7c-1,0-1.9,0.2-2.5,0.6s-1,0.9-1,1.6
		s0.3,1.2,0.9,1.6s1.6,0.7,3,1.1s2.5,0.7,3.4,1.1s1.7,0.9,2.3,1.6s1,1.7,1,2.8c0,1.6-0.6,2.9-1.9,3.8c-1.3,0.9-2.9,1.4-5,1.4
		C86.3,71.1,85,70.9,83.9,70.5z"/>
	<path class="st0" d="M100.7,70.5c-1.1-0.4-1.9-1-2.5-1.8c-0.6-0.7-0.9-1.6-0.9-2.5v-0.4c0-0.2,0.1-0.4,0.4-0.4h2.5
		c0.2,0,0.4,0.1,0.4,0.4V66c0,0.7,0.4,1.2,1.1,1.7c0.7,0.5,1.6,0.7,2.7,0.7c1.1,0,1.9-0.2,2.6-0.7c0.7-0.5,1-1,1-1.8
		c0-0.7-0.3-1.2-0.9-1.5c-0.6-0.3-1.6-0.7-3-1.1c-1.3-0.4-2.5-0.8-3.4-1.2c-0.9-0.4-1.7-0.9-2.3-1.7c-0.6-0.7-0.9-1.6-0.9-2.8
		c0-1.6,0.6-2.8,1.9-3.8s2.9-1.4,4.9-1.4c1.4,0,2.6,0.2,3.6,0.7c1,0.4,1.9,1,2.4,1.8s0.8,1.7,0.8,2.6v0.1c0,0.2-0.1,0.4-0.4,0.4
		h-2.5c-0.2,0-0.4-0.1-0.4-0.4v-0.1c0-0.7-0.3-1.3-1-1.7c-0.7-0.5-1.6-0.7-2.7-0.7c-1,0-1.9,0.2-2.5,0.6s-1,0.9-1,1.6
		s0.3,1.2,0.9,1.6s1.6,0.7,3,1.1s2.5,0.7,3.4,1.1s1.7,0.9,2.3,1.6s1,1.7,1,2.8c0,1.6-0.6,2.9-1.9,3.8c-1.3,0.9-2.9,1.4-5,1.4
		C103.1,71.1,101.8,70.9,100.7,70.5z"/>
	<path class="st0" d="M130.1,62.9c0,0.2-0.1,0.4-0.4,0.4h-11.3c-0.1,0-0.1,0-0.1,0.1c0,0.8,0.1,1.4,0.2,1.8c0.3,0.9,0.8,1.7,1.6,2.2
		s1.8,0.8,3,0.8c1.7,0,3.1-0.7,4-2.2c0.1-0.2,0.3-0.3,0.5-0.1l2,1.3c0.2,0.1,0.2,0.3,0.1,0.5c-0.7,1.1-1.6,1.9-2.8,2.5
		s-2.6,0.9-4.1,0.9c-1.7,0-3.2-0.4-4.4-1.1c-1.2-0.8-2.1-1.8-2.7-3.2c-0.6-1.4-0.8-3.1-0.8-5.1c0-1.7,0.1-3,0.4-3.9
		c0.4-1.6,1.3-2.9,2.5-3.9c1.3-0.9,2.8-1.4,4.6-1.4c2.4,0,4.2,0.6,5.3,1.8c1.2,1.2,1.9,2.9,2.2,5.3C130,60.6,130.1,61.7,130.1,62.9z
		 M119.9,56.3c-0.7,0.5-1.1,1.2-1.3,2c-0.2,0.5-0.3,1.2-0.3,2c0,0.1,0,0.1,0.1,0.1h8.1c0.1,0,0.1,0,0.1-0.1c0-0.8-0.1-1.4-0.2-1.7
		c-0.2-0.9-0.7-1.7-1.4-2.2c-0.7-0.6-1.6-0.8-2.6-0.8C121.4,55.5,120.6,55.8,119.9,56.3z"/>
	<path class="st0" d="M147,54.3c1.1,1.1,1.7,2.6,1.7,4.5v11.7c0,0.2-0.1,0.4-0.4,0.4h-2.7c-0.2,0-0.4-0.1-0.4-0.4v-11
		c0-1.2-0.3-2.1-1-2.9c-0.7-0.7-1.6-1.1-2.7-1.1c-1.1,0-2,0.4-2.7,1.1s-1.1,1.7-1.1,2.8v11c0,0.2-0.1,0.4-0.4,0.4h-2.7
		c-0.2,0-0.4-0.1-0.4-0.4V53.1c0-0.2,0.1-0.4,0.4-0.4h2.7c0.2,0,0.4,0.1,0.4,0.4v1.3c0,0,0,0.1,0.1,0.1h0.1c1-1.3,2.5-1.9,4.5-1.9
		C144.3,52.6,145.8,53.2,147,54.3z"/>
	<path class="st0" d="M163.9,53.4c1.1,0.5,1.9,1.2,2.5,2.1s0.9,1.9,0.9,3.1v12c0,0.2-0.1,0.4-0.4,0.4h-2.7c-0.2,0-0.4-0.1-0.4-0.4
		v-1.3c0-0.1-0.1-0.1-0.2-0.1c-0.6,0.6-1.4,1.1-2.2,1.5c-0.9,0.3-1.9,0.5-3,0.5c-1.7,0-3.2-0.4-4.3-1.3s-1.7-2.2-1.7-4
		s0.6-3.3,1.9-4.3c1.3-1,3.1-1.6,5.4-1.6h4c0.1,0,0.1,0,0.1-0.1v-1c0-1-0.3-1.8-0.9-2.4c-0.6-0.6-1.5-0.9-2.7-0.9
		c-1,0-1.8,0.2-2.4,0.6c-0.6,0.4-1,0.9-1.1,1.6c-0.1,0.2-0.2,0.3-0.4,0.3l-2.9-0.4c-0.2,0-0.3-0.1-0.3-0.3c0.2-1.4,0.9-2.5,2.2-3.4
		s2.9-1.3,4.9-1.3C161.5,52.6,162.8,52.9,163.9,53.4z M155.3,49.3c-0.4-0.4-0.6-1-0.6-1.6s0.2-1.2,0.6-1.6c0.4-0.4,1-0.6,1.6-0.6
		c0.7,0,1.2,0.2,1.6,0.6c0.4,0.4,0.6,1,0.6,1.6s-0.2,1.2-0.6,1.6c-0.4,0.4-1,0.6-1.6,0.6S155.7,49.7,155.3,49.3z M162.4,67.3
		c0.9-0.7,1.4-1.5,1.4-2.5v-2.1c0-0.1,0-0.1-0.1-0.1h-3.3c-1.4,0-2.5,0.3-3.3,0.8s-1.2,1.3-1.2,2.3c0,0.9,0.3,1.5,0.9,2
		c0.6,0.4,1.4,0.7,2.5,0.7C160.4,68.3,161.5,68,162.4,67.3z M161.8,49.3c-0.4-0.4-0.6-1-0.6-1.6s0.2-1.2,0.6-1.6
		c0.4-0.4,1-0.6,1.6-0.6c0.7,0,1.2,0.2,1.6,0.6c0.4,0.4,0.6,1,0.6,1.6s-0.2,1.2-0.6,1.6c-0.4,0.4-1,0.6-1.6,0.6
		C162.7,49.9,162.2,49.7,161.8,49.3z"/>
	<path class="st0" d="M181.7,53.2c0.2,0.1,0.2,0.2,0.2,0.4l-0.6,2.7c0,0.2-0.2,0.3-0.4,0.2c-0.4-0.2-0.9-0.2-1.4-0.2H179
		c-1.1,0-2,0.4-2.7,1.1s-1.1,1.7-1.1,2.8v10.3c0,0.2-0.1,0.4-0.4,0.4h-2.7c-0.2,0-0.4-0.1-0.4-0.4V53.2c0-0.2,0.1-0.4,0.4-0.4h2.7
		c0.2,0,0.4,0.1,0.4,0.4v1.9c0,0.1,0,0.1,0.1,0.1c0,0,0.1,0,0.1-0.1c1.1-1.7,2.5-2.5,4.4-2.5C180.4,52.7,181.1,52.9,181.7,53.2z"/>
	<path class="st0" d="M183.7,70.5V68c0-0.2,0-0.3,0.1-0.4l9.4-11.5c0,0,0.1-0.1,0-0.1l-0.1-0.1h-8.9c-0.2,0-0.4-0.1-0.4-0.4v-2.4
		c0-0.2,0.1-0.4,0.4-0.4H197c0.2,0,0.4,0.1,0.4,0.4v2.5c0,0.2,0,0.3-0.1,0.4l-9.5,11.5c0,0-0.1,0.1,0,0.1l0.1,0.1h9.3
		c0.2,0,0.4,0.1,0.4,0.4v2.4c0,0.2-0.1,0.4-0.4,0.4h-13C183.8,70.9,183.7,70.8,183.7,70.5z"/>
	<path class="st0" d="M209.6,55.7h-3.8c-0.1,0-0.1,0-0.1,0.1v9.4c0,1,0.2,1.7,0.7,2.1c0.4,0.4,1.1,0.7,2.1,0.7h1
		c0.2,0,0.4,0.1,0.4,0.4v2.2c0,0.2-0.1,0.4-0.4,0.4c-0.8,0-1.3,0.1-1.6,0.1c-1.8,0-3.1-0.3-4.1-1c-0.9-0.6-1.4-1.8-1.4-3.6V55.9
		c0-0.1,0-0.1-0.1-0.1H200c-0.2,0-0.4-0.1-0.4-0.4v-2.1c0-0.2,0.1-0.4,0.4-0.4h2.2c0.1,0,0.1,0,0.1-0.1v-4.2c0-0.2,0.1-0.4,0.4-0.4
		h2.5c0.2,0,0.4,0.1,0.4,0.4v4.2c0,0.1,0,0.1,0.1,0.1h3.8c0.2,0,0.4,0.1,0.4,0.4v2.1C209.9,55.6,209.8,55.7,209.6,55.7z"/>
	<path class="st0" d="M214.1,70.5V46.4c0-0.2,0.1-0.4,0.4-0.4h2.7c0.2,0,0.4,0.1,0.4,0.4v24.1c0,0.2-0.1,0.4-0.4,0.4h-2.7
		C214.2,70.9,214.1,70.8,214.1,70.5z"/>
	<path class="st0" d="M222.8,49.4c-0.4-0.4-0.6-1-0.6-1.6s0.2-1.2,0.6-1.6s1-0.6,1.6-0.6c0.7,0,1.2,0.2,1.6,0.6s0.6,1,0.6,1.6
		s-0.2,1.2-0.6,1.6s-1,0.6-1.6,0.6C223.8,50.1,223.2,49.8,222.8,49.4z M222.7,70.5V53.2c0-0.2,0.1-0.4,0.4-0.4h2.7
		c0.2,0,0.4,0.1,0.4,0.4v17.3c0,0.2-0.1,0.4-0.4,0.4H223C222.8,70.9,222.7,70.7,222.7,70.5z"/>
	<path class="st0" d="M234,69.8c-1.3-0.9-2.1-2.1-2.6-3.7c-0.4-1.1-0.5-2.5-0.5-4.3c0-1.6,0.2-3.1,0.5-4.3c0.5-1.5,1.4-2.7,2.6-3.6
		c1.3-0.9,2.8-1.3,4.6-1.3s3.3,0.4,4.6,1.3c1.3,0.9,2.2,2,2.6,3.4c0.1,0.4,0.2,0.8,0.3,1.2c0,0.2-0.1,0.3-0.3,0.4l-2.7,0.4H243
		c-0.2,0-0.3-0.1-0.4-0.3l-0.1-0.6c-0.2-0.8-0.6-1.5-1.4-2c-0.7-0.5-1.6-0.8-2.7-0.8c-1,0-1.9,0.3-2.6,0.8s-1.2,1.3-1.4,2.2
		c-0.2,0.8-0.3,2-0.3,3.4s0.1,2.5,0.3,3.3c0.2,0.9,0.7,1.7,1.4,2.2c0.7,0.5,1.6,0.8,2.6,0.8s1.9-0.3,2.7-0.8
		c0.7-0.5,1.2-1.2,1.4-2.1v-0.1v-0.1V65c0.1-0.2,0.2-0.3,0.4-0.2l2.7,0.4c0.2,0,0.3,0.1,0.3,0.3v0.1c0,0.2-0.1,0.5-0.2,0.8
		c-0.4,1.4-1.3,2.6-2.6,3.5c-1.3,0.9-2.9,1.3-4.6,1.3C236.8,71.2,235.3,70.7,234,69.8z"/>
	<path class="st0" d="M262.7,54.3c1.1,1.1,1.7,2.6,1.7,4.5v11.7c0,0.2-0.1,0.4-0.4,0.4h-2.7c-0.2,0-0.4-0.1-0.4-0.4v-11
		c0-1.2-0.3-2.1-1-2.9c-0.7-0.7-1.6-1.1-2.7-1.1s-2,0.4-2.7,1.1s-1.1,1.7-1.1,2.8v11c0,0.2-0.1,0.4-0.4,0.4h-2.7
		c-0.2,0-0.4-0.1-0.4-0.4V46.3c0-0.2,0.1-0.4,0.4-0.4h2.7c0.2,0,0.4,0.1,0.4,0.4v8c0,0,0,0.1,0.1,0.1h0.1c1-1.3,2.5-1.9,4.5-1.9
		C260,52.6,261.5,53.2,262.7,54.3z"/>
	<path class="st0" d="M283.7,62.9c0,0.2-0.1,0.4-0.4,0.4H272c-0.1,0-0.1,0-0.1,0.1c0,0.8,0.1,1.4,0.2,1.8c0.3,0.9,0.8,1.7,1.6,2.2
		c0.8,0.5,1.8,0.8,3,0.8c1.7,0,3.1-0.7,4-2.2c0.1-0.2,0.3-0.3,0.5-0.1l2,1.3c0.2,0.1,0.2,0.3,0.1,0.5c-0.7,1.1-1.6,1.9-2.8,2.5
		c-1.2,0.6-2.6,0.9-4.1,0.9c-1.7,0-3.2-0.4-4.4-1.1c-1.2-0.8-2.1-1.8-2.7-3.2c-0.6-1.4-0.8-3.1-0.8-5.1c0-1.7,0.1-3,0.4-3.9
		c0.4-1.6,1.3-2.9,2.5-3.9c1.3-0.9,2.8-1.4,4.6-1.4c2.4,0,4.2,0.6,5.3,1.8c1.2,1.2,1.9,2.9,2.2,5.3
		C283.7,60.6,283.7,61.7,283.7,62.9z M273.6,56.3c-0.7,0.5-1.1,1.2-1.3,2c-0.2,0.5-0.3,1.2-0.3,2c0,0.1,0,0.1,0.1,0.1h8.1
		c0.1,0,0.1,0,0.1-0.1c0-0.8-0.1-1.4-0.2-1.7c-0.2-0.9-0.7-1.7-1.4-2.2c-0.7-0.6-1.6-0.8-2.6-0.8C275.1,55.5,274.2,55.8,273.6,56.3z
		"/>
	<path class="st0" d="M47.5,110.2l-7.6-24.1V86c0-0.2,0.1-0.2,0.3-0.2h2.9c0.2,0,0.4,0.1,0.4,0.3l5.8,19.6l0.1,0.1
		c0,0,0.1,0,0.1-0.1l5.8-19.6c0.1-0.2,0.2-0.3,0.4-0.3h2.8c0.3,0,0.4,0.1,0.3,0.4l-7.6,24.1c-0.1,0.2-0.2,0.3-0.4,0.3h-2.9
		C47.7,110.4,47.6,110.4,47.5,110.2z"/>
	<path class="st0" d="M75.3,102.4c0,0.2-0.1,0.4-0.4,0.4H63.6c-0.1,0-0.1,0-0.1,0.1c0,0.8,0.1,1.4,0.2,1.8c0.3,0.9,0.8,1.7,1.6,2.2
		c0.8,0.5,1.8,0.8,3,0.8c1.7,0,3.1-0.7,4-2.2c0.1-0.2,0.3-0.3,0.5-0.1l2,1.3c0.2,0.1,0.2,0.3,0.1,0.5c-0.7,1.1-1.6,1.9-2.8,2.5
		s-2.6,0.9-4.1,0.9c-1.7,0-3.2-0.4-4.4-1.1c-1.2-0.8-2.1-1.8-2.7-3.2s-0.8-3.1-0.8-5.1c0-1.7,0.1-3,0.4-3.9c0.4-1.6,1.3-2.9,2.5-3.9
		c1.3-0.9,2.8-1.4,4.6-1.4c2.4,0,4.2,0.6,5.3,1.8c1.2,1.2,1.9,2.9,2.2,5.3C75.3,100.2,75.3,101.2,75.3,102.4z M65.2,95.9
		c-0.7,0.5-1.1,1.2-1.3,2c-0.2,0.5-0.3,1.2-0.3,2c0,0.1,0,0.1,0.1,0.1h8.1c0.1,0,0.1,0,0.1-0.1c0-0.8-0.1-1.4-0.2-1.7
		c-0.2-0.9-0.7-1.7-1.4-2.2c-0.7-0.6-1.6-0.8-2.6-0.8C66.7,95.1,65.9,95.3,65.2,95.9z"/>
	<path class="st0" d="M89.5,92.7c0.2,0.1,0.2,0.2,0.2,0.4l-0.6,2.7c0,0.2-0.2,0.3-0.4,0.2c-0.4-0.2-0.9-0.2-1.4-0.2h-0.5
		c-1.1,0-2,0.4-2.7,1.1c-0.7,0.7-1.1,1.7-1.1,2.8V110c0,0.2-0.1,0.4-0.4,0.4H80c-0.2,0-0.4-0.1-0.4-0.4V92.7c0-0.2,0.1-0.4,0.4-0.4
		h2.7c0.2,0,0.4,0.1,0.4,0.4v1.9c0,0.1,0,0.1,0.1,0.1c0,0,0.1,0,0.1-0.1c1.1-1.7,2.5-2.5,4.4-2.5C88.2,92.3,88.9,92.4,89.5,92.7z"/>
	<path class="st0" d="M107.1,102.4c0,0.2-0.1,0.4-0.4,0.4H95.4c-0.1,0-0.1,0-0.1,0.1c0,0.8,0.1,1.4,0.2,1.8c0.3,0.9,0.8,1.7,1.6,2.2
		s1.8,0.8,3,0.8c1.7,0,3.1-0.7,4-2.2c0.1-0.2,0.3-0.3,0.5-0.1l2,1.3c0.2,0.1,0.2,0.3,0.1,0.5c-0.7,1.1-1.6,1.9-2.8,2.5
		s-2.6,0.9-4.1,0.9c-1.7,0-3.2-0.4-4.4-1.1c-1.2-0.8-2.1-1.8-2.7-3.2c-0.6-1.4-0.8-3.1-0.8-5.1c0-1.7,0.1-3,0.4-3.9
		c0.4-1.6,1.3-2.9,2.5-3.9c1.3-0.9,2.8-1.4,4.6-1.4c2.4,0,4.2,0.6,5.3,1.8c1.2,1.2,1.9,2.9,2.2,5.3
		C107.1,100.2,107.1,101.2,107.1,102.4z M97,95.9c-0.7,0.5-1.1,1.2-1.3,2c-0.2,0.5-0.3,1.2-0.3,2c0,0.1,0,0.1,0.1,0.1h8.1
		c0.1,0,0.1,0,0.1-0.1c0-0.8-0.1-1.4-0.2-1.7c-0.2-0.9-0.7-1.7-1.4-2.2c-0.7-0.6-1.6-0.8-2.6-0.8C98.5,95.1,97.7,95.3,97,95.9z"/>
	<path class="st0" d="M111.8,89c-0.4-0.4-0.6-1-0.6-1.6s0.2-1.2,0.6-1.6c0.4-0.4,1-0.6,1.6-0.6c0.7,0,1.2,0.2,1.6,0.6
		c0.4,0.4,0.6,1,0.6,1.6s-0.2,1.2-0.6,1.6c-0.4,0.4-1,0.6-1.6,0.6S112.3,89.4,111.8,89z M111.7,110.1V92.8c0-0.2,0.1-0.4,0.4-0.4
		h2.7c0.2,0,0.4,0.1,0.4,0.4v17.3c0,0.2-0.1,0.4-0.4,0.4H112C111.8,110.4,111.7,110.3,111.7,110.1z"/>
	<path class="st0" d="M133.1,93.9c1.1,1.1,1.7,2.6,1.7,4.5v11.7c0,0.2-0.1,0.4-0.4,0.4h-2.7c-0.2,0-0.4-0.1-0.4-0.4v-11
		c0-1.2-0.3-2.1-1-2.9c-0.7-0.7-1.6-1.1-2.7-1.1c-1.1,0-2,0.4-2.7,1.1c-0.7,0.7-1.1,1.7-1.1,2.8v11c0,0.2-0.1,0.4-0.4,0.4h-2.7
		c-0.2,0-0.4-0.1-0.4-0.4V92.7c0-0.2,0.1-0.4,0.4-0.4h2.7c0.2,0,0.4,0.1,0.4,0.4V94c0,0,0,0.1,0.1,0.1h0.1c1-1.3,2.5-1.9,4.5-1.9
		C130.4,92.2,131.9,92.7,133.1,93.9z"/>
	<path class="st0" d="M140,89c-0.4-0.4-0.6-1-0.6-1.6s0.2-1.2,0.6-1.6c0.4-0.4,1-0.6,1.6-0.6c0.7,0,1.2,0.2,1.6,0.6
		c0.4,0.4,0.6,1,0.6,1.6s-0.2,1.2-0.6,1.6c-0.4,0.4-1,0.6-1.6,0.6S140.5,89.4,140,89z M139.9,110.1V92.8c0-0.2,0.1-0.4,0.4-0.4h2.7
		c0.2,0,0.4,0.1,0.4,0.4v17.3c0,0.2-0.1,0.4-0.4,0.4h-2.7C140,110.4,139.9,110.3,139.9,110.1z"/>
	<path class="st0" d="M160.1,92.4h2.7c0.2,0,0.4,0.1,0.4,0.4v16.7c0,2.9-0.8,4.9-2.4,6.1c-1.6,1.2-3.8,1.8-6.5,1.8
		c-0.4,0-1,0-1.8-0.1c-0.2,0-0.4-0.2-0.4-0.4l0.1-2.4c0-0.1,0-0.2,0.1-0.2c0.1-0.1,0.2-0.1,0.3-0.1c0.3,0,0.8,0,1.5,0
		c2,0,3.5-0.4,4.4-1.1c0.9-0.7,1.3-2,1.3-3.8v-0.6c0,0,0-0.1-0.1-0.1h-0.1c-1,1.2-2.4,1.7-4.4,1.7c-1.5,0-2.9-0.4-4.2-1.2
		c-1.2-0.8-2.1-2-2.6-3.5c-0.3-1-0.5-2.5-0.5-4.3c0-2,0.2-3.5,0.5-4.5c0.4-1.4,1.2-2.6,2.4-3.4c1.1-0.9,2.5-1.3,4.1-1.3
		c1.9,0,3.5,0.6,4.6,1.8l0.1,0.1c0,0,0.1,0,0.1-0.1v-1.1C159.7,92.6,159.8,92.4,160.1,92.4z M159.6,103.5c0-0.4,0.1-1.1,0.1-2.1
		s0-1.7-0.1-2.1c0-0.4-0.1-0.8-0.2-1.2c-0.2-0.9-0.6-1.6-1.3-2.1c-0.7-0.6-1.5-0.8-2.5-0.8s-1.8,0.3-2.5,0.8
		c-0.7,0.6-1.1,1.3-1.4,2.1c-0.3,0.7-0.4,1.8-0.4,3.3c0,1.6,0.1,2.7,0.4,3.3c0.2,0.9,0.7,1.6,1.4,2.1c0.7,0.6,1.5,0.8,2.5,0.8
		s1.9-0.3,2.5-0.8c0.6-0.6,1.1-1.3,1.3-2.1C159.6,104.3,159.6,103.9,159.6,103.5z"/>
	<path class="st0" d="M178.9,92.4h2.7c0.2,0,0.4,0.1,0.4,0.4v17.3c0,0.2-0.1,0.4-0.4,0.4h-2.7c-0.2,0-0.4-0.1-0.4-0.4v-1.3
		c0,0,0-0.1-0.1-0.1s-0.1,0-0.1,0.1c-0.9,1.3-2.4,1.9-4.4,1.9c-1.2,0-2.2-0.2-3.2-0.7c-1-0.4-1.8-1.1-2.4-2
		c-0.6-0.9-0.9-1.9-0.9-3.2V92.7c0-0.2,0.1-0.4,0.4-0.4h2.7c0.2,0,0.4,0.1,0.4,0.4v11c0,1.2,0.3,2.2,1,2.9c0.6,0.7,1.6,1.1,2.7,1.1
		c1.2,0,2.1-0.4,2.8-1.1c0.7-0.7,1.1-1.7,1.1-2.9v-11C178.6,92.6,178.7,92.4,178.9,92.4z"/>
	<path class="st0" d="M199.5,93.9c1.1,1.1,1.7,2.6,1.7,4.5v11.7c0,0.2-0.1,0.4-0.4,0.4h-2.7c-0.2,0-0.4-0.1-0.4-0.4v-11
		c0-1.2-0.3-2.1-1-2.9c-0.7-0.7-1.6-1.1-2.7-1.1c-1.1,0-2,0.4-2.7,1.1c-0.7,0.7-1.1,1.7-1.1,2.8v11c0,0.2-0.1,0.4-0.4,0.4h-2.7
		c-0.2,0-0.4-0.1-0.4-0.4V92.7c0-0.2,0.1-0.4,0.4-0.4h2.7c0.2,0,0.4,0.1,0.4,0.4V94c0,0,0,0.1,0.1,0.1h0.1c1-1.3,2.5-1.9,4.5-1.9
		C196.8,92.2,198.4,92.7,199.5,93.9z"/>
	<path class="st0" d="M217.5,92.4h2.7c0.2,0,0.4,0.1,0.4,0.4v16.7c0,2.9-0.8,4.9-2.4,6.1c-1.6,1.2-3.8,1.8-6.5,1.8
		c-0.4,0-1,0-1.8-0.1c-0.2,0-0.4-0.2-0.4-0.4l0.1-2.4c0-0.1,0-0.2,0.1-0.2c0.1-0.1,0.2-0.1,0.3-0.1c0.3,0,0.8,0,1.5,0
		c2,0,3.5-0.4,4.4-1.1c0.9-0.7,1.3-2,1.3-3.8v-0.6c0,0,0-0.1-0.1-0.1H217c-1,1.2-2.4,1.7-4.4,1.7c-1.5,0-2.9-0.4-4.2-1.2
		c-1.2-0.8-2.1-2-2.6-3.5c-0.3-1-0.5-2.5-0.5-4.3c0-2,0.2-3.5,0.5-4.5c0.4-1.4,1.2-2.6,2.4-3.4c1.1-0.9,2.5-1.3,4.1-1.3
		c1.9,0,3.5,0.6,4.6,1.8L217,94c0,0,0.1,0,0.1-0.1v-1.1C217.1,92.6,217.2,92.4,217.5,92.4z M217.1,103.5c0-0.4,0.1-1.1,0.1-2.1
		s0-1.7-0.1-2.1c0-0.4-0.1-0.8-0.2-1.2c-0.2-0.9-0.6-1.6-1.3-2.1c-0.7-0.6-1.5-0.8-2.5-0.8s-1.8,0.3-2.5,0.8
		c-0.7,0.6-1.1,1.3-1.4,2.1c-0.3,0.7-0.4,1.8-0.4,3.3c0,1.6,0.1,2.7,0.4,3.3c0.2,0.9,0.7,1.6,1.4,2.1c0.7,0.6,1.5,0.8,2.5,0.8
		s1.9-0.3,2.5-0.8c0.6-0.6,1.1-1.3,1.3-2.1C217,104.3,217,103.9,217.1,103.5z"/>
	<path class="st1" d="M55.9,125.3c0.1-0.1,0.2-0.1,0.3-0.1h3.3c0.1,0,0.2,0,0.3,0.1c0.1,0.1,0.1,0.2,0.1,0.3v23.9
		c0,0.1,0,0.2-0.1,0.3s-0.2,0.1-0.3,0.1h-3.1c-0.2,0-0.4-0.1-0.5-0.3L45.6,133c0-0.1-0.1-0.1-0.1-0.1s-0.1,0.1-0.1,0.2l0.1,16.5
		c0,0.1,0,0.2-0.1,0.3s-0.2,0.1-0.3,0.1h-3.3c-0.1,0-0.2,0-0.3-0.1c-0.1-0.1-0.1-0.2-0.1-0.3v-23.9c0-0.1,0-0.2,0.1-0.3
		s0.2-0.1,0.3-0.1h3.1c0.2,0,0.4,0.1,0.5,0.3l10.2,16.7c0,0.1,0.1,0.1,0.1,0.1s0.1-0.1,0.1-0.2v-16.5
		C55.8,125.5,55.8,125.4,55.9,125.3z"/>
	<path class="st1" d="M68.5,149.3c-1.4-0.7-2.4-1.7-3.2-3.1c-0.7-1.3-1.1-2.8-1.1-4.6v-8.1c0-1.7,0.4-3.2,1.1-4.5
		c0.8-1.3,1.8-2.3,3.2-3c1.4-0.7,2.9-1.1,4.7-1.1c1.8,0,3.4,0.4,4.7,1.1c1.4,0.7,2.4,1.7,3.2,3s1.1,2.8,1.1,4.5v8.1
		c0,1.7-0.4,3.2-1.1,4.6c-0.8,1.3-1.8,2.3-3.2,3.1c-1.4,0.7-2.9,1.1-4.7,1.1C71.5,150.3,69.9,150,68.5,149.3z M76.8,145.4
		c0.9-0.9,1.3-2.1,1.3-3.6v-8.2c0-1.5-0.4-2.8-1.3-3.7c-0.9-0.9-2.1-1.4-3.6-1.4s-2.6,0.5-3.5,1.4s-1.3,2.1-1.3,3.7v8.2
		c0,1.5,0.4,2.7,1.3,3.6c0.9,0.9,2.1,1.4,3.5,1.4C74.7,146.8,75.9,146.3,76.8,145.4z"/>
	<path class="st1" d="M100,149.7l-4.7-10.2c0-0.1-0.1-0.1-0.2-0.1h-4.2c-0.1,0-0.2,0.1-0.2,0.2v10c0,0.1,0,0.2-0.1,0.3
		s-0.2,0.1-0.3,0.1H87c-0.1,0-0.2,0-0.3-0.1s-0.1-0.2-0.1-0.3v-23.9c0-0.1,0-0.2,0.1-0.3s0.2-0.1,0.3-0.1h9.7c1.4,0,2.7,0.3,3.8,0.9
		c1.1,0.6,2,1.5,2.6,2.5c0.6,1.1,0.9,2.4,0.9,3.8c0,1.6-0.4,3-1.3,4.2c-0.8,1.1-2,1.9-3.5,2.4c0,0-0.1,0-0.1,0.1v0.1l5,10.3
		c0,0.1,0.1,0.2,0.1,0.2c0,0.2-0.1,0.3-0.4,0.3h-3.4C100.3,150,100.1,149.9,100,149.7z M90.7,128.9v7c0,0.1,0.1,0.2,0.2,0.2h5.3
		c1.1,0,2-0.3,2.7-1s1-1.6,1-2.7c0-1.1-0.3-2-1-2.7s-1.6-1-2.7-1h-5.3C90.8,128.8,90.7,128.8,90.7,128.9z"/>
	<path class="st1" d="M108.3,149.9c-0.1-0.1-0.1-0.2-0.1-0.3v-23.9c0-0.1,0-0.2,0.1-0.3s0.2-0.1,0.3-0.1h8.6c1.7,0,3.1,0.3,4.4,0.9
		s2.3,1.4,3,2.5s1,2.4,1,3.8v10.3c0,1.5-0.3,2.7-1,3.8s-1.7,1.9-3,2.5s-2.7,0.9-4.4,0.9h-8.6C108.5,150,108.4,149.9,108.3,149.9z
		 M112.4,146.4h5c1.2,0,2.2-0.4,3-1.2c0.7-0.8,1.1-1.8,1.1-3.2v-9c0-1.3-0.4-2.4-1.1-3.2c-0.8-0.8-1.8-1.2-3-1.2h-4.9
		c-0.1,0-0.2,0.1-0.2,0.2v17.3C112.3,146.4,112.3,146.4,112.4,146.4z"/>
	<path class="st1" d="M143.2,149.7l-4.7-10.2c0-0.1-0.1-0.1-0.2-0.1h-4.2c-0.1,0-0.2,0.1-0.2,0.2v10c0,0.1,0,0.2-0.1,0.3
		s-0.2,0.1-0.3,0.1h-3.3c-0.1,0-0.2,0-0.3-0.1s-0.1-0.2-0.1-0.3v-23.9c0-0.1,0-0.2,0.1-0.3s0.2-0.1,0.3-0.1h9.7
		c1.4,0,2.7,0.3,3.8,0.9c1.1,0.6,2,1.5,2.6,2.5c0.6,1.1,0.9,2.4,0.9,3.8c0,1.6-0.4,3-1.3,4.2c-0.8,1.1-2,1.9-3.5,2.4
		c0,0-0.1,0-0.1,0.1v0.1l5,10.3c0,0.1,0.1,0.2,0.1,0.2c0,0.2-0.1,0.3-0.4,0.3h-3.4C143.5,150,143.3,149.9,143.2,149.7z M133.9,128.9
		v7c0,0.1,0.1,0.2,0.2,0.2h5.3c1.1,0,2-0.3,2.7-1s1-1.6,1-2.7c0-1.1-0.3-2-1-2.7s-1.6-1-2.7-1h-5.3
		C134,128.8,133.9,128.8,133.9,128.9z"/>
	<path class="st1" d="M165,125.3c0.1-0.1,0.2-0.1,0.3-0.1h3.3c0.1,0,0.2,0,0.3,0.1s0.1,0.2,0.1,0.3v23.9c0,0.1,0,0.2-0.1,0.3
		s-0.2,0.1-0.3,0.1h-3.3c-0.1,0-0.2,0-0.3-0.1s-0.1-0.2-0.1-0.3v-10.1c0-0.1-0.1-0.2-0.2-0.2h-9c-0.1,0-0.2,0.1-0.2,0.2v10.1
		c0,0.1,0,0.2-0.1,0.3s-0.2,0.1-0.3,0.1h-3.3c-0.1,0-0.2,0-0.3-0.1s-0.1-0.2-0.1-0.3v-23.9c0-0.1,0-0.2,0.1-0.3s0.2-0.1,0.3-0.1h3.3
		c0.1,0,0.2,0,0.3,0.1s0.1,0.2,0.1,0.3v9.9c0,0.1,0.1,0.2,0.2,0.2h9c0.1,0,0.2-0.1,0.2-0.2v-9.9C164.8,125.5,164.9,125.4,165,125.3z
		"/>
	<path class="st1" d="M190.4,128.6c-0.1,0.1-0.2,0.1-0.3,0.1H178c-0.1,0-0.2,0.1-0.2,0.2v6.6c0,0.1,0.1,0.2,0.2,0.2h8.1
		c0.1,0,0.2,0,0.3,0.1s0.1,0.2,0.1,0.3v2.7c0,0.1,0,0.2-0.1,0.3s-0.2,0.1-0.3,0.1H178c-0.1,0-0.2,0.1-0.2,0.2v6.8
		c0,0.1,0.1,0.2,0.2,0.2h12.1c0.1,0,0.2,0,0.3,0.1s0.1,0.2,0.1,0.3v2.7c0,0.1,0,0.2-0.1,0.3s-0.2,0.1-0.3,0.1h-15.9
		c-0.1,0-0.2,0-0.3-0.1s-0.1-0.2-0.1-0.3v-23.9c0-0.1,0-0.2,0.1-0.3s0.2-0.1,0.3-0.1h15.9c0.1,0,0.2,0,0.3,0.1s0.1,0.2,0.1,0.3v2.7
		C190.5,128.5,190.4,128.6,190.4,128.6z"/>
	<path class="st1" d="M194.6,149.9c-0.1-0.1-0.1-0.2-0.1-0.3v-23.9c0-0.1,0-0.2,0.1-0.3s0.2-0.1,0.3-0.1h3.3c0.1,0,0.2,0,0.3,0.1
		s0.1,0.2,0.1,0.3v23.9c0,0.1,0,0.2-0.1,0.3s-0.2,0.1-0.3,0.1h-3.3C194.8,150,194.7,149.9,194.6,149.9z"/>
	<path class="st1" d="M218.1,125.3c0.1-0.1,0.2-0.1,0.3-0.1h3.3c0.1,0,0.2,0,0.3,0.1c0.1,0.1,0.1,0.2,0.1,0.3v23.9
		c0,0.1,0,0.2-0.1,0.3s-0.2,0.1-0.3,0.1h-3.1c-0.2,0-0.4-0.1-0.5-0.3L207.8,133c0-0.1-0.1-0.1-0.1-0.1s-0.1,0.1-0.1,0.2l0.1,16.5
		c0,0.1,0,0.2-0.1,0.3s-0.2,0.1-0.3,0.1H204c-0.1,0-0.2,0-0.3-0.1c-0.1-0.1-0.1-0.2-0.1-0.3v-23.9c0-0.1,0-0.2,0.1-0.3
		s0.2-0.1,0.3-0.1h3.1c0.2,0,0.4,0.1,0.5,0.3l10.2,16.7c0,0.1,0.1,0.1,0.1,0.1s0.1-0.1,0.1-0.2v-16.5
		C218,125.5,218,125.4,218.1,125.3z"/>
</g>
<polyline class="st2" points="146.7,31.1 146.7,3.4 3.1,3.4 3.1,147 28.2,147 "/>
</svg>
