<svg id="logo" xmlns="http://www.w3.org/2000/svg" aria-hidden="true" viewBox="0 0 2000 367" width="224" height="41"><defs><style>.gray{fill:#3B3D3C}.magenta{fill:#C5006B}</style></defs><g><rect fill="white" height="100%" width="100%"></rect><polygon class="gray" points="0,0 128.4,0 1.1,367 0,367"></polygon><polygon class="magenta" points="367,0 367,367 76,367 211.4,0"></polygon><path class="gray" d="M1964.1,108.3c0-52-30.6-79.6-93.9-79.6c-16.6,0-29.5,0-41.8,1.1v159.7c11.9,1.8,23.9,2.7,35.9,2.7
		C1926.5,191.6,1964.1,158.1,1964.1,108.3L1964.1,108.3 M2000,102.3c0,71.4-61.1,118.5-138.4,118.5c-11.3,0-22.5-0.5-33.2-1.6V367	h-34.3V1.6c24.7-1.1,52.5-1.6,82.6-1.6C1956.6,0,2000,42.2,2000,102.3L2000,102.3"></path><polygon class="gray" points="1744,367 1570.5,367 1570.5,0 1605,0 1605,338.2 1744,338.2"></polygon><path class="gray" d="M1446.8,95.8c0-50.9-32.7-68.2-90.6-68.2c-13.9,0-25.2,0.5-37,1.6v137.5c6.4,0.5,17.7,1.1,34.9,1.1
		C1413,167.8,1446.8,138,1446.8,95.8L1446.8,95.8 M1505.3,367h-45.6l-138.9-172.7h-1.6V367h-34.3V1.6c22-1.1,42.9-1.6,81-1.6 c65.4,0,116.9,22.7,116.9,89.8s-54.2,102.3-123.4,103.4c10.7,11.9,23.1,26,32.7,37.9L1505.3,367z"></path><path class="gray" d="M1212.3,0l-127.1,367h-80.8L877.8,0h76.5l70.6,214.8c7,20.7,15.1,45.1,21.5,71.8h1.1 c5.4-25,11.3-45.1,21.5-76.1L1140.7,0H1212.3z"></path><polygon class="gray" points="866.2,367 774.1,367 657.2,190.8 657.2,367 587.2,367 587.2,0 657.2,0 657.2,166.4 775.2,0 860.3,0 727.2,177.2"></polygon></g></svg>
