<?xml version="1.0" encoding="utf-8"?>
<!-- Generator: $$$/GeneralStr/196=Adobe Illustrator 27.6.0, SVG Export Plug-In . SVG Version: 6.00 Build 0)  -->
<svg version="1.1" id="Ebene_1" xmlns="http://www.w3.org/2000/svg" xmlns:xlink="http://www.w3.org/1999/xlink" x="0px" y="0px"
	 viewBox="0 0 271.998 78.106" enable-background="new 0 0 271.998 78.106" xml:space="preserve">
<path id="Pfad_1" fill="#666666" d="M152.041,59.228l0.487-1.892l0.409-1.673l0.419,1.745l0.489,1.82l2.492,8.154h-6.79
	L152.041,59.228z M154.262,52.167h-2.641l-0.169,0.1h-0.07l-0.1,0.144l-0.07,0.171l-8.2,24.435v0.167l-0.07,0.074v0.1l0.07,0.072
	l0.07,0.1l0.169,0.072h2.911l0.171-0.072l0.149-0.171l0.089-0.171l2.222-7.23h8.305l2.212,7.23l0.1,0.171l0.151,0.171l0.169,0.072
	h3.07l0.179-0.072l0.069-0.1l0.072-0.072v-0.1l-0.072-0.074v-0.167l-8.2-24.435l-0.07-0.171l-0.1-0.144h-0.07l-0.169-0.1H154.262z
	 M184.081,52.167h-2.075l-0.167,0.1l-0.07,0.072v0.169l-0.1,0.169v17.034l0.1,0.995l0.07,0.995l0.167,1.238l-0.507-1.65
	l-0.656-1.506l-8.863-17.2l-0.151-0.171l-0.089-0.144l-0.179-0.1h-3.051l-0.169,0.1l-0.07,0.072v0.169l-0.1,0.169v24.434l0.1,0.243
	v0.072l0.07,0.171H171l0.149-0.171V57.482L171,56.656l-0.27-1.236l0.338,1.065l0.248,0.923l0.34,0.754l0.32,0.75l9.37,18.345
	l0.08,0.169l0.238,0.171h2.836l0.149-0.171V52.338l-0.149-0.072l-0.171-0.1L184.081,52.167z M209.255,52.167h-2.393l-0.169,0.1
	l-0.1,0.072l-0.079,0.169v10.628h-10.42V52.508l-0.1-0.169l-0.07-0.072l-0.171-0.1h-2.661l-0.149,0.1l-0.1,0.072l-0.07,0.169v24.846
	l0.07,0.072l0.1,0.171h2.981l0.07-0.171l0.1-0.072V65.636h10.419v11.718l0.079,0.072l0.1,0.171h2.971l0.079-0.171l0.089-0.072
	V52.508l-0.089-0.169l-0.079-0.072l-0.171-0.1L209.255,52.167z M224.407,59.228l0.588-1.892l0.32-1.673l0.409,1.745l0.588,1.82
	l2.392,8.154h-6.707L224.407,59.228z M226.631,52.167h-2.643l-0.169,0.1h-0.07l-0.1,0.144l-0.07,0.171l-8.126,24.435l-0.077,0.167
	v0.243l0.077,0.1l0.171,0.072h2.971l0.179-0.072l0.07-0.171l0.1-0.171l2.313-7.23h8.275l2.244,7.23l0.079,0.171l0.1,0.171
	l0.139,0.072h3.08l0.239-0.072l0.08-0.1v-0.243l-0.08-0.167l-8.1-24.435l-0.09-0.171l-0.08-0.144h-0.1l-0.141-0.1H226.631z
	 M243.787,52.167h-2.412l-0.171,0.1l-0.079,0.072l-0.07,0.169v24.846l0.07,0.072l0.079,0.171h12.931l0.25-0.171l0.07-0.243
	l0.656-1.576l0.1-0.243V75.1l-0.1-0.072h-10.765v-22.52l-0.07-0.169l-0.07-0.072l-0.169-0.1L243.787,52.167z M271.443,52.167
	h-16.162l-0.169,0.1l-0.069,0.072v2.328l0.069,0.074h6.4v22.613l0.07,0.072l0.069,0.171h3l0.149-0.171V54.74h6.133l0.167-0.074
	l0.1-0.169l0.069-0.169l0.66-1.578v-0.074l0.069-0.1V52.41l-0.069-0.072l-0.07-0.072l-0.179-0.1L271.443,52.167z M168.928,22.177
	l0.489-1.918l0.338-1.65l0.419,1.747l0.419,1.82l2.214,8.153h-6.121L168.928,22.177z M170.901,15.116h-2.392l-0.169,0.072l-0.07,0.1
	l-0.1,0.243l-7.448,24.433v0.167l-0.07,0.075v0.072l0.07,0.1l0.079,0.075l0.171,0.1h2.661l0.139-0.1l0.1-0.171l0.079-0.147
	l2.075-7.23h7.536l1.983,7.23l0.09,0.147l0.149,0.171l0.1,0.1h2.8l0.167-0.1l0.08-0.075l0.1-0.167l-0.1-0.075v-0.167L171.49,15.53
	l-0.07-0.243l-0.1-0.1l-0.167-0.072L170.901,15.116z M214.787,15.116h-2.633l-0.1,0.171v0.072l-0.069,0.243v10.409h-9.451V15.287
	l-0.171-0.171h-2.732l-0.069,0.171v25.087l0.069,0.075l0.169,0.1h2.492l0.07-0.1l0.171-0.075V28.583h9.451v11.452l0.069,0.171v0.167
	l0.1,0.075l0.149,0.1h2.484l0.1-0.1l0.08-0.075l0.07-0.167V15.359l-0.07-0.072l-0.08-0.171L214.787,15.116z M251.823,15.116h-11.774
	l-0.07,0.171l-0.1,0.072v24.919l0.1,0.1l0.07,0.075l0.179,0.1h11.733l0.169-0.1l0.1-0.075l0.08-0.167v-1.99l-0.08-0.171l-0.1-0.072
	l-0.169-0.1h-9v-9.295h7.446l0.169-0.1l0.07-0.074v-2.155l-0.07-0.1l-0.169-0.074h-7.446v-8.319h8.193l0.151-0.074l0.169-0.072
	l0.169-0.1l0.079-0.169l0.509-1.65l0.08-0.169v-0.243l-0.08-0.1l-0.169-0.072L251.823,15.116z M271.272,15.116h-2.243l-0.08,0.171
	v0.072l-0.069,0.243v17.033l0.069,1.02l0.08,0.993l0.171,1.239l-0.489-1.747l-0.59-1.408l-8.1-17.275l-0.1-0.169l-0.07-0.1
	l-0.171-0.072h-2.9l-0.08,0.171l-0.1,0.072v24.847l0.1,0.167l0.08,0.075l0.169,0.1h2.073l0.169-0.1l0.07-0.075l0.079-0.167V21.183
	l-0.079-0.752l-0.07-0.826l-0.268-1.261l0.338,1.092l0.25,0.824l0.24,0.826l0.348,0.752l8.443,18.294l0.171,0.243l0.169,0.075
	l0.24,0.1h2.152l0.171-0.1l0.069-0.075l0.1-0.167V15.359l-0.1-0.072l-0.069-0.171L271.272,15.116z M151.621,14.607l-1.826,0.169
	l-1.494,0.412l-1.415,0.752l-1.077,1.092l-0.827,1.239l-0.489,1.405l-0.169,1.579l0.169,1.5l0.489,1.407l0.827,1.261l0.419,0.414
	l0.519,0.484l0.558,0.414l0.757,0.509l1,0.655l1.4,0.752l1.586,1l1.244,0.921l0.827,0.826l0.559,0.824l0.338,0.921l0.079,1.094
	l-0.248,1.407l-0.579,1.164l-0.906,0.824l-1.315,0.584l-1.5,0.169l-1.653-0.169l-1.836-0.511l-1.9-0.9l-0.169-0.1l-0.141-0.072h-0.1
	l-0.08-0.1h-0.089l-0.151,0.1l-0.1,0.072l-0.729,1.844v0.074l-0.1,0.072v0.1l0.27,0.414l0.657,0.412l0.978,0.412l1.166,0.414
	l1.326,0.338l1.315,0.171l1.336,0.072l1.814-0.171l1.755-0.486l1.387-0.822l1.176-1.092l0.908-1.335l0.487-1.576l0.171-1.748
	l-0.08-1.48l-0.409-1.335l-0.658-1.164l-0.518-0.655l-0.489-0.511l-0.658-0.583l-0.9-0.581l-1.176-0.655l-1.147-0.754l-0.926-0.509
	l-0.658-0.412l-0.489-0.315l-0.34-0.268l-0.317-0.169l-0.271-0.147l-0.25-0.26l-0.827-0.826l-0.489-1.067l-0.169-1.263l0.169-1.238
	l0.489-0.995l0.926-0.752l1.077-0.509l1.387-0.146l1.244,0.146l1.248,0.266l1.075,0.414l0.759,0.315l0.489,0.266l0.169,0.074
	l0.169,0.1h0.171l0.069-0.1l0.08-0.169l0.657-1.651l0.1-0.1V16.62l-0.169-0.437l-0.588-0.315l-0.908-0.412l-1-0.34l-1.244-0.243
	l-1.147-0.266L151.621,14.607z M187.721,14.707l-1.415,0.414l-1.246,0.657l-1.065,0.847l-0.839,1.141l-0.727,1.432l-0.588,1.747
	l-0.409,1.892l-0.251,2.256l-0.069,2.5l0.069,2.742l0.32,2.475l0.507,2.159l0.739,1.844l0.928,1.48l1.147,1.263l1.316,0.822
	l1.583,0.486l1.666,0.171l1.8-0.171l1.655-0.581l1.6-0.9l0.308-0.34l0.35-0.243l0.169-0.243l0.141-0.266v-0.315l-0.072-0.1
	l-0.9-1.236l-0.179-0.171l-0.07-0.072h-0.171l-0.167,0.072l-0.171,0.171l-1.4,1.067l-1.417,0.68l-1.315,0.169l-1.176-0.169
	l-1.067-0.511l-0.908-0.9l-0.759-1.263l-0.588-1.65l-0.409-1.918l-0.248-2.328l-0.072-2.572l0.072-2.5l0.248-2.062l0.34-1.747
	l0.487-1.432l0.66-1.067l0.827-0.754l1.075-0.484l1.176-0.171l1.067,0.171l1.177,0.412l1.077,0.729l0.308,0.266l0.25,0.243
	l0.27,0.169l0.139,0.074l0.1,0.1h0.08v0.072h0.239l0.1-0.072l0.072-0.1l1.075-1.408l0.1-0.169v-0.243l-0.1-0.072l-0.069-0.171
	l-0.179-0.169l-0.24-0.171l-1.735-1.162l-1.824-0.657l-1.985-0.266L187.721,14.707z M228.048,14.607l-1.735,0.169l-1.586,0.412
	l-1.315,0.752l-1.146,1.092l-0.839,1.239l-0.507,1.405l-0.149,1.579l0.149,1.5l0.507,1.407l0.839,1.261l0.409,0.414l0.487,0.484
	l0.588,0.414l0.728,0.509l1.075,0.655l1.347,0.752l1.636,1l1.166,0.921l0.908,0.826l0.507,0.824l0.32,0.921l0.1,1.094l-0.271,1.407
	l-0.558,1.164l-0.926,0.824l-1.246,0.584l-1.5,0.169l-1.725-0.169l-1.834-0.511l-1.8-0.9l-0.251-0.1l-0.089-0.072h-0.179v-0.1
	h-0.141l-0.167,0.1l-0.08,0.072l-0.678,1.844l-0.08,0.074V38.8l0.25,0.414l0.658,0.412l0.926,0.412l1.248,0.414l1.315,0.338
	l1.316,0.171l1.246,0.072l1.9-0.171l1.665-0.486l1.417-0.822l1.147-1.094l0.9-1.335l0.588-1.576l0.169-1.748l-0.169-1.48
	l-0.419-1.335l-0.658-1.164l-0.489-0.655l-0.507-0.511l-0.658-0.583l-0.827-0.581l-1.147-0.655l-1.246-0.754l-0.926-0.509
	l-0.668-0.412l-0.479-0.315l-0.348-0.268l-0.239-0.169l-0.25-0.147L225.4,24l-0.747-0.826l-0.489-1.067l-0.27-1.263l0.27-1.238
	l0.489-0.995l0.827-0.752l1.147-0.509l1.415-0.146l1.167,0.146l1.224,0.266l1.167,0.414l0.739,0.315l0.409,0.266l0.268,0.074
	l0.08,0.1h0.239l0.1-0.1l0.07-0.169l0.658-1.651v-0.171l0.1-0.072L234,16.183l-0.559-0.315l-0.827-0.412l-1.075-0.34l-1.177-0.243
	l-1.146-0.266L228.048,14.607z M0,75.266l2.66,2.84h57.382L38.588,40.545l15.987-32L51.843,5.8L0,75.266z M126.878,0l-50.6,38.7
	L60.7,18.515L47.937,43.36l20.21,34.746H89.26l40.418-75.292L126.878,0z"/>
<path id="Pfad_2" fill="#FFD900" d="M0,5.8v69.466h54.748L34.537,40.545L51.844,5.8H0z M95.142,0L74.933,34.721L59.458,14.534
	L46.132,40.545l20.112,34.721h20.209L126.879,0H95.142z"/>
</svg>
