<svg xmlns="http://www.w3.org/2000/svg" viewBox="0 0 391 75" >
<style type="text/css">
	.st0{fill:#8E969C;}
	.st1{fill:#55A51C;}
</style>
    <path  class="st0" d="M267.1,54.9h-1.9l-1.6,8.4c-0.1,0.3-0.2,1-0.3,1.5c-0.1-0.5-0.2-1.2-0.3-1.5l-2.1-8.4h-1.6l-2.1,8.3
	c-0.1,0.4-0.3,1.3-0.4,1.7c-0.1-0.4-0.2-1.3-0.3-1.7l-1.6-8.2h-2l2.7,13h1.9l2.1-8.4c0.1-0.4,0.3-1.4,0.4-1.7
	c0.1,0.3,0.3,1.3,0.4,1.7l2,8.4h2L267.1,54.9z M276.2,62.8c0-2.6-1.3-4.9-4.1-4.9c-2.5,0-4.3,1.8-4.3,5.1c0,3.2,1.9,5.1,4.2,5.1
	c1.5,0,2.5-0.5,3.4-1.3l-1.1-1.2c-0.7,0.5-1.3,0.8-2.1,0.8c-1.2,0-2.3-0.8-2.5-2.7h6.5C276.2,63.5,276.2,63.2,276.2,62.8z
	 M274.3,62.1h-4.5c0.2-1.6,1-2.5,2.2-2.5C273.5,59.6,274.2,60.8,274.3,62.1z M285.2,65.2c0-1.8-1.1-2.4-3.3-3.3
	c-1.5-0.6-1.8-0.9-1.8-1.4s0.4-0.9,1.3-0.9s1.7,0.3,2.5,0.8l0.8-1.5c-0.9-0.6-2.1-1.1-3.3-1.1c-2,0-3.3,0.9-3.3,2.7
	c0,1.5,0.8,2.3,2.9,3.1c1.4,0.5,2.3,0.9,2.3,1.6s-0.6,1.1-1.8,1.1c-0.9,0-1.9-0.3-2.9-1l-0.9,1.5c1,0.7,2.4,1.2,3.7,1.2
	C283.5,68.1,285.2,67.4,285.2,65.2z M292.4,66c-0.4,0.2-0.9,0.4-1.4,0.4c-0.7,0-1-0.3-1-1.2v-5.3h2.4v-1.8H290v-3.8l-1.9,1v2.8h-1.4
	v1.8h1.4v5.6c0,1.8,0.8,2.6,2.2,2.6c0.8,0,1.4-0.2,1.9-0.4L292.4,66z M299.1,56.2v-1.7c-0.4-0.1-1-0.2-1.5-0.2
	c-1.4,0-2.5,0.7-2.5,2.5v1.3h-1.3v1.8h1.3v8h1.9v-8h1.8v-1.8H297V57c0-0.7,0.3-1,0.9-1C298.4,56,298.7,56.1,299.1,56.2z M308.1,67.9
	v-6.7c0-2.2-1.5-3.3-3.7-3.3c-1.4,0-2.4,0.3-3.4,0.9l0.7,1.5c0.8-0.4,1.5-0.6,2.6-0.6c1.2,0,1.8,0.6,1.8,1.7V62
	c-0.5-0.2-1.3-0.4-2.2-0.4c-2.2,0-3.9,1-3.9,3.2c0,2.4,1.8,3.3,3.4,3.3c1.1,0,2-0.5,2.7-1.2v1C306.1,67.9,308.1,67.9,308.1,67.9z
	 M306.3,65.1c-0.4,0.6-1.3,1.2-2.4,1.2c-1.3,0-1.9-0.7-1.9-1.6c0-0.9,0.8-1.5,2-1.5c1,0,1.7,0.2,2.2,0.4L306.3,65.1L306.3,65.1z
	 M312.9,67.9V54.3l-1.9,1v12.6H312.9z M323.8,62.8c0-2.6-1.3-4.9-4.1-4.9c-2.5,0-4.3,1.8-4.3,5.1c0,3.2,1.9,5.1,4.2,5.1
	c1.5,0,2.5-0.5,3.4-1.3l-1.1-1.2c-0.7,0.5-1.3,0.8-2.1,0.8c-1.2,0-2.3-0.8-2.5-2.7h6.5C323.7,63.5,323.8,63.2,323.8,62.8z
	 M321.8,62.1h-4.5c0.2-1.6,1-2.5,2.2-2.5C321.1,59.6,321.7,60.8,321.8,62.1z M334,67.9v-5.6c0-2.9-1.2-4.4-3.5-4.4
	c-1,0-2,0.4-2.5,1.1v-0.9h-1.9v9.8h1.9v-5.7c0-1.6,0.7-2.5,2-2.5s2,0.7,2,2.7v5.5L334,67.9L334,67.9z M336.4,60.1h4.7V62h-4.7V60.1z
	 M352.2,67.9V66h-6.5V54.9h-2v13H352.2z M356.9,55.6c0-0.7-0.6-1.2-1.2-1.2c-0.7,0-1.2,0.6-1.2,1.2c0,0.7,0.6,1.2,1.2,1.2
	C356.3,56.9,356.9,56.3,356.9,55.6z M356.6,67.9v-9.8h-1.9v9.8H356.6z M367.7,63.2c0-3.7-1.7-5.3-3.8-5.3c-1,0-1.8,0.5-2.6,1.1v-0.9
	h-1.9v13.4l1.9-1V67c0.5,0.6,1.5,1.1,2.5,1.1C365.9,68.1,367.7,66.5,367.7,63.2z M365.8,63.2c0,2.1-0.7,3.1-2.1,3.1
	c-1,0-1.9-0.7-2.3-1.3v-4.1c0.5-0.6,1.3-1.2,2.2-1.2C365,59.7,365.8,60.8,365.8,63.2z M378.3,63.2c0-3.7-1.7-5.3-3.8-5.3
	c-1,0-1.8,0.5-2.6,1.1v-0.9H370v13.4l1.9-1V67c0.5,0.6,1.5,1.1,2.5,1.1C376.5,68.1,378.3,66.5,378.3,63.2z M376.4,63.2
	c0,2.1-0.7,3.1-2.1,3.1c-1,0-1.9-0.7-2.3-1.3v-4.1c0.5-0.6,1.3-1.2,2.2-1.2C375.6,59.7,376.4,60.8,376.4,63.2z M388.7,62.8
	c0-2.6-1.3-4.9-4.1-4.9c-2.5,0-4.3,1.8-4.3,5.1c0,3.2,1.9,5.1,4.2,5.1c1.5,0,2.5-0.5,3.4-1.3l-1.1-1.2c-0.7,0.5-1.3,0.8-2.1,0.8
	c-1.2,0-2.3-0.8-2.5-2.7h6.5C388.6,63.5,388.7,63.2,388.7,62.8z M386.7,62.1h-4.5c0.2-1.6,0.9-2.5,2.2-2.5
	C386,59.6,386.6,60.8,386.7,62.1z M263.9,31.5h-2.1l-2.7,8.3c-0.2,0.8-0.6,1.9-0.7,2.4c-0.1-0.5-0.5-1.6-0.7-2.4l-2.7-8.3h-2.1
	l4.5,13h2.1L263.9,31.5z M271.8,39.4c0-2.6-1.3-4.9-4.1-4.9c-2.5,0-4.3,1.8-4.3,5.1c0,3.2,1.9,5.1,4.2,5.1c1.5,0,2.5-0.5,3.4-1.3
	l-1.1-1.2c-0.7,0.5-1.3,0.8-2.1,0.8c-1.2,0-2.3-0.8-2.5-2.7h6.5C271.8,40.1,271.8,39.8,271.8,39.4z M269.9,38.7h-4.6
	c0.2-1.6,1-2.5,2.2-2.5C269.2,36.2,269.8,37.4,269.9,38.7z M280,34.9c-0.4-0.3-0.9-0.4-1.7-0.4c-1,0-1.8,0.5-2.2,1.1v-0.9h-1.9v9.8
	h1.9v-5.6c0-1.7,0.7-2.5,1.9-2.5c0.6,0,1.1,0.1,1.5,0.4L280,34.9z M289.5,39.4c0-2.6-1.3-4.9-4.1-4.9c-2.5,0-4.3,1.8-4.3,5.1
	c0,3.2,1.9,5.1,4.2,5.1c1.5,0,2.5-0.5,3.4-1.3l-1.1-1.2c-0.7,0.5-1.3,0.8-2.1,0.8c-1.2,0-2.3-0.8-2.5-2.7h6.5
	C289.4,40.1,289.5,39.8,289.5,39.4z M287.5,38.7H283c0.2-1.6,1-2.5,2.2-2.5C286.8,36.2,287.4,37.4,287.5,38.7z M294.2,32.2
	c0-0.7-0.6-1.2-1.2-1.2c-0.7,0-1.2,0.6-1.2,1.2c0,0.7,0.6,1.2,1.2,1.2C293.6,33.5,294.2,32.9,294.2,32.2z M293.9,44.5v-9.8H292v9.8
	H293.9z M304.7,44.5v-5.6c0-2.9-1.2-4.4-3.5-4.4c-1,0-2,0.4-2.5,1.1v-0.9h-1.9v9.8h1.9v-5.7c0-1.6,0.7-2.5,2-2.5s2,0.7,2,2.7v5.5
	C302.7,44.5,304.7,44.5,304.7,44.5z M309.7,32.2c0-0.7-0.6-1.2-1.2-1.2c-0.7,0-1.2,0.6-1.2,1.2c0,0.7,0.6,1.2,1.2,1.2
	C309.2,33.5,309.7,32.9,309.7,32.2z M309.4,44.5v-9.8h-1.9v9.8H309.4z M320.1,43.6v-8.9h-1.9v0.9c-0.5-0.6-1.5-1.1-2.4-1.1
	c-2,0-3.9,1.6-3.9,4.9c0,3.7,1.7,5.3,3.8,5.3c1,0,1.8-0.5,2.5-1.1v0.2c0,2-0.6,2.8-3.4,2.9l0.7,1.5C319.1,48,320.1,46.6,320.1,43.6z
	 M318.3,41.7c-0.5,0.6-1.3,1.2-2.2,1.2c-1.4,0-2.2-1.1-2.2-3.5c0-2.1,0.7-3.1,2.1-3.1c1,0,1.9,0.7,2.3,1.3L318.3,41.7L318.3,41.7z
	 M330.8,44.5v-9.8h-1.9v5.7c0,1.6-0.7,2.5-2,2.5s-2-0.7-2-2.7v-5.5H323v5.6c0,2.9,1.2,4.4,3.5,4.4c1,0,2-0.4,2.5-1.1v0.9L330.8,44.5
	L330.8,44.5z M341.5,44.5v-5.6c0-2.9-1.2-4.4-3.5-4.4c-1,0-2,0.4-2.5,1.1v-0.9h-1.9v9.8h1.9v-5.7c0-1.6,0.7-2.5,2-2.5s2,0.7,2,2.7
	v5.5C339.5,44.5,341.5,44.5,341.5,44.5z M352,43.6v-8.9h-1.9v0.9c-0.5-0.6-1.5-1.1-2.4-1.1c-2,0-3.9,1.6-3.9,4.9
	c0,3.7,1.7,5.3,3.8,5.3c1,0,1.8-0.5,2.5-1.1v0.2c0,2-0.6,2.8-3.4,2.9l0.6,1.5C350.9,48,352,46.6,352,43.6z M350.1,41.7
	c-0.5,0.6-1.3,1.2-2.2,1.2c-1.4,0-2.2-1.1-2.2-3.5c0-2.1,0.7-3.1,2.1-3.1c1,0,1.9,0.7,2.3,1.3L350.1,41.7L350.1,41.7z M264,21.1
	l-4.7-8.3l3.8-4.7h-2.2l-3.9,4.8c-0.4,0.5-1.3,1.6-1.5,2c0-0.4,0-1.8,0-2.3V8.1h-1.9v13h1.9v-3.8l2.4-2.9l3.7,6.7L264,21.1L264,21.1
	L264,21.1z M272.9,21.1v-6.7c0-2.2-1.5-3.3-3.7-3.3c-1.4,0-2.4,0.3-3.4,0.9l0.7,1.5c0.8-0.4,1.5-0.6,2.6-0.6c1.2,0,1.8,0.6,1.8,1.7
	v0.7c-0.5-0.2-1.3-0.4-2.2-0.4c-2.2,0-3.9,1-3.9,3.2c0,2.4,1.8,3.3,3.4,3.3c1.1,0,2-0.5,2.7-1.2v1L272.9,21.1L272.9,21.1z M271,18.3
	c-0.4,0.6-1.3,1.2-2.4,1.2c-1.3,0-1.9-0.7-1.9-1.6c0-0.9,0.8-1.5,2-1.5c1,0,1.7,0.2,2.2,0.4L271,18.3L271,18.3z M282.5,18.4
	c0-1.8-1.1-2.4-3.3-3.3c-1.5-0.6-1.8-0.9-1.8-1.4s0.4-0.9,1.3-0.9s1.7,0.3,2.5,0.8l0.8-1.5c-0.9-0.6-2.1-1.1-3.3-1.1
	c-2,0-3.3,0.9-3.3,2.7c0,1.5,0.8,2.3,2.9,3.1c1.4,0.5,2.3,0.9,2.3,1.6s-0.6,1.1-1.8,1.1c-0.9,0-1.9-0.3-2.9-1L275,20
	c1,0.7,2.4,1.2,3.7,1.2C280.8,21.3,282.5,20.6,282.5,18.4z M291.6,18.4c0-1.8-1.1-2.4-3.3-3.3c-1.5-0.6-1.8-0.9-1.8-1.4
	s0.4-0.9,1.3-0.9s1.7,0.3,2.5,0.8l0.8-1.5c-0.9-0.6-2.1-1.1-3.3-1.1c-2,0-3.3,0.9-3.3,2.7c0,1.5,0.8,2.3,2.9,3.1
	c1.4,0.5,2.3,0.9,2.3,1.6s-0.6,1.1-1.8,1.1c-0.9,0-1.9-0.3-2.9-1l-0.9,1.5c1,0.7,2.4,1.2,3.7,1.2C289.9,21.3,291.6,20.6,291.6,18.4z
	 M301.8,16c0-2.6-1.3-4.9-4.1-4.9c-2.5,0-4.3,1.8-4.3,5.1c0,3.2,1.9,5.1,4.2,5.1c1.5,0,2.5-0.5,3.4-1.3l-1.1-1.2
	c-0.6,0.5-1.3,0.8-2.1,0.8c-1.2,0-2.3-0.8-2.5-2.7h6.5C301.8,16.7,301.8,16.4,301.8,16z M299.9,15.3h-4.6c0.2-1.6,0.9-2.5,2.2-2.5
	C299.2,12.9,299.8,14,299.9,15.3z M312.1,21.1v-5.6c0-2.9-1.2-4.4-3.5-4.4c-1,0-2,0.4-2.5,1.1v-0.9h-1.9v9.8h1.9v-5.7
	c0-1.6,0.7-2.5,2-2.5s2,0.7,2,2.7v5.5H312.1L312.1,21.1z M321.7,8.9c0-0.7-0.6-1.3-1.2-1.3c-0.7,0-1.3,0.6-1.3,1.3s0.6,1.2,1.3,1.2
	C321.1,10.1,321.7,9.5,321.7,8.9z M318,8.9c0-0.7-0.6-1.3-1.2-1.3c-0.7,0-1.3,0.6-1.3,1.3s0.6,1.2,1.3,1.2
	C317.4,10.1,318,9.5,318,8.9z M322.3,21.1v-6.7c0-2.2-1.5-3.3-3.7-3.3c-1.4,0-2.4,0.3-3.4,0.9l0.7,1.5c0.8-0.4,1.5-0.6,2.6-0.6
	c1.2,0,1.8,0.6,1.8,1.7v0.7c-0.5-0.2-1.3-0.4-2.2-0.4c-2.2,0-3.9,1-3.9,3.2c0,2.4,1.8,3.3,3.4,3.3c1.1,0,2-0.5,2.7-1.2v1L322.3,21.1
	L322.3,21.1z M320.4,18.3c-0.4,0.6-1.3,1.2-2.4,1.2c-1.3,0-1.9-0.7-1.9-1.6c0-0.9,0.8-1.5,2-1.5c1,0,1.7,0.2,2.2,0.4L320.4,18.3
	L320.4,18.3z M330.9,11.5c-0.4-0.3-0.9-0.4-1.7-0.4c-1,0-1.8,0.5-2.2,1.1v-0.9h-1.9v9.8h1.9v-5.6c0-1.7,0.7-2.5,1.9-2.5
	c0.6,0,1.1,0.1,1.5,0.4L330.9,11.5z M339.7,21.1v-1.7h-3.4c-0.5,0-1.4,0-1.8,0c0.3-0.3,0.8-0.9,1.2-1.4l4.1-5.1v-1.6h-7.2V13h3.2
	c0.5,0,1.4,0,1.8,0c-0.3,0.3-0.8,0.9-1.2,1.4l-4.2,5.1v1.6H339.7z M347.2,19.2c-0.4,0.2-0.9,0.4-1.4,0.4c-0.7,0-1-0.3-1-1.2v-5.3
	h2.4v-1.8h-2.4V7.5l-1.9,1v2.8h-1.4v1.8h1.4v5.6c0,1.8,0.8,2.6,2.2,2.6c0.8,0,1.4-0.2,1.9-0.4L347.2,19.2z M351.9,21.1V7.5l-1.9,1
	v12.6H351.9z M357.1,8.8c0-0.7-0.6-1.2-1.2-1.2c-0.7,0-1.2,0.6-1.2,1.2c0,0.7,0.6,1.2,1.2,1.2C356.5,10.1,357.1,9.5,357.1,8.8z
	 M356.8,21.1v-9.8h-1.9v9.8H356.8z M367,12.8c-0.9-1.1-2-1.7-3.5-1.7c-2.4,0-4.3,1.9-4.3,5.1c0,3.1,1.8,5.1,4.2,5.1
	c1.8,0,2.7-0.9,3.5-1.8l-1.2-1.2c-0.8,0.8-1.3,1.2-2.2,1.2c-1.5,0-2.3-1.4-2.3-3.3c0-2,0.9-3.2,2.3-3.2c0.9,0,1.6,0.4,2.4,1.2
	L367,12.8z M377.3,21.1v-5.6c0-2.9-1.2-4.4-3.5-4.4c-1,0-2,0.4-2.5,1.1V7.5l-1.9,1v12.6h1.9v-5.7c0-1.6,0.7-2.5,2-2.5s2,0.7,2,2.7
	v5.5H377.3L377.3,21.1z M388,16c0-2.6-1.3-4.9-4.1-4.9c-2.5,0-4.3,1.8-4.3,5.1c0,3.2,1.9,5.1,4.2,5.1c1.5,0,2.5-0.5,3.4-1.3
	l-1.1-1.2c-0.7,0.5-1.3,0.8-2.1,0.8c-1.2,0-2.3-0.8-2.5-2.7h6.5C388,16.7,388,16.4,388,16z M386.1,15.3h-4.5c0.2-1.6,1-2.5,2.2-2.5
	C385.3,12.9,386,14,386.1,15.3z"/>
    <path  class="st0" d="M215.7,8.1h-16v59.8h40.9V54h-25V8.1H215.7z M104.6,45l8.2-28.2l10.5,37.4h0.5L137,8.1h0.3h16.2
	l12.9,46.1h0.5l13.2-46.1h16.5l-17.5,59.8h-24.9l-9-31.7l-9.3,31.7H111L104.6,45z"/>
    <path  class="st1" d="M92.9,67.9h-25L52.4,12.8L34.7,37.4l22.8,30.5H37.7L21,44.4h-4.7v23.5h-16V8.1h16v22.5h4.8L36.4,8.1H51
	h4.7h11.5l12.9,46.1h0.5L93.8,8.1h16.5L92.9,67.9z"/>
</svg>
