<?xml version="1.0" encoding="UTF-8"?><svg id="a" xmlns="http://www.w3.org/2000/svg" xmlns:xlink="http://www.w3.org/1999/xlink" viewBox="0 0 212.18 40.63"><defs><style>.c{fill:#cd1719;}.d{clip-path:url(#b);}.e{fill:#d74e38;}.f{fill:none;}</style><clipPath id="b"><rect class="f" width="212.18" height="40.63"/></clipPath></defs><g class="d"><path class="c" d="M0,38.17H7.15l2.24-8.14h11.9l2.09,8.14h7.15L19.83,.44H10.85L0,38.17ZM15.4,7.69h.1l4.23,16.39H10.96L15.4,7.69Z"/><path class="e" d="M58.29,20.31v-3.7C58.29,7.53,53.89,0,44.51,0s-14.73,6.88-14.73,18.86,6.43,19.6,14.48,19.6c7.13,0,11.43-2.69,14.8-7.71l-5.7-3.31c-2.25,2.61-4.02,4.69-8.42,4.69-4.79,0-7.84-3.86-7.84-11.83h21.19Zm-21.19-6.1c.14-5.23,2.9-8.28,7.26-8.28s7.11,3.05,7.26,8.28h-14.52Z"/><path class="c" d="M90.89,38.17h7.15l2.24-8.14h11.9l2.09,8.14h7.15L110.72,.44h-8.98l-10.86,37.73Zm15.4-30.48h.1l4.23,16.39h-8.77l4.44-16.39Zm-37-1.15h4.8c8.25,0,10.18,6.05,10.18,12.79s-1.93,12.79-10.18,12.79h-4.8V6.54Zm-7.2,31.63h12.47c9.97,0,16.86-5.53,16.91-18.84-.05-13.31-6.94-18.84-16.91-18.84h-12.47V38.17Z"/><path class="e" d="M195.47,9.72c-.65,.63-1.08,.89-1.67,.89-1.14,0-1.87-.91-1.87-2.59,0-2,.8-2.69,1.87-2.69,.55,0,1.17,.37,1.67,.92v3.48Zm0-7.63v3.2l-.05-.03c-.51-.42-1.12-.74-1.74-.74-1.12,0-2.66,.86-2.66,3.43s1.54,3.43,2.71,3.43c.79,0,1.44-.36,1.74-.77l.13,.65h.84c-.08-.48-.05-.97-.05-1.45V2.1h-.91Zm-10.71,2.57v6.61h.92V6.33c.42-.45,1.21-1,1.89-1s1.08,.29,1.08,1.17v4.78h.91V6.47c0-1.42-.93-1.93-1.91-1.93-.75,0-1.44,.43-1.96,1.02h-.03v-.89h-.92Zm-2.91,4.85c-.53,.61-1.37,1.09-2.03,1.09-.51,0-1.09-.41-1.09-1.02,0-.92,1.03-1.52,3.13-1.89v1.82Zm-3.05-3.16c.18-.44,.67-1.03,1.69-1.03,.79,0,1.36,.33,1.36,1.21v.36c-2.94,.52-4.04,1.25-4.04,2.7,0,1.21,.86,1.82,1.88,1.82s1.73-.53,2.19-1.04l.1,.91h.94c-.09-.34-.15-.7-.15-1.42v-3.33c0-1.45-1.17-1.98-2.29-1.98-1.25,0-2.06,.64-2.48,1.4l.8,.42Zm-6.56-.11c.5-.55,1.12-.92,1.66-.92,1.07,0,1.87,.7,1.87,2.69,0,1.68-.72,2.59-1.87,2.59-.58,0-1.02-.25-1.66-.89v-3.48Zm-.92-4.14v7.73c0,.48,.03,.97-.05,1.45h.63l.16-.7c.53,.5,1.12,.83,1.91,.83,1.17,0,2.71-.79,2.71-3.43s-1.54-3.43-2.66-3.43c-.62,0-1.23,.32-1.74,.74l-.05,.03V2.1h-.92Zm-4.21,9.18h.91v-3.66c.43-1.36,1.03-2.11,2.17-2.14v-.91c-1.09,0-1.64,.51-2.15,1.41h-.03v-1.31h-.91v6.61Zm-5.8-3.91c.08-1.22,.67-2.03,1.78-2.03,.99,0,1.58,.81,1.58,2.03h-3.36Zm3.76,2.14c-.38,.69-1.02,1.12-1.83,1.12-1.09,0-1.96-1.02-1.96-2.47h4.3v-.61c0-2.11-1.14-3-2.52-3-1.63,0-2.7,1.3-2.7,3.43,0,2.42,1.4,3.43,2.87,3.43s2.11-.79,2.54-1.54l-.71-.37Zm-5.41-4.83h-.93l-1.68,5.46h-.02l-1.68-5.46h-.93l2.03,6.61h1.22l1.98-6.61Zm-10.35,2.69c.08-1.22,.67-2.03,1.78-2.03,.99,0,1.58,.81,1.58,2.03h-3.36Zm3.76,2.14c-.38,.69-1.02,1.12-1.83,1.12-1.09,0-1.96-1.02-1.96-2.47h4.3v-.61c0-2.11-1.14-3-2.52-3-1.63,0-2.69,1.3-2.69,3.43,0,2.42,1.4,3.43,2.87,3.43s2.11-.79,2.54-1.54l-.71-.37Zm-9.22-4.83v.79h1.08v4.85c0,.84,.42,1.09,1.41,1.09,.53,0,.9-.05,1.07-.1v-.75c-.24,.04-.51,.06-.81,.06-.53,0-.75-.15-.75-.46V5.45h1.53v-.79h-1.53V2.49h-.91v2.17h-1.08Zm-.61,5.82h-3.63l3.61-5.16v-.66h-4.5v.79h3.25l-3.61,5.16v.66h4.88v-.79Zm-8.61,.79h.92v-3.66c.43-1.36,1.03-2.11,2.17-2.14v-.91c-1.09,0-1.64,.51-2.15,1.41h-.03v-1.31h-.92v6.61Zm-7.28,0l.86-2.87h3.29l.87,2.87h1.07l-2.82-9.18h-1.51l-2.82,9.18h1.07Zm2.44-8.46h.14l1.32,4.73h-2.78l1.32-4.73Zm-.37-2.52h-1.12V1.49h1.12V.29Zm2.01,0h-1.12V1.49h1.12V.29Z"/><path class="e" d="M177.68,24.73h.91v-3.66c.43-1.36,1.03-2.11,2.17-2.14v-.92c-1.09,0-1.64,.51-2.15,1.41h-.03v-1.31h-.91v6.61Zm-5.8-3.92c.08-1.22,.67-2.03,1.78-2.03,.99,0,1.58,.81,1.58,2.03h-3.36Zm3.76,2.14c-.38,.69-1.02,1.12-1.83,1.12-1.09,0-1.96-1.02-1.96-2.47h4.3v-.61c0-2.11-1.14-3-2.52-3-1.63,0-2.69,1.3-2.69,3.43,0,2.41,1.4,3.43,2.87,3.43s2.11-.79,2.54-1.54l-.71-.37Zm-11.15-7.4v9.18h.91v-4.94c.42-.45,1.21-1,1.89-1s1.08,.29,1.08,1.17v4.78h.92v-4.8c0-1.42-.93-1.93-1.91-1.93-.75,0-1.44,.43-1.96,1.02h-.03v-3.46h-.91Zm-1.6,4.23c-.42-1.03-1.05-1.79-2.42-1.79-1.65,0-2.71,1.3-2.71,3.43s1.05,3.43,2.71,3.43c1.31,0,1.89-.56,2.56-1.68l-.74-.33c-.51,.94-.98,1.22-1.82,1.22-1.13,0-1.79-.97-1.79-2.64s.66-2.64,1.79-2.64c.79,0,1.31,.51,1.56,1.31l.85-.3Zm-10.97,3.81c.61,.81,1.61,1.26,2.64,1.26,1.19,0,2.31-.65,2.31-1.93,0-2.47-3.84-1.73-3.84-3.16,0-.58,.42-.98,1.2-.98,.71,0,1.19,.3,1.7,.93l.63-.56c-.45-.67-1.4-1.14-2.26-1.16-1.27-.01-2.15,.64-2.19,1.78-.08,2.41,3.84,1.53,3.84,3.2,0,.56-.43,1.09-1.42,1.09-.83,0-1.46-.39-1.89-1.02l-.73,.55Zm-4.31-5.48v.79h1.08v4.86c0,.84,.42,1.09,1.41,1.09,.53,0,.9-.05,1.07-.1v-.75c-.24,.04-.51,.06-.81,.06-.53,0-.75-.15-.75-.46v-4.7h1.53v-.79h-1.53v-2.17h-.91v2.17h-1.08Zm-1.36,6.61v-6.61h-.92v4.94c-.42,.45-1.21,1-1.89,1s-1.08-.29-1.08-1.17v-4.78h-.92v4.8c0,1.42,.93,1.93,1.91,1.93,.75,0,1.44-.43,1.96-1.02h.02v.89h.92Zm-10.59-3.92c.08-1.22,.67-2.03,1.78-2.03,.99,0,1.58,.81,1.58,2.03h-3.36Zm3.76,2.14c-.38,.69-1.02,1.12-1.83,1.12-1.09,0-1.96-1.02-1.96-2.47h4.3v-.61c0-2.11-1.14-3-2.52-3-1.63,0-2.7,1.3-2.7,3.43,0,2.41,1.4,3.43,2.87,3.43s2.11-.79,2.54-1.54l-.71-.37Zm-12.16,1.78h2.42c2.75,0,4.19-1.89,4.19-4.59,0-3.01-1.65-4.59-4.14-4.59h-2.47v9.18Zm1.02-8.31h1.42c1.88,0,3.15,1.04,3.15,3.72,0,2.47-1.09,3.73-3.2,3.73h-1.37v-7.45Z"/><path class="e" d="M210.93,36.79m0,1.4h1.25v-1.4h-1.25v1.4Zm-3.65,0h.93l2.85-9.18h-1.03l-2.28,7.53h-.03l-2.26-7.53h-1.02l2.83,9.18Zm-3.85,0h1.25v-1.4h-1.25v1.4Zm-5.71-3.92c.08-1.22,.67-2.03,1.78-2.03,.99,0,1.58,.81,1.58,2.03h-3.36Zm3.76,2.14c-.38,.69-1.02,1.12-1.83,1.12-1.09,0-1.96-1.02-1.96-2.47h4.3v-.61c0-2.11-1.14-3-2.52-3-1.63,0-2.69,1.3-2.69,3.43,0,2.41,1.4,3.43,2.87,3.43s2.11-.79,2.54-1.54l-.71-.37Zm-14.9-4.83v6.61h.91v-4.94c.42-.45,1.21-1,1.89-1s1.08,.29,1.08,1.17v4.78h.92v-4.8c0-1.42-.93-1.93-1.91-1.93-.75,0-1.44,.43-1.96,1.02h-.03v-.89h-.91Zm-6.04,2.69c.08-1.22,.67-2.03,1.78-2.03,.99,0,1.58,.81,1.58,2.03h-3.36Zm3.76,2.14c-.38,.69-1.02,1.12-1.83,1.12-1.09,0-1.96-1.02-1.96-2.47h4.3v-.61c0-2.11-1.14-3-2.52-3-1.63,0-2.69,1.3-2.69,3.43,0,2.41,1.4,3.43,2.87,3.43s2.11-.79,2.54-1.54l-.71-.37Zm-6.89-2.59c0,.79-.53,1.47-1.58,1.47s-1.7-.65-1.7-1.53,.56-1.52,1.6-1.52c1.12,0,1.68,.61,1.68,1.58m.57,5.07c-.01,.65-.9,.95-2,.95-1.83,0-2.14-.33-2.14-.83s.41-1.11,1.84-1.11c1.62,0,2.28,.33,2.29,.98m.85-7.56c-.5,.05-1.03,.3-1.42,.58-.43-.31-.93-.46-1.64-.46-1.41,0-2.5,.92-2.5,2.31,0,.73,.28,1.37,.9,1.84-.51,.32-.89,.56-.89,1.13,0,.39,.32,.79,.83,.94-.71,.37-1.12,.69-1.12,1.35,0,1.09,.99,1.6,2.85,1.6,2.06,0,3.01-.81,3.01-1.78,0-1.3-1-1.85-4.13-1.85-.33,0-.55-.18-.55-.48s.17-.51,.52-.61c.36,.1,.64,.18,1.17,.18,1.33,0,2.42-1,2.42-2.31,0-.61-.27-1.12-.46-1.35,.23-.12,.64-.18,1.02-.18v-.91Zm-6.57,3.56c0-1.91-.9-3.43-2.71-3.43s-2.71,1.52-2.71,3.43,.9,3.43,2.71,3.43,2.71-1.53,2.71-3.43m-.91,0c0,1.7-.7,2.64-1.79,2.64s-1.79-.94-1.79-2.64,.7-2.64,1.79-2.64,1.79,.94,1.79,2.64m-7.19,3.3h.92v-9.18h-.92v9.18Zm-1.53-3.3c0-1.91-.9-3.43-2.71-3.43s-2.71,1.52-2.71,3.43,.9,3.43,2.71,3.43,2.71-1.53,2.71-3.43m-.91,0c0,1.7-.7,2.64-1.79,2.64s-1.79-.94-1.79-2.64,.7-2.64,1.79-2.64,1.79,.94,1.79,2.64m-6.65-1.07c0,.79-.53,1.47-1.58,1.47s-1.7-.65-1.7-1.53,.56-1.52,1.6-1.52c1.12,0,1.68,.61,1.68,1.58m.57,5.07c-.01,.65-.9,.95-2,.95-1.83,0-2.14-.33-2.14-.83s.41-1.11,1.84-1.11c1.61,0,2.28,.33,2.29,.98m.85-7.56c-.5,.05-1.03,.3-1.42,.58-.43-.31-.93-.46-1.64-.46-1.41,0-2.5,.92-2.5,2.31,0,.73,.28,1.37,.9,1.84-.51,.32-.89,.56-.89,1.13,0,.39,.32,.79,.83,.94-.71,.37-1.12,.69-1.12,1.35,0,1.09,.99,1.6,2.85,1.6,2.06,0,3.01-.81,3.01-1.78,0-1.3-1-1.85-4.13-1.85-.33,0-.55-.18-.55-.48s.17-.51,.52-.61c.36,.1,.64,.18,1.17,.18,1.33,0,2.42-1,2.42-2.31,0-.61-.27-1.12-.46-1.35,.23-.12,.64-.18,1.02-.18v-.91Zm-9.44,6.86h.92v-3.66c.43-1.36,1.03-2.11,2.17-2.14v-.91c-1.09,0-1.64,.51-2.15,1.41h-.03v-1.31h-.92v6.61Zm-5.79-3.92c.08-1.22,.67-2.03,1.78-2.03,.99,0,1.58,.81,1.58,2.03h-3.35Zm3.76,2.14c-.38,.69-1.02,1.12-1.83,1.12-1.09,0-1.96-1.02-1.96-2.47h4.3v-.61c0-2.11-1.14-3-2.52-3-1.63,0-2.7,1.3-2.7,3.43,0,2.41,1.4,3.43,2.87,3.43s2.11-.79,2.54-1.54l-.71-.37Zm-7.18,1.78h.91v-9.18h-.91v9.18Zm-3.03,0h.91v-9.18h-.91v9.18Zm-7.45,0l.86-2.87h3.29l.87,2.87h1.07l-2.82-9.18h-1.51l-2.82,9.18h1.07Zm2.44-8.47h.14l1.32,4.73h-2.78l1.32-4.73Z"/></g></svg>