<?xml version="1.0" encoding="UTF-8"?>
<svg xmlns="http://www.w3.org/2000/svg" xmlns:xlink="http://www.w3.org/1999/xlink" version="1.1" id="Layer_1" x="0px" y="0px" viewBox="0 0 288 216" style="enable-background:new 0 0 288 216;" xml:space="preserve">
<style type="text/css">
	.st0{fill:#00824B;}
	.st1{fill:#D2D700;}
	.st2{fill:#145F3C;}
	.st3{fill:#509191;}
	.st4{fill:#AAC85F;}
	.st5{fill:#6E6E6E;}
	.st6{fill:#6E6E6E;stroke:#6E6E6E;stroke-width:0.12;stroke-miterlimit:10;}
	.st7{fill:none;}
</style>
<g>
	<g>
		<path class="st0" d="M81.8,99.6c-4.9,3.8-6.4,4.5-14.6,6.4l-0.9-8.4l4.3-0.8c0,0,6-2,8.8,0C80.5,97.7,81.8,99.6,81.8,99.6     M88.9,97.3c0,0-0.7-2.9-1.7-4.5c-2.7-4.1-7.6-5-11.8-5c-3.3,0-7.1,0.5-11.4,1.5c-4.3-15.7-5.3-17.8-12-26.9l-4,2.3    c0,0-0.1,4.5,0,7.4c0.4,12.6,5.5,31.8,5.5,31.8l0.1,11.2l15.2-0.7l-1.1,1.7c5.3-0.3,8.3-3.3,13.4-5.8c2.7-1.3,4.9-1.1,6.8-3.5    C90.2,103.8,88.9,97.3,88.9,97.3"></path>
		<path class="st1" d="M204.4,98.4c0-11.5-5-22.1-11.3-17.2c-2.9,2.3-4,6-4,8.6c0,1.7,1.1,11.1,1.1,12.9c0,2.1-0.5,3.5-2.3,6    c-5.5-2.3-7.2-2.8-8.6-2.8c-1,0-4.1,2.1-4.1,2.1c0.3,9.2,4.5,13.2,13.4,13.2C198.7,121.2,204.4,112.9,204.4,98.4"></path>
		<path class="st2" d="M240,108.9c-0.3-2.3-0.9-3.6-2.5-5.2c-2.7-2.8-6.2-3.2-9.8-1.9c-3.1,1.2-5.5,2.9-5.9,6.2    c-0.3,2.3,0.4,3.8,1.8,5.7C227.4,119.2,240.7,115.6,240,108.9"></path>
		<path class="st3" d="M126.4,81.8c1.3-2.4-0.5-7-0.5-7l-1.2,0.9c0,0-0.1-1.8-0.6-2.8c-1.1-2.4-5.7-3.4-5.7-3.4l-11.2,15.2    c-2-7.7-6.6-15.1-9.7-15.6c-0.8-0.1-2,0-3.6,0.4c-3.5,1.1-5.9,2.7-6.2,4.5c-0.3,1.9,0.7,5.2,3,9.2c3.9,12.2,5.1,14.8,11.3,23.5    c5.4-1.2,6.6-2.1,9.8-7.8l2.3,0.4c7-11.4,8.1-13,9.9-14.8C125.5,82.7,125.7,83,126.4,81.8"></path>
		<path class="st4" d="M172.1,78.2c0.5-2.9-1.3-5.3-4.3-5.8c-1.7-0.3-3.7-0.1-5.3,0.6l-10.8,3.5l-2.1,1.5l-6-10.6    c0,0-4.5-1.8-6.6-0.3c-2,1.5-1.1,4.5-1.5,6.4c-0.1,0.8,0,6.7,0.6,13.3c0.2,2.4,0.3,6.1,0.1,10.9l1.5,0.3c0,0-2.3,5.3-1.5,8.6    c0.4,1.6,1.8,3.9,1.8,3.9s1.9,1.7,3.5,1.8c1.7,0,3.7-1.9,3.7-1.9s3.4-0.4,3.9-0.1l0.9-10.2c4.7,4,8.8,6.4,11.7,6.9    c2.1,0.3,5.5,0.1,10-0.7c-1.3-10.4-3.1-12.2-16.2-16C166.3,86.4,171.3,82.8,172.1,78.2"></path>
	</g>
	<g>
		<path class="st5" d="M52.4,146.7h-3.8v-10.4c0.2,0,0.6,0,0.7,0c1.1,0,1.6-0.1,2.7-0.1c2.2,0,3,1.2,3,2.5c0,1.3-0.7,2.3-1.8,2.4    c1.4,0.1,2.4,1,2.4,2.7C55.6,145.6,54.3,146.7,52.4,146.7z M51.7,137.2L51.7,137.2l-1.9,0v3.4h1.8c1.5,0,2.1-0.6,2.1-1.7    C53.6,138,52.9,137.2,51.7,137.2z M51.9,141.7h-2.1v4h2c1.7,0,2.5-0.6,2.5-2C54.3,142.3,53.3,141.7,51.9,141.7z"></path>
		<path class="st5" d="M58.5,142.7c0,0.2,0,0.2,0,0.4c0,1.7,0.9,2.7,2.3,2.7c0.9,0,1.8-0.4,2.2-0.7l0.1,1.1    c-0.6,0.4-1.4,0.7-2.7,0.7c-1.8,0-3.2-1.4-3.2-3.8c0-2.4,1.4-3.8,3.2-3.8c2.1,0,2.9,1.1,2.9,3.4H58.5z M60.3,140.4    c-0.3,0-0.9,0.1-0.9,0.2c-0.1,0.1-0.5,0.5-0.7,1.2h3.5C62.1,140.5,61.3,140.4,60.3,140.4z"></path>
		<path class="st5" d="M68.3,141c0-0.1,0-0.5-0.5-0.5c-0.7,0-1.2,1.1-1.4,1.7v4.5h-1.2v-5.2c0-0.8,0-1.2-0.1-2h1.1l0.2,1.1    c0.2-0.6,0.9-1.3,1.6-1.3c0.7,0,1,0.4,1.1,1c0,0.1,0,0.3,0,0.4L68.3,141z"></path>
		<path class="st5" d="M75.4,146.7l-0.2-1c-0.7,0.9-1.3,1.2-2.4,1.2c-1.3,0-2.3-0.4-2.3-1.9v-5.5h1.2v4.6c0,0.9,0.1,1.7,1.2,1.7    c0.4,0,0.9-0.1,1.3-0.3c0.4-0.3,0.9-1,1-1.3v-4.7h1.2v5.2c0,0.6,0,1.3,0.1,2H75.4z"></path>
		<path class="st5" d="M83.9,136.5c-0.5-0.3-0.8-0.5-1.5-0.5c-0.5,0-1.1,0.2-1.2,0.3c-0.1,0.1-0.7,0.5-0.7,3.3h1.8v0.9h-1.8v6.2    h-1.2v-6.2H78v-0.9h1.3v-0.2c0-3.7,1-4.4,3.3-4.4c0.6,0,1.1,0.1,1.5,0.3L83.9,136.5z"></path>
		<path class="st5" d="M85.6,146.9c-0.9,0-1.7-0.2-2.3-0.6l0.1-1.1c0.7,0.5,1.1,0.7,2.1,0.7c0.9,0,1.5-0.5,1.5-1.1    c0-1.3-3.8-1.4-3.8-3.5c0-1.1,0.9-2,2.6-2c1,0,1.7,0.3,2.3,0.5l-0.1,1.1c-0.7-0.6-1.5-0.7-2.2-0.7c-0.6,0-1.3,0.3-1.3,0.9    c0,1.3,3.8,1.3,3.8,3.5C88.3,145.8,87.4,146.9,85.6,146.9z"></path>
		<path class="st5" d="M92.9,146.9h-0.9l-2.8-7.3h1.3l2.1,5.5l1.9-5.5h1.2L92.9,146.9z"></path>
		<path class="st5" d="M97.5,142.7c0,0.2,0,0.2,0,0.4c0,1.7,0.9,2.7,2.3,2.7c0.9,0,1.8-0.4,2.2-0.7l0.1,1.1    c-0.6,0.4-1.4,0.7-2.7,0.7c-1.8,0-3.2-1.4-3.2-3.8c0-2.4,1.4-3.8,3.2-3.8c2.1,0,2.9,1.1,2.9,3.4H97.5z M99.3,140.4    c-0.3,0-0.9,0.1-0.9,0.2c-0.1,0.1-0.5,0.5-0.7,1.2h3.5C101.1,140.5,100.3,140.4,99.3,140.4z"></path>
		<path class="st5" d="M107.3,141c0-0.1,0-0.5-0.5-0.5c-0.7,0-1.2,1.1-1.4,1.7v4.5h-1.2v-5.2c0-0.8,0-1.2-0.1-2h1.1l0.2,1.1    c0.2-0.6,0.9-1.3,1.6-1.3c0.7,0,1,0.4,1.1,1c0,0.1,0,0.3,0,0.4L107.3,141z"></path>
		<path class="st5" d="M112,146.9c-0.6,0-1.5-0.1-2.4-0.3v-11.4h1.2v4.6c0.6-0.2,1.3-0.4,2.2-0.4c1.6,0,2.8,1,2.8,3.6    C115.8,145.4,114.3,146.9,112,146.9z M112.7,140.4c-0.6,0-0.9,0-1,0c-0.2,0.1-0.6,0.2-1,0.4v4.9c0.5,0.1,0.8,0.1,1.2,0.1    c1.6,0,2.5-1,2.5-2.8C114.4,141.5,114,140.4,112.7,140.4z"></path>
		<path class="st5" d="M121.6,146.7c-0.1-0.4-0.2-0.6-0.3-1c-0.5,0.7-1.1,1.2-2.2,1.2c-1.1,0-1.8-0.7-1.8-1.6c0-0.7,0.1-1.1,0.3-1.3    c0.4-0.6,2.9-1.2,3.6-1.3v-1c0-1.1-0.3-1.3-1.3-1.3c-0.7,0-1.2,0.1-1.2,0.6l-1.1,0.1c0-0.4,0-0.8,0.1-1.1c0-0.1,0.8-0.7,2.3-0.7    c1.6,0,2.4,0.7,2.4,1.9v3.3c0,0.7,0.2,1.6,0.3,2.1H121.6z M121.2,143.6c-0.8,0.1-1.9,0.5-2.6,0.9c-0.1,0.3-0.1,0.4-0.1,0.6    c0,0.4,0.1,0.8,0.9,0.8c0.9,0,1.8-1,1.8-1.2V143.6z"></path>
		<path class="st5" d="M131,146.7h-1.2c0-1.6,0-2,0-3.1v-0.7c0-0.3,0-0.6,0-0.9c-0.1-1.1-0.2-1.6-1.2-1.6c-0.4,0-1,0.1-1.1,0.2    c-0.2,0.1-0.8,0.8-1.2,1.3v4.8h-1.2v-5.2c0-0.8-0.1-1.4-0.1-2h1.1l0.2,1.1c0.6-0.7,1.3-1.2,2.4-1.2c1.3,0,2.2,0.4,2.3,1.9    c0.1,0.7,0.1,1.4,0.1,2.1C131,144.5,131,145.1,131,146.7z"></path>
		<path class="st5" d="M138.6,146.7c-0.1-0.3-0.1-0.6-0.1-0.9c-0.7,0.8-1.3,1.1-2.2,1.1c-1.7,0-3-1.5-3-3.7c0-2.4,1.4-3.8,3.6-3.8    c0.7,0,1,0.1,1.6,0.2v-4.4h1.2v9.5c0,0.7,0,1.3,0.1,2H138.6z M138.4,141.7c0-1.2-0.4-1.3-1.7-1.3c-0.5,0-1.1,0.1-1.3,0.2    c-0.2,0.2-0.9,1-0.9,2.4c0,1.9,1.1,2.8,1.9,2.8c0.9,0,1.5-0.6,2-1.2V141.7z"></path>
		<path class="st5" d="M150.9,146.7c-0.1-0.3-0.1-0.6-0.1-0.9c-0.7,0.8-1.3,1.1-2.2,1.1c-1.7,0-3-1.5-3-3.7c0-2.4,1.4-3.8,3.6-3.8    c0.7,0,1,0.1,1.6,0.2v-4.4h1.2v9.5c0,0.7,0,1.3,0.1,2H150.9z M150.6,141.7c0-1.2-0.4-1.3-1.7-1.3c-0.5,0-1.1,0.1-1.3,0.2    c-0.2,0.2-0.9,1-0.9,2.4c0,1.9,1.1,2.8,1.9,2.8c0.9,0,1.5-0.6,2-1.2V141.7z"></path>
		<path class="st5" d="M155.2,142.7c0,0.2,0,0.2,0,0.4c0,1.7,0.9,2.7,2.3,2.7c0.9,0,1.8-0.4,2.2-0.7l0.1,1.1    c-0.6,0.4-1.4,0.7-2.7,0.7c-1.8,0-3.2-1.4-3.2-3.8c0-2.4,1.4-3.8,3.2-3.8c2.1,0,2.9,1.1,2.9,3.4H155.2z M157,140.4    c-0.3,0-0.9,0.1-0.9,0.2c-0.1,0.1-0.5,0.5-0.7,1.2h3.5C158.8,140.5,157.9,140.4,157,140.4z"></path>
		<path class="st5" d="M165.1,141c0-0.1,0-0.5-0.5-0.5c-0.7,0-1.2,1.1-1.4,1.7v4.5H162v-5.2c0-0.8,0-1.2-0.1-2h1.1l0.2,1.1    c0.2-0.6,0.9-1.3,1.6-1.3c0.7,0,1,0.4,1.1,1c0,0.1,0,0.3,0,0.4L165.1,141z"></path>
		<path class="st5" d="M54.2,164.1l-2.5-3.5c-0.6-0.8-1.3-1.5-1.9-1.9v5.4h-1.2v-10.4h1.2v4.9c0.5-0.4,1.4-1.3,1.8-1.9l2.4-3h1.4    l-2.3,3c-0.4,0.5-1.2,1.4-1.7,1.8c0.7,0.6,1.3,1.4,1.9,2.2l2.4,3.4H54.2z"></path>
		<path class="st5" d="M57.8,155.2c-0.4,0-0.8-0.4-0.8-0.9c0-0.4,0.4-0.9,0.8-0.9c0.4,0,0.8,0.4,0.8,0.9    C58.6,154.8,58.2,155.2,57.8,155.2z M57.2,164.1v-7.1h1.2v7.1H57.2z"></path>
		<path class="st5" d="M66.8,164.1h-1.2c0-1.6,0-2,0-3.1v-0.7c0-0.3,0-0.6,0-0.9c-0.1-1.1-0.2-1.6-1.2-1.6c-0.4,0-1,0.1-1.1,0.2    c-0.2,0.1-0.8,0.8-1.2,1.3v4.8h-1.2v-5.2c0-0.8-0.1-1.4-0.1-2h1.1l0.2,1.1c0.6-0.7,1.3-1.2,2.4-1.2c1.3,0,2.2,0.4,2.3,1.9    c0.1,0.7,0.1,1.4,0.1,2.1C66.8,161.9,66.8,162.4,66.8,164.1z"></path>
		<path class="st5" d="M74.1,164.1c-0.1-0.3-0.1-0.6-0.1-0.9c-0.7,0.8-1.3,1.1-2.2,1.1c-1.7,0-3-1.5-3-3.7c0-2.4,1.4-3.8,3.6-3.8    c0.7,0,1,0.1,1.6,0.2v-4.4h1.2v9.5c0,0.7,0,1.3,0.1,2H74.1z M73.9,159.1c0-1.2-0.4-1.3-1.7-1.3c-0.5,0-1.1,0.1-1.3,0.2    c-0.2,0.2-0.9,1-0.9,2.4c0,1.9,1.1,2.8,1.9,2.8c0.9,0,1.5-0.6,2-1.2V159.1z"></path>
		<path class="st5" d="M78.3,160.1c0,0.2,0,0.2,0,0.4c0,1.7,0.9,2.7,2.3,2.7c0.9,0,1.8-0.4,2.2-0.7l0.1,1.1    c-0.6,0.4-1.4,0.7-2.7,0.7c-1.8,0-3.2-1.4-3.2-3.8c0-2.4,1.4-3.8,3.2-3.8c2.1,0,2.9,1.1,2.9,3.4H78.3z M80.1,157.8    c-0.3,0-0.9,0.1-0.9,0.2c-0.1,0.1-0.5,0.5-0.7,1.2h3.5C81.9,157.9,81,157.8,80.1,157.8z"></path>
		<path class="st5" d="M88.1,158.3c0-0.1,0-0.5-0.5-0.5c-0.7,0-1.2,1.1-1.4,1.7v4.5H85v-5.2c0-0.8,0-1.2-0.1-2h1.1l0.2,1.1    c0.2-0.6,0.9-1.3,1.6-1.3c0.7,0,1,0.4,1.1,1c0,0.1,0,0.3,0,0.4L88.1,158.3z"></path>
		<path class="st5" d="M89.8,161v-1.2h4v1.2H89.8z"></path>
		<path class="st5" d="M103.9,164.1l-0.2-1c-0.7,0.9-1.3,1.2-2.4,1.2c-1.3,0-2.3-0.4-2.3-1.9v-5.5h1.2v4.6c0,0.9,0.1,1.7,1.2,1.7    c0.4,0,0.9-0.1,1.3-0.3c0.4-0.3,0.9-1,1-1.3v-4.7h1.2v5.2c0,0.6,0,1.3,0.1,2H103.9z"></path>
		<path class="st5" d="M113.3,164.1h-1.2c0-1.6,0-2,0-3.1v-0.7c0-0.3,0-0.6,0-0.9c-0.1-1.1-0.2-1.6-1.2-1.6c-0.4,0-1,0.1-1.1,0.2    c-0.2,0.1-0.8,0.8-1.2,1.3v4.8h-1.2v-5.2c0-0.8-0.1-1.4-0.1-2h1.1l0.2,1.1c0.6-0.7,1.3-1.2,2.4-1.2c1.3,0,2.2,0.4,2.3,1.9    c0.1,0.7,0.1,1.4,0.1,2.1C113.4,161.9,113.4,162.4,113.3,164.1z"></path>
		<path class="st5" d="M120.7,164.1c-0.1-0.3-0.1-0.6-0.1-0.9c-0.7,0.8-1.3,1.1-2.2,1.1c-1.7,0-3-1.5-3-3.7c0-2.4,1.4-3.8,3.6-3.8    c0.7,0,1,0.1,1.6,0.2v-4.4h1.2v9.5c0,0.7,0,1.3,0.1,2H120.7z M120.4,159.1c0-1.2-0.4-1.3-1.7-1.3c-0.5,0-1.1,0.1-1.3,0.2    c-0.2,0.2-0.9,1-0.9,2.4c0,1.9,1.1,2.8,1.9,2.8c0.9,0,1.5-0.6,2-1.2V159.1z"></path>
		<path class="st5" d="M125.9,167.8v-1.1c2.4-0.1,2.9-2.1,2.9-3.9v-9.2h1.2v9.6C130,166.1,128.4,167.8,125.9,167.8z"></path>
		<path class="st5" d="M137.6,164.1l-0.2-1c-0.7,0.9-1.3,1.2-2.4,1.2c-1.3,0-2.3-0.4-2.3-1.9v-5.5h1.2v4.6c0,0.9,0.1,1.7,1.2,1.7    c0.4,0,0.9-0.1,1.3-0.3c0.4-0.3,0.9-1,1-1.3v-4.7h1.2v5.2c0,0.6,0,1.3,0.1,2H137.6z"></path>
		<path class="st5" d="M146.4,158.2c0.2,0.3,0.3,0.8,0.3,1.2c0,1.8-1.2,2.8-3,2.8c-0.4,0-0.5,0-0.9-0.1c-0.4,0.2-0.8,0.6-0.8,1    c0,0.2,0.1,0.4,0.6,0.4c0.8,0,1.5-0.1,2.3-0.1c1.7,0,2.5,0.3,2.5,1.7c0,2-1.9,3-4,3c-1.6,0-2.8-0.3-2.8-1.7c0-0.9,0.4-1.4,1.1-1.9    c-0.4-0.1-0.9-0.3-0.9-1.1c0-0.6,0.7-1.3,1.2-1.7c-0.7-0.5-1.3-0.9-1.3-2.4c0-1.6,1-2.7,3-2.7c1,0,1.6,0.3,1.9,0.5h0.3    c0.5,0,1.4,0,1.8-0.1v1.1H146.4z M144.8,164.4c-0.8,0-1.1,0.1-1.9,0.1c-0.6,0.5-1,0.9-1,1.7c0,0.8,0.5,0.9,1.7,0.9    c1.5,0,2.6-0.8,2.6-1.7C146.2,164.6,146.1,164.4,144.8,164.4z M143.8,157.7c-0.5,0-1,0.2-1.2,0.4c-0.2,0.2-0.5,0.7-0.5,1.3    c0,1.5,0.7,1.7,1.7,1.7c0.5,0,1-0.2,1.2-0.4c0.1-0.2,0.5-0.6,0.5-1.4C145.4,158.2,144.9,157.7,143.8,157.7z"></path>
		<path class="st5" d="M150.1,160.1c0,0.2,0,0.2,0,0.4c0,1.7,0.9,2.7,2.3,2.7c0.9,0,1.8-0.4,2.2-0.7l0.1,1.1    c-0.6,0.4-1.4,0.7-2.7,0.7c-1.8,0-3.2-1.4-3.2-3.8c0-2.4,1.4-3.8,3.2-3.8c2.1,0,2.9,1.1,2.9,3.4H150.1z M151.9,157.8    c-0.3,0-0.9,0.1-0.9,0.2c-0.1,0.1-0.5,0.5-0.7,1.2h3.5C153.7,157.9,152.9,157.8,151.9,157.8z"></path>
		<path class="st5" d="M162.7,164.1h-1.2c0-1.6,0-2,0-3.1v-0.7c0-0.3,0-0.6,0-0.9c-0.1-1.1-0.2-1.6-1.2-1.6c-0.4,0-1,0.1-1.1,0.2    c-0.2,0.1-0.8,0.8-1.2,1.3v4.8h-1.2v-5.2c0-0.8-0.1-1.4-0.1-2h1.1l0.2,1.1c0.6-0.7,1.3-1.2,2.4-1.2c1.3,0,2.2,0.4,2.3,1.9    c0.1,0.7,0.1,1.4,0.1,2.1C162.7,161.9,162.7,162.4,162.7,164.1z"></path>
		<path class="st5" d="M170,164.1c-0.1-0.3-0.1-0.6-0.1-0.9c-0.7,0.8-1.3,1.1-2.2,1.1c-1.7,0-3-1.5-3-3.7c0-2.4,1.4-3.8,3.6-3.8    c0.7,0,1,0.1,1.6,0.2v-4.4h1.2v9.5c0,0.7,0,1.3,0.1,2H170z M169.8,159.1c0-1.2-0.4-1.3-1.7-1.3c-0.5,0-1.1,0.1-1.3,0.2    c-0.2,0.2-0.9,1-0.9,2.4c0,1.9,1.1,2.8,1.9,2.8c0.9,0,1.5-0.6,2-1.2V159.1z"></path>
		<path class="st5" d="M177.4,164.1c-0.1-0.4-0.2-0.6-0.3-1c-0.5,0.7-1.1,1.2-2.2,1.2c-1.1,0-1.8-0.7-1.8-1.6c0-0.7,0.1-1.1,0.3-1.3    c0.4-0.6,2.9-1.2,3.6-1.3v-1c0-1.1-0.3-1.3-1.3-1.3c-0.7,0-1.2,0.1-1.2,0.6l-1.1,0.1c0-0.4,0-0.8,0.1-1.1c0-0.1,0.8-0.7,2.3-0.7    c1.6,0,2.4,0.7,2.4,1.9v3.3c0,0.7,0.2,1.6,0.3,2.1H177.4z M174.6,155.8c-0.5,0-0.8-0.4-0.8-0.9c0-0.5,0.4-0.9,0.8-0.9    c0.5,0,0.9,0.4,0.9,0.9C175.4,155.4,175,155.8,174.6,155.8z M177,161c-0.8,0.1-1.9,0.5-2.6,0.9c-0.1,0.3-0.1,0.4-0.1,0.6    c0,0.4,0.1,0.8,0.9,0.8c0.9,0,1.8-1,1.8-1.2V161z M177.2,155.8c-0.5,0-0.8-0.4-0.8-0.9c0-0.5,0.4-0.9,0.8-0.9    c0.5,0,0.9,0.4,0.9,0.9C178.1,155.4,177.7,155.8,177.2,155.8z"></path>
		<path class="st5" d="M184,158.3c0-0.1,0-0.5-0.5-0.5c-0.7,0-1.2,1.1-1.4,1.7v4.5h-1.2v-5.2c0-0.8,0-1.2-0.1-2h1.1l0.2,1.1    c0.2-0.6,0.9-1.3,1.6-1.3c0.7,0,1,0.4,1.1,1c0,0.1,0,0.3,0,0.4L184,158.3z"></path>
		<path class="st5" d="M186.1,164.1v-0.8l3.8-5.4h-3.8v-1h5.2v0.7l-3.8,5.4h3.9v1H186.1z"></path>
		<path class="st5" d="M195.6,164.3c-0.9,0-1.5-0.5-1.5-1.8v-4.6h-1.3v-0.9h1.3v-2.4h1.2v2.4h1.9v0.9h-1.9v4.2    c0,0.8,0.2,1.1,0.7,1.1c0.3,0,0.7-0.3,1.1-0.4l0.1,1C196.7,164,196.1,164.3,195.6,164.3z"></path>
		<path class="st6" d="M201.5,155.6l1.3,1.7l-0.7,0.5l-1.2-1.8l-1.2,1.8l-0.7-0.5l1.3-1.7l-2.1-0.6l0.3-0.8l2,0.7l-0.1-2.1h0.8    l-0.1,2.1l2-0.7l0.3,0.8L201.5,155.6z"></path>
		<path class="st5" d="M205.8,155.2c-0.4,0-0.8-0.4-0.8-0.9c0-0.4,0.4-0.9,0.8-0.9c0.4,0,0.8,0.4,0.8,0.9    C206.6,154.8,206.2,155.2,205.8,155.2z M205.2,164.1v-7.1h1.2v7.1H205.2z"></path>
		<path class="st5" d="M214.9,164.1h-1.2c0-1.6,0-2,0-3.1v-0.7c0-0.3,0-0.6,0-0.9c-0.1-1.1-0.2-1.6-1.2-1.6c-0.4,0-1,0.1-1.1,0.2    c-0.2,0.1-0.8,0.8-1.2,1.3v4.8h-1.2v-5.2c0-0.8-0.1-1.4-0.1-2h1.1l0.2,1.1c0.6-0.7,1.3-1.2,2.4-1.2c1.3,0,2.2,0.4,2.3,1.9    c0.1,0.7,0.1,1.4,0.1,2.1C215,161.9,215,162.4,214.9,164.1z"></path>
		<path class="st5" d="M223.5,164.1h-1.2c0-1.6,0-2,0-3.1v-0.7c0-0.3,0-0.6,0-0.9c-0.1-1.1-0.2-1.6-1.2-1.6c-0.4,0-1,0.1-1.1,0.2    c-0.2,0.1-0.8,0.8-1.2,1.3v4.8h-1.2v-5.2c0-0.8-0.1-1.4-0.1-2h1.1l0.2,1.1c0.6-0.7,1.3-1.2,2.4-1.2c1.3,0,2.2,0.4,2.3,1.9    c0.1,0.7,0.1,1.4,0.1,2.1C223.5,161.9,223.5,162.4,223.5,164.1z"></path>
		<path class="st5" d="M226.9,160.1c0,0.2,0,0.2,0,0.4c0,1.7,0.8,2.7,2.3,2.7c0.9,0,1.8-0.4,2.2-0.7l0.1,1.1    c-0.6,0.4-1.4,0.7-2.7,0.7c-1.8,0-3.2-1.4-3.2-3.8c0-2.4,1.4-3.8,3.2-3.8c2.1,0,2.9,1.1,2.9,3.4H226.9z M228.7,157.8    c-0.3,0-0.9,0.1-0.9,0.2c-0.1,0.1-0.5,0.5-0.7,1.2h3.5C230.5,157.9,229.6,157.8,228.7,157.8z"></path>
		<path class="st5" d="M239.6,164.1h-1.2c0-1.6,0-2,0-3.1v-0.7c0-0.3,0-0.6,0-0.9c-0.1-1.1-0.2-1.6-1.2-1.6c-0.4,0-1,0.1-1.1,0.2    c-0.2,0.1-0.8,0.8-1.2,1.3v4.8h-1.2v-5.2c0-0.8-0.1-1.4-0.1-2h1.1l0.2,1.1c0.6-0.7,1.3-1.2,2.4-1.2c1.3,0,2.2,0.4,2.3,1.9    c0.1,0.7,0.1,1.4,0.1,2.1C239.7,161.9,239.7,162.4,239.6,164.1z"></path>
	</g>
</g>
<rect x="0" y="14.4" class="st7" width="288" height="201.6"></rect>
</svg>
