<?xml version="1.0" encoding="UTF-8"?>
<svg xmlns="http://www.w3.org/2000/svg" id="Ebene_1" version="1.1" viewBox="0 0 245.3009638 56.6929134">
  <defs>
    <style>
      .st0 {
        fill: #608fcd;
      }
    </style>
  </defs>
  <g>
    <path class="st0" d="M153.4024581,14.5097327h2.7649681c1.3230842,0,2.1862984.6371115,2.1862984,1.843312,0,.7156726-.3334057,1.1860812-.7942337,1.4610451v.0095806c.5489698.2356833.9906365.7453725.9906365,1.6373286,0,1.3930227-1.0691976,2.0789954-2.3827012,2.0789954h-2.7649681v-7.0302618ZM156.2162874,17.5295453c.7348339,0,1.1860812-.3631056,1.1860812-1.1180588,0-.6955533-.5288504-1.0193784-1.3432035-1.0193784h-1.6957704v2.1374372h1.8528927ZM156.0888651,20.6576191c.8430949,0,1.4802064-.3238251,1.4802064-1.1765006,0-.8038143-.6074116-1.1084782-1.4217646-1.1084782h-1.7839122v2.2849788h1.7254704Z"></path>
    <path class="st0" d="M161.8477781,20.8243219c.6466921,0,1.1171008-.2845445,1.2349424-.814353h.8632142c-.1868222.9906365-1.0002171,1.6574479-2.118276,1.6574479-1.3336229,0-2.3434206-.9312366-2.3434206-2.656707,0-1.5884674,1.0002171-2.6576651,2.3434206-2.6576651,1.412184,0,2.2456982,1.0299171,2.2456982,2.5292847,0,.137961,0,.3046638-.0095806.4320861h-3.6875822c.0498192.9312366.6668114,1.5099063,1.4715838,1.5099063ZM160.3963136,18.5201819h2.7649681c-.0488612-.7262113-.5298085-1.3240422-1.3432035-1.3240422-.7645338,0-1.3336229.4905279-1.4217646,1.3240422Z"></path>
    <path class="st0" d="M165.1444708,16.480467h.8430949v.6179502c.2941252-.4311281.813395-.7156726,1.4409258-.7156726h.3726863v.8622562h-.460828c-.6275309,0-1.3135035.4905279-1.3135035,1.5693062v2.7256875h-.8823755v-5.0595275Z"></path>
    <path class="st0" d="M168.587747,19.6871019v-3.2066348h.8823755l-.0095806,3.0293933c0,.9609366.5001086,1.3144616,1.1372201,1.3144616.9120754,0,1.2646424-.7846531,1.2646424-1.519487v-2.8243679h.8823755v5.0595275h-.8526755v-.5096892c-.2356833.3621476-.8335143.6371115-1.5099063.6371115-1.1477587,0-1.7944509-.7252532-1.7944509-1.980315Z"></path>
    <path class="st0" d="M174.5612661,17.2842814h-.9111173v-.8038143h.9111173v-.4512474c0-1.0394977.4713667-1.519487,1.550145-1.519487h.8325562v.8335143h-.8430949c-.460828,0-.6562727.1964028-.6562727.6466921v.4905279h1.0490783v.8038143h-1.0490783v4.2557132h-.8833335v-4.2557132Z"></path>
    <path class="st0" d="M177.0052832,19.9611077h.9120754c.0488612.6179502.4215475.9024948,1.1372201.9024948s1.0883589-.215564,1.0883589-.6668114c0-.3631056-.2356833-.4809473-.8430949-.6965114l-.6572308-.2251447c-.813395-.2749639-1.4907451-.5489698-1.4907451-1.4313452,0-.9906365.8335143-1.4907451,1.873012-1.4907451,1.0490783,0,1.9027119.4311281,1.9122925,1.6373286h-.9120754c-.0296999-.5882503-.4407087-.8335143-1.0193784-.8335143-.676392,0-.951356.2356833-.951356.6083696,0,.3429863.215564.4407087.8239337.6562727l.9312366.3334057c.7156726.2558027,1.1966199.5786697,1.1966199,1.3441615,0,1.1563813-.951356,1.5683481-1.9611537,1.5683481-1.1180588,0-2.0397148-.4512474-2.0397148-1.7063091Z"></path>
    <path class="st0" d="M181.4497347,16.480467h.9609366l.8727948,2.5685653.5288504,1.5788868h.0095806l.4809473-1.5788868.8526755-2.5685653h.9024948l-1.7752896,5.0595275h-.9896785l-1.843312-5.0595275Z"></path>
    <path class="st0" d="M188.9044181,20.8243219c.6466921,0,1.1171008-.2845445,1.2349424-.814353h.8632142c-.1868222.9906365-1.0002171,1.6574479-2.118276,1.6574479-1.3336229,0-2.3434206-.9312366-2.3434206-2.656707,0-1.5884674,1.0002171-2.6576651,2.3434206-2.6576651,1.412184,0,2.2456982,1.0299171,2.2456982,2.5292847,0,.137961,0,.3046638-.0095806.4320861h-3.6875822c.0498192.9312366.6668114,1.5099063,1.4715838,1.5099063ZM187.4529536,18.5201819h2.7649681c-.0488612-.7262113-.5298085-1.3240422-1.3432035-1.3240422-.7645338,0-1.3336229.4905279-1.4217646,1.3240422Z"></path>
    <path class="st0" d="M192.2011108,16.480467h.8430949v.6179502c.2941252-.4311281.813395-.7156726,1.4409258-.7156726h.3726863v.8622562h-.460828c-.6275309,0-1.3135035.4905279-1.3135035,1.5693062v2.7256875h-.8823755v-5.0595275Z"></path>
    <path class="st0" d="M200.2325479,18.9905905c0,1.5788868-.8919561,2.6768263-2.195879,2.6768263-.6476502,0-1.1573394-.2356833-1.5003257-.6859727v.5585504h-.8430949v-7.0302618h.8823755l-.0095806,2.4804235c.3621476-.4311281.8622562-.6371115,1.4802064-.6371115,1.3336229,0,2.1862984,1.0883589,2.1862984,2.6375458ZM199.3501724,19.0001711c0-1.0394977-.5192698-1.8231927-1.3432035-1.8231927-.8823755,0-1.4610451.6859727-1.4514645,1.8231927.0105387,1.1870393.598789,1.843312,1.4418839,1.843312.8335143,0,1.3527841-.7741144,1.3527841-1.843312Z"></path>
    <path class="st0" d="M201.0009139,20.2063717c0-1.0002171.6965114-1.4313452,1.6478673-1.6076287l1.0883589-.2059834c.4799893-.0881417.5384311-.2356833.5384311-.5096892,0-.3334057-.2347253-.6869307-1.0490783-.6869307-.7549532,0-1.0883589.2845445-1.0778202.7942337h-.9120754c.0095806-1.0193784.7846531-1.6373286,1.9707343-1.6373286,1.1075201,0,1.9707343.4023862,1.9707343,1.8040315v2.2945594c0,.245264.0881417.3429863.3429863.3429863h.1178417v.7453725h-.7156726c-.3726863,0-.5786697-.1858641-.5786697-.5393891v-.107303c-.3822669.5192698-.9705172.7741144-1.7254704.7741144-.8536336,0-1.6181674-.5393891-1.6181674-1.4610451ZM204.3052711,19.5692602v-.5978309c-.107303.0680224-.2740058.1168836-.4215475.1465835l-.8727948.1868222c-.706092.1465835-1.0193784.3429863-1.0193784.813395,0,.4512474.2941252.7252532.8335143.7252532.9015367,0,1.4802064-.5882503,1.4802064-1.274223Z"></path>
    <path class="st0" d="M206.6621046,16.480467h.8526755v.5192698c.2845445-.3717282.8536336-.6466921,1.4706258-.6466921,1.1774587,0,1.873012.7645338,1.873012,2.0684567v3.1184931h-.8823755l.0095806-2.9709515c0-.8823755-.4407087-1.3729034-1.0883589-1.3729034-.8038143,0-1.3527841.5882503-1.3527841,1.4811645v2.8626904h-.8823755v-5.0595275Z"></path>
    <path class="st0" d="M216.4697893,14.5097327v7.0302618h-.8430949v-.5298085c-.3429863.4215475-.8229756.6572308-1.4505065.6572308-1.412184,0-2.2361176-1.0299171-2.2361176-2.6672457,0-1.5491869.8823755-2.6471264,2.2456982-2.6471264.5882503,0,1.0682396.2251447,1.4217646.6275309l-.0201193-2.4708429h.8823755ZM215.6075332,19.0001711c0-1.1372201-.5690891-1.8231927-1.4026033-1.8231927-.8823755,0-1.3920647.783695-1.3920647,1.8231927,0,1.0691976.5585504,1.843312,1.3920647,1.843312.8038143,0,1.4026033-.6562727,1.4026033-1.8327734v-.0105387Z"></path>
    <path class="st0" d="M224.5136812,14.5097327v7.0302618h-.8430949v-.5298085c-.3429863.4215475-.8229756.6572308-1.4505065.6572308-1.412184,0-2.2361176-1.0299171-2.2361176-2.6672457,0-1.5491869.8823755-2.6471264,2.2456982-2.6471264.5882503,0,1.0682396.2251447,1.4217646.6275309l-.0201193-2.4708429h.8823755ZM223.651425,19.0001711c0-1.1372201-.5690891-1.8231927-1.4026033-1.8231927-.8823755,0-1.3920647.783695-1.3920647,1.8231927,0,1.0691976.5585504,1.843312,1.3920647,1.843312.8038143,0,1.4026033-.6562727,1.4026033-1.8327734v-.0105387Z"></path>
    <path class="st0" d="M228.0077347,20.8243219c.6466921,0,1.1171008-.2845445,1.2349424-.814353h.8632142c-.1868222.9906365-1.0002171,1.6574479-2.118276,1.6574479-1.3336229,0-2.3434206-.9312366-2.3434206-2.656707,0-1.5884674,1.0002171-2.6576651,2.3434206-2.6576651,1.412184,0,2.2456982,1.0299171,2.2456982,2.5292847,0,.137961,0,.3046638-.0095806.4320861h-3.6875822c.0498192.9312366.6668114,1.5099063,1.4715838,1.5099063ZM226.5562702,18.5201819h2.7649681c-.0488612-.7262113-.5298085-1.3240422-1.3432035-1.3240422-.7645338,0-1.3336229.4905279-1.4217646,1.3240422Z"></path>
    <path class="st0" d="M231.3044274,16.480467h.8430949v.6179502c.2941252-.4311281.813395-.7156726,1.4409258-.7156726h.3726863v.8622562h-.460828c-.6275309,0-1.3135035.4905279-1.3135035,1.5693062v2.7256875h-.8823755v-5.0595275Z"></path>
    <path class="st0" d="M153.4024581,24.9085419h4.4511579v.8919561h-3.4902213v2.2064177h3.0782545v.8823755h-3.0782545v3.0495126h-.9609366v-7.0302618Z"></path>
    <path class="st0" d="M158.6708432,26.8792762h.8430949v.6179502c.2941252-.4311281.813395-.7156726,1.4409258-.7156726h.3726863v.8622562h-.460828c-.6275309,0-1.3135035.4905279-1.3135035,1.5693062v2.7256875h-.8823755v-5.0595275Z"></path>
    <path class="st0" d="M161.6916139,30.6051809c0-1.0002171.6965114-1.4313452,1.6478673-1.6076287l1.0883589-.2059834c.4799893-.0881417.5384311-.2356833.5384311-.5096892,0-.3334057-.2347253-.6869307-1.0490783-.6869307-.7549532,0-1.0883589.2845445-1.0778202.7942337h-.9120754c.0095806-1.0193784.7846531-1.6373286,1.9707343-1.6373286,1.1075201,0,1.9707343.4023862,1.9707343,1.8040315v2.2945594c0,.245264.0881417.3429863.3429863.3429863h.1178417v.7453725h-.7156726c-.3726863,0-.5786697-.1858641-.5786697-.5393891v-.107303c-.3822669.5192698-.9705172.7741144-1.7254704.7741144-.8536336,0-1.6181674-.5393891-1.6181674-1.4610451ZM164.9959711,29.9680694v-.5978309c-.107303.0680224-.2740058.1168836-.4215475.1465835l-.8727948.1868222c-.706092.1465835-1.0193784.3429863-1.0193784.813395,0,.4512474.2941252.7252532.8335143.7252532.9015367,0,1.4802064-.5882503,1.4802064-1.274223Z"></path>
    <path class="st0" d="M167.3039434,30.0859111v-3.2066348h.8823755l-.0095806,3.0293933c0,.9609366.5001086,1.3144616,1.1372201,1.3144616.9120754,0,1.2646424-.7846531,1.2646424-1.519487v-2.8243679h.8823755v5.0595275h-.8526755v-.5096892c-.2356833.3621476-.8335143.6371115-1.5099063.6371115-1.1477587,0-1.7944509-.7252532-1.7944509-1.980315Z"></path>
    <path class="st0" d="M174.9550297,31.2231311c.6466921,0,1.1171008-.2845445,1.2349424-.814353h.8632142c-.1868222.9906365-1.0002171,1.6574479-2.118276,1.6574479-1.3336229,0-2.3434206-.9312366-2.3434206-2.656707,0-1.5884674,1.0002171-2.6576651,2.3434206-2.6576651,1.412184,0,2.2456982,1.0299171,2.2456982,2.5292847,0,.137961,0,.3046638-.0095806.4320861h-3.6875822c.0498192.9312366.6668114,1.5099063,1.4715838,1.5099063ZM173.5035652,28.9189911h2.7649681c-.0488612-.7262113-.5298085-1.3240422-1.3432035-1.3240422-.7645338,0-1.3336229.4905279-1.4217646,1.3240422Z"></path>
    <path class="st0" d="M178.2517224,26.8792762h.8526755v.5192698c.2845445-.3717282.8536336-.6466921,1.4706258-.6466921,1.1774587,0,1.873012.7645338,1.873012,2.0684567v3.1184931h-.8823755l.0095806-2.9709515c0-.8823755-.4407087-1.3729034-1.0883589-1.3729034-.8038143,0-1.3527841.5882503-1.3527841,1.4811645v2.8626904h-.8823755v-5.0595275Z"></path>
    <path class="st0" d="M183.451127,30.6051809c0-1.0002171.6965114-1.4313452,1.6478673-1.6076287l1.0883589-.2059834c.4799893-.0881417.5384311-.2356833.5384311-.5096892,0-.3334057-.2347253-.6869307-1.0490783-.6869307-.7549532,0-1.0883589.2845445-1.0778202.7942337h-.9120754c.0095806-1.0193784.7846531-1.6373286,1.9707343-1.6373286,1.1075201,0,1.9707343.4023862,1.9707343,1.8040315v2.2945594c0,.245264.0881417.3429863.3429863.3429863h.1178417v.7453725h-.7156726c-.3726863,0-.5786697-.1858641-.5786697-.5393891v-.107303c-.3822669.5192698-.9705172.7741144-1.7254704.7741144-.8536336,0-1.6181674-.5393891-1.6181674-1.4610451ZM184.2846413,25.5264921c0-.2845445.2356833-.5202279.5298085-.5202279s.5288504.2356833.5288504.5202279c0,.2941252-.2347253.5288504-.5288504.5288504s-.5298085-.2347253-.5298085-.5288504ZM186.7554842,29.9680694v-.5978309c-.107303.0680224-.2740058.1168836-.4215475.1465835l-.8727948.1868222c-.706092.1465835-1.0193784.3429863-1.0193784.813395,0,.4512474.2941252.7252532.8335143.7252532.9015367,0,1.4802064-.5882503,1.4802064-1.274223ZM186.0101117,25.5264921c0-.2845445.2356833-.5202279.5298085-.5202279s.5298085.2356833.5298085.5202279c0,.2941252-.2356833.5288504-.5298085.5288504s-.5298085-.2347253-.5298085-.5288504Z"></path>
    <path class="st0" d="M189.1123177,26.8792762h.8430949v.6179502c.2941252-.4311281.813395-.7156726,1.4409258-.7156726h.3726863v.8622562h-.460828c-.6275309,0-1.3135035.4905279-1.3135035,1.5693062v2.7256875h-.8823755v-5.0595275Z"></path>
    <path class="st0" d="M192.2413495,31.2528311l2.8042486-3.5984823h-2.6768263v-.7750725h3.7948851v.676392l-2.8243679,3.608063h2.9910708v.7750725h-4.0890103v-.6859727Z"></path>
    <path class="st0" d="M197.7837404,30.7920031v-3.1089125h-.951356v-.8038143h.951356v-1.4313452h.8823755v1.4313452h1.2359005v.8038143h-1.2359005v2.9125097c0,.4704086.1868222.5585504.6179502.5585504h.6371115v.7846531h-.8622562c-.7262113,0-1.275181-.1858641-1.275181-1.1468007Z"></path>
    <path class="st0" d="M200.756608,25.4575116c0-.3238251.2749639-.5882503.5882503-.5882503.3334057,0,.598789.2644252.598789.5882503,0,.3334057-.2653833.5882503-.598789.5882503-.3132864,0-.5882503-.2548446-.5882503-.5882503ZM200.9041496,26.8792762h.8823755v5.0595275h-.8823755v-5.0595275Z"></path>
    <path class="st0" d="M203.1996671,26.8792762h.8526755v.5192698c.2845445-.3717282.8536336-.6466921,1.4706258-.6466921,1.1774587,0,1.873012.7645338,1.873012,2.0684567v3.1184931h-.8823755l.0095806-2.9709515c0-.8823755-.4407087-1.3729034-1.0883589-1.3729034-.8038143,0-1.3527841.5882503-1.3527841,1.4811645v2.8626904h-.8823755v-5.0595275Z"></path>
    <path class="st0" d="M208.7621774,26.8792762h.8526755v.5192698c.2845445-.3717282.8536336-.6466921,1.4706258-.6466921,1.1774587,0,1.873012.7645338,1.873012,2.0684567v3.1184931h-.8823755l.0095806-2.9709515c0-.8823755-.4407087-1.3729034-1.0883589-1.3729034-.8038143,0-1.3527841.5882503-1.3527841,1.4811645v2.8626904h-.8823755v-5.0595275Z"></path>
    <path class="st0" d="M216.403683,31.2231311c.6466921,0,1.1171008-.2845445,1.2349424-.814353h.8632142c-.1868222.9906365-1.0002171,1.6574479-2.118276,1.6574479-1.3336229,0-2.3434206-.9312366-2.3434206-2.656707,0-1.5884674,1.0002171-2.6576651,2.3434206-2.6576651,1.412184,0,2.2456982,1.0299171,2.2456982,2.5292847,0,.137961,0,.3046638-.0095806.4320861h-3.6875822c.0498192.9312366.6668114,1.5099063,1.4715838,1.5099063ZM214.9522185,28.9189911h2.7649681c-.0488612-.7262113-.5298085-1.3240422-1.3432035-1.3240422-.7645338,0-1.3336229.4905279-1.4217646,1.3240422Z"></path>
    <path class="st0" d="M219.7003757,26.8792762h.8526755v.5192698c.2845445-.3717282.8536336-.6466921,1.4706258-.6466921,1.1774587,0,1.873012.7645338,1.873012,2.0684567v3.1184931h-.8823755l.0095806-2.9709515c0-.8823755-.4407087-1.3729034-1.0883589-1.3729034-.8038143,0-1.3527841.5882503-1.3527841,1.4811645v2.8626904h-.8823755v-5.0595275Z"></path>
    <path class="st0" d="M227.597684,30.0859111v-3.2066348h.8823755l-.0095806,3.0293933c0,.9609366.5001086,1.3144616,1.1372201,1.3144616.9120754,0,1.2646424-.7846531,1.2646424-1.519487v-2.8243679h.8823755v5.0595275h-.8526755v-.5096892c-.2356833.3621476-.8335143.6371115-1.5099063.6371115-1.1477587,0-1.7944509-.7252532-1.7944509-1.980315Z"></path>
    <path class="st0" d="M233.1697749,26.8792762h.8526755v.5192698c.2845445-.3717282.8536336-.6466921,1.4706258-.6466921,1.1774587,0,1.873012.7645338,1.873012,2.0684567v3.1184931h-.8823755l.0095806-2.9709515c0-.8823755-.4407087-1.3729034-1.0883589-1.3729034-.8038143,0-1.3527841.5882503-1.3527841,1.4811645v2.8626904h-.8823755v-5.0595275Z"></path>
    <path class="st0" d="M242.9774596,24.9085419v7.0302618h-.8430949v-.5298085c-.3429863.4215475-.8229756.6572308-1.4505065.6572308-1.412184,0-2.2361176-1.0299171-2.2361176-2.6672457,0-1.5491869.8823755-2.6471264,2.2456982-2.6471264.5882503,0,1.0682396.2251447,1.4217646.6275309l-.0201193-2.4708429h.8823755ZM242.1152035,29.3989803c0-1.1372201-.5690891-1.8231927-1.4026033-1.8231927-.8823755,0-1.3920647.783695-1.3920647,1.8231927,0,1.0691976.5585504,1.843312,1.3920647,1.843312.8038143,0,1.4026033-.6562727,1.4026033-1.8327734v-.0105387Z"></path>
    <path class="st0" d="M153.4024581,35.3083092h4.4511579v.8919561h-3.4902213v2.2064177h3.0782545v.8823755h-3.0782545v3.0495126h-.9609366v-7.0302618Z"></path>
    <path class="st0" d="M158.6708432,37.2790435h.8430949v.6179502c.2941252-.4311281.813395-.7156726,1.4409258-.7156726h.3726863v.8622562h-.460828c-.6275309,0-1.3135035.4905279-1.3135035,1.5693062v2.7256875h-.8823755v-5.0595275Z"></path>
    <path class="st0" d="M161.6916139,41.0049482c0-1.0002171.6965114-1.4313452,1.6478673-1.6076287l1.0883589-.2059834c.4799893-.0881417.5384311-.2356833.5384311-.5096892,0-.3334057-.2347253-.6869307-1.0490783-.6869307-.7549532,0-1.0883589.2845445-1.0778202.7942337h-.9120754c.0095806-1.0193784.7846531-1.6373286,1.9707343-1.6373286,1.1075201,0,1.9707343.4023862,1.9707343,1.8040315v2.2945594c0,.245264.0881417.3429863.3429863.3429863h.1178417v.7453725h-.7156726c-.3726863,0-.5786697-.1858641-.5786697-.5393891v-.107303c-.3822669.5192698-.9705172.7741144-1.7254704.7741144-.8536336,0-1.6181674-.5393891-1.6181674-1.4610451ZM164.9959711,40.3678367v-.5978309c-.107303.0680224-.2740058.1168836-.4215475.1465835l-.8727948.1868222c-.706092.1465835-1.0193784.3429863-1.0193784.813395,0,.4512474.2941252.7252532.8335143.7252532.9015367,0,1.4802064-.5882503,1.4802064-1.274223Z"></path>
    <path class="st0" d="M167.3039434,40.4856783v-3.2066348h.8823755l-.0095806,3.0293933c0,.9609366.5001086,1.3144616,1.1372201,1.3144616.9120754,0,1.2646424-.7846531,1.2646424-1.519487v-2.8243679h.8823755v5.0595275h-.8526755v-.5096892c-.2356833.3621476-.8335143.6371115-1.5099063.6371115-1.1477587,0-1.7944509-.7252532-1.7944509-1.980315Z"></path>
    <path class="st0" d="M174.9550297,41.6228984c.6466921,0,1.1171008-.2845445,1.2349424-.814353h.8632142c-.1868222.9906365-1.0002171,1.6574479-2.118276,1.6574479-1.3336229,0-2.3434206-.9312366-2.3434206-2.656707,0-1.5884674,1.0002171-2.6576651,2.3434206-2.6576651,1.412184,0,2.2456982,1.0299171,2.2456982,2.5292847,0,.137961,0,.3046638-.0095806.4320861h-3.6875822c.0498192.9312366.6668114,1.5099063,1.4715838,1.5099063ZM173.5035652,39.3187584h2.7649681c-.0488612-.7262113-.5298085-1.3240422-1.3432035-1.3240422-.7645338,0-1.3336229.4905279-1.4217646,1.3240422Z"></path>
    <path class="st0" d="M178.2517224,37.2790435h.8526755v.5192698c.2845445-.3717282.8536336-.6466921,1.4706258-.6466921,1.1774587,0,1.873012.7645338,1.873012,2.0684567v3.1184931h-.8823755l.0095806-2.9709515c0-.8823755-.4407087-1.3729034-1.0883589-1.3729034-.8038143,0-1.3527841.5882503-1.3527841,1.4811645v2.8626904h-.8823755v-5.0595275Z"></path>
    <path class="st0" d="M183.451127,41.0049482c0-1.0002171.6965114-1.4313452,1.6478673-1.6076287l1.0883589-.2059834c.4799893-.0881417.5384311-.2356833.5384311-.5096892,0-.3334057-.2347253-.6869307-1.0490783-.6869307-.7549532,0-1.0883589.2845445-1.0778202.7942337h-.9120754c.0095806-1.0193784.7846531-1.6373286,1.9707343-1.6373286,1.1075201,0,1.9707343.4023862,1.9707343,1.8040315v2.2945594c0,.245264.0881417.3429863.3429863.3429863h.1178417v.7453725h-.7156726c-.3726863,0-.5786697-.1858641-.5786697-.5393891v-.107303c-.3822669.5192698-.9705172.7741144-1.7254704.7741144-.8536336,0-1.6181674-.5393891-1.6181674-1.4610451ZM184.2846413,35.9262594c0-.2845445.2356833-.5202279.5298085-.5202279s.5288504.2356833.5288504.5202279c0,.2941252-.2347253.5288504-.5288504.5288504s-.5298085-.2347253-.5298085-.5288504ZM186.7554842,40.3678367v-.5978309c-.107303.0680224-.2740058.1168836-.4215475.1465835l-.8727948.1868222c-.706092.1465835-1.0193784.3429863-1.0193784.813395,0,.4512474.2941252.7252532.8335143.7252532.9015367,0,1.4802064-.5882503,1.4802064-1.274223ZM186.0101117,35.9262594c0-.2845445.2356833-.5202279.5298085-.5202279s.5298085.2356833.5298085.5202279c0,.2941252-.2356833.5288504-.5298085.5288504s-.5298085-.2347253-.5298085-.5288504Z"></path>
    <path class="st0" d="M189.1123177,37.2790435h.8430949v.6179502c.2941252-.4311281.813395-.7156726,1.4409258-.7156726h.3726863v.8622562h-.460828c-.6275309,0-1.3135035.4905279-1.3135035,1.5693062v2.7256875h-.8823755v-5.0595275Z"></path>
    <path class="st0" d="M192.2413495,41.6525983l2.8042486-3.5984823h-2.6768263v-.7750725h3.7948851v.676392l-2.8243679,3.608063h2.9910708v.7750725h-4.0890103v-.6859727Z"></path>
    <path class="st0" d="M197.7837404,41.1917703v-3.1089125h-.951356v-.8038143h.951356v-1.4313452h.8823755v1.4313452h1.2359005v.8038143h-1.2359005v2.9125097c0,.4704086.1868222.5585504.6179502.5585504h.6371115v.7846531h-.8622562c-.7262113,0-1.275181-.1858641-1.275181-1.1468007Z"></path>
    <path class="st0" d="M202.9151226,41.6228984c.6466921,0,1.1171008-.2845445,1.2349424-.814353h.8632142c-.1868222.9906365-1.0002171,1.6574479-2.118276,1.6574479-1.3336229,0-2.3434206-.9312366-2.3434206-2.656707,0-1.5884674,1.0002171-2.6576651,2.3434206-2.6576651,1.412184,0,2.2456982,1.0299171,2.2456982,2.5292847,0,.137961,0,.3046638-.0095806.4320861h-3.6875822c.0498192.9312366.6668114,1.5099063,1.4715838,1.5099063ZM201.4636581,39.3187584h2.7649681c-.0488612-.7262113-.5298085-1.3240422-1.3432035-1.3240422-.7645338,0-1.3336229.4905279-1.4217646,1.3240422Z"></path>
    <path class="st0" d="M210.6744699,41.6228984c.6466921,0,1.1171008-.2845445,1.2349424-.814353h.8632142c-.1868222.9906365-1.0002171,1.6574479-2.118276,1.6574479-1.3336229,0-2.3434206-.9312366-2.3434206-2.656707,0-1.5884674,1.0002171-2.6576651,2.3434206-2.6576651,1.412184,0,2.2456982,1.0299171,2.2456982,2.5292847,0,.137961,0,.3046638-.0095806.4320861h-3.6875822c.0498192.9312366.6668114,1.5099063,1.4715838,1.5099063ZM209.2230054,39.3187584h2.7649681c-.0488612-.7262113-.5298085-1.3240422-1.3432035-1.3240422-.7645338,0-1.3336229.4905279-1.4217646,1.3240422Z"></path>
    <path class="st0" d="M213.6961987,41.7991819c0-.3334057.2548446-.5978309.5978309-.5978309.3334057,0,.6074116.2644252.6074116.5978309s-.2740058.6083696-.6074116.6083696c-.3429863,0-.5978309-.2749639-.5978309-.6083696Z"></path>
    <path class="st0" d="M214.9129379,35.3380091h1.0097978l1.5003257,4.5095997c.1274223.3928056.2644252.7942337.4023862,1.4811645.1370029-.6869307.2941252-1.0883589.4215475-1.4811645l1.4505065-4.5095997h.9705172l-2.3328819,7.0005619h-1.0883589l-2.33384-7.0005619Z"></path>
    <path class="st0" d="M220.6814316,41.7991819c0-.3334057.2548446-.5978309.5978309-.5978309.3334057,0,.6074116.2644252.6074116.5978309s-.2740058.6083696-.6074116.6083696c-.3429863,0-.5978309-.2749639-.5978309-.6083696Z"></path>
  </g>
  <g>
    <g>
      <path class="st0" d="M71.595679,14.4417275h11.201641c5.8345307,0,9.0235442,2.6448319,9.1400566,7.0394062,0,2.7229638-1.3220733,4.550838-2.7613443,5.4068616v.0390659c2.2562287,1.2055609,3.578302,3.3445918,3.578302,6.9619597,0,5.6008205-4.5117721,8.3621648-9.76237,8.3621648h-11.3962853V14.4417275ZM82.4087169,25.4877902c2.6448319,0,4.084103-1.1281144,4.084103-3.5008555,0-2.2555434-1.7504278-3.072501-4.4343256-3.072501h-4.9003753v6.5733565h5.2505979ZM82.2531385,37.7784797c2.8387908,0,4.9003753-.8944042,4.9003753-3.8894587,0-2.7229638-1.9053207-3.8120122-5.0559536-3.8120122h-4.9394412v7.7014709h5.0950195Z"></path>
      <path class="st0" d="M93.6542214,14.4807935h5.7563989l3.8503928,12.6792927c.7785771,2.6448319,1.5557835,5.2505979,2.3343606,8.9070317.7772064-3.6564339,1.63323-6.3396463,2.3720558-8.9460977l3.6948144-12.6402267h5.7570842l-8.8295853,27.7703924h-6.3005804l-8.634941-27.7703924Z"></path>
      <path class="st0" d="M120.1505162,14.4417275h18.4754428v5.3671103h-12.9136882v6.9619597h11.1632605v5.056639h-11.1632605v10.4237493h-5.5617546V14.4417275Z"></path>
    </g>
    <path class="st0" d="M29.8399045,56.155915c-15.1731573,0-27.5164004-12.4758953-27.5164004-27.8108695,0-1.207982.0762045-2.3990297.2248502-3.5665575.0150527-.1354746.0319871-.27189.0498622-.4073647h.004704C4.5164995,10.9130371,16.0017367.5369984,29.8399045.5369984c15.1731573,0,27.5164004,12.4749545,27.5164004,27.8080471,0,7.6580792-3.0792252,14.6039758-8.0503911,19.638175-.5287273.5879975-1.1054353,1.1308367-1.7282422,1.6219322l-.0065856-.0084672c-4.7924146,4.0905809-10.9819113,6.5592295-17.7311815,6.5592295ZM8.4001053,42.2039109c4.528051,7.142523,12.4467306,11.8860162,21.4397992,11.8860162,6.9976404,0,13.3451908-2.8722501,17.950387-7.511315,3.0406526-3.4019182,4.2222923-8.6092239,3.0923963-14.0987683-1.0753298-5.228944-4.6729336-11.4730068-11.5445073-13.3103813-5.0407848-1.3500422-11.2312222-.83919-15.7686812,3.4847083,2.2052257-1.2296203,4.7434933-1.9305133,7.4426369-1.9305133,8.4530517,0,15.3293294,6.8762777,15.3293294,15.3283887,0,8.4530517-6.8762777,15.3302702-15.3293294,15.3302702-.2558965,0-.5099114-.0056448-.7629855-.0188159-8.5913487-.2173239-16.6483254-3.5947814-21.8490455-9.1595895ZM30.3300592,49.2984532c.2671861.0065856.5353129.0103488.8043805.0103488v.0065856c7.2573001-.0658557,13.141038-5.9900479,13.141038-13.2633415,0-7.312807-5.9495937-13.2624007-13.2633415-13.2624007s-13.2633415,5.9495937-13.2633415,13.2624007c0,7.0851344,5.5836241,12.8898455,12.5812644,13.2464072ZM4.5992896,25.0315621c-.6322149,5.6466574,1.0405203,10.9132332,4.850744,15.2540658,2.9475138,3.3577008,7.0070483,5.911021,11.6244749,7.4304065-3.2974899-2.8139207-5.3917017-6.9985812-5.3917017-11.6639884,0-1.8129138.3161074-3.5533864.8965786-5.1696738h0c2.6285839-9.221682,10.8464367-17.0396965,23.2931673-13.7092788,6.5084265,1.7414133,11.5031123,7.4464001,13.0347281,14.8909185.4431149,2.1553636.562596,4.2759177.3800816,6.2901618,1.2898313-3.0782844,2.0029546-6.4613867,2.0029546-10.0091283,0-14.1937887-11.4174998-25.7420592-25.4504124-25.7420592C16.9171311,2.6029863,6.2118139,12.3966723,4.5992896,25.0315621Z"></path>
  </g>
</svg>
