<?xml version="1.0" encoding="utf-8"?>
<!-- Generator: Adobe Illustrator 24.1.2, SVG Export Plug-In . SVG Version: 6.00 Build 0)  -->
<svg version="1.1" id="Ebene_1" xmlns="http://www.w3.org/2000/svg" xmlns:xlink="http://www.w3.org/1999/xlink" x="0px" y="0px"
	 viewBox="0 0 633 120" style="enable-background:new 0 0 633 120;" xml:space="preserve">
<style type="text/css">
	.st0{clip-path:url(#SVGID_2_);fill:#F64914;}
	.st1{clip-path:url(#SVGID_2_);enable-background:new    ;}
	.st2{clip-path:url(#SVGID_4_);fill:#F64914;}
	.st3{fill:#0078BE;}
	.st4{clip-path:url(#SVGID_6_);fill:#0078BE;}
</style>
<g>
	<defs>
		<rect id="SVGID_1_" width="632.84" height="120"/>
	</defs>
	<clipPath id="SVGID_2_">
		<use xlink:href="#SVGID_1_"  style="overflow:visible;"/>
	</clipPath>
	<path class="st0" d="M609.45,16.72c-1.32,0-1.57,0-2.72,0.12c1.2-3.26,3.51-5.08,6.4-5.08c2.85,0,4.87,1.73,6.03,5.08
		c-1.12-0.12-1.32-0.12-2.6-0.12H609.45z M617.96,23.45c-1.2,1.78-2.85,2.6-5.04,2.6c-2.89,0-5.41-2.11-6.15-5.16
		c0.91,0.17,1.11,0.17,2.1,0.17h15.98c0-2.27-0.21-3.84-0.78-5.66c-1.61-5.08-5.86-8.26-11.1-8.26c-6.52,0-11.89,5.53-11.89,12.22
		c0,6.65,5.33,11.97,11.97,11.97c4.95,0,9.54-3.34,10.9-7.89H617.96z M589.16,30.59h5.45V13.62c0-0.5,0-0.58-0.12-1.03
		c0.46,0.12,0.54,0.12,1.03,0.12h1.73V7.89h-1.73c-0.49,0-0.58,0-1.03,0.12c0.12-0.45,0.12-0.54,0.12-1.03V0.33h-5.45v6.65
		c0,0.5,0,0.58,0.12,1.03c-0.45-0.12-0.54-0.12-1.03-0.12h-1.61v4.83h1.61c0.49,0,0.58,0,1.03-0.12c-0.12,0.45-0.12,0.54-0.12,1.03
		V30.59z M571.7,30.59h5.41V17.83c0-2.23,0.45-3.39,1.65-4.33c0.83-0.66,1.94-1.03,3.3-1.07V7.14h-0.41c-2.31,0-3.55,0.83-5.12,3.3
		l-0.16-0.04c0.25-0.79,0.33-1.11,0.33-1.49V7.89h-4.99V30.59z M550.33,16.72c-1.32,0-1.57,0-2.72,0.12c1.2-3.26,3.51-5.08,6.4-5.08
		c2.85,0,4.87,1.73,6.03,5.08c-1.11-0.12-1.32-0.12-2.6-0.12H550.33z M558.83,23.45c-1.2,1.78-2.85,2.6-5.04,2.6
		c-2.89,0-5.41-2.11-6.15-5.16c0.91,0.17,1.11,0.17,2.1,0.17h15.98c0-2.27-0.21-3.84-0.79-5.66c-1.61-5.08-5.86-8.26-11.1-8.26
		c-6.52,0-11.89,5.53-11.89,12.22c0,6.65,5.33,11.97,11.97,11.97c4.95,0,9.54-3.34,10.9-7.89H558.83z M530.48,4.91h5.45V0h-5.45
		V4.91z M530.48,30.59h5.45V7.89h-5.45V30.59z M516.45,30.59h5.45V13.62c0-0.5,0-0.58-0.12-1.03c0.45,0.12,0.54,0.12,1.03,0.12h1.73
		V7.89h-1.73c-0.49,0-0.58,0-1.03,0.12c0.12-0.45,0.12-0.54,0.12-1.03V0.33h-5.45v6.65c0,0.5,0,0.58,0.12,1.03
		c-0.45-0.12-0.54-0.12-1.03-0.12h-1.61v4.83h1.61c0.49,0,0.58,0,1.03-0.12c-0.12,0.45-0.12,0.54-0.12,1.03V30.59z M502.53,4.91
		h5.45V0h-5.45V4.91z M502.53,30.59h5.45V7.89h-5.45V30.59z M483.15,12.43c3.76,0,6.81,3.06,6.81,6.77c0,3.8-2.97,6.85-6.73,6.85
		c-3.72,0-6.69-3.1-6.69-6.98C476.54,15.6,479.68,12.43,483.15,12.43 M495.04,0.33h-5.45v4.79c0,2.31,0.04,2.89,0.25,5.04
		l-0.12,0.08c-1.9-1.98-4.58-3.1-7.47-3.1c-2.52,0-5.66,1.44-7.68,3.47c-2.15,2.19-3.43,5.37-3.43,8.46c0,6.81,5,12.26,11.27,12.26
		c2.85,0,6.03-1.61,7.76-3.96l0.17,0.08c-0.25,0.78-0.29,1.11-0.29,1.77v1.36h4.99V0.33z M451.09,16.72c-1.32,0-1.57,0-2.72,0.12
		c1.2-3.26,3.51-5.08,6.4-5.08c2.85,0,4.87,1.73,6.03,5.08c-1.11-0.12-1.32-0.12-2.6-0.12H451.09z M459.6,23.45
		c-1.2,1.78-2.85,2.6-5.04,2.6c-2.89,0-5.41-2.11-6.15-5.16c0.91,0.17,1.11,0.17,2.1,0.17h15.98c0-2.27-0.21-3.84-0.79-5.66
		c-1.61-5.08-5.86-8.26-11.11-8.26c-6.52,0-11.89,5.53-11.89,12.22c0,6.65,5.33,11.97,11.97,11.97c4.95,0,9.54-3.34,10.9-7.89H459.6
		z M429.09,30.59h5.41V17.83c0-2.23,0.45-3.39,1.65-4.33c0.83-0.66,1.94-1.03,3.3-1.07V7.14h-0.41c-2.31,0-3.55,0.83-5.12,3.3
		l-0.16-0.04c0.25-0.79,0.33-1.11,0.33-1.49V7.89h-4.99V30.59z M403.87,30.59h5.45v-5.32c0-2.56,0-3.14-0.16-5.49l0.21-0.04
		c1.4,2.15,1.73,2.68,3.43,4.95l4.33,5.9h7.31l-9.54-11.72l8.17-10.98h-6.44l-3.88,5.7c-1.69,2.48-2.02,2.97-3.39,5.24l-0.21-0.08
		c0.16-2.64,0.16-3.3,0.16-6.23V0.33h-5.45V30.59z M378.69,30.59h5.45v-5.32c0-2.56,0-3.14-0.17-5.49l0.21-0.04
		c1.4,2.15,1.73,2.68,3.43,4.95l4.33,5.9h7.31l-9.54-11.72l8.17-10.98h-6.44l-3.88,5.7c-1.69,2.48-2.02,2.97-3.39,5.24l-0.21-0.08
		c0.17-2.64,0.17-3.3,0.17-6.23V0.33h-5.45V30.59z M357.23,12.76c0.87-2.39,1.03-2.93,1.57-5.16h0.17c0.54,2.23,0.7,2.77,1.53,5.16
		l0.83,2.31c0.41,1.2,0.5,1.36,0.91,2.35c-1.07-0.08-1.32-0.08-2.52-0.08h-1.65c-1.2,0-1.49,0-2.56,0.08
		c0.45-0.99,0.54-1.24,0.95-2.35L357.23,12.76z M344.06,30.59h6.19l3.34-7.8h10.73l3.22,7.8h6.19L361.07,0.33h-4.38L344.06,30.59z"
		/>
	<g class="st1">
		<g>
			<defs>
				<rect id="SVGID_3_" x="-9" y="-6.76" width="119.75" height="127"/>
			</defs>
			<clipPath id="SVGID_4_">
				<use xlink:href="#SVGID_3_"  style="overflow:visible;"/>
			</clipPath>
			<path class="st2" d="M100.84,64.48V48.56c0-9.7,0.16-12.07,0.91-20.47c-5.19,8.7-6.71,11.22-13.25,20.62l-4.99,6.93
				c-4.32,6.33-5.25,7.49-9.15,12.25c5.4-0.43,6.79-0.43,13.36-0.43h10.13c1.59,0,2.13,0,3.25,0.26
				C100.84,66.6,100.84,66.04,100.84,64.48 M62.93,85.31l-23.64,33.94h61.56V88.29c0-1.59,0-2.13,0.26-3.25
				c-1.12,0.26-1.66,0.26-3.25,0.26H62.93z M15.84,119.24l83.78-119H0v119H15.84z"/>
		</g>
	</g>
</g>
<polygon class="st3" points="297.77,-0.01 262.97,88.34 227.84,0.34 227.7,-0.01 199.96,-0.01 199.96,118.99 218.61,118.99 
	218.14,22 256.08,118.64 256.22,118.99 269.25,118.99 307.33,22 306.86,118.99 325.34,118.99 325.34,-0.01 "/>
<g>
	<defs>
		<rect id="SVGID_5_" x="0.23" y="-0.25" width="632.84" height="120"/>
	</defs>
	<clipPath id="SVGID_6_">
		<use xlink:href="#SVGID_5_"  style="overflow:visible;"/>
	</clipPath>
	<path class="st4" d="M595.44,119h5.45v-5.45h-5.45V119z M578.03,119h4.62l11.72-30.26h-5.9l-6.28,17.75
		c-0.99,2.68-1.16,3.3-1.82,5.78h-0.17c-0.66-2.52-0.83-3.1-1.77-5.78l-6.28-17.75h-5.9L578.03,119z M558.84,119h5.45v-5.45h-5.45
		V119z M538.74,105.13c-1.32,0-1.57,0-2.72,0.12c1.2-3.26,3.51-5.08,6.4-5.08c2.85,0,4.87,1.73,6.03,5.08
		c-1.11-0.12-1.32-0.12-2.6-0.12H538.74z M547.24,111.86c-1.2,1.78-2.85,2.6-5.04,2.6c-2.89,0-5.41-2.11-6.15-5.16
		c0.91,0.17,1.11,0.17,2.1,0.17h15.98c0-2.27-0.21-3.84-0.79-5.66c-1.61-5.08-5.86-8.26-11.1-8.26c-6.52,0-11.89,5.53-11.89,12.22
		c0,6.65,5.33,11.97,11.97,11.97c4.95,0,9.54-3.34,10.9-7.89H547.24z M493.12,119h5.45v-10.82c0-2.89,0.21-4.13,0.83-5.2
		c0.78-1.32,2.31-2.15,4.05-2.15c0.95,0,2.27,0.58,2.97,1.32c1.03,1.07,1.45,2.77,1.45,5.65V119h5.45v-12.26
		c0-3.76-0.5-5.78-1.82-7.64c-1.57-2.23-4.29-3.55-7.35-3.55c-2.19,0-4.13,0.95-6.11,3.01l-0.12-0.04c0.21-0.54,0.25-0.78,0.25-1.24
		V96.3h-5.04V119z M480.3,93.33h5.45v-4.91h-5.45V93.33z M480.3,119h5.45V96.3h-5.45V119z M457.67,119h16.39v-4.83h-6.11
		c-2.11,0-2.52,0-4.38,0.17l-0.04-0.12c1.24-1.4,1.53-1.78,2.72-3.39l7.27-9.66V96.3h-14.99v4.83h4.67c2.06,0,2.48,0,4.33-0.17
		l0.04,0.12c-1.2,1.4-1.49,1.73-2.72,3.39l-7.18,9.7V119z M446.2,93.33h5.45v-4.91h-5.45V93.33z M446.2,119h5.45V96.3h-5.45V119z
		 M426.82,100.84c3.76,0,6.81,3.06,6.81,6.77c0,3.8-2.97,6.85-6.73,6.85c-3.71,0-6.69-3.1-6.69-6.98
		C420.21,104.02,423.35,100.84,426.82,100.84 M438.71,88.74h-5.45v4.79c0,2.31,0.04,2.89,0.25,5.04l-0.12,0.08
		c-1.9-1.98-4.58-3.1-7.47-3.1c-2.52,0-5.65,1.44-7.68,3.47c-2.15,2.19-3.43,5.37-3.43,8.46c0,6.81,5,12.26,11.27,12.26
		c2.85,0,6.03-1.61,7.76-3.96l0.16,0.08c-0.25,0.78-0.29,1.11-0.29,1.77V119h4.99V88.74z M394.45,105.13c-1.32,0-1.57,0-2.72,0.12
		c1.2-3.26,3.51-5.08,6.4-5.08c2.85,0,4.87,1.73,6.03,5.08c-1.11-0.12-1.32-0.12-2.6-0.12H394.45z M402.96,111.86
		c-1.2,1.78-2.85,2.6-5.04,2.6c-2.89,0-5.41-2.11-6.15-5.16c0.91,0.17,1.12,0.17,2.11,0.17h15.98c0-2.27-0.21-3.84-0.79-5.66
		c-1.61-5.08-5.86-8.26-11.1-8.26c-6.52,0-11.89,5.53-11.89,12.22c0,6.65,5.33,11.97,11.97,11.97c4.95,0,9.54-3.34,10.9-7.89H402.96
		z M354,119v-15.11c0-3.96-0.04-5.08-0.37-8.96l0.25-0.04c0.99,3.76,1.32,4.87,2.64,8.59l5.41,15.52h4.75l5.41-15.52
		c1.28-3.72,1.65-4.83,2.64-8.59l0.25,0.04c-0.33,3.88-0.37,4.99-0.37,8.96V119H380V88.74h-7.84l-6.03,17.05
		c-0.95,2.68-1.16,3.3-1.82,5.82h-0.17c-0.62-2.52-0.83-3.14-1.78-5.82l-5.94-17.05h-7.84V119H354z"/>
	<path class="st4" d="M622.71,74.67h5.41V61.91c0-2.23,0.45-3.39,1.65-4.34c0.83-0.66,1.94-1.03,3.3-1.07v-5.28h-0.41
		c-2.31,0-3.55,0.83-5.12,3.3l-0.17-0.04c0.25-0.79,0.33-1.11,0.33-1.49v-1.03h-4.99V74.67z M601.34,60.8c-1.32,0-1.57,0-2.73,0.12
		c1.2-3.26,3.51-5.08,6.4-5.08c2.85,0,4.87,1.73,6.03,5.08c-1.11-0.12-1.32-0.12-2.6-0.12H601.34z M609.84,67.53
		c-1.2,1.78-2.85,2.6-5.04,2.6c-2.89,0-5.41-2.11-6.15-5.16c0.91,0.17,1.11,0.17,2.1,0.17h15.98c0-2.27-0.21-3.84-0.78-5.66
		c-1.61-5.08-5.86-8.26-11.11-8.26c-6.52,0-11.89,5.53-11.89,12.22c0,6.65,5.33,11.97,11.97,11.97c4.95,0,9.54-3.34,10.9-7.89
		H609.84z M575.02,56.51c3.76,0,6.81,3.06,6.81,6.77c0,3.8-2.97,6.85-6.73,6.85c-3.71,0-6.69-3.1-6.69-6.98
		C568.41,59.68,571.55,56.51,575.02,56.51 M586.91,44.41h-5.45v4.79c0,2.31,0.04,2.89,0.25,5.04l-0.12,0.08
		c-1.9-1.98-4.58-3.1-7.47-3.1c-2.52,0-5.66,1.44-7.68,3.47c-2.15,2.19-3.43,5.37-3.43,8.46c0,6.81,4.99,12.26,11.27,12.26
		c2.85,0,6.03-1.61,7.76-3.96l0.16,0.08c-0.25,0.78-0.29,1.11-0.29,1.77v1.36h4.99V44.41z M525.56,74.67h5.45V63.85
		c0-2.89,0.21-4.13,0.83-5.2c0.78-1.32,2.31-2.15,4.05-2.15c0.95,0,2.27,0.58,2.97,1.32c1.03,1.07,1.45,2.77,1.45,5.65v11.19h5.45
		V62.41c0-3.76-0.49-5.78-1.82-7.64c-1.57-2.23-4.29-3.55-7.35-3.55c-2.19,0-4.13,0.95-6.11,3.01l-0.12-0.04
		c0.21-0.54,0.25-0.78,0.25-1.24v-0.99h-5.04V74.67z M512.74,48.99h5.45v-4.91h-5.45V48.99z M512.74,74.67h5.45v-22.7h-5.45V74.67z
		 M480,60.8c-1.32,0-1.57,0-2.72,0.12c1.2-3.26,3.51-5.08,6.4-5.08c2.85,0,4.87,1.73,6.03,5.08c-1.11-0.12-1.32-0.12-2.6-0.12H480z
		 M488.51,67.53c-1.2,1.78-2.85,2.6-5.04,2.6c-2.89,0-5.41-2.11-6.15-5.16c0.91,0.17,1.11,0.17,2.11,0.17h15.98
		c0-2.27-0.21-3.84-0.78-5.66c-1.61-5.08-5.86-8.26-11.11-8.26c-6.52,0-11.89,5.53-11.89,12.22c0,6.65,5.33,11.97,11.97,11.97
		c4.95,0,9.54-3.34,10.9-7.89H488.51z M458,74.67h5.41V61.91c0-2.23,0.45-3.39,1.65-4.34c0.82-0.66,1.94-1.03,3.3-1.07v-5.28h-0.41
		c-2.31,0-3.55,0.83-5.12,3.3l-0.17-0.04c0.25-0.79,0.33-1.11,0.33-1.49v-1.03H458V74.67z M439.65,56.51c3.67,0,6.69,3.06,6.69,6.85
		c0,3.84-2.89,6.77-6.69,6.77c-3.63,0-6.56-3.01-6.56-6.77C433.09,59.64,436.1,56.51,439.65,56.51 M439.61,51.22
		c-6.56,0-12.01,5.49-12.01,12.14c0,6.56,5.49,12.05,12.05,12.05c6.69,0,12.1-5.37,12.1-12.05
		C451.75,56.51,446.46,51.22,439.61,51.22 M410.66,56.51c3.59,0,6.52,2.93,6.52,6.6c0,4.17-2.64,7.02-6.52,7.02
		c-3.96,0-6.85-2.97-6.85-7.1C403.8,59.4,406.86,56.51,410.66,56.51 M398.68,74.67h4.99v-1.36c0-0.62-0.04-0.95-0.29-1.69l0.17-0.04
		c2.19,2.6,4.62,3.84,7.6,3.84c3.63,0,6.73-1.44,8.71-4.05c1.73-2.27,2.77-5.41,2.77-8.3c0-2.81-1.32-6.19-3.22-8.26
		c-2.02-2.23-5.16-3.59-8.17-3.59c-2.89,0-5.45,1.11-7.22,3.18l-0.12-0.04c0.21-2.19,0.25-2.77,0.25-5.12v-4.83h-5.45V74.67z
		 M379.5,56.51c3.8,0,6.61,2.89,6.61,6.77c0,4.17-3.14,7.14-7.14,6.85c-3.67-0.29-6.23-3.1-6.23-6.85
		C372.73,59.48,375.7,56.51,379.5,56.51 M391.26,51.97h-4.99v1.44c0,0.66,0.08,1.03,0.33,1.9l-0.17,0.04
		c-1.94-2.56-4.87-4.13-7.8-4.13c-6.52,0-11.35,5.16-11.35,12.1c0,6.85,4.75,12.1,10.9,12.1c2.35,0,4.17-0.66,6.23-2.19
		c0.95-0.7,1.57-1.24,1.98-1.77l0.17,0.04c-0.25,0.78-0.29,1.16-0.29,1.77v1.4h4.99V51.97z M348.59,74.67h14.78v-5.45h-8.26
		c-0.5,0-0.58,0-1.03,0.12c0.12-0.46,0.12-0.54,0.12-1.03v-23.9h-5.61V74.67z"/>
</g>
<polygon class="st3" points="121.92,-0.01 121.92,118.99 183.41,118.99 183.41,101.31 141.83,101.31 141.83,-0.01 "/>
</svg>
