<svg xmlns="http://www.w3.org/2000/svg" viewBox="0 0 305.52 55.52"><defs><style>.cls-1{fill:#1c9a7b;}</style></defs><title>Asset 1</title><g id="Layer_2" data-name="Layer 2"><g id="Layer_1-2" data-name="Layer 1"><g id="Ebene_2" data-name="Ebene 2"><path class="cls-1" d="M38.53,8.24C35.39,5,31.06,2.63,23,2.63S10.72,5,7.65,8.32C4.17,12.05,2.8,19.15,2.8,27.88S4.4,43.5,7.65,47.13c3,3.36,7.09,5.77,15.32,5.77s12.31-2.14,15.41-5.47c3.31-3.54,4.84-10.82,4.84-19.63S42.08,12,38.53,8.24M23,55.52c-8.12,0-12.91-2.19-16.59-5.43C1.62,45.87,0,37.81,0,27.87S1.63,9.72,6.43,5.46C10.11,2.21,14.89,0,23,0,30.91,0,35.6,2.17,39.3,5.26,44.42,9.53,46,17.69,46,27.87S44.31,46,39.44,50.21C35.77,53.37,31,55.52,23,55.52"/><path class="cls-1" d="M21.72,28.88c0-.75-.31-13.33-.32-13.9a5.29,5.29,0,0,1,2.84-.1c0,.58-.23,13.23-.24,13.4C23.47,28.49,22.28,28.73,21.72,28.88Z"/><path class="cls-1" d="M22,42.86c0-.17-.18-9.06-.18-9.21a20.16,20.16,0,0,1,2.13-.59c0,.24-.19,9.49-.19,9.7A3.5,3.5,0,0,1,22,42.86Z"/><path class="cls-1" d="M23.71,46.23c0,.23-.05,2.26-.05,2.3a.79.79,0,1,1-1.57,0s-.06-2-.05-2.33A8.38,8.38,0,0,0,23.71,46.23Z"/><path class="cls-1" d="M24.31,9.78s0-1.44,0-1.62a1.41,1.41,0,0,0-1.56-1.28A1.39,1.39,0,0,0,21.3,8.16c0,.15,0,1.35,0,1.75A15.1,15.1,0,0,1,24.31,9.78Z"/><path d="M24.83,40a1.62,1.62,0,0,1,.84,1.52,2.62,2.62,0,0,1-2.58,2.4c-2.86,0-3.2-.85-3.5-.67,0,1.17,1.81,2,3.48,2,2.51,0,4.64-1.32,4.64-3.86,0-1.9-1.17-3-2.82-3.67C24.85,38.38,24.84,39.41,24.83,40Z"/><path d="M20.58,23.87c-3.35-1.19-5.72-3-5.72-6.68,0-4,4.28-6.41,8.32-6.41,1.47,0,3.51.2,4.21.25a6.13,6.13,0,0,1,2.62.21c1.32.33,2,1.71,3.19,2.35.21.12.28.5.21.86s-.26.74-.57.74c-2.91,0-5.68-1.47-9.75-1.47-2.26,0-4.71,1-4.71,3.44a3.23,3.23,0,0,0,2.11,2.93C20.51,20.67,20.58,23.66,20.58,23.87Z"/><path d="M20.89,38.85c-1.9-.73-3.47-2.06-3.47-4.35,0-3.09,2.85-4.29,5.71-4.91,2.41-.53,3.07-1.36,3.07-2.71a1.63,1.63,0,0,0-1.12-1.65c0-.6.06-2.89.07-3.48,2.65,1.12,4.29,2.63,4.29,5,0,3.51-2.9,4.58-5.78,5.31-1.88.48-3.64.7-3.64,2.6a1.79,1.79,0,0,0,.81,1.6C20.84,36.67,20.89,38.29,20.89,38.85Z"/></g><g id="Schrift_Pfade" data-name="Schrift Pfade"><path d="M65.8,16.4h4.29v9.73h9.8V16.4h4.29V40.6H79.89V29.87h-9.8V40.6H65.8Z"/><path d="M89,35.72c0-3.89,3.22-5.92,10.7-6.74-.08-1.92-.85-3.55-3.33-3.55a10.29,10.29,0,0,0-5.11,1.78L89.7,24.36A14.15,14.15,0,0,1,97.17,22c4.51,0,6.77,2.77,6.77,7.84V40.6h-3.51l-.3-2H100A8.84,8.84,0,0,1,94.36,41,5.08,5.08,0,0,1,89,35.72Zm10.7,0V31.65c-5,.63-6.59,1.92-6.59,3.73,0,1.63,1.11,2.33,2.63,2.33S98.32,37,99.69,35.72Z"/><path d="M109.05,22.43h3.51l.3,3.22H113c1.29-2.37,3.22-3.66,5.14-3.66a4.59,4.59,0,0,1,2.07.37l-.74,3.7a5.81,5.81,0,0,0-1.89-.3c-1.44,0-3.18,1-4.29,3.74V40.6h-4.25V22.43Z"/><path d="M123.48,34.46V25.8h-2.59V22.62l2.81-.19.52-5h3.55v5h4.62V25.8h-4.62v8.66c0,2.14.81,3.18,2.55,3.18a5.07,5.07,0,0,0,1.89-.41l.74,3.15a11.7,11.7,0,0,1-3.7.67C125,41,123.48,38.38,123.48,34.46Z"/><path d="M136.2,22.43h3.52l.3,2.48h.14c1.52-1.63,3.3-2.92,5.55-2.92a5,5,0,0,1,5,3.25c1.73-1.85,3.55-3.25,5.84-3.25,3.85,0,5.63,2.63,5.63,7.21V40.6h-4.3V29.76c0-3-.89-4.11-2.77-4.11-1.15,0-2.41.74-3.81,2.26V40.6h-4.26V29.76c0-3-.89-4.11-2.81-4.11-1.11,0-2.41.74-3.81,2.26V40.6H136.2V22.43Z"/><path d="M166.43,35.72c0-3.89,3.22-5.92,10.69-6.74-.07-1.92-.85-3.55-3.33-3.55a10.28,10.28,0,0,0-5.1,1.78l-1.56-2.85A14.21,14.21,0,0,1,174.61,22c4.51,0,6.77,2.77,6.77,7.84V40.6h-3.52l-.29-2h-.15A8.84,8.84,0,0,1,171.8,41,5.07,5.07,0,0,1,166.43,35.72Zm10.69,0V31.65c-5,.63-6.58,1.92-6.58,3.73,0,1.63,1.11,2.33,2.63,2.33S175.76,37,177.12,35.72Z"/><path d="M186.49,22.43H190l.3,2.44h.15c1.62-1.59,3.47-2.88,6-2.88,3.89,0,5.59,2.63,5.59,7.21V40.6h-4.25V29.76c0-3-.86-4.11-2.85-4.11-1.6,0-2.63.78-4.15,2.26V40.6h-4.26V22.43Z"/><path d="M207.21,22.43h3.51l.3,2.44h.15c1.62-1.59,3.47-2.88,6-2.88,3.89,0,5.59,2.63,5.59,7.21V40.6h-4.25V29.76c0-3-.86-4.11-2.85-4.11-1.6,0-2.63.78-4.15,2.26V40.6H207.2V22.43Z"/><path d="M231.78,38.68h-.12l-.37,1.92h-3.36V14.48h4.25v6.73l-.11,3A8.27,8.27,0,0,1,237.33,22c4.55,0,7.17,3.63,7.17,9.21,0,6.26-3.73,9.85-7.77,9.85A7.32,7.32,0,0,1,231.78,38.68Zm8.32-7.4c0-3.63-1.18-5.78-3.92-5.78a5.83,5.83,0,0,0-4,2V36a5.69,5.69,0,0,0,3.66,1.52C238.25,37.53,240.1,35.38,240.1,31.28Z"/><path d="M248.57,33.83V22.43h4.26V33.27c0,3,.85,4.11,2.81,4.11,1.59,0,2.66-.74,4-2.52V22.43h4.26V40.6h-3.48l-.33-2.66H260c-1.6,1.88-3.37,3.1-5.85,3.1C250.27,41,248.57,38.42,248.57,33.83Z"/><path d="M269.33,22.43h3.51l.3,2.44h.15c1.63-1.59,3.48-2.88,5.95-2.88,3.89,0,5.59,2.63,5.59,7.21V40.6h-4.25V29.76c0-3-.85-4.11-2.85-4.11-1.59,0-2.63.78-4.15,2.26V40.6h-4.25V22.43Z"/><path d="M288.94,31.54c0-5.92,3.74-9.55,7.7-9.55a6.72,6.72,0,0,1,4.77,2l-.15-2.93V14.48h4.26V40.6H302l-.3-2h-.14a7.61,7.61,0,0,1-5.15,2.4C291.86,41,288.94,37.53,288.94,31.54Zm12.32,4V27a5.43,5.43,0,0,0-3.7-1.52c-2.33,0-4.22,2.19-4.22,6s1.48,6,4.11,6A4.89,4.89,0,0,0,301.26,35.49Z"/></g></g></g></svg>