<svg id="Ebene_1" data-name="Ebene 1" xmlns="http://www.w3.org/2000/svg" viewBox="0 0 720.09 349.39"><defs><style>.cls-1{fill:#ee7601;}.cls-2{fill:#fee6d1;}.cls-3{fill:#0063a4;}</style></defs><title>Zeichenfläche 2</title><polygon class="cls-1" points="7.36 244.45 95.59 244.45 124.11 82.72 35.88 82.72 7.36 244.45"/><polygon class="cls-2" points="91.21 345.2 257.79 345.2 286.31 183.47 119.73 183.47 91.21 345.2"/><polygon class="cls-1" points="120.46 175.12 194.57 175.12 210.87 82.71 136.75 82.71 120.46 175.12"/><polygon class="cls-3" points="295.39 152.63 306.29 96.3 306.09 96.3 277.26 152.63 264.2 152.63 256.77 96.3 256.58 96.3 246.07 152.63 233.11 152.63 245.48 82.72 268 82.72 273.96 133.62 274.16 133.62 299.57 82.72 322.27 82.72 309.81 152.63 295.39 152.63"/><path class="cls-3" d="M341,144.24c9.74,0,12.53-6.72,14.29-14.81h-4.58c-6.33,0-16.82,1.07-16.52,9.55.12,3.51,3.49,5.26,6.81,5.26m12.79.69h-.2c-4.29,5.65-8.66,8.86-15.86,8.86-9.07,0-15.68-5.07-16-14.32-.58-16.57,17.89-17.83,30.17-17.83h4.58a15.67,15.67,0,0,0,.24-4.29c-.18-5.07-5.69-6.53-10.27-6.53a37.66,37.66,0,0,0-16.33,3.9l1.49-10.43a50.16,50.16,0,0,1,16.95-3c10,0,19.62,3.7,20,15.49.23,6.73-4.05,26.41-4.89,35.86h-11Z"/><path class="cls-3" d="M381.33,109.16c.31-2.14.62-4.39.93-6.72h12.48l-1.43,9.45h.19c2.15-5.45,8.4-10.62,14.45-10.62a21.69,21.69,0,0,1,5,.48l-2.28,12.77a16.77,16.77,0,0,0-5-.78c-9.25,0-13.45,8.28-14.82,16.37l-3.89,22.52H373.88Z"/><path class="cls-3" d="M451,122.12c-.22-6.14-3.49-10.72-9.53-10.72-8.87,0-13.43,11.7-13.13,20.47.23,6.43,2.65,11.79,9,11.79,10.91,0,13.94-13.65,13.67-21.54M424.11,79.54h13.35L432,107.41v.19l.18-.19h-.09l.2.19a17.1,17.1,0,0,1,13.22-6.33c12.48,0,18.72,8.48,19.13,20.37.55,15.68-7.55,32.15-25,32.15-7.11,0-10.37-1.26-14.71-8.28h-.19l-1.32,7.12H411.17Z"/><path class="cls-3" d="M515.18,145.41c-.48,3-.88,5.66-1,7.22H501.4l.7-4.88h-.19a20.59,20.59,0,0,1-14,6c-9.84,0-16.58-6.13-16.93-16.07a51.36,51.36,0,0,1,1.28-10.92l4.41-24.36H489.7l-4,23.68a52.2,52.2,0,0,0-1.1,10.53,7,7,0,0,0,7.36,7c9.06,0,12.08-8.48,13.48-16l4.48-25.24h13Z"/><path class="cls-3" d="M533.84,109.16c.31-2.14.62-4.39.93-6.72h12.48l-1.43,9.45h.2c2.14-5.45,8.39-10.62,14.44-10.62a21.64,21.64,0,0,1,5,.48l-2.28,12.77a16.77,16.77,0,0,0-5-.78c-9.25,0-13.44,8.28-14.82,16.37l-3.89,22.52H526.39Z"/><path class="cls-3" d="M592,113.71c-9.45,0-13.11,12.38-12.85,19.88.21,6,2.83,11.21,8.68,11.21,10.42,0,14.33-11,14-20.56-.2-5.85-3.77-10.53-9.82-10.53m-25.77,48.82c5.24,2.15,10.27,3.9,15.92,3.9,13.84,0,15.55-9.64,18.27-21.05h-.2c-3.1,6.05-9.31,9.55-16.52,9.55-12.19,0-17.8-10.23-18.19-21.24-.52-15,8.11-30.11,24.39-30.11a18.05,18.05,0,0,1,15.59,8.48l1.16-8.48h12.58c-.34,1.36-.81,5-1.37,8.18l-6.68,37.72c-2.64,16.37-9.38,27.09-27.7,27.09a57.42,57.42,0,0,1-20.2-3.41Z"/><path class="cls-3" d="M658.63,122.61a19.5,19.5,0,0,0,.18-3.41c-.19-5.36-3.12-8.38-8.58-8.38-8.09,0-11.43,4.87-13.72,11.79Zm-23.56,9c.32,9.25,5.41,12.66,14.38,12.66a35.93,35.93,0,0,0,15.27-3.6L663.42,151a54.59,54.59,0,0,1-15.88,2.82c-14.42,0-24.41-7-24.93-21.92-.55-15.59,11-30.6,27.48-30.6,12.38,0,20.79,6.33,21.23,19.1a52.53,52.53,0,0,1-.88,11.21Z"/><path class="cls-3" d="M683.17,109.9c.32-2.14.63-4.39.94-6.72h12.47l-1.42,9.45h.19c2.15-5.46,8.4-10.62,14.45-10.62a21.15,21.15,0,0,1,5,.48l-2.28,12.77a16.77,16.77,0,0,0-5-.78c-9.26,0-13.45,8.28-14.83,16.37l-3.88,22.52H675.72Z"/><path class="cls-3" d="M329.25,211h5.36c6.92,0,14.36-2,14.08-9.94-.23-6.53-6.47-6.82-11.64-6.82h-4.77Zm-5.19,29.82h4.67c8.39,0,17.71-1,17.34-11.5-.25-7.11-6.91-8.18-14.22-8.18h-4.39ZM321,183.54h20.17c10.62,0,20.69,3.9,21.13,16.27.29,8.28-6.11,14.91-14,16.18v.2c7.64,1.16,11.16,7,11.41,14.32.69,19.49-21.09,21.05-31.22,21.05h-19.4Z"/><path class="cls-3" d="M411.74,244.35c-.48,3-.88,5.65-1,7.21H398l.7-4.87h-.19a20.64,20.64,0,0,1-14,6c-9.84,0-16.58-6.14-16.93-16.08a51.44,51.44,0,0,1,1.28-10.92l4.41-24.36h13.05l-4,23.68a52.2,52.2,0,0,0-1.1,10.53,7,7,0,0,0,7.36,7c9.06,0,12.08-8.48,13.48-16l4.48-25.24h13.05Z"/><path class="cls-3" d="M431.14,208.58c.48-3,.87-5.65,1-7.21h12.77l-.71,4.87h.2a20.63,20.63,0,0,1,14-6c9.85,0,16.59,6.14,16.94,16.08a51.44,51.44,0,0,1-1.28,10.92l-4.41,24.36H456.61l4.05-23.68a53,53,0,0,0,1.1-10.53,7,7,0,0,0-7.36-7c-9.07,0-12.08,8.48-13.48,16l-4.48,25.24H423.38Z"/><path class="cls-3" d="M496.81,230.7c.17,5.07,2,11.89,8.4,11.89,9.55,0,14.82-11.11,14.5-20.37-.21-5.84-3.25-11.88-9.87-11.88-9.36,0-13.29,12.86-13,20.36m44.66-52.23-11.38,62c-.64,4.29-1.26,8.57-1.47,11.11H516.44l1-7.41h-.19c-3.71,5.46-8.48,8.58-16.07,8.58-11.89,0-17.6-9.94-18-20.85-.52-15,7.08-31.68,24.13-31.68a20.26,20.26,0,0,1,15.74,7.11l5.33-28.84Z"/><path class="cls-3" d="M149.5,22.26l3-17.22H137.21l-3,17.28c-16.77,2-31.07,10.36-35.38,23.56C91.72,67.55,106,82.46,121.51,95.6l-13.88,80.08c-18.8,15.4-34.87,37.46-22.37,59.08a56.17,56.17,0,0,0,10,12.33L85,306.43c-10.29,5.19-22.75,9.8-31.19,11.21h-.48l-.49.1-.38.1-.29.1-.17.19-.19.1,0,.4.11.09.21.18.11.2.29.1.4.1.41.19.5.1h.39c6.95,1.1,19-1.57,29.29-4.76L78.28,345.2H94.11l6.44-37.54c22-13.74,42.71-37.32,14.56-61-.47-.33-.93-.66-1.39-1l-2.19-2L121.07,188c74.47-50.48,57.05-71.44,17.9-104.33l4.37-25.5a76,76,0,0,1,11.63,5c9,4.8,20.63,7.32,24.67,3.35a.81.81,0,0,0-.12-1.22c-9.05-6.23-13.26-11-14.7-14.31a25,25,0,0,0,4.92,1.51c2.72.51,5.9.54,7.69,1,5,1.37,6.28,7.93,13.74,5.33l-1.93-.17c-3.84-.55-3.24-.85-5.56-3.11a2.94,2.94,0,0,0,.42,0s2.87-.31,3.88-.31a18.93,18.93,0,0,1,4.65.68c-2.06-3.27-8.42-1.12-10.76-2.22-.14-.12-.52-.36-.67-.49-3.17-2.06-5.07-2.12-7.62-2.41a20.77,20.77,0,0,1-8.56-4.5c.51-.5,3.23-.7,4-.8,8.2-.95,21.46,2.3,21.46,2.3l4,.78C196.9,49,194.82,26.33,149.5,22.26ZM128.55,55l-3,17.12C113.16,58.81,118.26,54.4,128.55,55ZM102.63,204.6l-4.2,24.24C94.5,220.6,96.27,212.7,102.63,204.6ZM91,341.58H82.66c.12-.79,1.93-11.25,4.84-28,3.4-1.14,6.44-2.29,8.85-3.31C93.11,329.22,91.07,341.06,91,341.58Zm20.1-55.25-1.17,1.38a49.31,49.31,0,0,1-7.2,7.24l6.15-35.73C116.4,266.53,120.18,273.85,111.09,286.33ZM98.42,298.24l-1.49,1.07,0,.07a74.39,74.39,0,0,1-7.79,4.87c2.32-13.43,16.27-93.95,18.15-104.81a102.13,102.13,0,0,1,9.5-8.19C114.16,206.47,100.15,288.12,98.42,298.24Zm26.91-135L135,106.87C153.33,122.76,163.94,138.16,125.33,163.21ZM121.1,166c-3,1.91-6.06,4-9.12,6.34,4.28-24.73,19.3-111.47,20.25-116.86a59.71,59.71,0,0,1,7.55,1.66C138.52,64.46,124.69,145.06,121.1,166ZM145.8,22A69.41,69.41,0,0,0,138,22c1.41-8.2,2.24-13,2.29-13.3h7.76C148,9.2,147.18,14,145.8,22ZM175,40.32a3,3,0,0,1-3.32-2.11,2.4,2.4,0,0,1,2.12-2.92,2.94,2.94,0,0,1,3.31,2.11A2.4,2.4,0,0,1,175,40.32Z"/></svg>