<?xml version="1.0" encoding="UTF-8"?>
<!-- Generator: Adobe Illustrator 26.0.1, SVG Export Plug-In . SVG Version: 6.00 Build 0)  -->
<svg xmlns="http://www.w3.org/2000/svg" xmlns:xlink="http://www.w3.org/1999/xlink" version="1.1" id="Ebene_1" x="0px" y="0px" viewBox="0 0 180.33 60.87" style="enable-background:new 0 0 180.33 60.87;" xml:space="preserve">
<style type="text/css">
	.st0{fill:#EA8B2B;}
	.st1{fill:#005A9D;}
</style>
<g>
	<path class="st0" d="M74.66,47.83c0,2.61,1.77,3.93,4.31,5.33c2.3,1.28,2.04,1.13,4.78,2.65c1,0.55,1.51,1.18,1.62,2.08   c0.14,1.13,0.46,2.97,1.25,2.97c0.9,0,1.67-2.12,1.67-4.09c0-1.84-1.02-3-5.13-5.88c-0.94-0.66-1.94-1.36-3.17-2.22   c-0.63-0.44-1.03-1.11-1.03-2.09V42.3C76.43,43.71,74.66,45.24,74.66,47.83 M74.67,23.76c0,2.61,1.77,3.95,4.3,5.36   c1.61,0.89,8.34,4.62,11.08,6.14c0.66,0.37,1.02,0.82,1.02,2.08c0,1.3,0,4.29,0,4.29c2.53-1.4,4.3-2.87,4.3-5.43   c0-2.62-1.77-3.9-4.3-5.31C89.52,30.04,83,26.42,80,24.75c-0.67-0.37-1.03-0.91-1.03-2.08c0-1.06,0.01-4.29,0.01-4.29   C76.44,19.78,74.67,21.16,74.67,23.76 M80.44,2.39c0,0.52-0.43,0.95-0.95,0.95c-0.53,0-0.95-0.43-0.95-0.95   c0-0.53,0.42-0.95,0.95-0.95C80.01,1.44,80.44,1.87,80.44,2.39 M96.48,10.45c0-3.94-5.71-6.73-11.22-7.23   c-1.81-0.17-2.29-1.81-4.3-2.4c-7.07-2.06-8.32-0.02-2.79,3.86c1.62,1.14,4.2,1.79,6.54,1.87c5.64,0.19,9.24,3.7,6.36,5.63v5.56   C93.6,16.36,96.48,13.98,96.48,10.45"></path>
	<path class="st1" d="M23.37,38.8c0,0.97-0.21,1.79-0.63,2.48c-0.42,0.68-1.04,1.2-1.87,1.57c-0.83,0.36-1.85,0.54-3.04,0.54H8.43   v-9.18h9.37c1.18,0,2.19,0.17,3.02,0.5c0.83,0.34,1.46,0.85,1.9,1.54C23.15,36.94,23.37,37.79,23.37,38.8 M21.92,23.24   c0,0.95-0.2,1.76-0.6,2.43c-0.4,0.67-0.99,1.18-1.78,1.53c-0.79,0.35-1.74,0.53-2.87,0.53H8.43v-8.75h8.24   c1.13,0,2.08,0.17,2.86,0.52c0.78,0.35,1.37,0.84,1.78,1.49C21.72,21.62,21.92,22.38,21.92,23.24 M30.52,45.01   c0.99-1.64,1.49-3.57,1.49-5.8c0-1.67-0.41-3.24-1.24-4.7c-0.83-1.47-2.07-2.68-3.74-3.64c-0.53-0.31-1.11-0.55-1.72-0.77   c0.2-0.1,0.41-0.19,0.6-0.3c1.44-0.82,2.56-1.9,3.36-3.22c0.8-1.33,1.19-2.86,1.19-4.6c0-1.79-0.43-3.42-1.29-4.89   c-0.86-1.47-2.23-2.65-4.11-3.54c-1.88-0.89-4.25-1.34-7.12-1.34H0v37.95h18.49c3,0,5.51-0.45,7.52-1.35   C28.03,47.91,29.53,46.65,30.52,45.01 M64.45,31.18c0,2.59-0.42,4.77-1.25,6.52c-0.84,1.76-2.05,3.07-3.66,3.95   c-1.6,0.88-3.56,1.32-5.87,1.32h-6.14V19.39h6.13c2.32,0,4.28,0.44,5.89,1.32c1.61,0.88,2.83,2.2,3.66,3.95   C64.03,26.41,64.45,28.59,64.45,31.18 M70.91,41.47c1.53-2.84,2.29-6.27,2.29-10.29c0-4.02-0.76-7.46-2.28-10.3   c-1.52-2.84-3.72-5-6.59-6.47c-2.87-1.47-6.31-2.21-10.31-2.21H39.09v37.95h14.84c4.02,0,7.48-0.74,10.36-2.21   C67.18,46.47,69.38,44.31,70.91,41.47 M80.8,22.7c2.25,1.25,6.05,3.36,8.43,4.67V12.21H80.8V22.7z M89.24,50.15V34.8   c-2.3-1.27-6.05-3.35-8.43-4.68v16.56c0.87,0.61,1.63,1.14,2.35,1.65c1,0.7,1.82,1.3,2.49,1.82H89.24z"></path>
	<path class="st1" d="M142.19,45.87c0.21-0.12,0.45-0.19,0.74-0.19c0.3,0,0.55,0.07,0.76,0.2c0.2,0.13,0.36,0.33,0.46,0.58   c0.07,0.17,0.11,0.37,0.14,0.59h-2.73c0.03-0.23,0.07-0.44,0.15-0.62C141.82,46.18,141.98,45.99,142.19,45.87 M144.31,45.11   c-0.38-0.23-0.85-0.35-1.39-0.35c-0.54,0-1,0.12-1.39,0.35c-0.39,0.23-0.69,0.56-0.9,0.97s-0.31,0.89-0.31,1.44   c0,0.55,0.1,1.03,0.31,1.44c0.21,0.42,0.51,0.74,0.91,0.98c0.4,0.24,0.86,0.35,1.41,0.35c0.39,0,0.75-0.06,1.07-0.19   c0.32-0.12,0.6-0.31,0.83-0.54c0.23-0.24,0.4-0.52,0.53-0.85l-1.13-0.13c-0.08,0.17-0.17,0.32-0.29,0.43   c-0.12,0.12-0.26,0.2-0.42,0.26c-0.16,0.06-0.35,0.09-0.55,0.09c-0.31,0-0.57-0.06-0.78-0.19c-0.22-0.12-0.38-0.32-0.5-0.58   c-0.1-0.21-0.14-0.47-0.16-0.77h3.94v-0.16v-0.16c0-0.54-0.1-1.01-0.3-1.43C144.98,45.67,144.69,45.34,144.31,45.11"></path>
	<path class="st1" d="M149.53,44.75c-0.34,0-0.62,0.07-0.87,0.21c-0.24,0.14-0.44,0.34-0.6,0.59c-0.06,0.09-0.1,0.2-0.14,0.3   l-0.03-0.95h-1.14v5.24h1.22v-2.84c0.03-0.29,0.1-0.54,0.22-0.74c0.15-0.24,0.33-0.42,0.56-0.53s0.49-0.16,0.77-0.16   c0.05,0,0.11,0,0.17,0c0.06,0,0.12,0,0.18,0.01v-1.12c-0.06-0.01-0.12-0.01-0.18-0.02C149.64,44.75,149.59,44.75,149.53,44.75"></path>
	<path class="st1" d="M138.23,44.48v-1.16h-1.22v1.16l0.02,0.47l-0.95-0.04v0.86l0.95-0.04l-0.02,0.55v2.47   c0,0.33,0.05,0.6,0.15,0.8c0.1,0.2,0.25,0.35,0.46,0.45c0.21,0.1,0.47,0.14,0.8,0.14h0.49h0.49h0.05h0.05v-0.98h-0.11h-0.31h-0.31   c-0.13,0-0.23-0.02-0.31-0.06c-0.08-0.04-0.14-0.1-0.18-0.18c-0.04-0.08-0.06-0.19-0.06-0.33v-2.31l-0.02-0.56l1.3,0.04v-0.86   l-1.3,0.05L138.23,44.48z"></path>
	<path class="st1" d="M116.17,44.98c-0.28-0.14-0.61-0.21-0.98-0.21c-0.27,0-0.52,0.04-0.75,0.12c-0.23,0.08-0.43,0.2-0.61,0.35   c-0.13,0.11-0.23,0.27-0.34,0.42l-0.03-0.76h-1.13v5.24h1.22V47.1c0.03-0.28,0.09-0.52,0.2-0.71c0.12-0.21,0.28-0.36,0.46-0.45   c0.19-0.1,0.4-0.14,0.62-0.14c0.21,0,0.38,0.04,0.53,0.12c0.14,0.08,0.25,0.2,0.32,0.35c0.08,0.16,0.11,0.35,0.11,0.58v3.29h1.22   v-3.57c0-0.38-0.07-0.71-0.22-0.98C116.66,45.33,116.45,45.12,116.17,44.98"></path>
	<path class="st1" d="M134.26,44.98c-0.28-0.14-0.61-0.21-0.98-0.21c-0.27,0-0.52,0.04-0.75,0.12c-0.23,0.08-0.43,0.2-0.61,0.35   c-0.13,0.11-0.23,0.27-0.34,0.42l-0.03-0.76h-1.13v5.24h1.22V47.1c0.02-0.28,0.09-0.52,0.2-0.71c0.12-0.21,0.28-0.36,0.46-0.45   c0.19-0.1,0.39-0.14,0.62-0.14c0.21,0,0.38,0.04,0.53,0.12c0.14,0.08,0.25,0.2,0.32,0.35c0.07,0.16,0.11,0.35,0.11,0.58v3.29h1.23   v-3.57c0-0.38-0.08-0.71-0.22-0.98C134.75,45.33,134.54,45.12,134.26,44.98"></path>
	<path class="st1" d="M109.63,47.95c-0.03,0.28-0.09,0.52-0.2,0.71c-0.12,0.21-0.28,0.36-0.47,0.45c-0.19,0.1-0.4,0.14-0.62,0.14   c-0.21,0-0.38-0.04-0.53-0.12c-0.14-0.08-0.25-0.2-0.33-0.36c-0.07-0.16-0.11-0.35-0.11-0.58v-3.29h-1.22v3.56   c0,0.38,0.07,0.71,0.22,0.98c0.15,0.27,0.36,0.48,0.64,0.62c0.28,0.14,0.6,0.21,0.98,0.21c0.27,0,0.52-0.04,0.75-0.12   c0.23-0.08,0.43-0.2,0.61-0.35c0.13-0.11,0.23-0.27,0.34-0.42l0.03,0.76h1.13v-5.24h-1.22V47.95z"></path>
	<path class="st1" d="M121.91,48.44c-0.13,0.27-0.3,0.48-0.51,0.62c-0.22,0.14-0.47,0.21-0.74,0.21c-0.28,0-0.52-0.07-0.72-0.22   c-0.2-0.14-0.36-0.35-0.46-0.62c-0.11-0.27-0.16-0.59-0.16-0.96c0-0.36,0.06-0.67,0.16-0.93c0.11-0.26,0.26-0.45,0.47-0.58   c0.2-0.13,0.44-0.2,0.72-0.2s0.53,0.07,0.74,0.2c0.21,0.13,0.38,0.33,0.51,0.58c0.12,0.26,0.19,0.57,0.19,0.94   C122.11,47.85,122.04,48.17,121.91,48.44 M122.05,45.54c-0.19-0.24-0.42-0.43-0.69-0.57c-0.28-0.14-0.6-0.21-0.95-0.21   c-0.46,0-0.86,0.11-1.21,0.33c-0.35,0.22-0.63,0.54-0.82,0.95c-0.19,0.41-0.29,0.89-0.29,1.43c0,0.55,0.1,1.03,0.29,1.46   c0.19,0.42,0.47,0.76,0.82,0.99c0.35,0.24,0.77,0.35,1.24,0.35c0.35,0,0.66-0.07,0.94-0.21c0.28-0.14,0.52-0.33,0.7-0.59   c0.03-0.04,0.05-0.08,0.07-0.12l0.04,0.78h1.1v-7.17h-1.22V45.54z"></path>
</g>
<rect x="127.46" y="42.97" class="st1" width="1.28" height="7.17"></rect>
<g>
	<path class="st1" d="M154.71,44.98c-0.28-0.14-0.6-0.21-0.98-0.21c-0.27,0-0.52,0.04-0.75,0.12c-0.23,0.08-0.43,0.2-0.61,0.35   c-0.13,0.11-0.23,0.27-0.34,0.42L152,44.91h-1.13v5.24h1.22V47.1c0.02-0.28,0.09-0.52,0.2-0.71c0.12-0.21,0.28-0.36,0.46-0.45   c0.19-0.1,0.4-0.14,0.62-0.14c0.21,0,0.38,0.04,0.53,0.12c0.14,0.08,0.25,0.2,0.33,0.35c0.07,0.16,0.11,0.35,0.11,0.58v3.29h1.23   v-3.57c0-0.38-0.07-0.71-0.22-0.98C155.2,45.33,154.99,45.12,154.71,44.98"></path>
	<path class="st1" d="M171.06,45.87c0.21-0.12,0.46-0.19,0.74-0.19c0.3,0,0.55,0.07,0.76,0.2c0.2,0.13,0.36,0.33,0.46,0.58   c0.07,0.17,0.11,0.37,0.14,0.59h-2.73c0.03-0.23,0.07-0.44,0.15-0.62C170.69,46.18,170.85,45.99,171.06,45.87 M173.19,45.11   c-0.38-0.23-0.85-0.35-1.39-0.35c-0.54,0-1,0.12-1.39,0.35c-0.39,0.23-0.69,0.56-0.9,0.97s-0.31,0.89-0.31,1.44   c0,0.55,0.1,1.03,0.31,1.44c0.21,0.42,0.51,0.74,0.91,0.98c0.4,0.24,0.86,0.35,1.41,0.35c0.39,0,0.75-0.06,1.07-0.19   c0.32-0.12,0.6-0.31,0.83-0.54c0.23-0.24,0.4-0.52,0.53-0.85l-1.13-0.13c-0.08,0.17-0.18,0.32-0.29,0.43   c-0.12,0.12-0.26,0.2-0.42,0.26c-0.16,0.06-0.35,0.09-0.55,0.09c-0.3,0-0.57-0.06-0.78-0.19c-0.22-0.12-0.38-0.32-0.5-0.58   c-0.09-0.21-0.14-0.47-0.16-0.77h3.94v-0.16v-0.16c0-0.54-0.1-1.01-0.3-1.43C173.86,45.67,173.57,45.34,173.19,45.11"></path>
	<path class="st1" d="M163.43,47.3c-0.27-0.12-0.61-0.22-1.02-0.29l-0.61-0.1c-0.22-0.04-0.4-0.09-0.54-0.14   c-0.14-0.05-0.24-0.12-0.31-0.21c-0.07-0.08-0.11-0.19-0.11-0.33c0-0.14,0.04-0.25,0.11-0.35c0.08-0.09,0.19-0.16,0.33-0.21   c0.15-0.05,0.32-0.07,0.53-0.07c0.23,0,0.42,0.03,0.58,0.08c0.16,0.06,0.29,0.15,0.39,0.26c0.1,0.12,0.17,0.27,0.2,0.46l1.15-0.06   c-0.06-0.35-0.19-0.65-0.38-0.88c-0.19-0.24-0.45-0.41-0.77-0.53c-0.32-0.12-0.7-0.17-1.13-0.17c-0.46,0-0.85,0.06-1.16,0.19   c-0.32,0.13-0.56,0.31-0.72,0.54c-0.16,0.24-0.24,0.52-0.24,0.84c0,0.28,0.06,0.53,0.19,0.73c0.13,0.2,0.32,0.37,0.57,0.49   c0.25,0.13,0.57,0.22,0.94,0.28l0.63,0.11c0.26,0.05,0.47,0.1,0.62,0.17c0.15,0.06,0.26,0.14,0.33,0.24   c0.07,0.09,0.1,0.21,0.1,0.34c0,0.16-0.04,0.29-0.13,0.4s-0.21,0.19-0.39,0.25c-0.17,0.06-0.38,0.09-0.62,0.09   c-0.25,0-0.46-0.03-0.63-0.1c-0.17-0.06-0.31-0.16-0.41-0.3c-0.1-0.14-0.17-0.31-0.2-0.53l-1.15,0.07   c0.05,0.38,0.17,0.69,0.37,0.94c0.19,0.25,0.46,0.45,0.79,0.58c0.33,0.13,0.73,0.19,1.19,0.19c0.48,0,0.9-0.07,1.25-0.2   c0.35-0.13,0.62-0.33,0.81-0.58c0.19-0.26,0.28-0.56,0.28-0.92c0-0.32-0.07-0.58-0.22-0.79C163.91,47.59,163.7,47.42,163.43,47.3"></path>
	<path class="st1" d="M167.08,44.48v-1.16h-1.22v1.16l0.01,0.47l-0.95-0.04v0.86l0.95-0.04l-0.02,0.55v2.47   c0,0.33,0.05,0.6,0.15,0.8c0.1,0.2,0.26,0.35,0.46,0.45c0.21,0.1,0.47,0.14,0.8,0.14h0.49h0.49h0.05h0.05v-0.98h-0.11h-0.31h-0.31   c-0.13,0-0.23-0.02-0.31-0.06c-0.08-0.04-0.14-0.1-0.18-0.18c-0.04-0.08-0.06-0.19-0.06-0.33v-2.31l-0.02-0.56l1.3,0.04v-0.86   l-1.3,0.05L167.08,44.48z"></path>
	<path class="st1" d="M180.11,45.6c-0.15-0.27-0.36-0.48-0.64-0.62c-0.28-0.14-0.6-0.21-0.98-0.21c-0.27,0-0.52,0.04-0.75,0.12   c-0.23,0.08-0.43,0.2-0.61,0.35c-0.13,0.11-0.23,0.27-0.34,0.42l-0.03-0.76h-1.13v5.24h1.22V47.1c0.02-0.28,0.09-0.52,0.2-0.71   c0.12-0.21,0.28-0.36,0.46-0.45c0.19-0.1,0.4-0.14,0.62-0.14c0.21,0,0.38,0.04,0.53,0.12c0.14,0.08,0.25,0.2,0.33,0.35   c0.07,0.16,0.11,0.35,0.11,0.58v3.29h1.23v-3.57C180.33,46.2,180.25,45.87,180.11,45.6"></path>
</g>
<rect x="157.13" y="42.82" class="st1" width="1.22" height="1.14"></rect>
<rect x="157.13" y="44.91" class="st1" width="1.22" height="5.24"></rect>
<g>
	<path class="st1" d="M160.36,35.67c0.14,0.08,0.25,0.2,0.32,0.36c0.07,0.16,0.11,0.35,0.11,0.58v3.29h1.23v-3.56   c0-0.38-0.07-0.71-0.22-0.98c-0.15-0.27-0.36-0.48-0.64-0.62c-0.28-0.14-0.6-0.21-0.98-0.21c-0.27,0-0.52,0.04-0.75,0.12   c-0.23,0.08-0.43,0.2-0.61,0.35c-0.13,0.11-0.24,0.25-0.34,0.4l-0.03-0.73h-1.13v5.24h1.22v-3.04c0.03-0.28,0.09-0.52,0.2-0.71   c0.12-0.21,0.28-0.36,0.46-0.45c0.19-0.1,0.4-0.14,0.62-0.14C160.04,35.55,160.21,35.59,160.36,35.67"></path>
	<path class="st1" d="M112.51,36.02c0.07,0.16,0.11,0.35,0.11,0.58v3.29h1.23v-3.57c0-0.38-0.07-0.71-0.22-0.98   c-0.15-0.27-0.36-0.48-0.64-0.62c-0.28-0.14-0.6-0.21-0.98-0.21c-0.27,0-0.52,0.04-0.75,0.12c-0.23,0.08-0.43,0.2-0.61,0.35   c-0.13,0.11-0.24,0.25-0.34,0.4l-0.03-0.73h-1.13v5.24h1.22v-3.04c0.03-0.28,0.09-0.52,0.2-0.71c0.12-0.21,0.28-0.36,0.46-0.45   c0.19-0.1,0.4-0.14,0.62-0.14c0.21,0,0.38,0.04,0.53,0.12C112.33,35.75,112.43,35.87,112.51,36.02"></path>
	<path class="st1" d="M118.19,39.9h0.05v-0.98h-0.11h-0.31h-0.31c-0.13,0-0.23-0.02-0.31-0.06c-0.08-0.04-0.14-0.1-0.18-0.18   c-0.04-0.08-0.06-0.19-0.06-0.33v-2.31l-0.02-0.56l1.3,0.05v-0.86l-1.3,0.05l0.02-0.48v-1.16h-1.22v1.16l0.02,0.47l-0.95-0.04v0.86   l0.95-0.04l-0.02,0.55v2.47c0,0.33,0.05,0.6,0.15,0.8c0.1,0.2,0.25,0.35,0.46,0.45c0.21,0.1,0.47,0.14,0.8,0.14h0.49h0.49H118.19z"></path>
	<path class="st1" d="M120.93,35.62c0.21-0.12,0.45-0.19,0.74-0.19c0.3,0,0.55,0.07,0.76,0.2c0.2,0.13,0.36,0.33,0.46,0.58   c0.07,0.17,0.11,0.37,0.14,0.59h-2.73c0.03-0.23,0.07-0.44,0.15-0.62C120.56,35.93,120.73,35.74,120.93,35.62 M123.06,34.86   c-0.38-0.23-0.85-0.35-1.39-0.35c-0.54,0-1,0.12-1.39,0.35c-0.39,0.23-0.69,0.56-0.9,0.97c-0.21,0.42-0.31,0.9-0.31,1.44   c0,0.55,0.1,1.03,0.31,1.44c0.21,0.42,0.51,0.74,0.91,0.98c0.4,0.23,0.87,0.35,1.41,0.35c0.39,0,0.75-0.06,1.07-0.19   c0.32-0.12,0.6-0.31,0.83-0.54c0.23-0.24,0.4-0.52,0.53-0.85l-1.13-0.13c-0.08,0.17-0.18,0.32-0.29,0.43   c-0.12,0.11-0.26,0.2-0.42,0.26c-0.16,0.06-0.35,0.09-0.56,0.09c-0.31,0-0.57-0.06-0.78-0.19c-0.22-0.13-0.38-0.32-0.5-0.58   c-0.09-0.21-0.14-0.47-0.16-0.77h3.94v-0.16v-0.16c0-0.54-0.1-1.01-0.3-1.43C123.73,35.42,123.44,35.09,123.06,34.86"></path>
</g>
<rect x="148.28" y="34.66" class="st1" width="1.22" height="5.24"></rect>
<g>
	<path class="st1" d="M173.51,34.73c-0.28-0.14-0.61-0.21-0.98-0.21c-0.27,0-0.52,0.04-0.75,0.12s-0.43,0.2-0.61,0.35   c-0.13,0.11-0.24,0.25-0.34,0.4l-0.03-0.73h-1.13v5.24h1.22v-3.04c0.03-0.28,0.09-0.52,0.2-0.71c0.12-0.21,0.28-0.36,0.46-0.45   c0.19-0.1,0.4-0.14,0.62-0.14c0.21,0,0.38,0.04,0.53,0.12c0.14,0.08,0.25,0.2,0.33,0.35c0.07,0.16,0.11,0.35,0.11,0.58v3.29h1.22   v-3.56c0-0.38-0.07-0.71-0.22-0.98C174,35.08,173.79,34.87,173.51,34.73"></path>
</g>
<rect x="106.23" y="32.72" class="st1" width="1.28" height="7.17"></rect>
<g>
	<path class="st1" d="M165.13,35.62c0.21-0.12,0.45-0.19,0.74-0.19c0.3,0,0.55,0.07,0.76,0.2c0.2,0.13,0.36,0.33,0.46,0.58   c0.07,0.17,0.11,0.37,0.14,0.59h-2.73c0.03-0.23,0.07-0.44,0.15-0.62C164.76,35.93,164.92,35.74,165.13,35.62 M167.25,34.86   c-0.38-0.23-0.85-0.35-1.39-0.35c-0.54,0-1,0.12-1.39,0.35c-0.39,0.23-0.69,0.56-0.9,0.97c-0.21,0.42-0.31,0.9-0.31,1.44   c0,0.55,0.1,1.03,0.31,1.44c0.21,0.42,0.51,0.74,0.91,0.98s0.86,0.35,1.41,0.35c0.39,0,0.75-0.06,1.07-0.19   c0.32-0.12,0.6-0.31,0.83-0.54c0.23-0.24,0.4-0.52,0.53-0.85l-1.13-0.13c-0.08,0.17-0.18,0.32-0.29,0.43   c-0.12,0.11-0.26,0.2-0.42,0.26c-0.16,0.06-0.35,0.09-0.55,0.09c-0.3,0-0.57-0.06-0.78-0.19c-0.22-0.13-0.38-0.32-0.5-0.58   c-0.09-0.21-0.14-0.47-0.16-0.77h3.94v-0.16v-0.16c0-0.54-0.1-1.01-0.3-1.43C167.93,35.42,167.64,35.09,167.25,34.86"></path>
	<path class="st1" d="M141.36,39.11c-0.17,0.06-0.38,0.09-0.62,0.09c-0.25,0-0.46-0.03-0.63-0.1c-0.17-0.06-0.31-0.17-0.41-0.3   c-0.1-0.14-0.17-0.31-0.2-0.53l-1.15,0.07c0.05,0.38,0.17,0.69,0.37,0.94c0.19,0.25,0.45,0.45,0.79,0.58   c0.33,0.13,0.73,0.19,1.19,0.19c0.49,0,0.9-0.07,1.25-0.2c0.35-0.13,0.62-0.33,0.81-0.58c0.19-0.26,0.28-0.56,0.28-0.92   c0-0.32-0.07-0.58-0.22-0.79c-0.15-0.21-0.36-0.38-0.63-0.5c-0.27-0.12-0.61-0.22-1.02-0.29l-0.61-0.1   c-0.22-0.04-0.4-0.09-0.53-0.14c-0.14-0.05-0.24-0.12-0.31-0.21c-0.07-0.09-0.11-0.2-0.11-0.33c0-0.14,0.04-0.25,0.11-0.35   c0.08-0.09,0.19-0.16,0.33-0.21c0.15-0.05,0.33-0.07,0.54-0.07c0.23,0,0.42,0.03,0.58,0.08c0.16,0.06,0.29,0.15,0.39,0.27   c0.1,0.12,0.17,0.27,0.2,0.46l1.15-0.07c-0.06-0.35-0.19-0.65-0.38-0.88c-0.19-0.23-0.45-0.41-0.77-0.53   c-0.32-0.12-0.7-0.17-1.13-0.17c-0.46,0-0.85,0.06-1.16,0.19c-0.32,0.13-0.56,0.31-0.72,0.54c-0.16,0.24-0.24,0.52-0.24,0.84   c0,0.28,0.06,0.53,0.19,0.73c0.13,0.2,0.32,0.37,0.57,0.49c0.25,0.13,0.57,0.22,0.94,0.28l0.63,0.11c0.26,0.05,0.47,0.1,0.62,0.17   c0.15,0.06,0.26,0.14,0.33,0.23c0.07,0.09,0.1,0.21,0.1,0.34c0,0.15-0.04,0.29-0.13,0.4C141.66,38.97,141.53,39.05,141.36,39.11"></path>
	<path class="st1" d="M130.84,36.85c0.02-0.28,0.09-0.52,0.2-0.71c0.12-0.21,0.28-0.36,0.47-0.45c0.19-0.1,0.4-0.14,0.62-0.14   c0.21,0,0.38,0.04,0.53,0.12c0.14,0.08,0.25,0.2,0.33,0.35c0.07,0.16,0.11,0.35,0.11,0.58v3.29h1.23v-3.57   c0-0.38-0.07-0.71-0.22-0.98c-0.15-0.27-0.36-0.48-0.64-0.62c-0.28-0.14-0.6-0.21-0.98-0.21c-0.27,0-0.52,0.04-0.75,0.12   c-0.23,0.08-0.43,0.2-0.61,0.35c-0.13,0.11-0.24,0.25-0.34,0.4l-0.03-0.73h-1.13v5.24h1.22V36.85z"></path>
	<path class="st1" d="M154.9,34.73c-0.28-0.14-0.6-0.21-0.98-0.21c-0.27,0-0.52,0.04-0.75,0.12c-0.23,0.08-0.43,0.2-0.61,0.35   c-0.13,0.11-0.24,0.25-0.34,0.4l-0.03-0.73h-1.13v5.24h1.22v-3.04c0.03-0.28,0.09-0.52,0.2-0.71c0.12-0.21,0.28-0.36,0.46-0.45   s0.4-0.14,0.62-0.14c0.21,0,0.38,0.04,0.53,0.12c0.14,0.08,0.25,0.2,0.33,0.35c0.07,0.16,0.11,0.35,0.11,0.58v3.29h1.23v-3.56   c0-0.38-0.07-0.71-0.22-0.98C155.39,35.08,155.18,34.87,154.9,34.73"></path>
</g>
<rect x="135.88" y="34.66" class="st1" width="1.22" height="5.24"></rect>
<rect x="135.88" y="32.57" class="st1" width="1.22" height="1.14"></rect>
<rect x="148.28" y="32.57" class="st1" width="1.22" height="1.14"></rect>
<g>
	<path class="st1" d="M147.05,39.9h0.05v-0.98h-0.11h-0.31h-0.31c-0.13,0-0.23-0.02-0.31-0.06c-0.08-0.04-0.14-0.1-0.18-0.18   c-0.04-0.08-0.06-0.19-0.06-0.33v-2.31l-0.02-0.56l1.3,0.05v-0.86l-1.3,0.05l0.02-0.48v-1.16h-1.22v1.16l0.02,0.47l-0.95-0.04v0.86   l0.95-0.04l-0.02,0.55v2.47c0,0.33,0.05,0.6,0.15,0.8c0.1,0.2,0.25,0.35,0.46,0.45s0.47,0.14,0.8,0.14h0.49H147H147.05z"></path>
	<path class="st1" d="M128.27,35.63c0.05,0,0.11,0,0.17,0c0.06,0,0.12,0,0.18,0.01v-1.12c-0.06-0.01-0.12-0.01-0.18-0.02   c-0.06,0-0.12-0.01-0.18-0.01c-0.33,0-0.62,0.07-0.87,0.21c-0.24,0.14-0.44,0.34-0.6,0.59c-0.06,0.09-0.1,0.2-0.15,0.3l-0.03-0.95   h-1.14v5.24h1.22v-2.83c0.03-0.29,0.1-0.54,0.22-0.74c0.15-0.24,0.33-0.42,0.56-0.53C127.73,35.69,127.99,35.63,128.27,35.63"></path>
	<path class="st1" d="M130.8,24.45c-0.32,0.13-0.56,0.31-0.72,0.54s-0.24,0.52-0.24,0.84c0,0.28,0.07,0.53,0.19,0.73   s0.32,0.37,0.57,0.49c0.25,0.13,0.57,0.22,0.94,0.28l0.63,0.11c0.26,0.05,0.47,0.1,0.62,0.17c0.15,0.07,0.26,0.14,0.33,0.24   c0.07,0.09,0.1,0.21,0.1,0.34c0,0.16-0.04,0.29-0.13,0.4c-0.09,0.11-0.21,0.19-0.39,0.25c-0.17,0.06-0.38,0.09-0.62,0.09   c-0.25,0-0.46-0.03-0.63-0.1c-0.17-0.07-0.3-0.17-0.41-0.3c-0.1-0.14-0.17-0.31-0.2-0.53l-1.15,0.07c0.05,0.38,0.17,0.69,0.37,0.94   c0.19,0.25,0.46,0.45,0.79,0.57s0.73,0.19,1.19,0.19c0.48,0,0.9-0.07,1.25-0.2c0.35-0.13,0.62-0.33,0.81-0.58   c0.19-0.26,0.28-0.56,0.28-0.92c0-0.32-0.07-0.58-0.22-0.79c-0.15-0.21-0.36-0.38-0.63-0.5c-0.27-0.12-0.61-0.22-1.02-0.29   l-0.61-0.1c-0.22-0.04-0.4-0.09-0.54-0.14c-0.14-0.05-0.24-0.12-0.31-0.21c-0.07-0.09-0.11-0.19-0.11-0.33   c0-0.14,0.04-0.25,0.11-0.35c0.08-0.09,0.19-0.16,0.33-0.21c0.15-0.05,0.32-0.07,0.54-0.07c0.22,0,0.42,0.03,0.57,0.08   c0.16,0.06,0.29,0.15,0.39,0.27c0.1,0.12,0.17,0.27,0.2,0.46l1.15-0.06c-0.06-0.35-0.19-0.65-0.38-0.88   c-0.2-0.24-0.45-0.41-0.77-0.53c-0.32-0.12-0.7-0.17-1.13-0.17C131.51,24.26,131.12,24.32,130.8,24.45"></path>
	<path class="st1" d="M115.28,25.37c0.21-0.12,0.45-0.19,0.74-0.19c0.3,0,0.55,0.07,0.76,0.2c0.2,0.13,0.36,0.33,0.46,0.58   c0.07,0.17,0.11,0.37,0.14,0.59h-2.73c0.03-0.23,0.07-0.44,0.15-0.62C114.91,25.68,115.07,25.49,115.28,25.37 M117.41,24.61   c-0.38-0.23-0.85-0.35-1.39-0.35c-0.54,0-1,0.12-1.39,0.35c-0.39,0.23-0.69,0.56-0.9,0.97s-0.31,0.89-0.31,1.44   c0,0.55,0.1,1.03,0.31,1.44c0.21,0.42,0.51,0.74,0.91,0.98c0.4,0.23,0.86,0.35,1.41,0.35c0.39,0,0.75-0.06,1.07-0.19   c0.32-0.12,0.6-0.31,0.83-0.54c0.23-0.24,0.4-0.52,0.53-0.85l-1.13-0.13c-0.08,0.17-0.18,0.32-0.29,0.43   c-0.12,0.11-0.26,0.2-0.42,0.26c-0.16,0.06-0.35,0.09-0.56,0.09c-0.31,0-0.57-0.06-0.78-0.19c-0.22-0.13-0.38-0.32-0.5-0.58   c-0.09-0.21-0.14-0.47-0.16-0.77h3.94v-0.16v-0.16c0-0.54-0.1-1.01-0.3-1.43C118.08,25.17,117.79,24.84,117.41,24.61"></path>
	<path class="st1" d="M149.28,25.37c0.21-0.12,0.46-0.19,0.74-0.19c0.3,0,0.55,0.07,0.76,0.2c0.2,0.13,0.36,0.33,0.46,0.58   c0.07,0.17,0.11,0.37,0.14,0.59h-2.73c0.03-0.23,0.07-0.44,0.15-0.62C148.91,25.68,149.08,25.49,149.28,25.37 M151.94,29.06   c0.23-0.24,0.4-0.52,0.53-0.85l-1.13-0.13c-0.08,0.17-0.18,0.32-0.29,0.43c-0.12,0.11-0.26,0.2-0.42,0.26   c-0.16,0.06-0.35,0.09-0.55,0.09c-0.3,0-0.57-0.06-0.78-0.19c-0.22-0.13-0.38-0.32-0.5-0.58c-0.1-0.21-0.14-0.47-0.16-0.77h3.94   v-0.16v-0.16c0-0.54-0.1-1.01-0.3-1.43c-0.2-0.41-0.49-0.74-0.87-0.97c-0.38-0.23-0.85-0.35-1.38-0.35c-0.54,0-1,0.12-1.39,0.35   c-0.39,0.23-0.69,0.56-0.9,0.97c-0.21,0.42-0.31,0.89-0.31,1.44c0,0.55,0.1,1.03,0.31,1.44c0.21,0.42,0.51,0.74,0.91,0.98   c0.4,0.23,0.87,0.35,1.41,0.35c0.39,0,0.75-0.06,1.07-0.19C151.44,29.48,151.72,29.3,151.94,29.06"></path>
	<path class="st1" d="M123.2,27.45c-0.03,0.28-0.09,0.52-0.2,0.71c-0.12,0.21-0.28,0.36-0.47,0.45c-0.19,0.1-0.4,0.14-0.62,0.14   c-0.21,0-0.38-0.04-0.53-0.12c-0.14-0.08-0.25-0.2-0.33-0.36c-0.07-0.16-0.11-0.35-0.11-0.58v-3.29h-1.22v3.57   c0,0.38,0.07,0.71,0.22,0.98c0.15,0.27,0.36,0.48,0.64,0.62s0.6,0.21,0.98,0.21c0.27,0,0.52-0.04,0.75-0.12   c0.23-0.08,0.43-0.2,0.61-0.35c0.13-0.12,0.23-0.27,0.34-0.42l0.03,0.76h1.13v-5.24h-1.22V27.45z"></path>
	<path class="st1" d="M142.99,24.74c-0.1,0.09-0.19,0.19-0.27,0.3v-2.57h-1.22v7.17h1.22V26.6c0.02-0.28,0.09-0.52,0.2-0.71   c0.12-0.21,0.28-0.36,0.46-0.45c0.19-0.1,0.4-0.14,0.62-0.14c0.21,0,0.38,0.04,0.53,0.12c0.14,0.08,0.25,0.2,0.32,0.35   c0.07,0.16,0.11,0.35,0.11,0.58v3.29h1.23v-3.56c0-0.38-0.07-0.71-0.22-0.98c-0.15-0.27-0.36-0.48-0.64-0.62   c-0.28-0.14-0.6-0.21-0.98-0.21c-0.27,0-0.52,0.04-0.75,0.12S143.17,24.58,142.99,24.74"></path>
	<path class="st1" d="M127.56,23.98v-1.16h-1.22v1.16l0.01,0.47l-0.95-0.04v0.86l0.95-0.04l-0.02,0.55v2.47   c0,0.33,0.05,0.6,0.15,0.8c0.1,0.2,0.25,0.35,0.46,0.45c0.21,0.09,0.47,0.14,0.8,0.14h0.49h0.49h0.05h0.05v-0.98h-0.11h-0.31h-0.31   c-0.13,0-0.23-0.02-0.31-0.06c-0.08-0.04-0.14-0.1-0.18-0.18c-0.04-0.08-0.06-0.19-0.06-0.33v-2.31l-0.02-0.56l1.3,0.05v-0.86   l-1.3,0.05L127.56,23.98z"></path>
	<path class="st1" d="M110.94,27.53c-0.2,0.37-0.49,0.63-0.85,0.79c-0.37,0.16-0.81,0.24-1.34,0.24h-1.24v-5.01h1.26   c0.5,0,0.94,0.08,1.3,0.23c0.36,0.15,0.65,0.41,0.86,0.78c0.21,0.37,0.31,0.87,0.31,1.5C111.25,26.67,111.15,27.16,110.94,27.53    M110.92,22.89c-0.54-0.28-1.2-0.42-1.99-0.42h-2.7v7.17h2.62c0.81,0,1.49-0.15,2.05-0.44s0.96-0.7,1.23-1.24   c0.27-0.54,0.41-1.17,0.41-1.91c0-0.76-0.14-1.42-0.41-1.95S111.46,23.17,110.92,22.89"></path>
	<path class="st1" d="M136.51,29.46c0.38,0.22,0.84,0.33,1.36,0.33c0.45,0,0.84-0.08,1.18-0.24s0.61-0.39,0.81-0.69   c0.21-0.3,0.34-0.66,0.41-1.07l-1.17-0.05c-0.04,0.24-0.12,0.44-0.22,0.6c-0.1,0.16-0.23,0.29-0.4,0.37   c-0.16,0.08-0.36,0.12-0.59,0.12c-0.29,0-0.54-0.07-0.75-0.21c-0.2-0.14-0.36-0.35-0.46-0.62c-0.1-0.27-0.16-0.6-0.16-0.99   c0-0.4,0.05-0.73,0.15-1c0.1-0.27,0.25-0.47,0.46-0.61c0.2-0.14,0.46-0.21,0.76-0.21c0.23,0,0.42,0.04,0.58,0.11   c0.16,0.07,0.29,0.19,0.39,0.33c0.1,0.15,0.17,0.33,0.21,0.55l1.17-0.06c-0.07-0.4-0.2-0.74-0.41-1.02   c-0.21-0.28-0.48-0.5-0.81-0.64c-0.33-0.15-0.72-0.22-1.16-0.22c-0.53,0-0.99,0.11-1.38,0.33c-0.39,0.22-0.69,0.54-0.89,0.96   c-0.21,0.42-0.31,0.92-0.31,1.49c0,0.57,0.1,1.06,0.31,1.47C135.83,28.93,136.13,29.25,136.51,29.46"></path>
	<path class="st1" d="M156.63,24.25c-0.34,0-0.62,0.07-0.87,0.21s-0.44,0.34-0.6,0.59c-0.06,0.09-0.1,0.2-0.14,0.3l-0.03-0.95h-1.14   v5.24h1.22v-2.84c0.03-0.29,0.1-0.54,0.22-0.74c0.15-0.24,0.33-0.42,0.56-0.53c0.23-0.11,0.49-0.16,0.77-0.16c0.05,0,0.11,0,0.17,0   c0.06,0,0.12,0,0.18,0.01v-1.12c-0.06-0.01-0.12-0.01-0.18-0.02C156.74,24.25,156.68,24.25,156.63,24.25"></path>
	<path class="st1" d="M175.04,17.68c-0.11-0.27-0.16-0.59-0.16-0.96c0-0.36,0.05-0.67,0.16-0.93c0.11-0.26,0.26-0.45,0.47-0.58   c0.2-0.13,0.45-0.2,0.73-0.2s0.53,0.06,0.74,0.2s0.38,0.33,0.51,0.58c0.12,0.26,0.19,0.57,0.19,0.94c-0.01,0.37-0.07,0.69-0.2,0.96   s-0.3,0.47-0.52,0.62c-0.22,0.14-0.46,0.21-0.74,0.21c-0.28,0-0.52-0.07-0.72-0.22C175.3,18.16,175.15,17.95,175.04,17.68    M176.94,19.33c0.28-0.14,0.52-0.33,0.7-0.59c0.03-0.04,0.04-0.08,0.07-0.12l0.04,0.78h1.1v-7.17h-1.23v2.57   c-0.19-0.24-0.42-0.43-0.69-0.57c-0.28-0.14-0.6-0.2-0.95-0.2c-0.45,0-0.86,0.11-1.21,0.33c-0.35,0.22-0.63,0.54-0.82,0.95   c-0.2,0.41-0.29,0.89-0.29,1.43c0,0.55,0.1,1.03,0.29,1.46c0.19,0.43,0.47,0.75,0.82,0.99c0.36,0.24,0.77,0.35,1.24,0.35   C176.34,19.54,176.66,19.47,176.94,19.33"></path>
	<path class="st1" d="M126.19,19.41c0.23-0.08,0.43-0.2,0.61-0.35c0.13-0.12,0.23-0.27,0.34-0.42l0.03,0.76h1.13v-5.24h-1.23v3.04   c-0.03,0.28-0.09,0.52-0.2,0.71c-0.12,0.21-0.28,0.36-0.47,0.45c-0.19,0.1-0.4,0.14-0.62,0.14c-0.21,0-0.38-0.04-0.53-0.12   c-0.14-0.08-0.25-0.2-0.32-0.36c-0.07-0.16-0.11-0.35-0.11-0.58v-3.29h-1.22v3.57c0,0.38,0.07,0.71,0.22,0.98s0.36,0.48,0.64,0.62   c0.28,0.14,0.6,0.21,0.98,0.21C125.71,19.53,125.96,19.49,126.19,19.41"></path>
	<path class="st1" d="M146.43,15.12c0.21-0.12,0.46-0.19,0.74-0.19c0.3,0,0.55,0.07,0.76,0.2c0.2,0.13,0.36,0.33,0.46,0.58   c0.07,0.17,0.11,0.37,0.14,0.59h-2.73c0.03-0.23,0.07-0.44,0.15-0.62C146.06,15.43,146.22,15.24,146.43,15.12 M145.78,19.19   c0.4,0.23,0.87,0.35,1.41,0.35c0.39,0,0.75-0.06,1.07-0.19c0.32-0.12,0.6-0.31,0.83-0.54c0.23-0.24,0.4-0.52,0.53-0.85l-1.13-0.13   c-0.08,0.17-0.18,0.32-0.29,0.43c-0.12,0.11-0.26,0.2-0.42,0.26c-0.16,0.06-0.35,0.09-0.55,0.09c-0.31,0-0.57-0.06-0.78-0.19   c-0.22-0.13-0.38-0.32-0.5-0.58c-0.09-0.21-0.14-0.47-0.16-0.77h3.94v-0.16v-0.16c0-0.54-0.1-1.01-0.3-1.43   c-0.2-0.41-0.49-0.74-0.87-0.97c-0.38-0.23-0.85-0.35-1.39-0.35c-0.54,0-1,0.12-1.39,0.35c-0.39,0.23-0.69,0.56-0.9,0.97   c-0.21,0.42-0.31,0.89-0.31,1.44c0,0.54,0.11,1.03,0.31,1.44C145.09,18.63,145.39,18.96,145.78,19.19"></path>
	<path class="st1" d="M156.98,18.31c-0.21-0.14-0.38-0.35-0.51-0.62c-0.12-0.27-0.19-0.59-0.19-0.96c0-0.37,0.07-0.68,0.19-0.94   c0.12-0.26,0.29-0.45,0.51-0.59c0.22-0.13,0.46-0.2,0.74-0.2c0.28,0,0.52,0.06,0.73,0.19c0.2,0.13,0.36,0.32,0.46,0.57   c0.11,0.25,0.16,0.56,0.16,0.92c0,0.37-0.05,0.69-0.16,0.96c-0.11,0.27-0.26,0.48-0.47,0.63c-0.2,0.15-0.44,0.22-0.72,0.22   C157.44,18.52,157.2,18.45,156.98,18.31 M159.2,19.18c0.35-0.24,0.63-0.57,0.82-1c0.19-0.43,0.29-0.92,0.29-1.47   c0-0.54-0.1-1.02-0.29-1.43c-0.2-0.41-0.47-0.72-0.82-0.94c-0.35-0.22-0.76-0.33-1.21-0.33c-0.35,0-0.67,0.07-0.95,0.2   c-0.28,0.14-0.52,0.33-0.7,0.58v-2.58h-1.22v7.17h1.1l0.03-0.78c0.02,0.04,0.04,0.08,0.07,0.12c0.19,0.25,0.42,0.45,0.7,0.59   c0.28,0.14,0.6,0.21,0.95,0.21C158.43,19.54,158.84,19.42,159.2,19.18"></path>
	<path class="st1" d="M152.22,16.56c0.03-0.29,0.1-0.54,0.22-0.74c0.15-0.24,0.33-0.42,0.56-0.53c0.23-0.11,0.48-0.16,0.77-0.16   c0.05,0,0.11,0,0.17,0c0.06,0,0.12,0,0.18,0.01v-1.12c-0.06-0.01-0.12-0.01-0.18-0.02c-0.06,0-0.12,0-0.18,0   c-0.34,0-0.62,0.07-0.87,0.21c-0.24,0.14-0.44,0.34-0.6,0.59c-0.06,0.09-0.1,0.2-0.15,0.3l-0.03-0.95h-1.14v5.24h1.22V16.56z"></path>
	<path class="st1" d="M162.57,17.53c0.07-0.11,0.17-0.2,0.31-0.27c0.14-0.07,0.32-0.13,0.54-0.16l1.37-0.22c0.01,0,0.01,0,0.01-0.01   v0.73c-0.02,0.18-0.08,0.35-0.19,0.5c-0.13,0.18-0.3,0.32-0.52,0.42c-0.21,0.1-0.44,0.15-0.69,0.15c-0.19,0-0.36-0.03-0.5-0.09   c-0.14-0.06-0.25-0.15-0.32-0.26c-0.07-0.11-0.11-0.25-0.11-0.41C162.47,17.77,162.5,17.64,162.57,17.53 M162.12,19.35   c0.27,0.12,0.59,0.18,0.95,0.18c0.35,0,0.66-0.06,0.95-0.17c0.28-0.11,0.52-0.27,0.71-0.48c0.08-0.09,0.15-0.19,0.21-0.3   c0.02,0.12,0.05,0.23,0.1,0.32c0.08,0.16,0.21,0.28,0.37,0.37c0.16,0.08,0.37,0.12,0.61,0.12h0.32h0.31V18.5h-0.11h-0.11   c-0.11,0-0.19-0.01-0.25-0.04c-0.06-0.03-0.11-0.07-0.14-0.13c-0.03-0.06-0.04-0.15-0.04-0.26v-2.34c0-0.39-0.08-0.71-0.24-0.96   c-0.16-0.25-0.41-0.44-0.73-0.57c-0.33-0.13-0.74-0.19-1.23-0.19c-0.48,0-0.89,0.06-1.23,0.19c-0.33,0.13-0.59,0.32-0.77,0.57   c-0.18,0.26-0.29,0.58-0.33,0.97l1.15,0.05c0.02-0.21,0.08-0.38,0.16-0.51c0.08-0.13,0.2-0.22,0.36-0.27   c0.15-0.06,0.35-0.08,0.6-0.08c0.25,0,0.46,0.03,0.61,0.09c0.16,0.06,0.27,0.14,0.34,0.26c0.07,0.11,0.11,0.25,0.11,0.43v0.39   c-0.01,0.01-0.02,0.02-0.03,0.03c-0.07,0.04-0.15,0.06-0.25,0.08l-1.45,0.2c-0.42,0.06-0.77,0.16-1.03,0.3   c-0.27,0.14-0.47,0.32-0.6,0.54c-0.13,0.22-0.19,0.48-0.19,0.77c0,0.32,0.08,0.6,0.23,0.83C161.63,19.05,161.85,19.23,162.12,19.35   "></path>
	<path class="st1" d="M136.48,18.61c-0.17,0.06-0.38,0.09-0.62,0.09c-0.25,0-0.46-0.03-0.63-0.1c-0.17-0.06-0.3-0.17-0.41-0.3   c-0.1-0.14-0.17-0.31-0.2-0.53l-1.15,0.07c0.05,0.38,0.17,0.69,0.37,0.94c0.19,0.25,0.46,0.45,0.79,0.58   c0.33,0.13,0.73,0.19,1.19,0.19c0.48,0,0.9-0.07,1.25-0.2c0.35-0.13,0.62-0.33,0.81-0.58c0.19-0.26,0.28-0.56,0.28-0.92   c0-0.32-0.07-0.58-0.22-0.79c-0.15-0.21-0.36-0.38-0.63-0.5c-0.27-0.12-0.61-0.22-1.02-0.29l-0.61-0.1   c-0.22-0.04-0.4-0.09-0.54-0.14c-0.14-0.05-0.24-0.12-0.31-0.21c-0.07-0.09-0.1-0.19-0.1-0.33c0-0.14,0.04-0.25,0.11-0.35   c0.08-0.09,0.19-0.16,0.33-0.21c0.15-0.05,0.33-0.07,0.54-0.07c0.23,0,0.42,0.03,0.57,0.08c0.16,0.06,0.29,0.15,0.39,0.27   c0.1,0.12,0.17,0.27,0.21,0.46l1.15-0.07c-0.06-0.35-0.19-0.65-0.38-0.88c-0.2-0.23-0.45-0.41-0.77-0.53   c-0.32-0.12-0.7-0.17-1.13-0.17c-0.46,0-0.85,0.06-1.16,0.19c-0.32,0.13-0.56,0.31-0.72,0.54c-0.16,0.24-0.24,0.52-0.24,0.84   c0,0.28,0.07,0.53,0.19,0.73c0.13,0.2,0.32,0.37,0.57,0.49c0.25,0.13,0.56,0.22,0.94,0.28l0.63,0.11c0.26,0.05,0.47,0.1,0.62,0.17   c0.15,0.07,0.26,0.14,0.33,0.23c0.07,0.09,0.1,0.21,0.1,0.34c0,0.15-0.04,0.29-0.13,0.4C136.78,18.47,136.65,18.55,136.48,18.61"></path>
	<path class="st1" d="M142.1,19.4l1.91-5.24h-1.23l-0.94,2.94c-0.08,0.26-0.15,0.53-0.23,0.79c-0.05,0.19-0.11,0.4-0.17,0.61   c-0.05-0.19-0.1-0.37-0.16-0.57c-0.08-0.27-0.16-0.54-0.23-0.81l-0.97-2.95h-1.3l1.97,5.24H142.1z"></path>
	<path class="st1" d="M130.22,15.85v3.55h1.22v-3.52l-0.02-0.89l1.33,0.05v-0.86l-1.36,0.05l-0.04-0.51c0-0.15,0.02-0.26,0.06-0.35   c0.04-0.09,0.1-0.15,0.19-0.2c0.09-0.04,0.21-0.07,0.36-0.07c0.09,0,0.17,0.01,0.26,0.01c0.09,0.01,0.17,0.01,0.25,0.02   c0.05,0,0.1,0.01,0.14,0.01c0.05,0,0.09,0.01,0.14,0.01v-0.91h-0.03h-0.03h-0.41h-0.41c-0.39,0-0.7,0.06-0.94,0.18   c-0.24,0.12-0.42,0.29-0.53,0.52c-0.11,0.23-0.17,0.51-0.17,0.85l0.02,0.43l-0.95-0.04v0.86l0.95-0.04L130.22,15.85z"></path>
	<path class="st1" d="M169.57,15.19c0.19-0.1,0.4-0.14,0.62-0.14c0.21,0,0.38,0.04,0.53,0.12c0.14,0.08,0.25,0.2,0.33,0.35   c0.07,0.16,0.11,0.35,0.11,0.58v3.29h1.23v-3.56c0-0.38-0.07-0.71-0.22-0.98c-0.15-0.27-0.36-0.48-0.64-0.62   c-0.28-0.14-0.6-0.21-0.98-0.21c-0.27,0-0.52,0.04-0.75,0.12c-0.23,0.08-0.43,0.2-0.61,0.35c-0.13,0.11-0.24,0.25-0.34,0.4   l-0.03-0.73h-1.13v5.24h1.22v-3.04c0.03-0.28,0.09-0.52,0.2-0.71C169.22,15.44,169.38,15.29,169.57,15.19"></path>
	<path class="st1" d="M114.92,15.12c0.21-0.12,0.46-0.19,0.74-0.19c0.3,0,0.55,0.07,0.76,0.2c0.2,0.13,0.36,0.33,0.46,0.58   c0.07,0.17,0.11,0.37,0.14,0.59h-2.73c0.03-0.23,0.07-0.44,0.15-0.62C114.55,15.43,114.71,15.24,114.92,15.12 M114.27,19.19   c0.39,0.23,0.86,0.35,1.41,0.35c0.39,0,0.75-0.06,1.07-0.19c0.32-0.12,0.6-0.31,0.83-0.54c0.23-0.24,0.4-0.52,0.53-0.85l-1.13-0.13   c-0.08,0.17-0.17,0.32-0.29,0.43c-0.12,0.11-0.26,0.2-0.42,0.26c-0.16,0.06-0.35,0.09-0.56,0.09c-0.31,0-0.57-0.06-0.78-0.19   c-0.22-0.13-0.38-0.32-0.5-0.58c-0.1-0.21-0.14-0.47-0.16-0.77h3.94v-0.16v-0.16c0-0.54-0.1-1.01-0.3-1.43   c-0.2-0.41-0.49-0.74-0.87-0.97c-0.38-0.23-0.85-0.35-1.39-0.35c-0.54,0-1,0.12-1.39,0.35c-0.39,0.23-0.69,0.56-0.9,0.97   s-0.31,0.89-0.31,1.44c0,0.54,0.1,1.03,0.31,1.44C113.57,18.63,113.88,18.96,114.27,19.19"></path>
	<path class="st1" d="M120.7,16.56c0.03-0.29,0.1-0.54,0.22-0.74c0.15-0.24,0.33-0.42,0.56-0.53c0.23-0.11,0.49-0.16,0.77-0.16   c0.06,0,0.11,0,0.18,0c0.06,0,0.12,0,0.18,0.01v-1.12c-0.06-0.01-0.12-0.02-0.18-0.02c-0.06,0-0.12-0.01-0.18-0.01   c-0.33,0-0.62,0.07-0.87,0.21c-0.24,0.14-0.44,0.34-0.6,0.59c-0.06,0.09-0.1,0.2-0.14,0.3l-0.03-0.95h-1.14v5.24h1.22V16.56z"></path>
	<path class="st1" d="M107.51,18.35v-2.2h2.08c0.28,0,0.52,0.04,0.71,0.12s0.34,0.21,0.44,0.37c0.1,0.16,0.15,0.36,0.15,0.6   c0,0.24-0.05,0.44-0.15,0.61c-0.1,0.16-0.24,0.29-0.43,0.37c-0.19,0.08-0.43,0.12-0.7,0.12H107.51z M110.08,13.37   c0.17,0.07,0.29,0.18,0.38,0.32c0.09,0.14,0.13,0.31,0.13,0.51c0,0.21-0.05,0.39-0.14,0.54c-0.09,0.15-0.22,0.27-0.4,0.34   c-0.18,0.08-0.39,0.12-0.64,0.12h-1.89v-1.94h1.95C109.7,13.26,109.91,13.29,110.08,13.37 M111.03,19.14   c0.37-0.17,0.66-0.41,0.85-0.73c0.19-0.31,0.29-0.68,0.29-1.11c0-0.37-0.08-0.69-0.25-0.97c-0.16-0.27-0.41-0.49-0.73-0.65   c-0.13-0.06-0.29-0.11-0.44-0.16c0.08-0.03,0.17-0.06,0.25-0.09c0.28-0.14,0.49-0.33,0.63-0.58c0.14-0.24,0.22-0.53,0.22-0.85   c0-0.37-0.09-0.69-0.26-0.95c-0.17-0.27-0.43-0.47-0.76-0.62c-0.33-0.14-0.73-0.22-1.19-0.22h-3.41v7.17h3.46   C110.21,19.4,110.65,19.31,111.03,19.14"></path>
</g>
</svg>
