<?xml version="1.0" encoding="utf-8"?>
<!-- Generator: Adobe Illustrator 27.8.0, SVG Export Plug-In . SVG Version: 6.00 Build 0)  -->
<svg version="1.1" id="Ebene_1" xmlns="http://www.w3.org/2000/svg" xmlns:xlink="http://www.w3.org/1999/xlink" x="0px" y="0px"
	 viewBox="0 0 263 264" style="enable-background:new 0 0 263 264;" xml:space="preserve">
<style type="text/css">
	.st0{fill:#4a94ff;}
	.st1{fill:#FFFFFF;}
</style>
<polyline class="st0" points="263,0 263,122 263,264 130,264 0,264 "/>
<path class="st1" d="M118.6,240.6c0,6.2-1.8,11.2-5.5,14.9s-8.8,5.6-15.3,5.6H62V189h30c3.9,0,7.2,0.4,10.1,1.3
	c2.9,0.9,5.2,2.1,7,3.6s3.1,3.3,3.9,5.3c0.9,2.1,1.3,4.3,1.3,6.7c0,2.6-0.4,5.1-1.3,7.3s-2,4.1-3.3,5.5c-1.3,1.4-2.7,2.4-4,3
	c4.2,1.9,7.5,4.4,9.7,7.4C117.5,232.1,118.6,235.9,118.6,240.6L118.6,240.6z M96.8,209.7c0-3.5-1-5.8-2.9-6.9c-2-1.1-5-1.7-9.2-1.7
	h-3.9v17.3h4c4.3,0,7.3-0.6,9.2-1.7C95.9,215.5,96.8,213.2,96.8,209.7L96.8,209.7z M99.8,239.8c0-6.2-3.8-9.3-11.5-9.3h-7.6V249h7.6
	C96,249,99.8,245.9,99.8,239.8L99.8,239.8z"/>
<path class="st1" d="M257,255.7c-2.8,1.6-5.6,2.8-8.5,3.7c-2.9,0.9-5.8,1.6-8.8,2s-6,0.6-9.2,0.6c-5.9,0-11.1-0.9-15.7-2.6
	c-4.6-1.7-8.7-4.3-12.1-7.7s-6-7.3-7.7-11.9c-1.7-4.5-2.6-9.5-2.6-14.9c0-6.2,1-11.6,3-16.3c2-4.7,4.8-8.5,8.4-11.6
	s7.7-5.4,12.3-6.8c4.6-1.5,9.5-2.2,14.6-2.2c7.6,0,16.3,1.8,25.9,5.5v19.1c-3.3-2.2-6.6-4.1-9.9-5.5c-3.2-1.5-7.1-2.2-11.5-2.2
	c-3.9,0-7.6,0.8-11,2.5s-6.1,4-8.2,7.1c-2.1,3.1-3.1,6.7-3.1,10.8c0,3.6,0.9,7,2.7,10c1.8,3,4.3,5.4,7.5,7.2
	c3.2,1.8,6.8,2.7,10.9,2.7c3.3,0,6.4-0.4,9.3-1.3c2.9-0.9,5.4-1.8,7.4-2.8c2-1,4-2.3,6.1-3.7L257,255.7L257,255.7z"/>
<path class="st1" d="M189.9,261.1h-16.6l-32.2-40.1v40.1h-18.5V189h16.6l32.1,39.9V189h18.6L189.9,261.1L189.9,261.1z"/>
</svg>
