<?xml version="1.0" encoding="utf-8"?>
<!-- Generator: Adobe Illustrator 14.0.0, SVG Export Plug-In . SVG Version: 6.00 Build 43363)  -->
<!DOCTYPE svg PUBLIC "-//W3C//DTD SVG 1.1//EN" "http://www.w3.org/Graphics/SVG/1.1/DTD/svg11.dtd">
<svg version="1.1" id="Layer_1" xmlns="http://www.w3.org/2000/svg" xmlns:xlink="http://www.w3.org/1999/xlink" x="0px" y="0px"
	 width="38.061px" height="10.989px" viewBox="0 0 38.061 10.989" enable-background="new 0 0 38.061 10.989" xml:space="preserve">
<g>
	<path fill="#45AC4B" d="M38.059,10.891h-1.164c0-5.315-3.982-9.64-8.879-9.64V0.084C33.555,0.084,38.059,4.932,38.059,10.891z"/>
	<path fill="#45AC4B" d="M36.44,10.891h-1.164c0-4.355-3.256-7.899-7.26-7.899V1.824C32.661,1.824,36.44,5.891,36.44,10.891z"/>
	<path fill="#45AC4B" d="M34.819,10.891h-1.164c0-3.395-2.527-6.155-5.639-6.155V3.572C31.768,3.568,34.819,6.852,34.819,10.891z"/>
	<path fill="#B2D5A6" d="M33.2,10.891h-1.164c0-2.432-1.805-4.412-4.02-4.412V5.317C30.876,5.311,33.2,7.817,33.2,10.891z"/>
	<path fill="#B2D5A6" d="M31.581,10.891h-1.164c0-1.471-1.076-2.668-2.4-2.668V7.059C29.979,7.055,31.581,8.776,31.581,10.891z"/>
	<path fill="#B2D5A6" d="M30.001,10.891h-1.164c0-0.512-0.369-0.928-0.816-0.928V8.8C29.108,8.8,30.001,9.737,30.001,10.891z"/>
	<path fill="#45AC4B" d="M23.852,0h2.795v10.989h-2.363c0.016-0.018-3.064-6.178-3.049-6.153c-0.035-0.047-0.027,4.092-0.031,6.149
		h-2.792v-0.221c0-3.316,0-6.633,0-9.948c0-0.272,0.004-0.545,0.004-0.816h2.368c0.016,0.044,3.053,6.069,3.088,6.108
		C23.876,6.036,23.852,0.96,23.852,0"/>
	<path fill="#45AC4B" d="M2.767,2.099v2.148c0.296,0,0.58,0.016,0.864-0.004c0.448-0.028,0.76-0.272,0.888-0.656
		c0.092-0.28,0.092-0.556,0-0.836c-0.124-0.376-0.432-0.62-0.868-0.652C3.359,2.084,3.067,2.099,2.767,2.099 M2.763,8.895
		c0.332,0,0.652,0.018,0.964-0.004c0.496-0.035,0.856-0.26,1.04-0.676c0.18-0.398,0.185-0.807,0.048-1.215
		C4.676,6.589,4.368,6.296,3.88,6.237c-0.36-0.045-0.736-0.01-1.116-0.01V8.895z M0.004,0h3.832c0.2,0.032,0.399,0.06,0.6,0.096
		C5.979,0.36,7.103,1.36,7.12,2.84c0.012,1.084-0.593,1.853-1.713,2.12c0.045,0.016,0.08,0.033,0.112,0.037
		C6.496,5.18,7.111,5.723,7.447,6.528c0.252,0.607,0.261,1.24,0.145,1.867c-0.176,0.969-0.724,1.717-1.736,2.16
		c-0.74,0.328-1.54,0.43-2.355,0.43c-1.104,0.004-2.208,0-3.312,0c-0.06,0-0.12,0-0.188,0c0-0.094,0-0.164,0-0.232
		c0-3.52,0-7.044,0-10.564C0,0.132,0.004,0.063,0.004,0"/>
	<path fill="#45AC4B" d="M11.46,8.635c0.315,0,0.611,0.029,0.899-0.008c0.261-0.031,0.524-0.104,0.756-0.207
		c0.492-0.225,0.725-0.625,0.868-1.068c0.221-0.691,0.236-1.4,0.216-2.108c-0.016-0.584-0.084-1.161-0.327-1.716
		C13.456,2.58,12.595,2.24,11.464,2.34v6.296H11.46z M8.624,0h3.1c0.044,0.008,0.088,0.02,0.128,0.02
		c0.608,0.036,1.2,0.128,1.772,0.309c0.812,0.256,1.504,0.656,2.056,1.228c0.616,0.637,0.972,1.372,1.172,2.168
		c0.225,0.885,0.252,1.781,0.164,2.686c-0.076,0.803-0.276,1.58-0.704,2.303c-0.456,0.777-1.128,1.377-2.044,1.768
		c-0.892,0.381-1.848,0.506-2.832,0.514c-0.88,0.008-1.76,0-2.644,0c-0.057,0-0.112-0.004-0.181-0.008v-0.221
		c0-3.316,0-6.633,0-9.948C8.62,0.544,8.62,0.271,8.624,0"/>
</g>
</svg>
