<?xml version="1.0" encoding="UTF-8"?>
<svg width="203px" height="104px" viewBox="0 0 203 104" version="1.1" xmlns="http://www.w3.org/2000/svg" xmlns:xlink="http://www.w3.org/1999/xlink">
    <!-- Generator: Sketch 46.2 (44496) - http://www.bohemiancoding.com/sketch -->
    <title>Group Copy</title>
    <desc>Created with Sketch.</desc>
    <defs></defs>
    <g id="Page-1" stroke="none" stroke-width="1" fill="none" fill-rule="evenodd">
        <g id="Group-Copy" fill-rule="nonzero" fill="#FFFFFF">
            <polygon id="Shape" points="103 68.974 109.8 68.974 109.8 40.595 109.934 40.595 120.377 68.913 126.98 68.913 126.98 21 120.18 21 120.18 50.385 120.046 50.385 109.534 21 103 21"></polygon>
            <path d="M76,68.859 L85.052,68.859 L87.265,68.859 C91.369,68.859 94.518,67.801 96.706,65.686 C98.894,63.572 99.988,60.287 99.988,55.832 L99.988,33.29 C99.988,29.416 98.949,26.4 96.875,24.239 C94.799,22.08 91.799,21 87.873,21 L85.463,21 L76,21 L76,68.859 L76,68.859 Z M82.904,27.787 L85.16,27.787 L87.737,27.787 C89.768,27.787 91.166,28.299 91.934,29.323 C92.701,30.348 93.084,31.795 93.084,33.665 L93.084,56.128 C93.084,58.177 92.677,59.681 91.865,60.637 C91.053,61.595 89.676,62.075 87.736,62.075 L84.818,62.075 L82.903,62.075 L82.903,27.787 L82.904,27.787 Z" id="Shape"></path>
            <path d="M38,89.433 C57.021,89.433 72.441,73.894 72.441,55.076 C72.441,36.257 57.021,21 38,21 L38,89.433 L38,89.433 Z" id="Shape"></path>
            <path d="M34.442,0 C15.421,0 0,15.294 0,34.159 C0,53.026 15.421,68.573 34.442,68.573 L34.442,0 Z" id="Shape"></path>
            <path d="M200.548,103.823 C201.074,103.823 201.402,103.438 201.402,102.926 C201.402,102.401 201.061,102.03 200.563,102.03 C200.065,102.03 199.709,102.4 199.709,102.926 C199.709,103.438 200.049,103.823 200.548,103.823 L200.548,103.823 Z M196.219,103.666 L199.65,94.071 L198.326,94.071 L196.703,98.811 C196.276,100.066 195.878,101.276 195.607,102.385 L195.579,102.385 C195.322,101.261 194.968,100.093 194.555,98.797 L193.06,94.07 L191.722,94.07 L194.854,103.665 L196.219,103.665 L196.219,103.666 Z M190.145,103.823 C190.67,103.823 190.999,103.438 190.999,102.926 C190.999,102.401 190.657,102.03 190.159,102.03 C189.662,102.03 189.306,102.4 189.306,102.926 C189.306,103.438 189.647,103.823 190.145,103.823 L190.145,103.823 Z M187.525,98.142 L183.794,98.142 L183.794,95.109 L187.738,95.109 L187.738,94.071 L182.557,94.071 L182.557,103.666 L187.952,103.666 L187.952,102.628 L183.794,102.628 L183.794,99.167 L187.525,99.167 L187.525,98.142 Z M170.38,103.666 L170.38,99.566 C170.38,97.97 170.352,96.817 170.28,95.607 L170.323,95.592 C170.807,96.631 171.448,97.728 172.118,98.796 L175.166,103.665 L176.417,103.665 L176.417,94.07 L175.251,94.07 L175.251,98.084 C175.251,99.58 175.28,100.748 175.394,102.029 L175.366,102.044 C174.91,101.061 174.355,100.05 173.643,98.925 L170.566,94.071 L169.214,94.071 L169.214,103.666 L170.38,103.666 L170.38,103.666 Z M166.892,98.142 L163.161,98.142 L163.161,95.109 L167.105,95.109 L167.105,94.071 L161.924,94.071 L161.924,103.666 L167.319,103.666 L167.319,102.628 L163.161,102.628 L163.161,99.167 L166.892,99.167 L166.892,98.142 Z M155.217,95.066 C155.415,95.008 155.844,94.952 156.442,94.952 C157.752,94.967 158.65,95.508 158.65,96.747 C158.65,97.844 157.809,98.571 156.485,98.571 L155.217,98.571 L155.217,95.066 L155.217,95.066 Z M153.98,103.666 L155.217,103.666 L155.217,99.508 L156.385,99.508 C157.51,99.551 158.023,100.049 158.308,101.374 C158.579,102.57 158.791,103.395 158.949,103.666 L160.229,103.666 C160.029,103.296 159.802,102.37 159.489,101.032 C159.261,100.035 158.821,99.351 158.08,99.095 L158.08,99.053 C159.091,98.712 159.888,97.871 159.888,96.604 C159.888,95.864 159.617,95.208 159.134,94.782 C158.536,94.242 157.682,94 156.357,94 C155.503,94 154.606,94.071 153.981,94.199 L153.981,103.666 L153.98,103.666 Z M148.441,103.666 L149.693,103.666 L149.693,95.123 L152.626,95.123 L152.626,94.071 L145.523,94.071 L145.523,95.123 L148.441,95.123 L148.441,103.666 Z M138.132,103.666 L138.132,99.566 C138.132,97.97 138.104,96.817 138.032,95.607 L138.075,95.592 C138.559,96.631 139.2,97.728 139.869,98.796 L142.917,103.665 L144.169,103.665 L144.169,94.07 L143.003,94.07 L143.003,98.084 C143.003,99.58 143.031,100.748 143.146,102.029 L143.118,102.044 C142.662,101.061 142.106,100.05 141.394,98.925 L138.318,94.071 L136.966,94.071 L136.966,103.666 L138.132,103.666 L138.132,103.666 Z M134.644,98.142 L130.913,98.142 L130.913,95.109 L134.857,95.109 L134.857,94.071 L129.676,94.071 L129.676,103.666 L135.071,103.666 L135.071,102.628 L130.913,102.628 L130.913,99.167 L134.644,99.167 L134.644,98.142 Z M120.863,103.666 L127.866,103.666 L127.866,102.628 L122.5,102.628 L122.5,102.586 L127.795,94.825 L127.795,94.071 L121.319,94.071 L121.319,95.109 L126.187,95.109 L126.187,95.152 L120.863,102.941 L120.863,103.666 Z M113.031,103.666 L113.031,99.566 C113.031,97.97 113.002,96.817 112.931,95.607 L112.974,95.592 C113.457,96.631 114.099,97.728 114.768,98.796 L117.816,103.665 L119.068,103.665 L119.068,94.07 L117.902,94.07 L117.902,98.084 C117.902,99.58 117.93,100.748 118.044,102.029 L118.017,102.044 C117.561,101.061 117.004,100.05 116.292,98.925 L113.216,94.071 L111.865,94.071 L111.865,103.666 L113.031,103.666 L113.031,103.666 Z M109.543,98.142 L105.813,98.142 L105.813,95.109 L109.756,95.109 L109.756,94.071 L104.575,94.071 L104.575,103.666 L109.971,103.666 L109.971,102.628 L105.813,102.628 L105.813,99.167 L109.543,99.167 L109.543,98.142 Z M97.867,95.066 C98.067,95.008 98.494,94.952 99.093,94.952 C100.404,94.967 101.302,95.508 101.302,96.747 C101.302,97.844 100.46,98.571 99.136,98.571 L97.867,98.571 L97.867,95.066 Z M96.631,103.666 L97.867,103.666 L97.867,99.508 L99.036,99.508 C100.161,99.551 100.675,100.049 100.959,101.374 C101.23,102.57 101.443,103.395 101.6,103.666 L102.879,103.666 C102.681,103.296 102.452,102.37 102.141,101.032 C101.912,100.035 101.472,99.351 100.732,99.095 L100.732,99.053 C101.742,98.712 102.539,97.871 102.539,96.604 C102.539,95.864 102.268,95.208 101.785,94.782 C101.188,94.242 100.333,94 99.008,94 C98.154,94 97.257,94.071 96.632,94.199 L96.632,103.666 L96.631,103.666 Z M94.308,98.142 L90.578,98.142 L90.578,95.109 L94.522,95.109 L94.522,94.071 L89.34,94.071 L89.34,103.666 L94.735,103.666 L94.735,102.628 L90.578,102.628 L90.578,99.167 L94.308,99.167 L94.308,98.142 Z M85.653,103.666 L86.89,103.666 L86.89,94.071 L85.653,94.071 L85.653,103.666 Z M77.166,103.666 L77.166,99.566 C77.166,97.97 77.139,96.817 77.067,95.607 L77.109,95.592 C77.592,96.631 78.234,97.728 78.904,98.796 L81.952,103.665 L83.203,103.665 L83.203,94.07 L82.037,94.07 L82.037,98.084 C82.037,99.58 82.066,100.748 82.18,102.029 L82.152,102.044 C81.696,101.061 81.141,100.05 80.429,98.925 L77.352,94.071 L76,94.071 L76,103.666 L77.166,103.666 L77.166,103.666 Z" id="Shape"></path>
            <path d="M201.946,83.157 L198.279,83.157 L198.279,80.174 L202.156,80.174 L202.156,79.154 L197.063,79.154 L197.063,88.585 L202.365,88.585 L202.365,87.565 L198.279,87.565 L198.279,84.163 L201.946,84.163 L201.946,83.157 Z M187.659,79.154 L187.659,88.585 L188.876,88.585 L188.876,84.163 L193.439,84.163 L193.439,88.585 L194.669,88.585 L194.669,79.154 L193.439,79.154 L193.439,83.1 L188.876,83.1 L188.876,79.154 L187.659,79.154 Z M185.601,87.312 C185.112,87.55 184.356,87.705 183.614,87.705 C181.319,87.705 179.99,86.221 179.99,83.912 C179.99,81.433 181.46,80.019 183.671,80.019 C184.455,80.019 185.112,80.187 185.573,80.412 L185.867,79.42 C185.546,79.252 184.805,79 183.629,79 C180.703,79 178.705,81 178.705,83.954 C178.705,87.047 180.703,88.725 183.362,88.725 C184.51,88.725 185.405,88.501 185.853,88.279 L185.601,87.312 Z M171.608,88.124 C172.111,88.46 173.103,88.725 174.014,88.725 C176.24,88.725 177.316,87.467 177.316,86.011 C177.316,84.626 176.505,83.857 174.911,83.24 C173.607,82.736 173.033,82.302 173.033,81.42 C173.033,80.776 173.523,80.006 174.812,80.006 C175.666,80.006 176.296,80.286 176.603,80.454 L176.938,79.462 C176.519,79.224 175.82,79 174.854,79 C173.019,79 171.804,80.09 171.804,81.56 C171.804,82.89 172.754,83.688 174.294,84.235 C175.567,84.724 176.071,85.227 176.071,86.11 C176.071,87.061 175.343,87.719 174.097,87.719 C173.256,87.719 172.459,87.44 171.914,87.103 L171.608,88.124 Z M166.725,88.584 L167.954,88.584 L167.954,80.187 L170.837,80.187 L170.837,79.154 L163.856,79.154 L163.856,80.187 L166.725,80.187 L166.725,88.584 Z M155.585,79.154 L155.585,84.71 C155.585,87.635 157.039,88.739 158.971,88.739 C161.015,88.739 162.539,87.551 162.539,84.654 L162.539,79.154 L161.309,79.154 L161.309,84.738 C161.309,86.823 160.413,87.747 159.013,87.747 C157.753,87.747 156.815,86.851 156.815,84.738 L156.815,79.154 L155.585,79.154 Z M153.316,83.157 L149.649,83.157 L149.649,80.174 L153.526,80.174 L153.526,79.154 L148.433,79.154 L148.433,88.585 L153.735,88.585 L153.735,87.565 L149.649,87.565 L149.649,84.163 L153.316,84.163 L153.316,83.157 Z M140.05,80.173 C140.372,80.103 140.848,80.047 141.478,80.047 C144.054,80.047 145.314,81.461 145.3,83.687 C145.3,86.235 143.886,87.691 141.281,87.691 C140.805,87.691 140.357,87.676 140.05,87.621 L140.05,80.173 Z M138.834,88.556 C139.448,88.626 140.176,88.668 141.044,88.668 C142.878,88.668 144.334,88.193 145.216,87.312 C146.096,86.445 146.57,85.184 146.57,83.645 C146.57,82.12 146.082,81.028 145.243,80.257 C144.418,79.488 143.172,79.083 141.422,79.083 C140.456,79.083 139.574,79.167 138.834,79.279 L138.834,88.556 L138.834,88.556 Z M127.482,80.173 C127.804,80.103 128.28,80.047 128.911,80.047 C131.486,80.047 132.747,81.461 132.732,83.687 C132.732,86.235 131.318,87.691 128.714,87.691 C128.237,87.691 127.79,87.676 127.482,87.621 L127.482,80.173 Z M126.267,88.556 C126.882,88.626 127.609,88.668 128.477,88.668 C130.311,88.668 131.767,88.193 132.649,87.312 C133.53,86.445 134.005,85.184 134.005,83.645 C134.005,82.12 133.516,81.028 132.677,80.257 C131.851,79.488 130.605,79.083 128.855,79.083 C127.889,79.083 127.008,79.167 126.267,79.279 L126.267,88.556 Z M117.925,88.584 L117.925,84.554 C117.925,82.987 117.897,81.853 117.826,80.663 L117.868,80.649 C118.345,81.67 118.974,82.748 119.633,83.797 L122.629,88.583 L123.858,88.583 L123.858,79.152 L122.712,79.152 L122.712,83.096 C122.712,84.568 122.739,85.715 122.852,86.974 L122.824,86.989 C122.377,86.024 121.831,85.03 121.131,83.925 L118.107,79.153 L116.778,79.153 L116.778,88.584 L117.925,88.584 Z M109.711,84.667 L110.635,81.938 C110.817,81.363 110.971,80.789 111.111,80.228 L111.139,80.228 C111.278,80.775 111.418,81.334 111.628,81.951 L112.552,84.667 L109.711,84.667 L109.711,84.667 Z M112.804,85.618 L113.811,88.585 L115.112,88.585 L111.894,79.154 L110.425,79.154 L107.221,88.585 L108.48,88.585 L109.46,85.618 L112.804,85.618 Z M101.286,84.065 L102.294,84.065 C103.624,84.065 104.73,84.596 104.73,85.884 C104.73,87.256 103.568,87.718 102.308,87.718 C101.874,87.718 101.524,87.704 101.287,87.662 L101.287,84.065 L101.286,84.065 Z M101.286,80.103 C101.481,80.061 101.804,80.019 102.363,80.019 C103.595,80.019 104.435,80.454 104.435,81.559 C104.435,82.47 103.679,83.142 102.391,83.142 L101.286,83.142 L101.286,80.103 Z M100.069,88.556 C100.474,88.613 101.117,88.668 101.958,88.668 C103.498,88.668 104.562,88.389 105.219,87.788 C105.694,87.326 106.016,86.71 106.016,85.898 C106.016,84.498 104.968,83.755 104.072,83.533 L104.072,83.505 C105.065,83.142 105.667,82.344 105.667,81.433 C105.667,80.692 105.374,80.131 104.884,79.768 C104.297,79.293 103.513,79.083 102.295,79.083 C101.441,79.083 100.602,79.167 100.07,79.279 L100.07,88.556 L100.069,88.556 Z M93.477,80.131 C93.673,80.075 94.093,80.019 94.681,80.019 C95.969,80.034 96.851,80.566 96.851,81.784 C96.851,82.863 96.025,83.577 94.723,83.577 L93.477,83.577 L93.477,80.131 L93.477,80.131 Z M92.261,88.584 L93.477,88.584 L93.477,84.498 L94.625,84.498 C95.73,84.54 96.234,85.029 96.515,86.331 C96.781,87.506 96.991,88.318 97.145,88.584 L98.403,88.584 C98.208,88.22 97.983,87.311 97.676,85.995 C97.451,85.015 97.019,84.344 96.291,84.092 L96.291,84.051 C97.284,83.715 98.066,82.89 98.066,81.643 C98.066,80.915 97.801,80.272 97.326,79.852 C96.738,79.322 95.898,79.083 94.597,79.083 C93.757,79.083 92.876,79.153 92.261,79.279 L92.261,88.584 Z M89.978,83.157 L86.312,83.157 L86.312,80.174 L90.188,80.174 L90.188,79.154 L85.096,79.154 L85.096,88.585 L90.398,88.585 L90.398,87.565 L86.312,87.565 L86.312,84.163 L89.978,84.163 L89.978,83.157 Z M80.421,88.584 L83.793,79.153 L82.491,79.153 L80.896,83.813 C80.476,85.044 80.084,86.235 79.818,87.326 L79.791,87.326 C79.54,86.221 79.189,85.073 78.783,83.8 L77.314,79.154 L76,79.154 L79.077,88.585 L80.421,88.585 L80.421,88.584 Z" id="Shape"></path>
        </g>
    </g>
</svg>