<svg id="Ebene_1" data-name="Ebene 1" xmlns="http://www.w3.org/2000/svg" viewBox="0 0 566.4 131.3"><defs><style>.cls-1{fill:#005b7d;}.cls-2{fill:#009fe3;}</style></defs><title>VB-logo-mit-claim-rgb</title><path class="cls-1" d="M1311.7,1006.3a249,249,0,0,1-16.5-48.5h7.5c3.8,16.4,8.2,30.3,13.1,41.6a247.8,247.8,0,0,0,13-41.6h7.5a246.76,246.76,0,0,1-16.5,48.5Z" transform="translate(-1134 -927.3)"/><path class="cls-1" d="M1345.3,965.2a4.22,4.22,0,0,1-3.2-1.2,4.08,4.08,0,0,1-1.1-3.1,4.3,4.3,0,0,1,1.2-3.1,4.14,4.14,0,0,1,3.1-1.2,4.32,4.32,0,0,1,3.2,7.2,4.14,4.14,0,0,1-3.1,1.2l-.1.2Zm3.6,41.1h-7V971.1h7v35.2Z" transform="translate(-1134 -927.3)"/><path class="cls-1" d="M1360.2,973.6a29.73,29.73,0,0,1,14.6-3.3,18.47,18.47,0,0,1,4.9.5l-1,5.9a12.3,12.3,0,0,0-3.5-.5,17.28,17.28,0,0,0-8.1,1.8v28.3h-7l.1-32.7Z" transform="translate(-1134 -927.3)"/><path class="cls-1" d="M1398.1,970.3a23.85,23.85,0,0,1,10.2,2.1l-1.4,5.6a21.08,21.08,0,0,0-8.3-1.8,9.43,9.43,0,0,0-7.7,3.3c-1.8,2.2-2.7,5.3-2.7,9.2,0,4.1,1,7.2,2.8,9.4s4.7,3.2,8.3,3.2a18.36,18.36,0,0,0,8-1.9l1.2,5.7a20.12,20.12,0,0,1-9.7,2.2c-5.6,0-10-1.6-13.1-4.8s-4.6-7.7-4.6-13.5c0-5.6,1.5-10.1,4.6-13.5s7.3-5.1,12.6-5.1h-.2Z" transform="translate(-1134 -927.3)"/><path class="cls-1" d="M1416.3,1006.3V956.4l7-.3v16.2a19.21,19.21,0,0,1,8.7-2c4.4,0,7.8,1.2,10.3,3.5s3.7,5.6,3.7,9.9v22.6h-7.1V984.2c0-5.3-2.7-8-8.1-8a16.55,16.55,0,0,0-7.9,2v28h-6.6Z" transform="translate(-1134 -927.3)"/><path class="cls-1" d="M1486.7,988.8c0,5.6-1.5,10.1-4.4,13.4s-6.9,5-12.1,5-9.1-1.7-12-5-4.4-7.8-4.4-13.5,1.5-10,4.4-13.3,6.9-5,12-5,9.2,1.7,12.1,5,4.4,7.7,4.4,13.4Zm-25.9.1c0,3.9.8,6.9,2.4,9.2a8,8,0,0,0,6.9,3.3c3.1,0,5.5-1.1,7-3.3s2.3-5.3,2.3-9.2-.8-6.9-2.4-9.2a8.86,8.86,0,0,0-13.8,0c-1.6,2.2-2.4,5.3-2.4,9.1v.1Z" transform="translate(-1134 -927.3)"/><path class="cls-1" d="M1519,971.1a92.77,92.77,0,0,0,7.8,29.6,78.92,78.92,0,0,0,8.1-29.5h6.9a89.91,89.91,0,0,1-3.6,17.9,99.51,99.51,0,0,1-7.6,17.3h-7.1a136.24,136.24,0,0,1-7.5-17.1,84.28,84.28,0,0,1-6.9,17h-6.9a85.29,85.29,0,0,1-7.7-16.9,90.17,90.17,0,0,1-3.5-18.3h6.9a89.92,89.92,0,0,0,8.1,29.6,73.61,73.61,0,0,0,7.3-22.1c-.4-2.4-.8-4.9-1-7.5Z" transform="translate(-1134 -927.3)"/><path class="cls-1" d="M1550.3,1006.3V957.7h12.8c12.3,0,18.4,4.2,18.4,12.4q0,7.5-6,10.5,7.8,3.15,7.8,11.7c0,9.2-6.2,13.9-18.5,13.9h-14.5Zm7.1-27.4h8.7c5.3,0,8.1-2.6,8.1-7.7,0-2.7-1-4.6-2.9-5.6a18,18,0,0,0-8.2-1.6h-5.8l.1,14.9Zm-.1,21.2h6.9c4,0,6.9-.6,8.9-1.7s2.9-3.1,2.9-6c0-5.3-3.4-7.9-10.1-7.9h-8.5v15.6Z" transform="translate(-1134 -927.3)"/><path class="cls-1" d="M1605.1,1007.1c-9.5,0-14.2-4.5-14.2-13.6V971.1h7v22.4c0,5.1,2.4,7.7,7.4,7.7a16.83,16.83,0,0,0,8.2-1.9V971.1h7v32.7a34.83,34.83,0,0,1-15.4,3.3Z" transform="translate(-1134 -927.3)"/><path class="cls-1" d="M1630.5,1006.3V973.5a34.88,34.88,0,0,1,15.2-3.3c4.8,0,8.5,1.2,11,3.5s3.8,5.6,3.8,9.9v22.6h-7V984.1c0-5.3-2.6-8-7.8-8a17.86,17.86,0,0,0-8.1,1.8v28.3h-7.1Z" transform="translate(-1134 -927.3)"/><path class="cls-1" d="M1699.9,1004.4a26.74,26.74,0,0,1-12.9,2.9c-5.6,0-9.9-1.6-13.2-4.8s-4.9-7.6-4.9-13.1c0-5.8,1.7-10.4,4.9-13.9s7.8-5.2,13.5-5.2a20.32,20.32,0,0,1,5.5.8V956.5l7-.3v48.2Zm-23.6-15.2c0,3.9,1,6.9,2.9,9a10.24,10.24,0,0,0,7.9,3.2,12.11,12.11,0,0,0,6-1.3V977.5a12.17,12.17,0,0,0-5.2-1.1q-5.7,0-8.7,3.3c-2,2.2-3,5.4-3,9.5Z" transform="translate(-1134 -927.3)"/><polygon class="cls-2" points="176.9 115.8 176.9 91.4 191.2 91.4 191.2 94.5 180.5 94.5 180.5 102.7 189.5 102.7 189.5 105.8 180.5 105.8 180.5 115.8 176.9 115.8"/><path class="cls-2" d="M1335.3,1026.7a14.87,14.87,0,0,1,7.3-1.7,19.48,19.48,0,0,1,2.5.2l-.5,3a4.68,4.68,0,0,0-1.7-.2,8.85,8.85,0,0,0-4.1.9v14.3h-3.5v-16.5Z" transform="translate(-1134 -927.3)"/><path class="cls-2" d="M1368.9,1042.4a14,14,0,0,1-6,1.2,8.82,8.82,0,0,1-6.7-2.5c-1.7-1.6-2.5-3.9-2.5-6.8a9.72,9.72,0,0,1,2.3-6.7,7.71,7.71,0,0,1,6.1-2.6,6.73,6.73,0,0,1,5.4,2.2,8,8,0,0,1,2,5.6,19.3,19.3,0,0,1-.1,2.3h-11.9c.3,3.6,2.3,5.4,5.9,5.4a11.74,11.74,0,0,0,5.1-1.1l.4,3Zm-6.9-14.3a3.94,3.94,0,0,0-3.2,1.3,6.59,6.59,0,0,0-1.5,3.6h8.6v-.6a4.45,4.45,0,0,0-1-3.1,3,3,0,0,0-2.9-1.2Z" transform="translate(-1134 -927.3)"/><path class="cls-2" d="M1383.4,1022.4a2.06,2.06,0,0,1-2.2-2.2,1.89,1.89,0,0,1,.6-1.5,2.43,2.43,0,0,1,3.2,0,2,2,0,0,1,.6,1.5,2.11,2.11,0,0,1-.6,1.6,3.35,3.35,0,0,1-1.6.6Zm1.8,20.7h-3.5v-17.7h3.5v17.7Z" transform="translate(-1134 -927.3)"/><path class="cls-2" d="M1418.3,1022.4a2.06,2.06,0,0,1-2.2-2.2,1.89,1.89,0,0,1,.6-1.5,2.43,2.43,0,0,1,3.2,0,2,2,0,0,1,.6,1.5,2.11,2.11,0,0,1-.6,1.6,3.35,3.35,0,0,1-1.6.6Zm1.8,20.7h-3.5v-17.7h3.5v17.7Z" transform="translate(-1134 -927.3)"/><path class="cls-2" d="M1432,1043.1v-16.5a17.7,17.7,0,0,1,7.7-1.6,8,8,0,0,1,5.6,1.8,6.34,6.34,0,0,1,1.9,5v11.4h-3.5V1032c0-2.7-1.3-4-3.9-4a9.15,9.15,0,0,0-4.1.9v14.3H1432Z" transform="translate(-1134 -927.3)"/><path class="cls-2" d="M1489.8,1042.2a13,13,0,0,1-6.5,1.5,8.3,8.3,0,0,1-9-9,9.69,9.69,0,0,1,2.5-7,10.14,10.14,0,0,1,9.6-2.2v-7.4l3.5-.2v24.3Zm-11.9-7.7a6.11,6.11,0,0,0,1.5,4.5,5.06,5.06,0,0,0,4,1.6,5.56,5.56,0,0,0,3-.7v-11.4a6.16,6.16,0,0,0-2.6-.6,5.72,5.72,0,0,0-4.4,1.7,6.44,6.44,0,0,0-1.5,4.9Z" transform="translate(-1134 -927.3)"/><path class="cls-2" d="M1518,1042.4a14,14,0,0,1-6,1.2,8.82,8.82,0,0,1-6.7-2.5c-1.7-1.6-2.5-3.9-2.5-6.8a9.72,9.72,0,0,1,2.3-6.7,7.71,7.71,0,0,1,6.1-2.6,6.73,6.73,0,0,1,5.4,2.2,8,8,0,0,1,2,5.6,19.3,19.3,0,0,1-.1,2.3h-11.9c.3,3.6,2.3,5.4,5.9,5.4a11.74,11.74,0,0,0,5.1-1.1l.4,3Zm-6.8-14.3a3.94,3.94,0,0,0-3.2,1.3,6.59,6.59,0,0,0-1.5,3.6h8.6v-.6a4.45,4.45,0,0,0-1-3.1,3.15,3.15,0,0,0-2.9-1.2Z" transform="translate(-1134 -927.3)"/><path class="cls-2" d="M1531.6,1026.7a14.87,14.87,0,0,1,7.3-1.7,19.48,19.48,0,0,1,2.5.2l-.5,3a4.68,4.68,0,0,0-1.7-.2,8.85,8.85,0,0,0-4.1.9v14.3h-3.5v-16.5Z" transform="translate(-1134 -927.3)"/><path class="cls-2" d="M1569,1018.7h6.6a11.63,11.63,0,0,1,7.2,2,7.36,7.36,0,0,1,2.6,6,7.23,7.23,0,0,1-2.6,6c-1.7,1.4-4.2,2-7.2,2h-3v8.3H1569v-24.3Zm12.7,8.2a4.28,4.28,0,0,0-1.6-3.8,7.31,7.31,0,0,0-4.5-1.2h-2.9v9.9h2.9a7.11,7.11,0,0,0,4.5-1.2,4.09,4.09,0,0,0,1.6-3.7Z" transform="translate(-1134 -927.3)"/><path class="cls-2" d="M1597.3,1026.7a14.87,14.87,0,0,1,7.3-1.7,19.48,19.48,0,0,1,2.5.2l-.5,3a4.68,4.68,0,0,0-1.7-.2,8.85,8.85,0,0,0-4.1.9v14.3h-3.5v-16.5Z" transform="translate(-1134 -927.3)"/><path class="cls-2" d="M1623.9,1043.6a7.76,7.76,0,0,1-5.1-1.5,4.78,4.78,0,0,1-1.8-3.8,4.59,4.59,0,0,1,1.9-4,8.46,8.46,0,0,1,5-1.4,14.48,14.48,0,0,1,3.7.4v-1.5c0-2.5-1.4-3.8-4.1-3.8a11.93,11.93,0,0,0-4.7.9l-.7-2.8a14.68,14.68,0,0,1,5.8-1,7.33,7.33,0,0,1,5.4,1.8,6.9,6.9,0,0,1,1.8,5.1v10a15.33,15.33,0,0,1-7.2,1.6Zm3.7-3.4v-4.6a12.42,12.42,0,0,0-3.3-.4c-2.5,0-3.8,1-3.8,2.9s1.2,2.8,3.7,2.8a6.62,6.62,0,0,0,3.4-.7Z" transform="translate(-1134 -927.3)"/><path class="cls-2" d="M1643.1,1043.2a17.45,17.45,0,0,1,2.1-4.8,25.14,25.14,0,0,1,3.5-4.5,23.74,23.74,0,0,1-5.4-8.4h3.8a25.64,25.64,0,0,0,4.1,6.5,15.89,15.89,0,0,0,3.6-6.5h3.6a22.52,22.52,0,0,1-1.9,4.5,23.73,23.73,0,0,1-3.4,4.1,34.58,34.58,0,0,1,5.9,9.1h-3.8a27.94,27.94,0,0,0-4.6-7.2,19.87,19.87,0,0,0-3.9,7.2Z" transform="translate(-1134 -927.3)"/><path class="cls-2" d="M1673,1022.4a2.06,2.06,0,0,1-2.2-2.2,1.89,1.89,0,0,1,.6-1.5,2.43,2.43,0,0,1,3.2,0,2,2,0,0,1,.6,1.5,2.11,2.11,0,0,1-.6,1.6,3.35,3.35,0,0,1-1.6.6Zm1.8,20.7h-3.5v-17.7h3.5v17.7Z" transform="translate(-1134 -927.3)"/><path class="cls-2" d="M1698.9,1028.8a16.51,16.51,0,0,0-4.7-.9c-2.1,0-3.1.7-3.1,2.2a1.82,1.82,0,0,0,.8,1.6,14.26,14.26,0,0,0,2.6,1.1,11.8,11.8,0,0,1,4.5,2.1,4.29,4.29,0,0,1,1.4,3.4,4.41,4.41,0,0,1-1.9,3.9,8.46,8.46,0,0,1-5,1.4,14,14,0,0,1-6-1.1l.5-3a15.84,15.84,0,0,0,5.5,1.1,4.63,4.63,0,0,0,2.5-.6,1.8,1.8,0,0,0,.9-1.6,1.7,1.7,0,0,0-.9-1.6,15.21,15.21,0,0,0-3.4-1.2,10.38,10.38,0,0,1-3.8-1.9,4.24,4.24,0,0,1-1.3-3.4,4.78,4.78,0,0,1,1.7-3.9,7.31,7.31,0,0,1,4.7-1.4,14,14,0,0,1,5.3.9l-.3,2.9Z" transform="translate(-1134 -927.3)"/><path class="cls-1" d="M1204,970.4s-3.3-1-7.8-2.3l.8-28a6.94,6.94,0,0,0,3.2-5.8,7,7,0,0,0-14,0,6.94,6.94,0,0,0,3.2,5.8l.8,26.2c-8.1-2.4-16.9-5-17.4-5.2,0,0-3-1.1-3.1-3.2a3.39,3.39,0,0,1,1.7-3.3,17.34,17.34,0,0,1,1.7-1.1c3.7-.1,8.2-2,11.1-9.7a2.29,2.29,0,0,0-.3-1.9,2.26,2.26,0,0,0-1.7-1c-7.9.1-11.3,3.2-12.8,6.4l-2.7,1.7a10.39,10.39,0,0,0-4.7,9.4c.3,5.1,4.2,8.9,8.9,10.2l31,9.4a4.11,4.11,0,0,0,5-2.7,4.25,4.25,0,0,0-2.9-4.9Zm-22.2,10.7a3.79,3.79,0,0,0,2.9,4.4l14.9,4.3c2.1.6,4.3-.4,4.8-2.2a3.79,3.79,0,0,0-2.9-4.4l-5.7-1.6.1-3.5-5.4-1.5.1,3.5-4-1.1a3.7,3.7,0,0,0-4.8,2.1Zm1.7,12.6a3.79,3.79,0,0,0,2.9,4.4l11.6,3.3c2.1.6,4.3-.4,4.8-2.2a3.79,3.79,0,0,0-2.9-4.4l-4.4-1.3.1-3.3-4.7-1.3.1,3.3-2.7-.8c-2.1-.5-4.3.5-4.8,2.3Zm1.5,12.7a3.79,3.79,0,0,0,2.9,4.4l8.5,2.4,3.4-6a3.1,3.1,0,0,0-1.3-.6l-3.3-1,.1-3.4-4-1.1.1,3.5-1.6-.5c-2.2-.6-4.3.4-4.8,2.3Zm9.8,8-3.2-.9.3,9.2,2.9-5.5v-2.8Z" transform="translate(-1134 -927.3)"/><path class="cls-2" d="M1174.6,1054.5c-13.4-22.9-40.6-69.6-40.6-69.6h19.6c7,0,11.1,4.2,13.3,7.4l21.5,36.4" transform="translate(-1134 -927.3)"/><path class="cls-1" d="M1255.8,928.4c-6.4,0-12.1,4.2-14.7,9-12.6,23.3-18.5,35-30.8,58.4-1.2,2.2-2.4,4.5-3.5,6.7-1.6,3.1-3.2,6.2-4.9,9.2-.9,1.7-1.8,3.4-2.7,5.2s-1.9,3.5-2.8,5.3c-6.4,12.1-12.8,24-19.2,36.4h33.9c24.1-45.2,44.7-84.6,68.8-130.3" transform="translate(-1134 -927.3)"/></svg>