<svg xmlns="http://www.w3.org/2000/svg" xmlns:xlink="http://www.w3.org/1999/xlink" width="140" height="89" viewBox="0 0 140 89">
    <defs>
        <path id="a" d="M.053.544H120.67v59.234H.053z"/>
        <path id="c" d="M.254.357H8.94v10.061H.254z"/>
        <path id="e" d="M.57.748h12.174v7.925H.57z"/>
    </defs>
    <g fill="none" fill-rule="evenodd">
        <path fill="#F5B859" d="M81.02 28.565l1.142-.755h-13.82l-1.142.755 2.916.125c1.332 0 1.014.126.064.502-2.156.755-20.414 7.351-20.414 7.351l7.354-7.287c.444-.44.95-.566 2.346-.566l3.043-.125 1.14-.755H50.147l-1.14.755c3.042 0 3.55.125 2.789.942-1.268 1.507-10.144 10.429-10.144 10.429h4.628s24.85-9.55 28.086-10.492c2.85-.754 3.549-.88 6.655-.88"/>
        <path stroke="#F5B859" stroke-width=".548" d="M81.02 28.565l1.142-.755h-13.82l-1.142.755 2.916.125c1.332 0 1.014.126.064.502-2.156.755-20.414 7.351-20.414 7.351l7.354-7.287c.444-.44.95-.566 2.346-.566l3.043-.125 1.14-.755H50.147l-1.14.755c3.042 0 3.55.125 2.789.942-1.268 1.507-10.144 10.429-10.144 10.429h4.628s24.85-9.55 28.086-10.492c2.85-.754 3.549-.88 6.655-.88z"/>
        <path fill="#004C80" d="M35.312 39.936v-1.57c-3.93-.315-4.184-.378-4.184-3.142V.922l-.38-.378-8.686 1.383v1.32l2.092.251c1.458.189 1.775.44 1.775 2.45v7.978c-1.585-.879-3.614-1.319-6.15-1.319-4.564 0-7.924 1.383-10.27 3.769-2.345 2.451-3.803 6.032-3.803 10.68 0 8.168 4.247 13.57 11.601 13.57 2.98 0 5.579-1.32 8.559-3.769v2.7l.443.379h9.003zm-9.383-9.298c0 1.256-.063 2.199-.38 3.078-1.078 2.89-3.55 3.958-6.403 3.958-5.135 0-7.671-4.9-7.671-11.183 0-7.099 2.599-11.936 8.241-11.936 2.6-.063 4.755 1.193 5.706 3.392.444.943.507 1.697.507 3.204v9.487z"/>
        <path stroke="#004C80" stroke-width=".823" d="M35.312 39.936v-1.57c-3.93-.315-4.184-.378-4.184-3.142V.922l-.38-.378-8.686 1.383v1.32l2.092.251c1.458.189 1.775.44 1.775 2.45v7.978c-1.585-.879-3.614-1.319-6.15-1.319-4.564 0-7.924 1.383-10.27 3.769-2.345 2.451-3.803 6.032-3.803 10.68 0 8.168 4.247 13.57 11.601 13.57 2.98 0 5.579-1.32 8.559-3.769v2.7l.443.379h9.003zm-9.383-9.298c0 1.256-.063 2.199-.38 3.078-1.078 2.89-3.55 3.958-6.403 3.958-5.135 0-7.671-4.9-7.671-11.183 0-7.099 2.599-11.936 8.241-11.936 2.6-.063 4.755 1.193 5.706 3.392.444.943.507 1.697.507 3.204v9.487z"/>
        <path fill="#004C80" d="M65.045 11.728c0-4.273-1.839-7.225-4.311-8.921C58.07 1.174 54.52.544 50.654.544h-15.47v1.698c4.882.314 5.01.44 5.01 3.643V34.66c0 3.14 0 3.33-4.882 3.706v1.57h16.23V38.24c-5.707-.25-5.897-.44-5.897-3.58V23.79h3.17c2.536 0 5.072-.251 7.1-.817 4.248-1.13 9.13-4.083 9.13-11.245zm-5.643.44c0 7.162-4.564 9.61-9.319 9.61-3.297 0-4.12-.124-4.12-2.26V4.691c0-1.57.633-2.135 4.247-2.135 5.705 0 9.192 3.392 9.192 9.612z"/>
        <g>
            <mask id="b" fill="#fff">
                <use xlink:href="#a"/>
            </mask>
            <path stroke="#004C80" stroke-width=".823" d="M65.045 11.728c0-4.273-1.839-7.225-4.311-8.921C58.07 1.174 54.52.544 50.654.544h-15.47v1.698c4.882.314 5.01.44 5.01 3.643V34.66c0 3.14 0 3.33-4.882 3.706v1.57h16.23V38.24c-5.707-.25-5.897-.44-5.897-3.58V23.79h3.17c2.536 0 5.072-.251 7.1-.817 4.248-1.13 9.13-4.083 9.13-11.245zm-5.643.44c0 7.162-4.564 9.61-9.319 9.61-3.297 0-4.12-.124-4.12-2.26V4.691c0-1.57.633-2.135 4.247-2.135 5.705 0 9.192 3.392 9.192 9.612z" mask="url(#b)"/>
            <path fill="#F5B859" d="M10.65 47.6c42.032 9.424 98.202-11.246 73.478-27.58 48.37 14.764-29.924 41.652-73.477 27.58" mask="url(#b)"/>
            <path fill="#F5B859" d="M0 49.862c59.466 24.187 154.941-16.586 85.079-37.506C181.122 31.894 58.769 80.583 0 49.862" mask="url(#b)"/>
        </g>
        <path fill="#004C80" d="M46.343 70.718c0-1.067-.317-2.01-.951-2.637-.698-.63-1.649-.88-2.917-.88h-3.55v.313c.951.064.951.064.951.629v5.34c0 .566 0 .629-.95.69v.316h3.296c.95 0 1.965-.189 2.726-.691.76-.567 1.395-1.51 1.395-3.08zm-1.205 0c0 2.703-1.331 3.394-3.106 3.394-.888 0-1.078-.127-1.078-.943v-5.026c0-.565.063-.629 1.204-.565 2.283 0 2.98 1.382 2.98 3.14zM52.048 71.285c0-.629-.19-2.074-2.155-2.074-1.648 0-2.41 1.131-2.41 2.701 0 1.697.698 2.701 2.473 2.701 1.141 0 1.775-.69 2.029-1.506l-.317-.189c-.317.628-.697 1.13-1.522 1.13-1.33 0-1.584-1.256-1.584-2.324h3.106c.19 0 .38-.063.38-.44zm-1.077-.315c0 .188-.064.315-.38.315h-2.03c0-.44.19-1.76 1.268-1.76 1.015 0 1.142 1.005 1.142 1.445zM59.085 74.489v-.315c-.76-.062-.824-.062-.824-.628v-4.272l-.063-.063-1.649.252v.251l.38.062c.254 0 .318.063.318.44v2.387c0 .315 0 .504-.064.628a1.48 1.48 0 0 1-1.33.818c-.571 0-1.079-.377-1.079-1.195v-3.58l-.063-.063-1.648.252v.251l.38.062c.317 0 .38.063.38.44v2.827c0 1.193.698 1.57 1.522 1.57.887 0 1.585-.628 1.902-.753l.127.629h1.711M63.206 74.112l-.063-.19c-.254.063-.508.127-.761.127-.38 0-.697-.251-.697-1.068v-3.267h1.394v-.378h-1.394v-1.382h-.317l-.634 1.382h-.825v.378h.761v3.707c0 1.068.824 1.192 1.205 1.192.57 0 1.077-.313 1.331-.501M67.897 73.043c0-.943-.57-1.382-1.711-1.696-.444-.125-1.141-.377-1.141-.942 0-.566.443-.88 1.014-.88.697 0 1.078.629 1.141 1.256h.317v-1.256c-.317-.25-.888-.314-1.331-.314-1.205 0-1.966.503-1.966 1.507 0 .88.698 1.258 1.585 1.509.507.188 1.141.44 1.141 1.13 0 .503-.38.88-.95.88-.888 0-1.332-.628-1.585-1.507h-.317l.126 1.382c.38.313 1.015.501 1.649.501 1.268 0 2.028-.69 2.028-1.57M73.666 73.107l-.316-.189c-.318.754-.762 1.13-1.522 1.13-1.267 0-1.585-1.318-1.585-2.324 0-1.57.634-2.2 1.394-2.2.444 0 .762.379 1.015.943.063.19.127.251.318.251.19 0 .633-.124.633-.501 0-.503-.696-1.006-1.838-1.006-1.966 0-2.6 1.319-2.6 2.701 0 1.76.888 2.701 2.472 2.701.698 0 1.713-.44 2.03-1.506M80.387 74.489v-.315c-.761-.062-.826-.125-.826-.628v-2.701c0-1.069-.568-1.634-1.583-1.634-.762 0-1.27.314-1.903.754V66.7l-.063-.063-1.71.251v.314h.443c.253.062.316.126.316.502v5.843c0 .503 0 .566-.76.628v.315H76.9v-.315c-.76-.062-.825-.125-.825-.628v-2.45c0-.251 0-.44.065-.566.252-.439.76-.754 1.33-.754.697 0 1.079.378 1.079 1.32v2.45c0 .503-.064.566-.762.628v.315h2.6M86.028 71.285c0-.629-.253-2.074-2.155-2.074-1.647 0-2.473 1.131-2.473 2.701 0 1.697.698 2.701 2.473 2.701 1.142 0 1.774-.69 2.093-1.506l-.382-.189c-.253.628-.696 1.13-1.52 1.13-1.331 0-1.586-1.256-1.522-2.324h3.042c.191 0 .444-.063.444-.44zm-1.14-.315c0 .188-.064.315-.38.315h-1.966c0-.44.128-1.76 1.268-1.76.95 0 1.078 1.005 1.078 1.445zM95.538 69.274c0-.817-.38-1.382-.824-1.696-.507-.315-1.205-.377-1.965-.377h-2.917v.313c.887.064.951.064.951.629v5.34c0 .566-.064.629-.951.69v.316h3.108v-.315c-1.079-.062-1.142-.125-1.142-.691v-2.01h.635c.442 0 .95-.064 1.33-.126.824-.189 1.775-.817 1.775-2.073zm-1.14.062c0 1.32-.89 1.76-1.777 1.76-.632 0-.823 0-.823-.378v-2.764c0-.313.127-.376.823-.376 1.079 0 1.777.565 1.777 1.758zM101.054 74.3l-.065-.251h-.507c-.19-.064-.38-.251-.38-.942v-2.513c0-.629-.125-1.383-1.774-1.383-1.204 0-2.155.565-2.155 1.194 0 .313.444.502.632.502.191-.062.255-.126.319-.313.253-.818.696-1.07 1.076-1.07.444 0 .95.252.95 1.07v.44c-.252.313-1.33.565-2.154.815-.76.251-1.014.754-1.014 1.258 0 .753.57 1.506 1.586 1.506.632 0 1.203-.44 1.583-.628.127.378.319.628.635.628.443 0 .887-.124 1.268-.313zm-1.903-1.32c0 .818-.697 1.069-1.076 1.069-.698 0-1.015-.503-1.015-1.068 0-.503.253-.754.824-1.005a8.822 8.822 0 0 0 1.267-.503v1.508zM105.556 69.714c0-.251-.191-.503-.572-.503-.38 0-.698.189-1.458.816l-.127-.816-1.584.252v.251l.38.062c.317 0 .38.063.38.44v3.33c0 .566-.063.566-.823.628v.315h2.79v-.315c-.953-.062-1.016-.062-1.016-.628v-2.45c0-.817.38-1.069.635-1.069.19 0 .38.064.633.19a.49.49 0 0 0 .254.062c.253 0 .444-.252.444-.565h.064M111.514 74.551v-.315a2.335 2.335 0 0 1-.887-.564c-.635-.63-1.459-1.633-1.902-2.199-.064-.126-.064-.126.064-.251.507-.628.823-.88 1.203-1.195.317-.251.635-.376 1.206-.44v-.25h-1.079c-.38 0-.443 0-.634.25-.317.378-1.394 1.698-1.647 2.074v-4.962l-.064-.063-1.711.251v.314h.444c.252.062.316.126.316.502v5.843c0 .566 0 .566-.76.628v.315h2.535v-.315c-.697-.062-.76-.062-.76-.628v-1.759c.444.691 1.204 1.634 1.774 2.135.38.441.76.567 1.14.567l.762.062M114.049 67.578c0-.377-.253-.628-.632-.628-.38 0-.699.251-.699.628 0 .376.318.627.699.627.38 0 .632-.25.632-.627zm.635 6.91v-.314c-.76-.062-.76-.062-.76-.628v-4.272l-.128-.063-1.649.252v.251l.382.062c.316 0 .38.063.38.44v3.33c0 .566-.064.566-.824.628v.315h2.599zM121.657 74.489v-.315c-.76-.062-.824-.062-.824-.628v-2.701c0-1.069-.57-1.634-1.521-1.634-.824 0-1.332.377-1.966.754l-.125-.754-1.586.252v.251l.38.062c.255 0 .38.063.38.44v3.33c0 .566-.064.566-.824.628v.315h2.6v-.315c-.761-.062-.825-.062-.825-.628v-2.45c0-.251.064-.44.127-.566.191-.439.698-.754 1.267-.754.698 0 1.079.378 1.079 1.32v2.45c0 .566 0 .566-.76.628v.315h2.598M126.412 73.043c0-.943-.57-1.382-1.65-1.696-.443-.125-1.14-.377-1.14-.942 0-.566.444-.88.952-.88.76 0 1.14.629 1.204 1.256h.318v-1.256c-.382-.25-.89-.314-1.395-.314-1.142 0-1.902.503-1.902 1.507 0 .88.697 1.258 1.584 1.509.444.188 1.142.44 1.142 1.13 0 .503-.443.88-1.015.88-.823 0-1.331-.628-1.521-1.507h-.317l.127 1.382c.38.313 1.013.501 1.648.501 1.267 0 1.965-.69 1.965-1.57M132.815 71.912c0-1.758-.824-2.7-2.598-2.7-1.65 0-2.537.942-2.537 2.7 0 1.697.888 2.701 2.537 2.701 1.774 0 2.598-1.004 2.598-2.701zm-1.14 0c0 1.446-.444 2.324-1.458 2.324-.951 0-1.395-.878-1.395-2.324 0-1.507.444-2.387 1.395-2.387 1.014 0 1.458.88 1.458 2.387zM139.915 74.489v-.315c-.76-.062-.823-.062-.823-.628v-2.701c0-1.069-.571-1.634-1.586-1.634-.76 0-1.267.377-1.901.754l-.128-.754-1.584.252v.251l.38.062c.253 0 .316.063.316.44v3.33c0 .566 0 .566-.76.628v.315h2.599v-.315c-.76-.062-.823-.062-.823-.628v-2.45c0-.251 0-.44.126-.566.19-.439.697-.754 1.268-.754.698 0 1.078.378 1.078 1.32v2.45c0 .566 0 .566-.762.628v.315h2.6M45.772 79.452v-.314h-2.346v.314l.571.062c.254 0 .317.126.254.315-.127.44-.444 1.382-.825 2.449l-1.14 3.015v-.062l-1.015-2.702a64.44 64.44 0 0 1-.888-2.638c-.126-.314-.063-.377.19-.377l.571-.062v-.314h-2.79v.314c.635 0 .761.062.952.628.317.88.76 1.947 1.077 2.953l1.205 3.391h.76l1.395-3.643c.444-1.194.825-2.261 1.078-2.765.254-.502.38-.564.951-.564M50.083 83.22c0-.564-.19-2.073-2.155-2.073-1.649 0-2.41 1.13-2.41 2.764s.698 2.64 2.41 2.64c1.204 0 1.838-.628 2.092-1.509l-.317-.125c-.317.565-.698 1.067-1.522 1.067-1.331 0-1.585-1.255-1.585-2.324h3.043c.254 0 .444-.062.444-.44zm-1.078-.313c0 .188-.063.313-.38.313h-2.029c0-.376.19-1.695 1.268-1.695 1.014 0 1.141 1.004 1.141 1.382zM54.901 81.65c0-.25-.127-.503-.57-.503-.38 0-.698.189-1.395.818l-.127-.818-1.585.252v.252l.38.062c.318 0 .38.125.38.503v3.266c0 .566-.062.566-.823.629v.313h2.79v-.313c-.952-.063-1.015-.063-1.015-.63v-2.448c0-.817.38-1.068.634-1.068.19 0 .317.062.634.25h.253c.254 0 .444-.25.444-.564M60.036 83.22c0-.564-.19-2.073-2.092-2.073-1.712 0-2.472 1.13-2.472 2.764s.697 2.64 2.472 2.64c1.141 0 1.775-.628 2.029-1.509l-.317-.125c-.254.565-.698 1.067-1.522 1.067-1.331 0-1.585-1.255-1.585-2.324h3.107c.19 0 .38-.062.38-.44zm-1.078-.313c0 .188-.063.313-.38.313h-1.965c0-.376.127-1.695 1.268-1.695.95 0 1.077 1.004 1.077 1.382zM63.08 79.514c0-.376-.254-.628-.635-.628-.443 0-.697.252-.697.628 0 .377.254.69.697.69.38 0 .634-.313.634-.69zm.633 6.91v-.313c-.76-.063-.76-.063-.76-.63v-4.27l-.127-.064-1.649.252v.252l.38.062c.318 0 .381.125.381.503v3.266c0 .566-.063.566-.824.629v.313h2.6zM70.686 86.424v-.313c-.76-.063-.823-.063-.823-.63v-2.7c0-1.068-.57-1.634-1.522-1.634-.824 0-1.331.378-1.965.818l-.127-.818-1.585.252v.252l.38.062c.254 0 .318.125.318.503v3.266c0 .566 0 .566-.761.629v.313H67.2v-.313c-.76-.063-.824-.063-.824-.63v-2.448c0-.252.063-.377.127-.567.19-.44.697-.753 1.268-.753.697 0 1.077.376 1.077 1.32v2.449c0 .566 0 .566-.76.629v.313h2.598"/>
        <g transform="translate(71.32 78.53)">
            <mask id="d" fill="#fff">
                <use xlink:href="#c"/>
            </mask>
            <path fill="#004C80" d="M2.155.984c0-.376-.253-.627-.633-.627S.888.608.888.984c0 .378.254.691.634.691s.633-.313.633-.69zm.634 6.91v-.312c-.696-.063-.76-.063-.76-.63v-4.27l-.064-.064-1.71.252v.251l.443.063c.253 0 .316.125.316.503v3.265c0 .567 0 .567-.76.63v.313H2.79zM8.939 2.618l-.127-.125-1.331.44c-.316-.189-.888-.315-1.395-.315-1.586 0-2.155 1.006-2.155 1.76 0 1.004.634 1.444 1.14 1.57-.57.251-1.015.565-1.015.943 0 .376.444.753.951.815v.064c-.442.125-1.203.376-1.203 1.13 0 1.068 1.078 1.57 2.282 1.57.635 0 1.331-.187 1.839-.438.443-.315.824-.817.824-1.446 0-1.13-.888-1.57-2.028-1.57h-.888c-.761 0-.889-.252-.889-.44 0-.315.444-.503.571-.503h.508c1.014 0 2.156-.44 2.156-1.695 0-.441-.127-.818-.318-1.006l.823-.126.255-.628zm-1.774 1.76c0 .88-.444 1.319-1.079 1.319-.57 0-1.079-.44-1.079-1.32 0-1.068.572-1.382 1.079-1.382.571 0 1.079.377 1.079 1.383zm.696 4.46c0 .817-.76 1.257-1.522 1.257-.888 0-1.52-.503-1.52-1.258 0-.376.063-.627.316-.754.253-.188.57-.25 1.079-.25.95 0 1.647.188 1.647 1.004z" mask="url(#d)"/>
        </g>
        <path fill="#004C80" d="M86.854 86.424v-.313c-.763-.063-.826-.063-.826-.63v-4.27l-.062-.064-1.649.252v.252l.38.062c.318 0 .382.125.382.503v2.324c0 .315-.064.566-.128.629-.255.502-.762.815-1.267.815-.635 0-1.079-.376-1.079-1.193v-3.58l-.063-.064-1.71.252v.252l.443.062c.253 0 .316.125.316.503v2.764c0 1.193.698 1.57 1.522 1.57.887 0 1.648-.627 1.902-.753l.125.627h1.714"/>
        <g transform="translate(87.17 80.275)">
            <mask id="f" fill="#fff">
                <use xlink:href="#e"/>
            </mask>
            <path fill="#004C80" d="M6.657 6.15v-.314c-.762-.062-.824-.062-.824-.629v-2.7c0-1.068-.57-1.634-1.585-1.634-.76 0-1.267.377-1.902.817L2.155.873l-1.52.252v.251l.38.063c.252 0 .316.125.316.502v3.266c0 .567 0 .567-.76.63v.313H3.17v-.314c-.76-.062-.824-.062-.824-.629V2.758c0-.251 0-.377.127-.566.189-.44.697-.753 1.267-.753.699 0 1.079.376 1.079 1.32v2.448c0 .567 0 .567-.763.63v.313h2.601M12.744.873l-.065-.125-1.394.44c-.317-.189-.887-.315-1.33-.315-1.65 0-2.222 1.006-2.222 1.76 0 1.004.635 1.444 1.142 1.57-.57.251-.95.565-.95.942s.38.753.887.816v.064c-.444.125-1.204.376-1.204 1.13 0 1.068 1.076 1.57 2.282 1.57a4.4 4.4 0 0 0 1.838-.438c.507-.315.824-.817.824-1.446 0-1.131-.887-1.57-2.03-1.57h-.887c-.76 0-.886-.252-.886-.44 0-.315.443-.503.57-.503h.57c.953 0 2.092-.44 2.092-1.696 0-.44-.125-.817-.316-1.005l.887-.126.192-.628zm-1.776 1.76c0 .879-.445 1.319-1.078 1.319-.57 0-1.078-.44-1.078-1.32 0-1.068.57-1.382 1.142-1.382.507 0 1.014.377 1.014 1.382zm.697 4.46c0 .817-.76 1.256-1.522 1.256-.887 0-1.52-.502-1.52-1.257 0-.376.126-.627.316-.754.253-.188.571-.25 1.078-.25.951 0 1.648.188 1.648 1.004z" mask="url(#f)"/>
        </g>
        <path fill="#004C80" d="M108.027 83.22c0-.564-.19-2.073-2.091-2.073-1.713 0-2.473 1.13-2.473 2.764s.698 2.64 2.473 2.64c1.14 0 1.774-.628 2.027-1.509l-.316-.125c-.253.565-.697 1.067-1.523 1.067-1.33 0-1.583-1.255-1.583-2.324h3.106c.19 0 .38-.062.38-.44zm-1.077-.313c0 .188-.063.313-.382.313h-1.963c0-.376.125-1.695 1.267-1.695.95 0 1.078 1.004 1.078 1.382zM110.88 85.86c0-.378-.253-.691-.696-.691-.383 0-.635.313-.635.69 0 .377.252.692.635.692.443 0 .696-.315.696-.691M118.615 79.452v-.314h-2.409v.314l.632.062c.255 0 .255.126.191.315-.063.44-.443 1.382-.823 2.449l-1.078 3.015v-.062l-1.015-2.702c-.317-.878-.633-1.822-.95-2.638-.065-.314-.065-.377.19-.377l.57-.062v-.314h-2.725v.314c.57 0 .696.062.949.628.319.88.698 1.947 1.079 2.953l1.205 3.391h.76l1.331-3.643c.444-1.194.888-2.261 1.142-2.765.19-.502.316-.564.951-.564M119.122 85.86c0-.378-.254-.691-.634-.691-.444 0-.699.313-.699.69 0 .377.255.692.699.692.38 0 .634-.315.634-.691"/>
    </g>
</svg>
