<svg viewBox="0 0 101.5 32.7" xmlns="http://www.w3.org/2000/svg"><path d="M101.5 14.8c.1 2.2-.4 4.4-1.3 6.4-.8 1.7-2 3.2-3.5 4.4s-3.1 2-4.9 2.6c-1.8.5-3.7.8-5.6.8H75.9V.7h9.9c1.9 0 3.9.2 5.7.7 1.8.4 3.5 1.2 5 2.3s2.7 2.6 3.6 4.3c1 2.2 1.5 4.5 1.4 6.8zm-7.1 0c0-1.4-.2-2.7-.7-4-.4-1-1.1-1.9-2-2.5C90.9 7.7 90 7.2 89 7c-1.1-.3-2.1-.4-3.2-.4h-3.2v16.6h3c1.1 0 2.2-.1 3.3-.4 1-.3 2-.7 2.8-1.4s1.5-1.6 2-2.6c.5-1.3.8-2.6.7-4zM64.2 29.1h-6.8L46.7.7h7.7L61 20.8h.2L67.7.7h7.6zM45.3 6.9c-.6-1.4-1.5-2.6-2.5-3.6-1.1-1-2.4-1.8-3.8-2.3-3-1.1-6.3-1.1-9.3 0-1.4.5-2.7 1.3-3.8 2.3S24 5.6 23.4 6.9c-.6 1.5-1 3.1-.9 4.7 0 1.6.3 3.3.9 4.8.6 1.4 1.5 2.6 2.5 3.7 1.1 1 2.4 1.9 3.8 2.4 3 1.2 6.3 1.2 9.3 0 1.4-.5 2.7-1.4 3.8-2.4s1.9-2.3 2.5-3.7c.6-1.5 1-3.1.9-4.8 0-1.6-.3-3.2-.9-4.7zm-16.1 6.9c-.2-.7-.3-1.4-.3-2.1s.1-1.4.3-2.1.5-1.3 1-1.9c.4-.6 1-1 1.7-1.4 1.5-.7 3.3-.7 4.8 0 .6.3 1.2.8 1.7 1.4.4.6.8 1.2 1 1.9s.3 1.4.3 2.1-.1 1.4-.3 2.1-.5 1.3-1 1.9c-.4.6-1 1-1.7 1.4-1.5.7-3.3.7-4.8 0-.6-.3-1.2-.8-1.7-1.4-.4-.6-.8-1.2-1-1.9zM17.3 8.1c-.6-.8-1.4-1.4-2.3-1.8s-1.8-.6-2.7-.7c-.5 0-.9 0-1.4.1s-.9.3-1.3.5c-.4.3-.7.6-.9.9-.3.4-.4.9-.4 1.4 0 .4.1.8.3 1.2.2.3.5.6.9.8.4.3.9.5 1.4.7s1.1.4 1.8.6c1 .3 2 .7 3 1.1s2 .9 2.8 1.5c.9.6 1.6 1.5 2.1 2.4.6 1.1.9 2.3.8 3.5 0 1.5-.3 2.9-.9 4.2-.6 1.2-1.4 2.2-2.4 2.9-1 .8-2.2 1.4-3.5 1.7-1.3.4-2.7.6-4 .6-2 0-4-.4-5.9-1.1-1.8-.6-3.4-1.7-4.7-3L4.5 21c.8.9 1.7 1.6 2.7 2.1 1 .6 2.2.8 3.4.9.5 0 1-.1 1.5-.2.4-.1.9-.3 1.3-.5s.7-.6.9-1 .3-.9.3-1.4-.1-1-.4-1.4-.7-.8-1.1-1c-.6-.3-1.2-.6-1.8-.8-.7-.3-1.6-.5-2.5-.8s-1.8-.6-2.7-1c-.8-.4-1.6-.9-2.3-1.5C3 13.8 2.4 13 2 12.2c-.4-1-.7-2.1-.6-3.3 0-1.4.3-2.8 1-4 .6-1.1 1.5-2 2.5-2.8C6 1.4 7.2.8 8.4.5 9.7.2 11 0 12.4 0c1.7 0 3.3.3 4.9.9s3.1 1.4 4.4 2.6z" fill="#d5072d"/><path d="M51.4 21.3c-.6 1.3-1.4 2.5-2.4 3.5-.9 1.1-2 2.1-3.1 3-2.3 1.8-4.9 3.2-7.7 4.1-.7.2-1.5.4-2.3.5-.4.1-.8.1-1.1.1s-.7 0-1.1.1c-1.5 0-3.1-.1-4.5-.5-3-.7-5.7-2.4-7.6-4.8l2.1-2.4c3 1.9 6.4 2.9 10 3h1.8c.6 0 1.1-.1 1.7-.3 2.4-.5 4.7-1.4 6.8-2.7 1.1-.6 2.2-1.3 3.2-2.1l1.5-1.2c.5-.4 1-.9 1.4-1.3z" fill="#b1b2b3"/></svg>