<svg xmlns="http://www.w3.org/2000/svg" xmlns:xlink="http://www.w3.org/1999/xlink" width="220" height="95" viewBox="0 0 220 95"><defs><path id="a" d="M0 95h220V0H0z"/></defs><g fill="none" fill-rule="evenodd"><path fill="#000" d="M178.179 95h-62.546v-5.684h62.546c19.915 0 36.118-16.144 36.118-35.99 0-19.846-16.203-35.992-36.118-35.992h-7.665V11.65h7.665c23.06 0 41.82 18.695 41.82 41.676C220 76.306 201.24 95 178.18 95m0-12.313h-62.546v-5.682h62.546c13.103 0 23.762-10.624 23.762-23.679 0-13.057-10.66-23.679-23.762-23.679h-7.665v-5.683h7.665c16.247 0 29.465 13.17 29.465 29.362 0 16.19-13.218 29.36-29.465 29.36m0-12.311h-62.546V64.69h62.546c6.396 0 11.405-4.993 11.405-11.365 0-6.268-5.115-11.365-11.405-11.365h-7.665v-5.684h7.665c9.434 0 17.109 7.648 17.109 17.05 0 9.558-7.515 17.048-17.11 17.048"/><path fill="#ED553D" d="M163.606 6.58l-36.337 20.182 36.337 20.182z"/><mask id="b" fill="#fff"><use xlink:href="#a"/></mask><path fill="#000" mask="url(#b)" d="M.625 58.242h12.379V1.061H.625zm31.643-18.624c.985 2.45 2.446 4.425 4.385 5.921 1.94 1.5 4.168 2.249 6.681 2.249 2.022 0 3.757-.492 5.205-1.473 1.448-.979 2.172-2.395 2.172-4.247 0-2.667-1.994-4.708-5.984-6.126l-6.886-2.45c-4.207-1.525-7.54-3.595-10-6.21-2.459-2.612-3.689-5.988-3.689-10.128 0-2.614.464-4.97 1.393-7.065a15.466 15.466 0 013.936-5.393c1.693-1.496 3.674-2.654 5.942-3.47 2.268-.818 4.769-1.227 7.502-1.227 4.263 0 8.142 1.09 11.64 3.269 3.496 2.177 6.12 5.2 7.869 9.067l-10.247 5.88c-.874-1.905-2.062-3.524-3.566-4.86-1.503-1.333-3.32-2.001-5.45-2.001-1.914 0-3.458.464-4.633 1.388-1.175.926-1.762 2.152-1.762 3.676 0 1.363.492 2.479 1.476 3.35.983.872 2.349 1.634 4.1 2.288l7.457 2.859c4.646 1.743 8.076 3.935 10.29 6.575 2.212 2.642 3.32 5.895 3.32 9.761 0 2.889-.562 5.446-1.682 7.679-1.12 2.234-2.61 4.112-4.468 5.638-1.857 1.523-4.004 2.694-6.435 3.513-2.43.816-4.986 1.224-7.663 1.224-2.405 0-4.7-.314-6.886-.94a23.319 23.319 0 01-6.067-2.696 21.62 21.62 0 01-5-4.37c-1.475-1.743-2.65-3.758-3.525-6.045l10.575-5.636zM84.975 1.062v45.662h20.001v11.519H72.679V1.062zM1.437 74.333c.34.904 1.045 1.512 1.993 1.512.814 0 1.505-.446 1.505-1.242 0-.608-.38-1.014-1.193-1.31l-1.126-.406c-1.395-.5-2.222-1.324-2.222-2.621 0-1.635 1.287-2.688 2.94-2.688 1.37.013 2.523.782 3.051 2.094l-1.395.702c-.286-.717-.841-1.283-1.64-1.283-.747 0-1.302.431-1.302 1.08 0 .568.407.919 1.178 1.217l1.166.445c1.478.567 2.211 1.405 2.211 2.662 0 1.796-1.464 2.878-3.2 2.878-1.586 0-2.873-.865-3.403-2.364l1.437-.676zm11.702-1.095c-.096-.879-.827-1.527-1.777-1.527-.922 0-1.681.77-1.776 1.527h3.553zm1.329 2.419c-.558 1.04-1.6 1.715-2.998 1.715-2.018 0-3.456-1.432-3.456-3.473 0-1.985 1.45-3.47 3.376-3.47 1.937 0 3.307 1.5 3.307 3.47 0 .258-.013.433-.013.474H9.573c.068.959.922 1.675 1.912 1.675.867 0 1.314-.419 1.694-1l1.289.609zm2.074 1.552h1.573v-9.456h-1.573zm7.404-5.362c-1.126 0-1.993.904-1.993 2.053 0 1.15.867 2.054 1.993 2.054 1.125 0 1.992-.905 1.992-2.054 0-1.149-.867-2.053-1.992-2.053zM20.46 77.21v-9.458h1.56v3.783c.488-.676 1.33-1.107 2.25-1.107 1.832 0 3.241 1.498 3.241 3.471 0 1.946-1.41 3.473-3.241 3.473-.92 0-1.762-.393-2.25-1.069v.907h-1.56zm9.9-2.19c.23.609.73 1.013 1.328 1.013.488 0 .895-.229.895-.689 0-.35-.244-.554-.759-.716l-.801-.256c-1.151-.365-1.694-1-1.694-1.918 0-1.242 1.03-2.026 2.292-2.026 1.083 0 1.992.58 2.412 1.498l-1.261.676c-.244-.526-.65-.877-1.151-.877-.448 0-.802.228-.802.606 0 .326.259.554.747.717l.786.257c1.247.406 1.75 1.054 1.75 1.931 0 1.352-1.14 2.136-2.441 2.136-1.234 0-2.196-.663-2.576-1.69l1.274-.661zm7.808-6.39v1.959h1.761v1.324h-1.761v2.973c0 .729.326 1.054 1.03 1.054.244 0 .528-.068.731-.203v1.39c-.256.135-.65.245-1.191.245-1.33 0-2.129-.826-2.129-2.203v-3.256h-.99V70.59h.99v-1.96h1.559zm7.312 3.216c-1.125 0-1.993.904-1.993 2.053 0 1.15.868 2.054 1.993 2.054 1.126 0 1.993-.905 1.993-2.054 0-1.149-.867-2.053-1.993-2.053zm-3.485 5.364v-9.458h1.56v3.783c.488-.676 1.33-1.107 2.25-1.107 1.831 0 3.241 1.498 3.241 3.471 0 1.946-1.41 3.473-3.241 3.473-.92 0-1.762-.393-2.25-1.069v.907h-1.56zm13.968-3.973c-.096-.879-.827-1.527-1.777-1.527-.922 0-1.681.77-1.776 1.527h3.553zm1.329 2.419c-.557 1.04-1.6 1.715-2.998 1.715-2.018 0-3.455-1.432-3.455-3.473 0-1.985 1.45-3.47 3.375-3.47 1.938 0 3.307 1.5 3.307 3.47 0 .258-.013.433-.013.474h-5.111c.068.959.922 1.675 1.912 1.675.867 0 1.315-.419 1.694-1l1.289.609zm3.074-.635c.23.608.731 1.012 1.329 1.012.488 0 .895-.229.895-.689 0-.35-.244-.554-.76-.716l-.8-.256c-1.152-.365-1.695-1-1.695-1.918 0-1.242 1.03-2.026 2.292-2.026 1.084 0 1.993.58 2.413 1.498l-1.262.676c-.243-.526-.65-.877-1.15-.877-.448 0-.802.228-.802.606 0 .326.258.554.746.717l.787.257c1.246.406 1.749 1.054 1.749 1.931 0 1.352-1.139 2.136-2.44 2.136-1.234 0-2.197-.663-2.576-1.69l1.274-.661zm7.808-6.39v1.958h1.762v1.324h-1.762v2.973c0 .729.326 1.054 1.03 1.054.244 0 .528-.068.732-.203v1.39c-.257.135-.65.245-1.192.245-1.329 0-2.128-.826-2.128-2.203v-3.256h-.99V70.59h.99v-1.96h1.558zm3.715 8.58h1.573V70.59h-1.573v6.621zm.773-7.595a.964.964 0 01-.962-.96.97.97 0 111.939.001.968.968 0 01-.977.959zm4.94 7.593H76.03v-6.62h1.573v.878c.352-.636 1.003-1.04 1.898-1.04.95 0 1.655.46 2.02 1.23.38-.636 1.098-1.23 2.211-1.23 1.53 0 2.413 1.068 2.413 2.715v4.067H84.57V73.44c0-.974-.448-1.58-1.274-1.58-.842 0-1.41.689-1.425 1.768v3.581H80.3v-3.716c0-1.012-.447-1.633-1.274-1.633-.855 0-1.425.714-1.425 1.836v3.513zm12.654 0h-1.573v-6.62h1.573v.878c.352-.636 1.003-1.04 1.897-1.04.95 0 1.656.46 2.02 1.23.38-.636 1.099-1.23 2.212-1.23 1.53 0 2.412 1.068 2.412 2.715v4.067h-1.573V73.44c0-.974-.447-1.58-1.274-1.58-.841 0-1.41.689-1.424 1.768v3.581h-1.572v-3.716c0-1.012-.447-1.633-1.274-1.633-.854 0-1.424.714-1.424 1.836v3.513zm12.826-8.579v1.959h1.762v1.324h-1.762v2.973c0 .729.327 1.054 1.03 1.054.245 0 .529-.068.732-.203v1.39c-.256.135-.65.245-1.191.245-1.33 0-2.129-.826-2.129-2.203v-3.256h-.99V70.59h.99v-1.96h1.558zM2.291 80.095v7.943h3.335v1.513H.665v-9.456zm9.817 5.485c-.095-.879-.827-1.527-1.777-1.527-.922 0-1.68.77-1.776 1.527h3.553zm1.329 2.419c-.557 1.04-1.6 1.715-2.997 1.715-2.019 0-3.456-1.432-3.456-3.473 0-1.986 1.45-3.471 3.375-3.471 1.938 0 3.307 1.5 3.307 3.471 0 .258-.013.433-.013.473H8.542c.068.96.922 1.676 1.912 1.676.867 0 1.315-.419 1.694-1l1.289.609zm5.708-3.81c-1.125 0-1.993.904-1.993 2.053s.868 2.053 1.993 2.053c1.126 0 1.993-.904 1.993-2.053 0-1.15-.867-2.054-1.993-2.054zm-3.485 5.363v-9.458h1.56v3.784c.488-.676 1.33-1.107 2.25-1.107 1.831 0 3.241 1.498 3.241 3.47 0 1.946-1.41 3.474-3.241 3.474-.92 0-1.762-.393-2.25-1.069v.906h-1.56zm13.9-3.972c-.096-.879-.827-1.527-1.777-1.527-.922 0-1.681.77-1.776 1.527h3.553zm1.329 2.419c-.558 1.04-1.6 1.715-2.998 1.715-2.018 0-3.456-1.432-3.456-3.473 0-1.986 1.45-3.471 3.376-3.471 1.937 0 3.307 1.5 3.307 3.471 0 .258-.013.433-.013.473h-5.111c.068.96.922 1.676 1.912 1.676.867 0 1.314-.419 1.694-1l1.289.609zm3.864 1.553H33.18v-6.62h1.573v.878c.407-.621 1.098-1.04 2.033-1.04 1.614 0 2.576 1.08 2.576 2.796v3.986h-1.573v-3.689c0-1.026-.528-1.648-1.477-1.648-.935 0-1.559.717-1.559 1.851v3.486zm7.96-1.85a.994.994 0 011.017.999.994.994 0 01-1.017.999.994.994 0 01-1.018-1 .995.995 0 011.018-.999"/></g></svg>