<?xml version="1.0" encoding="UTF-8"?>
<svg id="Ebene_2" data-name="Ebene 2" xmlns="http://www.w3.org/2000/svg" viewBox="0 0 242.37 35.19">
  <defs>
    <style>
      .cls-1 {
        fill: #b4c849;
      }

      .cls-2 {
        fill: #5d0a7f;
      }
    </style>
  </defs>
  <g id="Ebene_1-2" data-name="Ebene 1">
    <g>
      <rect class="cls-2" x="30.71" y="18.06" width="3.2" height="16.78"/>
      <g>
        <path class="cls-2" d="M42.52,24.89c0-2.67,1.63-4.22,3.88-4.22s3.53,1.47,3.53,3.9v10.27h3.2v-10.66c0-4.16-2.27-6.33-5.63-6.33-2.49,0-4.09,1.17-4.84,2.97h-.21v-2.76h-3.13v16.78h3.2v-9.95Z"/>
        <path class="cls-2" d="M68.97,26.47c0,3.53-1.54,5.93-4.33,5.93s-4.36-2.58-4.36-5.93,1.45-5.84,4.36-5.84,4.33,2.33,4.33,5.84M72.11,34.84V12.48h-3.2v8.32h-.18c-.58-1.05-1.69-2.94-4.77-2.94-4,0-6.93,3.2-6.93,8.65s2.89,8.68,6.92,8.68c3.01,0,4.19-1.88,4.78-2.94h.27v2.61h3.11Z"/>
        <path class="cls-2" d="M87.81,25h-8.58c.18-2.43,1.76-4.44,4.4-4.44s3.94,1.79,4.18,4.44M90.99,27.44v-1.17c0-6.05-3.62-8.42-7.38-8.42-4.62,0-7.6,3.56-7.6,8.72s2.99,8.62,7.88,8.62c3.6,0,6.15-1.82,6.87-4.52l-3.05-.59c-.58,1.59-1.96,2.42-3.79,2.42-2.73,0-4.59-1.82-4.71-5.06h11.78Z"/>
        <path class="cls-2" d="M94.84,34.84h3.2v-10.22c0-2.21,1.69-3.78,3.96-3.78.68,0,1.44.11,1.69.18v-3.12c-.33-.05-.96-.08-1.36-.08-1.94,0-3.6,1.11-4.21,2.93h-.18v-2.69h-3.1v16.78Z"/>
        <path class="cls-2" d="M110.69,24.89c0-2.67,1.63-4.22,3.88-4.22s3.53,1.47,3.53,3.9v10.27h3.2v-10.66c0-4.16-2.27-6.33-5.63-6.33-2.49,0-4.09,1.17-4.84,2.97h-.21v-2.76h-3.13v16.78h3.2v-9.95Z"/>
        <path class="cls-2" d="M136.69,25h-8.58c.18-2.43,1.76-4.44,4.4-4.44s3.94,1.79,4.18,4.44M139.87,27.44v-1.17c0-6.05-3.61-8.42-7.38-8.42-4.62,0-7.6,3.56-7.6,8.72s2.99,8.62,7.88,8.62c3.6,0,6.15-1.82,6.87-4.52l-3.05-.59c-.58,1.59-1.96,2.42-3.79,2.42-2.73,0-4.59-1.82-4.71-5.06h11.78Z"/>
        <path class="cls-2" d="M151.42,18.06h-3.41v-3.99h-3.21v3.99h-2.4v2.63h2.4v9.89c0,2.73,1.85,4.49,4.73,4.49.77,0,1.57-.14,2.22-.35l-.61-2.7c-.4.07-.78.12-1.13.12-1.39,0-2-.69-2-2.22v-9.23h3.41v-2.63Z"/>
      </g>
      <polygon class="cls-2" points="155.54 18.06 155.54 20.9 164.21 20.9 164.21 21.06 155.26 32.62 155.26 34.84 168.52 34.84 168.52 32.01 159.61 32.01 159.61 31.84 168.22 20.46 168.22 18.06 155.54 18.06"/>
      <polygon class="cls-2" points="191.87 18.06 188.64 30.34 188.48 30.34 185.27 18.06 181.93 18.06 178.69 30.39 178.52 30.39 175.27 18.06 171.95 18.06 176.81 34.84 180.08 34.84 183.46 22.75 183.68 22.75 187.06 34.84 190.35 34.84 195.21 18.06 191.87 18.06"/>
      <g>
        <path class="cls-2" d="M208.81,25h-8.58c.18-2.43,1.76-4.44,4.4-4.44s3.94,1.79,4.18,4.44M211.99,27.44v-1.17c0-6.05-3.62-8.42-7.38-8.42-4.62,0-7.6,3.56-7.6,8.72s2.99,8.62,7.88,8.62c3.6,0,6.15-1.82,6.88-4.52l-3.05-.59c-.58,1.59-1.96,2.42-3.79,2.42-2.73,0-4.59-1.82-4.71-5.06h11.78Z"/>
        <path class="cls-2" d="M215.53,34.84h3.2v-10.22c0-2.21,1.69-3.78,3.96-3.78.68,0,1.44.11,1.69.18v-3.12c-.32-.05-.96-.08-1.36-.08-1.94,0-3.6,1.11-4.21,2.93h-.18v-2.69h-3.1v16.78Z"/>
      </g>
      <polygon class="cls-2" points="227.97 12.48 227.97 34.84 231.17 34.84 231.17 28.9 232.77 27.28 238.4 34.84 242.37 34.84 235.21 25.28 241.91 18.06 238.06 18.06 231.48 25.18 231.17 25.18 231.17 12.48 227.97 12.48"/>
      <g>
        <path class="cls-1" d="M21.07,8.45c1.8,0,3.26-1.46,3.26-3.26s-1.46-3.26-3.26-3.26-3.26,1.46-3.26,3.26,1.46,3.26,3.26,3.26"/>
        <path class="cls-2" d="M16.42,20.35c-.73.43-1.5.79-2.32,1.08-1.39.49-2.76.67-4.03.62.31-1.37.62-2.75.93-4.12.09-.42.19-.84.28-1.26,1.49.66,2.94,1.57,4.14,2.68.35.32.68.65,1,1M8.02,15.7c-.11.5-.22,1-.34,1.49-.31,1.39-.63,2.79-.95,4.19-.82-.33-1.53-.75-2.06-1.22-.57-.5-1.5-1.54-1.24-2.75.13-.53.45-1.27,1.65-1.63.47-.14,1-.21,1.57-.21.43,0,.89.05,1.36.12M22.78,12.68c-1.06,2.28-2.27,4.13-3.68,5.57-.44-.48-.89-.94-1.37-1.38-1.65-1.53-3.64-2.74-5.69-3.55.85-3.76,1.67-7.45,2.41-10.8l-2.93-2.52c-.81,3.73-1.76,8-2.75,12.38-1.68-.29-3.29-.27-4.65.14-2.07.61-3.48,2.06-4,4.12-.46,2.17.38,4.38,2.31,6.07.92.81,2.14,1.51,3.55,2.01-.81,3.61-1.58,7.07-2.24,10.15h3.48c.63-2.9,1.34-6.11,2.09-9.45,1.85.15,3.86-.05,5.92-.78,1.18-.42,2.28-.94,3.31-1.59,2.14,3.24,3.47,7.26,3.96,11.82h3.44c-.53-5.38-2.14-10.1-4.72-13.93,2.09-2.02,3.84-4.62,5.28-8.07l.33-.79-4.05.59Z"/>
      </g>
    </g>
  </g>
</svg>