<svg version="1.1" xmlns="http://www.w3.org/2000/svg" xmlns:xlink="http://www.w3.org/1999/xlink" viewBox="0 0 477.8 126.7">
    <title>Bundesvereinigung Lebenshilfe e.V. – Der Selbsthilfeverband für Menschen mit Unterstützungsbedarf und kognitiver Beeinträchtigung</title>
<path fill="#0B6BB4" d="M124.8,114.5L124.8,114.5C124.8,114.4,124.8,114.4,124.8,114.5"/>
<path fill="#0B6BB4" d="M58,35.4c-0.5,1.7-2.1,2.9-5.4,4.6c-0.6,1.1-2.2,1.9-3.8,2.7c-1.3,0.7-2.7,1.3-2.7,1.4v1.3h-1.3
	c-0.7,0-1.6,0.4-2.6,1c-1.8,1.1-3.6,2.7-4.1,3.2l-8.5,9.6l-0.1,0.1c-4.1,4-6.5,8.6-7.9,13.3c-1.4,4.8-1.9,9.8-1.9,14.7
	c0,2.7,2.5,6.8,6.7,10c3.4,2.6,7.9,4.5,13.2,4.7v0c2,0,5.5,0,9.5,0.1c3.5,0,6.7,0.1,8.2,0.3c0.3-0.1,0.8-0.2,1.2-0.3
	c2.1-0.5,5.2-1.3,7.3-1.3c3.7,0,7.4-1.4,10.9-2.7c2-0.7,3.9-1.4,5.7-1.9c2.5-0.7,7.7-2.6,11.4-4.6c2.2-1.1,3.8-2.1,3.8-2.5v-1.3H99
	c0.4,0,0.9-0.3,1.5-0.7h0c0.8-0.6,1.5-1,1.5-1v-0.5l0.4-0.4c0.4-0.4,0.9-0.8,1.5-1.3c1.6-1.4,3.6-3.2,4.1-4.5l0.2-0.3
	c2.9-3.9,2.1-12.1,1.6-16.9v0l-0.1-1.1c-0.1-1.4-0.6-2.9-1.1-4.6c-0.6-2.2-1.4-4.5-1.6-7.1h0c-0.2-2.2-2.2-7.4-4-12
	c-0.6-1.7-1.3-3.3-1.7-4.4l0,0c-0.2-0.5-2-2.7-3.9-4.5c-1.2-1.2-2.2-2.1-2.5-2.1h-1.3v-1.3c0-0.1-0.9-0.2-2-0.6
	c-1.8-0.6-4-1.1-5.2-1.1H85v-1.3c0,0-3.3,0-4.6,0H79v-1.3c0-0.5-0.5-1.2-1.1-2c-0.7-1.1-1.5-2.2-1.5-3.4c0-1.9,0.7-3.9,1.3-5.8
	c0.6-1.8,1.2-3.6,1.2-5V3h1.3c1.3,0,2.6-0.4,3.9-0.8c2.8-0.8,6.1-1.8,11.6-0.5l1,0.2v1c0,0.7,1.2,1.9,2.4,3.2
	c1.1,1.2,2.2,2.3,2.6,3.4l0,0c1.4,3.9,6.1,8.5,10.1,12.3l1.5,1.5c1,1,1.8,2.3,2.6,3.5c1.1,1.7,2.2,3.5,4.1,4.7
	c0.3,0,0.6,0.1,0.9,0.3l0,0c0.6,0.4,0.7,1,0.7,1.8c0.1,1.3,0.4,4.4,3.5,4.4h1.3v1.3c0,0.1,0.1,0.2,0.2,0.3l0,0
	c0.3,0.4,0.6,0.7,0.6,1.4c0,0.1,0,0.3-0.1,0.5h0c0,0.2-0.1,0.5-0.1,0.8c0,0.3,0.1,0.7,0.5,0.7h1.3v1.3c0,3.1,1.6,6.2,3.2,9.3
	c1.8,3.4,3.5,6.8,3.5,10.5c0,1.3,0.3,2.9,0.7,4.5c0.8,3.7,1.7,7.7-0.9,11.3l0,0c-1.4,2.1-3.1,4.9-4.2,7.8c-0.9,2.1-1.5,4.1-1.5,5.7
	v1.3h-1.3c-0.2,0-0.6,0.1-1,0.3c-0.1,0.1-0.3-0.7-0.3-0.4v1.3h-1.3c-0.4,0-0.4,0.7-0.4,0.8v1.3h-1.3c-0.3,0-1,0.6-1.8,1.3
	c-1.1,1-2,2.2-2,2.4c0,3.1-7.1,7.1-12.1,9.9c-1.1,0.6-2.1,1.2-2.8,1.6c-1.7,1.3-10.4,4.8-10.4,4.8l-0.5,0.1c-0.7,0-2.8,0.7-4.6,1.5
	c-1.4,0.6-2.6,0.8-2.6,0.9v1.3h-1.3c-1.8,0-4.6,0.7-7.2,1.4c-1.9,0.5-3.8,0.9-5.3,1.1c-3,0.5-9,1.1-14.6,1.3
	c-3.9,0.1-7.6,0-10.1-0.4c-0.9,0.2-1.9,0.2-2.8,0c-0.8-0.2-1.7-0.4-2.5-0.8c-2.5,0.3-6.1-0.4-8.6-0.8l-0.7-0.1l-0.1,0
	c-2.5-0.6-5.7-1.9-8.6-3.4h0c-3.1-1.6-5.9-3.4-7.3-4.8l0,0c-3.4-3.6-7.3-8.1-10.3-12.7C5,97.9,2.8,93,2.8,88.5c0-1.2-0.4-3-0.9-4.8
	c-1-3.9-2.1-8.2-0.2-11.3c-0.3-1-0.1-2.4,0.1-3.6c0.1-0.5,0.1-1,0.1-1.3c0-1.7,0.7-3.4,1.4-5.1c0.6-1.4,1.2-2.9,1.2-4.1l0-0.2
	c0.9-5,3.8-10.2,7.5-15.2c3.7-4.9,8.2-9.7,12.4-13.9c1.6-1.6,5-4.2,8.1-6.5c1.9-1.5,3.7-2.8,4.7-3.7l0.4-0.3H38
	c0.4,0,4.3-2.7,4.3-2.7l0.3-0.2h0.4c0.6,0,1.1,0.1,1.6,0.3C45,16,45.4,16,45.6,16h1.3v1.3c0,0.5,1.1,2.3,2.5,3.8
	c0.9,0.9,2,1.6,2.9,1.6h1.3V24c0,0.4,0.8,1.6,1.5,2.7c0.5,0.7,0.9,1.3,1.1,1.9C57.7,31.7,58.5,33.6,58,35.4"/>
<path fill="#0B6BB4" d="M85.2,36.4c0.6,0.7,1.2,1.4,1.5,2.3c0.8,0.5,1.2,1,1.5,1.4c0.3,0.3,0.4,0.6,2.4,0.6h1.3V42
	c0,1.7,0.8,3.7,1.6,5.8c0.9,2.3,1.8,4.6,1.8,6.7V65l-0.4,0.2c0.2,0.3,0.4,0.7,0.4,1.1v1.3h-1.3c-0.7,0-1.6,0.8-2.3,1.4
	c-0.5,0.4-0.9,0.8-1.3,1c-0.9,0.6-1.6,1.4-2.3,2.2c-1.1,1.3-2.3,2.6-4.5,3.7l-1.9,1v-2.1c0-0.2-0.5-0.3-1.1-0.3l-0.6,0.3
	c-1.9,1-4.7,2.5-7.1,2.6c-2.6,0.3-5-0.4-7-1.6c-3.1-1.8-5.4-4.5-6-5.8c-3-4-3.7-8.5-3-12.9c0.8-5,3.6-9.8,7.3-13.8
	c0.9-1.1,3.6-2.4,6.6-3.7c3.6-1.7,7.5-3.5,7.5-4.2v-1.6l1.6,0.3l1.3,0.3l1.2-0.6l1.9-0.9v2.1C84.2,35.3,84.7,35.9,85.2,36.4"/>
<polyline fill="#1A181C" points="157.9,34.2 168.6,34.2 168.6,66.1 185.2,66.1 185.2,73.9 157.9,73.9 157.9,34.2 "/>
<path fill="#1A181C" d="M207.5,56.3c0-3.4-1.6-6.2-5.8-6.2c-3.7,0-5.5,2.8-5.8,6.2H207.5 M196.1,62.1c0.6,4.1,3.7,5.7,8.8,5.7
	c2.8,0,6-0.6,9.2-2.3v7.2c-3.3,1.3-7.1,1.9-11,1.9c-9.9,0-17.4-5.7-17.4-15.5c0-9.8,6.7-15.5,16.1-15.5c11.1,0,15.1,7.8,15.1,16.6
	v1.9H196.1z"/>
<path fill="#1A181C" d="M236.4,51.5c-3.8,0-6.3,3.3-6.3,7.7c0,4.3,2.9,7.6,6.3,7.6c3.9,0,6.3-3.2,6.3-8
	C242.7,54.9,240.4,51.5,236.4,51.5 M219.7,31.2h10.4v16.8h0.1c2.6-3.3,6.2-4.5,10.3-4.5c8.3,0,12.8,7.8,12.8,15
	c0,8.8-4.8,16-13.7,16c-4.8,0-9-2.7-10.3-6h-0.1v5.3h-9.6V31.2z"/>
<path fill="#1A181C" d="M277.7,56.3c0-3.4-1.6-6.2-5.8-6.2c-3.7,0-5.5,2.8-5.8,6.2H277.7 M266.3,62.1c0.6,4.1,3.7,5.7,8.8,5.7
	c2.8,0,6-0.6,9.2-2.3v7.2c-3.3,1.3-7.1,1.9-11,1.9c-9.9,0-17.4-5.7-17.4-15.5c0-9.8,6.7-15.5,16.1-15.5c11.1,0,15.1,7.8,15.1,16.6
	v1.9H266.3z"/>
<path fill="#1A181C" d="M290.1,44.3h9.4v5.5h0.1c2.1-4.3,6.2-6.1,10.9-6.1c8.2,0,11.5,5.7,11.5,11.8v18.5h-10.4V59.6
	c0-5.6-2-7.5-4.8-7.5c-4.3,0-6.5,2.9-6.5,9.3v12.5h-10.4V44.3"/>
<path fill="#1A181C" d="M326.8,65.7c2.4,1,6,2,9.7,2c2.1,0,4.2-0.3,4.2-2.4c0-5-14.7-1.5-14.7-12.2c0-6.8,6.8-9.6,12.8-9.6
	c3.6,0,7.2,0.4,10.5,1.7l-0.8,7.1c-2.2-1.3-5.5-2-8.1-2c-2.2,0-4.8,0.4-4.8,2c0,4.6,15.4,1,15.4,12.2c0,7.9-7.2,9.9-14,9.9
	c-4.7,0-7.8-0.5-10.9-1.4L326.8,65.7"/>
<path fill="#1A181C" d="M355,31.2h10.4v17.4h0.1c2.2-3.1,5.5-5.1,10-5.1c8.2,0,11.5,5.7,11.5,11.8v18.5h-10.4V59.6c0-5.6-2-7.5-4.8-7.5
	c-4.3,0-6.4,2.9-6.4,9.3v12.5H355V31.2"/>
<path fill="#1A181C" d="M392.3,44.3h10.4v29.7h-10.4V44.3z M402.7,39.4h-10.4v-7.5h10.4V39.4z"/>
<rect x="408.1" y="31.2" fill="#1A181C" width="10.4" height="42.7"/>
<path fill="#1A181C" d="M427.5,51.5h-6.1v-7.2h6.3v-1.8c0-8.8,4.2-11.9,12.5-11.9c2.2,0,4,0.3,5.3,0.6l-0.6,7.1
	c-0.9-0.3-1.7-0.5-3.3-0.5c-2.6,0-3.7,1.8-3.7,4.7v1.8h7.4v7.2h-7.4v22.5h-10.4V51.5"/>
<path fill="#1A181C" d="M467.5,56.3c0-3.4-1.6-6.2-5.8-6.2c-3.7,0-5.5,2.8-5.8,6.2H467.5 M456.1,62.1c0.6,4.1,3.7,5.7,8.8,5.7
	c2.8,0,6-0.6,9.2-2.3v7.2c-3.3,1.3-7.1,1.9-11,1.9c-9.9,0-17.4-5.7-17.4-15.5c0-9.8,6.7-15.5,16.1-15.5c11.1,0,15.1,7.8,15.1,16.6
	v1.9H456.1z"/>
</svg>
