<svg xmlns="http://www.w3.org/2000/svg" width="83" height="60" viewBox="0 0 83 60" fill-rule="evenodd" aria-label="B-A-G SELBSTHILFE">
  <path fill="#005091" d="M0.149897727,56.3808239 L2.49859091,56.029858 C2.49859091,56.7418466 2.49859091,57.9882102 3.63245455,57.8187784 C4.50296591,57.6885511 4.80671591,56.9310511 4.80671591,56.4147443 C4.80671591,54.1538352 0.0285340909,54.5775852 0.0285340909,50.8212784 C0.0285340909,48.9162784 1.20279545,47.1921307 3.42995455,46.8594034 C5.79910227,46.5051989 6.71018182,47.9537216 6.77069318,50.222983 L4.422,50.5741193 C4.422,49.8621307 4.422,48.6694602 3.36910227,48.8267898 C2.74165909,48.9203693 2.37705682,49.4378693 2.37705682,50.1321307 C2.37705682,52.2863352 7.15540909,52.0758239 7.15540909,55.7608807 C7.15540909,57.7015057 5.90001136,59.4380966 3.531375,59.7921307 C0.716829545,60.2124716 0.149897727,58.1252557 0.149897727,56.3808239 Z M8.32363636,59.0892955 L8.32363636,46.414125 L14.27625,45.5245227 L14.27625,47.4827045 L10.955625,47.9788977 L10.955625,51.2190682 L13.4055682,50.8529318 L13.4055682,52.9179886 L10.955625,53.2839545 L10.955625,56.7377045 L14.4180682,56.2202045 L14.4180682,58.1783864 L8.32363636,59.0892955 Z M15.9254318,57.9531989 L15.9254318,45.2780284 L18.5574205,44.8846193 L18.5574205,55.601608 L21.9184432,55.0994489 L21.9184432,57.0574602 L15.9254318,57.9531989 Z M23.5272273,56.8171193 L23.5272273,44.1419489 L26.7665455,43.657858 C28.386375,43.4158125 30.3302386,43.9085966 30.3302386,46.3299034 C30.3302386,47.7538807 29.6012045,48.9664943 27.981375,49.511267 L27.981375,49.546892 C29.7834205,49.6513807 30.6135341,50.6311534 30.6135341,52.2332557 C30.6135341,54.5476875 28.8319432,56.0245057 26.8879091,56.3149602 L23.5272273,56.8171193 Z M26.1590455,45.600017 L26.1590455,48.946892 C27.4752955,48.750358 27.8194432,48.1646761 27.8194432,47.025358 C27.8194432,45.583483 27.4752955,45.3857557 26.1590455,45.600017 Z M26.1590455,50.9050739 L26.1590455,54.572233 C27.7384773,54.3363239 27.981375,53.7482557 27.981375,52.430983 C27.981375,51.273767 27.6575114,50.6631989 26.1590455,50.9050739 Z M31.6973864,51.6608693 L34.0460795,51.309733 C34.0460795,52.0217216 34.0460795,53.2680852 35.1799432,53.0986534 C36.050625,52.9685966 36.3542045,52.2109261 36.3542045,51.6947898 C36.3542045,49.4337102 31.5760227,49.8574602 31.5760227,46.1013239 C31.5760227,44.1961534 32.7502841,42.4721761 34.9776136,42.1392784 C37.3465909,41.7852443 38.2576705,43.2335966 38.3181818,45.5030284 L35.9694886,45.8541648 C35.9694886,45.1420057 35.9694886,43.9493352 34.9165909,44.1066648 C34.2891477,44.2004148 33.9245455,44.7179148 33.9245455,45.4120057 C33.9245455,47.5662102 38.7028977,47.3558693 38.7028977,51.0409261 C38.7028977,52.9815511 37.4475,54.718142 35.0788636,55.0720057 C32.2643182,55.492517 31.6973864,53.4053011 31.6973864,51.6608693 Z M41.4247841,54.1424489 L41.4247841,43.4254602 L39.1570568,43.7643239 L39.1570568,41.806142 L46.3243295,40.7350057 L46.3243295,42.6931875 L44.0566023,43.0320511 L44.0566023,53.7490398 L41.4247841,54.1424489 Z M47.4557727,53.2410682 L47.4557727,40.5660682 L50.0875909,40.1724886 L50.0875909,45.2641364 L51.7481591,45.016125 L51.7481591,39.9244773 L54.3803182,39.5310682 L54.3803182,52.2064091 L51.7481591,52.5996477 L51.7481591,47.2233409 L50.0875909,47.4715227 L50.0875909,52.8476591 L47.4557727,53.2410682 Z M56.4589091,51.8957386 L56.4589091,39.2205682 L59.0910682,38.8269886 L59.0910682,51.5023295 L56.4589091,51.8957386 Z M61.1642216,51.1924432 L61.1642216,38.5172727 L63.7960398,38.1238636 L63.7960398,48.8408523 L67.157233,48.3386932 L67.157233,50.296875 L61.1642216,51.1924432 Z M68.7659318,50.0565341 L68.7659318,37.3813636 L74.6575227,36.5007955 L74.6575227,38.4589773 L71.3979205,38.9461364 L71.3979205,42.3286364 L73.8074659,41.9686364 L73.8074659,44.0335227 L71.3979205,44.3935227 L71.3979205,49.663125 L68.7659318,50.0565341 Z M75.9799432,48.978375 L75.9799432,36.3032045 L82.074375,35.3815568 L82.074375,37.3399091 L78.6119318,37.8679773 L78.6119318,41.1081477 L81.061875,40.7420114 L81.061875,42.8070682 L78.6119318,43.1730341 L78.6119318,46.6267841 L82.074375,46.1092841 L82.074375,48.0676364 L75.9799432,48.978375 Z" />
  <path fill="#829BC7" d="M0,44.5292386 L8.70494318,43.2283295 C13.7398295,42.4759432 18.3548864,38.6511136 18.3548864,32.6567386 C18.3548864,28.5068523 16.2046023,25.9687841 11.536875,25.6982727 L11.536875,25.6060568 C15.7324432,24.195375 17.6210795,21.0544091 17.6210795,17.3654318 C17.6210795,11.0944091 12.5860227,9.81770455 8.39045455,10.4448068 L0,11.6986705 L0,44.5292386 Z M6.81715909,15.4754318 C10.2260795,14.9202614 11.1175568,15.4323068 11.1175568,19.1669659 C11.1175568,22.1183864 10.2260795,23.6349205 6.81715909,24.1444091 L6.81715909,15.4754318 Z M6.81715909,29.216625 C10.6982386,28.5900341 11.536875,30.171 11.536875,33.1682727 C11.536875,36.5806023 10.9078977,38.1036136 6.81715909,38.7148636 L6.81715909,29.216625 Z M31.2002557,39.8697102 L36.4449716,6.25539205 L46.3045739,4.7818125 L50.9194602,36.922892 L44.3641193,37.9024943 L43.367642,30.7659034 L37.8605966,31.588858 L36.9171307,39.015392 L31.2002557,39.8697102 Z M42.7908239,26.0570966 L40.797358,10.676983 L40.6925284,10.6926648 L38.5424148,26.6920398 L42.7908239,26.0570966 Z M81.8937614,11.1726648 L75.8105795,12.0816989 C75.8105795,10.5598807 76.2297273,4.73357386 73.2929659,5.17232386 C71.6148409,5.42323295 70.3560341,6.99448295 70.3560341,17.5539716 C70.3560341,28.3434034 71.5100114,29.4162443 73.6074545,29.1027784 C76.1777386,28.7187443 76.3873977,24.1682898 76.3873977,22.6006193 L73.8699545,22.9768125 L73.8699545,18.1812443 L82.1562614,16.942892 L82.1562614,32.2515852 L79.2713182,32.6826648 L78.3280227,30.656642 C77.278875,32.1965284 75.2862614,33.9240852 72.9256364,34.2767557 C65.6363182,35.3661307 63.2237045,29.4556193 63.2237045,18.6655057 C63.2237045,6.12346023 67.5241023,0.962267045 72.9256364,0.155164773 C77.3317159,-0.503301136 81.8937614,0.659028409 81.8937614,9.05135795 L81.8937614,11.1726648 Z M22.0591364,31.53225 C22.0591364,29.8631591 23.4122045,28.5100909 25.0814659,28.5100909 C26.7505568,28.5100909 28.103625,29.8631591 28.103625,31.53225 C28.103625,33.2015114 26.7505568,34.5544091 25.0814659,34.5544091 C23.4122045,34.5544091 22.0591364,33.2015114 22.0591364,31.53225 Z M53.5052557,26.523392 C53.5052557,24.8543011 54.8581534,23.501233 56.5274148,23.501233 C58.1966761,23.501233 59.5497443,24.8543011 59.5497443,26.523392 C59.5497443,28.192483 58.1966761,29.5455511 56.5274148,29.5455511 C54.8581534,29.5455511 53.5052557,28.192483 53.5052557,26.523392 Z" />
</svg>
