<svg id="Layer_1" data-name="Layer 1" xmlns="http://www.w3.org/2000/svg" viewBox="0 0 377.57 161.32"><defs><style>.cls-1{fill:#1d1d1b;}.cls-2{fill:#0069b4;}.cls-3{fill:#fff;}</style></defs><rect class="cls-1" x="1.94" y="131.28" width="368.5" height="26.52"/><path class="cls-2" d="M19.2,63.25,15.86,80.41H1.69L18,5.3H35.49L50.11,80.41H35.94L32.7,63.25ZM31.37,51.88,28.91,36.17c-.78-4.57-1.78-12-2.45-17.06h-.34c-.78,5-1.89,12.82-2.68,17.17l-2.78,15.6Z"/><path class="cls-2" d="M58.37,6.41A67.31,67.31,0,0,1,73.21,5c9.48,0,16.06,2.23,20.86,6.69,6.47,5.79,9.82,15.71,9.82,30.31,0,15.16-3.91,26-10.49,31.76-5,4.91-12.5,7.25-23,7.25a109.92,109.92,0,0,1-12.05-.78ZM73,68.82a9.74,9.74,0,0,0,2.57.22c7,0,13.16-6.91,13.16-27.64,0-15.38-4-24.74-12.83-24.74A8.17,8.17,0,0,0,73,17Z"/><path class="cls-2" d="M127.76,5.3V35.39h15.29V5.3h14.61V80.41H143.05V49H127.76V80.41H113.15V5.3Z"/><path class="cls-2" d="M168.93,65.48a28.64,28.64,0,0,0,12.39,2.89c6.92,0,10.26-3.56,10.26-8.47,0-5.46-3.34-8.13-9.7-12.25-10.27-6.25-14.17-14.16-14.17-21,0-12,8-22.06,23.76-22.06,4.91,0,9.6,1.33,11.83,2.67L201,19.89a18,18,0,0,0-9.59-2.56c-6.25,0-9.26,3.79-9.26,7.8,0,4.46,2.23,6.8,10.38,11.7,9.93,6,13.61,13.6,13.61,21.51,0,13.71-10.16,22.74-24.88,22.74-6,0-11.94-1.56-14.4-3Z"/><path class="cls-2" d="M2.42,87.7a42.84,42.84,0,0,1,8.2-.75c5.12,0,8.66,1.22,11.25,3.71,3.37,3.18,4.83,8.38,4.83,15.67,0,7.46-1.91,13.36-5.56,16.54-2.65,2.38-6.41,3.59-12.09,3.59A59.43,59.43,0,0,1,2.42,126Zm8.65,31.36a3.92,3.92,0,0,0,1.18.11c3,0,5.46-3.58,5.46-13.24,0-7.24-1.63-11.86-5.4-11.86a3,3,0,0,0-1.24.17Z"/><path class="cls-2" d="M48.12,109.57H39.85v8.79h9.28v7.75h-18v-39H48.51v7.75H39.85v7.29h8.27Z"/><path class="cls-2" d="M62.73,87.13v25c0,5.14,1.35,6.65,2.93,6.65s2.92-1.16,2.92-6.65v-25h8.71V110.5c0,10-3.54,16.08-11.58,16.08-8.88,0-11.69-6.42-11.69-16.2V87.13Z"/><path class="cls-2" d="M87.36,95.46H80.78V87.13H102.7v8.33H96.07v30.65H87.36Z"/><path class="cls-2" d="M105.62,117.21a15,15,0,0,0,6.58,1.5c3.26,0,4.72-1.5,4.72-3.47,0-2.43-1.57-3.53-4.89-5.55-6.12-3.76-7.14-8-7.14-10.94,0-6.42,4-12,12.82-12A13.67,13.67,0,0,1,124,88.17l-1.24,7.69a9.28,9.28,0,0,0-4.94-1.33c-2.93,0-4.33,1.56-4.33,3.35s.78,2.78,5.06,5.27c5.22,3,7,7.12,7,11.11,0,7.34-5.34,12.2-13.33,12.2a18,18,0,0,1-7.64-1.5Z"/><path class="cls-2" d="M148.29,125.59a15.68,15.68,0,0,1-5.79.87c-10.68,0-15-9.08-15-19.2,0-14.41,8.15-20.48,16.08-20.48a11.15,11.15,0,0,1,5.34,1l-1.35,7.52a7.06,7.06,0,0,0-3.26-.75c-4.27,0-7.59,3.58-7.59,12.26,0,8.16,3.09,11.69,7.48,11.69a15.48,15.48,0,0,0,3.37-.47Z"/><path class="cls-2" d="M160.88,87.13v15.15h6.41V87.13H176v39h-8.71v-15.5h-6.41v15.5h-8.71v-39Z"/><path class="cls-2" d="M182.41,87.13h8.71v31.41h9.28v7.57h-18Z"/><path class="cls-2" d="M211.81,118.42l-1.29,7.69h-8.43l8-39h10.56l6.92,39h-8.43l-1.24-7.69Zm5.46-6.88-1-7.41c-.28-2.2-.79-6.42-1.13-8.85h-.11c-.39,2.43-.95,6.77-1.29,8.85l-1.13,7.41Z"/><path class="cls-2" d="M231.49,126.11v-39h7.92l5.34,14c1,2.49,2.76,7.41,3.71,10.42h.11c-.22-3.18-.84-10.76-.84-18.11v-6.3h7.59v39h-7.93L242.28,113a99.92,99.92,0,0,1-3.6-11h-.11c.17,3.36.5,9.84.5,17.47v6.71Z"/><path class="cls-2" d="M261.73,87.7a43,43,0,0,1,8.21-.75c5.11,0,8.65,1.22,11.24,3.71C284.55,93.84,286,99,286,106.33c0,7.46-1.91,13.36-5.56,16.54-2.64,2.38-6.41,3.59-12.09,3.59a59.8,59.8,0,0,1-6.63-.46Zm8.66,31.36a3.88,3.88,0,0,0,1.18.11c3,0,5.45-3.58,5.45-13.24,0-7.24-1.63-11.86-5.4-11.86a2.94,2.94,0,0,0-1.23.17Z"/><path class="cls-2" d="M306.14,115.59c.11,2.6,2.24,4.16,5.56,4.16a18.24,18.24,0,0,0,5.57-.93l1.06,6.37a25.63,25.63,0,0,1-8.2,1.27c-7.93,0-12.37-4.92-12.37-13.88,0-9.72,5.29-15.39,11.8-15.39,6.08,0,10.07,4.28,10.07,13.83a25.69,25.69,0,0,1-.28,4.57Zm5.67-6.19c0-2.78-.45-5.79-2.69-5.79s-3,3.36-3,5.79Z"/><path class="cls-2" d="M328.17,126.58c-2.58,0-4.83-2.26-4.83-5.73s2.36-5.79,4.94-5.79,4.89,2.15,4.89,5.79c0,3.47-2,5.73-4.94,5.73Z"/><path class="cls-2" d="M342.79,126.11l-8.38-39h9.67l2.25,16.19c.56,4.11,1.18,8.51,1.63,12.9h.11c.45-4.45.9-8.79,1.46-13.07l2.14-16h9.61l-8.6,39Z"/><path class="cls-2" d="M366.68,126.58c-2.59,0-4.83-2.26-4.83-5.73s2.36-5.79,4.94-5.79,4.89,2.15,4.89,5.79c0,3.47-2,5.73-4.94,5.73Z"/><path class="cls-3" d="M5.37,151.3a7.87,7.87,0,0,0,3.34.79c2.11,0,3.26-1.14,3.26-2.74s-1.05-2.47-2.82-3.57c-2.4-1.4-4.07-3.35-4.07-5.47,0-3.06,2.28-5.47,6.32-5.47a7.45,7.45,0,0,1,3.23.7L14,138.21a5.19,5.19,0,0,0-2.66-.67c-1.95,0-2.88,1.19-2.88,2.39,0,1.51.86,2.21,3.07,3.49,2.73,1.63,3.82,3.52,3.82,5.61,0,3.52-2.76,5.76-6.63,5.76A8.77,8.77,0,0,1,4.8,154Z"/><path class="cls-3" d="M20.66,148.36c0,3.18,1.66,4,3.49,4a7.46,7.46,0,0,0,2.79-.52l.48,2.24a11.07,11.07,0,0,1-3.91.66c-4,0-6.18-2.64-6.18-7,0-4.68,2.5-7.53,5.83-7.53s4.93,2.7,4.93,6.49a16.23,16.23,0,0,1-.09,1.65Zm4.26-2.21c0-2.26-.8-3.6-2-3.6-1.47,0-2.14,1.95-2.21,3.6Z"/><path class="cls-3" d="M30.56,134.49H34v20.13H30.56Z"/><path class="cls-3" d="M37.29,134.49h3.4V142h.06A3.66,3.66,0,0,1,44,140.22c2.75,0,4.36,2.85,4.36,7,0,5-2.25,7.59-4.94,7.59a3.27,3.27,0,0,1-3.07-2h-.1l-.19,1.75H37.16c0-1.05.13-2.68.13-3.84Zm3.4,15.1a3.18,3.18,0,0,0,.13.9c.44,1.48,1.24,1.8,1.82,1.8,1.67,0,2.31-2,2.31-4.83,0-2.61-.67-4.59-2.31-4.59a2.13,2.13,0,0,0-1.82,1.83,4,4,0,0,0-.13.93Z"/><path class="cls-3" d="M50.65,151.68a5.76,5.76,0,0,0,2.7.76c1.21,0,1.95-.61,1.95-1.63,0-.87-.45-1.46-1.89-2.3-2.31-1.25-3.17-2.62-3.17-4,0-2.45,2-4.25,4.77-4.25a6.58,6.58,0,0,1,3,.7l-.7,2.3a4.24,4.24,0,0,0-2.15-.61c-1.18,0-1.76.69-1.76,1.48s.38,1.19,1.89,2.06c2.08,1.14,3.17,2.54,3.17,4.28,0,2.88-2.21,4.36-5.16,4.36A6.66,6.66,0,0,1,50,154Z"/><path class="cls-3" d="M64.88,136.93v3.52h3v2.27h-3v7.33c0,1.75.74,2.18,1.6,2.18a6,6,0,0,0,1.06-.08l.07,2.41a8.66,8.66,0,0,1-2.25.23,4,4,0,0,1-2.75-.87c-.77-.7-1.16-1.74-1.16-3.84v-7.36H59.6v-2.27h1.85V138Z"/><path class="cls-3" d="M70,134.49h3.42V142h.07a4.33,4.33,0,0,1,1.34-1.22,4.2,4.2,0,0,1,2.09-.52c2.46,0,3.84,1.86,3.84,5.44v9H77.28v-8.84c0-1.55-.35-2.94-1.79-2.94a2.07,2.07,0,0,0-2,1.74,5.7,5.7,0,0,0-.13,1.08v9H70Z"/><path class="cls-3" d="M87.38,136.76a1.73,1.73,0,0,1-1.89,1.77,1.7,1.7,0,0,1-1.77-1.77,1.83,1.83,0,0,1,3.66,0Zm-3.53,17.86V140.45h3.43v14.17Z"/><path class="cls-3" d="M90.42,134.49h3.43v20.13H90.42Z"/><path class="cls-3" d="M97.79,154.62v-11.9h-2v-2.27h2v-.7a5.49,5.49,0,0,1,1.51-4.21,4.88,4.88,0,0,1,3.46-1.28,7.18,7.18,0,0,1,2.27.32l-.45,2.44a3.79,3.79,0,0,0-1.31-.2c-1.57,0-2,1.36-2,2.88v.75H104v2.27h-2.76v11.9Z"/><path class="cls-3" d="M108,148.36c0,3.18,1.66,4,3.49,4a7.46,7.46,0,0,0,2.79-.52l.48,2.24a11.12,11.12,0,0,1-3.91.66c-4,0-6.19-2.64-6.19-7,0-4.68,2.5-7.53,5.83-7.53s4.94,2.7,4.94,6.49a15.48,15.48,0,0,1-.1,1.65Zm4.26-2.21c0-2.26-.8-3.6-2-3.6-1.48,0-2.15,1.95-2.21,3.6Z"/><path class="cls-3" d="M123.62,154.62v-11.9h-2v-2.27h2v-.7a5.49,5.49,0,0,1,1.51-4.21,4.88,4.88,0,0,1,3.46-1.28,7.18,7.18,0,0,1,2.27.32l-.45,2.44a3.79,3.79,0,0,0-1.31-.2c-1.57,0-2,1.36-2,2.88v.75h2.76v2.27h-2.76v11.9Z"/><path class="cls-3" d="M141.82,150.52c0,1.51.07,2.91.13,4.1H139l-.22-1.48h-.07a4.31,4.31,0,0,1-3.49,1.71c-2.85,0-4-1.95-4-5.64v-8.76h3.39v8.38c0,2,.42,3.43,1.83,3.43a1.85,1.85,0,0,0,1.73-1.39,3.4,3.4,0,0,0,.19-1.22v-9.2h3.43ZM134,138.24a1.6,1.6,0,1,1,0-3.2,1.56,1.56,0,0,1,1.67,1.6,1.58,1.58,0,0,1-1.67,1.6Zm5.38,0a1.6,1.6,0,0,1-1.66-1.6,1.63,1.63,0,0,1,1.7-1.6,1.6,1.6,0,1,1,0,3.2Z"/><path class="cls-3" d="M145,144.44c0-1.31-.1-2.77-.13-4h3l.19,2.16h.1a3.63,3.63,0,0,1,3.17-2.39,4.17,4.17,0,0,1,.71.06v3.11a2.51,2.51,0,0,0-.71-.06,3,3,0,0,0-2.76,2.45,5.75,5.75,0,0,0-.12,1.36v7.48H145Z"/><path class="cls-3" d="M172.3,147.06c-.13-2.21-.26-4.89-.23-7H172c-.42,2.15-1,4.5-1.51,6.4l-2.24,8h-2.34l-2.12-7.77a66.47,66.47,0,0,1-1.53-6.6h-.1c0,2.21-.16,4.8-.29,7.12l-.38,7.48h-3L159.93,135h3.62l2.08,7.94c.68,2.53,1.22,4.6,1.64,6.81h.06c.39-2.21.87-4.25,1.51-6.81l2-7.94h3.68l1.28,19.61h-3.11Z"/><path class="cls-3" d="M181.43,148.36c0,3.18,1.67,4,3.49,4a7.38,7.38,0,0,0,2.79-.52l.48,2.24a11,11,0,0,1-3.91.66c-4,0-6.18-2.64-6.18-7,0-4.68,2.5-7.53,5.83-7.53s4.94,2.7,4.94,6.49a15.48,15.48,0,0,1-.1,1.65Zm4.26-2.21c0-2.26-.8-3.6-2-3.6-1.47,0-2.14,1.95-2.21,3.6Z"/><path class="cls-3" d="M191.33,144.44c0-1.6-.06-2.74-.12-4h3l.17,1.66h.06a4.3,4.3,0,0,1,3.69-1.89c2.62,0,4,1.83,4,5.12v9.28h-3.43v-9c0-1.4-.32-2.79-1.83-2.79a2.07,2.07,0,0,0-1.92,1.74,4.66,4.66,0,0,0-.16,1.28v8.76h-3.43Z"/><path class="cls-3" d="M205,151.68a5.76,5.76,0,0,0,2.7.76c1.21,0,1.95-.61,1.95-1.63,0-.87-.45-1.46-1.89-2.3-2.31-1.25-3.17-2.62-3.17-4,0-2.45,2-4.25,4.77-4.25a6.52,6.52,0,0,1,3,.7l-.7,2.3a4.24,4.24,0,0,0-2.15-.61c-1.18,0-1.76.69-1.76,1.48s.38,1.19,1.89,2.06c2.08,1.14,3.17,2.54,3.17,4.28,0,2.88-2.21,4.36-5.16,4.36a6.66,6.66,0,0,1-3.33-.81Z"/><path class="cls-3" d="M223.32,154.33a6.81,6.81,0,0,1-2.63.46c-3.72,0-6.19-2.5-6.19-7.15,0-4.22,2.6-7.39,6.73-7.39a5.77,5.77,0,0,1,2.25.41l-.52,2.47a4.72,4.72,0,0,0-1.66-.32c-2.21,0-3.37,2.18-3.37,4.77,0,2.91,1.29,4.65,3.37,4.65a3.62,3.62,0,0,0,1.66-.32Z"/><path class="cls-3" d="M225.14,134.49h3.43V142h.06a4.48,4.48,0,0,1,1.35-1.22,4.19,4.19,0,0,1,2.08-.52c2.47,0,3.85,1.86,3.85,5.44v9h-3.43v-8.84c0-1.55-.35-2.94-1.79-2.94a2.07,2.07,0,0,0-2,1.74,5,5,0,0,0-.13,1.08v9h-3.43Z"/><path class="cls-3" d="M241.77,148.36c0,3.18,1.67,4,3.5,4a7.36,7.36,0,0,0,2.78-.52l.48,2.24a11,11,0,0,1-3.91.66c-4,0-6.18-2.64-6.18-7,0-4.68,2.5-7.53,5.83-7.53s4.94,2.7,4.94,6.49a15.48,15.48,0,0,1-.1,1.65Zm4.26-2.21c0-2.26-.8-3.6-2-3.6-1.48,0-2.15,1.95-2.21,3.6Z"/><path class="cls-3" d="M251.68,144.44c0-1.6-.07-2.74-.13-4h3l.16,1.66h.06a4.3,4.3,0,0,1,3.69-1.89c2.62,0,4,1.83,4,5.12v9.28H259v-9c0-1.4-.32-2.79-1.82-2.79a2.06,2.06,0,0,0-1.92,1.74,4.25,4.25,0,0,0-.17,1.28v8.76h-3.42Z"/><path class="cls-3" d="M270.65,144.44c0-1.6-.06-2.74-.13-4h3l.19,1.69h.07a4.3,4.3,0,0,1,3.62-1.92,3.32,3.32,0,0,1,3.33,2h.06a5,5,0,0,1,1.57-1.52,4.5,4.5,0,0,1,2.18-.52c2.47,0,3.91,1.74,3.91,5.24v9.16H285V146c0-1.72-.25-3.23-1.79-3.23a2,2,0,0,0-1.89,1.66,5.84,5.84,0,0,0-.1,1.13v9h-3.43v-9.05c0-1.28-.19-2.76-1.72-2.76a2,2,0,0,0-1.89,1.74,3.65,3.65,0,0,0-.17,1.11v9h-3.39Z"/><path class="cls-3" d="M295.1,136.76a1.73,1.73,0,0,1-1.89,1.77,1.69,1.69,0,0,1-1.76-1.77,1.83,1.83,0,0,1,3.65,0Zm-3.53,17.86V140.45H295v14.17Z"/><path class="cls-3" d="M302.24,136.93v3.52h3v2.27h-3v7.33c0,1.75.74,2.18,1.61,2.18a6,6,0,0,0,1-.08l.07,2.41a8.66,8.66,0,0,1-2.25.23,4.05,4.05,0,0,1-2.75-.87c-.77-.7-1.15-1.74-1.15-3.84v-7.36H297v-2.27h1.86V138Z"/><path class="cls-3" d="M315.74,149.5l-1.16,5.12h-3.33L316.06,135h4l4.46,19.61h-3.34L320,149.5Zm3.93-2.41-.89-4.51c-.26-1.28-.55-3.09-.8-4.46h-.1c-.22,1.37-.54,3.23-.8,4.46l-1,4.51Z"/><path class="cls-3" d="M327.05,135.3a17.89,17.89,0,0,1,3.84-.38,8.39,8.39,0,0,1,5.58,1.63c1.76,1.43,2.85,4,2.85,7.92,0,4.22-1.15,6.83-2.82,8.29-1.44,1.34-3.52,2-6.31,2a27.77,27.77,0,0,1-3.14-.21Zm3.39,16.85a4.3,4.3,0,0,0,.84.06c2.34,0,4.52-1.81,4.52-7.77,0-4.45-1.41-7-4.36-7a6.14,6.14,0,0,0-1,.08Z"/><path class="cls-3" d="M345.54,135v8.12h5.12V135h3.43v19.61h-3.43V146h-5.12v8.64h-3.43V135Z"/><path class="cls-3" d="M357.4,151.3a7.86,7.86,0,0,0,3.33.79c2.11,0,3.27-1.14,3.27-2.74s-1.06-2.47-2.82-3.57c-2.41-1.4-4.07-3.35-4.07-5.47,0-3.06,2.27-5.47,6.31-5.47a7.5,7.5,0,0,1,3.24.7l-.65,2.67a5.18,5.18,0,0,0-2.65-.67c-2,0-2.89,1.19-2.89,2.39,0,1.51.87,2.21,3.08,3.49,2.72,1.63,3.81,3.52,3.81,5.61,0,3.52-2.76,5.76-6.63,5.76a8.77,8.77,0,0,1-3.91-.81Z"/></svg>