<svg xmlns="http://www.w3.org/2000/svg" viewBox="0 0 170.08 65.16"><path stroke-width="0" fill="#cecfcf" d="M0 41.08h170.08v9.34H0z"/><path stroke-width="0" fill="#1a1a18" d="M12.86 1.65c-.2-.34-.48-.55-.92-.55s-.87.32-.94.75c-.18 1.13 2.55.66 2.2 2.9-.21 1.34-1.2 2.29-2.57 2.29-.92 0-1.51-.53-1.85-1.3l.97-.83c.1.52.49.98 1.05.98s.93-.45 1.01-.97c.11-.69-.5-.89-.99-1.09-.81-.35-1.37-.79-1.2-1.83C9.8.89 10.76-.01 11.89-.01c.6 0 1.37.29 1.71.75l-.76.91ZM20.19 7.05c-2.04 0-3.07-1.56-2.75-3.53C17.76 1.53 19.31 0 21.31 0s3.07 1.53 2.76 3.52c-.31 1.97-1.83 3.53-3.87 3.53Zm.91-5.76c-1.23 0-2.14 1.09-2.31 2.18-.16 1.03.15 2.3 1.6 2.3s2.16-1.27 2.33-2.3c.17-1.08-.38-2.18-1.62-2.18ZM32.45 5.74l-.18 1.14h-4.86l3.83-5.56h-2.5l.18-1.14h4.56l-3.82 5.56h2.78ZM37.94 6.87h-1.31l1.06-6.7H39l-1.06 6.7ZM44.16 5.46l-.77 1.41h-1.38L45.71 0h1.01l1.45 6.87h-1.39l-.29-1.41h-2.33Zm1.68-3.5h-.02L44.7 4.39h1.59l-.45-2.43ZM53.73 5.74h1.85l-.18 1.14h-3.15l1.06-6.7h1.31l-.88 5.56ZM62.31 4.69h.02L64.54.18h1.4l-3.69 6.87h-.76L60.02.18h1.4l.89 4.51ZM71.1 1.31l-.23 1.47h2.08l-.18 1.14h-2.08l-.29 1.81h2.16l-.18 1.14h-3.46l1.06-6.7h3.46l-.18 1.14H71.1ZM81.45 6.87h-1.58l-1.2-2.7h-.02l-.43 2.7h-1.3l1.06-6.7h1.77c1.32 0 2.15.59 1.92 2.01-.13.85-.74 1.7-1.66 1.86l1.44 2.82ZM78.8 3.26h.17c.72 0 1.26-.21 1.39-1.03.13-.83-.37-.99-1.06-.99h-.18l-.32 2.02ZM86.62.18h1.62c1.24 0 1.93.49 1.72 1.82-.08.48-.33 1.03-.79 1.3.77.14 1 .94.88 1.68-.21 1.31-1.22 1.9-2.44 1.9h-2.05l1.06-6.7Zm.41 5.65h.28c.7 0 1.32-.09 1.46-.96.14-.87-.57-.91-1.22-.91h-.21l-.3 1.86Zm.45-2.86h.16c.64 0 .98-.19 1.09-.88.11-.68-.25-.86-.81-.86h-.17l-.28 1.74ZM95.73 5.46l-.77 1.41h-1.38L97.28 0h1.01l1.45 6.87h-1.39l-.29-1.41h-2.33Zm1.68-3.5h-.02l-1.12 2.43h1.59l-.45-2.43ZM104.91 0h.94l2.79 4.68h.02l.71-4.5h1.3l-1.08 6.83h-.94l-2.78-4.68h-.02l-.72 4.55h-1.31l1.09-6.87ZM115.3.18h1.87c1.94 0 3 1.45 2.7 3.36-.3 1.88-1.86 3.34-3.77 3.34h-1.86l1.06-6.7Zm.42 5.56h.21c1.61 0 2.37-.89 2.58-2.21.23-1.46-.4-2.21-1.88-2.21h-.21l-.7 4.42Z"/><path stroke-width="0" fill="#f8d200" d="M168.79 64.88h-6.77l1.27-6.76h6.77l-1.27 6.76z"/><path stroke-width="0" fill="#e2000f" d="M160 64.88h-6.76l1.26-6.76h6.77L160 64.88z"/><path stroke-width="0" fill="#1a1a18" d="M151.32 64.88h-6.77l1.19-6.76h6.77l-1.19 6.76z"/><path stroke-width="0" fill="#0067b0" d="M9.05 14.85h13.91v16.01l8.4-16.01h15.22L32.84 40.9l-2.9 5.49H9.05V14.85zM95.6 14.85l-2.53 9.46 9.26-9.46h16.88l-15.34 16.69 6.73 14.85H95.23L90.1 35.41l-2.99 10.98H73.27l8.5-31.54H95.6zM65.28 14.88l-1.26 4.61c-.21.77-.41 1.55-.58 2.32 0 0-2.8-2.9-8.21-2.77-6.3.16-13.18 5.91-15.49 14.38-2.4 8.78 1.09 14.19 7.92 14.19 4.99 0 10.36-3.42 10.36-3.42l-.66 2.43h13.18l8.68-31.74H65.28Zm-4.71 18.69c-.64 2.34-2.57 3.9-4.71 3.9s-3.22-1.56-2.58-3.9c.64-2.34 2.54-3.79 4.68-3.79s3.23 1.51 2.61 3.79Z"/><path stroke-width="0" fill="#1a1a18" d="M10.11 58.18h1.26c1 0 1.8.13 2.48.81.66.66.86 1.55.71 2.55-.15.98-.65 1.84-1.49 2.49-.91.71-1.73.84-2.78.84H9.05l1.06-6.7Zm.34 6c.82 0 1.52-.12 2.22-.69.63-.51 1.03-1.22 1.15-1.96.12-.76-.06-1.5-.55-2.01-.53-.54-1.18-.65-1.98-.65h-.54l-.84 5.31h.54ZM16.13 58.18h3.47l-.11.69h-2.73l-.32 1.99h2.65l-.11.69h-2.65l-.42 2.63h2.73l-.11.69h-3.47l1.06-6.7ZM20.97 62.16c-.08.5-.19 1.07.06 1.49.23.41.76.64 1.25.64s1.04-.22 1.41-.6c.42-.43.49-1.01.57-1.54l.63-3.99h.75l-.66 4.19c-.11.73-.26 1.31-.88 1.86-.54.5-1.25.76-1.92.76-.63 0-1.24-.24-1.62-.68-.5-.56-.47-1.17-.35-1.94l.66-4.19h.75l-.63 3.99ZM27.67 64.87h-.75l.95-6h-1.62l.11-.69h4l-.11.69h-1.63l-.95 6ZM33.96 59.48c-.19-.46-.47-.73-1.04-.73s-1.18.43-1.27 1.04c-.09.58.46.84.88 1.05l.41.2c.81.38 1.48.82 1.31 1.88-.19 1.17-1.27 2.07-2.43 2.07-1.07 0-1.76-.69-1.81-1.73l.76-.2c-.01.68.42 1.24 1.14 1.24s1.46-.55 1.58-1.31c.12-.78-.45-1.05-1.02-1.33l-.38-.18c-.73-.36-1.34-.76-1.19-1.71.16-1.04 1.15-1.71 2.14-1.71.75 0 1.32.38 1.57 1.04l-.66.38ZM40.97 59.64c-.45-.55-1.13-.89-1.9-.89-1.49 0-2.91 1.3-3.14 2.77-.23 1.47.78 2.77 2.28 2.77.75 0 1.55-.36 2.17-.89l-.15.92c-.64.42-1.39.66-2.1.66-1.89 0-3.25-1.54-2.95-3.44.3-1.92 2.12-3.49 4.04-3.49.75 0 1.37.21 1.89.66l-.15.92ZM46.24 60.89l.43-2.72h.75l-1.06 6.7h-.75l.52-3.29H42.7l-.52 3.29h-.75l1.06-6.7h.75l-.43 2.72h3.43ZM48.6 64.18h1.85l-.11.69h-2.59l1.06-6.7h.75l-.95 6ZM53.06 62.95l-1.11 1.9h-.82l4.2-7.02 1.9 7.02h-.83l-.49-1.9h-2.86Zm1.98-3.37-1.57 2.68h2.26l-.69-2.68ZM59.12 57.87l4.36 5.47.82-5.19h.75l-1.11 7-4.36-5.46-.82 5.16h-.75l1.11-6.98ZM66.43 58.16h1.26c1 0 1.8.13 2.48.81.66.66.86 1.55.71 2.55-.16.98-.65 1.84-1.49 2.49-.91.71-1.73.84-2.78.84h-1.24l1.06-6.7Zm.34 6c.82 0 1.52-.12 2.22-.69.63-.51 1.03-1.22 1.15-1.96.12-.76-.05-1.5-.55-2.01-.53-.54-1.19-.65-1.98-.65h-.54l-.84 5.31h.54Z"/></svg>
