<?xml version="1.0" encoding="UTF-8"?> <svg xmlns="http://www.w3.org/2000/svg" xmlns:xlink="http://www.w3.org/1999/xlink" width="441px" height="86px" viewBox="0 0 441 86" version="1.1"><title>SD Krebs Logo 2-farbig</title><g id="Page-1" stroke="none" stroke-width="1" fill="none" fill-rule="evenodd"><g id="Wissensbereich-–-Artikelansicht-+-Diskussion-offen" transform="translate(-370.000000, -23.000000)" fill-rule="nonzero"><g id="SD-Krebs-Logo-2-farbig" transform="translate(370.000000, 23.000000)"><g id="Group" transform="translate(92.026144, 21.856209)" fill="#025A8B"><path d="M5.29150327,17.0823529 C4.48627451,17.0823529 3.68104575,17.0823529 2.87581699,17.0248366 C2.07058824,16.9673203 1.26535948,16.8522876 0.402614379,16.6797386 L0.402614379,2.12810458 C1.09281046,2.0130719 1.84052288,1.89803922 2.64575163,1.84052288 C3.45098039,1.78300654 4.19869281,1.7254902 4.88888889,1.7254902 C5.80915033,1.7254902 6.67189542,1.78300654 7.47712418,1.95555556 C8.28235294,2.07058824 8.91503268,2.30065359 9.49019608,2.64575163 C10.0653595,2.99084967 10.5254902,3.39346405 10.8130719,3.96862745 C11.1581699,4.48627451 11.2732026,5.17647059 11.2732026,5.98169935 C11.2732026,7.18954248 10.6980392,8.10980392 9.54771242,8.8 C10.4679739,9.14509804 11.1006536,9.6627451 11.4457516,10.2954248 C11.7908497,10.9281046 11.9633987,11.6183007 11.9633987,12.4235294 C11.9633987,13.9764706 11.3882353,15.1843137 10.2954248,15.9895425 C9.20261438,16.7372549 7.53464052,17.0823529 5.29150327,17.0823529 Z M3.62352941,7.76470588 L5.23398693,7.76470588 C6.26928105,7.76470588 6.95947712,7.6496732 7.41960784,7.3620915 C7.87973856,7.0745098 8.05228758,6.67189542 8.05228758,6.09673203 C8.05228758,5.46405229 7.82222222,5.06143791 7.3620915,4.83137255 C6.90196078,4.60130719 6.26928105,4.48627451 5.34901961,4.48627451 C5.06143791,4.48627451 4.77385621,4.48627451 4.42875817,4.48627451 C4.08366013,4.48627451 3.79607843,4.48627451 3.56601307,4.54379085 L3.56601307,7.76470588 L3.62352941,7.76470588 Z M3.62352941,10.3529412 L3.62352941,14.2065359 C3.85359477,14.2640523 4.14117647,14.2640523 4.42875817,14.2640523 C4.71633987,14.2640523 5.00392157,14.2640523 5.34901961,14.2640523 C6.32679739,14.2640523 7.13202614,14.0915033 7.76470588,13.8039216 C8.39738562,13.5163399 8.68496732,12.9986928 8.68496732,12.1934641 C8.68496732,11.503268 8.45490196,10.9856209 7.9372549,10.6980392 C7.41960784,10.4104575 6.67189542,10.2379085 5.75163399,10.2379085 L3.62352941,10.2379085 L3.62352941,10.3529412 Z" id="Shape"></path><path d="M23.9843137,16.5071895 C23.4666667,16.6797386 22.7764706,16.7947712 21.9137255,16.9673203 C21.0509804,17.1398693 20.1882353,17.1973856 19.2104575,17.1973856 C18.2901961,17.1973856 17.4849673,17.0823529 16.8522876,16.7947712 C16.2196078,16.5071895 15.7019608,16.1620915 15.3568627,15.7019608 C15.0117647,15.2418301 14.724183,14.6666667 14.551634,14.0339869 C14.379085,13.4013072 14.3215686,12.6535948 14.3215686,11.9058824 L14.3215686,5.57908497 L17.4849673,5.57908497 L17.4849673,11.5607843 C17.4849673,12.5960784 17.6,13.3437908 17.8875817,13.8039216 C18.1751634,14.2640523 18.6352941,14.4941176 19.3830065,14.4941176 C19.6130719,14.4941176 19.8431373,14.4941176 20.130719,14.4366013 C20.3607843,14.4366013 20.5908497,14.379085 20.820915,14.379085 L20.820915,5.52156863 L23.9843137,5.52156863 L23.9843137,16.5071895 Z" id="Path"></path><path d="M26.9751634,5.92418301 C27.4928105,5.75163399 28.1830065,5.63660131 29.0457516,5.46405229 C29.9084967,5.34901961 30.7712418,5.23398693 31.7490196,5.23398693 C32.669281,5.23398693 33.4745098,5.34901961 34.1071895,5.63660131 C34.7398693,5.86666667 35.2575163,6.26928105 35.6026144,6.72941176 C35.9477124,7.18954248 36.2352941,7.76470588 36.4078431,8.39738562 C36.5803922,9.03006536 36.6379085,9.72026144 36.6379085,10.5254902 L36.6379085,16.9673203 L33.4745098,16.9673203 L33.4745098,10.8705882 C33.4745098,9.83529412 33.3594771,9.0875817 33.0718954,8.68496732 C32.7843137,8.2248366 32.324183,8.05228758 31.5764706,8.05228758 C31.3464052,8.05228758 31.1163399,8.05228758 30.8287582,8.10980392 C30.5986928,8.10980392 30.3686275,8.16732026 30.1385621,8.16732026 L30.1385621,16.9673203 L26.9751634,16.9673203 L26.9751634,5.92418301 Z" id="Path"></path><path d="M49.3490196,16.5647059 C49.0614379,16.6797386 48.7163399,16.7372549 48.3712418,16.7947712 C48.0261438,16.8522876 47.6235294,16.9673203 47.220915,17.0248366 C46.8183007,17.0823529 46.4156863,17.1398693 46.0130719,17.1398693 C45.6104575,17.1973856 45.2078431,17.1973856 44.8052288,17.1973856 C43.8849673,17.1973856 43.0797386,17.0823529 42.3320261,16.7947712 C41.5843137,16.5071895 41.0091503,16.1045752 40.4915033,15.5869281 C39.9738562,15.069281 39.6287582,14.4366013 39.3411765,13.7464052 C39.0535948,12.9986928 38.9385621,12.1934641 38.9385621,11.2732026 C38.9385621,10.3529412 39.0535948,9.49019608 39.2836601,8.74248366 C39.5137255,7.99477124 39.8588235,7.3620915 40.2614379,6.84444444 C40.6640523,6.32679739 41.1816993,5.92418301 41.8143791,5.63660131 C42.4470588,5.34901961 43.1372549,5.23398693 43.9424837,5.23398693 C44.4026144,5.23398693 44.7477124,5.29150327 45.0928105,5.34901961 C45.4379085,5.46405229 45.7830065,5.57908497 46.1281046,5.69411765 L46.1281046,0.517647059 L49.2915033,8.1735635e-15 L49.2915033,16.5647059 L49.3490196,16.5647059 Z M42.1594771,11.1006536 C42.1594771,12.0784314 42.3895425,12.8836601 42.7921569,13.5163399 C43.2522876,14.1490196 43.8849673,14.4366013 44.7477124,14.4366013 C45.0352941,14.4366013 45.2653595,14.4366013 45.5529412,14.379085 C45.7830065,14.379085 46.0130719,14.3215686 46.1281046,14.3215686 L46.1281046,8.45490196 C45.9555556,8.33986928 45.6679739,8.2248366 45.3803922,8.10980392 C45.0352941,7.99477124 44.7477124,7.99477124 44.4026144,7.99477124 C42.9071895,7.99477124 42.1594771,9.03006536 42.1594771,11.1006536 Z" id="Shape"></path><path d="M51.7647059,11.2732026 C51.7647059,10.2379085 51.9372549,9.3751634 52.2248366,8.62745098 C52.5124183,7.87973856 52.9150327,7.24705882 53.4326797,6.72941176 C53.9503268,6.21176471 54.5254902,5.86666667 55.1581699,5.57908497 C55.7908497,5.29150327 56.4810458,5.17647059 57.1712418,5.17647059 C58.7816993,5.17647059 59.9895425,5.69411765 60.9098039,6.67189542 C61.8300654,7.6496732 62.2901961,9.14509804 62.2901961,11.0431373 C62.2901961,11.2156863 62.2901961,11.4457516 62.2901961,11.675817 C62.2901961,11.9058824 62.2901961,12.0784314 62.2326797,12.2509804 L55.0431373,12.2509804 C55.1006536,12.9411765 55.4457516,13.4588235 55.9633987,13.8614379 C56.4810458,14.2640523 57.2287582,14.4366013 58.1490196,14.4366013 C58.724183,14.4366013 59.2993464,14.379085 59.8745098,14.2640523 C60.4496732,14.1490196 60.9098039,14.0339869 61.254902,13.8614379 L61.6575163,16.5071895 C61.4849673,16.6222222 61.254902,16.6797386 60.9673203,16.7947712 C60.6797386,16.9098039 60.3921569,16.9673203 60.0470588,17.0248366 C59.7019608,17.0823529 59.3568627,17.1398693 58.9542484,17.1973856 C58.551634,17.254902 58.1490196,17.254902 57.7464052,17.254902 C56.7686275,17.254902 55.848366,17.0823529 55.1006536,16.7947712 C54.3529412,16.5071895 53.7202614,16.1045752 53.2601307,15.5294118 C52.8,15.0117647 52.3973856,14.379085 52.1673203,13.6313725 C51.8797386,12.9411765 51.7647059,12.1359477 51.7647059,11.2732026 Z M59.1843137,10.0653595 C59.1843137,9.77777778 59.1267974,9.54771242 59.069281,9.26013072 C59.0117647,8.97254902 58.896732,8.74248366 58.724183,8.56993464 C58.551634,8.33986928 58.379085,8.2248366 58.0915033,8.05228758 C57.8614379,7.9372549 57.5163399,7.87973856 57.1712418,7.87973856 C56.8261438,7.87973856 56.5385621,7.9372549 56.2509804,8.05228758 C56.020915,8.16732026 55.7908497,8.33986928 55.6183007,8.5124183 C55.4457516,8.74248366 55.330719,8.97254902 55.2156863,9.20261438 C55.1006536,9.49019608 55.0431373,9.72026144 54.9856209,10.0078431 L59.1843137,10.0078431 L59.1843137,10.0653595 Z" id="Shape"></path><path d="M67.9267974,14.6091503 C68.5019608,14.6091503 68.9045752,14.551634 69.1346405,14.4366013 C69.3647059,14.3215686 69.4797386,14.0915033 69.4797386,13.7464052 C69.4797386,13.4588235 69.3071895,13.2862745 69.0196078,13.0562092 C68.7320261,12.8836601 68.2143791,12.6535948 67.5816993,12.4235294 C67.0640523,12.2509804 66.6614379,12.020915 66.2588235,11.848366 C65.8562092,11.6183007 65.5111111,11.3882353 65.2235294,11.1006536 C64.9359477,10.8130719 64.7058824,10.4679739 64.5908497,10.0653595 C64.4183007,9.6627451 64.3607843,9.20261438 64.3607843,8.68496732 C64.3607843,7.59215686 64.7633987,6.7869281 65.5111111,6.15424837 C66.3163399,5.52156863 67.351634,5.23398693 68.7320261,5.23398693 C69.4222222,5.23398693 70.054902,5.29150327 70.6875817,5.40653595 C71.3202614,5.52156863 71.7803922,5.63660131 72.1830065,5.80915033 L71.6078431,8.33986928 C71.2627451,8.2248366 70.8601307,8.10980392 70.4,7.99477124 C69.9398693,7.87973856 69.4797386,7.82222222 68.9620915,7.82222222 C67.9843137,7.82222222 67.4666667,8.10980392 67.4666667,8.68496732 C67.4666667,8.8 67.4666667,8.91503268 67.524183,9.03006536 C67.5816993,9.14509804 67.6392157,9.20261438 67.7542484,9.31764706 C67.869281,9.43267974 68.0418301,9.49019608 68.2718954,9.60522876 C68.5019608,9.72026144 68.7895425,9.83529412 69.1346405,9.9503268 C69.8248366,10.2379085 70.4,10.4679739 70.8601307,10.6980392 C71.3202614,10.9281046 71.6653595,11.2156863 71.9529412,11.503268 C72.2405229,11.7908497 72.4130719,12.1359477 72.5281046,12.4810458 C72.6431373,12.8261438 72.7006536,13.2862745 72.7006536,13.7464052 C72.7006536,14.896732 72.2980392,15.7019608 71.4352941,16.2771242 C70.6300654,16.8522876 69.4222222,17.1398693 67.9267974,17.1398693 C66.9490196,17.1398693 66.0862745,17.0248366 65.4535948,16.8522876 C64.820915,16.6797386 64.3607843,16.5071895 64.0732026,16.3921569 L64.5908497,13.7464052 C65.1084967,13.9764706 65.6836601,14.1490196 66.2588235,14.2640523 C66.7764706,14.551634 67.351634,14.6091503 67.9267974,14.6091503 Z" id="Path"></path><path d="M78.0496732,16.9098039 C77.3019608,15.4718954 76.6117647,13.7464052 75.8640523,11.848366 C75.1163399,9.9503268 74.4261438,7.82222222 73.7359477,5.52156863 L77.0718954,5.52156863 C77.1869281,6.09673203 77.3594771,6.67189542 77.5895425,7.3620915 C77.7620915,7.99477124 77.9921569,8.68496732 78.1647059,9.3751634 C78.3947712,10.0653595 78.5673203,10.6980392 78.7973856,11.330719 C79.027451,11.9633987 79.2,12.5385621 79.4300654,13.0562092 C79.6026144,12.5385621 79.8326797,11.9633987 80.0052288,11.330719 C80.2352941,10.6980392 80.4078431,10.0653595 80.6379085,9.3751634 C80.8679739,8.68496732 81.0405229,8.05228758 81.2130719,7.3620915 C81.3856209,6.72941176 81.5581699,6.09673203 81.730719,5.52156863 L85.0091503,5.52156863 C84.3189542,7.82222222 83.6287582,9.89281046 82.8810458,11.848366 C82.1333333,13.8039216 81.3856209,15.4718954 80.6954248,16.9098039 L78.0496732,16.9098039 Z" id="Path"></path></g><g id="Group" transform="translate(177.725490, 21.856209)" fill="#025A8B"><path d="M0.17254902,11.2732026 C0.17254902,10.2379085 0.345098039,9.3751634 0.632679739,8.62745098 C0.920261438,7.87973856 1.32287582,7.24705882 1.84052288,6.72941176 C2.35816993,6.21176471 2.93333333,5.86666667 3.56601307,5.57908497 C4.19869281,5.29150327 4.88888889,5.17647059 5.57908497,5.17647059 C7.18954248,5.17647059 8.39738562,5.69411765 9.31764706,6.67189542 C10.2379085,7.6496732 10.6980392,9.14509804 10.6980392,11.0431373 C10.6980392,11.2156863 10.6980392,11.4457516 10.6980392,11.675817 C10.6980392,11.9058824 10.6980392,12.0784314 10.6405229,12.2509804 L3.45098039,12.2509804 C3.50849673,12.9411765 3.85359477,13.4588235 4.37124183,13.8614379 C4.88888889,14.2640523 5.63660131,14.4366013 6.55686275,14.4366013 C7.13202614,14.4366013 7.70718954,14.379085 8.28235294,14.2640523 C8.85751634,14.1490196 9.31764706,14.0339869 9.6627451,13.8614379 L10.0653595,16.5071895 C9.89281046,16.6222222 9.6627451,16.6797386 9.3751634,16.7947712 C9.0875817,16.9098039 8.8,16.9673203 8.45490196,17.0248366 C8.10980392,17.0823529 7.76470588,17.1398693 7.3620915,17.1973856 C6.95947712,17.254902 6.55686275,17.254902 6.15424837,17.254902 C5.17647059,17.254902 4.25620915,17.0823529 3.50849673,16.7947712 C2.76078431,16.5071895 2.12810458,16.1045752 1.66797386,15.5294118 C1.20784314,15.0117647 0.805228758,14.379085 0.575163399,13.6313725 C0.287581699,12.9411765 0.17254902,12.1359477 0.17254902,11.2732026 Z M7.59215686,10.0653595 C7.59215686,9.77777778 7.53464052,9.54771242 7.47712418,9.26013072 C7.41960784,8.97254902 7.30457516,8.74248366 7.13202614,8.56993464 C6.95947712,8.33986928 6.7869281,8.2248366 6.49934641,8.05228758 C6.26928105,7.9372549 5.92418301,7.87973856 5.57908497,7.87973856 C5.23398693,7.87973856 4.94640523,7.9372549 4.65882353,8.05228758 C4.42875817,8.16732026 4.19869281,8.33986928 4.02614379,8.5124183 C3.85359477,8.74248366 3.73856209,8.97254902 3.62352941,9.20261438 C3.50849673,9.49019608 3.45098039,9.72026144 3.39346405,10.0078431 L7.59215686,10.0078431 L7.59215686,10.0653595 Z" id="Shape"></path><path d="M19.8431373,8.39738562 C19.5555556,8.33986928 19.2104575,8.2248366 18.8653595,8.16732026 C18.4627451,8.10980392 18.0601307,8.05228758 17.6575163,8.05228758 C17.4849673,8.05228758 17.1973856,8.05228758 16.9673203,8.10980392 C16.6797386,8.16732026 16.5071895,8.16732026 16.3346405,8.2248366 L16.3346405,16.9098039 L13.1712418,16.9098039 L13.1712418,6.09673203 C13.7464052,5.86666667 14.379085,5.69411765 15.1843137,5.52156863 C15.9320261,5.34901961 16.7947712,5.23398693 17.772549,5.23398693 C17.945098,5.23398693 18.1751634,5.23398693 18.4052288,5.29150327 C18.6352941,5.29150327 18.8653595,5.34901961 19.1529412,5.40653595 C19.3830065,5.46405229 19.6130719,5.46405229 19.9006536,5.52156863 C20.130719,5.57908497 20.3607843,5.63660131 20.5333333,5.69411765 L19.8431373,8.39738562 Z" id="Path"></path><path d="M32.4392157,11.2156863 C32.4392157,12.1359477 32.324183,12.9411765 32.0366013,13.6888889 C31.7490196,14.4366013 31.4039216,15.069281 30.8862745,15.5869281 C30.3686275,16.1045752 29.7934641,16.5071895 29.0457516,16.7947712 C28.2980392,17.0823529 27.4928105,17.1973856 26.572549,17.1973856 C26.1699346,17.1973856 25.7673203,17.1973856 25.3647059,17.1398693 C24.9620915,17.0823529 24.5594771,17.0823529 24.1568627,17.0248366 C23.7542484,16.9673203 23.351634,16.9098039 23.0065359,16.7947712 C22.6614379,16.7372549 22.3163399,16.6222222 22.0287582,16.5647059 L22.0287582,0.632679739 L25.1921569,0.11503268 L25.1921569,5.75163399 C25.5372549,5.57908497 25.9398693,5.46405229 26.2849673,5.40653595 C26.6875817,5.29150327 27.0901961,5.29150327 27.4928105,5.29150327 C28.2980392,5.29150327 28.9882353,5.40653595 29.620915,5.69411765 C30.2535948,5.98169935 30.7137255,6.38431373 31.1738562,6.90196078 C31.5764706,7.41960784 31.9215686,8.05228758 32.0941176,8.8 C32.324183,9.49019608 32.4392157,10.2954248 32.4392157,11.2156863 Z M29.2183007,11.1006536 C29.2183007,9.03006536 28.4705882,7.99477124 26.9751634,7.99477124 C26.6300654,7.99477124 26.3424837,8.05228758 25.9973856,8.10980392 C25.6522876,8.2248366 25.4222222,8.28235294 25.2496732,8.45490196 L25.2496732,14.3215686 C25.4222222,14.379085 25.5947712,14.379085 25.8248366,14.379085 C26.054902,14.379085 26.3424837,14.4366013 26.6300654,14.4366013 C27.4928105,14.4366013 28.1254902,14.1490196 28.5856209,13.5163399 C28.9882353,12.9411765 29.2183007,12.1359477 29.2183007,11.1006536 Z" id="Shape"></path><path d="M38.8810458,5.23398693 C39.8013072,5.23398693 40.6065359,5.34901961 41.2392157,5.57908497 C41.8718954,5.80915033 42.3895425,6.09673203 42.7346405,6.49934641 C43.1372549,6.90196078 43.3673203,7.41960784 43.5398693,7.99477124 C43.7124183,8.56993464 43.7699346,9.20261438 43.7699346,9.9503268 L43.7699346,16.6797386 C43.3098039,16.7947712 42.6771242,16.9098039 41.8718954,17.0248366 C41.0666667,17.1398693 40.0888889,17.254902 38.9385621,17.254902 C38.1908497,17.254902 37.5581699,17.1973856 36.9830065,17.0823529 C36.4078431,16.9673203 35.8901961,16.7372549 35.4875817,16.4496732 C35.0849673,16.1620915 34.7398693,15.7594771 34.5098039,15.2993464 C34.2797386,14.8392157 34.1647059,14.2640523 34.1647059,13.5163399 C34.1647059,12.8261438 34.2797386,12.3084967 34.5673203,11.848366 C34.854902,11.3882353 35.2,11.0431373 35.6026144,10.7555556 C36.0627451,10.4679739 36.5228758,10.2954248 37.0980392,10.1803922 C37.6732026,10.0653595 38.248366,10.0078431 38.8810458,10.0078431 C39.2836601,10.0078431 39.6287582,10.0078431 39.9738562,10.0653595 C40.3189542,10.1228758 40.5490196,10.1228758 40.7215686,10.1803922 L40.7215686,9.89281046 C40.7215686,9.31764706 40.5490196,8.91503268 40.2614379,8.56993464 C39.9163399,8.2248366 39.3411765,8.05228758 38.5359477,8.05228758 C38.0183007,8.05228758 37.4431373,8.10980392 36.9254902,8.16732026 C36.4078431,8.2248366 35.9477124,8.33986928 35.545098,8.5124183 L35.1424837,5.92418301 C35.3150327,5.86666667 35.545098,5.80915033 35.8326797,5.75163399 C36.1202614,5.69411765 36.4078431,5.63660131 36.7529412,5.57908497 C37.0980392,5.52156863 37.4431373,5.46405229 37.7882353,5.46405229 C38.1908497,5.23398693 38.5359477,5.23398693 38.8810458,5.23398693 Z M39.1686275,14.6666667 C39.4562092,14.6666667 39.8013072,14.6666667 40.0888889,14.6666667 C40.3764706,14.6666667 40.6065359,14.6091503 40.779085,14.6091503 L40.779085,12.1359477 C40.6640523,12.0784314 40.4339869,12.0784314 40.2039216,12.020915 C39.9738562,12.020915 39.7437908,11.9633987 39.5137255,11.9633987 C39.2261438,11.9633987 38.9385621,11.9633987 38.6509804,12.020915 C38.3633987,12.0784314 38.1333333,12.1359477 37.9607843,12.2509804 C37.7882353,12.3660131 37.6156863,12.4810458 37.5006536,12.6535948 C37.3856209,12.8261438 37.3281046,13.0562092 37.3281046,13.2862745 C37.3281046,13.8039216 37.5006536,14.1490196 37.8457516,14.3215686 C38.1333333,14.551634 38.5934641,14.6666667 39.1686275,14.6666667 Z" id="Shape"></path><path d="M46.6457516,5.92418301 C47.1633987,5.75163399 47.8535948,5.63660131 48.7163399,5.46405229 C49.579085,5.34901961 50.4418301,5.23398693 51.4196078,5.23398693 C52.3398693,5.23398693 53.145098,5.34901961 53.7777778,5.63660131 C54.4104575,5.86666667 54.9281046,6.26928105 55.2732026,6.72941176 C55.6183007,7.18954248 55.9058824,7.76470588 56.0784314,8.39738562 C56.2509804,9.03006536 56.3084967,9.72026144 56.3084967,10.5254902 L56.3084967,16.9673203 L53.145098,16.9673203 L53.145098,10.8705882 C53.145098,9.83529412 53.0300654,9.0875817 52.7424837,8.68496732 C52.454902,8.2248366 51.9947712,8.05228758 51.2470588,8.05228758 C51.0169935,8.05228758 50.7869281,8.05228758 50.4993464,8.10980392 C50.269281,8.10980392 50.0392157,8.16732026 49.8091503,8.16732026 L49.8091503,16.9673203 L46.6457516,16.9673203 L46.6457516,5.92418301 Z" id="Path"></path><path d="M68.9620915,16.5647059 C68.6745098,16.6797386 68.3294118,16.7372549 67.9843137,16.7947712 C67.6392157,16.8522876 67.2366013,16.9673203 66.8339869,17.0248366 C66.4313725,17.0823529 66.0287582,17.1398693 65.6261438,17.1398693 C65.2235294,17.1973856 64.820915,17.1973856 64.4183007,17.1973856 C63.4980392,17.1973856 62.6928105,17.0823529 61.945098,16.7947712 C61.1973856,16.5071895 60.6222222,16.1045752 60.1045752,15.5869281 C59.5869281,15.069281 59.2418301,14.4366013 58.9542484,13.7464052 C58.6666667,12.9986928 58.551634,12.1934641 58.551634,11.2732026 C58.551634,10.3529412 58.6666667,9.49019608 58.896732,8.74248366 C59.1267974,7.99477124 59.4718954,7.3620915 59.8745098,6.84444444 C60.2771242,6.32679739 60.7947712,5.92418301 61.427451,5.63660131 C62.0601307,5.34901961 62.7503268,5.23398693 63.5555556,5.23398693 C64.0156863,5.23398693 64.3607843,5.29150327 64.7058824,5.34901961 C65.0509804,5.46405229 65.3960784,5.57908497 65.7411765,5.69411765 L65.7411765,0.517647059 L68.9045752,8.1735635e-15 L68.9045752,16.5647059 L68.9620915,16.5647059 Z M61.8300654,11.1006536 C61.8300654,12.0784314 62.0601307,12.8836601 62.4627451,13.5163399 C62.9228758,14.1490196 63.5555556,14.4366013 64.4183007,14.4366013 C64.7058824,14.4366013 64.9359477,14.4366013 65.2235294,14.379085 C65.4535948,14.379085 65.6836601,14.3215686 65.7986928,14.3215686 L65.7986928,8.45490196 C65.6261438,8.33986928 65.3385621,8.2248366 65.0509804,8.10980392 C64.7058824,7.99477124 64.4183007,7.99477124 64.0732026,7.99477124 C62.5777778,7.99477124 61.8300654,9.03006536 61.8300654,11.1006536 Z" id="Shape"></path><path d="M81.2705882,14.3215686 C81.730719,14.3215686 82.1333333,14.2640523 82.420915,14.2065359 C82.7084967,14.1490196 82.9960784,14.0339869 83.1686275,13.8614379 C83.3411765,13.7464052 83.4562092,13.5738562 83.5712418,13.4013072 C83.6287582,13.2287582 83.6862745,12.9986928 83.6862745,12.7686275 C83.6862745,12.2509804 83.4562092,11.848366 82.9960784,11.5607843 C82.5359477,11.2156863 81.7882353,10.8705882 80.6379085,10.5254902 C80.1777778,10.3529412 79.6601307,10.1803922 79.2,9.9503268 C78.7398693,9.72026144 78.2797386,9.43267974 77.8771242,9.0875817 C77.4745098,8.74248366 77.1869281,8.33986928 76.9568627,7.87973856 C76.7267974,7.41960784 76.6117647,6.7869281 76.6117647,6.09673203 C76.6117647,5.40653595 76.7267974,4.77385621 77.0143791,4.19869281 C77.2444444,3.62352941 77.6470588,3.16339869 78.1071895,2.76078431 C78.5673203,2.35816993 79.1424837,2.07058824 79.8326797,1.84052288 C80.5228758,1.61045752 81.2705882,1.55294118 82.075817,1.55294118 C83.0535948,1.55294118 83.9163399,1.66797386 84.6640523,1.89803922 C85.4117647,2.12810458 85.9869281,2.35816993 86.4470588,2.58823529 L85.469281,5.23398693 C85.0666667,5.00392157 84.6065359,4.83137255 84.0888889,4.65882353 C83.5712418,4.48627451 82.9960784,4.42875817 82.248366,4.42875817 C81.4431373,4.42875817 80.8679739,4.54379085 80.5228758,4.77385621 C80.1777778,5.00392157 80.0052288,5.34901961 80.0052288,5.80915033 C80.0052288,6.09673203 80.0627451,6.32679739 80.1777778,6.49934641 C80.2928105,6.67189542 80.4653595,6.84444444 80.6954248,7.01699346 C80.9254902,7.18954248 81.2130719,7.30457516 81.5006536,7.41960784 C81.7882353,7.53464052 82.1333333,7.6496732 82.5359477,7.82222222 C83.2836601,8.10980392 83.9738562,8.39738562 84.5490196,8.68496732 C85.124183,8.97254902 85.5843137,9.31764706 85.9869281,9.6627451 C86.3895425,10.0653595 86.6196078,10.4679739 86.8496732,10.9856209 C87.0222222,11.503268 87.1372549,12.0784314 87.1372549,12.8261438 C87.1372549,14.2065359 86.6771242,15.2993464 85.6993464,16.1045752 C84.7215686,16.8522876 83.2836601,17.254902 81.3281046,17.254902 C80.6954248,17.254902 80.0627451,17.1973856 79.545098,17.1398693 C79.027451,17.0823529 78.5673203,16.9673203 78.1647059,16.8522876 C77.7620915,16.7372549 77.4169935,16.6222222 77.1294118,16.5071895 C76.8418301,16.3921569 76.6117647,16.2771242 76.3816993,16.1620915 L77.3019608,13.4588235 C77.7620915,13.6888889 78.2797386,13.9189542 78.9124183,14.0915033 C79.545098,14.2640523 80.3503268,14.3215686 81.2705882,14.3215686 Z" id="Path"></path><path d="M88.8627451,11.2156863 C88.8627451,10.4104575 88.9777778,9.60522876 89.2653595,8.85751634 C89.5529412,8.10980392 89.8980392,7.47712418 90.4156863,6.95947712 C90.9333333,6.44183007 91.5084967,5.98169935 92.1986928,5.69411765 C92.8888889,5.34901961 93.6941176,5.23398693 94.6143791,5.23398693 C95.1895425,5.23398693 95.7647059,5.29150327 96.2248366,5.40653595 C96.6849673,5.52156863 97.2026144,5.69411765 97.6627451,5.86666667 L97.0300654,8.45490196 C96.7424837,8.33986928 96.3973856,8.2248366 96.0522876,8.16732026 C95.7071895,8.05228758 95.3045752,8.05228758 94.8444444,8.05228758 C93.924183,8.05228758 93.2339869,8.33986928 92.7738562,8.91503268 C92.3137255,9.49019608 92.0836601,10.2954248 92.0836601,11.2732026 C92.0836601,12.3084967 92.3137255,13.1137255 92.7163399,13.6313725 C93.1764706,14.2065359 93.924183,14.4941176 94.9594771,14.4941176 C95.3620915,14.4941176 95.7647059,14.4366013 96.1673203,14.379085 C96.627451,14.3215686 97.0300654,14.2065359 97.3751634,14.0339869 L97.8352941,16.6797386 C97.4901961,16.8522876 97.0300654,16.9673203 96.454902,17.0823529 C95.8797386,17.1973856 95.3045752,17.254902 94.6143791,17.254902 C93.579085,17.254902 92.7163399,17.0823529 91.9686275,16.7947712 C91.220915,16.5071895 90.6457516,16.0470588 90.1281046,15.5294118 C89.6679739,15.0117647 89.3228758,14.379085 89.0928105,13.6313725 C88.9777778,12.8836601 88.8627451,12.0784314 88.8627451,11.2156863 Z" id="Path"></path><path d="M100.020915,16.9098039 L100.020915,0.632679739 L103.184314,0.11503268 L103.184314,5.57908497 C103.414379,5.52156863 103.644444,5.46405229 103.989542,5.34901961 C104.334641,5.29150327 104.622222,5.23398693 104.96732,5.23398693 C105.887582,5.23398693 106.635294,5.34901961 107.210458,5.63660131 C107.785621,5.92418301 108.303268,6.26928105 108.648366,6.72941176 C108.993464,7.18954248 109.281046,7.76470588 109.396078,8.39738562 C109.568627,9.03006536 109.626144,9.72026144 109.626144,10.5254902 L109.626144,16.9673203 L106.462745,16.9673203 L106.462745,10.8705882 C106.462745,9.83529412 106.347712,9.0875817 106.060131,8.68496732 C105.772549,8.2248366 105.312418,8.05228758 104.622222,8.05228758 C104.334641,8.05228758 104.047059,8.05228758 103.816993,8.10980392 C103.586928,8.16732026 103.356863,8.2248366 103.126797,8.28235294 L103.126797,16.9673203 L100.020915,16.9673203 L100.020915,16.9098039 Z" id="Path"></path><path d="M116.010458,2.24313725 C116.010458,2.81830065 115.837908,3.27843137 115.435294,3.62352941 C115.03268,3.96862745 114.630065,4.14117647 114.112418,4.14117647 C113.594771,4.14117647 113.134641,3.96862745 112.789542,3.62352941 C112.386928,3.27843137 112.214379,2.81830065 112.214379,2.24313725 C112.214379,1.66797386 112.386928,1.20784314 112.789542,0.862745098 C113.192157,0.517647059 113.594771,0.345098039 114.112418,0.345098039 C114.630065,0.345098039 115.090196,0.517647059 115.435294,0.862745098 C115.837908,1.1503268 116.010458,1.61045752 116.010458,2.24313725 Z M115.722876,16.9098039 L112.559477,16.9098039 L112.559477,5.52156863 L115.722876,5.52156863 L115.722876,16.9098039 Z" id="Shape"></path><path d="M123.142484,17.1398693 C122.222222,17.1398693 121.47451,17.0248366 120.899346,16.8522876 C120.324183,16.6797386 119.864052,16.3921569 119.518954,16.0470588 C119.173856,15.7019608 118.943791,15.2993464 118.828758,14.8392157 C118.713725,14.379085 118.656209,13.8039216 118.656209,13.2287582 L118.656209,0.632679739 L121.819608,0.11503268 L121.819608,12.5385621 C121.819608,12.8261438 121.819608,13.1137255 121.877124,13.3437908 C121.934641,13.5738562 121.992157,13.7464052 122.10719,13.9189542 C122.222222,14.0915033 122.394771,14.2065359 122.624837,14.3215686 C122.854902,14.4366013 123.142484,14.4941176 123.545098,14.4941176 L123.142484,17.1398693 Z" id="Path"></path><path d="M135.278431,16.5647059 C134.99085,16.6797386 134.645752,16.7372549 134.300654,16.7947712 C133.955556,16.8522876 133.552941,16.9673203 133.150327,17.0248366 C132.747712,17.0823529 132.345098,17.1398693 131.942484,17.1398693 C131.539869,17.1973856 131.137255,17.1973856 130.734641,17.1973856 C129.814379,17.1973856 129.00915,17.0823529 128.261438,16.7947712 C127.513725,16.5071895 126.938562,16.1045752 126.420915,15.5869281 C125.903268,15.069281 125.55817,14.4366013 125.270588,13.7464052 C124.983007,12.9986928 124.867974,12.1934641 124.867974,11.2732026 C124.867974,10.3529412 124.983007,9.49019608 125.213072,8.74248366 C125.443137,7.99477124 125.788235,7.3620915 126.19085,6.84444444 C126.593464,6.32679739 127.111111,5.92418301 127.743791,5.63660131 C128.376471,5.34901961 129.066667,5.23398693 129.871895,5.23398693 C130.332026,5.23398693 130.677124,5.29150327 131.022222,5.34901961 C131.36732,5.46405229 131.712418,5.57908497 132.057516,5.69411765 L132.057516,0.517647059 L135.220915,8.1735635e-15 L135.220915,16.5647059 L135.278431,16.5647059 Z M128.088889,11.1006536 C128.088889,12.0784314 128.318954,12.8836601 128.721569,13.5163399 C129.181699,14.1490196 129.814379,14.4366013 130.677124,14.4366013 C130.964706,14.4366013 131.194771,14.4366013 131.482353,14.379085 C131.712418,14.379085 131.942484,14.3215686 132.057516,14.3215686 L132.057516,8.45490196 C131.884967,8.33986928 131.597386,8.2248366 131.309804,8.10980392 C130.964706,7.99477124 130.677124,7.99477124 130.332026,7.99477124 C128.836601,7.99477124 128.088889,9.03006536 128.088889,11.1006536 Z" id="Shape"></path><path d="M148.104575,16.5647059 C147.816993,16.6797386 147.471895,16.7372549 147.126797,16.7947712 C146.781699,16.8522876 146.379085,16.9673203 145.976471,17.0248366 C145.573856,17.0823529 145.171242,17.1398693 144.768627,17.1398693 C144.366013,17.1973856 143.963399,17.1973856 143.560784,17.1973856 C142.640523,17.1973856 141.835294,17.0823529 141.087582,16.7947712 C140.339869,16.5071895 139.764706,16.1045752 139.247059,15.5869281 C138.729412,15.069281 138.384314,14.4366013 138.096732,13.7464052 C137.80915,12.9986928 137.694118,12.1934641 137.694118,11.2732026 C137.694118,10.3529412 137.80915,9.49019608 138.039216,8.74248366 C138.269281,7.99477124 138.614379,7.3620915 139.016993,6.84444444 C139.419608,6.32679739 139.937255,5.92418301 140.569935,5.63660131 C141.202614,5.34901961 141.89281,5.23398693 142.698039,5.23398693 C143.15817,5.23398693 143.503268,5.29150327 143.848366,5.34901961 C144.193464,5.46405229 144.538562,5.57908497 144.88366,5.69411765 L144.88366,0.517647059 L148.047059,8.1735635e-15 L148.047059,16.5647059 L148.104575,16.5647059 Z M140.915033,11.1006536 C140.915033,12.0784314 141.145098,12.8836601 141.547712,13.5163399 C142.007843,14.1490196 142.640523,14.4366013 143.503268,14.4366013 C143.79085,14.4366013 144.020915,14.4366013 144.308497,14.379085 C144.538562,14.379085 144.768627,14.3215686 144.88366,14.3215686 L144.88366,8.45490196 C144.711111,8.33986928 144.423529,8.2248366 144.135948,8.10980392 C143.79085,7.99477124 143.503268,7.99477124 143.15817,7.99477124 C141.662745,7.99477124 140.915033,9.03006536 140.915033,11.1006536 Z" id="Shape"></path><path d="M157.76732,8.39738562 C157.479739,8.33986928 157.134641,8.2248366 156.789542,8.16732026 C156.386928,8.10980392 155.984314,8.05228758 155.581699,8.05228758 C155.40915,8.05228758 155.121569,8.05228758 154.891503,8.10980392 C154.603922,8.16732026 154.431373,8.16732026 154.258824,8.2248366 L154.258824,16.9098039 L151.095425,16.9098039 L151.095425,6.09673203 C151.670588,5.86666667 152.303268,5.69411765 153.108497,5.52156863 C153.856209,5.34901961 154.718954,5.23398693 155.696732,5.23398693 C155.869281,5.23398693 156.099346,5.23398693 156.329412,5.29150327 C156.559477,5.29150327 156.789542,5.34901961 157.077124,5.40653595 C157.30719,5.46405229 157.537255,5.46405229 157.824837,5.52156863 C158.054902,5.57908497 158.284967,5.63660131 158.457516,5.69411765 L157.76732,8.39738562 Z" id="Path"></path><path d="M169.55817,16.5071895 C169.040523,16.6797386 168.350327,16.7947712 167.487582,16.9673203 C166.624837,17.0823529 165.762092,17.1973856 164.784314,17.1973856 C163.864052,17.1973856 163.058824,17.0823529 162.426144,16.7947712 C161.793464,16.5071895 161.275817,16.1620915 160.930719,15.7019608 C160.585621,15.2418301 160.298039,14.6666667 160.12549,14.0339869 C159.952941,13.4013072 159.895425,12.6535948 159.895425,11.9058824 L159.895425,5.57908497 L163.058824,5.57908497 L163.058824,11.5607843 C163.058824,12.5960784 163.173856,13.3437908 163.461438,13.8039216 C163.74902,14.2640523 164.20915,14.4941176 164.956863,14.4941176 C165.186928,14.4941176 165.416993,14.4941176 165.704575,14.4366013 C165.934641,14.4366013 166.164706,14.379085 166.394771,14.379085 L166.394771,5.52156863 L169.55817,5.52156863 L169.55817,16.5071895 Z M162.368627,3.85359477 C161.908497,3.85359477 161.563399,3.68104575 161.218301,3.39346405 C160.873203,3.10588235 160.75817,2.70326797 160.75817,2.18562092 C160.75817,1.66797386 160.930719,1.26535948 161.218301,0.977777778 C161.563399,0.690196078 161.908497,0.517647059 162.368627,0.517647059 C162.828758,0.517647059 163.173856,0.690196078 163.518954,0.977777778 C163.864052,1.26535948 163.979085,1.66797386 163.979085,2.18562092 C163.979085,2.70326797 163.806536,3.10588235 163.518954,3.39346405 C163.173856,3.73856209 162.771242,3.85359477 162.368627,3.85359477 Z M167.084967,3.85359477 C166.624837,3.85359477 166.279739,3.68104575 165.934641,3.39346405 C165.589542,3.10588235 165.47451,2.70326797 165.47451,2.18562092 C165.47451,1.66797386 165.647059,1.26535948 165.934641,0.977777778 C166.279739,0.690196078 166.624837,0.517647059 167.084967,0.517647059 C167.545098,0.517647059 167.890196,0.690196078 168.235294,0.977777778 C168.580392,1.26535948 168.695425,1.66797386 168.695425,2.18562092 C168.695425,2.70326797 168.522876,3.10588235 168.235294,3.39346405 C167.890196,3.73856209 167.545098,3.85359477 167.084967,3.85359477 Z" id="Shape"></path><path d="M175.712418,14.6091503 C176.287582,14.6091503 176.690196,14.551634 176.920261,14.4366013 C177.150327,14.3215686 177.265359,14.0915033 177.265359,13.7464052 C177.265359,13.4588235 177.09281,13.2862745 176.805229,13.0562092 C176.517647,12.8836601 176,12.6535948 175.36732,12.4235294 C174.849673,12.2509804 174.447059,12.020915 174.044444,11.848366 C173.64183,11.6183007 173.296732,11.3882353 173.00915,11.1006536 C172.721569,10.8130719 172.491503,10.4679739 172.376471,10.0653595 C172.203922,9.6627451 172.146405,9.20261438 172.146405,8.68496732 C172.146405,7.59215686 172.54902,6.7869281 173.296732,6.15424837 C174.101961,5.52156863 175.137255,5.23398693 176.517647,5.23398693 C177.207843,5.23398693 177.840523,5.29150327 178.473203,5.40653595 C179.105882,5.52156863 179.566013,5.63660131 179.968627,5.80915033 L179.393464,8.33986928 C179.048366,8.2248366 178.645752,8.10980392 178.185621,7.99477124 C177.72549,7.87973856 177.265359,7.82222222 176.747712,7.82222222 C175.769935,7.82222222 175.252288,8.10980392 175.252288,8.68496732 C175.252288,8.8 175.252288,8.91503268 175.309804,9.03006536 C175.36732,9.14509804 175.424837,9.20261438 175.539869,9.31764706 C175.654902,9.43267974 175.827451,9.49019608 176.057516,9.60522876 C176.287582,9.72026144 176.575163,9.83529412 176.920261,9.9503268 C177.610458,10.2379085 178.185621,10.4679739 178.645752,10.6980392 C179.105882,10.9281046 179.45098,11.2156863 179.738562,11.503268 C180.026144,11.7908497 180.198693,12.1359477 180.313725,12.4810458 C180.428758,12.8261438 180.486275,13.2862745 180.486275,13.7464052 C180.486275,14.896732 180.08366,15.7019608 179.220915,16.2771242 C178.415686,16.8522876 177.207843,17.1398693 175.712418,17.1398693 C174.734641,17.1398693 173.871895,17.0248366 173.239216,16.8522876 C172.606536,16.6797386 172.146405,16.5071895 171.858824,16.3921569 L172.376471,13.7464052 C172.894118,13.9764706 173.469281,14.1490196 174.044444,14.2640523 C174.619608,14.551634 175.194771,14.6091503 175.712418,14.6091503 Z" id="Path"></path><path d="M182.269281,11.2732026 C182.269281,10.2379085 182.44183,9.3751634 182.729412,8.62745098 C183.016993,7.87973856 183.419608,7.24705882 183.937255,6.72941176 C184.454902,6.21176471 185.030065,5.86666667 185.662745,5.57908497 C186.295425,5.29150327 186.985621,5.17647059 187.675817,5.17647059 C189.286275,5.17647059 190.494118,5.69411765 191.414379,6.67189542 C192.334641,7.6496732 192.794771,9.14509804 192.794771,11.0431373 C192.794771,11.2156863 192.794771,11.4457516 192.794771,11.675817 C192.794771,11.9058824 192.794771,12.0784314 192.737255,12.2509804 L185.547712,12.2509804 C185.605229,12.9411765 185.950327,13.4588235 186.467974,13.8614379 C186.985621,14.2640523 187.733333,14.4366013 188.653595,14.4366013 C189.228758,14.4366013 189.803922,14.379085 190.379085,14.2640523 C190.954248,14.1490196 191.414379,14.0339869 191.759477,13.8614379 L192.162092,16.5071895 C191.989542,16.6222222 191.759477,16.6797386 191.471895,16.7947712 C191.184314,16.9098039 190.896732,16.9673203 190.551634,17.0248366 C190.206536,17.0823529 189.861438,17.1398693 189.458824,17.1973856 C189.056209,17.254902 188.653595,17.254902 188.25098,17.254902 C187.273203,17.254902 186.352941,17.0823529 185.605229,16.7947712 C184.857516,16.5071895 184.224837,16.1045752 183.764706,15.5294118 C183.304575,14.9542484 182.901961,14.379085 182.671895,13.6313725 C182.44183,12.9411765 182.269281,12.1359477 182.269281,11.2732026 Z M189.746405,10.0653595 C189.746405,9.77777778 189.688889,9.54771242 189.631373,9.26013072 C189.573856,8.97254902 189.458824,8.74248366 189.286275,8.56993464 C189.113725,8.33986928 188.941176,8.2248366 188.653595,8.05228758 C188.423529,7.9372549 188.078431,7.87973856 187.733333,7.87973856 C187.388235,7.87973856 187.100654,7.9372549 186.813072,8.05228758 C186.52549,8.16732026 186.352941,8.33986928 186.180392,8.5124183 C186.007843,8.74248366 185.89281,8.97254902 185.777778,9.20261438 C185.662745,9.49019608 185.605229,9.72026144 185.547712,10.0078431 L189.746405,10.0078431 L189.746405,10.0653595 Z" id="Shape"></path><path d="M195.210458,5.92418301 C195.728105,5.75163399 196.418301,5.63660131 197.281046,5.46405229 C198.143791,5.34901961 199.006536,5.23398693 199.984314,5.23398693 C200.904575,5.23398693 201.709804,5.34901961 202.342484,5.63660131 C202.975163,5.86666667 203.49281,6.26928105 203.837908,6.72941176 C204.183007,7.18954248 204.470588,7.76470588 204.643137,8.39738562 C204.815686,9.03006536 204.873203,9.72026144 204.873203,10.5254902 L204.873203,16.9673203 L201.709804,16.9673203 L201.709804,10.8705882 C201.709804,9.83529412 201.594771,9.0875817 201.30719,8.68496732 C201.019608,8.2248366 200.559477,8.05228758 199.811765,8.05228758 C199.581699,8.05228758 199.351634,8.05228758 199.064052,8.10980392 C198.833987,8.10980392 198.603922,8.16732026 198.373856,8.16732026 L198.373856,16.9673203 L195.210458,16.9673203 L195.210458,5.92418301 Z" id="Path"></path><path d="M210.912418,9.60522876 C211.2,9.26013072 211.545098,8.91503268 211.890196,8.5124183 C212.235294,8.16732026 212.522876,7.76470588 212.867974,7.41960784 C213.155556,7.0745098 213.500654,6.72941176 213.730719,6.38431373 C214.018301,6.03921569 214.248366,5.75163399 214.420915,5.52156863 L218.159477,5.52156863 C217.411765,6.38431373 216.664052,7.24705882 215.973856,8.05228758 C215.28366,8.85751634 214.478431,9.6627451 213.615686,10.5254902 C214.018301,10.9281046 214.478431,11.3882353 214.938562,11.9058824 C215.398693,12.4235294 215.858824,12.9986928 216.261438,13.5738562 C216.664052,14.1490196 217.066667,14.724183 217.411765,15.2993464 C217.756863,15.8745098 218.044444,16.3921569 218.332026,16.9098039 L214.708497,16.9098039 C214.478431,16.5071895 214.248366,16.1045752 213.960784,15.6444444 C213.673203,15.1843137 213.385621,14.724183 213.040523,14.2640523 C212.695425,13.8039216 212.350327,13.3437908 212.005229,12.9411765 C211.660131,12.5385621 211.315033,12.1934641 210.912418,11.848366 L210.912418,16.8522876 L207.74902,16.8522876 L207.74902,0.632679739 L210.912418,0.11503268 L210.912418,9.60522876 L210.912418,9.60522876 Z" id="Path"></path><path d="M226.786928,8.39738562 C226.499346,8.33986928 226.154248,8.2248366 225.80915,8.16732026 C225.406536,8.10980392 225.003922,8.05228758 224.601307,8.05228758 C224.428758,8.05228758 224.141176,8.05228758 223.911111,8.10980392 C223.623529,8.16732026 223.45098,8.16732026 223.278431,8.2248366 L223.278431,16.9098039 L220.115033,16.9098039 L220.115033,6.09673203 C220.690196,5.86666667 221.322876,5.69411765 222.128105,5.52156863 C222.875817,5.34901961 223.738562,5.23398693 224.71634,5.23398693 C224.888889,5.23398693 225.118954,5.23398693 225.34902,5.29150327 C225.579085,5.29150327 225.80915,5.34901961 226.096732,5.40653595 C226.326797,5.46405229 226.556863,5.46405229 226.844444,5.52156863 C227.07451,5.57908497 227.304575,5.63660131 227.477124,5.69411765 L226.786928,8.39738562 Z" id="Path"></path><path d="M228.454902,11.2732026 C228.454902,10.2379085 228.627451,9.3751634 228.915033,8.62745098 C229.202614,7.87973856 229.605229,7.24705882 230.122876,6.72941176 C230.640523,6.21176471 231.215686,5.86666667 231.848366,5.57908497 C232.481046,5.29150327 233.171242,5.17647059 233.861438,5.17647059 C235.471895,5.17647059 236.679739,5.69411765 237.6,6.67189542 C238.520261,7.6496732 238.980392,9.14509804 238.980392,11.0431373 C238.980392,11.2156863 238.980392,11.4457516 238.980392,11.675817 C238.980392,11.9058824 238.980392,12.0784314 238.922876,12.2509804 L231.733333,12.2509804 C231.79085,12.9411765 232.135948,13.4588235 232.653595,13.8614379 C233.171242,14.2640523 233.918954,14.4366013 234.839216,14.4366013 C235.414379,14.4366013 235.989542,14.379085 236.564706,14.2640523 C237.139869,14.1490196 237.6,14.0339869 237.945098,13.8614379 L238.347712,16.5071895 C238.175163,16.6222222 237.945098,16.6797386 237.657516,16.7947712 C237.369935,16.9098039 237.082353,16.9673203 236.737255,17.0248366 C236.392157,17.0823529 236.047059,17.1398693 235.644444,17.1973856 C235.24183,17.254902 234.839216,17.254902 234.436601,17.254902 C233.458824,17.254902 232.538562,17.0823529 231.79085,16.7947712 C231.043137,16.5071895 230.410458,16.1045752 229.950327,15.5294118 C229.490196,14.9542484 229.087582,14.379085 228.857516,13.6313725 C228.569935,12.9411765 228.454902,12.1359477 228.454902,11.2732026 Z M235.87451,10.0653595 C235.87451,9.77777778 235.816993,9.54771242 235.759477,9.26013072 C235.701961,8.97254902 235.586928,8.74248366 235.414379,8.56993464 C235.24183,8.33986928 235.069281,8.2248366 234.781699,8.05228758 C234.551634,7.9372549 234.206536,7.87973856 233.861438,7.87973856 C233.51634,7.87973856 233.228758,7.9372549 232.941176,8.05228758 C232.653595,8.16732026 232.481046,8.33986928 232.308497,8.5124183 C232.135948,8.74248366 232.020915,8.97254902 231.905882,9.20261438 C231.79085,9.49019608 231.733333,9.72026144 231.675817,10.0078431 L235.87451,10.0078431 L235.87451,10.0653595 Z" id="Shape"></path><path d="M251.806536,11.2156863 C251.806536,12.1359477 251.691503,12.9411765 251.403922,13.6888889 C251.11634,14.4366013 250.771242,15.069281 250.253595,15.5869281 C249.735948,16.1045752 249.160784,16.5071895 248.413072,16.7947712 C247.665359,17.0823529 246.860131,17.1973856 245.939869,17.1973856 C245.537255,17.1973856 245.134641,17.1973856 244.732026,17.1398693 C244.329412,17.0823529 243.926797,17.0823529 243.524183,17.0248366 C243.121569,16.9673203 242.718954,16.9098039 242.373856,16.7947712 C242.028758,16.7372549 241.68366,16.6222222 241.396078,16.5647059 L241.396078,0.632679739 L244.559477,0.11503268 L244.559477,5.75163399 C244.904575,5.57908497 245.30719,5.46405229 245.652288,5.40653595 C246.054902,5.29150327 246.457516,5.29150327 246.860131,5.29150327 C247.665359,5.29150327 248.355556,5.40653595 248.988235,5.69411765 C249.620915,5.98169935 250.081046,6.38431373 250.541176,6.90196078 C251.001307,7.41960784 251.288889,8.05228758 251.461438,8.8 C251.691503,9.49019608 251.806536,10.2954248 251.806536,11.2156863 Z M248.585621,11.1006536 C248.585621,9.03006536 247.837908,7.99477124 246.342484,7.99477124 C245.997386,7.99477124 245.709804,8.05228758 245.364706,8.10980392 C245.019608,8.2248366 244.789542,8.28235294 244.616993,8.45490196 L244.616993,14.3215686 C244.789542,14.379085 244.962092,14.379085 245.192157,14.379085 C245.422222,14.379085 245.709804,14.4366013 245.997386,14.4366013 C246.860131,14.4366013 247.49281,14.1490196 247.952941,13.5163399 C248.355556,12.9411765 248.585621,12.1359477 248.585621,11.1006536 Z" id="Shape"></path><path d="M257.443137,14.6091503 C258.018301,14.6091503 258.420915,14.551634 258.65098,14.4366013 C258.881046,14.3215686 258.996078,14.0915033 258.996078,13.7464052 C258.996078,13.4588235 258.823529,13.2862745 258.535948,13.0562092 C258.248366,12.8836601 257.730719,12.6535948 257.098039,12.4235294 C256.580392,12.2509804 256.177778,12.020915 255.775163,11.848366 C255.372549,11.6183007 255.027451,11.3882353 254.739869,11.1006536 C254.452288,10.8130719 254.222222,10.4679739 254.10719,10.0653595 C253.934641,9.6627451 253.877124,9.20261438 253.877124,8.68496732 C253.877124,7.59215686 254.279739,6.7869281 255.027451,6.15424837 C255.83268,5.52156863 256.867974,5.23398693 258.248366,5.23398693 C258.938562,5.23398693 259.571242,5.29150327 260.203922,5.40653595 C260.836601,5.52156863 261.296732,5.63660131 261.699346,5.80915033 L261.124183,8.33986928 C260.779085,8.2248366 260.376471,8.10980392 259.91634,7.99477124 C259.456209,7.87973856 258.996078,7.82222222 258.478431,7.82222222 C257.500654,7.82222222 256.983007,8.10980392 256.983007,8.68496732 C256.983007,8.8 256.983007,8.91503268 257.040523,9.03006536 C257.098039,9.14509804 257.155556,9.20261438 257.270588,9.31764706 C257.385621,9.43267974 257.55817,9.49019608 257.788235,9.60522876 C258.018301,9.72026144 258.305882,9.83529412 258.65098,9.9503268 C259.341176,10.2379085 259.91634,10.4679739 260.376471,10.6980392 C260.836601,10.9281046 261.181699,11.2156863 261.469281,11.503268 C261.756863,11.7908497 261.929412,12.1359477 262.044444,12.4810458 C262.159477,12.8261438 262.216993,13.2862745 262.216993,13.7464052 C262.216993,14.896732 261.814379,15.7019608 260.951634,16.2771242 C260.146405,16.8522876 258.938562,17.1398693 257.443137,17.1398693 C256.465359,17.1398693 255.602614,17.0248366 254.969935,16.8522876 C254.337255,16.6797386 253.877124,16.5071895 253.589542,16.3921569 L254.10719,13.7464052 C254.624837,13.9764706 255.2,14.1490196 255.775163,14.2640523 C256.350327,14.551634 256.867974,14.6091503 257.443137,14.6091503 Z" id="Path"></path></g><g id="Group" transform="translate(92.026144, 48.888889)" fill="#025A8B"><path d="M13.8039216,9.43267974 C13.8039216,10.6980392 13.6313725,11.848366 13.2287582,12.8261438 C12.8836601,13.8039216 12.3660131,14.6091503 11.7333333,15.2993464 C11.1006536,15.9320261 10.3529412,16.4496732 9.54771242,16.7947712 C8.68496732,17.1398693 7.82222222,17.3124183 6.90196078,17.3124183 C5.98169935,17.3124183 5.06143791,17.1398693 4.25620915,16.7947712 C3.39346405,16.4496732 2.70326797,15.9895425 2.07058824,15.2993464 C1.4379085,14.6666667 0.920261438,13.8039216 0.575163399,12.8261438 C0.230065359,11.848366 0,10.6980392 0,9.43267974 C0,8.16732026 0.17254902,7.01699346 0.575163399,6.03921569 C0.920261438,5.06143791 1.4379085,4.25620915 2.07058824,3.56601307 C2.70326797,2.93333333 3.45098039,2.41568627 4.25620915,2.07058824 C5.11895425,1.7254902 5.98169935,1.55294118 6.90196078,1.55294118 C7.82222222,1.55294118 8.74248366,1.7254902 9.54771242,2.07058824 C10.4104575,2.41568627 11.1006536,2.87581699 11.7333333,3.56601307 C12.3660131,4.19869281 12.8836601,5.06143791 13.2287582,6.03921569 C13.6313725,7.01699346 13.8039216,8.10980392 13.8039216,9.43267974 Z M12.3084967,9.43267974 C12.3084967,8.39738562 12.1934641,7.53464052 11.9058824,6.72941176 C11.675817,5.92418301 11.2732026,5.23398693 10.8130719,4.65882353 C10.3529412,4.08366013 9.77777778,3.68104575 9.14509804,3.39346405 C8.5124183,3.10588235 7.76470588,2.93333333 6.90196078,2.93333333 C6.09673203,2.93333333 5.34901961,3.10588235 4.65882353,3.39346405 C4.02614379,3.68104575 3.45098039,4.14117647 2.99084967,4.65882353 C2.53071895,5.17647059 2.18562092,5.92418301 1.89803922,6.72941176 C1.66797386,7.53464052 1.49542484,8.45490196 1.49542484,9.43267974 C1.49542484,10.4679739 1.61045752,11.330719 1.89803922,12.1359477 C2.12810458,12.9411765 2.53071895,13.6313725 2.99084967,14.2065359 C3.45098039,14.7816993 4.02614379,15.1843137 4.65882353,15.5294118 C5.29150327,15.8169935 6.03921569,15.9895425 6.90196078,15.9895425 C7.70718954,15.9895425 8.45490196,15.8169935 9.14509804,15.5294118 C9.77777778,15.2418301 10.3529412,14.7816993 10.8130719,14.2065359 C11.2732026,13.6313725 11.6183007,12.9411765 11.9058824,12.1359477 C12.1359477,11.330719 12.3084967,10.4104575 12.3084967,9.43267974 Z" id="Shape"></path><path d="M16.9673203,16.9098039 L16.9673203,0.402614379 L18.3477124,0.11503268 L18.3477124,6.03921569 C18.8078431,5.86666667 19.2679739,5.75163399 19.7281046,5.63660131 C20.1882353,5.52156863 20.648366,5.52156863 21.1084967,5.52156863 C21.9712418,5.52156863 22.6614379,5.63660131 23.2366013,5.86666667 C23.8117647,6.09673203 24.2718954,6.44183007 24.6169935,6.90196078 C24.9620915,7.3620915 25.1921569,7.87973856 25.3071895,8.5124183 C25.4222222,9.14509804 25.5372549,9.83529412 25.5372549,10.6405229 L25.5372549,16.9098039 L24.1568627,16.9098039 L24.1568627,11.1006536 C24.1568627,10.2954248 24.0993464,9.6627451 23.9843137,9.0875817 C23.869281,8.5124183 23.696732,8.10980392 23.4666667,7.76470588 C23.2366013,7.41960784 22.8915033,7.18954248 22.4888889,7.01699346 C22.0862745,6.84444444 21.5686275,6.7869281 20.9359477,6.7869281 C20.7058824,6.7869281 20.4183007,6.7869281 20.1882353,6.84444444 C19.9581699,6.90196078 19.6705882,6.95947712 19.4405229,6.95947712 C19.2104575,7.01699346 18.9803922,7.0745098 18.8078431,7.13202614 C18.6352941,7.18954248 18.5202614,7.24705882 18.4627451,7.24705882 L18.4627451,16.9098039 L16.9673203,16.9098039 L16.9673203,16.9098039 Z" id="Path"></path><path d="M29.0457516,6.09673203 C29.448366,5.98169935 30.0235294,5.86666667 30.7137255,5.69411765 C31.4039216,5.52156863 32.2666667,5.46405229 33.2444444,5.46405229 C34.1071895,5.46405229 34.7973856,5.57908497 35.3150327,5.80915033 C35.8901961,6.03921569 36.2928105,6.38431373 36.6379085,6.84444444 C36.9830065,7.30457516 37.2130719,7.82222222 37.3281046,8.45490196 C37.4431373,9.0875817 37.5581699,9.77777778 37.5581699,10.5830065 L37.5581699,16.8522876 L36.2352941,16.8522876 L36.2352941,11.0431373 C36.2352941,10.2379085 36.1777778,9.60522876 36.0627451,9.03006536 C35.9477124,8.45490196 35.7751634,8.05228758 35.545098,7.70718954 C35.3150327,7.3620915 34.9699346,7.13202614 34.5673203,6.95947712 C34.1647059,6.7869281 33.6470588,6.72941176 33.0718954,6.72941176 C32.4392157,6.72941176 31.8640523,6.7869281 31.4039216,6.84444444 C30.9437908,6.90196078 30.5986928,6.95947712 30.4836601,7.01699346 L30.4836601,16.8522876 L29.103268,16.8522876 L29.103268,6.09673203 L29.0457516,6.09673203 Z" id="Path"></path><path d="M40.4915033,11.330719 C40.4915033,10.3529412 40.6065359,9.49019608 40.8941176,8.74248366 C41.1816993,7.99477124 41.5267974,7.41960784 41.9869281,6.90196078 C42.4470588,6.38431373 42.9647059,6.03921569 43.5398693,5.80915033 C44.1150327,5.57908497 44.6901961,5.46405229 45.3228758,5.46405229 C46.6457516,5.46405229 47.7385621,5.92418301 48.5437908,6.7869281 C49.3490196,7.70718954 49.751634,9.0875817 49.751634,10.9281046 C49.751634,11.0431373 49.751634,11.1581699 49.751634,11.2732026 C49.751634,11.3882353 49.751634,11.503268 49.6941176,11.6183007 L41.9869281,11.6183007 C42.0444444,12.9986928 42.3895425,14.0339869 42.9647059,14.7816993 C43.5973856,15.5294118 44.5751634,15.8745098 45.9555556,15.8745098 C46.703268,15.8745098 47.2784314,15.8169935 47.7385621,15.6444444 C48.1986928,15.4718954 48.4862745,15.3568627 48.7163399,15.2993464 L48.9464052,16.5071895 C48.7738562,16.6222222 48.3712418,16.7372549 47.8535948,16.9098039 C47.3359477,17.0823529 46.6457516,17.1398693 45.9555556,17.1398693 C44.9777778,17.1398693 44.172549,16.9673203 43.4823529,16.6797386 C42.7921569,16.3921569 42.2169935,15.9895425 41.8143791,15.4718954 C41.3542484,14.9542484 41.0666667,14.3215686 40.8366013,13.6313725 C40.6065359,12.9411765 40.4915033,12.1934641 40.4915033,11.330719 Z M48.2562092,10.4104575 C48.2562092,9.26013072 47.9686275,8.33986928 47.4509804,7.70718954 C46.9333333,7.0745098 46.2431373,6.72941176 45.2653595,6.72941176 C44.7477124,6.72941176 44.345098,6.84444444 43.9424837,7.01699346 C43.5398693,7.24705882 43.1947712,7.47712418 42.9071895,7.82222222 C42.6196078,8.16732026 42.3895425,8.56993464 42.2169935,9.03006536 C42.0444444,9.49019608 41.9869281,9.9503268 41.9294118,10.4104575 L48.2562092,10.4104575 Z" id="Shape"></path><path d="M60.8522876,15.9895425 C62.0026144,15.9895425 62.8653595,15.7594771 63.5555556,15.3568627 C64.1882353,14.9542484 64.5333333,14.2640523 64.5333333,13.2862745 C64.5333333,12.7111111 64.4183007,12.2509804 64.2457516,11.9058824 C64.0156863,11.5607843 63.7856209,11.2156863 63.4405229,10.9856209 C63.0954248,10.7555556 62.6928105,10.5254902 62.2901961,10.3529412 C61.8300654,10.1803922 61.3699346,10.0078431 60.9098039,9.77777778 C60.2771242,9.54771242 59.7594771,9.26013072 59.2993464,9.03006536 C58.8392157,8.8 58.379085,8.45490196 58.0915033,8.16732026 C57.8039216,7.87973856 57.5163399,7.47712418 57.3437908,7.0745098 C57.1712418,6.67189542 57.0562092,6.15424837 57.0562092,5.57908497 C57.0562092,4.31372549 57.4588235,3.33594771 58.3215686,2.64575163 C59.1843137,1.95555556 60.3346405,1.66797386 61.8300654,1.66797386 C62.2326797,1.66797386 62.6352941,1.7254902 62.9803922,1.78300654 C63.3254902,1.84052288 63.7281046,1.89803922 64.0732026,2.0130719 C64.4183007,2.12810458 64.7058824,2.18562092 64.9934641,2.30065359 C65.2810458,2.41568627 65.5111111,2.53071895 65.6836601,2.64575163 L65.1660131,3.85359477 C64.7633987,3.56601307 64.2457516,3.33594771 63.6705882,3.16339869 C63.0954248,2.99084967 62.4627451,2.87581699 61.772549,2.87581699 C61.3124183,2.87581699 60.8522876,2.93333333 60.5071895,2.99084967 C60.1045752,3.10588235 59.7594771,3.22091503 59.4718954,3.45098039 C59.1843137,3.68104575 58.9542484,3.91111111 58.7816993,4.25620915 C58.6091503,4.60130719 58.551634,4.94640523 58.551634,5.40653595 C58.551634,5.86666667 58.6091503,6.26928105 58.7816993,6.55686275 C58.9542484,6.84444444 59.1843137,7.13202614 59.4718954,7.3620915 C59.7594771,7.59215686 60.1620915,7.82222222 60.5647059,7.99477124 C60.9673203,8.16732026 61.427451,8.39738562 61.8875817,8.56993464 C62.4627451,8.8 63.0379085,9.0875817 63.5555556,9.31764706 C64.0732026,9.54771242 64.5333333,9.83529412 64.8784314,10.1803922 C65.2235294,10.5254902 65.5686275,10.9281046 65.7986928,11.3882353 C66.0287582,11.848366 66.1437908,12.4235294 66.1437908,13.1712418 C66.1437908,14.551634 65.6836601,15.5294118 64.7633987,16.2196078 C63.8431373,16.9098039 62.5777778,17.254902 60.9673203,17.254902 C60.3921569,17.254902 59.8745098,17.1973856 59.4143791,17.1398693 C58.9542484,17.0823529 58.551634,16.9673203 58.1490196,16.8522876 C57.8039216,16.7372549 57.4588235,16.6222222 57.2287582,16.5071895 C56.9986928,16.3921569 56.7686275,16.2771242 56.6535948,16.2196078 L57.1137255,14.9542484 C57.2287582,15.069281 57.4588235,15.1267974 57.6888889,15.2418301 C57.9189542,15.3568627 58.2065359,15.4718954 58.551634,15.5869281 C58.896732,15.7019608 59.2418301,15.7594771 59.6444444,15.8745098 C59.9320261,15.9320261 60.3346405,15.9895425 60.8522876,15.9895425 Z" id="Path"></path><path d="M73.1607843,17.1973856 C72.2980392,17.1973856 71.5503268,17.0823529 70.9176471,16.7947712 C70.2849673,16.5071895 69.7098039,16.1045752 69.3071895,15.5869281 C68.8470588,15.069281 68.5594771,14.4366013 68.3294118,13.7464052 C68.0993464,13.0562092 67.9843137,12.2509804 67.9843137,11.3882353 C67.9843137,10.5254902 68.0993464,9.72026144 68.3294118,8.97254902 C68.5594771,8.2248366 68.9045752,7.6496732 69.3647059,7.13202614 C69.8248366,6.61437908 70.3424837,6.21176471 70.9751634,5.92418301 C71.6078431,5.63660131 72.2980392,5.52156863 73.103268,5.52156863 C73.6784314,5.52156863 74.2535948,5.57908497 74.7712418,5.69411765 C75.2888889,5.80915033 75.6915033,5.92418301 75.979085,6.09673203 L75.6339869,7.30457516 C75.3464052,7.13202614 75.0588235,7.01699346 74.6562092,6.95947712 C74.3111111,6.84444444 73.8509804,6.84444444 73.2183007,6.84444444 C72.0104575,6.84444444 71.0901961,7.24705882 70.4575163,8.05228758 C69.8248366,8.85751634 69.5372549,10.0078431 69.5372549,11.4457516 C69.5372549,12.1359477 69.5947712,12.7111111 69.7673203,13.2862745 C69.8823529,13.8614379 70.1124183,14.3215686 70.4575163,14.724183 C70.8026144,15.1267974 71.2052288,15.4143791 71.6653595,15.6444444 C72.1830065,15.8745098 72.7581699,15.9895425 73.5058824,15.9895425 C74.0810458,15.9895425 74.5986928,15.9320261 75.0013072,15.7594771 C75.4039216,15.6444444 75.6915033,15.5294118 75.8640523,15.4143791 L76.151634,16.6222222 C75.9215686,16.7947712 75.5189542,16.9098039 74.9437908,17.0248366 C74.3686275,17.1398693 73.7359477,17.1973856 73.1607843,17.1973856 Z" id="Path"></path><path d="M78.3372549,16.9098039 L78.3372549,0.402614379 L79.7176471,0.11503268 L79.7176471,6.03921569 C80.1777778,5.86666667 80.6379085,5.75163399 81.0980392,5.63660131 C81.5581699,5.52156863 82.0183007,5.52156863 82.4784314,5.52156863 C83.3411765,5.52156863 84.0313725,5.63660131 84.6065359,5.86666667 C85.1816993,6.09673203 85.6418301,6.44183007 85.9869281,6.90196078 C86.3320261,7.3620915 86.5620915,7.87973856 86.6771242,8.5124183 C86.7921569,9.14509804 86.9071895,9.83529412 86.9071895,10.6405229 L86.9071895,16.9098039 L85.5267974,16.9098039 L85.5267974,11.1006536 C85.5267974,10.2954248 85.469281,9.6627451 85.3542484,9.0875817 C85.2392157,8.5124183 85.0666667,8.10980392 84.8366013,7.76470588 C84.6065359,7.41960784 84.2614379,7.18954248 83.8588235,7.01699346 C83.4562092,6.84444444 82.9385621,6.7869281 82.3058824,6.7869281 C82.075817,6.7869281 81.7882353,6.7869281 81.5581699,6.84444444 C81.3281046,6.90196078 81.0405229,6.95947712 80.8104575,6.95947712 C80.5803922,7.01699346 80.3503268,7.0745098 80.1777778,7.13202614 C80.0052288,7.18954248 79.8901961,7.24705882 79.8326797,7.24705882 L79.8326797,16.9098039 L78.3372549,16.9098039 L78.3372549,16.9098039 Z" id="Path"></path><path d="M92.1411765,2.35816993 C92.1411765,2.70326797 92.0261438,2.93333333 91.8535948,3.16339869 C91.6810458,3.33594771 91.3934641,3.45098039 91.1058824,3.45098039 C90.8183007,3.45098039 90.5882353,3.33594771 90.3581699,3.16339869 C90.1856209,2.99084967 90.0705882,2.70326797 90.0705882,2.35816993 C90.0705882,2.0130719 90.1856209,1.78300654 90.3581699,1.55294118 C90.530719,1.38039216 90.8183007,1.26535948 91.1058824,1.26535948 C91.3934641,1.26535948 91.6235294,1.38039216 91.8535948,1.55294118 C92.0261438,1.7254902 92.1411765,2.0130719 92.1411765,2.35816993 Z M91.7960784,16.9098039 L90.4156863,16.9098039 L90.4156863,5.75163399 L91.7960784,5.75163399 L91.7960784,16.9098039 Z" id="Shape"></path><path d="M98.2379085,17.1398693 C97.7777778,17.1398693 97.3751634,17.0823529 97.0300654,16.9673203 C96.6849673,16.8522876 96.3973856,16.6797386 96.1673203,16.4496732 C95.9372549,16.2196078 95.7647059,15.9320261 95.6496732,15.5869281 C95.5346405,15.2418301 95.4771242,14.7816993 95.4771242,14.2640523 L95.4771242,0.402614379 L96.8575163,0.11503268 L96.8575163,14.2065359 C96.8575163,14.551634 96.9150327,14.8392157 96.972549,15.069281 C97.0300654,15.2993464 97.145098,15.4718954 97.2601307,15.5869281 C97.3751634,15.7019608 97.5477124,15.8169935 97.7777778,15.8745098 C98.0078431,15.9320261 98.2379085,15.9895425 98.5254902,16.0470588 L98.2379085,17.1398693 Z" id="Path"></path><path d="M109.626144,16.5647059 C109.223529,16.7372549 108.705882,16.8522876 108.073203,16.9673203 C107.440523,17.0823529 106.635294,17.1398693 105.657516,17.1398693 C104.852288,17.1398693 104.104575,17.0248366 103.471895,16.7372549 C102.839216,16.4496732 102.264052,16.1045752 101.746405,15.5869281 C101.286275,15.069281 100.88366,14.4941176 100.653595,13.7464052 C100.366013,12.9986928 100.25098,12.1934641 100.25098,11.2732026 C100.25098,10.4104575 100.366013,9.6627451 100.596078,8.91503268 C100.826144,8.2248366 101.113725,7.59215686 101.573856,7.0745098 C101.976471,6.55686275 102.494118,6.15424837 103.126797,5.86666667 C103.759477,5.57908497 104.449673,5.40653595 105.254902,5.40653595 C106.002614,5.40653595 106.577778,5.52156863 107.152941,5.69411765 C107.670588,5.92418301 108.073203,6.09673203 108.303268,6.26928105 L108.303268,0.402614379 L109.68366,0.11503268 L109.68366,16.5647059 L109.626144,16.5647059 Z M108.245752,7.76470588 C108.130719,7.6496732 107.95817,7.53464052 107.785621,7.41960784 C107.613072,7.30457516 107.383007,7.18954248 107.095425,7.0745098 C106.865359,6.95947712 106.577778,6.90196078 106.290196,6.84444444 C106.002614,6.7869281 105.657516,6.72941176 105.369935,6.72941176 C104.679739,6.72941176 104.104575,6.84444444 103.644444,7.0745098 C103.184314,7.30457516 102.839216,7.6496732 102.551634,8.05228758 C102.264052,8.45490196 102.091503,8.97254902 101.918954,9.49019608 C101.746405,10.0078431 101.746405,10.6405229 101.746405,11.2732026 C101.746405,12.7686275 102.091503,13.8614379 102.839216,14.6666667 C103.586928,15.4718954 104.50719,15.8745098 105.715033,15.8745098 C106.405229,15.8745098 106.922876,15.8169935 107.383007,15.7594771 C107.785621,15.7019608 108.130719,15.6444444 108.303268,15.5294118 L108.303268,7.76470588 L108.245752,7.76470588 Z" id="Shape"></path><path d="M121.992157,16.5647059 C121.589542,16.7372549 121.071895,16.8522876 120.439216,16.9673203 C119.806536,17.0823529 119.001307,17.1398693 118.023529,17.1398693 C117.218301,17.1398693 116.470588,17.0248366 115.837908,16.7372549 C115.205229,16.4496732 114.630065,16.1045752 114.112418,15.5869281 C113.652288,15.069281 113.249673,14.4941176 113.019608,13.7464052 C112.732026,12.9986928 112.616993,12.1934641 112.616993,11.2732026 C112.616993,10.4104575 112.732026,9.6627451 112.962092,8.91503268 C113.192157,8.2248366 113.479739,7.59215686 113.939869,7.0745098 C114.342484,6.55686275 114.860131,6.15424837 115.49281,5.86666667 C116.12549,5.57908497 116.815686,5.40653595 117.620915,5.40653595 C118.368627,5.40653595 118.943791,5.52156863 119.518954,5.69411765 C120.036601,5.92418301 120.439216,6.09673203 120.669281,6.26928105 L120.669281,0.402614379 L122.049673,0.11503268 L122.049673,16.5647059 L121.992157,16.5647059 Z M120.611765,7.76470588 C120.496732,7.6496732 120.324183,7.53464052 120.151634,7.41960784 C119.979085,7.30457516 119.74902,7.18954248 119.461438,7.0745098 C119.231373,6.95947712 118.943791,6.90196078 118.656209,6.84444444 C118.368627,6.7869281 118.023529,6.72941176 117.735948,6.72941176 C117.045752,6.72941176 116.470588,6.84444444 116.010458,7.0745098 C115.550327,7.30457516 115.205229,7.6496732 114.917647,8.05228758 C114.630065,8.45490196 114.457516,8.97254902 114.284967,9.49019608 C114.112418,10.0078431 114.112418,10.6405229 114.112418,11.2732026 C114.112418,12.7686275 114.457516,13.8614379 115.205229,14.6666667 C115.952941,15.4718954 116.873203,15.8745098 118.081046,15.8745098 C118.771242,15.8745098 119.288889,15.8169935 119.74902,15.7594771 C120.151634,15.7019608 120.496732,15.6444444 120.669281,15.5294118 L120.669281,7.76470588 L120.611765,7.76470588 Z" id="Shape"></path><path d="M129.411765,5.52156863 C129.871895,5.52156863 130.27451,5.57908497 130.677124,5.63660131 C131.079739,5.69411765 131.36732,5.80915033 131.539869,5.86666667 L131.252288,7.0745098 C131.137255,7.01699346 130.90719,6.95947712 130.562092,6.90196078 C130.216993,6.84444444 129.756863,6.7869281 129.181699,6.7869281 C128.606536,6.7869281 128.088889,6.84444444 127.743791,6.90196078 C127.398693,7.01699346 127.168627,7.0745098 127.053595,7.13202614 L127.053595,16.9673203 L125.673203,16.9673203 L125.673203,6.26928105 C126.018301,6.09673203 126.535948,5.92418301 127.111111,5.80915033 C127.743791,5.57908497 128.491503,5.52156863 129.411765,5.52156863 Z" id="Path"></path><path d="M142.007843,16.5647059 C141.605229,16.6797386 141.030065,16.7947712 140.339869,16.9673203 C139.649673,17.1398693 138.786928,17.1973856 137.80915,17.1973856 C137.003922,17.1973856 136.313725,17.0823529 135.738562,16.8522876 C135.163399,16.6222222 134.760784,16.2771242 134.415686,15.8169935 C134.070588,15.3568627 133.840523,14.8392157 133.667974,14.2065359 C133.495425,13.5738562 133.437908,12.8836601 133.437908,12.0784314 L133.437908,5.75163399 L134.818301,5.75163399 L134.818301,11.5607843 C134.818301,12.3660131 134.875817,12.9986928 134.99085,13.5738562 C135.105882,14.1490196 135.278431,14.551634 135.566013,14.896732 C135.796078,15.2418301 136.141176,15.4718954 136.543791,15.6444444 C136.946405,15.8169935 137.464052,15.8745098 138.039216,15.8745098 C138.671895,15.8745098 139.247059,15.8169935 139.764706,15.7594771 C140.224837,15.7019608 140.569935,15.6444444 140.684967,15.5869281 L140.684967,5.75163399 L142.065359,5.75163399 L142.065359,16.5647059 L142.007843,16.5647059 Z M136.888889,2.35816993 C136.888889,2.70326797 136.773856,2.93333333 136.601307,3.10588235 C136.428758,3.27843137 136.198693,3.39346405 135.911111,3.39346405 C135.623529,3.39346405 135.393464,3.27843137 135.220915,3.10588235 C135.048366,2.93333333 134.933333,2.64575163 134.933333,2.35816993 C134.933333,2.07058824 135.048366,1.78300654 135.220915,1.61045752 C135.393464,1.4379085 135.623529,1.32287582 135.911111,1.32287582 C136.198693,1.32287582 136.428758,1.4379085 136.601307,1.61045752 C136.831373,1.78300654 136.888889,2.0130719 136.888889,2.35816993 Z M140.569935,2.35816993 C140.569935,2.70326797 140.454902,2.93333333 140.282353,3.10588235 C140.109804,3.27843137 139.879739,3.39346405 139.592157,3.39346405 C139.304575,3.39346405 139.07451,3.27843137 138.901961,3.10588235 C138.729412,2.93333333 138.614379,2.64575163 138.614379,2.35816993 C138.614379,2.07058824 138.729412,1.78300654 138.901961,1.61045752 C139.07451,1.4379085 139.304575,1.32287582 139.592157,1.32287582 C139.879739,1.32287582 140.109804,1.4379085 140.282353,1.61045752 C140.454902,1.78300654 140.569935,2.0130719 140.569935,2.35816993 Z" id="Shape"></path><path d="M147.932026,15.9320261 C148.737255,15.9320261 149.369935,15.8169935 149.887582,15.5294118 C150.405229,15.2418301 150.635294,14.8392157 150.635294,14.1490196 C150.635294,13.8614379 150.577778,13.5738562 150.520261,13.3437908 C150.462745,13.1137255 150.290196,12.9411765 150.060131,12.7686275 C149.830065,12.5960784 149.542484,12.4235294 149.197386,12.2509804 C148.852288,12.0784314 148.449673,11.9058824 147.932026,11.675817 C147.529412,11.503268 147.126797,11.330719 146.781699,11.1581699 C146.436601,10.9856209 146.091503,10.7555556 145.803922,10.5254902 C145.51634,10.2954248 145.286275,10.0078431 145.113725,9.6627451 C144.941176,9.31764706 144.88366,8.91503268 144.88366,8.45490196 C144.88366,7.53464052 145.228758,6.7869281 145.918954,6.26928105 C146.60915,5.69411765 147.529412,5.40653595 148.679739,5.40653595 C149.427451,5.40653595 150.060131,5.46405229 150.520261,5.57908497 C150.980392,5.69411765 151.32549,5.80915033 151.555556,5.92418301 L151.210458,7.18954248 C151.037908,7.0745098 150.750327,6.95947712 150.347712,6.84444444 C149.945098,6.67189542 149.369935,6.61437908 148.564706,6.61437908 C148.277124,6.61437908 147.932026,6.67189542 147.701961,6.72941176 C147.414379,6.7869281 147.184314,6.90196078 146.954248,7.01699346 C146.724183,7.13202614 146.551634,7.30457516 146.436601,7.53464052 C146.321569,7.76470588 146.264052,7.99477124 146.264052,8.28235294 C146.264052,8.56993464 146.321569,8.85751634 146.436601,9.0875817 C146.551634,9.31764706 146.724183,9.49019608 146.954248,9.6627451 C147.184314,9.83529412 147.414379,10.0078431 147.759477,10.1228758 C148.104575,10.2379085 148.449673,10.4104575 148.852288,10.5830065 C149.254902,10.7555556 149.657516,10.9281046 150.060131,11.1006536 C150.462745,11.2732026 150.807843,11.503268 151.095425,11.7333333 C151.383007,11.9633987 151.613072,12.3084967 151.843137,12.6535948 C152.015686,12.9986928 152.130719,13.4588235 152.130719,13.9764706 C152.130719,15.0117647 151.785621,15.7594771 151.037908,16.2771242 C150.290196,16.7947712 149.254902,17.0823529 147.989542,17.0823529 C147.011765,17.0823529 146.264052,17.0248366 145.803922,16.8522876 C145.286275,16.6797386 144.941176,16.5647059 144.768627,16.4496732 L145.113725,15.1843137 C145.171242,15.1843137 145.228758,15.2418301 145.401307,15.2993464 C145.51634,15.3568627 145.746405,15.4143791 145.976471,15.5294118 C146.206536,15.5869281 146.494118,15.7019608 146.839216,15.7594771 C147.184314,15.8169935 147.471895,15.9320261 147.932026,15.9320261 Z" id="Path"></path><path d="M154.143791,11.330719 C154.143791,10.3529412 154.258824,9.49019608 154.546405,8.74248366 C154.833987,7.99477124 155.179085,7.41960784 155.639216,6.90196078 C156.099346,6.38431373 156.616993,6.03921569 157.192157,5.80915033 C157.76732,5.57908497 158.342484,5.46405229 158.975163,5.46405229 C160.298039,5.46405229 161.39085,5.92418301 162.196078,6.7869281 C163.001307,7.70718954 163.403922,9.0875817 163.403922,10.9281046 C163.403922,11.0431373 163.403922,11.1581699 163.403922,11.2732026 C163.403922,11.3882353 163.403922,11.503268 163.346405,11.6183007 L155.639216,11.6183007 C155.696732,12.9986928 156.04183,14.0339869 156.616993,14.7816993 C157.249673,15.5294118 158.227451,15.8745098 159.607843,15.8745098 C160.355556,15.8745098 160.930719,15.8169935 161.39085,15.6444444 C161.85098,15.4718954 162.138562,15.3568627 162.368627,15.2993464 L162.598693,16.5071895 C162.426144,16.6222222 162.023529,16.7372549 161.505882,16.9098039 C160.988235,17.0823529 160.298039,17.1398693 159.607843,17.1398693 C158.630065,17.1398693 157.824837,16.9673203 157.134641,16.6797386 C156.444444,16.3921569 155.869281,15.9895425 155.466667,15.4718954 C155.006536,14.9542484 154.718954,14.3215686 154.488889,13.6313725 C154.258824,12.9411765 154.143791,12.1934641 154.143791,11.330719 Z M161.908497,10.4104575 C161.908497,9.26013072 161.620915,8.33986928 161.103268,7.70718954 C160.585621,7.0745098 159.895425,6.72941176 158.917647,6.72941176 C158.4,6.72941176 157.997386,6.84444444 157.594771,7.01699346 C157.192157,7.24705882 156.847059,7.47712418 156.559477,7.82222222 C156.271895,8.16732026 156.04183,8.56993464 155.869281,9.03006536 C155.696732,9.49019608 155.639216,9.9503268 155.581699,10.4104575 L161.908497,10.4104575 Z" id="Shape"></path><path d="M174.044444,17.1398693 C173.584314,17.1398693 173.181699,17.0823529 172.836601,16.9673203 C172.491503,16.8522876 172.203922,16.6797386 171.973856,16.4496732 C171.743791,16.2196078 171.571242,15.9320261 171.456209,15.5869281 C171.341176,15.2418301 171.28366,14.7816993 171.28366,14.2640523 L171.28366,0.402614379 L172.664052,0.11503268 L172.664052,14.2065359 C172.664052,14.551634 172.721569,14.8392157 172.779085,15.069281 C172.836601,15.2993464 172.951634,15.4718954 173.066667,15.5869281 C173.181699,15.7019608 173.354248,15.8169935 173.584314,15.8745098 C173.814379,15.9320261 174.044444,15.9895425 174.332026,16.0470588 L174.044444,17.1398693 Z" id="Path"></path><path d="M176,11.330719 C176,10.3529412 176.115033,9.49019608 176.402614,8.74248366 C176.690196,7.99477124 177.035294,7.41960784 177.495425,6.90196078 C177.955556,6.38431373 178.473203,6.03921569 179.048366,5.80915033 C179.623529,5.57908497 180.198693,5.46405229 180.831373,5.46405229 C182.154248,5.46405229 183.247059,5.92418301 184.052288,6.7869281 C184.857516,7.70718954 185.260131,9.0875817 185.260131,10.9281046 C185.260131,11.0431373 185.260131,11.1581699 185.260131,11.2732026 C185.260131,11.3882353 185.260131,11.503268 185.202614,11.6183007 L177.495425,11.6183007 C177.552941,12.9986928 177.898039,14.0339869 178.473203,14.7816993 C179.105882,15.5294118 180.08366,15.8745098 181.464052,15.8745098 C182.211765,15.8745098 182.786928,15.8169935 183.247059,15.6444444 C183.70719,15.4718954 183.994771,15.3568627 184.224837,15.2993464 L184.454902,16.5071895 C184.282353,16.6222222 183.879739,16.7372549 183.362092,16.9098039 C182.844444,17.0823529 182.154248,17.1398693 181.464052,17.1398693 C180.486275,17.1398693 179.681046,16.9673203 178.99085,16.6797386 C178.300654,16.3921569 177.72549,15.9895425 177.322876,15.4718954 C176.862745,14.9542484 176.575163,14.3215686 176.345098,13.6313725 C176.115033,12.9411765 176,12.1934641 176,11.330719 Z M183.822222,10.4104575 C183.822222,9.26013072 183.534641,8.33986928 183.016993,7.70718954 C182.499346,7.0745098 181.80915,6.72941176 180.831373,6.72941176 C180.313725,6.72941176 179.911111,6.84444444 179.508497,7.01699346 C179.105882,7.24705882 178.760784,7.47712418 178.473203,7.82222222 C178.185621,8.16732026 177.955556,8.56993464 177.783007,9.03006536 C177.610458,9.49019608 177.552941,9.9503268 177.495425,10.4104575 L183.822222,10.4104575 Z" id="Shape"></path><path d="M189.688889,6.38431373 C189.918954,6.21176471 190.321569,5.98169935 190.839216,5.80915033 C191.356863,5.57908497 191.989542,5.52156863 192.737255,5.52156863 C193.542484,5.52156863 194.23268,5.69411765 194.865359,5.98169935 C195.498039,6.26928105 196.015686,6.67189542 196.418301,7.18954248 C196.820915,7.70718954 197.166013,8.33986928 197.396078,9.03006536 C197.626144,9.72026144 197.741176,10.5254902 197.741176,11.3882353 C197.741176,12.3084967 197.626144,13.1137255 197.338562,13.8614379 C197.05098,14.6091503 196.705882,15.1843137 196.245752,15.7019608 C195.785621,16.2196078 195.210458,16.6222222 194.520261,16.8522876 C193.887582,17.1398693 193.139869,17.254902 192.334641,17.254902 C191.356863,17.254902 190.551634,17.1973856 189.918954,17.0823529 C189.286275,16.9673203 188.768627,16.7947712 188.366013,16.6797386 L188.366013,0.402614379 L189.746405,0.11503268 L189.746405,6.38431373 L189.688889,6.38431373 Z M189.688889,15.5869281 C189.918954,15.6444444 190.206536,15.7019608 190.60915,15.8169935 C191.011765,15.8745098 191.586928,15.9320261 192.277124,15.9320261 C193.484967,15.9320261 194.405229,15.5294118 195.152941,14.724183 C195.900654,13.9189542 196.245752,12.8261438 196.245752,11.330719 C196.245752,10.6980392 196.188235,10.1228758 196.073203,9.54771242 C195.95817,8.97254902 195.728105,8.5124183 195.440523,8.10980392 C195.152941,7.70718954 194.807843,7.3620915 194.347712,7.13202614 C193.887582,6.90196078 193.312418,6.7869281 192.622222,6.7869281 C192.277124,6.7869281 191.989542,6.84444444 191.701961,6.90196078 C191.414379,6.95947712 191.126797,7.0745098 190.896732,7.13202614 C190.666667,7.24705882 190.436601,7.3620915 190.206536,7.47712418 C190.033987,7.59215686 189.861438,7.70718954 189.746405,7.82222222 L189.746405,15.5869281 L189.688889,15.5869281 Z" id="Shape"></path><path d="M200.04183,11.330719 C200.04183,10.3529412 200.156863,9.49019608 200.444444,8.74248366 C200.732026,7.99477124 201.077124,7.41960784 201.537255,6.90196078 C201.997386,6.38431373 202.515033,6.03921569 203.090196,5.80915033 C203.665359,5.57908497 204.240523,5.46405229 204.873203,5.46405229 C206.196078,5.46405229 207.288889,5.92418301 208.094118,6.7869281 C208.899346,7.70718954 209.301961,9.0875817 209.301961,10.9281046 C209.301961,11.0431373 209.301961,11.1581699 209.301961,11.2732026 C209.301961,11.3882353 209.301961,11.503268 209.244444,11.6183007 L201.537255,11.6183007 C201.594771,12.9986928 201.939869,14.0339869 202.515033,14.7816993 C203.147712,15.5294118 204.12549,15.8745098 205.505882,15.8745098 C206.253595,15.8745098 206.828758,15.8169935 207.288889,15.6444444 C207.74902,15.4718954 208.036601,15.3568627 208.266667,15.2993464 L208.496732,16.5071895 C208.324183,16.6222222 207.921569,16.7372549 207.403922,16.9098039 C206.886275,17.0823529 206.196078,17.1398693 205.505882,17.1398693 C204.528105,17.1398693 203.722876,16.9673203 203.03268,16.6797386 C202.342484,16.3921569 201.76732,15.9895425 201.364706,15.4718954 C200.904575,14.9542484 200.616993,14.3215686 200.386928,13.6313725 C200.156863,12.9411765 200.04183,12.1934641 200.04183,11.330719 Z M207.806536,10.4104575 C207.806536,9.26013072 207.518954,8.33986928 207.001307,7.70718954 C206.48366,7.0745098 205.793464,6.72941176 204.815686,6.72941176 C204.298039,6.72941176 203.895425,6.84444444 203.49281,7.01699346 C203.090196,7.24705882 202.745098,7.47712418 202.457516,7.82222222 C202.169935,8.16732026 201.939869,8.56993464 201.76732,9.03006536 C201.594771,9.49019608 201.537255,9.9503268 201.479739,10.4104575 L207.806536,10.4104575 Z" id="Shape"></path><path d="M212.350327,6.09673203 C212.752941,5.98169935 213.328105,5.86666667 214.018301,5.69411765 C214.708497,5.52156863 215.571242,5.46405229 216.54902,5.46405229 C217.411765,5.46405229 218.101961,5.57908497 218.619608,5.80915033 C219.194771,6.03921569 219.597386,6.38431373 219.942484,6.84444444 C220.287582,7.30457516 220.517647,7.82222222 220.63268,8.45490196 C220.747712,9.0875817 220.862745,9.77777778 220.862745,10.5830065 L220.862745,16.8522876 L219.482353,16.8522876 L219.482353,11.0431373 C219.482353,10.2379085 219.424837,9.60522876 219.309804,9.03006536 C219.194771,8.45490196 219.022222,8.05228758 218.792157,7.70718954 C218.562092,7.3620915 218.216993,7.13202614 217.814379,6.95947712 C217.411765,6.7869281 216.894118,6.72941176 216.318954,6.72941176 C215.686275,6.72941176 215.111111,6.7869281 214.65098,6.84444444 C214.19085,6.90196078 213.845752,6.95947712 213.730719,7.01699346 L213.730719,16.8522876 L212.350327,16.8522876 L212.350327,6.09673203 Z" id="Path"></path><path d="M228.569935,11.330719 C228.569935,10.3529412 228.684967,9.49019608 228.972549,8.74248366 C229.260131,7.99477124 229.605229,7.41960784 230.065359,6.90196078 C230.52549,6.38431373 231.043137,6.03921569 231.618301,5.80915033 C232.193464,5.57908497 232.768627,5.46405229 233.401307,5.46405229 C234.724183,5.46405229 235.816993,5.92418301 236.622222,6.7869281 C237.427451,7.70718954 237.830065,9.0875817 237.830065,10.9281046 C237.830065,11.0431373 237.830065,11.1581699 237.830065,11.2732026 C237.830065,11.3882353 237.830065,11.503268 237.772549,11.6183007 L230.065359,11.6183007 C230.122876,12.9986928 230.467974,14.0339869 231.043137,14.7816993 C231.675817,15.5294118 232.653595,15.8745098 234.033987,15.8745098 C234.781699,15.8745098 235.356863,15.8169935 235.816993,15.6444444 C236.277124,15.4718954 236.564706,15.3568627 236.794771,15.2993464 L237.024837,16.5071895 C236.852288,16.6222222 236.449673,16.7372549 235.932026,16.9098039 C235.414379,17.0823529 234.724183,17.1398693 234.033987,17.1398693 C233.056209,17.1398693 232.25098,16.9673203 231.560784,16.6797386 C230.870588,16.3921569 230.295425,15.9895425 229.89281,15.4718954 C229.43268,14.9542484 229.145098,14.3215686 228.915033,13.6313725 C228.684967,12.9411765 228.569935,12.1934641 228.569935,11.330719 Z M236.392157,10.4104575 C236.392157,9.26013072 236.104575,8.33986928 235.586928,7.70718954 C235.069281,7.0745098 234.379085,6.72941176 233.401307,6.72941176 C232.88366,6.72941176 232.481046,6.84444444 232.078431,7.01699346 C231.675817,7.24705882 231.330719,7.47712418 231.043137,7.82222222 C230.755556,8.16732026 230.52549,8.56993464 230.352941,9.03006536 C230.180392,9.49019608 230.122876,9.9503268 230.065359,10.4104575 L236.392157,10.4104575 Z" id="Shape"></path><path d="M242.833987,15.9895425 C242.833987,16.3346405 242.718954,16.6222222 242.546405,16.8522876 C242.31634,17.0823529 242.028758,17.1973856 241.68366,17.1973856 C241.338562,17.1973856 241.05098,17.0823529 240.820915,16.8522876 C240.59085,16.6222222 240.533333,16.3346405 240.533333,15.9895425 C240.533333,15.6444444 240.648366,15.3568627 240.820915,15.1267974 C241.05098,14.896732 241.338562,14.7816993 241.68366,14.7816993 C242.028758,14.7816993 242.31634,14.896732 242.546405,15.1267974 C242.718954,15.4143791 242.833987,15.6444444 242.833987,15.9895425 Z" id="Path"></path></g><g id="Group" transform="translate(334.745098, 50.614379)" fill="#025A8B"><path d="M2.0130719,0.17254902 C2.41568627,1.4379085 2.87581699,2.70326797 3.22091503,3.79607843 C3.62352941,4.94640523 4.02614379,6.03921569 4.37124183,7.13202614 C4.77385621,8.2248366 5.11895425,9.26013072 5.52156863,10.2954248 C5.92418301,11.330719 6.32679739,12.3660131 6.7869281,13.4013072 C7.24705882,12.3660131 7.6496732,11.330719 8.05228758,10.2954248 C8.45490196,9.26013072 8.85751634,8.2248366 9.26013072,7.13202614 C9.6627451,6.03921569 10.0653595,4.94640523 10.4104575,3.79607843 C10.8130719,2.64575163 11.2156863,1.4379085 11.6183007,0.11503268 L13.1712418,0.11503268 C12.5385621,2.0130719 11.9633987,3.68104575 11.3882353,5.11895425 C10.8705882,6.55686275 10.4104575,7.82222222 9.9503268,8.97254902 C9.49019608,10.1228758 9.0875817,11.2156863 8.68496732,12.1934641 C8.28235294,13.1712418 7.87973856,14.1490196 7.41960784,15.1267974 L6.03921569,15.1267974 C5.63660131,14.1490196 5.17647059,13.1137255 4.77385621,12.1359477 C4.37124183,11.1581699 3.91111111,10.1228758 3.50849673,8.91503268 C3.04836601,7.76470588 2.58823529,6.44183007 2.07058824,5.06143791 C1.55294118,3.62352941 0.977777778,1.95555556 0.345098039,0.0575163399 L2.0130719,0.0575163399 L2.0130719,0.17254902 Z" id="Path"></path><path d="M15.8745098,14.2640523 C15.8745098,14.6091503 15.7594771,14.896732 15.5869281,15.1267974 C15.3568627,15.3568627 15.069281,15.4718954 14.724183,15.4718954 C14.379085,15.4718954 14.0915033,15.3568627 13.8614379,15.1267974 C13.6313725,14.896732 13.5738562,14.6091503 13.5738562,14.2640523 C13.5738562,13.9189542 13.6888889,13.6313725 13.8614379,13.4013072 C14.0915033,13.1712418 14.379085,13.0562092 14.724183,13.0562092 C15.069281,13.0562092 15.3568627,13.1712418 15.5869281,13.4013072 C15.7594771,13.6888889 15.8745098,13.9189542 15.8745098,14.2640523 Z" id="Path"></path></g><path d="M79.372549,5.06143791 C79.372549,5.06143791 78.7398693,-5.69411765 72.6431373,4.25620915 C68.6745098,10.6980392 60.9098039,20.9359477 41.2392157,30.1960784 L41.2392157,58.2640523 C41.2392157,58.2065359 80.6379085,52.1098039 79.372549,5.06143791 L79.372549,5.06143791 Z" id="Path" fill="#D52786"></path><path d="M41.2392157,30.1385621 L41.2392157,58.3215686 C41.2392157,58.3215686 53.0300654,64.303268 55.1581699,74.0235294 C56.0784314,78.2797386 59.0117647,75.6339869 59.6444444,73.7934641 C59.7019608,73.7359477 68.6169935,44.6901961 41.2392157,30.1385621 L41.2392157,30.1385621 Z" id="Path" fill="#025A8B"></path><path d="M0.0575163399,13.9764706 C0.0575163399,13.9764706 0.690196078,3.22091503 6.7869281,13.1712418 C10.7555556,19.6130719 18.5202614,29.8509804 38.1908497,39.1111111 L38.1908497,67.179085 C38.1908497,67.1215686 -1.26535948,61.0248366 0.0575163399,13.9764706 L0.0575163399,13.9764706 Z" id="Path" fill="#025A8B"></path><path d="M38.1908497,39.0535948 L38.1908497,67.2366013 C38.1908497,67.2366013 26.4,73.2183007 24.2718954,82.9385621 C23.351634,87.1947712 20.4183007,84.5490196 19.7856209,82.7084967 C19.7281046,82.7084967 10.7555556,53.6052288 38.1908497,39.0535948 L38.1908497,39.0535948 Z" id="Path" fill="#D52786"></path></g></g></g></svg>