<svg width="200" height="73" viewBox="0 0 200 73" fill="none" xmlns="http://www.w3.org/2000/svg">
<g id="Logo_ACHSE+Unterzeile 1">
<path id="Vector" d="M4.4231 29.0852C4.4231 15.9199 14.5101 5.24658 26.9521 5.24658C39.3942 5.24658 49.4812 15.9199 49.4812 29.0852C49.4812 42.2505 39.3942 52.9238 26.9521 52.9238C14.5101 52.9238 4.4231 42.2505 4.4231 29.0852Z" fill="#C90039"/>
<path id="Vector_2" d="M13.6172 24.7087C13.6172 15.2968 20.8284 7.66382 29.7257 7.66382C38.623 7.66382 45.8342 15.2942 45.8342 24.7087C45.8342 25.9315 45.7126 27.1209 45.4814 28.2716C43.9341 20.5691 37.4673 14.7897 29.7257 14.7897C21.9841 14.7897 15.5173 20.5691 13.97 28.2716C13.7388 27.1234 13.6172 25.9315 13.6172 24.7087Z" fill="white"/>
<path id="Vector_3" d="M36.8397 18.8571C44.5448 23.5631 47.1846 33.9867 42.7347 42.1397C38.2873 50.2927 28.4363 53.0859 20.7312 48.3774C19.7313 47.7673 18.8165 47.0593 17.9917 46.2741C25.0691 48.7069 33.0321 45.6717 36.903 38.5768C40.7738 31.4818 39.2775 22.6672 33.7474 17.3975C34.8033 17.7604 35.8398 18.2444 36.8397 18.8546V18.8571Z" fill="white"/>
<path id="Vector_4" d="M30.0176 43.0613C22.3125 47.7673 12.4615 44.9741 8.01408 36.8236C3.56667 28.6706 6.20641 18.247 13.9091 13.5411C14.909 12.931 15.9455 12.447 17.0014 12.084C11.4713 17.3537 9.97504 26.1683 13.8458 33.2633C17.7167 40.3582 25.6797 43.3934 32.7571 40.9606C31.9323 41.7458 31.0175 42.4538 30.0176 43.0639V43.0613Z" fill="white"/>
<path id="Vector_5" d="M18.4368 26.6885C20.517 26.1119 22.6239 27.52 23.1446 29.8292C23.6628 32.141 22.3977 34.4811 20.3175 35.0578C18.2373 35.6344 16.128 34.2263 15.6098 31.9171C15.0915 29.6053 16.3567 27.2652 18.4368 26.6911V26.6885Z" fill="white" stroke="white" stroke-width="1.02" stroke-miterlimit="3.86"/>
<path id="Vector_6" d="M32.1805 33.6907C33.5795 33.3226 34.9955 34.2236 35.3458 35.7039C35.6937 37.1841 34.8446 38.6824 33.4457 39.0531C32.0467 39.4213 30.6308 38.5202 30.2804 37.04C29.9301 35.5597 30.7816 34.0614 32.1805 33.6933V33.6907Z" fill="white" stroke="white" stroke-width="0.67" stroke-miterlimit="3.86"/>
<path id="Vector_7" d="M26.7771 17.0783C29.8353 16.2726 32.9324 18.2419 33.6964 21.4779C34.4603 24.7139 32.5991 27.9911 29.5409 28.7968C26.4827 29.6026 23.3856 27.6332 22.6216 24.3973C21.8577 21.1613 23.7189 17.8841 26.7771 17.0783Z" fill="white" stroke="white" stroke-width="0.89" stroke-miterlimit="3.86"/>
<path id="Vector_8" fill-rule="evenodd" clip-rule="evenodd" d="M77.2872 48.6324L77.9149 53.1402H82.9292L80.0462 33.5775C79.1679 27.6745 73.0904 22.8347 66.6334 22.8347C58.7385 22.8347 52.408 29.6645 52.408 38.2191C52.408 46.7737 58.8626 53.8018 66.5701 53.8018C69.4532 53.8018 72.9615 52.476 74.8421 50.8181L77.2872 48.6299V48.6324ZM66.8207 27.6771C72.0856 27.6771 76.3457 32.4525 76.3457 38.2217C76.3457 43.9909 72.0223 48.8332 66.7575 48.8332C61.4926 48.8332 57.106 44.1247 57.106 38.3556C57.106 32.5864 61.3052 27.6797 66.8207 27.6797V27.6771Z" fill="#9BA1A5"/>
<path id="Vector_9" d="M157.129 30.599C156.579 28.1379 154.803 26.8971 152.463 26.8971C150.302 26.8971 147.237 27.3682 147.237 30.7895C147.237 32.5427 148.098 33.5364 149.283 34.1517C149.85 34.4451 150.492 34.6588 151.139 34.8416C151.774 35.0218 152.453 35.184 153.125 35.3771C153.747 35.5547 154.691 35.7787 155.755 36.1313C156.801 36.4815 157.947 36.9526 159.007 37.6296C161.105 38.9683 162.866 41.0921 162.866 44.7143C162.866 50.4062 158.496 53.8636 151.769 53.8636C147.877 53.8636 141.269 51.6393 140.909 44.2972H145.826C146.254 47.6774 148.324 49.8785 151.886 49.8785C154.64 49.8785 157.99 49.1293 157.99 45.0464C157.99 43.2006 157.093 42.1013 155.82 41.3676C155.205 41.0123 154.499 40.7369 153.769 40.4872C153.049 40.24 152.271 40.0109 151.477 39.7483C150.599 39.4446 149.565 39.1665 148.507 38.8087C147.465 38.456 146.436 38.0338 145.522 37.4468C143.738 36.2987 142.354 34.4889 142.354 31.1242C142.354 25.9703 146.74 22.9146 152.747 22.9146C156.209 22.9146 161.545 24.8479 162.063 30.6016H157.119L157.129 30.599Z" fill="#9BA1A5"/>
<path id="Vector_10" d="M172.075 36.018C172.075 36.0875 173.712 36.0875 173.712 36.0875H186.407C189.091 36.0875 189.351 36.018 189.351 34.8415C189.351 34.3575 189.088 33.8041 188.631 33.042C187.976 31.8656 187.322 30.9645 186.602 30.2025C184.901 28.4725 182.415 27.4325 180.189 27.4325C177.962 27.4325 175.15 28.748 173.513 30.617C172.204 32.2079 171.289 33.9405 171.289 34.978C171.289 35.5315 171.681 35.9485 172.075 36.0154V36.018ZM166.073 38.3787C166.073 29.9451 172.337 22.9016 180.305 22.9016C188.273 22.9016 194.538 29.9451 194.538 38.3787C194.538 39.1871 194.48 39.9851 194.368 40.7626H174.247C171.537 40.7626 171.352 40.8321 171.352 42.0214C171.352 42.5106 171.756 43.1078 172.08 43.9213C172.739 45.1107 173.323 45.937 174.05 46.7068C175.768 48.4548 178.279 49.3378 180.527 49.3378C182.775 49.3378 185.616 48.1742 187.268 46.2872C187.56 45.9319 187.894 45.6255 188.142 45.2651L190.981 48.6118C188.39 51.8143 184.595 53.8558 180.303 53.8558C172.333 53.8558 166.07 46.8123 166.07 38.3787H166.073Z" fill="#9BA1A5"/>
<path id="Vector_11" d="M109.426 27.543C107.986 26.2172 107.295 25.6869 106.042 24.9558C103.66 23.6969 101.028 22.9658 98.5853 22.9658C90.8777 22.9658 84.9219 29.5305 84.9219 38.2833C84.9219 47.0361 91.0651 53.8659 99.0865 53.8659C101.154 53.8659 103.159 53.2687 105.227 52.1411C106.731 51.3456 107.483 50.7484 109.176 49.2244L105.979 45.8416C103.911 47.9629 101.906 48.9592 99.5876 48.9592C93.8848 48.9592 89.3717 44.3176 89.3717 38.6154C89.3717 32.5811 93.571 28.0039 99.2105 28.0039C102.094 28.0039 104.098 28.7324 106.106 30.7893L109.426 27.5405V27.543Z" fill="#9BA1A5"/>
<path id="Vector_12" d="M113.19 53.14H118.141V35.6317C118.141 31.3222 121.963 27.5431 126.226 27.5431C129.861 27.5431 132.493 31.124 132.493 36.229V53.14H137.444V33.9095C137.444 27.6744 132.807 22.8345 126.73 22.8345C126.165 22.8345 125.54 22.9015 124.975 22.9658L123.345 23.231C122.092 23.4292 121.277 23.6944 120.837 23.8952C119.898 24.4899 119.209 24.6907 118.895 24.6907C118.521 24.6907 118.144 24.0934 118.144 23.0997V5.32886H113.193V53.14H113.19Z" fill="#9BA1A5"/>
<path id="Vector_13" fill-rule="evenodd" clip-rule="evenodd" d="M8.49346 65.5227L9.22578 67.698H10.1673L7.71979 60.5876H6.78797L4.22852 67.698H5.1798L5.93158 65.5227H8.49103H8.49346ZM8.22584 64.7272H6.21623L7.24536 61.7564L8.22584 64.7272Z" fill="#303030"/>
<path id="Vector_14" d="M12.1161 60.5876H11.3936V67.7006H12.1161V60.5876Z" fill="#303030"/>
<path id="Vector_15" d="M14.5734 60.5876H13.8508V67.7006H14.5734V60.5876Z" fill="#303030"/>
<path id="Vector_16" fill-rule="evenodd" clip-rule="evenodd" d="M17.0573 60.5876H16.325V61.5144H17.0573V60.5876ZM17.0573 62.9535H16.325V67.698H17.0573V62.9535Z" fill="#303030"/>
<path id="Vector_17" fill-rule="evenodd" clip-rule="evenodd" d="M21.4171 64.8585L21.3222 64.8688C21.0838 64.8894 20.9135 64.8997 20.6653 64.9203C20.4464 64.9409 20.2931 64.9615 20.0741 65.0001C19.9695 65.0207 19.9038 65.031 19.7992 65.0516C19.1326 65.2035 18.7433 65.5047 18.5511 65.8986C18.5025 66.0093 18.4173 66.241 18.427 66.5319C18.4465 67.0467 18.7409 67.4998 19.2932 67.7109C19.5511 67.8216 19.826 67.8319 19.9014 67.8319C20.0547 67.8422 20.5291 67.8422 21.006 67.5101C21.2249 67.3582 21.4342 67.1265 21.4828 67.057C21.512 67.2192 21.5217 67.2784 21.6166 67.4406C21.6653 67.5101 21.7115 67.5822 21.7796 67.6311C21.9694 67.7727 22.2735 67.7624 22.3027 67.7624C22.5119 67.7521 22.6652 67.7032 22.7504 67.6723V66.9978C22.7309 66.9978 22.6068 67.039 22.5119 67.039C22.2078 67.039 22.1981 66.7764 22.1884 66.6863C22.1786 66.5653 22.1884 66.4752 22.1786 66.3542V64.6217C22.1786 64.5625 22.1981 64.148 22.1032 63.8365C21.8356 62.9895 20.9427 62.8093 20.3904 62.8093C20.2858 62.8093 19.8576 62.8093 19.4756 63.0101C18.7141 63.404 18.6655 64.2098 18.6582 64.3694L19.4489 64.4183V64.3179C19.4586 64.1969 19.4586 63.664 20.0012 63.4812C20.0863 63.4503 20.2104 63.422 20.4002 63.422C20.6191 63.422 20.8673 63.4426 21.0765 63.6228C21.4098 63.8957 21.4196 64.3282 21.4196 64.771V64.8611L21.4171 64.8585ZM21.4171 65.4738C21.4171 65.5639 21.4269 65.6643 21.4269 65.757C21.4269 66.0891 21.3782 66.4829 21.0546 66.8047C21.0352 66.8253 20.95 66.8948 20.9208 66.9154C20.5875 67.1677 20.1982 67.1574 20.1106 67.1574C20.1106 67.1574 19.5778 67.1986 19.3491 66.7842C19.264 66.6426 19.264 66.4932 19.264 66.4521C19.264 66.1097 19.4927 65.8574 19.8162 65.7261C19.9695 65.6566 20.1204 65.6257 20.2736 65.5948C20.4829 65.5433 20.6361 65.515 20.8551 65.4738C21.0643 65.4326 21.2079 65.4223 21.4171 65.3837V65.4738Z" fill="#303030"/>
<path id="Vector_18" d="M24.7308 62.9562H23.9692V67.7008H24.7308V65.0002C24.7308 64.9488 24.7307 64.5986 24.8062 64.3464C24.9205 64.0143 25.2928 63.5612 25.901 63.5612C26.0908 63.5612 26.3 63.5921 26.4922 63.7028C26.9009 63.9448 26.9399 64.318 26.9399 64.6501V67.7033H27.6916V64.7016C27.6916 64.4493 27.6916 64.1275 27.6162 63.8649C27.5408 63.6539 27.4167 63.4222 27.2342 63.2394C27.0347 63.0489 26.6528 62.8069 26.1394 62.8069C25.5385 62.8069 25.1298 63.1081 24.9011 63.3913C24.8159 63.4917 24.7478 63.6333 24.7283 63.6538V62.9588L24.7308 62.9562Z" fill="#303030"/>
<path id="Vector_19" d="M32.436 62.9561H29.1637V63.6511H31.4944L28.9155 67.0339V67.7006H32.4944V67.0339H29.8279L32.436 63.5996V62.9561Z" fill="#303030"/>
<path id="Vector_20" d="M43.214 62.5829C43.1946 62.5212 43.0997 62.2817 43.0705 62.2097C43.0315 62.1299 42.8807 61.7875 42.6325 61.4734C42.4695 61.2726 42.1752 60.9688 41.6813 60.7268C41.3966 60.5749 40.8808 60.405 40.1582 60.405C38.8542 60.405 38.0635 60.9379 37.5696 61.5429C37.1609 62.0372 36.7521 62.8713 36.7521 64.1224C36.7424 65.3607 37.1511 66.2179 37.5428 66.7199C37.6961 66.9105 37.8105 67.0211 37.9808 67.173C38.409 67.536 39.0367 67.8784 40.0366 67.8784C40.1899 67.8784 40.6083 67.8681 41.0657 67.7368C41.5596 67.5849 41.9221 67.3352 42.1216 67.173C42.1508 67.1524 42.1776 67.1215 42.2165 67.0932C43.1021 66.3183 43.3016 65.3607 43.3503 65.1187L42.3795 64.9977C42.3601 65.0775 42.3236 65.3916 42.2092 65.6825C41.9513 66.308 41.3431 67.0932 40.1436 67.0932C40.0098 67.0932 39.5719 67.0829 39.1534 66.8924C39.0586 66.8512 38.7642 66.7019 38.4868 66.3879C38.3068 66.1871 38.2022 66.0146 38.0975 65.8138C37.9272 65.492 37.7448 64.9282 37.7448 64.1224C37.7448 64.0014 37.6888 62.7734 38.3919 61.9368L38.5257 61.7952C38.6012 61.7257 38.6693 61.6742 38.7544 61.6047C39.0294 61.3936 39.4867 61.1619 40.1534 61.1619C40.82 61.1619 41.3236 61.4245 41.5912 61.6562C41.6204 61.6768 41.7445 61.7875 41.8491 61.8982C42.163 62.2611 42.2676 62.673 42.3163 62.7837L43.2213 62.5829H43.214Z" fill="#303030"/>
<path id="Vector_21" d="M44.5278 60.5876V67.698H45.2893V65.2807C45.2893 64.7761 45.3283 64.5058 45.4231 64.2638C45.4523 64.2124 45.4329 64.2329 45.4791 64.1428C45.737 63.6486 46.1749 63.5096 46.5253 63.5096C46.8197 63.5096 47.0119 63.6202 47.1432 63.7309C47.2089 63.8005 47.3038 63.8828 47.3719 64.063C47.4863 64.3539 47.4863 64.6165 47.4863 65.1906V67.698H48.2575V64.7478C48.2575 64.7066 48.2673 64.184 48.1626 63.8519C47.9048 63.005 47.2114 62.7939 46.6202 62.8042C46.6007 62.8042 46.4669 62.8145 46.3623 62.8248C46.2382 62.8454 45.8392 62.9046 45.4572 63.247C45.3915 63.3062 45.3526 63.3577 45.2869 63.4297V60.5902H44.5254L44.5278 60.5876Z" fill="#303030"/>
<path id="Vector_22" d="M50.7098 62.9561H49.9482V67.7007H50.7098V65.3323C50.7098 64.8174 50.7657 64.5471 50.8995 64.3051C51.0698 64.0039 51.3934 63.7413 51.936 63.7413C52.0795 63.7413 52.1841 63.7516 52.2401 63.7619V62.8969C52.1257 62.8969 51.3253 62.8454 50.8119 63.6332C50.773 63.695 50.7462 63.7542 50.7073 63.8237V62.9587L50.7098 62.9561Z" fill="#303030"/>
<path id="Vector_23" fill-rule="evenodd" clip-rule="evenodd" d="M57.5586 65.3219C57.5586 65.0207 57.5392 64.7478 57.4637 64.4466C57.3689 64.094 57.1791 63.6924 56.8458 63.3577C56.5319 63.0565 56.094 62.8042 55.3787 62.8042C55.2644 62.8042 54.751 62.8145 54.3131 63.0565C53.7316 63.3783 53.172 64.1454 53.1623 65.3322C53.1623 65.4841 53.1331 66.4804 53.8095 67.2064C53.9433 67.3583 54.009 67.4072 54.0844 67.4689C54.3423 67.6594 54.7607 67.8525 55.369 67.8525C56.2254 67.8525 56.7679 67.4406 57.0915 66.9669C57.3105 66.6555 57.4151 66.3234 57.4345 66.2307C57.5197 65.9398 57.5586 65.636 57.5586 65.3245V65.3219ZM56.7412 65.3219C56.7314 65.6643 56.6755 66.1869 56.4735 66.5499C56.111 67.1935 55.5028 67.2038 55.369 67.2038C54.987 67.2038 54.7315 67.0725 54.5685 66.9412C54.4931 66.882 54.408 66.7996 54.2936 66.6297C54.1233 66.3568 53.9895 65.9552 53.9895 65.3297C53.9895 65.2498 53.9798 64.5239 54.3228 64.0116C54.3617 63.9601 54.3982 63.9009 54.4566 63.8391C54.6367 63.6383 54.9237 63.4658 55.3617 63.4452C56.094 63.4246 56.7412 63.8983 56.7412 65.2473V65.3168V65.3219Z" fill="#303030"/>
<path id="Vector_24" d="M59.7823 62.9562H59.0208V67.7008H59.7823V65.0002C59.7823 64.9488 59.7823 64.5986 59.8577 64.3464C59.972 64.0143 60.3443 63.5612 60.9525 63.5612C61.1423 63.5612 61.3515 63.5921 61.5437 63.7028C61.9524 63.9448 61.9914 64.318 61.9914 64.6501V67.7033H62.7432V64.7016C62.7432 64.4493 62.7431 64.1275 62.6677 63.8649C62.5923 63.6539 62.4682 63.4222 62.2858 63.2394C62.0863 63.0489 61.7043 62.8069 61.1909 62.8069C60.5924 62.8069 60.1813 63.1081 59.9526 63.3913C59.8674 63.4917 59.7993 63.6333 59.7823 63.6538V62.9588V62.9562Z" fill="#303030"/>
<path id="Vector_25" fill-rule="evenodd" clip-rule="evenodd" d="M65.2321 60.5876H64.4998V61.5144H65.2321V60.5876ZM65.2321 62.9535H64.4998V67.698H65.2321V62.9535Z" fill="#303030"/>
<path id="Vector_26" d="M70.4385 64.3669C70.4288 64.2871 70.3899 63.9731 70.2293 63.6822C69.8862 63.1081 69.2586 62.9176 69.1442 62.8867C68.8595 62.8172 68.6406 62.8069 68.5262 62.8069C67.9375 62.8069 67.5263 62.9794 67.2879 63.1699C67.0397 63.3604 66.794 63.6847 66.7842 64.197C66.7648 65.2345 67.7647 65.4559 68.3924 65.5975L68.8206 65.6876C69.0201 65.7365 69.3729 65.788 69.5627 65.9708C69.5919 65.9914 69.6186 66.0197 69.6381 66.0403C69.7038 66.1201 69.7524 66.2514 69.7524 66.4445C69.7524 66.9078 69.4191 67.2399 68.6965 67.2399C68.6479 67.2399 68.373 67.2399 68.154 67.1704C68.1151 67.1601 67.9642 67.1112 67.8109 66.9799C67.5068 66.7276 67.4582 66.4058 67.4582 66.1252V66.0351L66.592 66.1767C66.6212 66.4496 66.6967 66.7302 66.8597 66.9928C66.9156 67.1035 67.0592 67.3249 67.3268 67.5154C67.575 67.6853 68.0323 67.8578 68.66 67.8578C69.9252 67.8578 70.5553 67.1138 70.5553 66.3569C70.5553 66.3157 70.5456 66.1149 70.4896 65.945C70.4045 65.6927 70.2804 65.5331 70.0322 65.3607C69.7184 65.1393 69.3753 65.0595 69.0517 64.9771L68.6235 64.8664C68.424 64.8149 67.9861 64.7145 67.7866 64.5652C67.682 64.4957 67.5482 64.3541 67.5385 64.143C67.5287 63.7903 67.8523 63.4273 68.4338 63.4273C68.7379 63.4273 69.1393 63.5174 69.424 63.8212C69.5675 63.9834 69.6235 64.143 69.6235 64.4854L70.441 64.3747L70.4385 64.3669Z" fill="#303030"/>
<path id="Vector_27" d="M75.9491 64.3952C75.9394 64.3051 75.8931 64.1636 75.8542 64.0632C75.825 63.9834 75.7788 63.8521 75.6547 63.6693C75.5209 63.4685 75.4066 63.3681 75.3214 63.2857C74.7594 62.8017 74.0563 62.812 73.9225 62.8017C73.341 62.7914 72.9517 62.9613 72.7036 63.1338C72.6379 63.1853 72.4846 63.2857 72.324 63.4762C72.0004 63.8495 71.7061 64.4725 71.7061 65.3709C71.7061 65.4816 71.7158 65.7931 71.7912 66.1175C72.0199 67.0932 72.6281 67.5386 73.0661 67.7085C73.2461 67.7677 73.504 67.8398 73.9225 67.8501C74.864 67.8501 75.3701 67.4562 75.6644 66.9851C75.9491 66.5526 76.0172 66.1381 76.0367 65.9888L75.2168 65.909C75.1973 66.0197 75.1876 66.0995 75.1681 66.2102C75.1122 66.4522 75.0149 66.6427 74.9589 66.7354C74.9492 66.7457 74.8932 66.8358 74.8154 66.9053C74.645 67.0777 74.3288 67.2374 73.9006 67.2271C73.4334 67.2065 73.1585 67.0057 72.9688 66.7843C72.5965 66.3415 72.5406 65.7365 72.5406 65.2834C72.5406 64.7093 72.6646 64.2974 72.7984 64.0554C72.9785 63.713 73.3215 63.381 73.9322 63.3912C74.3215 63.4015 74.5599 63.5328 74.7326 63.6924C74.9321 63.883 75.0367 64.0657 75.1146 64.4879L75.9515 64.3978L75.9491 64.3952Z" fill="#303030"/>
<path id="Vector_28" d="M77.1924 60.5876V67.698H77.9539V65.2807C77.9539 64.7761 77.9928 64.5058 78.0877 64.2638C78.1169 64.2124 78.0974 64.2329 78.1437 64.1428C78.4016 63.6486 78.8395 63.5096 79.1898 63.5096C79.4842 63.5096 79.6764 63.6202 79.8078 63.7309C79.8735 63.8005 79.9684 63.8828 80.0365 64.063C80.1508 64.3539 80.1508 64.6165 80.1508 65.1906V67.698H80.9221V64.7478C80.9221 64.7066 80.9318 64.184 80.8272 63.8519C80.5693 63.005 79.8759 62.7939 79.2847 62.8042C79.2652 62.8042 79.1314 62.8145 79.0268 62.8248C78.9027 62.8454 78.5037 62.9046 78.1218 63.247C78.0561 63.3062 78.0171 63.3577 77.9515 63.4297V60.5902H77.1899L77.1924 60.5876Z" fill="#303030"/>
<path id="Vector_29" fill-rule="evenodd" clip-rule="evenodd" d="M86.5932 65.4636V65.3735C86.5932 65.2628 86.6321 64.2563 86.0896 63.5612C85.8049 63.1879 85.2794 62.8069 84.5276 62.8069C84.4522 62.8069 84.2333 62.8172 83.9948 62.8764C83.6615 62.9665 82.8343 63.2806 82.4913 64.3567C82.4353 64.5472 82.3672 64.8715 82.3672 65.3323C82.3672 65.4739 82.3769 66.0866 82.6348 66.6427C82.664 66.7122 82.7394 66.8744 82.8927 67.0752C83.2066 67.4768 83.7296 67.8398 84.5398 67.8501C85.4716 67.8604 86.0069 67.397 86.3305 66.8641C86.491 66.6015 86.5591 66.3312 86.5981 66.2488L85.8268 66.1381C85.8171 66.169 85.7782 66.3492 85.7125 66.5114C85.6565 66.6427 85.5787 66.7637 85.4643 66.895C85.1967 67.1782 84.912 67.2477 84.6371 67.2477C84.4084 67.2477 84.114 67.1859 83.8756 67.0366C83.552 66.8152 83.1895 66.29 83.1895 65.546V65.4662H86.5981L86.5932 65.4636ZM83.2041 64.8895C83.2139 64.8097 83.2333 64.5986 83.3087 64.3747C83.5934 63.5174 84.2041 63.4273 84.479 63.4273C85.097 63.4273 85.4303 63.8289 85.5835 64.1224C85.7465 64.4339 85.7636 64.7969 85.7636 64.887H83.2041V64.8895Z" fill="#303030"/>
<path id="Vector_30" d="M88.8073 62.9561H88.0458V67.7007H88.8073V65.3323C88.8073 64.8174 88.8632 64.5471 88.997 64.3051C89.1674 64.0039 89.4909 63.7413 90.0335 63.7413C90.177 63.7413 90.2816 63.7516 90.3376 63.7619V62.8969C90.2233 62.8969 89.4228 62.8454 88.9095 63.6332C88.8705 63.695 88.8438 63.7542 88.8049 63.8237V62.9587L88.8073 62.9561Z" fill="#303030"/>
<path id="Vector_31" d="M99.6996 62.5931C99.6704 62.4412 99.6436 62.0782 99.4246 61.6457C99.2811 61.3626 99.1108 61.1824 99.0062 61.082C98.4344 60.5182 97.6827 60.4178 97.0939 60.4075C96.6462 60.4075 96.3713 60.4487 96.1694 60.5079C95.3981 60.7087 94.9699 61.2133 94.7899 61.5968C94.6001 61.9701 94.6099 62.3331 94.6099 62.4541C94.6196 62.7373 94.6853 62.9484 94.7339 63.0591C94.7534 63.1106 94.8094 63.2393 94.8969 63.3603C95.3908 64.0759 96.42 64.2664 97.0112 64.408L97.5829 64.5393C97.8676 64.6011 98.269 64.6809 98.5536 64.9512C98.7337 65.1211 98.8578 65.3348 98.8578 65.7261C98.848 66.3105 98.5828 66.622 98.3055 66.8228C97.943 67.0751 97.5148 67.1343 97.1547 67.1343C96.583 67.124 95.8312 66.9721 95.4516 66.1869C95.2716 65.8136 95.2522 65.3811 95.2522 65.291L94.2911 65.4223C94.2911 65.533 94.3301 65.9166 94.4614 66.2873C94.5004 66.3877 94.6318 66.7507 94.9553 67.0828C95.403 67.5668 96.0988 67.8783 97.1547 67.8783C98.9624 67.8783 99.792 66.8305 99.8188 65.7132C99.8188 65.5922 99.8285 65.1701 99.6193 64.7659C99.5633 64.6449 99.5049 64.5445 99.4198 64.4441C99.0305 63.9498 98.488 63.7902 98.05 63.6795C97.887 63.628 97.7727 63.61 97.6024 63.5585L96.8701 63.368C96.7265 63.3268 96.6316 63.3062 96.4905 63.2676C96.0039 63.126 95.549 62.8737 95.5392 62.261C95.5392 62.1812 95.549 61.8182 95.8434 61.535C96.0721 61.3034 96.5002 61.1412 97.0817 61.1412C97.9673 61.1412 98.4807 61.5247 98.6899 62.0782C98.7945 62.3408 98.7945 62.5622 98.8042 62.6626L99.7093 62.5931H99.6996Z" fill="#303030"/>
<path id="Vector_32" fill-rule="evenodd" clip-rule="evenodd" d="M105.349 65.4636V65.3735C105.349 65.2628 105.388 64.2563 104.845 63.5612C104.561 63.1879 104.037 62.8069 103.283 62.8069C103.208 62.8069 102.989 62.8172 102.75 62.8764C102.417 62.9665 101.59 63.2806 101.247 64.3567C101.191 64.5472 101.123 64.8715 101.123 65.3323C101.123 65.4739 101.133 66.0866 101.39 66.6427C101.42 66.7122 101.495 66.8744 101.648 67.0752C101.962 67.4768 102.485 67.8398 103.295 67.8501C104.23 67.8604 104.762 67.397 105.086 66.8641C105.249 66.6015 105.315 66.3312 105.354 66.2488L104.582 66.1381C104.573 66.169 104.534 66.3492 104.468 66.5114C104.412 66.6427 104.334 66.7637 104.22 66.895C103.955 67.1782 103.668 67.2477 103.393 67.2477C103.164 67.2477 102.87 67.1859 102.631 67.0366C102.308 66.8152 101.945 66.29 101.945 65.546V65.4662H105.354L105.349 65.4636ZM101.96 64.8895C101.969 64.8097 101.989 64.5986 102.064 64.3747C102.349 63.5174 102.96 63.4273 103.235 63.4273C103.853 63.4273 104.186 63.8289 104.339 64.1224C104.5 64.4339 104.519 64.7969 104.519 64.887H101.96V64.8895Z" fill="#303030"/>
<path id="Vector_33" d="M107.543 60.5876H106.818V67.7006H107.543V60.5876Z" fill="#303030"/>
<path id="Vector_34" d="M110.295 62.9562V61.4553H109.514V62.9562H108.792V63.6204H109.514V66.8744C109.514 67.1266 109.485 67.4896 109.818 67.6698C109.923 67.7316 110.132 67.7805 110.4 67.7805C110.684 67.7805 111.027 67.711 111.105 67.7007V67.0365C110.886 67.1061 110.696 67.1472 110.619 67.1472C110.468 67.1472 110.4 67.0855 110.351 66.9954C110.276 66.8538 110.295 66.6633 110.295 66.3415V63.6229H111.105V62.9588H110.295V62.9562Z" fill="#303030"/>
<path id="Vector_35" fill-rule="evenodd" clip-rule="evenodd" d="M116.487 65.4636V65.3735C116.487 65.2628 116.526 64.2563 115.983 63.5612C115.699 63.1879 115.176 62.8069 114.421 62.8069C114.346 62.8069 114.127 62.8172 113.888 62.8764C113.555 62.9665 112.728 63.2806 112.385 64.3567C112.329 64.5472 112.261 64.8715 112.261 65.3323C112.261 65.4739 112.271 66.0866 112.528 66.6427C112.558 66.7122 112.633 66.8744 112.786 67.0752C113.1 67.4768 113.623 67.8398 114.433 67.8501C115.365 67.8604 115.901 67.397 116.224 66.8641C116.387 66.6015 116.453 66.3312 116.492 66.2488L115.721 66.1381C115.711 66.169 115.672 66.3492 115.606 66.5114C115.55 66.6427 115.472 66.7637 115.358 66.895C115.09 67.1782 114.806 67.2477 114.531 67.2477C114.302 67.2477 114.008 67.1859 113.769 67.0366C113.446 66.8152 113.083 66.29 113.083 65.546V65.4662H116.492L116.487 65.4636ZM113.098 64.8895C113.108 64.8097 113.127 64.5986 113.202 64.3747C113.487 63.5174 114.098 63.4273 114.373 63.4273C114.991 63.4273 115.324 63.8289 115.477 64.1224C115.638 64.4339 115.657 64.7969 115.657 64.887H113.098V64.8895Z" fill="#303030"/>
<path id="Vector_36" d="M118.691 62.9562H117.93V67.7008H118.691V65.0002C118.691 64.9488 118.691 64.5986 118.766 64.3464C118.881 64.0143 119.253 63.5612 119.861 63.5612C120.051 63.5612 120.26 63.5921 120.453 63.7028C120.861 63.9448 120.9 64.318 120.9 64.6501V67.7033H121.652V64.7016C121.652 64.4493 121.652 64.1275 121.577 63.8649C121.501 63.6539 121.377 63.4222 121.195 63.2394C120.995 63.0489 120.613 62.8069 120.1 62.8069C119.501 62.8069 119.09 63.1081 118.861 63.3913C118.776 63.4917 118.708 63.6333 118.689 63.6538V62.9588L118.691 62.9562Z" fill="#303030"/>
<path id="Vector_37" fill-rule="evenodd" clip-rule="evenodd" d="M127.347 65.4636V65.3735C127.347 65.2628 127.386 64.2563 126.844 63.5612C126.559 63.1879 126.036 62.8069 125.282 62.8069C125.206 62.8069 124.988 62.8172 124.749 62.8764C124.416 62.9665 123.589 63.2806 123.246 64.3567C123.19 64.5472 123.121 64.8715 123.121 65.3323C123.121 65.4739 123.131 66.0866 123.389 66.6427C123.418 66.7122 123.494 66.8744 123.645 67.0752C123.958 67.4768 124.481 67.8398 125.292 67.8501C126.223 67.8604 126.759 67.397 127.082 66.8641C127.245 66.6015 127.311 66.3312 127.35 66.2488L126.579 66.1381C126.569 66.169 126.53 66.3492 126.464 66.5114C126.408 66.6427 126.331 66.7637 126.216 66.895C125.949 67.1782 125.664 67.2477 125.389 67.2477C125.16 67.2477 124.866 67.1859 124.627 67.0366C124.304 66.8152 123.941 66.29 123.941 65.546V65.4662H127.35L127.347 65.4636ZM123.958 64.8895C123.968 64.8097 123.988 64.5986 124.063 64.3747C124.348 63.5174 124.958 63.4273 125.233 63.4273C125.851 63.4273 126.185 63.8289 126.338 64.1224C126.501 64.4339 126.518 64.7969 126.518 64.887H123.958V64.8895Z" fill="#303030"/>
<path id="Vector_38" d="M129.561 62.9561H128.8V67.7007H129.561V65.3323C129.561 64.8174 129.617 64.5471 129.751 64.3051C129.922 64.0039 130.245 63.7413 130.788 63.7413C130.931 63.7413 131.036 63.7516 131.092 63.7619V62.8969C130.977 62.8969 130.177 62.8454 129.664 63.6332C129.625 63.695 129.598 63.7542 129.559 63.8237V62.9587L129.561 62.9561Z" fill="#303030"/>
<path id="Vector_39" d="M136.296 64.4466H139.568V63.6202H136.296V61.4243H140.064V60.5876H135.437V67.7006H140.179V66.8742H136.296V64.4466Z" fill="#303030"/>
<path id="Vector_40" d="M142.291 62.9561H141.529V67.7007H142.291V65.3323C142.291 64.8174 142.347 64.5471 142.48 64.3051C142.651 64.0039 142.977 63.7413 143.519 63.7413C143.663 63.7413 143.767 63.7516 143.823 63.7619V62.8969C143.709 62.8969 142.909 62.8454 142.395 63.6332C142.356 63.695 142.329 63.7542 142.291 63.8237V62.9587V62.9561Z" fill="#303030"/>
<path id="Vector_41" d="M146.806 64.8302L148.473 62.9561H147.541L145.75 64.9692V60.5876H144.979V67.7006H145.75V66.0273L146.293 65.4223L147.901 67.7006H148.852L146.806 64.8302Z" fill="#303030"/>
<path id="Vector_42" d="M150.577 62.9561H149.816V67.7007H150.577V65.3323C150.577 64.8174 150.633 64.5471 150.767 64.3051C150.94 64.0039 151.263 63.7413 151.806 63.7413C151.949 63.7413 152.054 63.7516 152.11 63.7619V62.8969C151.996 62.8969 151.195 62.8454 150.682 63.6332C150.643 63.695 150.616 63.7542 150.577 63.8237V62.9587V62.9561Z" fill="#303030"/>
<path id="Vector_43" fill-rule="evenodd" clip-rule="evenodd" d="M155.942 64.8585L155.847 64.8688C155.608 64.8894 155.438 64.8997 155.19 64.9203C154.971 64.9409 154.818 64.9615 154.599 65.0001C154.494 65.0207 154.429 65.031 154.324 65.0516C153.657 65.2035 153.268 65.5047 153.078 65.8986C153.03 66.0093 152.944 66.241 152.954 66.5319C152.974 67.0467 153.268 67.4998 153.82 67.7109C154.076 67.8216 154.353 67.8319 154.428 67.8319C154.579 67.8422 155.056 67.8422 155.533 67.5101C155.752 67.3582 155.961 67.1265 156.01 67.057C156.039 67.2192 156.049 67.2784 156.144 67.4406C156.192 67.5101 156.239 67.5822 156.307 67.6311C156.497 67.7727 156.803 67.7624 156.83 67.7624C157.039 67.7521 157.192 67.7032 157.277 67.6723V66.9978C157.258 66.9978 157.134 67.039 157.039 67.039C156.735 67.039 156.725 66.7764 156.715 66.6863C156.706 66.5653 156.715 66.4752 156.706 66.3542V64.6217C156.706 64.5625 156.725 64.148 156.63 63.8365C156.363 62.9895 155.47 62.8093 154.918 62.8093C154.813 62.8093 154.385 62.8093 154.003 63.0101C153.241 63.404 153.195 64.2098 153.185 64.3694L153.976 64.4183V64.3179C153.986 64.1969 153.986 63.664 154.528 63.4812C154.613 63.4503 154.737 63.422 154.927 63.422C155.146 63.422 155.394 63.4426 155.604 63.6228C155.937 63.8957 155.947 64.3282 155.947 64.771V64.8611L155.942 64.8585ZM155.942 65.4738C155.942 65.5639 155.952 65.6643 155.952 65.757C155.952 66.0891 155.903 66.4829 155.579 66.8047C155.56 66.8253 155.475 66.8948 155.445 66.9154C155.112 67.1677 154.723 67.1574 154.635 67.1574C154.635 67.1574 154.102 67.1986 153.874 66.7842C153.789 66.6426 153.789 66.4932 153.789 66.4521C153.789 66.1097 154.017 65.8574 154.341 65.7261C154.494 65.6566 154.645 65.6257 154.798 65.5948C155.008 65.5433 155.161 65.515 155.38 65.4738C155.589 65.4326 155.733 65.4223 155.942 65.3837V65.4738Z" fill="#303030"/>
<path id="Vector_44" d="M159.253 62.9562H158.492V67.7008H159.253V65.0002C159.253 64.9488 159.253 64.5986 159.329 64.3464C159.443 64.0143 159.813 63.5612 160.423 63.5612C160.613 63.5612 160.822 63.5921 161.015 63.7028C161.423 63.9448 161.462 64.318 161.462 64.6501V67.7033H162.214V64.7016C162.214 64.4493 162.214 64.1275 162.139 63.8649C162.063 63.6539 161.939 63.4222 161.759 63.2394C161.56 63.0489 161.178 62.8069 160.664 62.8069C160.066 62.8069 159.655 63.1081 159.426 63.3913C159.341 63.4917 159.273 63.6333 159.256 63.6538V62.9588L159.253 62.9562Z" fill="#303030"/>
<path id="Vector_45" d="M165.759 64.8302L167.425 62.9561H166.494L164.703 64.9692V60.5876H163.932V67.7006H164.703V66.0273L165.245 65.4223L166.854 67.7006H167.807L165.759 64.8302Z" fill="#303030"/>
<path id="Vector_46" d="M168.768 62.9561V66.0685C168.768 66.4907 168.778 67.0544 169.216 67.4689C169.596 67.8216 170.092 67.8216 170.177 67.8216C170.328 67.8216 170.909 67.8216 171.452 67.299C171.603 67.1471 171.661 67.057 171.727 66.9772V67.7032H172.469V62.9586H171.727V65.3348C171.727 65.4146 171.727 65.4764 171.717 65.5562C171.717 65.6257 171.736 65.8986 171.668 66.1508C171.498 66.815 170.946 67.0467 170.469 67.0673C170.289 67.0673 170.077 67.0364 169.887 66.9257C169.6 66.7352 169.515 66.4829 169.515 65.9681V62.9561H168.763H168.768Z" fill="#303030"/>
<path id="Vector_47" d="M174.953 62.9562H174.191V67.7008H174.953V65.0002C174.953 64.9488 174.953 64.5986 175.028 64.3464C175.143 64.0143 175.515 63.5612 176.123 63.5612C176.313 63.5612 176.522 63.5921 176.714 63.7028C177.123 63.9448 177.162 64.318 177.162 64.6501V67.7033H177.914V64.7016C177.914 64.4493 177.914 64.1275 177.838 63.8649C177.763 63.6539 177.639 63.4222 177.459 63.2394C177.259 63.0489 176.877 62.8069 176.364 62.8069C175.766 62.8069 175.354 63.1081 175.126 63.3913C175.041 63.4917 174.972 63.6333 174.953 63.6538V62.9588V62.9562Z" fill="#303030"/>
<path id="Vector_48" fill-rule="evenodd" clip-rule="evenodd" d="M183.743 62.9562H182.952V63.5998C182.887 63.5303 182.858 63.4788 182.789 63.4093C182.714 63.3295 182.656 63.278 182.617 63.2471C182.351 63.0257 182.028 62.794 181.446 62.8043C180.724 62.8249 180.181 63.2265 179.914 63.5689C179.646 63.9113 179.391 64.5265 179.4 65.3812C179.4 66.0763 179.6 67.0417 180.466 67.5772C180.646 67.6879 180.979 67.8397 181.437 67.85C181.969 67.85 182.274 67.6698 182.522 67.4768C182.789 67.2554 182.845 67.1447 182.95 67.0134V67.5566C182.95 68.1718 182.94 68.5245 182.797 68.7948C182.767 68.8643 182.712 68.957 182.587 69.0677C182.417 69.2299 182.13 69.3509 181.702 69.3509C181.417 69.3509 181.055 69.3097 180.768 69.0394C180.473 68.7485 180.463 68.3752 180.463 68.2928V68.2413H179.607C179.617 68.3109 179.656 68.6429 179.777 68.9364C179.921 69.2788 180.14 69.4796 180.264 69.58C180.787 70.0022 181.568 70.0022 181.653 70.0022C182.091 70.0022 182.434 69.8915 182.604 69.8297C182.643 69.8091 182.814 69.7499 182.977 69.6392C183.12 69.5388 183.244 69.4281 183.356 69.2659C183.719 68.7614 183.736 68.1281 183.736 67.6235V62.951L183.743 62.9562ZM181.553 63.5303C182.096 63.5303 182.687 63.8315 182.906 64.5677C182.945 64.7093 182.982 64.9307 182.982 65.2628C182.982 66.0094 182.792 66.5011 182.468 66.8048C182.288 66.9748 181.991 67.1472 181.553 67.1266C181.468 67.1266 181.057 67.1266 180.726 66.8254C180.393 66.5345 180.193 66.0789 180.184 65.3349C180.184 64.9513 180.249 64.4596 180.527 64.0657C180.583 63.9962 180.726 63.8134 180.955 63.6821C181.135 63.5817 181.344 63.5303 181.553 63.5303Z" fill="#303030"/>
<path id="Vector_49" fill-rule="evenodd" clip-rule="evenodd" d="M189.436 65.4636V65.3735C189.436 65.2628 189.475 64.2563 188.933 63.5612C188.648 63.1879 188.125 62.8069 187.371 62.8069C187.295 62.8069 187.076 62.8172 186.838 62.8764C186.505 62.9665 185.677 63.2806 185.334 64.3567C185.276 64.5472 185.21 64.8715 185.21 65.3323C185.21 65.4739 185.22 66.0866 185.478 66.6427C185.507 66.7122 185.582 66.8744 185.736 67.0752C186.05 67.4768 186.573 67.8398 187.383 67.8501C188.315 67.8604 188.85 67.397 189.173 66.8641C189.336 66.6015 189.402 66.3312 189.441 66.2488L188.67 66.1381C188.66 66.169 188.621 66.3492 188.556 66.5114C188.5 66.6427 188.422 66.7637 188.307 66.895C188.04 67.1782 187.755 67.2477 187.48 67.2477C187.251 67.2477 186.957 67.1859 186.719 67.0366C186.395 66.8152 186.033 66.29 186.033 65.546V65.4662H189.441L189.436 65.4636ZM186.047 64.8895C186.057 64.8097 186.076 64.5986 186.152 64.3747C186.436 63.5174 187.047 63.4273 187.322 63.4273C187.94 63.4273 188.273 63.8289 188.427 64.1224C188.587 64.4339 188.607 64.7969 188.607 64.887H186.047V64.8895Z" fill="#303030"/>
<path id="Vector_50" d="M191.64 62.9562H190.879V67.7008H191.64V65.0002C191.64 64.9488 191.64 64.5986 191.716 64.3464C191.83 64.0143 192.202 63.5612 192.811 63.5612C193 63.5612 193.21 63.5921 193.402 63.7028C193.811 63.9448 193.85 64.318 193.85 64.6501V67.7033H194.601V64.7016C194.601 64.4493 194.601 64.1275 194.526 63.8649C194.45 63.6539 194.326 63.4222 194.146 63.2394C193.947 63.0489 193.565 62.8069 193.052 62.8069C192.453 62.8069 192.042 63.1081 191.813 63.3913C191.728 63.4917 191.66 63.6333 191.643 63.6538V62.9588L191.64 62.9562Z" fill="#303030"/>
</g>
</svg>
