<?xml version="1.0" encoding="UTF-8"?>
<svg id="Logo" xmlns="http://www.w3.org/2000/svg" viewBox="0 0 367.38 85.04">
  <defs>
    <style>
      .cls-1 {
        fill: #dc020e;
      }

      .cls-2 {
        fill: #fff;
      }
    </style>
  </defs>
  <g>
    <path class="cls-1" d="M114.99,25.16l-7.5,17.5h-4.87l-7.47-17.5h5.35l4.75,11.4,4.85-11.4h4.9Z"/>
    <path class="cls-1" d="M128.66,37.08h-9.85c.4,1.37,1.57,2.17,3.32,2.17,1.32,0,2.2-.38,3.12-1.17l2.5,2.6c-1.3,1.45-3.2,2.2-5.77,2.2-4.82,0-7.95-2.97-7.95-7.02s3.17-6.97,7.45-6.97c4,0,7.25,2.55,7.25,7.02,0,.35-.05.8-.07,1.17ZM118.74,34.58h5.55c-.25-1.42-1.3-2.32-2.77-2.32s-2.5.9-2.77,2.32Z"/>
    <path class="cls-1" d="M139.89,28.88v4.27c-.42-.05-.72-.07-1.07-.07-1.92,0-3.25.97-3.25,3.35v6.22h-4.75v-13.55h4.52v1.62c.98-1.22,2.55-1.85,4.55-1.85Z"/>
    <path class="cls-1" d="M156.76,35.86c0,4.32-2.97,7.02-6.65,7.02-1.77,0-3.1-.5-4-1.57v1.35h-4.52v-18.55h4.75v6.17c.92-.95,2.2-1.4,3.77-1.4,3.67,0,6.65,2.67,6.65,6.97ZM151.96,35.86c0-2.05-1.25-3.2-2.85-3.2s-2.85,1.15-2.85,3.2,1.25,3.25,2.85,3.25,2.85-1.17,2.85-3.25Z"/>
    <path class="cls-1" d="M168.01,28.88v4.27c-.43-.05-.73-.07-1.08-.07-1.92,0-3.25.97-3.25,3.35v6.22h-4.75v-13.55h4.52v1.62c.98-1.22,2.55-1.85,4.55-1.85Z"/>
    <path class="cls-1" d="M182.38,35.13v7.52h-4.42v-1.75c-.68,1.3-2.02,1.97-4,1.97-3.25,0-5.05-1.82-5.05-4.17,0-2.5,1.82-4.05,6.02-4.05h2.7c-.08-1.38-1-2.15-2.87-2.15-1.3,0-2.75.45-3.67,1.17l-1.6-3.22c1.55-1.02,3.85-1.57,5.97-1.57,4.4,0,6.92,1.95,6.92,6.25ZM177.63,38.31v-1.17h-2.05c-1.52,0-2.07.55-2.07,1.37s.65,1.38,1.77,1.38c1.05,0,1.97-.5,2.35-1.57Z"/>
    <path class="cls-1" d="M199.37,29.11v13.55h-4.52v-1.45c-1.02,1.12-2.47,1.67-4.02,1.67-3.32,0-5.75-1.9-5.75-6.2v-7.57h4.75v6.8c0,2.1.82,2.92,2.25,2.92s2.55-.92,2.55-3.2v-6.52h4.75Z"/>
    <path class="cls-1" d="M201.51,35.86c0-4.07,3.22-6.97,7.77-6.97,3.07,0,5.42,1.37,6.35,3.72l-3.67,1.88c-.65-1.27-1.6-1.82-2.7-1.82-1.65,0-2.95,1.15-2.95,3.2s1.3,3.25,2.95,3.25c1.1,0,2.05-.55,2.7-1.83l3.67,1.88c-.92,2.35-3.27,3.72-6.35,3.72-4.55,0-7.77-2.9-7.77-7.02Z"/>
    <path class="cls-1" d="M231.84,34.91v7.75h-4.75v-6.97c0-1.95-.85-2.77-2.22-2.77-1.52,0-2.7.95-2.7,3.2v6.55h-4.75v-18.55h4.75v6.25c1.05-.97,2.47-1.47,4.07-1.47,3.17,0,5.6,1.82,5.6,6.02Z"/>
    <path class="cls-1" d="M248.46,37.08h-9.85c.4,1.37,1.57,2.17,3.32,2.17,1.32,0,2.2-.38,3.12-1.17l2.5,2.6c-1.3,1.45-3.2,2.2-5.77,2.2-4.82,0-7.95-2.97-7.95-7.02s3.17-6.97,7.45-6.97c4,0,7.25,2.55,7.25,7.02,0,.35-.05.8-.07,1.17ZM238.53,34.58h5.55c-.25-1.42-1.3-2.32-2.77-2.32s-2.5.9-2.77,2.32Z"/>
    <path class="cls-1" d="M259.69,28.88v4.27c-.43-.05-.73-.07-1.08-.07-1.92,0-3.25.97-3.25,3.35v6.22h-4.75v-13.55h4.52v1.62c.98-1.22,2.55-1.85,4.55-1.85Z"/>
    <path class="cls-1" d="M273.32,39.11v3.55h-12.5v-2.8l6.27-7.22h-6.1v-3.52h12.07v2.77l-6.27,7.22h6.52Z"/>
    <path class="cls-1" d="M289.01,37.08h-9.85c.4,1.37,1.57,2.17,3.32,2.17,1.32,0,2.2-.38,3.12-1.17l2.5,2.6c-1.3,1.45-3.2,2.2-5.77,2.2-4.82,0-7.95-2.97-7.95-7.02s3.17-6.97,7.45-6.97c4,0,7.25,2.55,7.25,7.02,0,.35-.05.8-.07,1.17ZM279.09,34.58h5.55c-.25-1.42-1.3-2.32-2.77-2.32s-2.5.9-2.77,2.32Z"/>
    <path class="cls-1" d="M305.59,34.91v7.75h-4.75v-6.97c0-1.95-.85-2.77-2.22-2.77-1.52,0-2.7.95-2.7,3.2v6.55h-4.75v-13.55h4.52v1.47c1.07-1.12,2.6-1.7,4.3-1.7,3.17,0,5.6,1.82,5.6,6.02Z"/>
    <path class="cls-1" d="M317.73,42.11c-.83.52-2.05.77-3.3.77-3.47,0-5.5-1.7-5.5-5.17v-4.55h-1.97v-3.55h1.97v-3.52h4.75v3.52h3.1v3.55h-3.1v4.5c0,1,.58,1.55,1.42,1.55.53,0,1.05-.15,1.45-.42l1.17,3.32Z"/>
    <path class="cls-1" d="M328.53,28.88v4.27c-.42-.05-.72-.07-1.08-.07-1.92,0-3.25.97-3.25,3.35v6.22h-4.75v-13.55h4.52v1.62c.97-1.22,2.55-1.85,4.55-1.85Z"/>
    <path class="cls-1" d="M342.9,35.13v7.52h-4.42v-1.75c-.67,1.3-2.02,1.97-4,1.97-3.25,0-5.05-1.82-5.05-4.17,0-2.5,1.82-4.05,6.02-4.05h2.7c-.07-1.38-1-2.15-2.87-2.15-1.3,0-2.75.45-3.67,1.17l-1.6-3.22c1.55-1.02,3.85-1.57,5.97-1.57,4.4,0,6.92,1.95,6.92,6.25ZM338.15,38.31v-1.17h-2.05c-1.53,0-2.08.55-2.08,1.37s.65,1.38,1.77,1.38c1.05,0,1.97-.5,2.35-1.57Z"/>
    <path class="cls-1" d="M345.8,24.11h4.75v18.55h-4.75v-18.55Z"/>
    <path class="cls-1" d="M367.3,37.08h-9.85c.4,1.37,1.58,2.17,3.32,2.17,1.33,0,2.2-.38,3.12-1.17l2.5,2.6c-1.3,1.45-3.2,2.2-5.77,2.2-4.82,0-7.95-2.97-7.95-7.02s3.17-6.97,7.45-6.97c4,0,7.25,2.55,7.25,7.02,0,.35-.05.8-.08,1.17ZM357.38,34.58h5.55c-.25-1.42-1.3-2.32-2.77-2.32s-2.5.9-2.77,2.32Z"/>
  </g>
  <g>
    <path d="M112.22,61.25c0,2.38-1.76,3.74-5.26,3.74h-6.44v-14h6.04c3.12,0,4.92,1.32,4.92,3.6,0,1.6-.86,2.66-2.14,3.18,1.8.4,2.88,1.58,2.88,3.48ZM102,52.2v5.08h4.46c2.24,0,3.54-.86,3.54-2.54s-1.3-2.54-3.54-2.54h-4.46ZM110.74,61.13c0-1.82-1.34-2.62-3.8-2.62h-4.94v5.26h4.94c2.46,0,3.8-.8,3.8-2.64Z"/>
    <path d="M124.57,54.46v10.52h-1.36v-1.92c-.74,1.28-2.1,2.02-3.78,2.02-2.68,0-4.44-1.5-4.44-4.52v-6.1h1.42v5.96c0,2.24,1.16,3.38,3.16,3.38,2.2,0,3.58-1.42,3.58-3.82v-5.52h1.42Z"/>
    <path d="M137.72,58.89v6.1h-1.42v-5.96c0-2.22-1.16-3.36-3.16-3.36-2.26,0-3.68,1.4-3.68,3.8v5.52h-1.42v-10.52h1.36v1.94c.76-1.28,2.18-2.02,4-2.02,2.56,0,4.32,1.48,4.32,4.5Z"/>
    <path d="M150.91,50.14v14.84h-1.36v-2.08c-.86,1.42-2.32,2.18-4.06,2.18-3,0-5.24-2.18-5.24-5.36s2.24-5.34,5.24-5.34c1.68,0,3.12.72,4,2.08v-6.32h1.42ZM149.51,59.73c0-2.46-1.68-4.1-3.9-4.1s-3.92,1.64-3.92,4.1,1.68,4.1,3.92,4.1,3.9-1.64,3.9-4.1Z"/>
    <path d="M163.78,60.17h-8.8c.16,2.2,1.84,3.66,4.14,3.66,1.28,0,2.42-.46,3.22-1.38l.8.92c-.94,1.12-2.4,1.72-4.06,1.72-3.28,0-5.52-2.24-5.52-5.36s2.18-5.34,5.14-5.34,5.1,2.18,5.1,5.34c0,.12-.02.28-.02.44ZM154.98,59.11h7.46c-.18-2.06-1.68-3.5-3.74-3.5s-3.54,1.44-3.72,3.5Z"/>
    <path d="M165.15,63.79l.64-1.12c.84.66,2.26,1.18,3.74,1.18,2,0,2.82-.68,2.82-1.72,0-2.74-6.82-.58-6.82-4.74,0-1.72,1.48-3,4.16-3,1.36,0,2.84.38,3.72.98l-.62,1.14c-.92-.64-2.02-.9-3.1-.9-1.9,0-2.74.74-2.74,1.74,0,2.84,6.82.7,6.82,4.74,0,1.82-1.6,3-4.34,3-1.74,0-3.42-.56-4.28-1.3Z"/>
    <path d="M185.45,54.46l-4.68,10.52h-1.46l-4.66-10.52h1.48l3.94,8.96,3.98-8.96h1.4Z"/>
    <path d="M196.21,60.17h-8.8c.16,2.2,1.84,3.66,4.14,3.66,1.28,0,2.42-.46,3.22-1.38l.8.92c-.94,1.12-2.4,1.72-4.06,1.72-3.28,0-5.52-2.24-5.52-5.36s2.18-5.34,5.14-5.34,5.1,2.18,5.1,5.34c0,.12-.02.28-.02.44ZM187.41,59.11h7.46c-.18-2.06-1.68-3.5-3.74-3.5s-3.54,1.44-3.72,3.5Z"/>
    <path d="M204.09,54.38v1.38c-.12,0-.24-.02-.34-.02-2.2,0-3.54,1.4-3.54,3.88v5.36h-1.42v-10.52h1.36v2.06c.66-1.4,2-2.14,3.94-2.14Z"/>
    <path d="M216.95,59.73c0,3.18-2.24,5.36-5.24,5.36-1.74,0-3.2-.76-4.06-2.18v2.08h-1.36v-14.84h1.42v6.32c.88-1.36,2.32-2.08,4-2.08,3,0,5.24,2.16,5.24,5.34ZM215.53,59.73c0-2.46-1.7-4.1-3.92-4.1s-3.92,1.64-3.92,4.1,1.68,4.1,3.92,4.1,3.92-1.64,3.92-4.1Z"/>
    <path d="M227.54,58.47v6.52h-1.36v-1.64c-.64,1.08-1.88,1.74-3.62,1.74-2.38,0-3.84-1.24-3.84-3.06,0-1.62,1.04-2.98,4.06-2.98h3.34v-.64c0-1.8-1.02-2.78-2.98-2.78-1.36,0-2.64.48-3.5,1.24l-.64-1.06c1.06-.9,2.62-1.42,4.28-1.42,2.72,0,4.26,1.36,4.26,4.08ZM226.12,61.83v-1.72h-3.3c-2.04,0-2.7.8-2.7,1.88,0,1.22.98,1.98,2.66,1.98s2.78-.76,3.34-2.14Z"/>
    <path d="M240.6,58.89v6.1h-1.42v-5.96c0-2.22-1.16-3.36-3.16-3.36-2.26,0-3.68,1.4-3.68,3.8v5.52h-1.42v-10.52h1.36v1.94c.76-1.28,2.18-2.02,4-2.02,2.56,0,4.32,1.48,4.32,4.5Z"/>
    <path d="M253.79,50.14v14.84h-1.36v-2.08c-.86,1.42-2.32,2.18-4.06,2.18-3,0-5.24-2.18-5.24-5.36s2.24-5.34,5.24-5.34c1.68,0,3.12.72,4,2.08v-6.32h1.42ZM252.39,59.73c0-2.46-1.68-4.1-3.9-4.1s-3.92,1.64-3.92,4.1,1.68,4.1,3.92,4.1,3.9-1.64,3.9-4.1Z"/>
  </g>
  <path class="cls-1" d="M42.52,85.04c23.48,0,42.52-19.04,42.52-42.52S66,0,42.52,0,0,19.04,0,42.52s19.04,42.52,42.52,42.52"/>
  <path class="cls-2" d="M64.42,25.21c-3.4-2.12-7.87-1.09-10,2.31l-11.34,18.15-11.33-18.15c-2.12-3.4-6.6-4.43-10-2.31-3.4,2.12-4.44,6.6-2.31,10l17.48,28s.05.06.07.09c.13.2.27.4.42.59.03.04.07.09.1.13.18.22.38.43.59.62.05.05.1.09.15.13.16.14.32.27.48.4.09.07.18.13.28.19.07.05.14.1.22.15.05.03.11.05.16.08.18.11.36.2.55.29.12.06.23.11.35.16.17.07.35.13.52.19.13.04.27.09.4.13.17.05.35.08.52.11.14.03.27.06.41.08.26.03.52.05.78.05.05,0,.1,0,.14,0,0,0,0,0,0,0s0,0,0,0c.05,0,.09,0,.14,0,.26,0,.53-.02.79-.05.13-.02.27-.05.4-.08.18-.03.35-.06.53-.11.13-.04.27-.08.4-.13.18-.06.35-.12.52-.19.12-.05.23-.11.35-.16.19-.09.37-.18.55-.29.05-.03.11-.05.16-.08.08-.05.15-.1.22-.15.09-.06.18-.12.27-.19.17-.13.33-.26.49-.4.05-.04.1-.08.15-.13.21-.2.4-.41.59-.62.03-.04.07-.09.1-.13.15-.19.3-.39.43-.59.02-.03.05-.06.07-.09l17.49-28c2.12-3.4,1.09-7.88-2.31-10Z"/>
</svg>