<svg version="1.1" id="logo-deutsche-diabetes-hilfe" xmlns="http://www.w3.org/2000/svg" x="0" y="0" viewBox="0 0 165.214 100" xml:space="preserve"><style>.st1{fill:#64a92c}.st3{fill:#76ad1c}</style><path id="Pfad_2" d="M.006 25.589a22.8 22.8 0 0 1 3.323-.222 6.973 6.973 0 0 1 4.444 1.164 4.787 4.787 0 0 1 1.839 4.092 5.523 5.523 0 0 1-1.809 4.403 7.827 7.827 0 0 1-5.017 1.406A21.093 21.093 0 0 1 0 36.272l.006-10.683zm2.46 8.87c.286.047.576.064.865.053a3.366 3.366 0 0 0 3.684-3.015v-.003a3.24 3.24 0 0 0-.013-.781 3.114 3.114 0 0 0-2.739-3.447l-.005-.001a3.038 3.038 0 0 0-.674 0 5.044 5.044 0 0 0-1.117.101l-.001 7.093zm15.238-2.747h-4.011v2.579h4.47v2.024H11.23V25.444h6.707v2.014h-4.244v2.253h4.011v2.001zm4.592-6.266V31.7c0 1.867.707 2.82 1.96 2.82 1.286 0 2.011-.9 2.011-2.82v-6.256h2.434v6.095c0 3.353-1.688 4.948-4.514 4.948-2.745 0-4.359-1.514-4.359-4.976v-6.058l2.468-.007zm10.633 2.055h-2.921v-2.055h8.347v2.055h-2.966v8.801h-2.467v-8.799l.007-.002zm6.696 6.274a6.273 6.273 0 0 0 2.713.674c1.117 0 1.731-.466 1.731-1.172 0-.68-.517-1.064-1.83-1.535-1.8-.622-2.981-1.623-2.981-3.205 0-1.852 1.557-3.267 4.116-3.267a6.64 6.64 0 0 1 2.776.551l-.541 1.983a5.166 5.166 0 0 0-2.272-.517c-1.064 0-1.577.479-1.577 1.047 0 .692.607.997 2.011 1.531 1.916.711 2.82 1.703 2.82 3.239 0 1.826-1.406 3.37-4.388 3.37a7.075 7.075 0 0 1-3.074-.658l.492-2.035.004-.006zm16.601 2.223a7 7 0 0 1-2.787.466 5.171 5.171 0 0 1-5.691-5.427 5.536 5.536 0 0 1 5.923-5.765 6.522 6.522 0 0 1 2.683.479l-.501 1.947a5.405 5.405 0 0 0-2.064-.399 3.27 3.27 0 0 0-3.47 3.595 3.245 3.245 0 0 0 2.921 3.538c.189.016.378.016.567 0a6.203 6.203 0 0 0 2.055-.356l.363 1.916v.006zm4.082-10.555v4.17h4.048v-4.17h2.45v10.863h-2.458v-4.543h-4.057v4.543H57.82V25.443h2.488zm15.098 6.266h-3.991v2.579h4.47v2.024h-6.949V25.444h6.707v2.014h-4.242v2.253h3.991v1.997l.014.001zM6.585 41.738a22.376 22.376 0 0 1 3.312-.222 6.98 6.98 0 0 1 4.444 1.164 4.802 4.802 0 0 1 1.839 4.089 5.52 5.52 0 0 1-1.803 4.403 7.804 7.804 0 0 1-5.018 1.406 22.263 22.263 0 0 1-2.78-.16l.006-10.68zm2.463 8.87c.28.05.564.069.848.056a3.368 3.368 0 0 0 3.671-3.809 3.111 3.111 0 0 0-3.416-3.449 5.574 5.574 0 0 0-1.117.093l.014 7.109zm11.2-9.01v10.854H17.79V41.598h2.458zm4.669 8.07-.765 2.794h-2.564l3.321-10.864h3.224l3.375 10.855h-2.655l-.829-2.793-3.107.008zm2.759-1.839-.681-2.305c-.191-.638-.385-1.447-.541-2.097h-.03c-.16.638-.325 1.469-.491 2.097l-.649 2.305h2.392zm5.291-6.091a19.845 19.845 0 0 1 3.175-.222 5.984 5.984 0 0 1 3.203.61 2.37 2.37 0 0 1 1.298 2.128 2.456 2.456 0 0 1-1.787 2.32v.038a2.711 2.711 0 0 1 2.163 2.669 2.905 2.905 0 0 1-1.125 2.305 6.856 6.856 0 0 1-4.265.984 20.375 20.375 0 0 1-2.659-.16l-.003-10.672zm2.417 4.149h.811c1.286 0 1.983-.534 1.983-1.34s-.627-1.245-1.745-1.245a6.023 6.023 0 0 0-1.048.065v2.526l-.001-.006zm0 4.814c.318.036.638.05.957.04 1.117 0 2.099-.42 2.099-1.557 0-1.088-.988-1.534-2.214-1.534h-.842v3.051zm13.778-2.853h-3.989v2.579h4.46v2.028h-6.936V41.598h6.707v2.012h-4.24v2.249h4.002v1.989h-.004zm4.296-4.203h-2.911v-2.047h8.345v2.064h-2.96v8.795h-2.474v-8.812zm13.206 4.203h-3.993v2.579h4.47v2.028h-6.937V41.598h6.707v2.012h-4.249v2.249h3.991v1.983l.011.006zm2.222 2.064a6.28 6.28 0 0 0 2.713.681c1.134 0 1.731-.466 1.731-1.175 0-.677-.519-1.064-1.816-1.533-1.809-.622-2.987-1.628-2.987-3.203 0-1.853 1.557-3.277 4.111-3.277a6.63 6.63 0 0 1 2.771.551l-.541 1.987a5.154 5.154 0 0 0-2.272-.519c-1.064 0-1.575.487-1.575 1.048 0 .696.622 1.004 2.024 1.534 1.904.705 2.819 1.712 2.819 3.245 0 1.813-1.406 3.367-4.384 3.367a7.183 7.183 0 0 1-3.092-.649l.5-2.038-.002-.019zm-29.931 7.834v4.179h4.048v-4.179h2.451v10.872h-2.452v-4.551h-4.047v4.551h-2.461V57.753l2.461-.007zm11.11 0v10.872h-2.459V57.753l2.459-.007zm2.126 0h2.466v8.8h4.305v2.075h-6.774l.003-10.875zm8.24 0h6.646v2.013h-4.186v2.477h3.901v2.004h-3.9v4.36h-2.461V57.746zm14.96 6.274h-4.002v2.573h4.471v2.024h-6.936V57.753h6.707v2.004h-4.242v2.253h3.991v2.001l.011.009z" fill="#48773a"/><path id="Pfad_3" class="st1" d="M141.232 38.868c-.004-7.926-6.211-14.464-14.126-14.878v-.02h-15.671v15.361h.017c.242 8.223 7.105 14.693 15.328 14.45 8.063-.238 14.471-6.85 14.457-14.916m12.818 0c.08 15.304-12.261 27.776-27.565 27.856-15.08.079-27.455-11.916-27.847-26.991h-.023V11.15h29.164v.034c14.727.77 26.272 12.938 26.269 27.685m11.159-.001c0-20.683-16.197-37.744-36.853-38.818V0H87.478v40.086h.032c.679 21.452 18.62 38.292 40.072 37.612 20.969-.664 37.626-17.851 37.632-38.83"/><path id="Pfad_4" class="st1" d="M20.705 10.825v7.696c0 .565.013 1.212.054 1.649h-1.034l-.054-1.117h-.019a2.336 2.336 0 0 1-2.163 1.246 2.902 2.902 0 0 1-2.755-3.029v-.01c0-.062.005-.123.016-.184a3.045 3.045 0 0 1 2.862-3.418 2.122 2.122 0 0 1 1.916.974h.026v-3.809l1.151.002zm-1.161 5.57a2.064 2.064 0 0 0-.053-.489 1.694 1.694 0 0 0-1.665-1.339c-1.197 0-1.904 1.051-1.904 2.46 0 1.289.622 2.356 1.867 2.356a1.731 1.731 0 0 0 1.703-1.38c.038-.164.056-.332.053-.501v-1.107h-.001zm4.374-4.374a.717.717 0 1 1-1.436 0 .707.707 0 0 1 .688-.723h.032a.687.687 0 0 1 .716.723zm-1.298 8.141v-6.368h1.147v6.368H22.62zm6.599 0-.087-.798h-.044a2.379 2.379 0 0 1-1.947.934 1.807 1.807 0 0 1-1.94-1.651v-.16c0-1.54 1.36-2.38 3.809-2.369v-.132a1.312 1.312 0 0 0-1.446-1.476 3.174 3.174 0 0 0-1.649.479l-.269-.766a3.999 3.999 0 0 1 2.092-.564c1.947 0 2.421 1.329 2.421 2.604v2.38a9.516 9.516 0 0 0 .108 1.527H29.2l.019-.008zm-.172-3.246c-1.259-.032-2.698.199-2.698 1.429a1.017 1.017 0 0 0 1.088 1.117c.69.02 1.315-.408 1.544-1.06l.071-.383-.005-1.103zm2.94 3.246c.024-.433.053-1.088.053-1.649v-7.688h1.149v4.002h.021a2.38 2.38 0 0 1 2.163-1.17 2.857 2.857 0 0 1 2.716 2.991v.004c0 .085-.008.169-.024.252a3.015 3.015 0 0 1-2.596 3.38h-.009c-.084.011-.169.017-.254.023-.88.05-1.71-.414-2.129-1.19h-.037l-.048 1.051-1.005-.006zm1.199-2.554.05.419a1.786 1.786 0 0 0 1.731 1.355c1.213 0 1.933-.983 1.933-2.443 0-1.276-.658-2.37-1.894-2.37a1.85 1.85 0 0 0-1.756 1.417l-.063.479v1.142h-.001zm6.983-.422a2.037 2.037 0 0 0 1.847 2.208c.111.009.222.009.332 0a4.121 4.121 0 0 0 1.756-.332l.199.832a5.154 5.154 0 0 1-2.12.393 2.959 2.959 0 0 1-3.137-2.769v-.001a2.986 2.986 0 0 1 0-.423 3.094 3.094 0 0 1 2.722-3.424h.011a2.37 2.37 0 0 1 .252-.017 2.696 2.696 0 0 1 2.651 2.741v.001c0 .085-.006.17-.017.254l-.037.541-4.459-.004zm3.393-.826a1.65 1.65 0 0 0-1.596-1.883 1.903 1.903 0 0 0-1.775 1.883h3.371zm3.938-4.394v1.832h1.666v.882H47.51v3.426c0 .798.229 1.238.865 1.238.227.005.453-.018.674-.067l.05.865a2.738 2.738 0 0 1-1.015.16 1.605 1.605 0 0 1-1.246-.479 2.367 2.367 0 0 1-.452-1.657v-3.484h-.993v-.883h.991v-1.525l1.127-.303-.011-.005zm3.525 5.222a2.047 2.047 0 0 0 2.188 2.208 4.121 4.121 0 0 0 1.756-.332l.196.832a5.137 5.137 0 0 1-2.117.393 2.957 2.957 0 0 1-3.137-2.766 2.845 2.845 0 0 1 0-.433 3.094 3.094 0 0 1 2.713-3.424h.011c.084-.01.171-.016.255-.017a2.705 2.705 0 0 1 2.656 2.747c0 .084-.006.169-.017.252l-.038.541h-4.466zm3.396-.826a1.647 1.647 0 0 0-1.595-1.883c-.99.073-1.761.89-1.775 1.883h3.37zm2.394 2.612c.458.291.988.453 1.531.466.842 0 1.232-.422 1.232-.957 0-.535-.332-.853-1.185-1.172-1.14-.406-1.675-1.033-1.675-1.802a1.962 1.962 0 0 1 2.04-1.88c.054 0 .107.005.16.013.544-.005 1.08.13 1.557.394l-.289.859a2.506 2.506 0 0 0-1.309-.363c-.688 0-1.067.392-1.067.865 0 .524.379.757 1.212 1.088 1.101.416 1.668.974 1.668 1.916 0 1.117-.865 1.904-2.38 1.904a3.633 3.633 0 0 1-1.792-.433l.284-.879.013-.019zm5.409-7.562a16.328 16.328 0 0 1 2.43-.184c1.296-.1 2.58.3 3.59 1.117a4.072 4.072 0 0 1 1.246 3.175 4.678 4.678 0 0 1-1.276 3.444 5.428 5.428 0 0 1-3.913 1.276 18.44 18.44 0 0 1-2.075-.108v-8.721l-.002.001zm1.149 7.841a6.94 6.94 0 0 0 1.152.067 3.406 3.406 0 0 0 3.777-3.76 3.163 3.163 0 0 0-2.858-3.441h-.001a3.111 3.111 0 0 0-.728.016 6.107 6.107 0 0 0-1.335.124v6.992l-.007.002zm12.197-3.245h-3.438v3.2h3.83v.957h-4.976v-8.87h4.789v.974H72.13v2.802h3.446l-.006.937z"/><path id="Pfad_5" d="M.006 25.589a22.8 22.8 0 0 1 3.323-.222 6.973 6.973 0 0 1 4.444 1.164 4.787 4.787 0 0 1 1.839 4.092 5.523 5.523 0 0 1-1.809 4.403 7.827 7.827 0 0 1-5.017 1.406A21.093 21.093 0 0 1 0 36.272l.006-10.683zm2.46 8.87c.286.047.576.064.865.053a3.366 3.366 0 0 0 3.684-3.015v-.003a3.24 3.24 0 0 0-.013-.781 3.114 3.114 0 0 0-2.739-3.447l-.005-.001a3.038 3.038 0 0 0-.674 0 5.044 5.044 0 0 0-1.117.101l-.001 7.093zm15.238-2.747h-4.011v2.579h4.47v2.024H11.23V25.444h6.707v2.014h-4.244v2.253h4.011v2.001zm4.592-6.266V31.7c0 1.867.707 2.82 1.96 2.82 1.286 0 2.011-.9 2.011-2.82v-6.256h2.434v6.095c0 3.353-1.688 4.948-4.514 4.948-2.745 0-4.359-1.514-4.359-4.976v-6.058l2.468-.007zm10.633 2.055h-2.921v-2.055h8.347v2.055h-2.966v8.801h-2.467v-8.799l.007-.002zm6.696 6.274a6.273 6.273 0 0 0 2.713.674c1.117 0 1.731-.466 1.731-1.172 0-.68-.517-1.064-1.83-1.535-1.8-.622-2.981-1.623-2.981-3.205 0-1.852 1.557-3.267 4.116-3.267a6.64 6.64 0 0 1 2.776.551l-.541 1.983a5.166 5.166 0 0 0-2.272-.517c-1.064 0-1.577.479-1.577 1.047 0 .692.607.997 2.011 1.531 1.916.711 2.82 1.703 2.82 3.239 0 1.826-1.406 3.37-4.388 3.37a7.075 7.075 0 0 1-3.074-.658l.492-2.035.004-.006zm16.601 2.223a7 7 0 0 1-2.787.466 5.171 5.171 0 0 1-5.691-5.427 5.536 5.536 0 0 1 5.923-5.765 6.522 6.522 0 0 1 2.683.479l-.501 1.947a5.405 5.405 0 0 0-2.064-.399 3.27 3.27 0 0 0-3.47 3.595 3.245 3.245 0 0 0 2.921 3.538c.189.016.378.016.567 0a6.203 6.203 0 0 0 2.055-.356l.363 1.916v.006zm4.082-10.555v4.17h4.048v-4.17h2.45v10.863h-2.458v-4.543h-4.057v4.543H57.82V25.443h2.488zm15.098 6.266h-3.991v2.579h4.47v2.024h-6.949V25.444h6.707v2.014h-4.242v2.253h3.991v1.997l.014.001zM6.585 41.738a22.376 22.376 0 0 1 3.312-.222 6.98 6.98 0 0 1 4.444 1.164 4.802 4.802 0 0 1 1.839 4.089 5.52 5.52 0 0 1-1.803 4.403 7.804 7.804 0 0 1-5.018 1.406 22.263 22.263 0 0 1-2.78-.16l.006-10.68zm2.463 8.87c.28.05.564.069.848.056a3.368 3.368 0 0 0 3.671-3.809 3.111 3.111 0 0 0-3.416-3.449 5.574 5.574 0 0 0-1.117.093l.014 7.109zm11.2-9.01v10.854H17.79V41.598h2.458zm4.669 8.07-.765 2.794h-2.564l3.321-10.864h3.224l3.375 10.855h-2.655l-.829-2.793-3.107.008zm2.759-1.839-.681-2.305c-.191-.638-.385-1.447-.541-2.097h-.03c-.16.638-.325 1.469-.491 2.097l-.649 2.305h2.392zm5.291-6.091a19.845 19.845 0 0 1 3.175-.222 5.984 5.984 0 0 1 3.203.61 2.37 2.37 0 0 1 1.298 2.128 2.456 2.456 0 0 1-1.787 2.32v.038a2.711 2.711 0 0 1 2.163 2.669 2.905 2.905 0 0 1-1.125 2.305 6.856 6.856 0 0 1-4.265.984 20.375 20.375 0 0 1-2.659-.16l-.003-10.672zm2.417 4.149h.811c1.286 0 1.983-.534 1.983-1.34s-.627-1.245-1.745-1.245a6.023 6.023 0 0 0-1.048.065v2.526l-.001-.006zm0 4.814c.318.036.638.05.957.04 1.117 0 2.099-.42 2.099-1.557 0-1.088-.988-1.534-2.214-1.534h-.842v3.051zm13.778-2.853h-3.989v2.579h4.46v2.028h-6.936V41.598h6.707v2.012h-4.24v2.249h4.002v1.989h-.004zm4.296-4.203h-2.911v-2.047h8.345v2.064h-2.96v8.795h-2.474v-8.812zm13.206 4.203h-3.993v2.579h4.47v2.028h-6.937V41.598h6.707v2.012h-4.249v2.249h3.991v1.983l.011.006zm2.222 2.064a6.28 6.28 0 0 0 2.713.681c1.134 0 1.731-.466 1.731-1.175 0-.677-.519-1.064-1.816-1.533-1.809-.622-2.987-1.628-2.987-3.203 0-1.853 1.557-3.277 4.111-3.277a6.63 6.63 0 0 1 2.771.551l-.541 1.987a5.154 5.154 0 0 0-2.272-.519c-1.064 0-1.575.487-1.575 1.048 0 .696.622 1.004 2.024 1.534 1.904.705 2.819 1.712 2.819 3.245 0 1.813-1.406 3.367-4.384 3.367a7.183 7.183 0 0 1-3.092-.649l.5-2.038-.002-.019zm-29.931 7.834v4.179h4.048v-4.179h2.451v10.872h-2.452v-4.551h-4.047v4.551h-2.461V57.753l2.461-.007zm11.11 0v10.872h-2.459V57.753l2.459-.007zm2.126 0h2.466v8.8h4.305v2.075h-6.774l.003-10.875zm8.24 0h6.646v2.013h-4.186v2.477h3.901v2.004h-3.9v4.36h-2.461V57.746zm14.96 6.274h-4.002v2.573h4.471v2.024h-6.936V57.753h6.707v2.004h-4.242v2.253h3.991v2.001l.011.009z" fill="#49773b"/><path id="Pfad_6" class="st3" d="M141.232 38.868c-.004-7.926-6.211-14.464-14.126-14.878v-.02h-15.671v15.361h.017c.242 8.223 7.105 14.693 15.328 14.45 8.063-.238 14.471-6.85 14.457-14.916m12.818 0c.08 15.304-12.261 27.776-27.565 27.856-15.08.079-27.455-11.916-27.847-26.991h-.023V11.15h29.164v.034c14.727.77 26.272 12.938 26.269 27.685m11.159-.001c0-20.683-16.197-37.744-36.853-38.818V0H87.478v40.086h.032c.679 21.452 18.62 38.292 40.072 37.612 20.969-.664 37.626-17.851 37.632-38.83"/><path id="Pfad_7" class="st3" d="M20.705 10.825v7.696c0 .565.013 1.212.054 1.649h-1.034l-.054-1.117h-.019a2.336 2.336 0 0 1-2.163 1.246 2.902 2.902 0 0 1-2.755-3.029v-.01c0-.062.005-.123.016-.184a3.045 3.045 0 0 1 2.862-3.418 2.122 2.122 0 0 1 1.916.974h.026v-3.809l1.151.002zm-1.161 5.57a2.064 2.064 0 0 0-.053-.489 1.694 1.694 0 0 0-1.665-1.339c-1.197 0-1.904 1.051-1.904 2.46 0 1.289.622 2.356 1.867 2.356a1.731 1.731 0 0 0 1.703-1.38c.038-.164.056-.332.053-.501v-1.107h-.001zm4.374-4.374a.717.717 0 1 1-1.436 0 .707.707 0 0 1 .688-.723h.032a.687.687 0 0 1 .716.723zm-1.298 8.141v-6.368h1.147v6.368H22.62zm6.599 0-.087-.798h-.044a2.379 2.379 0 0 1-1.947.934 1.807 1.807 0 0 1-1.94-1.651v-.16c0-1.54 1.36-2.38 3.809-2.369v-.132a1.312 1.312 0 0 0-1.446-1.476 3.174 3.174 0 0 0-1.649.479l-.269-.766a3.999 3.999 0 0 1 2.092-.564c1.947 0 2.421 1.329 2.421 2.604v2.38a9.516 9.516 0 0 0 .108 1.527H29.2l.019-.008zm-.172-3.246c-1.259-.032-2.698.199-2.698 1.429a1.017 1.017 0 0 0 1.088 1.117c.69.02 1.315-.408 1.544-1.06l.071-.383-.005-1.103zm2.94 3.246c.024-.433.053-1.088.053-1.649v-7.688h1.149v4.002h.021a2.38 2.38 0 0 1 2.163-1.17 2.857 2.857 0 0 1 2.716 2.991v.004c0 .085-.008.169-.024.252a3.015 3.015 0 0 1-2.596 3.38h-.009c-.084.011-.169.017-.254.023-.88.05-1.71-.414-2.129-1.19h-.037l-.048 1.051-1.005-.006zm1.199-2.554.05.419a1.786 1.786 0 0 0 1.731 1.355c1.213 0 1.933-.983 1.933-2.443 0-1.276-.658-2.37-1.894-2.37a1.85 1.85 0 0 0-1.756 1.417l-.063.479v1.142h-.001zm6.983-.422a2.037 2.037 0 0 0 1.847 2.208c.111.009.222.009.332 0a4.121 4.121 0 0 0 1.756-.332l.199.832a5.154 5.154 0 0 1-2.12.393 2.959 2.959 0 0 1-3.137-2.769v-.001a2.986 2.986 0 0 1 0-.423 3.094 3.094 0 0 1 2.722-3.424h.011a2.37 2.37 0 0 1 .252-.017 2.696 2.696 0 0 1 2.651 2.741v.001c0 .085-.006.17-.017.254l-.037.541-4.459-.004zm3.393-.826a1.65 1.65 0 0 0-1.596-1.883 1.903 1.903 0 0 0-1.775 1.883h3.371zm3.938-4.394v1.832h1.666v.882H47.51v3.426c0 .798.229 1.238.865 1.238.227.005.453-.018.674-.067l.05.865a2.738 2.738 0 0 1-1.015.16 1.605 1.605 0 0 1-1.246-.479 2.367 2.367 0 0 1-.452-1.657v-3.484h-.993v-.883h.991v-1.525l1.127-.303-.011-.005zm3.525 5.222a2.047 2.047 0 0 0 2.188 2.208 4.121 4.121 0 0 0 1.756-.332l.196.832a5.137 5.137 0 0 1-2.117.393 2.957 2.957 0 0 1-3.137-2.766 2.845 2.845 0 0 1 0-.433 3.094 3.094 0 0 1 2.713-3.424h.011c.084-.01.171-.016.255-.017a2.705 2.705 0 0 1 2.656 2.747c0 .084-.006.169-.017.252l-.038.541h-4.466zm3.396-.826a1.647 1.647 0 0 0-1.595-1.883c-.99.073-1.761.89-1.775 1.883h3.37zm2.394 2.612c.458.291.988.453 1.531.466.842 0 1.232-.422 1.232-.957 0-.535-.332-.853-1.185-1.172-1.14-.406-1.675-1.033-1.675-1.802a1.962 1.962 0 0 1 2.04-1.88c.054 0 .107.005.16.013.544-.005 1.08.13 1.557.394l-.289.859a2.506 2.506 0 0 0-1.309-.363c-.688 0-1.067.392-1.067.865 0 .524.379.757 1.212 1.088 1.101.416 1.668.974 1.668 1.916 0 1.117-.865 1.904-2.38 1.904a3.633 3.633 0 0 1-1.792-.433l.284-.879.013-.019zm5.409-7.562a16.328 16.328 0 0 1 2.43-.184c1.296-.1 2.58.3 3.59 1.117a4.072 4.072 0 0 1 1.246 3.175 4.678 4.678 0 0 1-1.276 3.444 5.428 5.428 0 0 1-3.913 1.276 18.44 18.44 0 0 1-2.075-.108v-8.721l-.002.001zm1.149 7.841a6.94 6.94 0 0 0 1.152.067 3.406 3.406 0 0 0 3.777-3.76 3.163 3.163 0 0 0-2.858-3.441h-.001a3.111 3.111 0 0 0-.728.016 6.107 6.107 0 0 0-1.335.124v6.992l-.007.002zm12.197-3.245h-3.438v3.2h3.83v.957h-4.976v-8.87h4.789v.974H72.13v2.802h3.446l-.006.937z"/><path id="Pfad_8" class="st3" d="M17.67 99.186a5.681 5.681 0 0 0 3.112.778c2.41 0 4.417-1.246 4.417-3.671a3.269 3.269 0 0 0-2.152-2.873c-.923-.519-1.587-.906-1.587-1.538 0-.6.567-1.134 1.651-1.134a4.283 4.283 0 0 1 2.024.466l.728-1.941a5.37 5.37 0 0 0-2.554-.533c-2.38 0-4.286 1.342-4.286 3.542a3.434 3.434 0 0 0 2.249 2.857c1.003.533 1.473.923 1.473 1.557 0 .843-.825 1.276-1.712 1.276a5.25 5.25 0 0 1-2.573-.681l-.778 1.904-.012-.009zm10.519-8.779-.291 1.495h-1.011l-.33 1.779h1.003l-.598 3.112a6.673 6.673 0 0 0-.177 1.456c0 1.003.664 1.712 2.075 1.712.465.009.929-.051 1.376-.177l.259-1.829a4.394 4.394 0 0 1-.638.034c-.519 0-.681-.276-.681-.664.013-.332.056-.662.13-.987l.541-2.658h1.682l.358-1.779H30.18l.406-2.135-2.394.649-.003-.008zm10.873 9.405a19.142 19.142 0 0 1 .325-3.559l.825-4.15a9.283 9.283 0 0 0-2.607-.389 5.352 5.352 0 0 0-5.656 5.028c-.01.163-.01.327 0 .49a2.453 2.453 0 0 0 2.395 2.749 2.983 2.983 0 0 0 2.642-1.747h.034c-.034.567-.081 1.1-.097 1.569l2.139.009zm-1.831-4.435c-.358 1.947-1.215 2.735-1.904 2.735-.649 0-.957-.533-.957-1.31 0-1.473 1.1-3.317 2.589-3.317.218.002.435.023.649.065l-.375 1.829-.002-.002zm5.89 4.435.55-2.945c.291-1.557 1.003-2.857 2.476-2.857.124-.003.249.002.372.016l.452-2.282c-.13 0-.291-.016-.433-.016a2.955 2.955 0 0 0-2.531 1.803h-.047c.065-.567.097-1.1.144-1.635h-2.025c-.081.681-.177 2.007-.406 3.203l-.89 4.709 2.338.004zm5.972 0 .479-2.54.873-.843 1.392 3.383h2.607l-2.195-4.651 3.364-3.267h-2.874l-2.024 2.409c-.227.276-.466.583-.712.89h-.038l1.307-6.877h-2.315l-2.173 11.492 2.309.004zm11.503 0 1.167-6.132h1.544l.34-1.779h-1.565l.068-.395c.145-.798.622-1.456 1.376-1.456.254-.003.506.041.744.13l.406-1.839a3.247 3.247 0 0 0-1.231-.195 3.564 3.564 0 0 0-2.265.744 4.34 4.34 0 0 0-1.342 2.607l-.065.406h-1.034l-.334 1.777h1.011l-1.161 6.129 2.341.003zm8.996-7.912-.696 3.667c-.291 1.569-1.117 2.525-1.904 2.525-.583 0-.798-.406-.798-.907.011-.353.049-.704.115-1.051l.809-4.238h-2.332l-.843 4.423a7.206 7.206 0 0 0-.16 1.456c0 1.505.757 2.222 2.04 2.222a3.416 3.416 0 0 0 2.713-1.473l.034.016-.144 1.276h2.055c.115-.711.242-1.569.433-2.573l1.003-5.339-2.325-.004zm-2.638-1.051a1.16 1.16 0 0 0 1.197-1.117v-.094a1.013 1.013 0 0 0-.956-1.068H67.1a1.19 1.19 0 0 0-1.233 1.136v.069a1.036 1.036 0 0 0 1.003 1.068h.083l.001.006zm3.317 0a1.16 1.16 0 0 0 1.197-1.117v-.094a1.013 1.013 0 0 0-.956-1.068h-.096a1.19 1.19 0 0 0-1.231 1.14v.065a1.027 1.027 0 0 0 .983 1.068h.102l.001.006zm4.435 8.964.55-2.945c.291-1.557 1.003-2.857 2.476-2.857.124-.003.249.002.372.016l.452-2.282c-.13 0-.291-.016-.433-.016a2.957 2.957 0 0 0-2.527 1.803h-.048c.065-.567.097-1.1.144-1.635h-2.007c-.081.681-.177 2.007-.406 3.203l-.89 4.709 2.317.004zm17.776 0 1.48-10.904h-3.137L88.8 93.054a35.67 35.67 0 0 0-1.473 3.48h-.063c-.016-1.215-.13-2.444-.195-3.462l-.343-4.163h-3.119l-2.735 10.9h2.135l1.082-4.498c.276-1.165.6-2.813.906-4.256h.034c.066 1.456.144 2.957.242 4.158l.388 4.417h1.812l2.235-4.47a78.198 78.198 0 0 0 1.877-4.111h.048c-.325 1.587-.55 3.074-.728 4.256l-.671 4.501 2.25.007zm4.126 0 1.505-7.912H95.81l-1.514 7.912h2.312zm.649-8.898a1.29 1.29 0 0 0 1.372-1.202v-.11a1.1 1.1 0 0 0-1.047-1.151h-.118a1.315 1.315 0 0 0-1.342 1.286v.037a1.076 1.076 0 0 0 1.01 1.132h.124l.001.008zm3.659 8.894 2.225-11.483h-2.333l-2.207 11.492 2.315-.009zm4.286 0 2.235-11.483h-2.346l-2.201 11.492 2.312-.009zm4.271 0 1.505-7.912h-2.313l-1.504 7.912h2.312zm.649-8.898a1.292 1.292 0 0 0 1.373-1.205v-.108a1.1 1.1 0 0 0-1.167-1.151 1.315 1.315 0 0 0-1.342 1.286v.042a1.076 1.076 0 0 0 1.01 1.132h.124l.002.004zm4.966 9.077a4.716 4.716 0 0 0 4.716-4.716v-.282a3.147 3.147 0 0 0-3.018-3.272 3.082 3.082 0 0 0-.333 0 4.76 4.76 0 0 0-4.729 4.789v.216a3.13 3.13 0 0 0 2.981 3.272c.123.008.247.008.37 0l.013-.007zm.324-1.78c-.809 0-1.276-.614-1.276-1.538 0-1.231.664-3.175 2.007-3.175.923 0 1.246.757 1.246 1.505 0 1.342-.728 3.203-1.974 3.203l-.003.005zm7.264 1.597.649-3.511c.34-1.746 1.215-2.698 1.974-2.698.6 0 .798.389.798.957a5.109 5.109 0 0 1-.081.873l-.832 4.383h2.363l.873-4.603a9.68 9.68 0 0 0 .13-1.326 1.915 1.915 0 0 0-1.64-2.155h-.001a1.836 1.836 0 0 0-.399-.013 3.359 3.359 0 0 0-2.768 1.491h-.04l.145-1.31h-2.065a45.635 45.635 0 0 1-.422 2.573l-1.003 5.344 2.319-.005zm13.231-2.152a4.986 4.986 0 0 1-2.222.501 1.868 1.868 0 0 1-1.521-.598 1.566 1.566 0 0 1-.242-.809c3.175.081 5.136-.649 5.136-2.646a2.44 2.44 0 0 0-2.751-2.381 4.759 4.759 0 0 0-4.621 4.894v.032a3.07 3.07 0 0 0 3.429 3.323 6.814 6.814 0 0 0 2.945-.622l-.16-1.682.007-.012zm-1.037-3.559c0 .728-.906.974-2.713.957a1.979 1.979 0 0 1 1.86-1.636c.533 0 .857.276.857.664v.016l-.004-.001zm5.018 5.714.649-3.511c.34-1.746 1.215-2.698 1.974-2.698.598 0 .798.389.798.957a5.109 5.109 0 0 1-.081.873l-.836 4.38h2.334l.873-4.603a9.68 9.68 0 0 0 .13-1.326 1.915 1.915 0 0 0-1.64-2.155h-.001a1.836 1.836 0 0 0-.399-.013 3.359 3.359 0 0 0-2.768 1.491h-.014l.144-1.31h-2.055a43.878 43.878 0 0 1-.422 2.573l-1.003 5.344 2.317-.002zm8.17.16a1.54 1.54 0 0 0 1.597-1.471v-.123a1.305 1.305 0 0 0-1.212-1.39h-.115a1.588 1.588 0 0 0-1.571 1.597v.041a1.278 1.278 0 0 0 1.178 1.34h.108l.015.006z"/></svg>