<?xml version="1.0" encoding="UTF-8"?>
<svg id="Ebene_1" data-name="Ebene 1" xmlns="http://www.w3.org/2000/svg" viewBox="0 0 233.86 60.39" width="234px" height="60px">
  <defs>
    <style>
      .cls-1 {
        fill: #903;
      }

      .cls-1, .cls-2 {
        stroke-width: 0px;
      }

      .cls-2 {
        fill: #006;
      }
    </style>
  </defs>
  <g id="logo">
    <path class="cls-1" d="M233.53,15.02c.23,0,.25.19.29.37v.04c.01.06,0,.13.01.19.02.07.02.14.02.21-.01.04-.01.09,0,.14,0,.03,0,.06,0,.09,0,.07.01.13,0,.2,0,.1,0,.2-.02.29,0,.03,0,.06,0,.08,0,.06,0,.13,0,.19,0,.04,0,.08,0,.12v.06s0,.1,0,.15v.29c0,.05,0,.11,0,.16,0,.03,0,.07,0,.1,0,.05,0,.09,0,.14,0,.03,0,.06,0,.09.02.12.02.25,0,.37-.01.05-.01.1-.02.14-.02.08-.03.16-.05.23-.03.09-.06.18-.09.28-.03.07-.06.13-.09.19-.02.06-.04.12-.06.18-.03.06-.06.13-.09.19-.09.2-.17.38-.27.56-.09.17-.16.33-.26.49-.05.09-.08.19-.14.28-.04.08-.1.15-.14.22-.04.06-.07.13-.11.2-.16.25-.31.51-.47.77-.05.09-.12.16-.17.25-.06.1-.12.2-.18.3-.13.2-.25.41-.38.62-.03.04-.06.08-.09.12-.03.04-.05.09-.08.14-.03.05-.07.1-.1.15-.07.11-.13.21-.2.32-.03.04-.06.09-.09.13-.03.04-.04.09-.07.13-.05.08-.1.17-.15.25-.04.05-.06.11-.09.17-.09.15-.2.29-.29.43-.08.12-.15.26-.22.38-.02.03-.03.06-.04.08-.04.06-.06.11-.1.17-.04.07-.1.14-.15.21-.04.07-.09.13-.13.2-.04.05-.08.1-.11.15-.07.09-.12.19-.19.29-.05.07-.11.15-.16.22-.04.05-.07.11-.1.17-.03.04-.07.08-.1.13-.12.18-.26.35-.39.52-.07.09-.15.18-.22.27-.02.02-.04.04-.06.07-.16.21-.34.41-.5.62-.07.1-.16.18-.23.28-.01.01-.03.03-.04.04-.04.06-.1.11-.15.17l-.05.05s-.07.08-.11.12c-.04.05-.08.09-.12.14-.02.02-.03.03-.05.05-.04.05-.08.09-.12.14l-.02.02s-.07.07-.1.11c-.07.09-.16.17-.23.27-.02.03-.05.05-.07.07-.04.04-.09.09-.13.14-.04.05-.08.08-.12.13-.01.01-.03.03-.04.04-.05.07-.11.13-.18.2-.03.03-.06.06-.09.09-.1.14-.25.25-.35.39-.01.01-.03.03-.04.04-.05.06-.11.11-.16.17-.02.01-.03.03-.05.04-.04.06-.09.1-.13.15-.02.02-.03.03-.05.05-.04.06-.09.11-.13.16-.04.04-.09.09-.13.13-.02.03-.05.05-.07.08l-.03.03c-.04.06-.09.1-.13.16-.09.1-.2.18-.28.29-.04.04-.07.07-.11.11-.03.04-.07.08-.11.12-.02.02-.03.03-.05.05-.03.04-.07.08-.11.11-.06.06-.12.12-.18.18-.05.05-.1.1-.15.15-.03.03-.06.06-.08.09-.04.05-.08.1-.13.14-.03.03-.06.06-.1.09l-.03.03s-.08.08-.13.11c-.02.02-.04.04-.05.06-.04.04-.08.08-.12.12-.03.03-.05.05-.08.08-.05.04-.09.08-.14.12l-.04.04c-.07.05-.13.11-.19.16-.04.04-.09.09-.13.13-.17.13-.31.29-.48.42-.04.03-.07.07-.1.1-.05.05-.11.11-.16.15-.04.03-.06.07-.1.09-.13.1-.24.21-.37.31-.04.03-.07.08-.11.11-.07.05-.13.12-.21.17-.03.02-.05.06-.08.08-.08.06-.16.14-.24.2,0,.01-.02.02-.03.03-.04.02-.06.06-.09.08-.08.06-.15.13-.23.19-.03.02-.06.06-.09.08-.08.06-.16.14-.24.2-.04.03-.06.07-.1.09l-.21.16c-.09.07-.16.15-.25.22-.02.02-.04.04-.06.05-.08.06-.16.11-.25.17-.05.04-.09.08-.14.12-.06.04-.12.08-.17.12-.05.04-.1.09-.15.13-.16.12-.34.23-.5.34-.09.07-.17.15-.27.21-.06.04-.12.08-.17.12-.05.04-.1.08-.16.12-.06.04-.12.07-.18.12-.09.06-.17.14-.27.21-.05.04-.11.06-.16.09-.08.05-.17.09-.25.14-.11.07-.21.16-.33.23-.05.03-.1.06-.14.08-.04.02-.07.03-.1.05-.06.04-.13.08-.19.12-.07.04-.14.07-.2.11-.06.04-.13.08-.19.12-.02,0-.03.01-.05.02-.03.02-.06.04-.1.05-.06.03-.12.05-.18.08-.07.03-.13.07-.2.1-.08.03-.16.05-.23.08-.06.03-.12.06-.18.09-.06.03-.12.04-.19.07-.07.03-.14.06-.21.09-.07.03-.15.04-.22.07-.1.04-.19.08-.28.12-.07.03-.16.04-.24.06-.1.04-.2.07-.31.11-.07.02-.16.03-.24.05-.03,0-.06,0-.08,0-.08.02-.14.04-.22.06-.07.02-.14,0-.2.02-.05.02-.11.03-.16.05-.04,0-.09,0-.13,0-.06,0-.13,0-.18,0-.04,0-.07,0-.1,0-.11.02-.23.03-.34.03-.05,0-.1,0-.15,0-.04,0-.11,0-.15,0h-.08c-.06-.02-.13-.01-.2-.02h-.43s-.06-.01-.08-.01c-.07-.02-.13-.04-.21-.05-.05,0-.11,0-.17,0-.09-.02-.16-.04-.25-.06-.04,0-.09,0-.13,0-.09-.02-.18-.02-.26-.05-.15-.05-.31-.08-.46-.14-.1-.03-.18-.07-.27-.11-.07-.03-.16-.04-.24-.07-.15-.06-.29-.12-.44-.18-.07-.03-.14-.06-.2-.1-.03-.02-.06-.02-.08-.04-.07-.04-.14-.08-.21-.13-.04-.03-.09-.04-.13-.07-.11-.07-.23-.13-.34-.2-.11-.07-.21-.15-.31-.23-.07-.05-.13-.12-.21-.18-.04-.03-.08-.07-.12-.11-.01-.01-.02-.03-.04-.04-.13-.1-.24-.22-.33-.35l-.05-.05c-.06-.08-.13-.14-.19-.21-.05-.07-.12-.14-.17-.21-.04-.06-.08-.13-.12-.19-.09-.12-.19-.24-.28-.37-.11-.17-.2-.34-.3-.51-.04-.07-.06-.14-.11-.21-.04-.07-.08-.14-.12-.21-.02-.03-.03-.06-.04-.09-.03-.05-.06-.11-.09-.17-.08-.18-.15-.36-.23-.53-.04-.09-.07-.19-.11-.28-.08-.19-.16-.39-.24-.58-.02-.07-.04-.13-.07-.2-.06-.14-.11-.29-.16-.44-.04-.14-.08-.28-.12-.41-.01-.07-.03-.13-.04-.2-.02-.06-.04-.12-.05-.18-.01-.04-.01-.07-.03-.1-.03-.08-.05-.17-.07-.26-.03-.09-.03-.19-.06-.29,0-.05-.02-.1-.04-.14-.02-.07-.05-.14-.08-.21-.01-.06-.03-.12-.04-.17-.03-.09-.06-.19-.09-.28-.04-.1-.04-.22-.07-.32-.02-.1-.03-.21-.02-.31,0-.05,0-.11,0-.16-.02-.07-.01-.15-.03-.22,0-.04,0-.08,0-.12,0-.04,0-.08-.02-.12v-.04s0-.03,0-.04c0-.05,0-.1.02-.14.05-.14.09-.28.14-.42.03-.08.03-.17.06-.25.04-.1.1-.19.13-.3.04-.15.07-.29.1-.44.02-.12.02-.24,0-.36,0-.03,0-.06-.01-.09v-.16c-.04-.14-.03-.29-.06-.43,0-.08-.01-.16-.01-.24v-.1s0-.08-.01-.12c-.02-.08-.02-.16-.01-.24.02-.09.03-.17.05-.25.06-.18.15-.36.26-.52.04-.07.07-.14.12-.2.03-.05.08-.08.12-.13.06-.07.12-.14.19-.19,0,0,.02-.02.03-.03.04-.03.08-.08.13-.11.04-.03.07-.08.12-.11.07-.05.13-.1.2-.15.05-.04.1-.09.16-.12.08-.05.18-.09.27-.15.06-.04.12-.08.18-.11.05-.03.12-.06.17-.09.07-.04.14-.07.21-.09.03,0,.05-.01.07-.02.13-.05.26-.09.39-.13.04,0,.07,0,.11,0,.07,0,.14-.01.22,0h.06c.05.01.11,0,.16.02.23.08.44.23.59.43.02.03.05.05.07.08.05.07.08.15.13.22.09.14.16.29.23.44.03.08.07.16.09.24.02.06.03.13.05.19.03.08.06.16.09.24.02.05.02.1.04.14.02.04.04.08.05.12.02.06.03.13.05.2.04.14.08.28.12.42l.08.35c.07.21.12.42.19.63.02.08.04.15.06.22.08.25.17.49.25.74.06.14.13.27.19.4.05.11.09.21.14.31.03.05.06.11.09.16.01.02.02.04.03.07.04.06.07.13.11.19.04.06.06.13.1.2.05.08.1.15.15.22.05.07.09.15.14.22.04.05.09.1.13.16.06.08.11.17.17.25.06.08.14.15.2.23.03.03.05.05.08.08.02.03.05.05.07.08.09.12.2.22.33.3.05.04.08.09.13.12.06.04.12.09.18.13.03.02.06.05.09.08.05.03.1.06.15.09.05.03.11.07.16.11.04.03.09.05.13.08.06.04.12.08.17.12.05.03.12.06.18.09.07.04.14.07.21.1.07.03.13.07.2.1.06.03.13.04.19.07.08.03.16.07.24.1.05.02.11.03.16.05.12.05.24.1.37.14.07.01.14.03.22.04h.06c.06.03.12.04.19.06.04,0,.08.01.12.02.07.02.13.04.2.05.07.02.18,0,.25.01.22.03.45.04.68.03.24.01.49,0,.73-.03.06,0,.12,0,.18-.01.16-.04.32-.08.47-.13.07-.02.14-.03.21-.05.1-.03.19-.08.29-.11.06-.02.12-.04.19-.06.05-.02.09-.04.13-.06.02-.01.04-.02.06-.03.12-.05.24-.11.35-.17.01,0,.03-.01.04-.02l.13-.07s.04-.02.05-.02c.05-.03.11-.06.17-.09.03-.02.06-.03.09-.04.04-.03.09-.05.13-.08.07-.04.16-.07.23-.11.24-.15.47-.29.71-.44.08-.05.15-.11.23-.16.1-.07.2-.12.3-.19.04-.03.08-.06.12-.09.05-.04.11-.07.16-.11.04-.03.07-.06.11-.09.12-.09.24-.17.36-.26.03-.02.06-.05.09-.08.06-.04.12-.08.17-.13.03-.02.06-.05.1-.07.1-.07.2-.14.3-.21.06-.04.11-.1.17-.15.16-.12.31-.24.47-.36.05-.04.1-.09.15-.13.07-.05.13-.1.2-.15.04-.03.07-.06.1-.09.21-.16.42-.34.63-.5l.06-.06s.09-.09.14-.12c.09-.07.17-.15.26-.22.05-.04.1-.09.15-.13l.03-.03c.06-.05.11-.11.17-.16.06-.05.13-.1.19-.14.05-.05.1-.1.15-.15.03-.02.05-.05.08-.07,0,0,.02-.02.03-.03.02-.02.05-.04.07-.06,0-.01.02-.02.03-.03.07-.05.13-.12.2-.18.09-.09.18-.18.26-.26.05-.05.09-.09.14-.14.03-.03.06-.06.09-.09.03-.02.04-.05.07-.07.04-.03.06-.06.1-.09.02-.02.04-.04.06-.06.02-.01.03-.03.05-.05.03-.04.07-.07.11-.11.09-.09.18-.17.26-.26.08-.06.15-.14.23-.2.03-.02.05-.05.08-.07l.02-.03c.1-.07.19-.16.27-.26.02-.02.04-.04.06-.05.01-.01.03-.03.04-.04.03-.03.06-.06.09-.09.01,0,.02-.02.03-.03.04-.05.08-.08.11-.13.02-.02.04-.03.05-.05.03-.03.05-.06.08-.09.01-.01.02-.02.03-.04.07-.06.14-.12.21-.19.04-.04.08-.08.12-.12.02-.03.05-.06.07-.08,0,0,.02-.02.03-.03.04-.03.07-.06.1-.1.04-.04.08-.08.11-.11.13-.13.26-.27.37-.41.05-.05.1-.1.15-.16.11-.14.23-.26.33-.4.03-.03.06-.06.08-.09.08-.1.16-.2.24-.31.04-.06.1-.1.14-.16.1-.13.2-.26.29-.39.03-.03.06-.06.09-.1.05-.07.11-.13.16-.2.06-.08.1-.17.16-.26.05-.07.11-.12.16-.19.07-.11.13-.23.21-.33.03-.05.07-.09.1-.14.04-.05.07-.11.11-.17.03-.05.07-.09.11-.14.04-.06.07-.14.11-.2.04-.06.08-.12.12-.17.04-.05.06-.1.09-.16.05-.08.11-.16.16-.24.02-.02.02-.05.04-.07.05-.08.09-.16.14-.24.12-.2.24-.42.36-.62.04-.06.06-.13.1-.19.16-.26.31-.54.48-.8.05-.07.08-.16.12-.23.04-.07.09-.14.13-.2.03-.04.05-.09.07-.13.08-.12.15-.25.22-.37.03-.05.05-.1.08-.15.11-.18.22-.35.32-.52.04-.07.07-.14.11-.21,0-.02.02-.05.03-.07.05-.08.09-.16.14-.24.03-.04.04-.08.06-.13.04-.07.09-.14.13-.21.03-.05.04-.1.07-.14.04-.07.08-.14.11-.21.02-.05.04-.1.06-.15.03-.06.06-.12.08-.18.04-.1.08-.19.12-.29.02-.04.02-.07.04-.11.03-.07.07-.15.1-.22.03-.06.04-.13.07-.19.05-.14.11-.28.2-.4.02-.03.05-.05.09-.07.02,0,.04,0,.05-.01Z"/>
    <path class="cls-1" d="M222.84,11.29h.21s.07,0,.11,0c.05.01.08.02.13.04h.04s.08,0,.12,0c.04,0,.07.02.1.03.02,0,.05,0,.07.01.03,0,.05.02.08.03.02,0,.04,0,.07.01.02,0,.05.02.07.03.02,0,.04,0,.05.01.03,0,.06.02.09.03.03,0,.05.01.08.02.04.01.07.03.11.04.03.01.06.03.09.04.05.02.09.04.14.06.04.03.08.06.12.08.02.01.04.04.06.05l.02.02s.03.03.04.04c0,0,.01.02.02.02.06.05.12.11.17.17,0,0,0,0,.02.01,0,.01.03.03.04.04.03.03.05.07.08.1.02.02.03.04.05.06.02.04.04.07.06.11.03.05.05.1.07.15,0,.02.01.03.02.05.02.04.03.09.04.13.02.05.02.1.04.15.02.05.03.09.04.14,0,.04.01.08.02.12,0,0,0,.01,0,.02,0,.02,0,.04,0,.06,0,.04.02.08.03.13,0,.01,0,.03,0,.05,0,.03,0,.05,0,.08v.28s0,.04,0,.06c0,.02,0,.03,0,.05v.02s0,.05,0,.07v.08s-.02.07-.03.1c0,.02,0,.03,0,.05,0,.04-.01.09-.02.13,0,.02,0,.03,0,.05-.01.05-.02.09-.03.13-.01.04-.01.08-.02.12-.01.04-.03.08-.04.12,0,.04-.02.08-.03.11-.03.07-.05.15-.07.22-.02.04-.04.08-.05.11-.02.05-.03.1-.05.14-.01.03-.03.05-.04.08,0,.02-.02.04-.03.06-.02.03-.03.06-.05.1-.02.03-.03.07-.05.1-.03.05-.05.09-.08.14-.02.04-.05.07-.07.11-.04.06-.06.12-.1.17-.02.03-.04.05-.06.08-.03.04-.05.07-.08.1-.02.02-.04.04-.05.07-.03.04-.06.08-.08.12-.02.03-.05.05-.07.08-.02.02-.04.03-.05.05-.02.02-.04.05-.06.06,0,0-.02.02-.03.03-.03.03-.06.05-.08.08-.04.04-.08.08-.12.12-.02.02-.04.05-.07.07-.03.02-.05.04-.08.06-.04.03-.09.06-.13.09-.04.03-.09.07-.13.1-.12.08-.24.16-.36.23-.05.03-.1.07-.15.1-.06.04-.13.07-.19.11-.04.03-.09.06-.13.09-.03.02-.06.03-.09.05-.03.02-.06.04-.09.05-.01,0-.02,0-.03.01-.08.05-.17.09-.26.13-.03.01-.06.03-.1.05-.03.01-.06.02-.09.03-.05.02-.1.04-.15.06-.02,0-.04,0-.06.01-.03,0-.06.02-.09.03-.03,0-.06,0-.09.01-.03,0-.06.02-.1.03-.03,0-.06,0-.09,0h-.41s-.08,0-.12,0c-.04,0-.08-.02-.11-.03-.03,0-.07,0-.1-.02-.04-.01-.07-.03-.11-.05-.04-.02-.07-.03-.11-.04-.22-.15-.41-.34-.56-.57-.03-.04-.06-.07-.09-.11-.03-.04-.07-.07-.1-.11l-.02-.02s-.07-.08-.11-.12c-.02-.02-.04-.04-.06-.06-.02-.03-.05-.06-.08-.09-.01-.02-.03-.03-.04-.04-.07-.09-.15-.18-.21-.27-.03-.04-.04-.08-.07-.12-.02-.02-.03-.05-.04-.08-.03-.06-.05-.11-.07-.17,0-.03-.01-.06-.02-.09-.02-.05-.03-.11-.04-.16,0-.03,0-.05-.02-.08,0-.05,0-.1,0-.15v-.05s0-.05,0-.07v-.05s0-.08.02-.12c0-.03,0-.07,0-.1v-.02s0-.04,0-.05c0-.03.01-.05.02-.08,0-.04,0-.08.01-.11,0-.01,0-.03,0-.04,0-.02,0-.04,0-.06.02-.07.01-.15.03-.22,0-.03,0-.06,0-.09.02-.07.03-.12.05-.19.02-.07.04-.13.06-.2,0-.04,0-.07.01-.11,0-.02,0-.04,0-.06,0-.02,0-.04,0-.06,0-.02,0-.04,0-.05v-.02s0-.03,0-.05v-.11s.01-.02.01-.02c0-.03,0-.05,0-.08,0-.02,0-.04,0-.06.02-.08.03-.15.05-.22.04-.12.1-.23.17-.33.01-.02.04-.04.05-.06.03-.04.06-.07.09-.1.02-.02.05-.05.07-.07.04-.03.07-.06.11-.08.02-.02.04-.04.06-.06.04-.03.07-.06.12-.08.03-.02.07-.04.11-.06.06-.03.13-.06.19-.1.02,0,.03-.01.05-.02.04-.02.08-.05.12-.08.02,0,.04-.02.06-.03.03-.02.06-.03.09-.05,0,0,.02,0,.03-.01.03-.01.06-.03.08-.04.04-.02.08-.04.12-.06.08-.04.18-.06.27-.09.02,0,.05-.01.07-.02.06-.02.11-.05.17-.07.04-.02.07-.03.11-.05.03-.02.07-.04.1-.06.04-.02.06-.05.1-.07.03-.02.06-.04.09-.06.04-.03.07-.06.11-.09.08-.06.16-.12.25-.18.04-.03.09-.07.13-.1.05-.04.11-.07.17-.1.04-.02.08-.04.13-.05.03,0,.07,0,.1-.02.03,0,.06-.02.09-.03.03,0,.06,0,.09,0,.03,0,.06-.02.1-.03.01,0,.05,0,.06,0Z"/>
    <path class="cls-1" d="M209.58,16.71c-.07.02-.13.03-.2.05-.03.01-.07.02-.11.02-.05,0-.09,0-.14,0h-.03s-.08.03-.12.03c-.03,0-.07,0-.1,0-.02,0-.05,0-.07,0-.03,0-.06,0-.09,0-.02,0-.04,0-.07,0-.02,0-.05,0-.07,0-.02,0-.04,0-.06,0-.03,0-.06,0-.09,0-.03,0-.06,0-.08,0-.04,0-.08,0-.12-.02-.03,0-.06-.01-.09-.02-.05,0-.1-.01-.15-.03-.05-.01-.09-.03-.13-.05-.02,0-.04-.03-.07-.04h-.02s-.04-.03-.05-.04l-.03-.02c-.07-.03-.14-.07-.2-.12h-.02s-.03-.03-.05-.04c-.03-.03-.07-.05-.1-.08-.02-.01-.04-.03-.06-.05-.03-.03-.06-.06-.09-.1-.04-.04-.07-.08-.11-.13,0-.01-.02-.03-.03-.04-.03-.04-.05-.08-.08-.12-.03-.04-.04-.09-.07-.13-.03-.04-.05-.08-.08-.13-.02-.04-.03-.07-.05-.11v-.02s-.02-.04-.03-.06c-.02-.04-.04-.08-.06-.12,0-.01,0-.03-.02-.04,0-.03-.01-.05-.02-.08-.02-.05-.03-.1-.04-.16,0-.04-.02-.08-.03-.12,0-.02,0-.04-.01-.06,0-.02,0-.04-.01-.05v-.02s-.02-.04-.02-.07c0-.02,0-.05,0-.08,0-.03,0-.07,0-.11,0-.02,0-.03,0-.05,0-.04,0-.09-.01-.13v-.05s-.01-.09-.01-.14c0-.04,0-.08,0-.12,0-.04,0-.08,0-.13,0-.04,0-.08,0-.12,0-.08,0-.16.02-.23,0-.04.02-.08.02-.12,0-.05,0-.1.02-.15,0-.03.01-.06.02-.09,0-.02,0-.05.02-.07,0-.03.02-.07.03-.11,0-.04,0-.08.02-.11.01-.05.02-.1.04-.15l.04-.12c.02-.07.03-.13.06-.19.01-.03.03-.06.04-.09.02-.04.03-.08.05-.12,0-.03.03-.05.04-.08.02-.05.04-.09.05-.14.01-.03.03-.06.05-.1,0-.02.03-.04.03-.06.01-.03.03-.05.04-.07,0-.01.01-.02.02-.04.02-.03.04-.07.06-.1.03-.05.06-.09.09-.14.01-.03.03-.05.05-.08.02-.03.04-.06.06-.08.04-.04.07-.08.1-.12.03-.04.06-.08.1-.12.09-.11.19-.21.29-.31.04-.04.08-.09.12-.13.05-.05.11-.1.16-.16.04-.04.07-.08.11-.12.02-.03.05-.05.08-.07.02-.03.05-.05.08-.08,0,0,.02-.01.03-.02.07-.07.14-.13.22-.19.03-.02.06-.05.08-.07.03-.02.05-.03.08-.05.04-.03.09-.06.13-.09.02-.01.04-.02.06-.03.03-.02.05-.03.08-.05.02-.01.05-.02.08-.03.03-.02.06-.04.09-.05.03-.01.06-.02.09-.03.05-.01.11-.03.16-.04.08-.02.16-.04.23-.06.04-.01.08-.02.12-.03.04,0,.08,0,.12,0,.04,0,.07-.01.1,0,.04,0,.08.01.11.02.04,0,.08,0,.12.02.25.09.48.23.68.42.03.03.07.05.11.08.04.03.08.05.12.08,0,0,.01,0,.02.01.04.03.09.06.13.09.03.01.05.03.07.04.03.02.07.04.1.07.02.01.04.02.05.03.09.07.19.14.27.21.03.03.06.06.09.1.02.02.04.04.06.06.04.05.08.1.11.15.02.03.03.05.04.08.03.05.05.1.08.15.01.03.02.05.03.08.02.04.03.1.04.14,0,.02,0,.04.01.05,0,.02.01.04.02.07,0,.02,0,.03,0,.05,0,.04.01.08.02.12,0,.03,0,.06.01.1,0,0,0,.01,0,.02,0,.02,0,.04,0,.05,0,.03,0,.06,0,.08,0,.04.02.08.02.11,0,.01,0,.03,0,.04,0,.02,0,.04,0,.06,0,.07.03.15.03.22v.09c.01.07.01.13,0,.19,0,.07-.01.14-.01.21,0,.03,0,.07.01.11,0,.02,0,.04.01.06,0,.02,0,.04.01.06,0,.02,0,.03,0,.05v.02s.01.03.01.05c0,.04,0,.07.02.11,0,0,0,.02,0,.02v.08s.02.04.02.06c0,.08.02.16,0,.23,0,.12-.04.25-.09.36-.01.02-.03.04-.04.07-.02.04-.04.08-.07.12-.02.03-.04.06-.05.09-.03.04-.05.07-.08.11-.02.02-.03.05-.05.07-.03.04-.06.07-.09.11-.03.03-.06.05-.09.08-.05.05-.11.09-.16.14-.01.01-.03.02-.04.04-.03.03-.06.07-.1.1-.01.01-.03.03-.05.04-.02.02-.05.05-.07.07,0,0-.02.01-.03.02-.02.02-.05.04-.07.06-.04.03-.07.06-.1.08-.07.05-.16.1-.24.15-.02.01-.05.02-.07.04-.05.03-.1.07-.15.11-.03.02-.06.05-.09.08-.03.03-.05.05-.08.08-.03.03-.05.06-.08.09-.02.03-.05.05-.07.08-.03.03-.05.07-.08.11-.07.08-.13.16-.2.23-.04.04-.07.09-.11.13-.04.05-.09.1-.14.14-.04.03-.07.06-.11.08-.03.02-.06.03-.09.04-.03.02-.05.03-.08.05-.03,0-.06.02-.09.03-.03.02-.06.03-.09.05-.02,0-.04.01-.06.02Z"/>
    <polygon class="cls-2" points="108.06 28.26 117.95 40.16 110.95 40.16 102.08 29.64 102.08 40.16 96.5 40.16 96.5 17.75 102.08 17.75 102.08 27.9 102.15 27.9 109.21 17.75 115.35 17.75 108.06 28.26"/>
    <polygon class="cls-2" points="130.1 40.45 127.67 40.45 116.83 17.75 122.91 17.75 128.82 30.53 134.44 17.75 140.45 17.75 130.1 40.45"/>
    <path class="cls-2" d="M149.02,36.05h3.15c3.09,0,4.17-.82,4.17-2.76,0-1.64-1.45-2.53-3.42-2.53h-3.91v5.29ZM149.02,26.65h2.93c2.04,0,2.86-1.25,2.86-2.43s-.82-2.37-2.86-2.37h-2.93v4.8ZM153.13,17.75c5.29,0,7.43,3.12,7.43,5.62-.07,1.95-1.26,3.69-3.06,4.47,2.77.51,4.78,2.93,4.76,5.75,0,2.56-1.38,6.57-7.92,6.57h-10.91v-22.4h9.69Z"/>
    <polygon class="cls-2" points="174.29 40.45 171.89 40.45 162.03 17.75 167.95 17.75 173.24 30.14 178.98 17.75 183.48 17.75 189.23 30.14 194.49 17.75 200.4 17.75 190.58 40.45 188.18 40.45 181.22 25.83 174.29 40.45"/>
  </g>
</svg>