<svg width="187" height="89" xmlns="http://www.w3.org/2000/svg"><path d="M4.2 62v-4.063l1.523-1.64L9.375 62h3.486l-5.195-7.9 5.049-6.319H9.11L5.488 52.46 4.2 54.227V47.78H1.27V62H4.2Zm12.753.195c1.094 0 1.983-.38 2.666-1.142.059.377.153.693.283.947h2.852v-.166c-.274-.514-.414-1.273-.42-2.275v-4.58c0-1.185-.383-2.105-1.147-2.76-.765-.654-1.799-.98-3.101-.98-.86 0-1.634.147-2.324.444-.69.296-1.224.704-1.602 1.225a2.835 2.835 0 0 0-.566 1.7h2.822c0-.398.135-.71.405-.938.27-.228.643-.342 1.118-.342.54 0 .936.147 1.187.44.25.293.376.683.376 1.171v.606h-1.299c-1.569.006-2.768.31-3.599.908-.83.6-1.245 1.458-1.245 2.578 0 .912.34 1.667 1.02 2.266.681.599 1.539.898 2.574.898Zm.615-2.158c-.43 0-.768-.114-1.015-.342a1.13 1.13 0 0 1-.371-.869l.01-.166c.09-.976.843-1.465 2.255-1.465h1.055v1.817a1.84 1.84 0 0 1-.781.747 2.43 2.43 0 0 1-1.153.278Zm10.957 2.158c1.309 0 2.377-.298 3.204-.893.826-.596 1.24-1.376 1.24-2.34 0-1.347-.746-2.294-2.237-2.84a12.244 12.244 0 0 0-1.777-.475c-.703-.14-1.203-.306-1.499-.498-.296-.192-.444-.444-.444-.756 0-.332.13-.606.39-.82.26-.216.629-.323 1.104-.323.553 0 .96.132 1.22.396.261.263.391.597.391 1h2.822c0-1.009-.402-1.829-1.206-2.46-.804-.632-1.876-.948-3.217-.948-1.257 0-2.274.314-3.052.943-.778.628-1.167 1.41-1.167 2.348 0 1.608 1.256 2.676 3.77 3.203.755.157 1.303.334 1.645.533.342.198.513.47.513.815a.96.96 0 0 1-.415.806c-.277.205-.686.307-1.226.307-.58 0-1.042-.133-1.387-.4s-.53-.651-.556-1.152h-2.676c0 .638.195 1.232.586 1.782.39.55.93.983 1.616 1.299.687.315 1.473.473 2.358.473Zm10.284 0c1.308 0 2.376-.298 3.203-.893.827-.596 1.24-1.376 1.24-2.34 0-1.347-.745-2.294-2.236-2.84a12.244 12.244 0 0 0-1.778-.475c-.703-.14-1.203-.306-1.499-.498-.296-.192-.444-.444-.444-.756 0-.332.13-.606.39-.82.261-.216.629-.323 1.104-.323.553 0 .96.132 1.22.396.261.263.391.597.391 1h2.823c0-1.009-.402-1.829-1.206-2.46-.804-.632-1.877-.948-3.218-.948-1.257 0-2.274.314-3.052.943-.778.628-1.167 1.41-1.167 2.348 0 1.608 1.257 2.676 3.77 3.203.755.157 1.303.334 1.645.533.342.198.513.47.513.815a.96.96 0 0 1-.415.806c-.277.205-.685.307-1.226.307-.58 0-1.041-.133-1.387-.4-.345-.267-.53-.651-.556-1.152h-2.676c0 .638.195 1.232.586 1.782.39.55.93.983 1.616 1.299.687.315 1.473.473 2.359.473Zm11.123 0c.879 0 1.68-.167 2.402-.503.723-.335 1.296-.802 1.719-1.401l-1.387-1.553c-.612.788-1.462 1.182-2.549 1.182-.703 0-1.284-.208-1.743-.625-.459-.417-.734-.97-.825-1.66h6.728v-1.153c0-1.673-.415-2.965-1.245-3.877-.83-.911-1.968-1.367-3.413-1.367-.963 0-1.821.227-2.573.679-.752.452-1.333 1.097-1.743 1.934-.41.836-.616 1.785-.616 2.846v.274c0 1.582.487 2.848 1.46 3.799.974.95 2.235 1.425 3.785 1.425Zm1.572-6.484h-3.926c.098-.703.32-1.244.67-1.621.347-.378.801-.567 1.361-.567.6 0 1.062.171 1.387.513.326.342.495.825.508 1.45v.225ZM58.643 62v-7.451c.397-.677.992-1.016 1.787-1.016.605 0 1.038.135 1.299.405.26.27.39.705.39 1.304V62h2.822v-6.826c-.013-1.309-.293-2.292-.84-2.95-.546-.657-1.38-.986-2.5-.986-1.269 0-2.281.472-3.037 1.416l-.087-1.22H55.82V62h2.823Zm10.351-12.1c.397 0 .723-.118.977-.356a1.15 1.15 0 0 0 .38-.874c0-.339-.125-.63-.375-.874-.251-.244-.578-.366-.982-.366s-.729.122-.976.366a1.185 1.185 0 0 0-.372.874c0 .338.124.628.372.87.247.24.572.36.976.36Zm4.766.01c.403 0 .729-.122.976-.366.248-.244.371-.536.371-.874a1.16 1.16 0 0 0-.385-.879 1.356 1.356 0 0 0-.962-.361c-.378 0-.698.119-.962.356a1.142 1.142 0 0 0-.396.884c0 .338.126.63.376.874.251.244.578.366.982.366Zm-3.506 12.285c1.094 0 1.982-.38 2.666-1.142.059.377.153.693.283.947h2.852v-.166c-.274-.514-.414-1.273-.42-2.275v-4.58c0-1.185-.383-2.105-1.148-2.76-.765-.654-1.798-.98-3.1-.98-.86 0-1.634.147-2.325.444-.69.296-1.223.704-1.601 1.225a2.835 2.835 0 0 0-.566 1.7h2.822c0-.398.135-.71.405-.938.27-.228.643-.342 1.118-.342.54 0 .936.147 1.187.44.25.293.376.683.376 1.171v.606h-1.3c-1.568.006-2.768.31-3.598.908-.83.6-1.245 1.458-1.245 2.578 0 .912.34 1.667 1.02 2.266.681.599 1.539.898 2.574.898Zm.615-2.158c-.43 0-.768-.114-1.015-.342a1.13 1.13 0 0 1-.372-.869l.01-.166c.091-.976.843-1.465 2.256-1.465h1.055v1.817c-.17.312-.43.561-.782.747a2.43 2.43 0 0 1-1.152.278ZM80.625 62v-6.914c.332-.723 1.032-1.084 2.1-1.084.293 0 .631.026 1.015.078l.04-2.715a2.957 2.957 0 0 0-.88-.127c-1.002 0-1.787.485-2.353 1.455l-.078-1.26h-2.666V62h2.822Zm12.88 0v-2.275H88.34l5.01-6.621v-1.67h-8.467v2.285h4.824l-4.97 6.562V62h8.769Zm5.352.195a5.81 5.81 0 0 0 1.71-.254v-2.138a4.5 4.5 0 0 1-.83.068c-.424 0-.71-.085-.86-.254-.15-.17-.225-.449-.225-.84v-5.273h1.807v-2.07h-1.807v-2.598H95.83v2.598h-1.543v2.07h1.543v5.693c.04 1.999 1.048 2.998 3.027 2.998ZM105.01 62V47h-2.832v15h2.832Zm3.886-11.836c.476 0 .858-.137 1.148-.41.29-.274.435-.625.435-1.055 0-.423-.144-.771-.43-1.045-.287-.273-.67-.41-1.153-.41-.488 0-.874.137-1.157.41-.283.274-.425.622-.425 1.045 0 .43.145.781.435 1.055.29.273.672.41 1.147.41ZM110.312 62V51.434h-2.832V62h2.832Zm6.768.195c.807 0 1.545-.164 2.212-.493a3.866 3.866 0 0 0 1.577-1.387 3.62 3.62 0 0 0 .586-1.967h-2.646c-.013.475-.183.856-.508 1.142-.326.287-.749.43-1.27.43-.677 0-1.181-.238-1.513-.713-.332-.475-.498-1.256-.498-2.344v-.293c0-1.074.167-1.85.502-2.329.336-.478.832-.718 1.49-.718.534 0 .963.171 1.289.513.325.342.495.786.508 1.333h2.646c-.013-1.25-.418-2.25-1.216-3.003-.797-.752-1.857-1.128-3.178-1.128-1.51 0-2.699.485-3.565 1.455-.866.97-1.299 2.27-1.299 3.897v.185c0 1.693.436 3.02 1.309 3.98.872.96 2.064 1.44 3.574 1.44Zm8.74-.195v-7.51c.371-.638.97-.957 1.797-.957.606 0 1.039.145 1.299.435.26.29.39.737.39 1.343V62h2.823v-6.768c-.033-2.662-1.195-3.994-3.486-3.994-1.133 0-2.074.45-2.823 1.348V47h-2.822v15h2.822Zm13.301.195c.879 0 1.68-.167 2.402-.503.723-.335 1.296-.802 1.72-1.401l-1.388-1.553c-.612.788-1.461 1.182-2.548 1.182-.703 0-1.285-.208-1.744-.625-.459-.417-.734-.97-.825-1.66h6.729v-1.153c0-1.673-.415-2.965-1.245-3.877-.83-.911-1.968-1.367-3.413-1.367-.964 0-1.822.227-2.574.679-.752.452-1.333 1.097-1.743 1.934-.41.836-.615 1.785-.615 2.846v.274c0 1.582.487 2.848 1.46 3.799.973.95 2.235 1.425 3.784 1.425Zm1.572-6.484h-3.925c.097-.703.32-1.244.669-1.621.348-.378.802-.567 1.362-.567.599 0 1.061.171 1.387.513.325.342.494.825.507 1.45v.225ZM8.057 84l4.95-14.219h-3.26L6.522 80.475 3.32 69.78H.068L5 84h3.057Zm10.537.195c.879 0 1.68-.167 2.402-.503.723-.335 1.296-.802 1.719-1.401l-1.387-1.553c-.612.788-1.461 1.182-2.549 1.182-.703 0-1.284-.208-1.743-.625-.459-.417-.734-.97-.825-1.66h6.728v-1.153c0-1.673-.415-2.965-1.245-3.877-.83-.911-1.967-1.367-3.413-1.367-.963 0-1.821.227-2.573.679-.752.452-1.333 1.097-1.743 1.934-.41.836-.615 1.785-.615 2.846v.274c0 1.582.486 2.848 1.46 3.799.973.95 2.234 1.425 3.784 1.425Zm1.572-6.484H16.24c.098-.703.32-1.244.67-1.621.347-.378.802-.567 1.361-.567.6 0 1.062.171 1.387.513.326.342.495.825.508 1.45v.225ZM27.363 84v-6.914c.332-.723 1.032-1.084 2.1-1.084.293 0 .631.026 1.016.078l.039-2.715a2.957 2.957 0 0 0-.88-.127c-1.002 0-1.786.485-2.353 1.455l-.078-1.26h-2.666V84h2.822Zm9.15.195c.88 0 1.68-.167 2.403-.503.723-.335 1.296-.802 1.719-1.401l-1.387-1.553c-.612.788-1.462 1.182-2.549 1.182-.703 0-1.284-.208-1.743-.625-.459-.417-.734-.97-.825-1.66h6.728v-1.153c0-1.673-.415-2.965-1.245-3.877-.83-.911-1.968-1.367-3.413-1.367-.963 0-1.821.227-2.573.679-.752.452-1.333 1.097-1.743 1.934-.41.836-.615 1.785-.615 2.846v.274c0 1.582.486 2.848 1.46 3.799.973.95 2.234 1.425 3.784 1.425Zm1.573-6.484H34.16c.098-.703.32-1.244.67-1.621.347-.378.802-.567 1.361-.567.6 0 1.062.171 1.387.513.326.342.495.825.508 1.45v.225Zm5.937-5.547c.476 0 .858-.137 1.148-.41.29-.274.434-.625.434-1.055 0-.423-.143-.771-.43-1.045-.286-.273-.67-.41-1.152-.41-.488 0-.874.137-1.157.41-.283.274-.425.622-.425 1.045 0 .43.145.781.435 1.055.29.273.672.41 1.147.41ZM45.44 84V73.434h-2.832V84h2.832Zm5.088 0v-7.451c.397-.677.993-1.016 1.787-1.016.606 0 1.039.135 1.3.405.26.27.39.705.39 1.304V84h2.822v-6.826c-.013-1.309-.293-2.292-.84-2.95-.547-.657-1.38-.986-2.5-.986-1.27 0-2.282.472-3.037 1.416l-.088-1.22h-2.656V84h2.822Zm10-11.836c.476 0 .858-.137 1.148-.41.29-.274.434-.625.434-1.055 0-.423-.143-.771-.43-1.045-.286-.273-.67-.41-1.152-.41-.488 0-.874.137-1.157.41-.283.274-.425.622-.425 1.045 0 .43.145.781.435 1.055.29.273.672.41 1.147.41ZM61.943 84V73.434h-2.832V84h2.832Zm6.494 4.16c1.023 0 1.915-.179 2.676-.537a4.045 4.045 0 0 0 1.773-1.562c.42-.684.63-1.488.63-2.413V73.434h-2.559l-.117.996c-.645-.795-1.546-1.192-2.705-1.192-1.309 0-2.349.495-3.12 1.485-.772.99-1.158 2.295-1.158 3.916v.117c0 1.64.393 2.957 1.177 3.95.785.993 1.812 1.49 3.081 1.49 1.061 0 1.918-.369 2.569-1.104v.566c0 .736-.209 1.304-.625 1.704-.417.4-1 .6-1.748.6-1.003 0-1.856-.393-2.559-1.18l-1.25 1.718c.378.488.934.887 1.67 1.196.736.31 1.49.464 2.265.464Zm.4-6.25c-.67 0-1.197-.272-1.581-.815-.384-.544-.576-1.294-.576-2.251 0-1.1.193-1.927.58-2.48.388-.554.92-.83 1.597-.83.84 0 1.449.321 1.827.966v4.443c-.372.645-.987.967-1.846.967Zm10.284 2.285c1.23 0 2.194-.423 2.89-1.27L82.09 84h2.656V73.434h-2.832v7.48c-.358.664-1.016.996-1.973.996-1.002 0-1.504-.55-1.504-1.65v-6.826h-2.822v6.923c.013 1.257.318 2.21.913 2.862.596.65 1.46.976 2.593.976ZM89.64 84v-7.451c.397-.677.993-1.016 1.787-1.016.605 0 1.038.135 1.299.405.26.27.39.705.39 1.304V84h2.822v-6.826c-.013-1.309-.292-2.292-.84-2.95-.546-.657-1.38-.986-2.5-.986-1.269 0-2.281.472-3.036 1.416l-.088-1.22h-2.657V84h2.823Zm12.607 4.16c1.022 0 1.914-.179 2.676-.537a4.045 4.045 0 0 0 1.772-1.562c.42-.684.63-1.488.63-2.413V73.434h-2.558l-.118.996c-.644-.795-1.546-1.192-2.705-1.192-1.308 0-2.348.495-3.12 1.485-.771.99-1.157 2.295-1.157 3.916v.117c0 1.64.392 2.957 1.177 3.95.784.993 1.811 1.49 3.08 1.49 1.062 0 1.918-.369 2.57-1.104v.566c0 .736-.21 1.304-.626 1.704-.416.4-1 .6-1.748.6-1.002 0-1.855-.393-2.558-1.18L98.31 86.5c.377.488.934.887 1.67 1.196.735.31 1.49.464 2.265.464Zm.4-6.25c-.67 0-1.197-.272-1.582-.815-.384-.544-.576-1.294-.576-2.251 0-1.1.194-1.927.581-2.48.388-.554.92-.83 1.597-.83.84 0 1.449.321 1.826.966v4.443c-.37.645-.986.967-1.846.967Zm17.54 2.09c1.614-.013 2.858-.371 3.73-1.074.872-.703 1.309-1.739 1.309-3.106 0-.8-.21-1.478-.63-2.03-.42-.554-.995-.922-1.724-1.104.638-.248 1.136-.637 1.494-1.167.358-.531.537-1.145.537-1.841 0-1.276-.446-2.245-1.338-2.906-.891-.66-2.2-.99-3.925-.99h-4.98V84h5.527Zm-.43-8.262h-2.168v-3.584h2.05c.808 0 1.399.142 1.773.425.374.283.562.747.562 1.392 0 1.152-.74 1.741-2.217 1.767Zm.342 5.908h-2.51V77.81h2.685c1.348.02 2.022.68 2.022 1.982 0 .58-.194 1.034-.581 1.362-.388.33-.926.493-1.616.493Zm10.312 2.55c1.094 0 1.983-.382 2.666-1.143.059.377.153.693.283.947h2.852v-.166c-.274-.514-.413-1.273-.42-2.275v-4.58c0-1.185-.382-2.105-1.147-2.76-.765-.654-1.799-.98-3.101-.98-.86 0-1.634.147-2.324.444-.69.296-1.224.704-1.602 1.225a2.835 2.835 0 0 0-.566 1.7h2.822c0-.398.135-.71.405-.938.27-.228.643-.342 1.118-.342.54 0 .936.147 1.187.44.25.293.376.683.376 1.171v.606h-1.299c-1.569.006-2.768.31-3.598.908-.83.6-1.246 1.458-1.246 2.578 0 .912.34 1.667 1.02 2.266.681.599 1.539.898 2.574.898Zm.615-2.159c-.43 0-.768-.114-1.015-.342a1.13 1.13 0 0 1-.371-.869l.01-.166c.09-.976.843-1.465 2.255-1.465h1.055v1.817a1.84 1.84 0 0 1-.781.747 2.43 2.43 0 0 1-1.153.278Zm8.106 6.23c1.452 0 2.493-.69 3.125-2.07l.234-.556 4.248-12.207h-3.027l-1.953 6.572-1.963-6.572h-3.037l3.701 10.595-.332.87c-.15.377-.356.647-.62.81-.264.163-.663.244-1.196.244l-.43-.01v2.139c.423.124.84.186 1.25.186Zm13.457-4.072c.879 0 1.68-.167 2.402-.503.723-.335 1.296-.802 1.719-1.401l-1.387-1.553c-.612.788-1.461 1.182-2.549 1.182-.703 0-1.284-.208-1.743-.625-.459-.417-.734-.97-.825-1.66h6.729v-1.153c0-1.673-.415-2.965-1.246-3.877-.83-.911-1.967-1.367-3.413-1.367-.963 0-1.82.227-2.573.679-.752.452-1.333 1.097-1.743 1.934-.41.836-.615 1.785-.615 2.846v.274c0 1.582.486 2.848 1.46 3.799.973.95 2.234 1.425 3.784 1.425Zm1.572-6.484h-3.926c.098-.703.321-1.244.67-1.621.348-.378.802-.567 1.362-.567.599 0 1.06.171 1.386.513.326.342.495.825.508 1.45v.225ZM161.357 84v-6.914c.332-.723 1.032-1.084 2.1-1.084.293 0 .632.026 1.016.078l.039-2.715a2.957 2.957 0 0 0-.88-.127c-1.002 0-1.786.485-2.353 1.455l-.078-1.26h-2.666V84h2.822Zm7.237 0v-7.451c.397-.677.993-1.016 1.787-1.016.605 0 1.038.135 1.299.405.26.27.39.705.39 1.304V84h2.823v-6.826c-.013-1.309-.293-2.292-.84-2.95-.547-.657-1.38-.986-2.5-.986-1.27 0-2.282.472-3.037 1.416l-.088-1.22h-2.657V84h2.823Zm12.46.195c1.31 0 2.377-.298 3.204-.893.827-.596 1.24-1.376 1.24-2.34 0-1.347-.745-2.294-2.236-2.84a12.244 12.244 0 0 0-1.778-.475c-.703-.14-1.202-.306-1.499-.498-.296-.192-.444-.444-.444-.756 0-.332.13-.606.39-.82.261-.216.629-.323 1.104-.323.554 0 .96.132 1.22.396.261.263.391.597.391 1h2.823c0-1.009-.402-1.829-1.206-2.46-.804-.632-1.877-.948-3.218-.948-1.257 0-2.274.314-3.052.943-.778.628-1.167 1.41-1.167 2.348 0 1.608 1.257 2.676 3.77 3.203.755.157 1.303.334 1.645.533.342.198.513.47.513.815 0 .332-.138.6-.415.806-.277.205-.685.307-1.226.307-.58 0-1.041-.133-1.386-.4s-.531-.651-.557-1.152h-2.676c0 .638.195 1.232.586 1.782.39.55.93.983 1.616 1.299.687.315 1.473.473 2.359.473ZM9.255 36v-9.375l3.516-3.857L20.339 36h10.156L18.483 16.176 30.495.453H19.9L12.233 11.61l-2.978 4.517V.453H.685V36h8.57Zm40.29 0L61.51.453h-9.57l-7.08 25.879L37.801.453h-9.497L40.171 36h9.375Zm27.376 0c4.33-.033 7.597-.924 9.803-2.673 2.205-1.75 3.308-4.366 3.308-7.85 0-1.92-.497-3.548-1.49-4.882-.992-1.335-2.417-2.246-4.272-2.735 1.644-.618 2.889-1.578 3.735-2.88.847-1.303 1.27-2.873 1.27-4.712 0-3.19-1.192-5.624-3.577-7.3C83.314 1.29 79.835.453 75.261.453H62.493V36H76.92ZM75.53 15.272h-4.468V7.07h4.2c1.92 0 3.311.33 4.174.99.863.658 1.294 1.737 1.294 3.234 0 1.302-.399 2.287-1.196 2.954-.798.667-2.132 1.01-4.004 1.025Zm1.147 14.136h-5.615v-8.52h6.006c2.946.016 4.419 1.505 4.419 4.467 0 1.286-.415 2.283-1.245 2.991-.83.708-2.019 1.062-3.565 1.062Z" fill="#00254D"/></svg>