<svg width="259" height="82" viewBox="0 0 259 60" fill="none" xmlns="http://www.w3.org/2000/svg">
    <path d="M133.9 3.19844C132.7 3.19844 131.5 4.09844 131.2 5.29844L126.7 22.7984C126.4 23.8984 125.2 24.8984 124 24.8984H113.5C112.3 24.8984 111.6 23.9984 111.9 22.7984L116.5 5.29844C116.8 4.19844 116.1 3.19844 114.9 3.19844H112.4C111.2 3.19844 109.8 3.99844 109.1 4.99844L91.1 33.2984C90.5 34.2984 89.7 35.9984 89.4 37.0984L84 56.9984C83.7 58.0984 84.4 59.0984 85.6 59.0984H99.9C101.1 59.0984 102.3 58.1984 102.5 56.9984L107.7 36.2984C108 35.1984 109.2 34.1984 110.3 34.1984H120.8C122 34.1984 122.7 35.0984 122.4 36.2984L117.3 56.8984C117 57.9984 117.7 58.9984 118.9 58.9984H133C134.2 58.9984 135.4 58.0984 135.7 56.8984L149.8 4.99844C150.1 3.89844 149.4 2.89844 148.2 2.89844H133.9V3.19844Z" fill="#BBC9E7"/>
    <path d="M106.6 4.8C107.2 3.8 106.8 3 105.6 3H99.6C98.4 3 96.9 3.8 96.3 4.8L75.1 36.5C74.4 37.5 73.9 37.3 73.9 36.1L74 5.3C74 4.1 73 3.2 71.9 3.2H59.3C58.1 3.2 56.4 3.8 55.6 4.6L27.6 28.4C26.7 29.2 26.2 28.9 26.5 27.7L32.4 5.2C32.7 4 32 3.1 30.8 3.1H17C15.8 3.1 14.7 4 14.4 5.2L2.39999 57.2C2.09999 58.3 2.89999 59.3 3.99999 59.3H17.8C19 59.3 20.1 58.4 20.2 57.2L21.5 48.4C21.7 47.2 22.6 45.7 23.5 45L27.5 41.8C28.4 41.1 29.5 41.4 29.9 42.5L35 57.4C35.4 58.5 36.7 59.4 37.8 59.4H51.6C52.8 59.4 53.4 58.5 52.9 57.4L42.8 31.2C42.4 30.1 42.7 28.6 43.5 27.7L54.9 16.4C55.7 15.6 56.4 15.9 56.4 17V57C56.4 58.2 57.4 59.1 58.5 59.1H69.6C70.8 59.1 72.2 58.3 72.9 57.3L81 44.8C81.6 43.8 82.2 43 82.2 43C82.2 43 82.7 42.2 83.3 41.2L106.6 4.8Z" fill="#0060AB"/>
    <path d="M162 19.6992H163.4L161.7 29.5992H160.3L162 19.6992ZM162.8 23.6992L167.8 19.6992H169.9L164.5 23.8992L168.1 29.5992H166.4L162.8 23.6992Z" fill="#1E1C1F"/>
    <path d="M170.4 23.8L170.6 22.5H173.4C174.4 22.5 175.1 23.2 175.1 24.1C175.1 24.2 175.1 24.3 175.1 24.5L174.2 29.6H170.8C169.8 29.6 169.1 29 169.1 28C169.1 26.6 170.2 25.9 171.2 25.7L173.6 25.1L173.7 24.4V24.3C173.7 24 173.5 23.8 173.2 23.8H170.4ZM170.6 27.8C170.6 28.1 170.9 28.4 171.2 28.4H173L173.3 26.5L171.2 27C170.8 27.1 170.6 27.4 170.5 27.7C170.6 27.7 170.6 27.8 170.6 27.8Z" fill="#1E1C1F"/>
    <path d="M178.1 26.4977C177.3 26.2977 176.8 25.6977 176.8 24.8977C176.8 23.5977 177.9 22.5977 179.2 22.5977H182.1L181.9 23.8977H179.1C178.7 23.8977 178.2 24.2977 178.2 24.7977C178.2 25.0977 178.3 25.2977 178.6 25.3977L180.4 25.8977C181.2 26.0977 181.7 26.6977 181.7 27.4977C181.7 28.6977 180.6 29.7977 179.3 29.7977H176L176.2 28.4977H179.3C179.7 28.4977 180.2 28.0977 180.2 27.5977C180.2 27.2977 180.1 27.0977 179.8 27.0977L178.1 26.4977Z" fill="#1E1C1F"/>
    <path d="M184.6 26.4977C183.8 26.2977 183.3 25.6977 183.3 24.8977C183.3 23.5977 184.4 22.5977 185.7 22.5977H188.6L188.4 23.8977H185.6C185.2 23.8977 184.7 24.2977 184.7 24.7977C184.7 25.0977 184.8 25.2977 185.1 25.3977L186.9 25.8977C187.7 26.0977 188.2 26.6977 188.2 27.4977C188.2 28.6977 187.1 29.7977 185.8 29.7977H182.5L182.7 28.4977H185.8C186.2 28.4977 186.7 28.0977 186.7 27.5977C186.7 27.2977 186.6 27.0977 186.3 27.0977L184.6 26.4977Z" fill="#1E1C1F"/>
    <path d="M194.3 29.6977H192C190.6 29.6977 189.6 28.6977 189.6 27.3977C189.6 27.2977 189.6 27.0977 189.6 26.8977L190 24.5977C190.2 23.4977 191.3 22.5977 192.4 22.5977H193.7C194.8 22.5977 195.4 23.2977 195.4 24.1977C195.4 25.4977 194.4 26.2977 193.3 26.4977L190.9 27.0977C190.9 27.1977 190.9 27.1977 190.9 27.2977C190.9 27.8977 191.4 28.3977 192.1 28.3977H194.4L194.3 29.6977ZM191.3 25.6977L193.4 25.1977C193.8 25.0977 194.1 24.6977 194.1 24.3977C194.1 24.0977 193.8 23.7977 193.5 23.7977H192.3C191.9 23.7977 191.6 24.0977 191.5 24.4977L191.3 25.6977Z" fill="#1E1C1F"/>
    <path d="M197.7 29.6977H196.3L197.5 22.5977H198.5L198.8 23.0977C199.2 22.7977 199.7 22.5977 200.2 22.5977H200.8C201.8 22.5977 202.5 23.2977 202.5 24.1977C202.5 24.2977 202.5 24.3977 202.5 24.5977L201.6 29.6977H200.2L201.1 24.3977V24.2977C201.1 23.9977 200.9 23.7977 200.6 23.7977H200C199.2 23.7977 198.5 24.3977 198.4 25.0977L197.7 29.6977Z" fill="#1E1C1F"/>
    <path d="M205 23.8008L205.2 22.5008H208C209 22.5008 209.7 23.2008 209.7 24.1008C209.7 24.2008 209.7 24.3008 209.7 24.5008L208.8 29.6008H205.4C204.4 29.6008 203.7 29.0008 203.7 28.0008C203.7 26.6008 204.8 25.9008 205.8 25.7008L208.2 25.1008L208.3 24.4008V24.3008C208.3 24.0008 208.1 23.8008 207.8 23.8008H205ZM205.1 27.8008C205.1 28.1008 205.4 28.4008 205.7 28.4008H207.5L207.8 26.5008L205.7 27.0008C205.3 27.1008 205.1 27.4008 205 27.7008C205.1 27.7008 205.1 27.8008 205.1 27.8008ZM205.9 20.3008H207.3L207 21.7008H205.6L205.9 20.3008ZM208.4 20.3008H209.8L209.5 21.7008H208.1L208.4 20.3008Z" fill="#1E1C1F"/>
    <path d="M212.2 29.6977H210.8L212 22.5977H213L213.3 23.0977C213.7 22.7977 214.2 22.5977 214.7 22.5977H216.5L216.3 23.8977H214.5C213.7 23.8977 213 24.4977 212.9 25.1977L212.2 29.6977Z" fill="#1E1C1F"/>
    <path d="M217.7 22.5977H223.2L218.9 28.3977H222.1L221.9 29.6977H216.4L220.7 23.8977H217.5L217.7 22.5977Z" fill="#1E1C1F"/>
    <path d="M226.6 28.4008L226.4 29.7008H225.5C224.5 29.7008 223.8 29.0008 223.8 28.1008C223.8 28.0008 223.8 27.9008 223.8 27.8008L225.2 19.8008H226.6L226.1 22.6008H227.7L227.5 23.9008H225.9L225.2 27.7008C225.2 27.8008 225.2 27.8008 225.2 27.9008C225.2 28.2008 225.4 28.5008 225.7 28.5008H226.6V28.4008Z" fill="#1E1C1F"/>
    <path d="M228 29.7008L229.7 19.8008H231.1L229.4 29.7008H228Z" fill="#1E1C1F"/>
    <path d="M232.6 22.5992H234L232.8 29.6992H231.4L232.6 22.5992ZM233.1 19.6992H234.5L234.2 21.0992H232.8L233.1 19.6992Z" fill="#1E1C1F"/>
    <path d="M237.3 29.6977C236 29.6977 235 28.6977 235 27.4977C235 27.3977 235 27.1977 235 27.0977L235.4 24.5977C235.6 23.4977 236.7 22.5977 237.8 22.5977H240.7L240.5 23.8977H237.6C237.3 23.8977 236.9 24.0977 236.9 24.4977L236.4 27.1977C236.4 27.2977 236.4 27.2977 236.4 27.3977C236.4 27.9977 236.9 28.3977 237.5 28.3977H239.8L239.6 29.6977H237.3Z" fill="#1E1C1F"/>
    <path d="M245.8 22.5992C246.8 22.5992 247.5 23.2992 247.5 24.1992C247.5 24.2992 247.5 24.3992 247.5 24.5992L246.6 29.6992H245.2L246.1 24.3992V24.2992C246.1 23.9992 245.9 23.7992 245.6 23.7992H243.6L242.6 29.5992H241.2L242.9 19.6992H244.3L243.8 22.4992H245.8V22.5992Z" fill="#1E1C1F"/>
    <path d="M253.5 29.6977H251.2C249.8 29.6977 248.8 28.6977 248.8 27.3977C248.8 27.2977 248.8 27.0977 248.8 26.8977L249.2 24.5977C249.4 23.4977 250.5 22.5977 251.6 22.5977H252.9C254 22.5977 254.6 23.2977 254.6 24.1977C254.6 25.4977 253.6 26.2977 252.5 26.4977L250.1 27.0977C250.1 27.1977 250.1 27.1977 250.1 27.2977C250.1 27.8977 250.6 28.3977 251.3 28.3977H253.6L253.5 29.6977ZM250.5 25.6977L252.6 25.1977C253 25.0977 253.3 24.6977 253.3 24.3977C253.3 24.0977 253 23.7977 252.7 23.7977H251.5C251.1 23.7977 250.8 24.0977 250.7 24.4977L250.5 25.6977Z" fill="#1E1C1F"/>
    <path d="M157.7 34.8008H159.1L160.1 42.6008L163.8 34.8008H165.3L160.4 44.7008H159L157.7 34.8008Z" fill="#1E1C1F"/>
    <path d="M169.1 44.7016H166.8C165.4 44.7016 164.4 43.7016 164.4 42.4016C164.4 42.3016 164.4 42.1016 164.4 41.9016L164.8 39.6016C165 38.5016 166.1 37.6016 167.2 37.6016H168.5C169.6 37.6016 170.2 38.3016 170.2 39.2016C170.2 40.5016 169.2 41.3016 168.1 41.5016L165.7 42.1016C165.7 42.2016 165.7 42.2016 165.7 42.3016C165.7 42.9016 166.2 43.4016 166.9 43.4016H169.2L169.1 44.7016ZM166.1 40.8016L168.2 40.3016C168.6 40.2016 168.9 39.8016 168.9 39.5016C168.9 39.2016 168.6 38.9016 168.3 38.9016H167.1C166.7 38.9016 166.4 39.2016 166.3 39.6016L166.1 40.8016Z" fill="#1E1C1F"/>
    <path d="M172.3 44.7016H170.9L172.1 37.6016H173.1L173.4 38.1016C173.8 37.8016 174.3 37.6016 174.8 37.6016H176.6L176.4 38.9016H174.6C173.8 38.9016 173.1 39.5016 173 40.2016L172.3 44.7016Z" fill="#1E1C1F"/>
    <path d="M181.5 44.7016H179.2C177.8 44.7016 176.8 43.7016 176.8 42.4016C176.8 42.3016 176.8 42.1016 176.8 41.9016L177.2 39.6016C177.4 38.5016 178.5 37.6016 179.6 37.6016H180.9C182 37.6016 182.6 38.3016 182.6 39.2016C182.6 40.5016 181.6 41.3016 180.5 41.5016L178.1 42.1016C178.1 42.2016 178.1 42.2016 178.1 42.3016C178.1 42.9016 178.6 43.4016 179.3 43.4016H181.6L181.5 44.7016ZM178.5 40.8016L180.6 40.3016C181 40.2016 181.3 39.8016 181.3 39.5016C181.3 39.2016 181 38.9016 180.7 38.9016H179.5C179.1 38.9016 178.8 39.2016 178.7 39.6016L178.5 40.8016Z" fill="#1E1C1F"/>
    <path d="M184.7 37.6008H186.1L184.9 44.7008H183.5L184.7 37.6008ZM185.2 34.8008H186.6L186.3 36.2008H185L185.2 34.8008Z" fill="#1E1C1F"/>
    <path d="M188.3 44.7016H186.9L188.1 37.6016H189.1L189.4 38.1016C189.8 37.8016 190.3 37.6016 190.8 37.6016H191.4C192.4 37.6016 193.1 38.3016 193.1 39.2016C193.1 39.3016 193.1 39.4016 193.1 39.6016L192.2 44.7016H190.8L191.7 39.4016V39.3016C191.7 39.0016 191.5 38.8016 191.2 38.8016H190.6C189.8 38.8016 189.1 39.4016 189 40.1016L188.3 44.7016Z" fill="#1E1C1F"/>
    <path d="M195.5 37.6008H196.9L195.7 44.7008H194.3L195.5 37.6008ZM196 34.8008H197.4L197.1 36.2008H195.7L196 34.8008Z" fill="#1E1C1F"/>
    <path d="M202.9 45.2C202.6 46.7 201.2 48 199.6 48H197.8L198 46.7H199.8C200.6 46.7 201.2 46.1 201.4 45.3L201.5 44.7H200.2C198.9 44.7 198 43.7 198 42.5C198 42.4 198 42.2 198 42L198.4 39.5C198.6 38.4 199.6 37.5 200.7 37.5H204.1L202.9 45.2ZM199.4 42.4C199.4 43 199.8 43.4 200.4 43.4H201.7L202.5 38.9H200.5C200.2 38.9 199.9 39.1 199.8 39.5L199.3 42.2C199.4 42.3 199.4 42.4 199.4 42.4Z" fill="#1E1C1F"/>
    <path d="M210.2 37.6016H211.6L210.4 44.7016H209.4L209.1 44.2016C208.7 44.5016 208.2 44.7016 207.7 44.7016H207.1C206.1 44.7016 205.4 44.0016 205.4 43.1016C205.4 43.0016 205.4 42.9016 205.4 42.7016L206.3 37.6016H207.7L206.8 42.9016V43.0016C206.8 43.3016 207 43.5016 207.3 43.5016H207.9C208.7 43.5016 209.3 42.9016 209.5 42.2016L210.2 37.6016Z" fill="#1E1C1F"/>
    <path d="M213.8 44.7016H212.4L213.6 37.6016H214.6L214.9 38.1016C215.3 37.8016 215.8 37.6016 216.3 37.6016H216.9C217.9 37.6016 218.6 38.3016 218.6 39.2016C218.6 39.3016 218.6 39.4016 218.6 39.6016L217.7 44.7016H216.3L217.2 39.4016V39.3016C217.2 39.0016 217 38.8016 216.7 38.8016H216.1C215.3 38.8016 214.6 39.4016 214.5 40.1016L213.8 44.7016Z" fill="#1E1C1F"/>
    <path d="M224.9 45.2C224.6 46.7 223.2 48 221.6 48H219.8L220 46.7H221.8C222.6 46.7 223.2 46.1 223.4 45.3L223.5 44.7H222.2C220.9 44.7 220 43.7 220 42.5C220 42.4 220 42.2 220 42L220.4 39.5C220.6 38.4 221.6 37.5 222.7 37.5H226.1L224.9 45.2ZM221.4 42.4C221.4 43 221.8 43.4 222.4 43.4H223.7L224.5 38.9H222.5C222.2 38.9 221.9 39.1 221.8 39.5L221.3 42.2C221.4 42.3 221.4 42.4 221.4 42.4Z" fill="#1E1C1F"/>
    <path d="M159.3 53.7992H155.6L154.7 59.0992H153.3L155 49.1992H156.4L155.8 52.4992H159.5L160.1 49.1992H161.5L159.8 59.0992H158.4L159.3 53.7992Z" fill="#1E1C1F"/>
    <path d="M163.1 53.3L163.3 52H166.1C167.1 52 167.8 52.7 167.8 53.6C167.8 53.7 167.8 53.8 167.8 54L166.9 59.1H163.5C162.5 59.1 161.8 58.5 161.8 57.5C161.8 56.1 162.9 55.4 163.9 55.2L166.3 54.6L166.4 53.9V53.8C166.4 53.5 166.2 53.3 165.9 53.3H163.1ZM163.2 57.3C163.2 57.6 163.5 57.9 163.8 57.9H165.6L166 56L163.9 56.5C163.5 56.6 163.3 56.9 163.2 57.2V57.3Z" fill="#1E1C1F"/>
    <path d="M170.3 59.1977H168.9L170.1 52.0977H171.1L171.4 52.5977C171.8 52.2977 172.4 52.0977 172.9 52.0977H173.5C174.1 52.0977 174.7 52.4977 175 52.9977C175.5 52.4977 176.2 52.0977 176.9 52.0977H177.5C178.5 52.0977 179.2 52.7977 179.2 53.6977C179.2 53.7977 179.2 53.8977 179.2 54.0977L178.3 59.1977H176.9L177.8 53.8977V53.7977C177.8 53.4977 177.6 53.2977 177.3 53.2977H176.7C175.8 53.2977 175.2 53.8977 175 54.5977L174.2 59.0977H172.8L173.7 53.7977V53.6977C173.7 53.3977 173.5 53.1977 173.2 53.1977H172.6C171.7 53.1977 171.1 53.7977 170.9 54.4977L170.3 59.1977Z" fill="#1E1C1F"/>
    <path d="M182 49.1992H183.4L182.9 51.9992H184.9C185.9 51.9992 186.6 52.6992 186.6 53.5992C186.6 53.6992 186.6 53.7992 186.6 53.9992L186.2 56.2992C185.9 57.7992 184.5 59.0992 182.9 59.0992H180.3L182 49.1992ZM185.1 53.8992V53.7992C185.1 53.4992 184.9 53.2992 184.6 53.2992H182.6L181.8 57.7992H183C183.8 57.7992 184.5 57.1992 184.6 56.3992L185.1 53.8992Z" fill="#1E1C1F"/>
    <path d="M192.1 52.0977H193.5L192.3 59.1977H191.3L191 58.6977C190.6 58.9977 190.1 59.1977 189.6 59.1977H189C188 59.1977 187.3 58.4977 187.3 57.5977C187.3 57.4977 187.3 57.3977 187.3 57.1977L188.2 52.0977H189.6L188.7 57.3977V57.4977C188.7 57.7977 188.9 57.9977 189.2 57.9977H189.8C190.6 57.9977 191.2 57.3977 191.4 56.6977L192.1 52.0977Z" fill="#1E1C1F"/>
    <path d="M195.7 59.1977H194.3L195.5 52.0977H196.5L196.8 52.5977C197.2 52.2977 197.7 52.0977 198.2 52.0977H200L199.8 53.3977H198C197.2 53.3977 196.5 53.9977 196.4 54.6977L195.7 59.1977Z" fill="#1E1C1F"/>
    <path d="M205.1 59.7C204.8 61.2 203.4 62.5 201.8 62.5H200L200.2 61.2H202C202.8 61.2 203.4 60.6 203.6 59.8L203.7 59.2H202.4C201.1 59.2 200.2 58.2 200.2 57C200.2 56.9 200.2 56.7 200.2 56.5L200.6 54C200.8 52.9 201.8 52 202.9 52H206.3L205.1 59.7ZM201.7 56.9C201.7 57.5 202.1 57.9 202.7 57.9H204L204.8 53.4H202.8C202.5 53.4 202.2 53.6 202.1 54L201.6 56.7C201.7 56.7 201.7 56.8 201.7 56.9Z" fill="#1E1C1F"/>
</svg>
