<?xml version="1.0" encoding="utf-8"?>
<!-- Generator: Adobe Illustrator 26.0.3, SVG Export Plug-In . SVG Version: 6.00 Build 0)  -->
<svg version="1.1" id="Ebene_2" xmlns="http://www.w3.org/2000/svg" xmlns:xlink="http://www.w3.org/1999/xlink" x="0px" y="0px"
	 viewBox="0 0 73 40" style="enable-background:new 0 0 73 40;" xml:space="preserve">
<style type="text/css">
	.st0{fill:#3C6287;}
	.st1{fill:#A42026;}
</style>
<polygon class="st0" points="7.598,39.991 0,39.991 0,0.009 39.981,0.009 39.981,17.596 38.123,17.596 38.123,1.868 1.859,1.868 
	1.859,38.132 7.598,38.132 "/>
<path class="st1" d="M11.159,39.501c-0.061-0.061-0.091-0.135-0.091-0.222V21.646c0-0.087,0.03-0.161,0.091-0.222
	c0.061-0.061,0.134-0.091,0.222-0.091h2.4c0.087,0,0.161,0.031,0.222,0.091c0.061,0.061,0.091,0.135,0.091,0.222v7.8
	c0,0.052,0.017,0.087,0.052,0.104c0.035,0.018,0.069,0.009,0.104-0.026l6.782-8.008c0.104-0.121,0.235-0.183,0.391-0.183h2.713
	c0.174,0,0.261,0.061,0.261,0.183c0,0.052-0.026,0.122-0.078,0.209l-5.974,7.33c-0.052,0.069-0.061,0.13-0.026,0.183l6.417,9.991
	c0.035,0.104,0.052,0.165,0.052,0.183c0,0.122-0.087,0.183-0.261,0.183h-2.739c-0.156,0-0.278-0.069-0.365-0.209l-5.165-8.034
	c-0.07-0.104-0.13-0.113-0.183-0.026l-1.93,2.243c-0.035,0.07-0.052,0.13-0.052,0.183v5.53c0,0.087-0.031,0.161-0.091,0.222
	c-0.061,0.061-0.135,0.091-0.222,0.091h-2.4C11.293,39.593,11.22,39.563,11.159,39.501z"/>
<path class="st1" d="M31.493,39.332l-5.478-17.634l-0.026-0.104c0-0.174,0.095-0.261,0.287-0.261h2.583
	c0.191,0,0.313,0.087,0.365,0.261l3.913,13.617c0.017,0.052,0.043,0.078,0.078,0.078c0.035,0,0.061-0.026,0.078-0.078l3.887-13.617
	c0.052-0.174,0.174-0.261,0.365-0.261h2.53c0.104,0,0.183,0.035,0.235,0.104c0.052,0.07,0.061,0.157,0.026,0.261l-5.556,17.634
	c-0.052,0.174-0.165,0.261-0.339,0.261h-2.609C31.658,39.593,31.545,39.506,31.493,39.332z"/>
<path class="st1" d="M53.553,21.424c0.061-0.061,0.135-0.091,0.222-0.091h2.4c0.087,0,0.161,0.031,0.222,0.091
	c0.061,0.061,0.091,0.135,0.091,0.222V39.28c0,0.087-0.031,0.161-0.091,0.222c-0.061,0.061-0.135,0.091-0.222,0.091h-2.322
	c-0.174,0-0.296-0.069-0.365-0.209l-7.513-12.312c-0.035-0.052-0.07-0.074-0.104-0.065c-0.035,0.009-0.052,0.048-0.052,0.117
	l0.052,12.156c0,0.087-0.031,0.161-0.091,0.222c-0.061,0.061-0.135,0.091-0.222,0.091h-2.4c-0.087,0-0.161-0.03-0.222-0.091
	c-0.061-0.061-0.091-0.135-0.091-0.222V21.646c0-0.087,0.03-0.161,0.091-0.222c0.061-0.061,0.134-0.091,0.222-0.091h2.322
	c0.174,0,0.295,0.07,0.365,0.209l7.487,12.312c0.035,0.052,0.069,0.074,0.104,0.065c0.035-0.009,0.052-0.048,0.052-0.117
	l-0.026-12.156C53.462,21.559,53.492,21.485,53.553,21.424z"/>
<path class="st1" d="M62.879,39.058c-1.009-0.53-1.787-1.282-2.335-2.256c-0.548-0.974-0.822-2.095-0.822-3.365v-5.947
	c0-1.252,0.278-2.361,0.835-3.326c0.556-0.965,1.334-1.713,2.335-2.243c1-0.531,2.152-0.796,3.456-0.796
	c1.321,0,2.482,0.265,3.482,0.796c1,0.531,1.778,1.278,2.335,2.243C72.722,25.128,73,26.237,73,27.489v5.947
	c0,1.27-0.278,2.392-0.835,3.365c-0.557,0.974-1.335,1.726-2.335,2.256c-1,0.531-2.161,0.796-3.482,0.796
	C65.044,39.853,63.887,39.588,62.879,39.058z M68.983,36.228c0.661-0.678,0.991-1.574,0.991-2.687v-6.078
	c0-1.13-0.331-2.035-0.991-2.713c-0.661-0.678-1.539-1.018-2.635-1.018c-1.078,0-1.948,0.339-2.609,1.018
	c-0.661,0.678-0.991,1.583-0.991,2.713v6.078c0,1.113,0.33,2.009,0.991,2.687c0.661,0.678,1.53,1.017,2.609,1.017
	C67.444,37.245,68.322,36.906,68.983,36.228z"/>
<g>
</g>
<g>
</g>
<g>
</g>
<g>
</g>
<g>
</g>
<g>
</g>
<g>
</g>
<g>
</g>
<g>
</g>
<g>
</g>
<g>
</g>
<g>
</g>
<g>
</g>
<g>
</g>
<g>
</g>
</svg>
