<?xml version="1.0" encoding="UTF-8"?>
<svg id="Logo" xmlns="http://www.w3.org/2000/svg" viewBox="0 0 1400.78 489.09">
  <defs>
    <style>
      .cls-1 {
        fill: #56dec2;
      }

      .cls-1, .cls-2, .cls-3, .cls-4, .cls-5 {
        stroke-width: 0px;
      }

      .cls-2 {
        fill: #1d3557;
      }

      .cls-3 {
        fill: #abf1e1;
      }

      .cls-4 {
        fill: #00b9b5;
      }

      .cls-5 {
        fill: #004b89;
      }
    </style>
  </defs>
  <g>
    <path class="cls-2" d="M759.89,232.89h-7.64l-22.98-34.77v34.77h-7.64v-46.63h7.64l22.98,34.71v-34.71h7.64v46.63Z"/>
    <path class="cls-2" d="M768.12,189.67c-.94-.94-1.41-2.1-1.41-3.48s.47-2.55,1.41-3.48c.94-.94,2.1-1.41,3.48-1.41s2.48.47,3.42,1.41c.94.94,1.41,2.1,1.41,3.48s-.47,2.55-1.41,3.48c-.94.94-2.08,1.41-3.42,1.41s-2.55-.47-3.48-1.41ZM775.35,195.97v36.92h-7.64v-36.92h7.64Z"/>
    <path class="cls-2" d="M816.52,217.27h-28.21c.22,2.95,1.32,5.32,3.28,7.1,1.96,1.79,4.38,2.68,7.24,2.68,4.11,0,7.01-1.72,8.71-5.16h8.24c-1.12,3.39-3.14,6.18-6.06,8.34s-6.55,3.25-10.89,3.25c-3.53,0-6.69-.79-9.48-2.38-2.79-1.59-4.98-3.82-6.57-6.7-1.59-2.88-2.38-6.22-2.38-10.02s.77-7.14,2.31-10.02c1.54-2.88,3.71-5.1,6.5-6.67,2.79-1.56,6-2.34,9.62-2.34s6.59.76,9.31,2.28c2.72,1.52,4.85,3.65,6.37,6.4,1.52,2.75,2.28,5.91,2.28,9.48,0,1.38-.09,2.64-.27,3.75ZM808.82,211.11c-.04-2.81-1.05-5.07-3.01-6.77-1.97-1.7-4.4-2.54-7.3-2.54-2.64,0-4.89.84-6.77,2.51-1.88,1.68-2.99,3.94-3.35,6.8h20.43Z"/>
    <path class="cls-2" d="M822.09,204.41c1.54-2.86,3.64-5.08,6.3-6.67,2.66-1.58,5.62-2.38,8.88-2.38,2.41,0,4.79.53,7.14,1.58,2.34,1.05,4.21,2.45,5.59,4.19v-17.82h7.71v49.58h-7.71v-5.56c-1.25,1.79-2.98,3.26-5.19,4.42s-4.75,1.74-7.6,1.74c-3.22,0-6.15-.81-8.81-2.45-2.66-1.63-4.76-3.91-6.3-6.83-1.54-2.92-2.31-6.24-2.31-9.95s.77-6.99,2.31-9.85ZM848.42,207.76c-1.05-1.88-2.42-3.31-4.12-4.29-1.7-.98-3.53-1.47-5.49-1.47s-3.8.48-5.49,1.44c-1.7.96-3.07,2.37-4.12,4.22-1.05,1.85-1.57,4.05-1.57,6.6s.52,4.78,1.57,6.7c1.05,1.92,2.43,3.38,4.15,4.39,1.72,1,3.54,1.51,5.46,1.51s3.8-.49,5.49-1.47c1.7-.98,3.07-2.42,4.12-4.32,1.05-1.9,1.58-4.12,1.58-6.67s-.53-4.76-1.58-6.63Z"/>
    <path class="cls-2" d="M899.01,217.27h-28.21c.22,2.95,1.32,5.32,3.28,7.1,1.96,1.79,4.38,2.68,7.24,2.68,4.11,0,7.01-1.72,8.71-5.16h8.24c-1.12,3.39-3.14,6.18-6.06,8.34s-6.55,3.25-10.89,3.25c-3.53,0-6.69-.79-9.48-2.38-2.79-1.59-4.98-3.82-6.57-6.7-1.59-2.88-2.38-6.22-2.38-10.02s.77-7.14,2.31-10.02c1.54-2.88,3.71-5.1,6.5-6.67,2.79-1.56,6-2.34,9.62-2.34s6.59.76,9.31,2.28c2.72,1.52,4.85,3.65,6.37,6.4,1.52,2.75,2.28,5.91,2.28,9.48,0,1.38-.09,2.64-.27,3.75ZM891.3,211.11c-.04-2.81-1.05-5.07-3.01-6.77-1.97-1.7-4.4-2.54-7.3-2.54-2.64,0-4.89.84-6.77,2.51-1.88,1.68-2.99,3.94-3.35,6.8h20.43Z"/>
    <path class="cls-2" d="M916.56,196.94c1.85-1.05,4.05-1.58,6.6-1.58v7.91h-1.94c-2.99,0-5.26.76-6.8,2.28s-2.31,4.15-2.31,7.91v19.43h-7.64v-36.92h7.64v5.36c1.12-1.88,2.6-3.34,4.46-4.39Z"/>
    <path class="cls-2" d="M949.56,197.07c2.21,1.14,3.94,2.56,5.19,4.25v-5.36h7.71v37.52c0,3.39-.72,6.42-2.14,9.08-1.43,2.66-3.5,4.74-6.2,6.26-2.7,1.52-5.93,2.28-9.68,2.28-5,0-9.16-1.17-12.46-3.52-3.31-2.34-5.18-5.53-5.63-9.55h7.57c.58,1.92,1.82,3.47,3.72,4.66s4.17,1.78,6.8,1.78c3.08,0,5.57-.94,7.47-2.81,1.9-1.88,2.85-4.6,2.85-8.17v-6.16c-1.3,1.74-3.05,3.21-5.26,4.39s-4.72,1.78-7.54,1.78c-3.22,0-6.15-.81-8.81-2.45-2.66-1.63-4.76-3.91-6.3-6.83-1.54-2.92-2.31-6.24-2.31-9.95s.77-6.99,2.31-9.85,3.64-5.08,6.3-6.67c2.66-1.58,5.59-2.38,8.81-2.38,2.86,0,5.39.57,7.6,1.71ZM953.18,207.76c-1.05-1.88-2.42-3.31-4.12-4.29-1.7-.98-3.53-1.47-5.49-1.47s-3.8.48-5.49,1.44c-1.7.96-3.07,2.37-4.12,4.22-1.05,1.85-1.57,4.05-1.57,6.6s.52,4.78,1.57,6.7c1.05,1.92,2.43,3.38,4.15,4.39,1.72,1,3.54,1.51,5.46,1.51s3.8-.49,5.49-1.47c1.7-.98,3.07-2.42,4.12-4.32,1.05-1.9,1.58-4.12,1.58-6.67s-.53-4.76-1.58-6.63Z"/>
    <path class="cls-2" d="M1003.77,217.27h-28.21c.22,2.95,1.32,5.32,3.28,7.1,1.96,1.79,4.38,2.68,7.24,2.68,4.11,0,7.01-1.72,8.71-5.16h8.24c-1.12,3.39-3.14,6.18-6.06,8.34s-6.55,3.25-10.89,3.25c-3.53,0-6.69-.79-9.48-2.38-2.79-1.59-4.98-3.82-6.57-6.7-1.59-2.88-2.38-6.22-2.38-10.02s.77-7.14,2.31-10.02c1.54-2.88,3.71-5.1,6.5-6.67,2.79-1.56,6-2.34,9.62-2.34s6.59.76,9.31,2.28c2.72,1.52,4.85,3.65,6.37,6.4,1.52,2.75,2.28,5.91,2.28,9.48,0,1.38-.09,2.64-.27,3.75ZM996.06,211.11c-.04-2.81-1.05-5.07-3.01-6.77-1.97-1.7-4.4-2.54-7.3-2.54-2.64,0-4.89.84-6.77,2.51-1.88,1.68-2.99,3.94-3.35,6.8h20.43Z"/>
    <path class="cls-2" d="M1016.83,183.31v49.58h-7.64v-49.58h7.64Z"/>
    <path class="cls-2" d="M1024.42,204.41c1.54-2.86,3.64-5.08,6.3-6.67,2.66-1.58,5.59-2.38,8.81-2.38,2.9,0,5.44.57,7.6,1.71,2.17,1.14,3.9,2.56,5.19,4.25v-5.36h7.71v36.92h-7.71v-5.49c-1.3,1.74-3.06,3.19-5.29,4.35-2.23,1.16-4.78,1.74-7.64,1.74-3.17,0-6.07-.81-8.71-2.45-2.64-1.63-4.72-3.91-6.26-6.83-1.54-2.92-2.31-6.24-2.31-9.95s.77-6.99,2.31-9.85ZM1050.75,207.76c-1.05-1.88-2.42-3.31-4.12-4.29-1.7-.98-3.53-1.47-5.49-1.47s-3.8.48-5.49,1.44c-1.7.96-3.07,2.37-4.12,4.22-1.05,1.85-1.57,4.05-1.57,6.6s.52,4.78,1.57,6.7c1.05,1.92,2.43,3.38,4.15,4.39,1.72,1,3.54,1.51,5.46,1.51s3.8-.49,5.49-1.47c1.7-.98,3.07-2.42,4.12-4.32,1.05-1.9,1.58-4.12,1.58-6.67s-.53-4.76-1.58-6.63Z"/>
    <path class="cls-2" d="M1073.07,231.91c-2.3-1.05-4.12-2.48-5.46-4.29s-2.06-3.83-2.14-6.06h7.91c.13,1.56.88,2.87,2.24,3.92,1.36,1.05,3.07,1.57,5.13,1.57s3.81-.41,4.99-1.24,1.78-1.89,1.78-3.18c0-1.38-.66-2.41-1.98-3.08s-3.41-1.41-6.26-2.21c-2.77-.76-5.03-1.5-6.77-2.21-1.74-.71-3.25-1.81-4.52-3.28-1.27-1.47-1.91-3.42-1.91-5.83,0-1.96.58-3.76,1.74-5.39,1.16-1.63,2.82-2.91,4.99-3.85,2.17-.94,4.66-1.41,7.47-1.41,4.2,0,7.58,1.06,10.15,3.18,2.57,2.12,3.94,5.01,4.12,8.68h-7.64c-.13-1.65-.8-2.97-2.01-3.95-1.21-.98-2.84-1.47-4.89-1.47s-3.55.38-4.62,1.14c-1.07.76-1.61,1.76-1.61,3.01,0,.98.36,1.81,1.07,2.48s1.58,1.2,2.61,1.57c1.03.38,2.55.86,4.56,1.44,2.68.71,4.88,1.44,6.6,2.18,1.72.74,3.21,1.82,4.46,3.25,1.25,1.43,1.9,3.33,1.94,5.7,0,2.1-.58,3.98-1.74,5.63-1.16,1.65-2.8,2.95-4.92,3.89-2.12.94-4.61,1.41-7.47,1.41s-5.5-.53-7.81-1.58Z"/>
    <path class="cls-2" d="M1106.18,231.91c-2.3-1.05-4.12-2.48-5.46-4.29s-2.06-3.83-2.14-6.06h7.91c.13,1.56.88,2.87,2.24,3.92,1.36,1.05,3.07,1.57,5.13,1.57s3.81-.41,4.99-1.24,1.78-1.89,1.78-3.18c0-1.38-.66-2.41-1.98-3.08s-3.41-1.41-6.26-2.21c-2.77-.76-5.03-1.5-6.77-2.21-1.74-.71-3.25-1.81-4.52-3.28-1.27-1.47-1.91-3.42-1.91-5.83,0-1.96.58-3.76,1.74-5.39,1.16-1.63,2.82-2.91,4.99-3.85,2.17-.94,4.66-1.41,7.47-1.41,4.2,0,7.58,1.06,10.15,3.18,2.57,2.12,3.94,5.01,4.12,8.68h-7.64c-.13-1.65-.8-2.97-2.01-3.95-1.21-.98-2.84-1.47-4.89-1.47s-3.55.38-4.62,1.14c-1.07.76-1.61,1.76-1.61,3.01,0,.98.36,1.81,1.07,2.48s1.58,1.2,2.61,1.57c1.03.38,2.55.86,4.56,1.44,2.68.71,4.88,1.44,6.6,2.18,1.72.74,3.21,1.82,4.46,3.25,1.25,1.43,1.9,3.33,1.94,5.7,0,2.1-.58,3.98-1.74,5.63-1.16,1.65-2.8,2.95-4.92,3.89-2.12.94-4.61,1.41-7.47,1.41s-5.5-.53-7.81-1.58Z"/>
    <path class="cls-2" d="M1167.38,217.27h-28.21c.22,2.95,1.32,5.32,3.28,7.1,1.96,1.79,4.38,2.68,7.24,2.68,4.11,0,7.01-1.72,8.71-5.16h8.24c-1.12,3.39-3.14,6.18-6.06,8.34s-6.55,3.25-10.89,3.25c-3.53,0-6.69-.79-9.48-2.38-2.79-1.59-4.98-3.82-6.57-6.7-1.59-2.88-2.38-6.22-2.38-10.02s.77-7.14,2.31-10.02c1.54-2.88,3.71-5.1,6.5-6.67,2.79-1.56,6-2.34,9.62-2.34s6.59.76,9.31,2.28c2.72,1.52,4.85,3.65,6.37,6.4,1.52,2.75,2.28,5.91,2.28,9.48,0,1.38-.09,2.64-.27,3.75ZM1159.67,211.11c-.04-2.81-1.05-5.07-3.01-6.77-1.97-1.7-4.4-2.54-7.3-2.54-2.64,0-4.89.84-6.77,2.51-1.88,1.68-2.99,3.94-3.35,6.8h20.43Z"/>
    <path class="cls-2" d="M1199.27,197.17c2.3,1.21,4.1,2.99,5.39,5.36,1.29,2.37,1.94,5.23,1.94,8.58v21.78h-7.57v-20.64c0-3.3-.83-5.84-2.48-7.6-1.65-1.76-3.91-2.65-6.77-2.65s-5.12.88-6.8,2.65c-1.67,1.76-2.51,4.3-2.51,7.6v20.64h-7.64v-36.92h7.64v4.22c1.25-1.52,2.85-2.7,4.79-3.55,1.94-.85,4.01-1.27,6.2-1.27,2.9,0,5.5.6,7.8,1.81Z"/>
    <path class="cls-2" d="M1247.49,217.27h-28.21c.22,2.95,1.32,5.32,3.28,7.1,1.96,1.79,4.38,2.68,7.24,2.68,4.11,0,7.01-1.72,8.71-5.16h8.24c-1.12,3.39-3.14,6.18-6.06,8.34s-6.55,3.25-10.89,3.25c-3.53,0-6.69-.79-9.48-2.38-2.79-1.59-4.98-3.82-6.57-6.7-1.59-2.88-2.38-6.22-2.38-10.02s.77-7.14,2.31-10.02c1.54-2.88,3.71-5.1,6.5-6.67,2.79-1.56,6-2.34,9.62-2.34s6.59.76,9.31,2.28c2.72,1.52,4.85,3.65,6.37,6.4,1.52,2.75,2.28,5.91,2.28,9.48,0,1.38-.09,2.64-.27,3.75ZM1239.78,211.11c-.04-2.81-1.05-5.07-3.01-6.77-1.97-1.7-4.4-2.54-7.3-2.54-2.64,0-4.89.84-6.77,2.51-1.88,1.68-2.99,3.94-3.35,6.8h20.43Z"/>
    <path class="cls-2" d="M746.01,302.7l-10.72-18.63h-5.83v18.63h-7.64v-46.57h16.08c3.57,0,6.6.63,9.08,1.88,2.48,1.25,4.33,2.93,5.56,5.03s1.84,4.45,1.84,7.04c0,3.04-.88,5.79-2.65,8.27-1.76,2.48-4.48,4.17-8.14,5.06l11.52,19.3h-9.11ZM729.46,277.98h8.44c2.86,0,5.01-.71,6.46-2.14,1.45-1.43,2.18-3.35,2.18-5.76s-.71-4.3-2.14-5.66c-1.43-1.36-3.6-2.04-6.5-2.04h-8.44v15.61Z"/>
    <path class="cls-2" d="M760.1,274.22c1.54-2.86,3.64-5.08,6.3-6.67,2.66-1.58,5.59-2.38,8.81-2.38,2.9,0,5.44.57,7.6,1.71,2.17,1.14,3.9,2.56,5.19,4.25v-5.36h7.71v36.92h-7.71v-5.49c-1.3,1.74-3.06,3.19-5.29,4.35-2.23,1.16-4.78,1.74-7.64,1.74-3.17,0-6.07-.81-8.71-2.45-2.64-1.63-4.72-3.91-6.26-6.83-1.54-2.92-2.31-6.24-2.31-9.95s.77-6.99,2.31-9.85ZM786.43,277.57c-1.05-1.88-2.42-3.31-4.12-4.29-1.7-.98-3.53-1.47-5.49-1.47s-3.8.48-5.49,1.44c-1.7.96-3.07,2.37-4.12,4.22-1.05,1.85-1.57,4.05-1.57,6.6s.52,4.78,1.57,6.7c1.05,1.92,2.43,3.38,4.15,4.39,1.72,1,3.54,1.51,5.46,1.51s3.8-.49,5.49-1.47c1.7-.98,3.07-2.42,4.12-4.32,1.05-1.9,1.58-4.12,1.58-6.67s-.53-4.76-1.58-6.63Z"/>
    <path class="cls-2" d="M803.22,274.22c1.54-2.86,3.64-5.08,6.3-6.67,2.66-1.58,5.62-2.38,8.88-2.38,2.41,0,4.79.53,7.14,1.58,2.34,1.05,4.21,2.45,5.59,4.19v-17.82h7.71v49.58h-7.71v-5.56c-1.25,1.79-2.98,3.26-5.19,4.42s-4.75,1.74-7.6,1.74c-3.22,0-6.15-.81-8.81-2.45-2.66-1.63-4.76-3.91-6.3-6.83-1.54-2.92-2.31-6.24-2.31-9.95s.77-6.99,2.31-9.85ZM829.55,277.57c-1.05-1.88-2.42-3.31-4.12-4.29-1.7-.98-3.53-1.47-5.49-1.47s-3.8.48-5.49,1.44c-1.7.96-3.07,2.37-4.12,4.22-1.05,1.85-1.57,4.05-1.57,6.6s.52,4.78,1.57,6.7c1.05,1.92,2.43,3.38,4.15,4.39,1.72,1,3.54,1.51,5.46,1.51s3.8-.49,5.49-1.47c1.7-.98,3.07-2.42,4.12-4.32,1.05-1.9,1.58-4.12,1.58-6.67s-.53-4.76-1.58-6.63Z"/>
    <path class="cls-2" d="M846.66,259.48c-.94-.94-1.41-2.1-1.41-3.48s.47-2.55,1.41-3.48c.94-.94,2.1-1.41,3.48-1.41s2.48.47,3.42,1.41c.94.94,1.41,2.1,1.41,3.48s-.47,2.55-1.41,3.48c-.94.94-2.08,1.41-3.42,1.41s-2.55-.47-3.48-1.41ZM853.9,265.78v36.92h-7.64v-36.92h7.64Z"/>
    <path class="cls-2" d="M868.03,300.92c-2.81-1.59-5.02-3.82-6.63-6.7s-2.41-6.22-2.41-10.02.83-7.08,2.48-9.98c1.65-2.9,3.91-5.14,6.77-6.7,2.86-1.56,6.05-2.34,9.58-2.34s6.72.78,9.58,2.34c2.86,1.56,5.11,3.8,6.77,6.7,1.65,2.9,2.48,6.23,2.48,9.98s-.85,7.08-2.55,9.98c-1.7,2.9-4.01,5.15-6.93,6.73-2.93,1.59-6.15,2.38-9.68,2.38s-6.63-.79-9.45-2.38ZM883.01,295.26c1.72-.94,3.12-2.35,4.19-4.22,1.07-1.88,1.61-4.15,1.61-6.83s-.51-4.95-1.54-6.8c-1.03-1.85-2.39-3.25-4.09-4.19-1.7-.94-3.53-1.41-5.49-1.41s-3.79.47-5.46,1.41-3,2.33-3.99,4.19c-.98,1.85-1.47,4.12-1.47,6.8,0,3.98,1.01,7.05,3.05,9.21,2.03,2.17,4.59,3.25,7.67,3.25,1.96,0,3.81-.47,5.53-1.41Z"/>
    <path class="cls-2" d="M908.69,300.92c-2.81-1.59-5.02-3.82-6.63-6.7s-2.41-6.22-2.41-10.02.83-7.08,2.48-9.98c1.65-2.9,3.91-5.14,6.77-6.7,2.86-1.56,6.05-2.34,9.58-2.34s6.72.78,9.58,2.34c2.86,1.56,5.11,3.8,6.77,6.7,1.65,2.9,2.48,6.23,2.48,9.98s-.85,7.08-2.55,9.98c-1.7,2.9-4.01,5.15-6.93,6.73-2.93,1.59-6.15,2.38-9.68,2.38s-6.63-.79-9.45-2.38ZM923.67,295.26c1.72-.94,3.12-2.35,4.19-4.22,1.07-1.88,1.61-4.15,1.61-6.83s-.51-4.95-1.54-6.8c-1.03-1.85-2.39-3.25-4.09-4.19-1.7-.94-3.53-1.41-5.49-1.41s-3.79.47-5.46,1.41-3,2.33-3.99,4.19c-.98,1.85-1.47,4.12-1.47,6.8,0,3.98,1.01,7.05,3.05,9.21,2.03,2.17,4.59,3.25,7.67,3.25,1.96,0,3.81-.47,5.53-1.41Z"/>
    <path class="cls-2" d="M968.92,266.99c2.3,1.21,4.1,2.99,5.39,5.36,1.29,2.37,1.94,5.23,1.94,8.58v21.78h-7.57v-20.64c0-3.3-.83-5.84-2.48-7.6-1.65-1.76-3.91-2.65-6.77-2.65s-5.12.88-6.8,2.65c-1.67,1.76-2.51,4.3-2.51,7.6v20.64h-7.64v-36.92h7.64v4.22c1.25-1.52,2.85-2.7,4.79-3.55,1.94-.85,4.01-1.27,6.2-1.27,2.9,0,5.5.6,7.8,1.81Z"/>
    <path class="cls-2" d="M997.98,284.27l17.02,18.43h-10.32l-13.67-15.88v15.88h-7.64v-49.58h7.64v28.81l13.4-16.15h10.59l-17.02,18.49Z"/>
    <path class="cls-2" d="M1022.4,300.92c-2.81-1.59-5.02-3.82-6.63-6.7s-2.41-6.22-2.41-10.02.83-7.08,2.48-9.98c1.65-2.9,3.91-5.14,6.77-6.7,2.86-1.56,6.05-2.34,9.58-2.34s6.72.78,9.58,2.34c2.86,1.56,5.11,3.8,6.77,6.7,1.65,2.9,2.48,6.23,2.48,9.98s-.85,7.08-2.55,9.98c-1.7,2.9-4.01,5.15-6.93,6.73-2.93,1.59-6.15,2.38-9.68,2.38s-6.63-.79-9.45-2.38ZM1037.38,295.26c1.72-.94,3.12-2.35,4.19-4.22,1.07-1.88,1.61-4.15,1.61-6.83s-.51-4.95-1.54-6.8c-1.03-1.85-2.39-3.25-4.09-4.19-1.7-.94-3.53-1.41-5.49-1.41s-3.79.47-5.46,1.41-3,2.33-3.99,4.19c-.98,1.85-1.47,4.12-1.47,6.8,0,3.98,1.01,7.05,3.05,9.21,2.03,2.17,4.59,3.25,7.67,3.25,1.96,0,3.81-.47,5.53-1.41Z"/>
    <path class="cls-2" d="M1063.92,253.12v49.58h-7.64v-49.58h7.64Z"/>
    <path class="cls-2" d="M1078.27,300.92c-2.81-1.59-5.02-3.82-6.63-6.7s-2.41-6.22-2.41-10.02.83-7.08,2.48-9.98c1.65-2.9,3.91-5.14,6.77-6.7,2.86-1.56,6.05-2.34,9.58-2.34s6.72.78,9.58,2.34c2.86,1.56,5.11,3.8,6.77,6.7,1.65,2.9,2.48,6.23,2.48,9.98s-.85,7.08-2.55,9.98c-1.7,2.9-4.01,5.15-6.93,6.73-2.93,1.59-6.15,2.38-9.68,2.38s-6.63-.79-9.45-2.38ZM1093.25,295.26c1.72-.94,3.12-2.35,4.19-4.22,1.07-1.88,1.61-4.15,1.61-6.83s-.51-4.95-1.54-6.8c-1.03-1.85-2.39-3.25-4.09-4.19-1.7-.94-3.53-1.41-5.49-1.41s-3.79.47-5.46,1.41-3,2.33-3.99,4.19c-.98,1.85-1.47,4.12-1.47,6.8,0,3.98,1.01,7.05,3.05,9.21,2.03,2.17,4.59,3.25,7.67,3.25,1.96,0,3.81-.47,5.53-1.41Z"/>
    <path class="cls-2" d="M1134.89,266.89c2.21,1.14,3.94,2.56,5.19,4.25v-5.36h7.71v37.52c0,3.39-.72,6.42-2.14,9.08-1.43,2.66-3.5,4.74-6.2,6.26-2.7,1.52-5.93,2.28-9.68,2.28-5,0-9.16-1.17-12.46-3.52-3.31-2.34-5.18-5.53-5.63-9.55h7.57c.58,1.92,1.82,3.47,3.72,4.66s4.17,1.78,6.8,1.78c3.08,0,5.57-.94,7.47-2.81,1.9-1.88,2.85-4.6,2.85-8.17v-6.16c-1.3,1.74-3.05,3.21-5.26,4.39s-4.72,1.78-7.54,1.78c-3.22,0-6.15-.81-8.81-2.45-2.66-1.63-4.76-3.91-6.3-6.83-1.54-2.92-2.31-6.24-2.31-9.95s.77-6.99,2.31-9.85,3.64-5.08,6.3-6.67c2.66-1.58,5.59-2.38,8.81-2.38,2.86,0,5.39.57,7.6,1.71ZM1138.51,277.57c-1.05-1.88-2.42-3.31-4.12-4.29-1.7-.98-3.53-1.47-5.49-1.47s-3.8.48-5.49,1.44c-1.7.96-3.07,2.37-4.12,4.22-1.05,1.85-1.57,4.05-1.57,6.6s.52,4.78,1.57,6.7c1.05,1.92,2.43,3.38,4.15,4.39,1.72,1,3.54,1.51,5.46,1.51s3.8-.49,5.49-1.47c1.7-.98,3.07-2.42,4.12-4.32,1.05-1.9,1.58-4.12,1.58-6.67s-.53-4.76-1.58-6.63Z"/>
    <path class="cls-2" d="M1189.09,287.09h-28.21c.22,2.95,1.32,5.32,3.28,7.1,1.96,1.79,4.38,2.68,7.24,2.68,4.11,0,7.01-1.72,8.71-5.16h8.24c-1.12,3.39-3.14,6.18-6.06,8.34s-6.55,3.25-10.89,3.25c-3.53,0-6.69-.79-9.48-2.38-2.79-1.59-4.98-3.82-6.57-6.7-1.59-2.88-2.38-6.22-2.38-10.02s.77-7.14,2.31-10.02c1.54-2.88,3.71-5.1,6.5-6.67,2.79-1.56,6-2.34,9.62-2.34s6.59.76,9.31,2.28c2.72,1.52,4.85,3.65,6.37,6.4,1.52,2.75,2.28,5.91,2.28,9.48,0,1.38-.09,2.64-.27,3.75ZM1181.39,280.92c-.04-2.81-1.05-5.07-3.01-6.77-1.97-1.7-4.4-2.54-7.3-2.54-2.64,0-4.89.84-6.77,2.51-1.88,1.68-2.99,3.94-3.35,6.8h20.43Z"/>
    <path class="cls-2" d="M1220.98,266.99c2.3,1.21,4.1,2.99,5.39,5.36,1.29,2.37,1.94,5.23,1.94,8.58v21.78h-7.57v-20.64c0-3.3-.83-5.84-2.48-7.6-1.65-1.76-3.91-2.65-6.77-2.65s-5.12.88-6.8,2.65c-1.67,1.76-2.51,4.3-2.51,7.6v20.64h-7.64v-36.92h7.64v4.22c1.25-1.52,2.85-2.7,4.79-3.55,1.94-.85,4.01-1.27,6.2-1.27,2.9,0,5.5.6,7.8,1.81Z"/>
  </g>
  <g>
    <path class="cls-3" d="M664.25,244.48c0,49.43-40.08,89.5-89.5,89.5-13.11,0-25.58-2.82-36.8-7.89l-43.76-57.11c11.8-3.74,20.94-10.03,27.38-18.88,6.47-8.87,9.69-19.5,9.69-31.95,0-10.87-2.42-20.51-7.23-28.91-1.93-3.32-4.15-6.38-6.73-9.11-.74-.79-1.5-1.55-2.29-2.28,15.85-14.21,36.79-22.86,59.76-22.86,49.42,0,89.5,40.07,89.5,89.5Z"/>
    <path class="cls-1" d="M537.94,326.08h0l-181.3-.09c.39,0,.8-.03,1.19-.05,14.6-.64,27.55-3.94,38.85-9.9,12.67-6.67,22.46-16.21,29.37-28.57,6.91-12.36,10.39-26.69,10.39-43.01,0-1.01-.03-2.03-.05-3.03-.04-1.34-.08-2.65-.19-3.96-.85-13.47-4.24-25.48-10.15-36.04-6.91-12.36-16.7-21.87-29.37-28.55-12.45-6.57-26.92-9.92-43.39-10.02h119.22c11.81,0,22.15,2.29,31,6.87,4.32,2.24,8.15,4.93,11.49,8.08.79.73,1.55,1.49,2.29,2.28,2.59,2.73,4.81,5.79,6.73,9.11,4.82,8.39,7.23,18.04,7.23,28.91,0,12.44-3.22,23.08-9.69,31.95-6.44,8.86-15.58,15.15-27.38,18.88l43.76,57.11Z"/>
    <path class="cls-4" d="M436.43,244.48c0,16.32-3.48,30.65-10.39,43.01-6.91,12.36-16.7,21.89-29.37,28.57-11.29,5.96-24.25,9.26-38.85,9.9-.39.02-.8.04-1.19.05-1.37.06-2.73.08-4.14.08h-91.68l67.15-163.18h25.32c16.46.1,30.93,3.45,43.39,10.02,12.67,6.67,22.46,16.19,29.37,28.55,5.92,10.56,9.31,22.57,10.15,36.04.11,1.31.15,2.62.19,3.96.02.99.05,2.02.05,3.03Z"/>
    <path class="cls-4" d="M353.28,162.89h-25.32s24.54,0,24.54,0c.27,0,.53,0,.79,0Z"/>
    <polygon class="cls-5" points="327.96 162.88 327.96 162.89 260.81 326.07 220.48 326.07 153.34 162.88 327.96 162.88"/>
  </g>
</svg>