<?xml version="1.0" encoding="UTF-8" standalone="no"?>
<!DOCTYPE svg PUBLIC "-//W3C//DTD SVG 1.1//EN" "http://www.w3.org/Graphics/SVG/1.1/DTD/svg11.dtd">
<svg width="100%" height="100%" viewBox="0 0 1863 500" version="1.1" xmlns="http://www.w3.org/2000/svg" xmlns:xlink="http://www.w3.org/1999/xlink" xml:space="preserve" xmlns:serif="http://www.serif.com/" style="fill-rule:evenodd;clip-rule:evenodd;stroke-linejoin:round;stroke-miterlimit:2;">
    <g transform="matrix(17.2414,0,0,17.2414,0,0)">
        <path d="M41.418,14.463L41.418,20.925L45.27,20.925C47.047,20.925 48.663,20.252 48.663,17.586C48.663,15.324 47.343,14.463 44.515,14.463L41.418,14.463ZM41.391,11.769L44.408,11.769C46.427,11.769 47.639,11.069 47.639,9.104C47.639,7.326 46.912,6.572 44.408,6.572L41.391,6.572L41.391,11.769ZM37.89,23.646L37.89,3.824L44.435,3.798C48.797,3.771 51.141,5.225 51.141,8.941C51.141,11.311 49.848,12.416 48.959,12.928C51.275,13.844 52.218,15.594 52.218,17.478C52.218,20.818 50.279,23.7 45.485,23.673L37.89,23.646Z" style="fill:rgb(44,51,148);fill-rule:nonzero;"/>
        <path d="M66.602,12.389C66.602,8.403 65.336,6.572 62.589,6.572L58.657,6.572L58.657,20.925L62.859,20.925C64.313,20.925 66.602,20.279 66.602,14.625L66.602,12.389ZM70.373,14.678C70.373,20.414 67.76,23.7 63.021,23.673C60.597,23.673 57.526,23.646 55.103,23.646L55.103,3.824L62.078,3.798C65.525,3.771 70.373,4.74 70.373,12.389L70.373,14.678Z" style="fill:rgb(44,51,148);fill-rule:nonzero;"/>
        <path d="M77.144,7.999L77.144,23.646L73.616,23.646L73.616,3.824L77.413,3.824L84.011,15.971L85.223,19.229L85.223,3.824L88.752,3.824L88.752,23.646L85.008,23.646L78.248,11.446L77.144,7.999Z" style="fill:rgb(44,51,148);fill-rule:nonzero;"/>
        <path d="M96.161,12.309L99.527,12.309C100.955,12.309 102.355,11.823 102.355,9.427C102.355,7.353 101.332,6.545 99.527,6.545L96.161,6.545L96.161,12.309ZM98.962,14.947L96.214,14.947L96.214,23.646L92.66,23.646L92.66,3.824L99.149,3.798C102.814,3.771 105.938,4.929 105.938,9.184C105.938,12.201 104.752,13.951 102.462,14.651C104.672,18.475 107.15,23.646 107.15,23.646L103.351,23.646C103.351,23.646 100.902,18.501 98.962,14.947Z" style="fill:rgb(44,51,148);fill-rule:nonzero;"/>
        <path d="M27.568,18.379C27.676,18.438 27.792,18.466 27.906,18.466C28.157,18.466 28.401,18.331 28.529,18.095C28.716,17.751 28.589,17.321 28.245,17.134C27.768,16.874 27.49,16.542 27.393,16.114C27.211,15.308 27.711,14.35 27.848,14.141C27.961,14.016 28.03,13.848 28.03,13.666C28.03,13.274 27.713,12.957 27.322,12.957C26.581,12.957 26.171,14.343 26.064,14.767C25.667,16.328 26.215,17.644 27.568,18.379Z" style="fill:rgb(44,51,148);fill-rule:nonzero;"/>
        <path d="M24.472,21.537C24.351,21.624 23.255,22.369 22.194,21.064C22.06,20.898 21.942,20.394 22.1,19.789C22.162,19.548 22.362,18.969 22.87,18.767C23.789,18.402 24.379,17.859 24.626,17.158C24.953,16.225 24.517,15.414 24.466,15.324C24.274,14.988 23.851,14.872 23.512,15.059C23.172,15.244 23.048,15.674 23.229,16.016C23.231,16.019 23.408,16.363 23.285,16.699C23.149,17.064 22.7,17.31 22.346,17.451C21.564,17.761 20.975,18.483 20.728,19.431C20.48,20.386 20.624,21.378 21.095,21.957C21.883,22.927 22.766,23.243 23.544,23.243C24.282,23.243 24.926,22.96 25.309,22.68C25.625,22.449 25.694,22.005 25.462,21.689C25.231,21.373 24.787,21.305 24.472,21.537Z" style="fill:rgb(44,51,148);fill-rule:nonzero;"/>
        <path d="M24.482,13.153C25.28,12.386 25.382,11.223 24.737,10.26C23.875,8.973 24.012,8.592 24.011,8.592L24.017,8.587C24.335,8.357 24.407,7.915 24.178,7.598C23.949,7.279 23.507,7.206 23.189,7.436C22.272,8.096 22.397,9.311 23.559,11.049C23.937,11.611 23.643,11.994 23.5,12.132C23.165,12.453 22.544,12.572 21.911,12.111C21.595,11.881 21.151,11.951 20.921,12.268C20.691,12.584 20.761,13.027 21.078,13.258C21.64,13.666 22.219,13.833 22.754,13.833C23.447,13.833 24.067,13.553 24.482,13.153Z" style="fill:rgb(44,51,148);fill-rule:nonzero;"/>
        <path d="M26.523,24.202C26.051,24.234 25.517,24.271 24.895,24.723C24.655,24.895 24.397,25.171 24.071,25.521C23.266,26.386 22.057,27.665 20.828,27.577C18.408,27.347 18.145,24.937 18.137,24.9L18.137,23.033C18.546,23.081 19.126,23.271 19.662,23.897C20.216,24.543 19.944,25.552 19.942,25.558C19.834,25.934 20.049,26.329 20.425,26.438C20.491,26.456 20.558,26.466 20.624,26.466C20.931,26.466 21.213,26.265 21.304,25.955C21.324,25.883 21.795,24.206 20.738,22.975C19.844,21.931 18.84,21.66 18.137,21.612L18.137,19.191C18.159,18.623 18.297,17.492 19.029,16.764C19.902,15.893 21,15.852 21.024,15.852C21.413,15.846 21.726,15.527 21.723,15.139C21.72,14.748 21.403,14.435 21.014,14.435L21.009,14.435C20.943,14.436 19.418,14.47 18.137,15.666L18.136,3.425C18.136,3.422 18.134,3.418 18.134,3.416C18.134,3.413 18.136,3.412 18.136,3.41C18.185,2.319 18.817,1.952 19.34,1.834C20.169,1.647 21.086,2.009 21.428,2.654C21.863,3.479 21.322,4.691 19.942,5.98C19.139,6.731 18.814,7.93 19.113,9.035C19.353,9.919 19.951,10.549 20.714,10.722C20.767,10.733 20.819,10.739 20.871,10.739C21.195,10.739 21.487,10.516 21.562,10.188C21.647,9.805 21.408,9.426 21.026,9.339C20.785,9.283 20.581,9.031 20.481,8.664C20.347,8.169 20.427,7.467 20.91,7.017C23.34,4.744 23.157,3.039 22.755,2.145C23.351,2.241 24.098,2.541 24.773,3.357C26.035,4.887 25.337,6.852 25.308,6.932C25.17,7.297 25.356,7.706 25.722,7.844C25.804,7.875 25.888,7.89 25.971,7.89C26.258,7.89 26.528,7.714 26.635,7.43C26.66,7.362 27.006,6.4 26.924,5.178C27.296,5.355 27.773,5.758 28.215,6.656C28.726,7.697 28.391,8.741 28.146,9.271C27.772,10.078 27.24,10.521 27.05,10.569C26.67,10.665 26.441,11.051 26.537,11.43C26.618,11.752 26.906,11.966 27.223,11.966C27.281,11.966 27.339,11.959 27.397,11.943C28.079,11.771 28.808,11.062 29.308,10.109C29.541,10.303 29.801,10.636 29.951,11.215C30.149,11.973 29.839,12.809 29.565,13.547C29.301,14.258 29.073,14.873 29.297,15.44C29.418,15.748 29.62,16.012 29.834,16.291C30.27,16.861 30.721,17.453 30.591,18.499C30.482,19.382 29.891,19.808 29.415,20.009C28.618,20.345 27.662,20.253 27.271,19.956C26.96,19.72 26.515,19.78 26.278,20.091C26.041,20.404 26.102,20.847 26.414,21.085C26.898,21.453 27.592,21.642 28.324,21.642C28.647,21.642 28.976,21.592 29.299,21.517C29.263,22.132 29.102,22.915 28.538,23.366C27.585,24.129 27.069,24.165 26.523,24.202ZM30.96,15.43C30.807,15.231 30.664,15.043 30.625,14.953C30.608,14.811 30.773,14.365 30.894,14.04C31.206,13.198 31.634,12.047 31.323,10.856C31.008,9.647 30.337,9.051 29.803,8.752C29.963,7.983 29.973,7.021 29.487,6.031C28.547,4.121 27.32,3.703 26.575,3.643C26.411,3.242 26.184,2.84 25.866,2.456C24.143,0.37 22.01,0.645 21.405,0.776C20.7,0.409 19.848,0.268 19.03,0.452C17.651,0.761 16.788,1.843 16.72,3.346C16.719,3.361 16.726,3.375 16.727,3.389C16.726,3.402 16.719,3.412 16.719,3.425L16.722,19.126C16.71,19.412 16.719,19.603 16.722,19.638L16.723,24.962C16.835,26.236 17.81,28.714 20.695,28.987C20.791,28.997 20.887,29 20.981,29C22.766,29 24.221,27.44 25.108,26.489C25.349,26.231 25.597,25.962 25.725,25.871C26.019,25.658 26.232,25.643 26.62,25.617C27.255,25.574 28.126,25.514 29.424,24.473C30.684,23.462 30.764,21.719 30.721,20.884C31.437,20.356 31.884,19.595 31.998,18.673C32.199,17.051 31.453,16.076 30.96,15.43Z" style="fill:rgb(44,51,148);fill-rule:nonzero;"/>
        <path d="M4.709,12.957C4.317,12.957 4,13.274 4,13.666C4,13.848 4.069,14.016 4.183,14.141C4.32,14.35 4.82,15.308 4.638,16.114C4.541,16.541 4.263,16.874 3.786,17.134C3.442,17.32 3.314,17.75 3.501,18.095C3.63,18.331 3.873,18.465 4.125,18.465C4.239,18.465 4.355,18.437 4.462,18.378C5.815,17.644 6.364,16.328 5.967,14.768C5.859,14.344 5.45,12.957 4.709,12.957Z" style="fill:rgb(44,51,148);fill-rule:nonzero;"/>
        <path d="M10.936,21.958C11.407,21.378 11.551,20.388 11.303,19.433C11.057,18.484 10.467,17.761 9.685,17.451C9.331,17.309 8.881,17.064 8.746,16.699C8.625,16.372 8.791,16.037 8.802,16.017C8.989,15.678 8.869,15.25 8.532,15.059C8.193,14.867 7.76,14.984 7.565,15.324C7.514,15.413 7.078,16.225 7.405,17.158C7.651,17.859 8.242,18.402 9.161,18.767C9.669,18.969 9.869,19.55 9.932,19.79C10.089,20.394 9.971,20.899 9.836,21.064C8.817,22.32 7.756,21.673 7.559,21.536C7.244,21.304 6.799,21.373 6.568,21.689C6.337,22.005 6.406,22.449 6.722,22.679C7.104,22.959 7.749,23.243 8.487,23.243C9.266,23.243 10.148,22.927 10.936,21.958Z" style="fill:rgb(44,51,148);fill-rule:nonzero;"/>
        <path d="M11.203,27.577C9.982,27.674 8.765,26.386 7.959,25.521C7.633,25.171 7.376,24.895 7.137,24.723C6.514,24.271 5.979,24.234 5.507,24.202C4.961,24.165 4.445,24.129 3.493,23.365C2.926,22.913 2.766,22.13 2.73,21.517C3.054,21.592 3.382,21.642 3.706,21.642C4.438,21.642 5.133,21.452 5.617,21.083C5.929,20.847 5.989,20.402 5.752,20.091C5.516,19.779 5.07,19.718 4.76,19.956C4.368,20.253 3.414,20.345 2.617,20.009C2.14,19.809 1.549,19.384 1.439,18.5C1.31,17.453 1.761,16.861 2.198,16.29C2.411,16.011 2.613,15.747 2.735,15.438C2.958,14.873 2.729,14.258 2.466,13.547C2.192,12.809 1.881,11.973 2.08,11.213C2.23,10.636 2.489,10.303 2.723,10.109C3.223,11.062 3.952,11.771 4.633,11.943C4.692,11.959 4.75,11.966 4.808,11.966C5.125,11.966 5.413,11.752 5.494,11.43C5.59,11.051 5.36,10.665 4.981,10.569C4.791,10.521 4.258,10.078 3.885,9.271C3.854,9.205 3.823,9.133 3.792,9.053C3.791,9.047 3.787,9.043 3.786,9.037C3.566,8.467 3.372,7.561 3.815,6.657C4.255,5.764 4.731,5.361 5.106,5.183C5.025,6.402 5.371,7.363 5.396,7.43C5.503,7.714 5.773,7.89 6.06,7.89C6.143,7.89 6.227,7.875 6.309,7.844C6.675,7.706 6.86,7.297 6.723,6.932C6.715,6.911 5.982,4.902 7.258,3.357C7.932,2.542 8.68,2.24 9.276,2.144C8.874,3.037 8.689,4.742 11.121,7.017C11.604,7.467 11.684,8.169 11.55,8.664C11.45,9.031 11.246,9.283 11.004,9.339C10.623,9.426 10.383,9.805 10.469,10.188C10.544,10.516 10.836,10.739 11.16,10.739C11.212,10.739 11.264,10.733 11.317,10.722C12.08,10.549 12.678,9.919 12.918,9.035C13.217,7.93 12.892,6.731 12.089,5.98C10.709,4.691 10.168,3.479 10.603,2.654C10.945,2.009 11.862,1.648 12.691,1.834C13.213,1.952 13.846,2.319 13.895,3.41C13.895,3.412 13.897,3.413 13.897,3.416C13.897,3.418 13.895,3.422 13.895,3.425L13.896,15.667C12.614,14.469 11.088,14.435 11.022,14.434C10.65,14.435 10.317,14.743 10.311,15.133C10.305,15.521 10.617,15.843 11.006,15.852C11.018,15.852 12.123,15.886 13.002,16.764C13.743,17.501 13.877,18.656 13.896,19.214L13.896,21.611C13.193,21.658 12.188,21.929 11.293,22.974C10.235,24.206 10.707,25.883 10.727,25.955C10.817,26.265 11.1,26.466 11.407,26.466C11.473,26.466 11.54,26.456 11.606,26.438C11.981,26.329 12.197,25.934 12.088,25.558C12.085,25.548 11.814,24.544 12.37,23.896C12.907,23.267 13.486,23.078 13.896,23.031L13.896,24.838C13.887,24.94 13.647,27.345 11.203,27.577ZM15.311,19.152L15.312,3.425C15.312,3.412 15.305,3.402 15.304,3.389C15.305,3.375 15.312,3.361 15.311,3.346C15.243,1.843 14.38,0.761 13.001,0.452C12.184,0.268 11.332,0.409 10.626,0.776C10.022,0.646 7.888,0.37 6.165,2.456C5.847,2.84 5.62,3.242 5.456,3.643C4.71,3.703 3.483,4.121 2.543,6.031C2.058,7.021 2.067,7.983 2.228,8.752C1.693,9.051 1.022,9.646 0.708,10.855C0.397,12.047 0.825,13.198 1.137,14.04C1.257,14.365 1.422,14.811 1.416,14.919C1.367,15.043 1.224,15.23 1.071,15.43C0.578,16.076 -0.167,17.051 0.033,18.673C0.147,19.597 0.594,20.357 1.31,20.884C1.267,21.72 1.347,23.463 2.606,24.472C3.905,25.514 4.775,25.574 5.411,25.617C5.799,25.643 6.012,25.658 6.306,25.871C6.434,25.962 6.682,26.231 6.922,26.489C7.81,27.44 9.265,29 11.05,29C11.144,29 11.24,28.997 11.336,28.987C14.221,28.714 15.196,26.236 15.311,24.9L15.311,19.597C15.314,19.533 15.319,19.384 15.311,19.152Z" style="fill:rgb(44,51,148);fill-rule:nonzero;"/>
        <path d="M9.277,13.833C9.812,13.833 10.391,13.666 10.953,13.258C11.27,13.027 11.339,12.584 11.109,12.268C10.879,11.951 10.436,11.882 10.12,12.111C9.486,12.572 8.865,12.453 8.531,12.132C8.388,11.994 8.094,11.611 8.472,11.049C9.634,9.311 9.759,8.096 8.842,7.436C8.524,7.207 8.083,7.28 7.854,7.598C7.625,7.915 7.699,8.358 8.017,8.588C8.019,8.591 8.157,8.971 7.294,10.26C6.648,11.223 6.751,12.386 7.548,13.153C7.963,13.553 8.583,13.833 9.277,13.833Z" style="fill:rgb(44,51,148);fill-rule:nonzero;"/>
    </g>
</svg>
