<?xml version="1.0" encoding="utf-8"?>
<!-- Generator: Adobe Illustrator 19.1.0, SVG Export Plug-In . SVG Version: 6.00 Build 0)  -->
<svg version="1.1" id="Ebene_1" xmlns="http://www.w3.org/2000/svg" xmlns:xlink="http://www.w3.org/1999/xlink" x="0px" y="0px"
	 viewBox="0 0 433.2 100.2" style="enable-background:new 0 0 433.2 100.2;" xml:space="preserve">
<style type="text/css">
	.st0{clip-path:url(#SVGID_2_);fill-rule:evenodd;clip-rule:evenodd;}
	.st1{clip-path:url(#SVGID_2_);fill-rule:evenodd;clip-rule:evenodd;fill:#E10C1A;}
	.st2{clip-path:url(#SVGID_2_);fill-rule:evenodd;clip-rule:evenodd;fill:#FECD0F;}
	.st3{clip-path:url(#SVGID_2_);}
</style>
<g>
	<defs>
		<rect id="SVGID_1_" x="0.8" y="1.1" width="431.3" height="98.2"/>
	</defs>
	<clipPath id="SVGID_2_">
		<use xlink:href="#SVGID_1_"  style="overflow:visible;"/>
	</clipPath>
	<path class="st0" d="M111.2,65v-2.8c1.7-0.5,3.3-1.5,4.4-3.1c1.6-2.3,2.4-4.9,2.4-8c0-3-0.8-5.7-2.4-8c-1.2-1.6-2.7-2.6-4.4-3v-2.8
		c1.4,0.1,2.8,0.5,4,1.2c1.6,0.7,2.9,1.8,4,3.1c1.2,1.3,2,2.8,2.5,4.5c0.6,1.7,0.9,3.3,0.9,5.1c0,1.7-0.3,3.4-0.9,5.1
		c-0.6,1.6-1.4,3.1-2.5,4.5c-1.1,1.4-2.4,2.4-4,3.2C113.9,64.5,112.6,64.8,111.2,65 M111.2,37.3v2.8c-0.7-0.2-1.5-0.3-2.3-0.3h-4.6
		v22.6h4.6c0.8,0,1.6-0.1,2.3-0.2V65c-0.4,0.1-0.9,0.1-1.3,0.1H97.5l2.8-2.8V40l-2.8-2.7h12.3H111.2z M55.9,65.6V63
		c1.4,0,2.6-0.3,3.7-1c1-0.7,1.9-1.6,2.5-2.8c0.7-1.2,1.2-2.4,1.5-3.8c0.4-1.5,0.5-2.9,0.5-4.4c0-1.5-0.1-2.9-0.5-4.3
		c-0.3-1.4-0.8-2.7-1.5-3.8c-0.6-1.2-1.5-2-2.5-2.8c-1.1-0.7-2.3-1-3.7-1v-2.5c2,0,3.7,0.4,5.3,1.2c1.6,0.8,2.9,1.9,4.1,3.3
		c1.1,1.5,1.9,3,2.5,4.6c0.6,1.7,0.9,3.5,0.9,5.3c0,1.7-0.3,3.6-0.9,5.3c-0.6,1.7-1.4,3.3-2.5,4.6c-1.2,1.4-2.5,2.5-4.1,3.3
		C59.6,65.2,57.8,65.6,55.9,65.6 M62.8,31.3c0-0.7-0.2-1.2-0.7-1.7c-0.5-0.4-1.1-0.7-1.7-0.7c-0.7,0-1.2,0.3-1.7,0.7
		c-0.5,0.5-0.8,1.1-0.8,1.7s0.3,1.2,0.8,1.7c0.4,0.5,1,0.7,1.7,0.7c0.7,0,1.2-0.2,1.7-0.7C62.6,32.6,62.8,32,62.8,31.3 M87.5,49.9
		l2.8,2.8v8.4c-0.6,0.5-1.2,0.9-1.9,1.2c-0.8,0.4-1.7,0.6-3,0.6c-3.1,0-5.5-1.2-7.3-3.6c-1.7-2.3-2.6-5.1-2.6-8.2
		c0-1.5,0.2-2.8,0.7-4.3c0.5-1.4,1.2-2.7,2.1-3.8c0.9-1.2,2-2,3.3-2.7c1.2-0.7,2.5-0.9,3.8-0.9c1.5,0,2.8,0.4,4,1.3l3.6,3.5v-5.7
		c-0.8-0.4-1.8-0.8-3.1-1.2c-1.3-0.3-2.8-0.5-4.4-0.5c-2,0-4,0.4-5.8,1.2c-1.7,0.8-3.3,1.8-4.6,3.2c-1.4,1.3-2.4,2.8-3,4.6
		c-0.7,1.7-1.1,3.5-1.1,5.4c0,1.8,0.4,3.6,1.1,5.3c0.7,1.7,1.7,3.3,3,4.6c1.3,1.4,2.9,2.4,4.6,3.2c1.8,0.8,3.8,1.2,5.8,1.2
		c2.2,0,4-0.1,5.2-0.5c1.2-0.4,2.5-0.9,3.6-1.6V52.7l2.8-2.8H87.5z M55.9,36.7v2.5c-1.4,0-2.7,0.4-3.7,1c-1,0.7-1.9,1.6-2.5,2.8
		c-0.7,1.2-1.1,2.5-1.4,3.8c-0.3,1.4-0.4,2.8-0.4,4.3c0,1.5,0.1,2.9,0.4,4.4c0.4,1.4,0.8,2.6,1.4,3.8c0.7,1.2,1.5,2.1,2.5,2.8
		c1,0.7,2.2,1,3.7,1v2.6c-2,0-3.8-0.4-5.3-1.2c-1.6-0.8-3-2-4.1-3.3c-0.9-1.2-1.7-2.5-2.2-3.8V45c0.6-1.5,1.3-2.7,2.2-3.8
		c1.1-1.4,2.4-2.5,4-3.3C52.1,37.1,53.9,36.7,55.9,36.7 M44.3,38.4l1.2-1.2h-1.2V38.4z M54.2,31.3c0-0.6-0.3-1.2-0.7-1.7
		c-0.5-0.4-1.1-0.7-1.7-0.7c-0.7,0-1.2,0.3-1.7,0.7c-0.4,0.5-0.7,1.1-0.7,1.7c0,0.7,0.3,1.2,0.7,1.7c0.5,0.5,1.1,0.7,1.7,0.7
		c0.7,0,1.2-0.2,1.7-0.7C53.9,32.5,54.2,31.9,54.2,31.3 M21.2,61.5c0.1-0.1,0.2-0.3,0.3-0.4c0.6-1,0.9-2.1,0.9-3.5
		c0-1.2-0.4-2.5-1.2-3.6V61.5z M44.3,37.3v1.2l-1.7,1.7L33.7,65h-2l-8.7-24.9l-1.7-1.7v-1.1h8.9L27.4,40l5.9,17.6L39.5,40l-2.7-2.7
		H44.3z M44.3,45c-0.1,0.2-0.2,0.5-0.3,0.8c-0.6,1.7-0.9,3.5-0.9,5.3c0,1.7,0.3,3.6,0.9,5.3c0.1,0.2,0.2,0.5,0.3,0.8V45z M12.1,65
		c1.3,0,2.6-0.1,3.8-0.4c1.2-0.3,2.2-0.7,3.3-1.3c0.8-0.4,1.5-1.1,2-1.9v-7.4c-0.1-0.3-0.4-0.5-0.6-0.8c-1.2-1.3-2.7-2.2-4.5-2.7
		c1.4-0.6,2.5-1.4,3.4-2.5c0.9-1.1,1.4-2.1,1.4-3.2c0-1.4-0.3-2.5-0.9-3.6c-0.5-0.9-1.2-1.8-2.2-2.4c-0.9-0.7-2-1.1-3.2-1.4
		c-0.8-0.1-1.7-0.3-2.5-0.4v2.6c1.1,0.2,2,0.7,2.9,1.5c1.1,1.1,1.7,2.2,1.7,3.6c0,1.3-0.6,2.5-1.7,3.4c-0.9,0.7-1.8,1.2-2.9,1.3v2.7
		c1.7,0,3.1,0.5,4.3,1.6c1.2,1,1.8,2.2,1.8,3.7c0,1.4-0.7,2.5-1.8,3.5c-1.2,0.9-2.6,1.3-4.3,1.3V65z M21.2,37.3v1.1l-1.1-1.1H21.2z
		 M0.8,65h11.3v-2.6H7.6V52.4h4.6v-2.7c-0.4,0.1-0.7,0.1-1.1,0.1H7.6v-10H11c0.4,0,0.7,0,1.1,0.1v-2.6H11H0.8L3.6,40v22.3L0.8,65z"
		/>
	<path class="st0" d="M162.1,85.6c2.5-2.5,2-4.1,0.1-5.7v-5.4c1.8,1.4,3.2,2.4,4.7,4.1c0.2,0.2,0.4,0.5,0.6,0.7
		c0.1,0.3,0.4,0.6,0.5,0.9c0.1,0.2,0.3,0.5,0.4,0.8c0.1,0.3,0.2,0.6,0.3,0.9c0.1,0.3,0.1,0.7,0.1,0.9v0.9c-0.1,0.5-0.2,1-0.4,1.5
		c-0.2,0.4-0.5,0.9-0.7,1.3c-0.3,0.4-0.7,0.7-0.9,1.1c-0.4,0.3-0.8,0.6-1.2,0.9c-0.4,0.3-0.9,0.5-1.3,0.8c-0.5,0.2-1,0.4-1.5,0.7
		c-3.6,1.4-7,2.3-9.7,5.3c-0.3,0.4-0.7,0.7-0.9,1.1c-0.3,0.4-0.6,0.8-0.9,1.2c-0.2,0.3-0.4,0.6-0.7,0.8c-0.1,0.2-0.3,0.4-0.4,0.5
		c-0.1,0-0.1,0-0.1,0.1v-1.5c0.1-0.5,0.2-1,0.3-1.4c0.2-0.5,0.4-1,0.6-1.5c0.2-0.5,0.4-1,0.7-1.4c0.3-0.5,0.6-0.9,0.9-1.5
		C155.3,88.3,158.4,87.4,162.1,85.6"/>
	<path class="st0" d="M169.2,28.7c0.3,0.1,0.7,0.3,1,0.4c0.4,0.1,0.9,0.2,1.3,0.4c0.4,0,0.8,0.1,1.2,0.1h1.1
		c0.3-0.1,0.6-0.2,0.9-0.4l0.7-0.4l0.4-0.7c0.1-0.3,0.1-0.6,0.3-0.9v-0.9c0-0.4-0.1-0.8-0.1-1.2c-0.1-0.4-0.2-0.8-0.4-1.2
		c-0.2-0.4-0.4-0.8-0.6-1.2c-0.3-0.4-0.6-0.8-0.9-1.2c-0.3-0.4-0.7-0.8-1-1.2c-0.1-0.1-0.3-0.2-0.4-0.3c-0.1-0.1-0.3-0.2-0.4-0.4
		c-0.1-0.1-0.3-0.1-0.4-0.3c-0.2-0.1-0.4-0.1-0.7-0.3c-0.1-0.1-0.4-0.1-0.6-0.3c-0.2-0.1-0.4-0.2-0.7-0.3c-0.2-0.1-0.5-0.2-0.7-0.4
		V24l0.3,0.1l0.3,0.1l0.4,0.4l0.4,0.4v0.4l-0.1,0.4l-0.1,0.2l-0.1,0.1l-0.3,0.1l-0.2,0.1h-0.2l-0.3-0.1V28.7z M162.7,23.2
		c0.2,0.2,0.5,0.4,0.7,0.7c0.3,0.2,0.5,0.4,0.7,0.7l0.7,0.7c0.2,0.2,0.4,0.4,0.6,0.6c0.2,0.1,0.4,0.4,0.6,0.5
		c0.1,0.1,0.3,0.3,0.4,0.4c0.4,0.4,0.9,0.7,1.3,1c0.4,0.3,0.9,0.6,1.3,0.8c0.1,0.1,0.1,0.1,0.3,0.1v-2.3l-0.3-0.1l-0.3-0.1l-0.5-0.4
		l-0.3-0.4l-0.1-0.5l0.1-0.4l0.1-0.1l0.2-0.1l0.2-0.1h0.2h0.3l0.3,0.1v-5.9c-0.3-0.1-0.5-0.2-0.8-0.3c-0.3-0.1-0.6-0.2-0.8-0.4
		c-0.3-0.1-0.7-0.2-0.9-0.3c-0.3-0.1-0.6-0.2-0.9-0.3c-0.3-0.1-0.7-0.2-0.9-0.3c-3.4-1.4-6.3-1.7-10.2-1.6h-1
		c-0.3,0-0.6,0.1-0.9,0.1c-0.3,0.1-0.6,0.1-0.9,0.1c-0.2,0.1-0.5,0.1-0.7,0.2c-0.2,0.1-0.5,0.1-0.7,0.3c-0.2,0.1-0.4,0.1-0.7,0.3
		c-0.1,0.1-0.4,0.2-0.5,0.4c-0.5,0.4-0.9,0.8-1.5,1.2c-0.4,0.4-0.7,0.8-1.2,1.2c-0.3,0.4-0.6,0.8-0.9,1.2c-0.2,0.4-0.4,0.9-0.6,1.3
		c-0.1,0.5-0.2,1-0.3,1.6c0,0.6,0.1,1.2,0.1,1.7c1.1,5.5,3.8,8.7,8.3,11.8c0.4,0.2,0.2,0.3,0.6,0.5v-7.8c-1.9-1.3-3.2-4.1-2.7-6.5
		c0.1-0.3,0.4-0.6,0.5-0.9c0.1-0.1,0.3-0.1,0.5-0.2c0.1-0.1,0.3-0.1,0.4-0.1c0.1-0.1,0.3-0.1,0.5-0.2c0.1-0.1,0.3-0.1,0.4-0.1
		c0.3-0.1,0.5-0.1,0.8-0.1v-0.1h0.9h0.7l0.6,0.1l0.7,0.1l0.6,0.1l0.7,0.1l0.6,0.1l0.7,0.2l0.6,0.2l0.5,0.3l0.6,0.2l0.6,0.4
		C162.2,22.9,162.4,23,162.7,23.2"/>
	<path class="st0" d="M162.6,47.2c0.2-0.4,0.5-0.7,0.7-1.1c0.1-0.4,0.2-0.7,0.3-1c0-0.4-0.1-0.7-0.1-0.9c-0.1-0.3-0.2-0.6-0.3-0.9
		c-0.4-0.5-0.6-0.8-1.1-1.3v-8c0.4,0.1,0.5,0.3,0.9,0.5c0.1,0.1,0.2,0.1,0.4,0.2l0.4,0.2c0.6,0.4,1.2,0.9,1.7,1.2
		c0.5,0.5,0.9,1,1.5,1.5c0.4,0.5,0.9,1.1,1.3,1.7c0.4,0.6,0.7,1.2,0.9,1.9c0.2,0.7,0.4,1.4,0.7,2.1c0,0.8,0.1,1.6,0.1,2.3
		c-0.1,0.9-0.2,1.7-0.3,2.5c-0.3,0.9-0.7,1.7-0.9,2.6c-0.1,0.3-0.4,0.6-0.5,0.8c-0.3,0.3-0.5,0.6-0.8,0.9c-4.9,4-15.7,6.3-15.4,11.5
		c-0.1,1.2,0.7,2.5,1.8,3.8v6.7c-0.9-0.6-1.1-0.7-2-1.4c-0.2-0.1-0.4-0.3-0.7-0.5c-0.3-0.1-0.5-0.4-0.7-0.5
		c-0.2-0.2-0.4-0.4-0.7-0.6c-3.3-3-5.7-5.9-4.1-10.3C149.3,53.6,157.3,52.8,162.6,47.2"/>
	<path class="st1" d="M155,65.8v-5.1l0.9-0.6l1.1-0.7l1.2-0.6l1.2-0.7l1.3-0.7l0.7-0.4V66l-0.2,0.1l-0.5,0.1l-0.5,0.1l-0.6,0.1
		l-0.6,0.1h-0.6h-0.7l-0.6-0.1l-0.6-0.1l-0.5-0.1l-0.5-0.1L155,65.8L155,65.8z M155,51.6V36.9l0.2,0.1l0.6,0.1l0.6,0.1l0.7,0.1h0.7
		l0.7,0.1l0.7-0.1h0.7l0.7-0.1l0.6-0.1l0.4-0.1v10.3l-0.1,0.1l-1.1,0.9l-1.1,0.8l-1.1,0.7l-1.2,0.7l-1.2,0.7L155,51.6z"/>
	<path class="st2" d="M161.3,96.8l-3,2.5l-3.4-2.5v-2.5l0.6-0.4l0.5-0.4l0.6-0.4l0.6-0.3l0.6-0.3l0.7-0.3l0.6-0.3l0.7-0.2l0.7-0.2
		l0.7-0.3l0.4-0.1V96.8z M155,88.5V67.3h0.2l0.6,0.2l0.6,0.1l0.7,0.1l0.7,0.1h0.7h0.7l0.7-0.1l0.7-0.1l0.6-0.1l0.4-0.1v17.9
		l-0.1,0.1l-0.7,0.3l-0.7,0.3l-0.7,0.3l-0.7,0.3l-0.7,0.3l-0.6,0.3l-0.7,0.4l-0.6,0.3l-0.6,0.4L155,88.5z"/>
	<path class="st0" d="M155,35.5v-14h0.4l0.6,0.1h0.6l0.6,0.1l0.6,0.1l0.7,0.2l0.6,0.1l0.6,0.2l0.6,0.2l0.5,0.2l0.5,0.3l0.3,0.1v12.3
		l-0.2,0.1l-0.5,0.1l-0.5,0.1l-0.6,0.1L159,36h-0.6h-0.7l-0.6-0.1l-0.6-0.1l-0.5-0.1l-0.5-0.1L155,35.5L155,35.5z M158.2,1.1
		c-2.8,0-5,2.3-5,5.1c0,1.4,0.7,2.8,1.6,3.7L155,10l0.4,0.2l0.4,0.1l0.5,0.1l0.5,0.1l0.5,0.1h0.5h0.6h0.5h0.5l0.6-0.1l0.4-0.1
		l0.5-0.1l0.4-0.1v-0.1c1.2-0.9,1.9-2.4,1.9-3.9C163.2,3.4,161,1.1,158.2,1.1 M155,11.4v2.8h0.4h0.7h0.7h0.7l0.7,0.1l0.7,0.1
		l0.7,0.1l0.6,0.1l0.7,0.1l0.7,0.1h0.1v-3.3l-0.1,0.1l-0.5,0.1l-0.6,0.1l-0.6,0.1l-0.6,0.1h-0.6h-0.7l-0.6-0.1l-0.6-0.1l-0.6-0.1
		l-0.5-0.1L155,11.4z"/>
	<path class="st3" d="M419,40.7v-1.2c0.2,0,0.4,0.1,0.7,0.1c0.9,0,1.6-0.3,2.2-0.9l0.6,0.9c-0.4,0.4-0.9,0.7-1.4,0.8
		c-0.5,0.2-1.1,0.3-1.7,0.3H419z M419,36.1V35h2.2c-0.1-0.5-0.1-0.9-0.1-1.3c-0.1-0.3-0.1-0.6-0.3-0.8c-0.2-0.2-0.4-0.4-0.7-0.6
		c-0.3-0.1-0.6-0.2-0.9-0.2H419V31h0.1c1,0,1.8,0.4,2.5,1c0.2,0.2,0.4,0.4,0.5,0.7c0.1,0.2,0.3,0.5,0.4,0.8c0.1,0.3,0.1,0.7,0.1,1
		c0.1,0.4,0.1,0.9,0.1,1.5v0.2H419z M430.7,40.5v-6.3v-0.7c0-0.1-0.1-0.3-0.1-0.4c0-0.1-0.1-0.2-0.1-0.3c-0.1-0.1-0.1-0.1-0.2-0.3
		c-0.2-0.2-0.5-0.4-1-0.4c-0.1,0-0.4,0.1-0.6,0.1c-0.3,0.1-0.5,0.2-0.7,0.3l-0.7,0.4c-0.2,0.1-0.4,0.4-0.6,0.5v7h-1.5v-7.2
		c0-0.7-0.1-1.2-0.1-1.5l-0.2-0.4l1.5-0.4c0,0,0,0.1,0.1,0.2c0.1,0.1,0.1,0.3,0.1,0.5c0.1,0.3,0.1,0.5,0.1,0.7c1-0.9,2-1.4,3-1.4
		c0.5,0,0.9,0.1,1.4,0.4c0.4,0.2,0.7,0.6,0.9,0.9c0.1,0.4,0.2,0.7,0.2,1.1v7.1H430.7z M419,31v1.2c-1.3,0-2,0.9-2.1,2.9h2.1v1.1
		h-2.1v0.2c0,0.4,0,0.8,0.1,1.2c0.1,0.4,0.2,0.7,0.4,0.9c0.2,0.4,0.6,0.7,1,0.9c0.2,0.1,0.4,0.1,0.7,0.2v1.2c-1.2-0.1-2-0.5-2.7-1.3
		c-0.7-0.9-1.1-2-1.1-3.6c0-0.8,0.1-1.5,0.2-2c0.2-0.6,0.5-1.1,0.9-1.5C417.1,31.4,417.9,31,419,31 M363.5,36.6v-1.2h2l-2-6.2v0.1
		v-1.5h1.1l4.3,12.8h-1.7l-1.2-4H363.5z M366.5,26c0,0.2-0.1,0.5-0.3,0.7c-0.2,0.2-0.4,0.3-0.7,0.3c-0.3,0-0.5-0.1-0.7-0.3
		c-0.2-0.1-0.3-0.4-0.3-0.7c0-0.3,0.1-0.5,0.3-0.7c0.1-0.1,0.4-0.3,0.7-0.3c0.3,0,0.5,0.1,0.7,0.3C366.4,25.5,366.5,25.7,366.5,26
		 M374.6,32.6c-0.1-0.1-0.3-0.1-0.4-0.1c-0.6,0-1.1,0.2-1.5,0.7c-0.2,0.2-0.4,0.4-0.4,0.6c-0.1,0.2-0.1,0.5-0.1,0.9v5.9h-1.5v-7.2
		c0-0.7-0.1-1.2-0.1-1.5c-0.1-0.3-0.1-0.5-0.1-0.5l1.4-0.4c0,0,0,0.1,0.1,0.2c0.1,0.1,0.1,0.3,0.1,0.6c0.1,0.2,0.1,0.4,0.1,0.7
		c0.4-0.5,0.7-0.9,1.2-1.2c0.5-0.3,0.9-0.4,1.5-0.4h0.4c0.1,0.1,0.1,0.1,0.1,0.1L374.6,32.6z M381.8,40.5h-6.2v-1.2l5.1-7H376v-1.2
		h6.2v1.2l-4.8,7h5.1L381.8,40.5z M388.1,32.4h-2v5.9c0,0.5,0.1,0.9,0.3,1.1c0.1,0.2,0.4,0.3,0.9,0.3h0.5c0.1-0.1,0.2-0.1,0.4-0.1
		l0.2,0.9c-0.5,0.2-1,0.4-1.7,0.4c-0.2,0-0.4-0.1-0.7-0.1c-0.1-0.1-0.4-0.1-0.5-0.2c-0.4-0.1-0.6-0.4-0.7-0.7
		c-0.1-0.3-0.2-0.7-0.2-1.2v-6.4h-1.2v-1.2h1.2c0-0.2,0-0.4,0.1-0.7v-0.7c0-0.3,0.1-0.4,0.1-0.7v-0.2l1.5-0.4v0.3
		c0,0.1-0.1,0.4-0.1,0.6c0,0.3-0.1,0.6-0.1,0.9v0.9h2.3L388.1,32.4z M390.5,40.5v-9.3L392,31v9.5H390.5z M392.5,28.4
		c0,0.3-0.1,0.6-0.4,0.8c-0.2,0.2-0.5,0.3-0.8,0.3c-0.4,0-0.6-0.1-0.8-0.3c-0.2-0.2-0.4-0.5-0.4-0.8c0-0.3,0.1-0.6,0.4-0.8
		c0.2-0.2,0.4-0.4,0.8-0.4c0.3,0,0.6,0.1,0.8,0.4C392.3,27.8,392.5,28,392.5,28.4 M400.7,40.5v-6.3v-0.7c0-0.1-0.1-0.3-0.1-0.4
		c0-0.1-0.1-0.2-0.1-0.3c-0.1-0.1-0.1-0.1-0.1-0.3c-0.3-0.2-0.6-0.4-1.1-0.4c-0.1,0-0.4,0.1-0.6,0.1c-0.2,0.1-0.5,0.2-0.7,0.3
		l-0.7,0.4c-0.2,0.1-0.4,0.4-0.6,0.5v7h-1.5v-7.2c0-0.7-0.1-1.2-0.1-1.5l-0.2-0.4l1.4-0.4c0,0,0.1,0.1,0.1,0.2
		c0.1,0.1,0.1,0.3,0.1,0.5c0.1,0.3,0.1,0.5,0.1,0.7c0.9-0.9,1.9-1.4,2.9-1.4c0.5,0,0.9,0.1,1.4,0.4c0.4,0.2,0.7,0.6,0.9,0.9
		c0.1,0.4,0.3,0.7,0.3,1.1v7.1H400.7z M411,40.5v-6.3v-0.7c-0.1-0.1-0.1-0.3-0.1-0.4c-0.1-0.1-0.1-0.2-0.1-0.3
		c0-0.1-0.1-0.1-0.1-0.3c-0.2-0.2-0.6-0.4-1-0.4c-0.2,0-0.4,0.1-0.7,0.1c-0.2,0.1-0.4,0.2-0.7,0.3c-0.2,0.1-0.4,0.3-0.7,0.4
		c-0.2,0.1-0.4,0.4-0.6,0.5v7h-1.4v-7.2c0-0.7-0.1-1.2-0.2-1.5c-0.1-0.3-0.1-0.4-0.1-0.4l1.4-0.4c0,0,0,0.1,0.1,0.2
		c0.1,0.1,0.1,0.3,0.1,0.5c0.1,0.3,0.1,0.5,0.1,0.7c0.9-0.9,2-1.4,3-1.4c0.5,0,0.9,0.1,1.4,0.4c0.4,0.2,0.7,0.6,0.9,0.9
		c0.1,0.4,0.2,0.7,0.2,1.1v7.1H411z M363.5,27.7v1.5l-2,6.2h2v1.2h-2.4l-1.2,4h-1.5l4.3-12.8H363.5z M343.5,40.7v-1.2
		c0.1,0,0.4,0.1,0.6,0.1c0.9,0,1.7-0.3,2.3-0.9l0.5,0.9c-0.4,0.4-0.9,0.7-1.4,0.8c-0.6,0.2-1.2,0.3-1.7,0.3H343.5z M343.5,36.1V35
		h2.1c0-0.5-0.1-0.9-0.1-1.3c-0.1-0.3-0.1-0.6-0.3-0.8c-0.1-0.2-0.4-0.4-0.7-0.6c-0.4-0.1-0.7-0.2-1-0.2V31h0.1c1,0,1.9,0.4,2.5,1
		c0.1,0.2,0.4,0.4,0.5,0.7c0.1,0.2,0.2,0.5,0.3,0.8c0.1,0.3,0.1,0.7,0.2,1v1.5v0.2H343.5z M353.7,32.6c-0.1-0.1-0.3-0.1-0.4-0.1
		c-0.6,0-1.1,0.2-1.5,0.7c-0.2,0.2-0.4,0.4-0.4,0.6c-0.1,0.2-0.1,0.5-0.1,0.9v5.9h-1.5v-7.2c0-0.7,0-1.2-0.1-1.5
		c-0.1-0.3-0.1-0.5-0.1-0.5l1.5-0.4c0,0,0.1,0.1,0.1,0.2c0.1,0.1,0.1,0.3,0.1,0.6c0.1,0.2,0.1,0.4,0.1,0.7c0.4-0.5,0.7-0.9,1.2-1.2
		c0.4-0.3,0.9-0.4,1.4-0.4h0.4l0.1,0.1L353.7,32.6z M362.6,26c0,0.2-0.1,0.5-0.2,0.7c-0.2,0.2-0.4,0.3-0.7,0.3
		c-0.3,0-0.5-0.1-0.7-0.3c-0.2-0.1-0.3-0.4-0.3-0.7c0-0.3,0.1-0.5,0.3-0.7c0.1-0.1,0.4-0.3,0.7-0.3c0.3,0,0.5,0.1,0.7,0.3
		C362.5,25.5,362.6,25.7,362.6,26 M343.5,31v1.2c-1.4,0-2.1,0.9-2.2,2.9h2.2v1.1h-2.2v0.2c0,0.4,0.1,0.8,0.1,1.2
		c0,0.4,0.1,0.7,0.3,0.9c0.3,0.4,0.6,0.7,1,0.9c0.2,0.1,0.4,0.1,0.7,0.2v1.2c-1.2-0.1-2.1-0.5-2.8-1.3c-0.7-0.9-1.1-2-1.1-3.6
		c0-0.8,0.1-1.5,0.3-2c0.1-0.6,0.4-1.1,0.9-1.5C341.4,31.4,342.4,31,343.5,31 M333,40.6v-1.2c0.4,0,0.7,0,0.9-0.1
		c0.2-0.1,0.5-0.3,0.8-0.5c0.2-0.1,0.4-0.3,0.4-0.4c0.1-0.1,0.1-0.2,0.1-0.2v-4.9c-0.2-0.4-0.5-0.6-0.9-0.7
		c-0.4-0.1-0.8-0.2-1.4-0.2H333V31c0.5,0,0.9,0.1,1.3,0.3c0.4,0.2,0.8,0.5,1.1,0.9V32v-0.5c-0.1-0.3-0.1-0.5-0.1-0.7v-3.8l1.5,0.2
		v10.4v1.9c0.1,0.5,0.1,0.9,0.2,1.2h-1.5c0,0-0.1-0.1-0.1-0.3c0-0.2-0.1-0.4-0.1-0.7c-0.4,0.4-0.7,0.7-1.1,0.8
		C334,40.5,333.5,40.6,333,40.6 M333,31v1.2c-0.7,0-1.3,0.3-1.7,0.9c-0.2,0.4-0.4,0.7-0.4,1.1c-0.1,0.4-0.1,0.9-0.1,1.6
		c0,0.6,0,1,0.1,1.5c0.1,0.4,0.1,0.7,0.3,1c0.2,0.4,0.4,0.7,0.8,0.8c0.3,0.1,0.7,0.2,1.1,0.2v1.2H333c-1.2,0-2.2-0.4-2.8-1.2
		c-0.7-0.8-0.9-2-0.9-3.4c0-2,0.7-3.5,1.9-4.4c0.3-0.2,0.6-0.4,0.9-0.4c0.3-0.1,0.6-0.1,0.9-0.1H333z M318.3,40.6v-1.2
		c0.4,0,0.7,0,0.9-0.1c0.3-0.1,0.6-0.3,0.9-0.5l0.4-0.4c0.1-0.1,0.1-0.2,0.1-0.2v-4.9c-0.2-0.4-0.5-0.6-0.9-0.7
		c-0.4-0.1-0.8-0.2-1.4-0.2V31c0.4,0,0.9,0.1,1.2,0.3c0.4,0.2,0.8,0.5,1.1,0.9V32v-0.5v-0.7v-3.8l1.4,0.2v10.4c0,0.8,0,1.5,0.1,1.9
		c0,0.5,0.1,0.9,0.2,1.2h-1.5c0,0,0-0.1-0.1-0.3c-0.1-0.2-0.1-0.4-0.1-0.7c-0.3,0.4-0.7,0.7-1.1,0.8
		C319.2,40.5,318.8,40.6,318.3,40.6 M318.3,31v1.2c-0.7,0-1.3,0.3-1.7,0.9c-0.2,0.4-0.4,0.7-0.4,1.1c-0.1,0.4-0.1,0.9-0.1,1.6
		c0,0.6,0,1,0.1,1.5c0.1,0.4,0.1,0.7,0.3,1c0.2,0.4,0.5,0.7,0.8,0.8c0.3,0.1,0.7,0.2,1.1,0.2h0.1v1.2h-0.1c-1.2,0-2.1-0.4-2.8-1.2
		c-0.7-0.8-1-2-1-3.4c0-2,0.7-3.5,2-4.4c0.3-0.2,0.6-0.4,0.8-0.4c0.3-0.1,0.7-0.1,0.9-0.1H318.3z M298,40.7v-1
		c0.4-0.1,0.7-0.2,0.9-0.4c0.4-0.3,0.7-0.7,0.9-1.1l0.1-2.5h-0.4h-0.4c-0.5,0-0.9,0-1.2,0.1v-1c0.4,0,0.9-0.1,1.3-0.1h0.5l0.1,0.1
		v-0.7v-0.9c-0.1-0.2-0.1-0.4-0.3-0.6c-0.1-0.1-0.3-0.3-0.5-0.4c-0.2-0.1-0.4-0.1-0.7-0.1H298V31c0.2-0.1,0.4-0.1,0.7-0.1
		c1.3,0,2.2,0.5,2.5,1.5c0.1,0.3,0.2,0.6,0.2,0.9v1.1l-0.1,3.1v0.9c0,0.2,0.1,0.4,0.1,0.6c0,0.2,0.1,0.3,0.2,0.4
		c0.1,0.1,0.2,0.2,0.4,0.3l-0.8,1.1c-0.3-0.1-0.6-0.3-0.8-0.6c-0.2-0.2-0.4-0.5-0.4-0.8c-0.4,0.4-0.9,0.7-1.3,0.9
		C298.6,40.6,298.3,40.7,298,40.7 M310.1,40.5v-6.3v-0.7c0-0.1-0.1-0.3-0.1-0.4c0-0.1-0.1-0.2-0.1-0.3c-0.1-0.1-0.1-0.1-0.2-0.3
		c-0.2-0.2-0.5-0.4-1-0.4c-0.1,0-0.4,0.1-0.6,0.1c-0.3,0.1-0.5,0.2-0.7,0.3l-0.7,0.4c-0.2,0.1-0.4,0.4-0.6,0.5v7h-1.5v-7.2
		c0-0.7-0.1-1.2-0.1-1.5l-0.2-0.4l1.5-0.4c0,0,0,0.1,0.1,0.2c0.1,0.1,0.1,0.3,0.1,0.5c0.1,0.3,0.1,0.5,0.1,0.7c1-0.9,2-1.4,3-1.4
		c0.5,0,0.9,0.1,1.4,0.4c0.4,0.2,0.7,0.6,0.9,0.9c0.1,0.4,0.2,0.7,0.2,1.1v7.1H310.1z M298,31v1.2c-0.1,0-0.2,0-0.4,0.1l-0.9,0.2
		c-0.2,0.1-0.5,0.2-0.7,0.4c-0.2,0.1-0.4,0.3-0.6,0.4l-0.7-1.1C295.8,31.6,296.8,31.1,298,31 M298,34.8v1c-0.1,0.1-0.2,0.1-0.3,0.1
		c-0.4,0.1-0.7,0.2-0.9,0.4c-0.3,0.2-0.4,0.4-0.6,0.7c-0.1,0.2-0.1,0.6-0.1,0.9c0,1.1,0.5,1.7,1.6,1.7h0.4v1
		c-0.2,0.1-0.4,0.1-0.6,0.1c-0.6,0-1.1-0.1-1.5-0.2c-0.4-0.2-0.7-0.4-0.9-0.7c-0.2-0.2-0.4-0.5-0.5-0.9c-0.1-0.3-0.1-0.6-0.1-0.9
		c0-1,0.4-1.8,1.3-2.5C296.3,35.3,297.1,35,298,34.8 M288.4,40.8v-1.3c0.3,0,0.6-0.1,0.9-0.2c0.3-0.1,0.5-0.4,0.7-0.6
		c0.1-0.3,0.3-0.7,0.4-1.1c0.1-0.5,0.2-1.2,0.2-2c0-0.6-0.1-1.1-0.1-1.5c-0.1-0.4-0.2-0.7-0.4-1c-0.1-0.3-0.4-0.4-0.7-0.6
		c-0.3-0.1-0.7-0.2-1-0.2V31h0.3c0.6,0,1.1,0.1,1.5,0.3c0.4,0.2,0.8,0.5,1.2,0.9c0.3,0.4,0.5,0.9,0.7,1.5c0.1,0.6,0.2,1.2,0.2,2
		s-0.1,1.4-0.2,2c-0.2,0.6-0.4,1.2-0.8,1.6c-0.3,0.4-0.7,0.7-1.2,1c-0.4,0.2-0.9,0.4-1.5,0.4H288.4z M288.4,31v1.3
		c-0.4,0-0.9,0.1-1.3,0.4c-0.4,0.2-0.8,0.5-1,0.9v4.8c0.2,0.3,0.6,0.6,1,0.8c0.4,0.2,0.9,0.3,1.3,0.3v1.3c-0.4-0.1-0.8-0.1-1.2-0.4
		c-0.4-0.2-0.9-0.5-1.1-0.9c0,0.1-0.1,0.4-0.1,0.5c0,0.1-0.1,0.3-0.2,0.5h-1.5c0.1-0.2,0.2-0.5,0.2-0.9c0.1-0.4,0.1-0.9,0.1-1.4
		v-9.1c0-0.7-0.1-1.1-0.1-1.4c-0.1-0.3-0.1-0.5-0.1-0.5l1.4-0.3c0,0,0,0.2,0.1,0.6c0.1,0.4,0.1,0.9,0.1,1.7v2.2v0.7v0.4
		c0.4-0.4,0.9-0.8,1.3-0.9C287.7,31.2,288.1,31,288.4,31 M272.5,40.7v-1.2c0.2,0,0.4,0.1,0.7,0.1c0.9,0,1.7-0.3,2.2-0.9l0.6,0.9
		c-0.4,0.4-0.9,0.7-1.5,0.8c-0.5,0.2-1.1,0.3-1.7,0.3H272.5z M272.5,36.1V35h2.2c0-0.5-0.1-0.9-0.1-1.3c-0.1-0.3-0.1-0.6-0.3-0.8
		c-0.1-0.2-0.4-0.4-0.7-0.6c-0.3-0.1-0.6-0.2-0.9-0.2h-0.1V31h0.1c1,0,1.9,0.4,2.5,1c0.2,0.2,0.4,0.4,0.5,0.7
		c0.1,0.2,0.3,0.5,0.4,0.8c0.1,0.3,0.1,0.7,0.1,1c0.1,0.4,0.1,0.9,0.1,1.5v0.2H272.5z M282.8,32.6c-0.1-0.1-0.3-0.1-0.4-0.1
		c-0.6,0-1.1,0.2-1.5,0.7c-0.2,0.2-0.4,0.4-0.4,0.6c-0.1,0.2-0.1,0.5-0.1,0.9v5.9h-1.5v-7.2c0-0.7-0.1-1.2-0.1-1.5
		c-0.1-0.3-0.1-0.5-0.1-0.5L280,31c0,0,0.1,0.1,0.1,0.2c0.1,0.1,0.1,0.3,0.1,0.6c0.1,0.2,0.1,0.4,0.1,0.7c0.4-0.5,0.7-0.9,1.2-1.2
		c0.4-0.3,0.9-0.4,1.4-0.4h0.4c0.1,0.1,0.1,0.1,0.1,0.1L282.8,32.6z M272.5,31v1.2c-1.3,0-2,0.9-2.1,2.9h2.1v1.1h-2.1v0.2
		c0,0.4,0,0.8,0.1,1.2c0.1,0.4,0.2,0.7,0.4,0.9c0.3,0.4,0.6,0.7,1,0.9c0.2,0.1,0.4,0.1,0.7,0.2v1.2c-1.1-0.1-2-0.5-2.7-1.3
		c-0.7-0.9-1.1-2-1.1-3.6c0-0.8,0.1-1.5,0.2-2c0.2-0.6,0.5-1.1,0.9-1.5C270.5,31.4,271.5,31,272.5,31 M245.8,40.7v-1.2
		c0.2,0,0.4,0.1,0.7,0.1c0.9,0,1.6-0.3,2.2-0.9l0.6,0.9c-0.4,0.4-0.9,0.7-1.5,0.8c-0.5,0.2-1.1,0.3-1.7,0.3H245.8z M245.8,36.1V35
		h2.2c-0.1-0.5-0.1-0.9-0.1-1.3c-0.1-0.3-0.1-0.6-0.3-0.8c-0.2-0.2-0.4-0.4-0.7-0.6c-0.3-0.1-0.7-0.2-1-0.2V31h0.1
		c1.1,0,1.9,0.4,2.5,1c0.2,0.2,0.4,0.4,0.5,0.7c0.1,0.2,0.3,0.5,0.4,0.8c0.1,0.3,0.1,0.7,0.1,1c0.1,0.4,0.1,0.9,0.1,1.5v0.2H245.8z
		 M258.2,37.8c0,0.4-0.1,0.8-0.3,1.2c-0.1,0.4-0.4,0.7-0.7,0.9c-0.4,0.2-0.7,0.4-1.2,0.6c-0.4,0.1-0.9,0.3-1.5,0.3
		c-0.6,0-1.2-0.1-1.7-0.3c-0.7-0.1-1.2-0.4-1.7-0.7l0.6-1.1c0.9,0.6,2,0.9,3,0.9c0.6,0,1-0.1,1.4-0.4c0.3-0.3,0.5-0.7,0.5-1.2
		c0-0.4-0.1-0.8-0.4-1c-0.3-0.2-0.7-0.4-1.2-0.5l-1.2-0.3c-0.8-0.1-1.4-0.4-1.7-0.9c-0.4-0.5-0.7-1-0.7-1.7c0-0.4,0.1-0.8,0.3-1.2
		c0.1-0.4,0.4-0.7,0.7-0.9c0.3-0.3,0.7-0.5,1-0.7c0.4-0.1,0.9-0.1,1.4-0.1c0.5,0,0.9,0,1.4,0.1c0.5,0.1,0.9,0.4,1.4,0.6l-0.5,1.1
		c-0.4-0.2-0.9-0.4-1.2-0.5c-0.4-0.1-0.7-0.2-1.2-0.2c-0.5,0-0.9,0.1-1.2,0.4c-0.4,0.3-0.5,0.7-0.5,1.2c0,0.4,0.1,0.7,0.3,0.9
		c0.2,0.2,0.6,0.4,1.1,0.4l1.2,0.3C257.3,35.5,258.2,36.3,258.2,37.8 M264,40.6h-1.4l-3.3-9.4l1.5-0.3l2.2,6.4
		c0.1,0.3,0.1,0.5,0.2,0.8c0.1,0.2,0.1,0.4,0.1,0.6c0,0.1,0.1,0.2,0.1,0.2s0.1-0.1,0.1-0.4c0.1-0.3,0.1-0.7,0.3-1.1l2.2-6.2h1.5
		L264,40.6z M245.8,31v1.2c-1.3,0-2,0.9-2.1,2.9h2.1v1.1h-2.1v0.2c0,0.4,0,0.8,0.1,1.2c0.1,0.4,0.2,0.7,0.4,0.9
		c0.2,0.4,0.6,0.7,1,0.9c0.2,0.1,0.4,0.1,0.7,0.2v1.2c-1.2-0.1-2-0.5-2.7-1.3c-0.7-0.9-1.1-2-1.1-3.6c0-0.8,0.1-1.5,0.2-2
		c0.2-0.6,0.5-1.1,0.9-1.5C243.8,31.4,244.7,31,245.8,31 M235.4,40.6v-1.2c0.4,0,0.7,0,0.9-0.1c0.2-0.1,0.5-0.3,0.8-0.5
		c0.2-0.1,0.4-0.3,0.4-0.4c0.1-0.1,0.1-0.2,0.1-0.2v-4.9c-0.3-0.4-0.6-0.6-0.9-0.7c-0.3-0.1-0.8-0.2-1.3-0.2h-0.1V31
		c0.4,0,0.9,0.1,1.2,0.3c0.4,0.2,0.8,0.5,1.1,0.9V32v-0.5v-0.7v-3.8l1.5,0.2v10.4c0,0.8,0,1.5,0.1,1.9c0.1,0.5,0.1,0.9,0.2,1.2H238
		c0,0,0-0.1-0.1-0.3c-0.1-0.2-0.1-0.4-0.1-0.7c-0.3,0.4-0.7,0.7-1,0.8C236.4,40.5,235.9,40.6,235.4,40.6 M207.7,36.8
		c0-0.5-0.1-1-0.4-1.5c-0.3-0.4-0.7-0.7-1.2-0.8c-0.1,0-0.4-0.1-0.7-0.1H205v-1.3c0.1,0,0.3,0,0.4-0.1c0.3,0,0.4-0.1,0.7-0.1
		c0.1-0.1,0.3-0.2,0.4-0.4c0.1-0.1,0.2-0.3,0.3-0.5c0.1-0.4,0.2-0.7,0.2-1c0-0.5-0.1-0.9-0.4-1.3c-0.2-0.4-0.6-0.6-1-0.7
		c-0.2,0-0.4-0.1-0.6-0.1v-1.3c0.1,0.1,0.2,0.1,0.4,0.1c0.2,0,0.5,0.1,0.7,0.1c0.2,0.1,0.4,0.1,0.5,0.1c0.7,0.2,1.2,0.6,1.6,1.2
		c0.4,0.5,0.6,1.1,0.6,1.7c0,0.7-0.2,1.2-0.6,1.7c-0.4,0.5-0.9,0.9-1.7,1.1c0.4,0.1,0.7,0.1,0.9,0.3c0.3,0.1,0.5,0.2,0.7,0.4
		c0.4,0.4,0.7,0.7,0.9,1.2c0.2,0.4,0.3,0.9,0.3,1.4c0,0.7-0.2,1.4-0.6,2c-0.3,0.5-0.8,0.9-1.5,1.2c-0.1,0.1-0.4,0.1-0.5,0.2
		c-0.1,0-0.4,0.1-0.6,0.1c-0.2,0.1-0.5,0.1-0.8,0.1c-0.1,0-0.2,0.1-0.4,0.1v-1.3h0.1c0.9,0,1.6-0.1,2-0.6
		C207.5,38.2,207.7,37.6,207.7,36.8 M235.4,31v1.2c-0.7,0-1.3,0.3-1.7,0.9c-0.3,0.4-0.4,0.7-0.5,1.1c-0.1,0.4-0.1,0.9-0.1,1.6
		c0,0.6,0.1,1,0.1,1.5c0.1,0.4,0.1,0.7,0.3,1c0.2,0.4,0.5,0.7,0.8,0.8c0.3,0.1,0.7,0.2,1.1,0.2h0.1v1.2h-0.1c-1.2,0-2.1-0.4-2.8-1.2
		c-0.7-0.8-1-2-1-3.4c0-2,0.7-3.5,2-4.4c0.3-0.2,0.6-0.4,0.9-0.4c0.3-0.1,0.6-0.1,0.9-0.1H235.4z M218.4,40.9
		c-0.3-0.2-0.5-0.5-0.7-0.7c-0.1-0.2-0.3-0.4-0.3-0.8c-0.7,0.9-1.7,1.5-3,1.5c-0.6,0-1.1-0.1-1.5-0.4c-0.4-0.2-0.7-0.6-0.9-0.9
		c-0.1-0.2-0.1-0.4-0.1-0.7c-0.1-0.2-0.1-0.5-0.1-0.7v-6.9l1.4-0.2v6.7c0,0.4,0,0.7,0.1,1c0.1,0.2,0.2,0.4,0.4,0.5
		c0.1,0.1,0.4,0.2,0.6,0.3c0.1,0,0.4,0.1,0.6,0.1c0.4,0,0.9-0.1,1.4-0.5c0.4-0.3,0.7-0.7,1-1.2v-6.6l1.5-0.3v6.8c0,0.6,0,1,0.1,1.3
		c0.1,0.3,0.3,0.5,0.5,0.7L218.4,40.9z M227.2,40.5v-6.3v-0.7c0-0.1,0-0.3-0.1-0.4c0-0.1-0.1-0.2-0.1-0.3c-0.1-0.1-0.1-0.1-0.1-0.3
		c-0.2-0.2-0.6-0.4-1.1-0.4c-0.1,0-0.4,0.1-0.6,0.1c-0.2,0.1-0.5,0.2-0.7,0.3l-0.7,0.4c-0.2,0.1-0.4,0.4-0.6,0.5v7h-1.4v-7.2
		c0-0.7,0-1.2-0.1-1.5l-0.2-0.4L223,31c0,0,0.1,0.1,0.1,0.2c0.1,0.1,0.1,0.3,0.1,0.5c0.1,0.3,0.1,0.5,0.1,0.7
		c0.9-0.9,1.9-1.4,2.9-1.4c0.5,0,0.9,0.1,1.4,0.4c0.4,0.2,0.7,0.6,0.9,0.9c0.2,0.4,0.3,0.7,0.3,1.1v7.1H227.2z M205,34.5
		c-0.1,0-0.3-0.1-0.4-0.1h-2.3v4.8h2.7v1.3h-0.8h-3.3V27.7h1.9h1.5h0.7V29h-0.9h-1.8v4.2h2.3h0.4V34.5z"/>
	<path class="st3" d="M393.1,59.8v-1.3c0.2,0.1,0.4,0.1,0.7,0.1c0.9,0,1.6-0.3,2.2-0.9l0.6,0.9c-0.4,0.4-0.9,0.7-1.5,0.9
		c-0.5,0.1-1.1,0.3-1.7,0.3H393.1z M393.1,55.2v-1.1h2.1c0-0.5,0-0.9-0.1-1.2c-0.1-0.4-0.2-0.7-0.3-0.9c-0.2-0.2-0.4-0.4-0.7-0.6
		c-0.3-0.1-0.7-0.2-1-0.2V50h0.1c1.1,0,1.9,0.4,2.5,1c0.2,0.2,0.4,0.4,0.5,0.7c0.1,0.2,0.3,0.5,0.4,0.8c0.1,0.3,0.1,0.7,0.1,1
		c0.1,0.4,0.1,0.9,0.1,1.4v0.2H393.1z M404.8,59.6v-6.3v-0.6c-0.1-0.2-0.1-0.3-0.1-0.4c-0.1-0.1-0.1-0.2-0.1-0.3
		c0-0.1-0.1-0.1-0.1-0.2c-0.2-0.3-0.6-0.4-1-0.4c-0.2,0-0.4,0.1-0.7,0.1c-0.2,0.1-0.4,0.1-0.7,0.3c-0.2,0.1-0.4,0.2-0.7,0.4
		c-0.2,0.2-0.4,0.4-0.6,0.5v7h-1.4v-7.2c0-0.7-0.1-1.2-0.2-1.5c-0.1-0.4-0.1-0.5-0.1-0.5l1.4-0.4c0,0,0,0.1,0.1,0.1
		c0.1,0.1,0.1,0.4,0.1,0.6c0.1,0.2,0.1,0.4,0.1,0.7c0.9-1,2-1.5,3-1.5c0.5,0,0.9,0.1,1.4,0.4c0.4,0.2,0.7,0.6,0.9,1
		c0.1,0.3,0.2,0.7,0.2,1.1v7H404.8z M393.1,50v1.2c-1.3,0-2,0.9-2.1,2.9h2.1v1.1H391v0.2c0,0.4,0,0.9,0.1,1.2
		c0.1,0.4,0.1,0.7,0.4,0.9c0.2,0.4,0.6,0.7,0.9,0.9c0.3,0.1,0.5,0.2,0.7,0.2v1.3c-1.2-0.1-2-0.5-2.7-1.3c-0.7-0.9-1.1-2.1-1.1-3.6
		c0-0.8,0.1-1.5,0.2-2c0.2-0.5,0.5-1,0.9-1.5C391.2,50.6,392,50.1,393.1,50 M339.6,59.8v-1.3c0.1,0.1,0.4,0.1,0.6,0.1
		c0.9,0,1.7-0.3,2.3-0.9l0.5,0.9c-0.4,0.4-0.9,0.7-1.4,0.9c-0.6,0.1-1.2,0.3-1.7,0.3H339.6z M339.6,55.2v-1.1h2.1
		c0-0.5-0.1-0.9-0.1-1.2c-0.1-0.4-0.1-0.7-0.3-0.9c-0.1-0.2-0.4-0.4-0.7-0.6c-0.4-0.1-0.7-0.2-1-0.2V50h0.1c1,0,1.9,0.4,2.5,1
		c0.1,0.2,0.4,0.4,0.5,0.7s0.2,0.5,0.3,0.8c0.1,0.3,0.1,0.7,0.2,1V55v0.2H339.6z M351.2,59.6v-6.3v-0.6c0-0.2,0-0.3-0.1-0.4
		c0-0.1-0.1-0.2-0.1-0.3c-0.1-0.1-0.1-0.1-0.1-0.2c-0.2-0.3-0.6-0.4-1.1-0.4c-0.1,0-0.4,0.1-0.6,0.1c-0.2,0.1-0.4,0.1-0.7,0.3
		c-0.2,0.1-0.4,0.2-0.7,0.4c-0.2,0.2-0.4,0.4-0.6,0.5v7h-1.4v-7.2c0-0.7,0-1.2-0.1-1.5c-0.1-0.4-0.2-0.5-0.2-0.5l1.5-0.4
		c0,0,0.1,0.1,0.1,0.1c0.1,0.1,0.1,0.4,0.2,0.6c0,0.2,0.1,0.4,0.1,0.7c0.9-1,1.9-1.5,2.9-1.5c0.5,0,1,0.1,1.4,0.4
		c0.4,0.2,0.7,0.6,0.9,1c0.1,0.3,0.2,0.7,0.2,1.1v7H351.2z M359.5,51.4h-2v6c0,0.5,0.1,0.9,0.2,1c0.2,0.2,0.5,0.4,0.9,0.4
		c0.2,0,0.4-0.1,0.5-0.1c0.1,0,0.3-0.1,0.4-0.1l0.2,0.9c-0.5,0.2-1,0.4-1.7,0.4c-0.2,0-0.4,0-0.7-0.1c-0.2,0-0.4-0.1-0.6-0.2
		c-0.3-0.1-0.5-0.4-0.7-0.7c-0.1-0.3-0.2-0.7-0.2-1.2v-6.4h-1.2v-1.1h1.2v-0.8c0-0.2,0.1-0.5,0.1-0.7c0-0.2,0-0.4,0.1-0.6v-0.3
		l1.5-0.3v0.2c0,0.1-0.1,0.4-0.1,0.7c0,0.2-0.1,0.5-0.1,0.9v0.9h2.3L359.5,51.4z M364.1,59.6c-0.1,0.1-0.3,0.1-0.4,0.1h-0.4
		c-0.5,0-0.9-0.1-1.2-0.4c-0.1-0.1-0.2-0.3-0.3-0.5c-0.1-0.2-0.1-0.5-0.1-0.8v-9.9c0-0.7,0-1.1-0.1-1.5c-0.1-0.3-0.1-0.4-0.1-0.4
		l1.5-0.3c0,0,0.1,0.1,0.1,0.6c0.1,0.4,0.1,0.9,0.1,1.6v9.5c0,0.4,0,0.7,0.1,0.7c0.1,0.1,0.2,0.2,0.4,0.2h0.1h0.1L364.1,59.6z
		 M366.5,59.6v-9.3l1.5-0.2v9.5H366.5z M368.4,47.4c0,0.3-0.1,0.6-0.3,0.8c-0.2,0.2-0.5,0.4-0.8,0.4c-0.4,0-0.6-0.1-0.8-0.4
		c-0.2-0.2-0.4-0.4-0.4-0.8c0-0.3,0.1-0.6,0.4-0.8s0.4-0.4,0.8-0.4c0.3,0,0.6,0.1,0.8,0.4S368.4,47.1,368.4,47.4 M377.5,58.6
		c-0.4,0.4-0.9,0.7-1.3,0.9c-0.4,0.1-0.9,0.3-1.5,0.3c-1.4,0-2.3-0.5-3-1.4c-0.4-0.4-0.6-0.9-0.7-1.5c-0.1-0.5-0.2-1.2-0.2-1.8
		c0-1,0.1-1.8,0.4-2.5c0.3-0.6,0.6-1.1,1-1.5c0.7-0.7,1.5-1.1,2.5-1.1c0.7,0,1.1,0.1,1.5,0.3c0.4,0.2,0.7,0.4,1.1,0.7l-0.9,1
		c-0.3-0.3-0.6-0.4-0.8-0.6c-0.3-0.1-0.6-0.1-0.9-0.1c-0.4,0-0.7,0.1-1,0.3c-0.3,0.1-0.6,0.4-0.7,0.7c-0.4,0.7-0.5,1.7-0.5,3
		c0,1.1,0.1,1.9,0.6,2.4c0.4,0.6,0.9,0.9,1.7,0.9c0.8,0,1.4-0.4,2-1L377.5,58.6z M385.1,59.6v-6.4c0-0.3,0-0.6-0.1-0.8
		c-0.1-0.2-0.1-0.4-0.3-0.6c-0.1-0.1-0.2-0.2-0.4-0.2c-0.2-0.1-0.4-0.1-0.7-0.1c-0.4,0-0.9,0.1-1.4,0.4c-0.4,0.3-0.9,0.7-1.3,1.2
		v6.6h-1.5V48.2c0-0.7-0.1-1.1-0.1-1.4c-0.1-0.3-0.1-0.4-0.1-0.4l1.5-0.3c0,0,0,0.1,0.1,0.6c0.1,0.4,0.1,0.9,0.1,1.6v2.2v0.9
		c-0.1,0.3-0.1,0.4-0.1,0.4c0.4-0.4,0.9-0.7,1.5-1c0.5-0.3,1.1-0.4,1.7-0.4c0.6,0,1.1,0.1,1.5,0.4c0.4,0.3,0.7,0.6,0.9,1
		c0.1,0.2,0.1,0.4,0.1,0.6v0.8v6.7H385.1z M339.6,50v1.2c-1.4,0-2.1,0.9-2.2,2.9h2.2v1.1h-2.2v0.2c0,0.4,0.1,0.9,0.1,1.2
		c0,0.4,0.1,0.7,0.3,0.9c0.3,0.4,0.6,0.7,1,0.9c0.2,0.1,0.4,0.2,0.7,0.2v1.3c-1.2-0.1-2.1-0.5-2.8-1.3c-0.7-0.9-1.1-2.1-1.1-3.6
		c0-0.8,0.1-1.5,0.3-2c0.1-0.5,0.4-1,0.9-1.5C337.6,50.6,338.5,50.1,339.6,50 M330.1,51.4v-1.1h0.9v-1.5c0-0.4,0-0.7,0.1-0.9
		c0.1-0.2,0.1-0.4,0.3-0.7c0.1-0.1,0.2-0.3,0.3-0.4c0.1-0.1,0.2-0.2,0.4-0.3c0.4-0.3,0.9-0.5,1.6-0.5c0.9,0,1.5,0.2,2.1,0.6l-0.6,1
		c-0.1-0.1-0.4-0.2-0.6-0.3c-0.3-0.1-0.5-0.1-0.8-0.1c-0.8,0-1.2,0.6-1.2,1.7v1.5h2.5l-0.4,1.1h-2.1v8.2H331v-8.2H330.1z
		 M330.1,46.8l0.1-0.1l-0.1-0.1V46.8z M330.1,46.6v0.2l-0.4,0.9c-0.2-0.1-0.4-0.2-0.7-0.3c-0.2-0.1-0.5-0.1-0.7-0.1
		c-0.9,0-1.3,0.6-1.3,1.7v1.5h2.6l-0.4,1.1H327v8.2h-1.5v-8.2h-0.9v-1.1h0.9v-1.5c0-0.4,0.1-0.7,0.1-0.9c0.1-0.2,0.1-0.4,0.2-0.7
		c0.1-0.1,0.2-0.3,0.4-0.4l0.3-0.3c0.4-0.3,1-0.5,1.7-0.5C329,46.1,329.6,46.3,330.1,46.6 M330.1,50.3L330.1,50.3l-0.1,1.1h0.1V50.3
		z M317.5,59.8v-1.2h0.1c0.5,0,1-0.1,1.4-0.3c0.4-0.1,0.7-0.4,1-0.8l0.4-0.7c0.1-0.2,0.2-0.5,0.3-0.9c0.1-0.3,0.1-0.7,0.1-1
		c0.1-0.4,0.1-0.9,0.1-1.4c0-1-0.1-1.8-0.1-2.5c-0.1-0.7-0.3-1.2-0.5-1.7c-0.2-0.4-0.5-0.9-1-1.2c-0.4-0.3-1-0.5-1.8-0.5v-1.2
		c0.6,0,1.1,0.1,1.5,0.2c0.4,0.1,0.9,0.3,1.2,0.5l0.9,0.7c0.2,0.3,0.4,0.5,0.6,0.7c0.4,0.6,0.7,1.3,0.9,2c0.1,0.8,0.3,1.7,0.3,2.7
		c0,1.2-0.1,2.3-0.5,3.1c-0.3,0.8-0.7,1.5-1.4,2.1c-0.5,0.4-0.9,0.8-1.5,0.9C318.8,59.8,318.2,59.8,317.5,59.8L317.5,59.8z
		 M320.4,45c0,0.3-0.1,0.5-0.3,0.7c-0.2,0.2-0.4,0.3-0.7,0.3c-0.3,0-0.5-0.1-0.7-0.3c-0.2-0.1-0.3-0.4-0.3-0.7
		c0-0.3,0.1-0.5,0.3-0.7c0.1-0.2,0.4-0.3,0.7-0.3c0.3,0,0.5,0.1,0.7,0.3C320.3,44.5,320.4,44.7,320.4,45 M317.5,46.6v1.2
		c-0.6,0-1.2,0.1-1.7,0.4c-0.4,0.2-0.8,0.6-1.1,1.1c-0.2,0.4-0.4,0.9-0.5,1.4c-0.1,0.6-0.1,1.2-0.1,2c0,1,0.1,1.9,0.2,2.7
		c0.1,0.8,0.4,1.4,0.6,1.8c0.1,0.2,0.3,0.4,0.5,0.6l0.7,0.4c0.3,0.1,0.5,0.2,0.8,0.3c0.2,0,0.4,0.1,0.7,0.1v1.2
		c-0.7,0-1.5-0.1-2-0.4c-0.6-0.3-1.1-0.7-1.5-1.2c-1-1.2-1.5-2.9-1.5-5.1c0-1,0.1-2,0.4-2.8c0.2-0.8,0.5-1.5,0.9-2
		c0.4-0.6,1-1,1.7-1.4C316,46.7,316.7,46.6,317.5,46.6 M293.9,59.8v-1.3c0.2,0.1,0.4,0.1,0.6,0.1c0.9,0,1.7-0.3,2.3-0.9l0.6,0.9
		c-0.4,0.4-0.9,0.7-1.5,0.9c-0.6,0.1-1.1,0.3-1.7,0.3H293.9z M293.9,55.2v-1.1h2.1c0-0.5,0-0.9-0.1-1.2c-0.1-0.4-0.2-0.7-0.4-0.9
		c-0.1-0.2-0.4-0.4-0.7-0.6c-0.3-0.1-0.7-0.2-1-0.2V50h0.1c1.1,0,1.9,0.4,2.5,1c0.2,0.2,0.4,0.4,0.5,0.7s0.2,0.5,0.3,0.8
		c0.1,0.3,0.1,0.7,0.2,1c0,0.4,0.1,0.9,0.1,1.4v0.2H293.9z M306.3,56.9c0,0.4-0.1,0.9-0.3,1.2c-0.1,0.4-0.4,0.7-0.7,0.9
		c-0.3,0.3-0.7,0.5-1.1,0.7c-0.4,0.1-0.9,0.2-1.5,0.2c-0.6,0-1.2-0.1-1.8-0.3c-0.6-0.1-1.1-0.4-1.6-0.7l0.6-1.1c0.9,0.6,2,0.9,3,0.9
		c0.5,0,1-0.1,1.4-0.4c0.3-0.3,0.5-0.7,0.5-1.2c0-0.4-0.1-0.8-0.4-1c-0.3-0.2-0.7-0.4-1.2-0.5l-1.1-0.3c-0.8-0.1-1.4-0.4-1.8-0.9
		c-0.4-0.4-0.6-1-0.6-1.7c0-0.4,0.1-0.8,0.2-1.2c0.2-0.4,0.4-0.7,0.7-0.9c0.3-0.3,0.7-0.4,1-0.6c0.4-0.1,0.9-0.2,1.4-0.2
		c0.4,0,0.9,0.1,1.5,0.2c0.5,0.1,0.9,0.3,1.4,0.5l-0.6,1.1c-0.4-0.2-0.8-0.4-1.2-0.5c-0.4-0.1-0.7-0.1-1.2-0.1
		c-0.5,0-0.9,0.1-1.3,0.4c-0.3,0.2-0.4,0.7-0.4,1.1c0,0.4,0.1,0.7,0.3,0.9c0.2,0.2,0.6,0.4,1,0.4l1.2,0.3
		C305.4,54.6,306.3,55.5,306.3,56.9 M316.6,45c0,0.3-0.1,0.5-0.3,0.7c-0.2,0.2-0.4,0.3-0.7,0.3c-0.2,0-0.4-0.1-0.7-0.3
		c-0.2-0.1-0.3-0.4-0.3-0.7c0-0.3,0.1-0.5,0.3-0.7c0.2-0.2,0.4-0.3,0.7-0.3c0.3,0,0.5,0.1,0.7,0.3C316.4,44.5,316.6,44.7,316.6,45
		 M293.9,50v1.2c-1.4,0-2,0.9-2.1,2.9h2.1v1.1h-2.1v0.2c0,0.4,0,0.9,0.1,1.2c0.1,0.4,0.1,0.7,0.4,0.9c0.2,0.4,0.6,0.7,0.9,0.9
		c0.2,0.1,0.5,0.2,0.7,0.2v1.3c-1.2-0.1-2-0.5-2.7-1.3c-0.8-0.9-1.2-2.1-1.2-3.6c0-0.8,0.1-1.5,0.3-2c0.1-0.5,0.4-1,0.9-1.5
		C291.9,50.6,292.8,50.1,293.9,50 M283.5,59.8v-1.2c0.4,0,0.7-0.1,0.9-0.1c0.3-0.1,0.6-0.3,0.9-0.5c0.2-0.1,0.3-0.2,0.4-0.4
		c0.1-0.1,0.1-0.2,0.1-0.2v-4.9c-0.2-0.3-0.5-0.6-0.9-0.7c-0.4-0.1-0.8-0.2-1.4-0.2v-1.2c0.4,0.1,0.9,0.1,1.2,0.4
		c0.4,0.1,0.8,0.4,1.1,0.9v-0.3v-0.5v-0.7V46l1.5,0.2v10.4c0,0.9,0,1.5,0.1,2c0,0.4,0.1,0.8,0.2,1.1H286c0,0,0-0.1-0.1-0.3
		c-0.1-0.2-0.1-0.4-0.1-0.7c-0.3,0.4-0.7,0.7-1.1,0.8C284.4,59.6,284,59.8,283.5,59.8 M283.5,50.1v1.2c-0.7,0-1.3,0.3-1.7,0.9
		c-0.2,0.4-0.4,0.7-0.4,1.2c-0.1,0.4-0.1,0.9-0.1,1.5c0,0.6,0,1,0.1,1.5c0.1,0.4,0.1,0.7,0.3,1c0.2,0.4,0.5,0.7,0.8,0.8
		c0.3,0.2,0.7,0.3,1.1,0.3h0.1v1.2h-0.1c-1.2,0-2.1-0.4-2.8-1.2c-0.7-0.9-1-2-1-3.5c0-2,0.7-3.4,2-4.4c0.3-0.2,0.6-0.4,0.8-0.4
		c0.3-0.1,0.7-0.1,0.9-0.1H283.5z M269.6,59.8v-1.3c0.1,0.1,0.4,0.1,0.6,0.1c0.9,0,1.7-0.3,2.3-0.9l0.5,0.9
		c-0.4,0.4-0.9,0.7-1.4,0.9c-0.6,0.1-1.2,0.3-1.7,0.3H269.6z M269.6,55.2v-1.1h2.1c0-0.5-0.1-0.9-0.1-1.2c-0.1-0.4-0.1-0.7-0.3-0.9
		c-0.1-0.2-0.4-0.4-0.7-0.6c-0.3-0.1-0.7-0.2-1-0.2V50h0.1c1,0,1.9,0.4,2.5,1c0.2,0.2,0.4,0.4,0.5,0.7c0.1,0.2,0.2,0.5,0.3,0.8
		c0.1,0.3,0.1,0.7,0.2,1V55v0.2H269.6z M269.6,50v1.2c-1.4,0-2.1,0.9-2.2,2.9h2.2v1.1h-2.2v0.2c0,0.4,0.1,0.9,0.1,1.2
		c0.1,0.4,0.1,0.7,0.3,0.9c0.3,0.4,0.6,0.7,1,0.9c0.2,0.1,0.4,0.2,0.7,0.2v1.3c-1.2-0.1-2.1-0.5-2.8-1.3c-0.7-0.9-1.1-2.1-1.1-3.6
		c0-0.8,0.1-1.5,0.3-2c0.1-0.5,0.4-1,0.9-1.5C267.6,50.6,268.5,50.1,269.6,50 M239.4,55.7v-1.3h2l-2-6.2l-0.1,0.1v-1.5h1.1l4.3,12.8
		H243l-1.2-3.9H239.4z M242.4,45c0,0.3-0.1,0.5-0.3,0.7c-0.2,0.2-0.4,0.3-0.7,0.3c-0.3,0-0.5-0.1-0.7-0.3c-0.2-0.1-0.3-0.4-0.3-0.7
		c0-0.3,0.1-0.5,0.3-0.7c0.1-0.2,0.4-0.3,0.7-0.3c0.3,0,0.5,0.1,0.7,0.3C242.3,44.5,242.4,44.7,242.4,45 M250.4,51.7
		c-0.1-0.1-0.3-0.1-0.4-0.1c-0.6,0-1.1,0.2-1.5,0.7c-0.2,0.2-0.4,0.4-0.4,0.7c-0.1,0.1-0.1,0.4-0.1,0.9v5.8h-1.4v-7.2
		c0-0.7-0.1-1.2-0.1-1.5c-0.1-0.3-0.1-0.4-0.1-0.4l1.5-0.4c0,0,0.1,0.1,0.1,0.2c0.1,0.1,0.1,0.4,0.1,0.6c0.1,0.2,0.1,0.5,0.1,0.7
		c0.4-0.4,0.7-0.9,1.2-1.1c0.4-0.3,0.9-0.4,1.4-0.4h0.4c0.1,0.1,0.1,0.1,0.1,0.1L250.4,51.7z M257.7,59.6h-6.2v-1.2l5.1-7h-4.6v-1.2
		h6.2v1.2l-4.8,7h5.1L257.7,59.6z M264,51.4h-2v6c0,0.5,0.1,0.9,0.3,1c0.1,0.2,0.4,0.4,0.9,0.4c0.2,0,0.4-0.1,0.5-0.1
		c0.1,0,0.2-0.1,0.4-0.1l0.2,0.9c-0.4,0.2-1,0.4-1.7,0.4c-0.2,0-0.4,0-0.7-0.1c-0.1,0-0.4-0.1-0.5-0.2c-0.4-0.1-0.6-0.4-0.7-0.7
		c-0.1-0.3-0.2-0.7-0.2-1.2v-6.4h-1.2v-1.1h1.2c0-0.2,0-0.5,0.1-0.8v-0.7c0.1-0.2,0.1-0.4,0.1-0.6v-0.3l1.6-0.3c0,0-0.1,0.1-0.1,0.2
		c0,0.1,0,0.4-0.1,0.7c0,0.2,0,0.5-0.1,0.9v0.9h2.3L264,51.4z M239.4,46.8v1.5l-2,6.2h2v1.3H237l-1.2,3.9h-1.5l4.3-12.8H239.4z
		 M224.3,59.8v-1.2c0.4,0,0.7-0.1,0.9-0.1c0.2-0.1,0.5-0.3,0.8-0.5c0.2-0.1,0.4-0.2,0.4-0.4c0.1-0.1,0.1-0.2,0.1-0.2v-4.9
		c-0.3-0.3-0.6-0.6-0.9-0.7c-0.4-0.1-0.9-0.2-1.4-0.2h-0.1v-1.2c0.4,0.1,0.9,0.1,1.2,0.4c0.4,0.1,0.8,0.4,1.1,0.9v-0.3v-0.5v-0.7V46
		l1.4,0.2v10.4c0,0.9,0,1.5,0.1,2c0.1,0.4,0.1,0.8,0.2,1.1h-1.5c0,0,0-0.1-0.1-0.3c-0.1-0.2-0.1-0.4-0.1-0.7
		c-0.4,0.4-0.7,0.7-1.1,0.8C225.3,59.6,224.9,59.8,224.3,59.8 M238.6,45c0,0.3-0.1,0.5-0.3,0.7c-0.2,0.2-0.4,0.3-0.7,0.3
		c-0.2,0-0.5-0.1-0.7-0.3c-0.2-0.1-0.3-0.4-0.3-0.7c0-0.3,0.1-0.5,0.3-0.7c0.1-0.2,0.4-0.3,0.7-0.3c0.3,0,0.5,0.1,0.7,0.3
		C238.4,44.5,238.6,44.7,238.6,45 M224.3,50.1v1.2c-0.7,0-1.3,0.3-1.7,0.9c-0.2,0.4-0.4,0.7-0.5,1.2c-0.1,0.4-0.1,0.9-0.1,1.5
		c0,0.6,0.1,1,0.1,1.5c0.1,0.4,0.1,0.7,0.4,1c0.1,0.4,0.4,0.7,0.7,0.8c0.3,0.2,0.7,0.3,1.1,0.3h0.1v1.2h-0.1c-1.2,0-2.2-0.4-2.8-1.2
		c-0.7-0.9-1-2-1-3.5c0-2,0.7-3.4,2-4.4c0.3-0.2,0.6-0.4,0.9-0.4c0.3-0.1,0.6-0.1,0.9-0.1H224.3z M215.8,78.9v-1.2h0.6
		c0.9,0,1.7-0.3,2.3-0.9l0.6,0.9c-0.4,0.4-0.9,0.7-1.4,0.9c-0.6,0.2-1.2,0.3-1.7,0.3H215.8z M215.8,74.3v-1.1h2.1
		c0-0.5-0.1-0.9-0.1-1.2c-0.1-0.4-0.2-0.6-0.4-0.8c-0.1-0.3-0.4-0.5-0.7-0.7c-0.3-0.1-0.7-0.2-1-0.2v-1.1h0.1c1,0,1.9,0.3,2.5,0.9
		c0.2,0.2,0.4,0.4,0.5,0.7c0.1,0.2,0.2,0.4,0.3,0.7c0.1,0.3,0.1,0.7,0.2,1.1c0,0.4,0.1,0.9,0.1,1.5v0.1H215.8z M215.8,51.7v-1.5
		c0.3,0.1,0.5,0.1,0.7,0.3c0.4,0.2,0.7,0.6,0.9,1c0.1,0.3,0.2,0.7,0.2,1.1v7h-1.5v-6.3v-0.6c0-0.2,0-0.3-0.1-0.4
		c0-0.1-0.1-0.2-0.1-0.3C215.9,51.9,215.9,51.9,215.8,51.7L215.8,51.7z M207.4,60c-0.3-0.2-0.5-0.4-0.7-0.7
		c-0.1-0.2-0.3-0.5-0.3-0.8c-0.7,0.9-1.7,1.4-3,1.4c-0.6,0-1.1-0.1-1.5-0.4c-0.4-0.2-0.7-0.5-0.9-0.9c-0.1-0.1-0.1-0.4-0.1-0.6
		c-0.1-0.3-0.1-0.5-0.1-0.8v-6.8l1.4-0.3v6.7c0,0.4,0,0.8,0.1,1c0.1,0.2,0.2,0.4,0.4,0.6c0.1,0.1,0.4,0.1,0.6,0.2
		c0.1,0.1,0.4,0.1,0.6,0.1c0.4,0,0.9-0.1,1.4-0.4c0.4-0.3,0.7-0.7,1-1.2v-6.6l1.5-0.2v6.7c0,0.6,0,1,0.1,1.3
		c0.1,0.3,0.2,0.6,0.4,0.8L207.4,60z M215.8,50.2v1.5c-0.2-0.2-0.6-0.4-1-0.4c-0.1,0-0.4,0.1-0.6,0.1c-0.2,0.1-0.4,0.1-0.7,0.3
		c-0.2,0.1-0.4,0.2-0.7,0.4c-0.2,0.2-0.4,0.4-0.6,0.5v7h-1.5v-7.2c0-0.7,0-1.2-0.1-1.5c-0.1-0.4-0.2-0.5-0.2-0.5l1.5-0.4
		c0,0,0.1,0.1,0.1,0.1c0.1,0.1,0.1,0.4,0.2,0.6c0,0.2,0.1,0.4,0.1,0.7c0.9-1,1.9-1.5,2.9-1.5C215.4,50.1,215.6,50.1,215.8,50.2
		 M215.8,69.2v1.1c-1.4,0-2,1-2.1,2.9h2.1v1.1h-2.1v0.2c0,0.5,0,0.9,0.1,1.2c0.1,0.4,0.1,0.7,0.3,0.9c0.3,0.4,0.7,0.7,1,0.9
		c0.2,0.1,0.5,0.1,0.7,0.2v1.2c-1.2-0.1-2-0.5-2.8-1.3c-0.7-0.9-1.1-2.1-1.1-3.6c0-0.8,0.1-1.5,0.3-2c0.1-0.5,0.4-1,0.9-1.5
		C213.8,69.6,214.7,69.2,215.8,69.2 M209.4,78c-0.4,0.3-1,0.5-1.7,0.7c-0.6,0.2-1.2,0.3-1.9,0.3c-1.7,0-3-0.5-4-1.6
		c-0.5-0.6-0.9-1.3-1.2-2.1c-0.3-0.8-0.4-1.7-0.4-2.9c0-1.2,0.2-2.3,0.5-3.1c0.4-0.9,0.8-1.7,1.5-2.2c0.9-0.8,2-1.2,3.3-1.2
		c1.3,0,2.5,0.4,3.5,1.3l-0.7,0.9c-0.6-0.4-1-0.6-1.4-0.7c-0.4-0.2-0.9-0.3-1.4-0.3c-0.7,0-1.4,0.2-2,0.6c-0.5,0.3-0.9,0.9-1.2,1.6
		c-0.3,1-0.5,2-0.5,3.3c0,0.9,0.1,1.6,0.3,2.2c0.1,0.7,0.4,1.2,0.7,1.7c0.1,0.2,0.3,0.4,0.5,0.6c0.2,0.1,0.5,0.3,0.8,0.4
		c0.2,0.1,0.5,0.2,0.9,0.3c0.3,0.1,0.6,0.1,0.9,0.1c0.9,0,1.5-0.1,2-0.4v-3.9h-2.5l-0.3-1.3h4.3V78z"/>
	<path class="st3" d="M393.7,78.3V77c0.1-0.1,0.1-0.1,0.1-0.2c0.3-0.3,0.6-0.4,0.9-0.4c0.4,0,0.7,0.1,0.9,0.4
		c0.2,0.2,0.4,0.5,0.4,0.9c0,0.4-0.1,0.7-0.4,0.9c-0.2,0.3-0.5,0.4-0.9,0.4c-0.4,0-0.7-0.1-0.9-0.4
		C393.9,78.5,393.8,78.4,393.7,78.3 M393.7,66.4v-0.5h0.2L393.7,66.4z M393.7,65.9v0.5l-4.2,12.3H388l-4.1-12.3v-0.5h1.5l2.7,8.2
		c0.1,0.3,0.1,0.6,0.3,0.9l0.2,0.9c0.1,0.3,0.1,0.5,0.1,0.7c0.1,0.2,0.1,0.4,0.1,0.4c0.1-0.1,0.1-0.5,0.3-0.9c0.1-0.4,0.3-1,0.5-1.7
		l2.8-8.4H393.7z M393.7,77c-0.1,0.1-0.1,0.4-0.1,0.7c0,0.2,0,0.5,0.1,0.7V77z M383.8,78.3c0.1-0.2,0.2-0.4,0.2-0.7
		c0-0.3-0.1-0.5-0.2-0.7V78.3z M383.8,65.9v0.5l-0.1-0.5H383.8z M383.8,77v1.3c0,0.1-0.1,0.1-0.1,0.2c-0.2,0.3-0.5,0.4-0.9,0.4
		c-0.4,0-0.7-0.1-0.9-0.4c-0.3-0.2-0.4-0.5-0.4-0.9c0-0.4,0.1-0.7,0.4-0.9c0.3-0.3,0.6-0.4,0.9-0.4c0.4,0,0.7,0.1,0.9,0.4
		C383.8,76.9,383.8,76.9,383.8,77 M375.7,78.9v-1.2h0.6c0.9,0,1.7-0.3,2.3-0.9l0.5,0.9c-0.4,0.4-0.9,0.7-1.4,0.9
		c-0.6,0.2-1.2,0.3-1.7,0.3H375.7z M375.7,74.3v-1.1h2.1c0-0.5-0.1-0.9-0.1-1.2c-0.1-0.4-0.2-0.6-0.4-0.8c-0.1-0.3-0.4-0.5-0.7-0.7
		c-0.3-0.1-0.7-0.2-1-0.2v-1.1h0.1c1,0,1.9,0.3,2.5,0.9c0.2,0.2,0.4,0.4,0.5,0.7c0.1,0.2,0.2,0.4,0.3,0.7c0.1,0.3,0.1,0.7,0.2,1.1
		c0,0.4,0.1,0.9,0.1,1.4v0.1H375.7z M375.7,69.2v1.1c-1.4,0-2,1-2.2,2.9h2.2v1.1h-2.2v0.2c0,0.5,0.1,0.9,0.1,1.2
		c0.1,0.4,0.1,0.7,0.3,0.9c0.3,0.4,0.7,0.7,1,0.9c0.2,0.1,0.4,0.1,0.7,0.2v1.2c-1.2-0.1-2-0.5-2.8-1.3c-0.7-0.9-1.1-2.1-1.1-3.6
		c0-0.8,0.1-1.5,0.3-2c0.1-0.5,0.4-1,0.9-1.5C373.7,69.6,374.6,69.2,375.7,69.2 M353.3,78.9v-1.2h0.6c0.9,0,1.7-0.3,2.3-0.9l0.5,0.9
		c-0.4,0.4-0.9,0.7-1.4,0.9c-0.6,0.2-1.2,0.3-1.7,0.3H353.3z M353.3,74.3v-1.1h2.1c0-0.5-0.1-0.9-0.1-1.2c-0.1-0.4-0.1-0.6-0.3-0.8
		c-0.1-0.3-0.4-0.5-0.7-0.7c-0.4-0.1-0.7-0.2-1-0.2v-1.1h0.1c1,0,1.9,0.3,2.5,0.9c0.1,0.2,0.4,0.4,0.5,0.7c0.1,0.2,0.2,0.4,0.3,0.7
		c0.1,0.3,0.1,0.7,0.2,1.1v1.4v0.1H353.3z M365.7,75.9c0,0.4-0.1,0.9-0.2,1.2c-0.1,0.4-0.4,0.7-0.7,0.9c-0.3,0.3-0.7,0.5-1.1,0.7
		c-0.4,0.1-0.9,0.2-1.5,0.2c-0.6,0-1.2-0.1-1.8-0.2c-0.6-0.2-1.2-0.4-1.6-0.7l0.6-1.1c0.9,0.6,1.9,0.9,2.9,0.9c0.6,0,1-0.1,1.4-0.4
		c0.4-0.3,0.5-0.7,0.5-1.2c0-0.4-0.1-0.7-0.4-1c-0.2-0.2-0.7-0.4-1.2-0.5l-1.2-0.2c-0.7-0.2-1.4-0.5-1.7-0.9c-0.4-0.4-0.6-1-0.6-1.7
		c0-0.4,0.1-0.8,0.2-1.2c0.1-0.3,0.4-0.6,0.7-0.9c0.3-0.2,0.7-0.4,1.1-0.6c0.4-0.1,0.9-0.2,1.3-0.2c0.5,0,1,0.1,1.5,0.2
		c0.5,0.1,0.9,0.3,1.3,0.5l-0.5,1.1c-0.4-0.1-0.8-0.4-1.2-0.4c-0.4-0.1-0.8-0.2-1.2-0.2c-0.6,0-0.9,0.1-1.3,0.4
		c-0.3,0.3-0.4,0.7-0.4,1.1c0,0.4,0.1,0.7,0.3,0.9c0.1,0.2,0.5,0.4,1,0.5l1.2,0.2C364.9,73.7,365.7,74.5,365.7,75.9 M353.3,69.2v1.1
		c-1.4,0-2.1,1-2.2,2.9h2.2v1.1h-2.2v0.2c0,0.5,0.1,0.9,0.1,1.2c0,0.4,0.1,0.7,0.3,0.9c0.3,0.4,0.6,0.7,1,0.9
		c0.2,0.1,0.4,0.1,0.7,0.2v1.2c-1.2-0.1-2.1-0.5-2.8-1.3c-0.7-0.9-1.1-2.1-1.1-3.6c0-0.8,0.1-1.5,0.3-2c0.1-0.5,0.4-1,0.9-1.5
		C351.3,69.6,352.2,69.2,353.3,69.2 M319.3,78.9v-1.2h0.7c0.9,0,1.7-0.3,2.2-0.9l0.6,0.9c-0.4,0.4-0.9,0.7-1.5,0.9
		c-0.5,0.2-1.1,0.3-1.7,0.3H319.3z M319.3,74.3v-1.1h2.2c0-0.5-0.1-0.9-0.1-1.2c-0.1-0.4-0.1-0.6-0.3-0.8c-0.1-0.3-0.4-0.5-0.7-0.7
		c-0.3-0.1-0.6-0.2-0.9-0.2h-0.1v-1.1h0.1c1,0,1.9,0.3,2.5,0.9c0.1,0.2,0.4,0.4,0.4,0.7c0.1,0.2,0.3,0.4,0.4,0.7
		c0.1,0.3,0.1,0.7,0.1,1.1c0.1,0.4,0.1,0.9,0.1,1.4v0.1H319.3z M331,78.7v-6.3v-0.6c0-0.1-0.1-0.3-0.1-0.4c0-0.1-0.1-0.2-0.1-0.3
		c-0.1-0.1-0.1-0.1-0.1-0.2c-0.3-0.3-0.6-0.4-1.1-0.4c-0.1,0-0.4,0-0.6,0.1c-0.2,0.1-0.5,0.1-0.7,0.3c-0.2,0.1-0.4,0.2-0.7,0.4
		c-0.2,0.1-0.4,0.3-0.6,0.5v6.9h-1.5v-7.2c0-0.7-0.1-1.2-0.1-1.4c-0.1-0.4-0.2-0.5-0.2-0.5l1.5-0.4c0,0,0.1,0.1,0.1,0.2
		c0.1,0.1,0.1,0.3,0.1,0.5c0.1,0.2,0.1,0.5,0.1,0.7c0.9-0.9,1.9-1.4,2.9-1.4c0.5,0,0.9,0.1,1.4,0.4c0.4,0.3,0.7,0.6,0.9,1
		c0.1,0.4,0.3,0.7,0.3,1.1v7H331z M341.9,75.9c0,0.4-0.1,0.9-0.3,1.2c-0.1,0.4-0.4,0.7-0.7,0.9c-0.3,0.3-0.7,0.5-1.1,0.7
		c-0.4,0.1-0.9,0.2-1.5,0.2c-0.6,0-1.2-0.1-1.8-0.2c-0.6-0.2-1.1-0.4-1.6-0.7l0.6-1.1c0.9,0.6,1.9,0.9,2.9,0.9
		c0.6,0,1.1-0.1,1.4-0.4c0.4-0.3,0.5-0.7,0.5-1.2c0-0.4-0.1-0.7-0.4-1c-0.2-0.2-0.6-0.4-1.2-0.5l-1.2-0.2c-0.7-0.2-1.3-0.5-1.7-0.9
		c-0.4-0.4-0.6-1-0.6-1.7c0-0.4,0.1-0.8,0.2-1.2c0.1-0.3,0.4-0.6,0.7-0.9c0.3-0.2,0.6-0.4,1-0.6c0.4-0.1,0.9-0.2,1.3-0.2
		c0.5,0,1,0.1,1.5,0.2s0.9,0.3,1.4,0.5l-0.6,1.1c-0.4-0.1-0.8-0.4-1.2-0.4c-0.4-0.1-0.7-0.2-1.2-0.2c-0.5,0-0.9,0.1-1.3,0.4
		c-0.3,0.3-0.4,0.7-0.4,1.1c0,0.4,0.1,0.7,0.3,0.9c0.2,0.2,0.5,0.4,1,0.5l1.2,0.2C341,73.7,341.9,74.5,341.9,75.9 M347.7,70.5h-2v6
		c0,0.5,0.1,0.9,0.3,1.1c0.1,0.1,0.4,0.3,0.9,0.3c0.2,0,0.4,0,0.5-0.1c0.1,0,0.2-0.1,0.4-0.1l0.2,0.9c-0.4,0.3-1,0.4-1.7,0.4
		c-0.2,0-0.4,0-0.7-0.1c-0.1,0-0.4-0.1-0.5-0.1c-0.4-0.2-0.6-0.4-0.7-0.7c-0.1-0.3-0.2-0.7-0.2-1.2v-6.4h-1.2v-1.1h1.2
		c0-0.2,0-0.5,0.1-0.7v-0.8c0-0.2,0.1-0.4,0.1-0.6V67l1.5-0.3v0.2c0,0.1,0,0.4-0.1,0.7c0,0.3,0,0.6-0.1,0.9v0.9h2.3L347.7,70.5z
		 M319.3,69.2v1.1c-1.3,0-2,1-2.1,2.9h2.1v1.1h-2.1v0.2c0,0.5,0.1,0.9,0.1,1.2c0.1,0.4,0.2,0.7,0.4,0.9c0.3,0.4,0.6,0.7,1,0.9
		l0.7,0.2v1.2c-1.1-0.1-2-0.5-2.7-1.3c-0.7-0.9-1.1-2.1-1.1-3.6c0-0.8,0.1-1.5,0.3-2c0.1-0.5,0.4-1,0.8-1.5
		C317.4,69.6,318.3,69.2,319.3,69.2 M304.1,78.8v-1.2c0.4,0,0.7-0.1,0.9-0.1c0.2-0.1,0.5-0.2,0.8-0.4c0.2-0.1,0.4-0.3,0.4-0.4
		l0.1-0.3v-4.9c-0.2-0.3-0.6-0.5-0.9-0.7c-0.4-0.1-0.9-0.2-1.4-0.2h-0.1v-1.2c0.4,0,0.9,0.1,1.2,0.3c0.4,0.2,0.8,0.5,1.1,0.9v-0.2
		v-0.6V69V65l1.5,0.3v10.4c0,0.8,0,1.5,0.1,1.9c0.1,0.4,0.1,0.8,0.2,1.1h-1.5c0,0,0-0.1-0.1-0.3c-0.1-0.1-0.1-0.4-0.1-0.7
		c-0.4,0.4-0.7,0.7-1.1,0.9C305,78.8,304.6,78.8,304.1,78.8 M311.2,78.7v-9.3l1.5-0.2v9.5H311.2z M313.2,66.5c0,0.4-0.1,0.6-0.4,0.8
		c-0.2,0.2-0.4,0.4-0.8,0.4c-0.3,0-0.6-0.1-0.8-0.4c-0.2-0.2-0.3-0.4-0.3-0.7c0-0.4,0.1-0.7,0.3-0.9c0.2-0.2,0.5-0.3,0.8-0.3
		c0.4,0,0.6,0.1,0.8,0.3C313,65.9,313.2,66.2,313.2,66.5 M304.1,69.3v1.2c-0.7,0-1.3,0.4-1.7,0.9c-0.2,0.4-0.4,0.8-0.5,1.2
		c-0.1,0.4-0.1,0.9-0.1,1.6c0,0.5,0.1,1,0.1,1.4c0.1,0.4,0.2,0.7,0.4,1c0.2,0.4,0.4,0.7,0.7,0.9c0.3,0.1,0.7,0.2,1.1,0.2h0.1v1.2
		H304c-1.2,0-2.2-0.4-2.8-1.2c-0.7-0.8-1-2-1-3.5c0-2,0.7-3.4,2-4.3c0.3-0.2,0.6-0.4,0.9-0.5c0.3-0.1,0.6-0.1,0.9-0.1H304.1z
		 M275,78.9v-1.2h0.6c0.9,0,1.7-0.3,2.3-0.9l0.6,0.9c-0.4,0.4-0.9,0.7-1.4,0.9c-0.6,0.2-1.1,0.3-1.7,0.3H275z M275,74.3v-1.1h2.1
		c0-0.5,0-0.9-0.1-1.2c-0.1-0.4-0.2-0.6-0.4-0.8c-0.1-0.3-0.4-0.5-0.7-0.7c-0.3-0.1-0.7-0.2-1-0.2v-1.1h0.1c1,0,1.9,0.3,2.5,0.9
		c0.2,0.2,0.4,0.4,0.5,0.7c0.1,0.2,0.2,0.4,0.3,0.7c0.1,0.3,0.1,0.7,0.2,1.1c0,0.4,0.1,0.9,0.1,1.4v0.1H275z M281.3,78.7v-9.3
		l1.5-0.2v9.5H281.3z M283.2,66.5c0,0.4-0.1,0.6-0.3,0.8c-0.2,0.2-0.5,0.4-0.8,0.4c-0.4,0-0.7-0.1-0.9-0.4c-0.2-0.2-0.3-0.4-0.3-0.7
		c0-0.4,0.1-0.7,0.3-0.9c0.2-0.2,0.5-0.3,0.9-0.3c0.3,0,0.6,0.1,0.8,0.3C283.1,65.9,283.2,66.2,283.2,66.5 M289.6,70.5h-2v6
		c0,0.5,0.1,0.9,0.2,1.1c0.2,0.1,0.5,0.3,0.9,0.3c0.2,0,0.4,0,0.5-0.1c0.1,0,0.3-0.1,0.4-0.1l0.2,0.9c-0.5,0.3-1,0.4-1.7,0.4
		c-0.2,0-0.4,0-0.7-0.1c-0.2,0-0.4-0.1-0.6-0.1c-0.3-0.2-0.5-0.4-0.7-0.7c-0.1-0.3-0.2-0.7-0.2-1.2v-6.4H285v-1.1h1.2v-0.7
		c0-0.3,0.1-0.6,0.1-0.8c0-0.2,0-0.4,0.1-0.6V67l1.5-0.3v0.2c-0.1,0.1-0.1,0.4-0.1,0.7c-0.1,0.3-0.1,0.6-0.1,0.9v0.9h2.3L289.6,70.5
		z M298.2,75.9c0,0.4-0.1,0.9-0.3,1.2c-0.1,0.4-0.4,0.7-0.7,0.9c-0.4,0.3-0.7,0.5-1.2,0.7c-0.4,0.1-0.9,0.2-1.4,0.2
		c-0.7,0-1.2-0.1-1.8-0.2c-0.7-0.2-1.2-0.4-1.7-0.7l0.6-1.1c0.9,0.6,2,0.9,3,0.9c0.6,0,1-0.1,1.4-0.4c0.3-0.3,0.5-0.7,0.5-1.2
		c0-0.4-0.1-0.7-0.4-1c-0.3-0.2-0.7-0.4-1.2-0.5l-1.2-0.2c-0.8-0.2-1.4-0.5-1.7-0.9c-0.4-0.4-0.7-1-0.7-1.7c0-0.4,0.1-0.8,0.3-1.2
		c0.1-0.3,0.4-0.6,0.7-0.9c0.3-0.2,0.7-0.4,1-0.6c0.4-0.1,0.9-0.2,1.4-0.2c0.5,0,0.9,0.1,1.5,0.2s1,0.3,1.4,0.5l-0.5,1.1
		c-0.4-0.1-0.8-0.4-1.2-0.4c-0.4-0.1-0.7-0.2-1.2-0.2c-0.5,0-0.9,0.1-1.2,0.4c-0.4,0.3-0.5,0.7-0.5,1.1c0,0.4,0.1,0.7,0.3,0.9
		c0.2,0.2,0.6,0.4,1.1,0.5l1.2,0.2C297.4,73.7,298.2,74.5,298.2,75.9 M275,69.2v1.1c-1.4,0-2,1-2.1,2.9h2.1v1.1h-2.1v0.2
		c0,0.5,0,0.9,0.1,1.2c0.1,0.4,0.1,0.7,0.3,0.9c0.3,0.4,0.7,0.7,1,0.9c0.2,0.1,0.5,0.1,0.7,0.2v1.2c-1.2-0.1-2-0.5-2.8-1.3
		c-0.7-0.9-1.1-2.1-1.1-3.6c0-0.8,0.1-1.5,0.3-2c0.1-0.5,0.4-1,0.9-1.5C273.1,69.6,273.9,69.2,275,69.2 M254.2,78.8v-1.2
		c0.4,0,0.7-0.1,0.9-0.1c0.2-0.1,0.5-0.2,0.8-0.4c0.2-0.1,0.4-0.3,0.4-0.4l0.1-0.3v-4.9c-0.2-0.3-0.5-0.5-0.9-0.7
		c-0.4-0.1-0.8-0.2-1.4-0.2h-0.1v-1.2c0.5,0,0.9,0.1,1.3,0.3c0.4,0.2,0.8,0.5,1.1,0.9v-0.2c0-0.1-0.1-0.3-0.1-0.6V69V65l1.5,0.3
		v10.4c0,0.8,0.1,1.5,0.1,1.9c0.1,0.4,0.1,0.8,0.2,1.1h-1.5c0,0-0.1-0.1-0.1-0.3c-0.1-0.1-0.1-0.4-0.1-0.7c-0.4,0.4-0.7,0.7-1.1,0.9
		C255.2,78.8,254.7,78.8,254.2,78.8 M267,78.7v-6.4c0-0.4,0-0.7-0.1-0.9c-0.1-0.2-0.1-0.4-0.3-0.5c-0.1-0.1-0.3-0.2-0.4-0.3
		c-0.2-0.1-0.4-0.1-0.7-0.1c-0.4,0-0.9,0.1-1.4,0.4c-0.5,0.3-0.9,0.7-1.3,1.2v6.6h-1.5V67.2c0-0.6-0.1-1.1-0.1-1.4
		c-0.1-0.4-0.1-0.5-0.1-0.5l1.4-0.3c0,0,0.1,0.2,0.1,0.6c0.1,0.4,0.1,0.9,0.1,1.6v2.2c0,0.3,0,0.6-0.1,0.9v0.4
		c0.4-0.4,0.9-0.8,1.5-1.1c0.5-0.3,1.1-0.4,1.7-0.4c0.5,0,1,0.1,1.5,0.4c0.4,0.3,0.7,0.7,0.9,1.1c0.1,0.1,0.1,0.4,0.1,0.5
		c0.1,0.2,0.1,0.5,0.1,0.8v6.7H267z M228.2,75.9c0,0.4-0.1,0.9-0.3,1.2c-0.1,0.4-0.4,0.7-0.7,0.9c-0.3,0.3-0.7,0.5-1.1,0.7
		c-0.4,0.1-0.9,0.2-1.5,0.2c-0.6,0-1.2-0.1-1.8-0.2c-0.6-0.2-1.1-0.4-1.6-0.7l0.6-1.1c0.9,0.6,2,0.9,2.9,0.9c0.6,0,1.1-0.1,1.4-0.4
		c0.4-0.3,0.5-0.7,0.5-1.2c0-0.4-0.1-0.7-0.4-1c-0.2-0.2-0.6-0.4-1.2-0.5l-1.2-0.2c-0.7-0.2-1.3-0.5-1.7-0.9c-0.4-0.4-0.6-1-0.6-1.7
		c0-0.4,0.1-0.8,0.2-1.2c0.2-0.3,0.4-0.6,0.7-0.9c0.3-0.2,0.7-0.4,1-0.6c0.4-0.1,0.9-0.2,1.4-0.2c0.4,0,0.9,0.1,1.4,0.2
		c0.5,0.1,0.9,0.3,1.4,0.5l-0.6,1.1c-0.4-0.1-0.8-0.4-1.2-0.4c-0.4-0.1-0.7-0.2-1.2-0.2c-0.5,0-0.9,0.1-1.3,0.4
		c-0.3,0.3-0.4,0.7-0.4,1.1c0,0.4,0.1,0.7,0.3,0.9c0.2,0.2,0.5,0.4,1,0.5l1.2,0.2C227.3,73.7,228.2,74.5,228.2,75.9 M254.2,69.3v1.2
		c-0.7,0-1.3,0.4-1.7,0.9c-0.2,0.4-0.4,0.8-0.5,1.2c-0.1,0.4-0.1,0.9-0.1,1.6c0,0.5,0,1,0.1,1.4c0,0.4,0.1,0.7,0.3,1
		c0.2,0.4,0.4,0.7,0.7,0.9c0.3,0.1,0.7,0.2,1.2,0.2v1.2h-0.1c-1.2,0-2.2-0.4-2.8-1.2c-0.7-0.8-0.9-2-0.9-3.5c0-2,0.6-3.4,1.9-4.3
		c0.3-0.2,0.6-0.4,0.9-0.5c0.3-0.1,0.6-0.1,0.9-0.1H254.2z M237.3,79.1c-0.4-0.3-0.6-0.5-0.7-0.7c-0.1-0.2-0.2-0.5-0.3-0.8
		c-0.7,0.9-1.7,1.5-3,1.5c-0.6,0-1.1-0.1-1.5-0.4c-0.4-0.3-0.7-0.6-0.9-1c-0.1-0.1-0.1-0.4-0.1-0.6c-0.1-0.2-0.1-0.5-0.1-0.8v-6.8
		l1.5-0.3v6.7c0,0.4,0,0.8,0.1,1c0.1,0.2,0.2,0.4,0.4,0.6c0.1,0.1,0.3,0.1,0.5,0.2c0.2,0.1,0.4,0.1,0.6,0.1c0.5,0,0.9-0.1,1.4-0.4
		c0.4-0.3,0.8-0.7,1-1.2v-6.6l1.4-0.2V76c0,0.6,0.1,1,0.1,1.4c0.1,0.3,0.2,0.5,0.5,0.7L237.3,79.1z M246.1,78.7v-6.3
		c0-0.2-0.1-0.4-0.1-0.6v-0.4c-0.1-0.1-0.1-0.2-0.1-0.3c-0.1-0.1-0.1-0.1-0.1-0.2c-0.2-0.3-0.6-0.4-1-0.4c-0.2,0-0.4,0-0.7,0.1
		c-0.2,0.1-0.4,0.1-0.7,0.3c-0.3,0.1-0.5,0.2-0.7,0.4c-0.2,0.1-0.4,0.3-0.6,0.5v6.9h-1.4v-7.2c0-0.7-0.1-1.2-0.2-1.4
		c-0.1-0.4-0.1-0.5-0.1-0.5l1.4-0.4c0,0,0.1,0.1,0.1,0.2c0,0.1,0.1,0.3,0.1,0.5c0.1,0.2,0.1,0.5,0.1,0.7c0.9-0.9,2-1.4,2.9-1.4
		c0.5,0,1,0.1,1.4,0.4c0.4,0.3,0.7,0.6,0.9,1c0.1,0.4,0.2,0.7,0.2,1.1v7H246.1z"/>
</g>
</svg>
