<?xml version="1.0" encoding="UTF-8"?><svg id="Ebene_2" xmlns="http://www.w3.org/2000/svg" viewBox="0 0 386.86 202.32"><defs><style>.cls-1{fill:#197a60;}.cls-1,.cls-2,.cls-3{stroke-width:0px;}.cls-2{fill:#acc4b8;}.cls-3{fill:#82a998;}</style></defs><g id="Ebene_1-2"><path class="cls-1" d="m277.68,182.06c.11-2.86.21-5.71.21-8.74,0-9.9-6.47-8.08-10.77-9.02-2.15-.47-3.75-1.63-3.75-5.27v-1.4c0-1.92.01-4.72.28-6.51.25-1.65.89-4.05.89-5.9,0-4.36.96-8.6.93-12.41-.02-2.35.38-4.08.46-6.33.04-1.2.16-5.21.38-6.41.36-1.98.29-4.29.32-6.47.02-1.25.28-2.34.48-3.5.13-.73.23-1.5.23-2.34v-.7c0-.62-.11-.65-.23-1.15v-.02c-1.82.42-3.61,2.75-4.29,4.38-.9,2.14-2.4,3.05-3.97,4.46-.74.66-2.58,2.39-4.51,4-2.07,1.73-4.24,3.32-5.27,3.32h-.94c-1.72,0-1.98-1.87-3.05-1.87h-.23c-.58,0-.88.59-1.41.94l-.28,2.81c-.09,1.16.71,2.93,1.47,3.27,1.15.52,2.43-.08,3.42-.52.87-.38,5.69-3.59,5.69-1.8,0,2.89-8.2,3.61-8.2,7.49v.47c0,.96,1.87,2.17,1.87,5.15,0,2.06-1.95,9.94-2.55,11.73-.37,1.08-1.01,4.61-1.19,5.83-.23,1.56-1.04,3.92-1.39,5.63-.76,3.69-1.98,7.94-2.54,11.51-.32,2.06-.61,3.97-1.13,5.9-.09.33-.17.64-.23.92,3.08.98,7,1.97,11.73,2.67.87-9.86,1.54-26.68,3.63-30.62.23.16.43.3.59.48.22.26.35.6.35,1.16v3.98l-.35,5.34-.48,7.31c-.21,1.39.26,1.39-.16,3.45-.23,1.15-.43,1.77-.41,3.33.02,1.61-.24,4.1-.49,5.92,2.11.25,4.38.41,6.76.5.03-2.42.13-4.75,1.46-5.72l.99.89c-.01,1.71-.07,3.32-.15,4.92,1.97.03,4.05-.03,6.19-.13v-2.4c0-2.58.43-4.33.47-6.09,2.21.05,1.17,2.93,1.17,5.39v3.01c2.2-.14,4.45-.34,6.8-.65.4-.05.79-.12,1.19-.17h0Zm-24.16-38.95c0-.3.33-.83.82-1.45,1.25-1.55,3.6-3.62,4.57-3.7v.7c0,.96-3.37,4.92-4.22,4.92h-.47c-.38,0-.7-.14-.7-.47h0Zm5.29-12.27c-.8,1.07-2.77,3.62-4.48,4.48-.37.19-.72.3-1.05.3-.63,0-.69-.34-.94-.7.22-.42.98-1.37,1.99-2.54,2.83-3.26,7.69-8.23,8.79-8.23.29,0,.7.49.7.94v.47c0,.67-4.16,4.14-5.01,5.29h0Z"/><path class="cls-1" d="m328.26,145.22v-1.64c0-4.87-.59-7.73-3.1-10.25-1.68-1.69-5.46-4.51-8.61-4.51-3.52,0-7.5,3.41-7.5,6.79,0,2,2.65,2.81,4.69,2.81h1.88c1.83,0,2.7-1.17,4.45-1.17h.23c1.62,0,2.11,4.86,2.11,6.79v.94c0,5.11-3.63,13.5-6.14,16.11-1.97,2.04-3.69,3.27-6.61,4.41-1.76.69-6.28,2.91-8.1,2.91h-1.41c-.92,0-1.17-1.16-1.17-2.11v-.47c0-3.22,5.39-8.06,5.39-12.88v-1.17c0-2.66-1.4-5.56-1.4-8.2v-2.81c0-1.05.94-2.46.94-4.45,0-1.81.62-3.13.89-4.5.59-3.04.86-6.08,1.47-9.07.56-2.73,1.17-6.51,1.57-9.2.24-1.59.31-3.5.49-4.89.16-1.25.73-3.62.73-4.42v-1.87c0-.56-.84-1.4-1.41-1.4h-.7c-4.17,0-4.36,10.45-5.06,14.62-.48,2.83-.74,5.99-1.05,8.79-.11.99-1.07,8.21-1.62,8.21-.48,0-1.86-1.2-3.4-2.71-2.27-2.24-4.86-5.16-5.32-5.9-.06-.1-.12-.21-.18-.31-2.18-3.94-.23-9.44-.23-14.73v-3.28c0-5.32-1.25-12.42-3.47-15.5-1.39-1.93-3.25-3.03-4.91-4.7-1.34-1.36-3.19-3.69-5.68-3.69h-1.41c-1.7,0-2.67,1.64-5.16,1.64h-.47c-.76,0-1.17-.85-1.17-1.64,0-2.77,2.65-7.26,4.44-8.21,1.87-.99,2.13.95,4.65-1.68,1.01-1.06,1.59-2.07,2.81-3.28,2.5-2.5,2.6-5.1,2.41-10.02-.16-4.29-2.86-5.32-5.4-7.02-2.11,0-3.12.26-4.61-.54-.84-.45-2.32-1.57-3.36-1.57h-1.17c-.52,0-1.67.47-2.93,1.15-2.21,1.2-4.78,3.07-4.99,4.28-.89,5.06-6.14,4.53-6.14,6.98,0,.5,1.17.8,1.17,1.64v1.17c0,2.11-4.9,2.93-6.86,5.09-1.5,1.65-.68,1.74-3.11,2.98-1.23.63-2.22,1.97-2.22,3.64,0,1.26,1.44,2.58,2.81,2.58,2.47,0,3.32-2.14,7.26-2.1,3.51.03,3.97-2.81,6.32-2.81.98,0,1.64,1.13,1.64,2.11,0,1.96-1.6,4.01-2.53,5.2-1.47,1.88-3.79.75-6.56,1.17-5.65.86-6.81,2.28-11.09,4.13-3.4,1.47-6.88,3.63-9.85,5.61-1.25.83-3.43,3.03-5.46,4.62-1.28,1-2.5,1.75-3.4,1.75-.04,0-.08,0-.12,0-.45-.02-.59-.2-.59-.7,0-.47.28-1.29.59-2.16.35-.99.73-2.04.8-2.77.24-2.3.44-3.39.77-5.55.32-2.08.84-3.13,1.17-5.15.17-1,.5-2.1.76-3.14.19-.75.33-1.46.35-2.07.05-1.66-.06-2.76-.35-3.53-.52-1.34-1.62-1.68-3.51-2.15-.61-.15-1.31-.32-2.09-.54-2.96-.84-6.23-2.56-6.23-6.18v-.23c0-.63.34-.69.7-.94,1.18,2.24,3.43,5.15,6.8,5.15h1.64c.93,0,1.89-.42,2.69-1.01.81-.59,1.46-1.35,1.76-2.03,1-2.21.7-3.73.7-6.8,0-2.43-.16-5.12.37-7.12.59-2.21,1.74-2.49,1.74-5.52v-.47c0-1.34-1.95-3.75-3.05-3.75h-.94c-.21,0-.4,0-.59.01-2.32.09-3.13.74-3.51,1.73-.37.96-.33,2.23-.84,3.62-.81,2.17-2.62,4.44-3.65,6.42-3.09,5.95-8.04,3.25-8.04,12.1s7.97,7.54,7.97,11.71v.7c0,1.36-4.06,9.66-4.85,11.32-1.71,3.6-3.82,7.23-3.82,12.34v2.11c0,5.15.09,7,3.28,9.13,3.87,0,7.09-.06,9.96-.71,1.23-.28,2.39-.67,3.51-1.21.91-.44,1.79-.97,2.65-1.63,1.97-1.5,9.74-7.92,11.99-7.92,3.12,0,6.07,18.03,9.37,18.03,4.5,0,10.82-9.24,13.18-12.35.64-.84,1.53-2.19,2.4-3.61.99-1.62,1.96-3.32,2.46-4.42.79-1.72,3.25-7.39,4.45-8.2.31.62.23-.19.23.7v1.64c0,1.85-.6,5.73-.89,7.54-.4,2.55-.33,5.28-.73,7.7-.43,2.63-.61,4.74-.72,7.71-.08,2.19-.87,4.99-.96,7.24-.19,5.1-1.19,11-1.16,15.7.01,2.86-.16,5.48-.45,7.98-.28,2.43-.72,5.26-.72,7.48,0,.29.36.94.94.94h.47c1.4,0,2.49-1.11,3.28-1.64,0-1.59.09-9.49.37-10.87.81-4.04.34-5.83.34-10.2v-5.39l2.39-23.41c.1-1.32-.34-1.85-.29-3.29.05-1.33.49-1.28.78-2.74.26-1.36.74-4.74,2.28-4.74,1.3,0-.56,9.59-.8,10.44-.3,1.09-1.32,9.44-1.31,10.63.07,7.44-1.4,14.88-1.4,22.72v1.17c0,4.75.21,8.71.24,13.35.04,6.75-6.56,4.17-6.56,7.02v1.64c0,1.97,3.41,1.96,5.4,2.1,1.88.13,2.8,2.12,5.15,2.12h.47c2.01,0,1.17-9.81,1.17-12.18,0-4.59.23-8.45.23-13.11,0-4.95-.02-8.36-.76-12.59-.52-2.95-1.35-8.83-1.35-12v-3.28c0-.55.39-.94.94-.94,1.7,0,3.28,7.34,3.28,10.07,0,4.97-.43,8.58,2.05,11.3,1.04,1.14,4.02,3.75,6.86,6.45,2.29,2.17,4.49,4.39,5.51,5.93.37.56.59,1.04.59,1.38,0,1.13-.28,1.81-.59,2.45-.38.79-.81,1.51-.83,2.93-.03,2.29.24,4.06.24,6.57,0,1.6-.94,2.39-.94,3.98,0,2.83.7,4.74-.28,7.92-.76,2.45-1.99,2.53-3.71,3.53-.32.18-.65.4-1,.67-2.62,2-4.21,3.95-4.99,7.05,2.19-.54,4.32-1.17,6.36-1.9.65-.47,1.38-.81,2.2-.88,0,.01,0,.03,0,.05,2.24-.88,4.38-1.86,6.43-2.9.02-.01.04-.03.06-.04.02-.01.05-.02.07-.03,16.54-8.48,26.36-21.31,28.21-23.87.4-1.93.61-3.93.61-6h0Zm-103.09-95.78h-.23c-1.51,0,.12-4.92.12-4.92h.82c.67,0,1.64,1.35,1.64,1.87v.7c0,1.18-1.17,2.34-2.34,2.34h0Zm-8.43,8.2c0-1.52,2.71-4.69,4.8-5.98.58-.36,1.11-.57,1.52-.57.76,0,1.45.39,1.99.98.79.86,1.29,2.13,1.29,3.24,0,1.72-.65,2.01-1.29,2.88-.04.05-.08.11-.12.17-1.32,0-2.3.42-3.4.7-.54.14-1.11.24-1.76.24h-1.17c-1,0-1.88-.72-1.88-1.64h0Zm49.91,2.81c0,1.13-.74,1.87-1.87,1.87h-.7c-.87,0-1.41-1.2-1.41-2.11,0-.63,1.06-1.56,1.99-1.63.04,0,.08,0,.12,0,1.13,0,1.87.74,1.87,1.87h0Z"/><path class="cls-2" d="m201.22,49.37c.25-.34.47-.69.72-1.02,17.69-23.31,46.6-37.31,77.91-34.57,48.46,4.24,84.31,46.96,80.07,95.43-4.24,48.46-46.96,84.31-95.43,80.07-25.95-2.27-48.26-15.59-62.76-34.9,13.32,15.51,32.46,26.04,54.43,27.96,44.61,3.9,83.93-29.09,87.83-73.7,3.9-44.61-29.09-83.93-73.7-87.83-27.32-2.39-52.65,9.08-69.08,28.57h0Z"/><path class="cls-1" d="m132.17,78.63c-.81-2.86-2.04-5.44-3.67-7.73-1.64-2.29-3.7-4.28-6.19-5.96-2.49-1.68-5.4-2.99-8.74-3.93-1.91-.54-3.97-.92-6.2-1.13-2.22-.21-4.63-.32-7.22-.32h-13.07v57.17h12.95c2.59,0,5-.11,7.22-.32,2.22-.21,4.29-.59,6.2-1.13,3.33-.94,6.24-2.26,8.74-3.97,2.49-1.71,4.57-3.74,6.24-6.09,1.67-2.35,2.91-4.99,3.74-7.93.83-2.93,1.24-6.07,1.24-9.4s-.41-6.39-1.22-9.25h0Zm-9.34,22.92c-2.42,3.56-5.9,6.05-10.43,7.48-1.73.54-3.66.91-5.8,1.11-2.14.2-4.55.3-7.23.3h-5.33v-44.61h5.33c2.68,0,5.09.1,7.23.3,2.14.2,4.07.57,5.8,1.11,4.53,1.43,8.01,3.85,10.43,7.26,2.42,3.42,3.64,7.88,3.64,13.37s-1.21,10.11-3.64,13.67h0Zm29.7,7.65c-2.32-1.6-3.98-3.77-4.98-6.54-.4-1.11-.69-2.34-.88-3.7-.19-1.35-.28-2.67-.28-3.95v-35.46h-6.96v35.29c0,1.54.09,3.12.28,4.74.18,1.62.49,3.15.92,4.57.6,1.96,1.44,3.78,2.52,5.45,1.08,1.67,2.47,3.1,4.17,4.32,1.69,1.21,3.72,2.16,6.09,2.84,2.36.68,5.11,1.02,8.25,1.02s6.13-.37,8.57-1.11c2.44-.74,4.52-1.76,6.26-3.08,1.74-1.31,3.15-2.86,4.23-4.66,1.08-1.79,1.89-3.75,2.44-5.85.31-1.25.54-2.61.68-4.06.14-1.45.21-2.85.21-4.19v-35.29h-6.96v35.46c0,1.08-.06,2.2-.17,3.35-.11,1.15-.31,2.2-.6,3.14-.43,1.51-1.04,2.88-1.84,4.12-.8,1.24-1.79,2.3-2.99,3.18-1.2.88-2.6,1.57-4.21,2.05-1.61.49-3.45.73-5.53.73-3.82,0-6.89-.8-9.21-2.39h0Z"/><path class="cls-3" d="m27.77,86.99c1.65-.57,3.06-1.28,4.21-2.14,1.15-.85,2.09-1.82,2.82-2.91.73-1.08,1.25-2.26,1.58-3.55.33-1.28.49-2.62.49-4.02,0-1.74-.28-3.35-.82-4.83-.55-1.48-1.33-2.81-2.34-3.97-1.01-1.17-2.25-2.17-3.7-3.01-1.45-.84-3.06-1.5-4.84-1.99-.68-.17-1.39-.32-2.15-.45-.76-.13-1.58-.24-2.47-.32-.89-.08-1.86-.15-2.92-.19-1.06-.04-2.23-.06-3.53-.06H0v57.17h14.62c2.87,0,5.34-.11,7.4-.34,2.06-.23,3.93-.63,5.62-1.2,2.2-.74,4.04-1.69,5.51-2.86,1.48-1.17,2.68-2.44,3.59-3.82.92-1.38,1.57-2.81,1.96-4.27.39-1.47.59-2.87.59-4.21,0-1.88-.27-3.55-.81-5.02s-1.32-2.74-2.33-3.8c-1.01-1.07-2.22-1.94-3.63-2.63-1.41-.68-3-1.15-4.76-1.41v-.17h0Zm-20.81-2.69v-18.46h7.82c1.94,0,3.62.06,5.04.19,1.42.13,2.68.35,3.76.66,2.19.65,3.8,1.65,4.83,2.99,1.03,1.34,1.54,3.06,1.54,5.17s-.49,3.83-1.47,5.34c-.98,1.51-2.54,2.62-4.68,3.33-.8.26-1.7.45-2.69.58-1,.13-2.18.19-3.55.19H6.97Zm10.89,6.28c1.62,0,2.98.04,4.08.13,1.1.09,2.07.23,2.93.43,1.42.31,2.61.76,3.57,1.33.95.57,1.72,1.23,2.31,1.99.58.75,1,1.61,1.26,2.56.26.95.38,1.97.38,3.06,0,.94-.12,1.86-.36,2.78-.24.91-.64,1.77-1.2,2.58-.56.81-1.29,1.55-2.2,2.22-.91.67-2.02,1.22-3.33,1.65-1.2.4-2.65.69-4.36.88-1.71.18-3.56.28-5.55.28H6.97v-19.87h10.89Zm44.09,19.44c-1.03-3.1-2.35-6.88-3.95-11.32l-8.07-22.56h-6.62l15.35,40.59h6.87l15.34-40.59h-6.62l-8.13,22.56c-1.67,4.59-3,8.36-3.98,11.32h-.17Z"/><path class="cls-1" d="m204.21,41.26c.28-.38.54-.79.83-1.17C225.36,13.31,258.56-2.75,294.51.39c55.65,4.87,96.82,53.93,91.95,109.59-4.87,55.65-53.93,96.82-109.59,91.95-29.8-2.61-55.42-17.9-72.07-40.08,15.29,17.81,37.28,29.9,62.51,32.11,51.23,4.48,96.39-33.41,100.87-84.64,4.48-51.23-33.41-96.39-84.64-100.87-31.38-2.74-60.46,10.42-79.33,32.8h0Z"/><path class="cls-1" d="m11.4,158.73c0,.74-.09,1.43-.27,2.07-.18.65-.46,1.23-.82,1.75-.37.52-.83.97-1.37,1.34-.55.38-1.19.67-1.93.88-.42.12-.88.2-1.37.25-.49.05-1.02.07-1.59.07H1.19v-12.6h2.88c.57,0,1.1.02,1.59.07.49.05.94.13,1.37.25.73.21,1.38.5,1.93.87.55.37,1,.81,1.37,1.31.36.5.63,1.07.81,1.7.18.63.27,1.31.27,2.04Zm-1.53,0c0-1.21-.27-2.19-.8-2.95-.53-.75-1.3-1.29-2.3-1.6-.38-.12-.81-.2-1.28-.25-.47-.04-1-.07-1.59-.07h-1.17v9.83h1.17c.59,0,1.12-.02,1.59-.07s.9-.12,1.28-.25c1-.31,1.77-.86,2.3-1.65.53-.79.8-1.79.8-3.01Z"/><path class="cls-1" d="m18.18,164.05c.48,0,.92-.04,1.32-.12.4-.08.8-.19,1.19-.33v1.21c-.32.16-.72.28-1.19.37s-.98.14-1.52.14c-.64,0-1.24-.08-1.8-.25-.56-.16-1.05-.43-1.46-.79-.41-.36-.73-.84-.97-1.43-.23-.59-.35-1.29-.35-2.12s.11-1.52.34-2.12c.23-.6.53-1.1.9-1.5.38-.4.81-.7,1.3-.9.49-.2,1-.3,1.53-.3.5,0,.97.08,1.4.25.44.17.81.43,1.13.79.32.36.57.82.76,1.38.19.56.28,1.24.28,2.03v.19c0,.05,0,.17,0,.36h-6.18c0,.57.09,1.06.26,1.46s.41.72.71.97c.3.25.65.43,1.05.54.4.11.83.17,1.3.17Zm-.77-6.89c-.34,0-.65.07-.94.2s-.54.31-.76.54c-.22.23-.39.49-.52.8-.13.3-.22.63-.25.97h4.58c0-.35-.05-.68-.14-.98-.09-.3-.23-.57-.41-.79-.18-.23-.4-.4-.66-.53s-.56-.19-.91-.19Z"/><path class="cls-1" d="m27.08,165.32c-.46,0-.88-.05-1.25-.15s-.7-.24-.97-.42-.52-.4-.71-.65c-.19-.25-.35-.53-.46-.83-.09-.23-.15-.47-.19-.74-.04-.27-.06-.57-.06-.89v-5.49h1.46v5.48c0,.5.07.91.2,1.24.15.38.39.67.73.89.34.22.76.32,1.29.32.55,0,1-.12,1.33-.36.34-.24.58-.56.72-.96.11-.31.16-.69.16-1.14v-5.48h1.46v5.5c0,.3-.02.58-.05.84-.03.26-.09.5-.17.72-.11.31-.27.59-.47.85s-.44.49-.73.67c-.29.19-.62.33-1,.44-.38.1-.81.16-1.29.16Z"/><path class="cls-1" d="m38.23,165.1c-.13.05-.32.1-.57.14s-.56.07-.92.08c-.47,0-.88-.06-1.22-.17s-.63-.28-.86-.5c-.23-.22-.4-.48-.51-.79-.11-.31-.17-.65-.17-1.03v-5.44h-1.72v-1.25h1.72v-2.45h1.46v2.45h2.67v1.25h-2.67v5.22c0,.21.03.4.09.57.06.18.15.33.28.46.13.13.29.23.49.3.2.07.44.11.73.11.19,0,.4-.02.62-.05.22-.03.42-.07.6-.12v1.22Z"/><path class="cls-1" d="m41.25,158.52c0,.25.05.45.16.6.1.16.24.28.42.38.18.1.38.18.61.24s.47.12.71.17c.34.08.66.16.96.25s.58.23.83.41c.25.18.46.43.62.74.16.31.23.71.23,1.21,0,.45-.09.85-.26,1.2-.18.35-.42.64-.74.88s-.7.42-1.15.54-.94.18-1.47.18c-.33,0-.62-.02-.89-.05-.27-.03-.5-.08-.71-.13s-.38-.11-.52-.17c-.14-.06-.26-.11-.36-.16v-1.22c.37.15.74.27,1.1.36s.76.13,1.2.13c.34,0,.66-.03.93-.09s.52-.16.72-.28c.2-.12.35-.28.46-.46s.16-.4.16-.65-.05-.46-.15-.62c-.1-.16-.23-.3-.4-.41-.17-.11-.36-.19-.58-.26-.22-.07-.45-.13-.69-.19-.31-.07-.63-.15-.96-.25-.32-.09-.62-.23-.88-.4-.26-.17-.48-.4-.64-.69-.16-.29-.25-.67-.25-1.12s.08-.88.25-1.22c.17-.34.4-.63.69-.86.29-.23.62-.4,1.01-.51.38-.11.79-.17,1.21-.17.5,0,.96.05,1.38.14.42.09.81.21,1.15.36v1.24c-.37-.14-.74-.26-1.12-.35s-.76-.14-1.16-.15c-.34,0-.62.03-.86.1-.24.07-.44.16-.59.29-.15.12-.26.27-.33.43-.07.17-.11.35-.11.55Z"/><path class="cls-1" d="m51.85,155.91c.43,0,.85.04,1.24.14.4.09.73.22,1.02.38v1.21c-.4-.15-.76-.26-1.09-.34s-.67-.11-1.02-.11c-.36,0-.73.06-1.08.18-.36.12-.68.32-.96.59-.28.27-.51.63-.68,1.08-.17.45-.26,1.01-.26,1.67,0,.48.06.93.19,1.34.13.41.32.76.57,1.06.25.3.57.53.96.7s.83.25,1.33.25c.36,0,.73-.04,1.1-.12.37-.08.73-.19,1.08-.33v1.21c-.11.06-.25.13-.42.19-.17.06-.36.12-.57.17-.21.05-.43.08-.66.11-.23.03-.46.04-.7.04-.6,0-1.17-.09-1.71-.27-.54-.18-1.01-.46-1.41-.84-.4-.38-.72-.85-.95-1.43-.23-.58-.35-1.26-.35-2.05,0-.59.06-1.12.18-1.59s.29-.88.5-1.24c.21-.36.46-.66.75-.91s.59-.46.91-.62c.32-.16.66-.28,1-.35s.68-.11,1.01-.11Z"/><path class="cls-1" d="m58.02,157.36h.03c.16-.21.34-.4.55-.58.2-.18.42-.33.67-.46.25-.13.51-.23.79-.31.28-.08.59-.11.91-.11s.68.04,1.02.14c.34.09.65.25.94.48.29.23.52.56.71.97.18.42.27.95.27,1.6v5.99h-1.46v-5.75c0-.72-.14-1.27-.41-1.63-.27-.36-.72-.55-1.34-.55-.52,0-1,.14-1.47.42s-.87.66-1.21,1.15v6.36h-1.46v-13.63h1.46v5.91Z"/><path class="cls-1" d="m70.97,164.05c.48,0,.92-.04,1.32-.12.4-.08.8-.19,1.19-.33v1.21c-.32.16-.72.28-1.19.37s-.98.14-1.52.14c-.64,0-1.24-.08-1.8-.25-.56-.16-1.05-.43-1.46-.79-.41-.36-.73-.84-.97-1.43-.23-.59-.35-1.29-.35-2.12s.11-1.52.34-2.12c.23-.6.53-1.1.9-1.5.38-.4.81-.7,1.3-.9.49-.2,1-.3,1.53-.3.5,0,.97.08,1.4.25.44.17.81.43,1.13.79.32.36.57.82.76,1.38.19.56.28,1.24.28,2.03v.19c0,.05,0,.17,0,.36h-6.18c0,.57.09,1.06.26,1.46s.41.72.71.97c.3.25.65.43,1.05.54.4.11.83.17,1.3.17Zm-.77-6.89c-.34,0-.65.07-.94.2s-.54.31-.76.54c-.22.23-.39.49-.52.8-.13.3-.22.63-.25.97h4.58c0-.35-.05-.68-.14-.98-.09-.3-.23-.57-.41-.79-.18-.23-.4-.4-.66-.53s-.56-.19-.91-.19Z"/><path class="cls-1" d="m77.73,157.38h.03c.16-.21.34-.4.54-.58.2-.18.42-.34.66-.47.24-.13.51-.24.81-.32.29-.08.61-.11.96-.11.41,0,.79.06,1.15.17.36.11.67.3.93.55s.47.58.63.98c.15.41.23.9.23,1.49v5.99h-1.46v-5.75c0-.77-.15-1.33-.45-1.67-.3-.34-.73-.51-1.3-.51-.5,0-.99.14-1.46.42-.47.28-.88.66-1.21,1.15v6.36h-1.46v-8.95h1.13l.28,1.24Z"/><path class="cls-1" d="m94.84,163.96c.46,0,.86-.05,1.22-.16.35-.11.66-.26.93-.45.26-.19.48-.43.66-.7.18-.27.31-.58.41-.91.06-.21.11-.44.13-.69.02-.25.04-.5.04-.74v-7.82h1.53v7.78c0,.29-.02.6-.05.92-.03.32-.08.62-.15.89-.12.46-.3.89-.54,1.29-.24.4-.55.74-.93,1.03-.38.29-.84.51-1.38.68-.54.16-1.17.25-1.89.25s-1.3-.08-1.82-.23c-.52-.15-.97-.36-1.34-.63-.37-.27-.68-.58-.92-.95-.24-.37-.42-.77-.56-1.2-.09-.31-.16-.65-.2-1.01-.04-.36-.06-.71-.06-1.04v-7.78h1.53v7.82c0,.28.02.57.06.87.04.3.1.57.19.81.22.61.59,1.09,1.1,1.44.51.35,1.19.53,2.03.53Z"/><path class="cls-1" d="m107.63,157.33h-.11c-.35,0-.68.03-1.02.09-.33.06-.65.16-.94.29-.29.13-.56.29-.79.48s-.43.41-.59.67v6.23h-1.46v-8.95h1.13l.28,1.42h.03c.14-.23.32-.45.53-.65.21-.2.45-.38.71-.53.26-.15.55-.27.87-.35s.64-.13.99-.13c.06,0,.13,0,.19,0,.07,0,.12,0,.17.01v1.4Z"/><path class="cls-1" d="m117.16,160.62c0,.7-.1,1.34-.3,1.92-.2.58-.48,1.07-.85,1.48-.37.41-.81.73-1.33.96-.52.23-1.1.34-1.75.34s-1.26-.11-1.78-.34c-.52-.23-.97-.54-1.34-.96-.37-.41-.65-.91-.84-1.48-.19-.58-.29-1.22-.29-1.92s.1-1.35.3-1.93.48-1.07.85-1.49c.37-.41.81-.73,1.34-.96.52-.23,1.11-.34,1.76-.34s1.25.11,1.78.34c.53.23.97.55,1.34.96.36.42.64.91.84,1.49.19.58.29,1.22.29,1.93Zm-1.53,0c0-.55-.07-1.04-.2-1.47-.14-.43-.32-.79-.56-1.09s-.53-.52-.86-.68c-.33-.15-.7-.23-1.09-.23s-.76.08-1.09.23c-.33.15-.62.38-.86.68s-.43.66-.56,1.09c-.14.43-.2.92-.2,1.47s.07,1.03.2,1.46c.13.43.32.79.57,1.09.24.29.53.52.87.67.33.15.7.23,1.09.23s.76-.08,1.09-.23c.33-.15.62-.38.86-.67s.43-.66.56-1.09c.13-.43.2-.92.2-1.46Z"/><path class="cls-1" d="m119.56,165.09v-13.63h1.46v13.63h-1.46Z"/><path class="cls-1" d="m131.92,160.62c0,.7-.1,1.34-.3,1.92-.2.58-.48,1.07-.85,1.48-.37.41-.81.73-1.33.96-.52.23-1.1.34-1.75.34s-1.26-.11-1.78-.34c-.52-.23-.97-.54-1.34-.96-.37-.41-.65-.91-.84-1.48-.19-.58-.29-1.22-.29-1.92s.1-1.35.3-1.93.48-1.07.85-1.49c.37-.41.81-.73,1.34-.96.52-.23,1.11-.34,1.76-.34s1.25.11,1.78.34c.53.23.97.55,1.34.96.36.42.64.91.84,1.49.19.58.29,1.22.29,1.93Zm-1.53,0c0-.55-.07-1.04-.2-1.47-.14-.43-.32-.79-.56-1.09s-.53-.52-.86-.68c-.33-.15-.7-.23-1.09-.23s-.76.08-1.09.23c-.33.15-.62.38-.86.68s-.43.66-.56,1.09c-.14.43-.2.92-.2,1.47s.07,1.03.2,1.46c.13.43.32.79.57,1.09.24.29.53.52.87.67.33.15.7.23,1.09.23s.76-.08,1.09-.23c.33-.15.62-.38.86-.67s.43-.66.56-1.09c.13-.43.2-.92.2-1.46Z"/><path class="cls-1" d="m137.69,155.91c.39,0,.73.06,1.02.15s.54.21.74.35c.21.14.37.28.49.42.12.14.21.25.25.33h.04l.3-1.02h1.1v9.47c0,.69-.11,1.29-.34,1.8-.23.51-.54.94-.95,1.28-.41.34-.9.59-1.47.76-.57.17-1.21.25-1.91.25-.59,0-1.12-.05-1.58-.16-.46-.1-.83-.23-1.09-.37v-1.23c.21.09.42.16.62.22.2.06.41.11.62.15.21.04.43.07.65.09.22.02.47.03.74.03,1.05,0,1.85-.25,2.41-.73s.84-1.24.84-2.24v-1.2h-.03c-.32.35-.69.62-1.12.8-.42.18-.91.27-1.46.27-.25,0-.52-.03-.81-.08-.29-.06-.58-.15-.87-.29-.29-.13-.56-.31-.83-.54-.26-.22-.5-.5-.7-.84-.2-.33-.36-.73-.48-1.19-.12-.46-.18-.99-.18-1.59,0-.83.11-1.56.34-2.17.23-.61.52-1.12.89-1.52.37-.4.79-.7,1.27-.9.48-.2.97-.3,1.48-.3Zm-2.46,4.76c0,.7.08,1.28.25,1.72.17.45.38.79.65,1.04.26.25.54.42.85.51.31.09.6.14.88.14.45,0,.88-.09,1.27-.27.4-.18.74-.43,1.05-.74v-4.68c-.08-.11-.19-.24-.34-.39-.14-.14-.31-.28-.5-.4-.19-.12-.41-.23-.65-.31-.24-.08-.51-.13-.8-.13-.43,0-.81.09-1.14.26-.33.17-.61.41-.83.72s-.39.68-.5,1.11c-.11.43-.17.91-.17,1.43Z"/><path class="cls-1" d="m144.51,154.06v-1.63h1.46v1.63h-1.46Zm.04,11.03v-8.95h1.46v8.95h-1.46Z"/><path class="cls-1" d="m153.18,164.05c.48,0,.92-.04,1.32-.12.4-.08.8-.19,1.19-.33v1.21c-.32.16-.72.28-1.19.37s-.98.14-1.52.14c-.64,0-1.24-.08-1.8-.25-.56-.16-1.05-.43-1.46-.79-.41-.36-.73-.84-.97-1.43-.23-.59-.35-1.29-.35-2.12s.11-1.52.34-2.12c.23-.6.53-1.1.9-1.5.38-.4.81-.7,1.3-.9.49-.2,1-.3,1.53-.3.5,0,.97.08,1.4.25.44.17.81.43,1.13.79.32.36.57.82.76,1.38.19.56.28,1.24.28,2.03v.19c0,.05,0,.17,0,.36h-6.18c0,.57.09,1.06.26,1.46s.41.72.71.97c.3.25.65.43,1.05.54.4.11.83.17,1.3.17Zm-.77-6.89c-.34,0-.65.07-.94.2s-.54.31-.76.54c-.22.23-.39.49-.52.8-.13.3-.22.63-.25.97h4.58c0-.35-.05-.68-.14-.98-.09-.3-.23-.57-.41-.79-.18-.23-.4-.4-.66-.53-.26-.13-.56-.19-.91-.19Z"/><path class="cls-1" d="m166.63,164.05c.48,0,.92-.04,1.32-.12.4-.08.8-.19,1.19-.33v1.21c-.32.16-.72.28-1.19.37s-.98.14-1.52.14c-.64,0-1.24-.08-1.8-.25-.56-.16-1.05-.43-1.46-.79-.41-.36-.73-.84-.97-1.43-.23-.59-.35-1.29-.35-2.12s.11-1.52.34-2.12c.23-.6.53-1.1.9-1.5.38-.4.81-.7,1.3-.9.49-.2,1-.3,1.53-.3.5,0,.97.08,1.4.25.44.17.81.43,1.13.79.32.36.57.82.76,1.38.19.56.28,1.24.28,2.03v.19c0,.05,0,.17,0,.36h-6.18c0,.57.09,1.06.26,1.46s.41.72.71.97c.3.25.65.43,1.05.54.4.11.83.17,1.3.17Zm-.77-6.89c-.34,0-.65.07-.94.2s-.54.31-.76.54c-.22.23-.39.49-.52.8-.13.3-.22.63-.25.97h4.58c0-.35-.05-.68-.14-.98-.09-.3-.23-.57-.41-.79-.18-.23-.4-.4-.66-.53s-.56-.19-.91-.19Z"/><path class="cls-1" d="m172.22,165.09v-1.84h1.79v1.84h-1.79Z"/><path class="cls-1" d="m180.19,163.13c.46-1.37.95-2.76,1.47-4.16l2.42-6.48h1.54l-4.78,12.6h-1.34l-4.78-12.6h1.54l2.42,6.48c.53,1.4,1.02,2.79,1.48,4.16h.04Z"/><path class="cls-1" d="m186.38,165.09v-1.84h1.79v1.84h-1.79Z"/><path class="cls-1" d="m6.85,139.1c.39.06.74.16,1.05.31.31.15.58.34.8.58.22.24.39.51.51.84s.18.69.18,1.11c0,.29-.04.6-.13.93s-.23.64-.43.94-.47.58-.79.84c-.33.26-.73.47-1.22.63-.37.13-.79.21-1.24.26-.45.05-1,.08-1.63.08H.73v-12.6h3.11c.29,0,.54,0,.78.01.23,0,.45.02.64.04.2.02.38.04.54.07s.33.06.47.1c.39.11.75.25,1.07.44.32.19.59.41.81.66.22.26.4.55.52.88.12.33.18.68.18,1.06,0,.31-.04.6-.11.89s-.19.54-.35.78c-.16.24-.37.45-.62.64s-.56.34-.93.47v.04Zm-2.25-.63c.3,0,.56-.01.78-.04s.42-.07.59-.13c.47-.16.81-.4,1.03-.73.22-.33.32-.73.32-1.18s-.11-.84-.34-1.14-.58-.51-1.06-.66c-.24-.07-.52-.12-.83-.15s-.68-.04-1.11-.04h-1.72v4.07h2.33Zm-2.33,1.38v4.38h1.85c.44,0,.85-.02,1.22-.06s.7-.11.96-.19c.29-.09.53-.21.73-.36s.36-.31.48-.49c.12-.18.21-.37.26-.57.05-.2.08-.4.08-.61,0-.24-.03-.46-.08-.67-.06-.21-.15-.4-.28-.56-.13-.17-.3-.31-.51-.44-.21-.12-.47-.22-.79-.29-.19-.04-.4-.08-.65-.09s-.54-.03-.9-.03h-2.4Z"/><path class="cls-1" d="m16.23,144.58c.48,0,.92-.04,1.32-.12.4-.08.8-.19,1.19-.33v1.21c-.32.16-.72.28-1.19.37s-.98.14-1.52.14c-.64,0-1.24-.08-1.8-.25-.56-.16-1.05-.43-1.46-.79-.41-.36-.73-.84-.97-1.43-.23-.59-.35-1.29-.35-2.12s.11-1.52.34-2.12c.23-.6.53-1.1.9-1.5.38-.4.81-.7,1.3-.9.49-.2,1-.3,1.53-.3.5,0,.97.08,1.4.25.44.17.81.43,1.13.79.32.36.57.82.76,1.38.19.56.28,1.24.28,2.03v.19c0,.05,0,.17,0,.36h-6.18c0,.57.09,1.06.26,1.46s.41.72.71.97c.3.25.65.43,1.05.54.4.11.83.17,1.3.17Zm-.77-6.89c-.34,0-.65.07-.94.2s-.54.31-.76.54c-.22.23-.39.49-.52.8-.13.3-.22.63-.25.97h4.58c0-.35-.05-.68-.14-.98-.09-.3-.23-.57-.41-.79-.18-.23-.4-.4-.66-.53s-.56-.19-.91-.19Z"/><path class="cls-1" d="m26.48,137.86h-.11c-.35,0-.68.03-1.02.09-.33.06-.65.16-.94.29-.29.13-.56.29-.79.48s-.43.41-.59.67v6.23h-1.46v-8.95h1.13l.28,1.42h.03c.14-.23.32-.45.53-.65.21-.2.45-.38.71-.53.26-.15.55-.27.87-.35s.64-.13.99-.13c.06,0,.13,0,.19,0,.07,0,.12,0,.17.01v1.4Z"/><path class="cls-1" d="m31.59,145.85c-.46,0-.88-.05-1.25-.15s-.7-.24-.97-.42-.52-.4-.71-.65c-.19-.25-.35-.53-.46-.83-.09-.23-.15-.47-.19-.74-.04-.27-.06-.57-.06-.89v-5.49h1.46v5.48c0,.5.07.91.2,1.24.15.38.39.67.73.89.34.22.76.32,1.29.32.55,0,1-.12,1.33-.36.34-.24.58-.56.72-.96.11-.31.16-.69.16-1.14v-5.48h1.46v5.5c0,.3-.02.58-.05.84-.03.26-.09.5-.17.72-.11.31-.27.59-.47.85s-.44.49-.73.67c-.29.19-.62.33-1,.44s-.81.16-1.29.16Z"/><path class="cls-1" d="m43.21,133.13c-.19-.04-.4-.07-.62-.08-.23-.02-.42-.03-.58-.03-.33,0-.62.04-.88.12-.26.08-.48.21-.65.39-.18.18-.31.41-.41.71-.09.29-.14.65-.14,1.06v1.38h2.67v1.25h-2.67v7.69h-1.46v-7.69h-1.57v-1.25h1.57v-1.37c0-.65.09-1.19.26-1.63.17-.44.41-.81.71-1.09.3-.29.66-.5,1.06-.63.41-.13.85-.2,1.32-.2.3,0,.58.02.83.05s.44.07.56.1v1.23Z"/><path class="cls-1" d="m45.19,139.05c0,.25.05.45.16.6.1.16.24.28.42.38.18.1.38.18.61.24s.47.12.71.17c.34.08.66.16.96.25s.58.23.83.41c.25.18.46.43.62.74.16.31.23.71.23,1.21,0,.45-.09.85-.26,1.2-.18.35-.42.64-.74.88s-.7.42-1.15.54-.94.18-1.47.18c-.33,0-.62-.02-.89-.05-.27-.03-.5-.08-.71-.13s-.38-.11-.52-.17c-.14-.06-.26-.11-.36-.16v-1.22c.37.15.74.27,1.1.36s.76.13,1.2.13c.34,0,.66-.03.93-.09s.52-.16.72-.28c.2-.12.35-.28.46-.46s.16-.4.16-.65-.05-.46-.15-.62c-.1-.16-.23-.3-.4-.41-.17-.11-.36-.19-.58-.26-.22-.07-.45-.13-.69-.19-.31-.07-.63-.15-.96-.25-.32-.09-.62-.23-.88-.4-.26-.17-.48-.4-.64-.69-.16-.29-.25-.67-.25-1.12s.08-.88.25-1.22c.17-.34.4-.63.69-.86.29-.23.62-.4,1.01-.51.38-.11.79-.17,1.21-.17.5,0,.96.05,1.38.14.42.09.81.21,1.15.36v1.24c-.37-.14-.74-.26-1.12-.35s-.76-.14-1.16-.15c-.34,0-.62.03-.86.1-.24.07-.44.16-.59.29-.15.12-.26.27-.33.43-.07.17-.11.35-.11.55Z"/><path class="cls-1" d="m54.96,144.14c.22-.65.51-1.48.88-2.5l1.79-4.97h1.46l-3.38,8.95h-1.51l-3.38-8.95h1.46l1.78,4.97c.35.98.64,1.81.87,2.5h.04Z"/><path class="cls-1" d="m65.1,144.58c.48,0,.92-.04,1.32-.12.4-.08.8-.19,1.19-.33v1.21c-.32.16-.72.28-1.19.37s-.98.14-1.52.14c-.64,0-1.24-.08-1.8-.25-.56-.16-1.05-.43-1.46-.79-.41-.36-.73-.84-.97-1.43-.23-.59-.35-1.29-.35-2.12s.11-1.52.34-2.12c.23-.6.53-1.1.9-1.5.38-.4.81-.7,1.3-.9.49-.2,1-.3,1.53-.3.5,0,.97.08,1.4.25.44.17.81.43,1.13.79.32.36.57.82.76,1.38.19.56.28,1.24.28,2.03v.19c0,.05,0,.17,0,.36h-6.18c0,.57.09,1.06.26,1.46s.41.72.71.97c.3.25.65.43,1.05.54.4.11.83.17,1.3.17Zm-.77-6.89c-.34,0-.65.07-.94.2s-.54.31-.76.54c-.22.23-.39.49-.52.8-.13.3-.22.63-.25.97h4.58c0-.35-.05-.68-.14-.98-.09-.3-.23-.57-.41-.79-.18-.23-.4-.4-.66-.53s-.56-.19-.91-.19Z"/><path class="cls-1" d="m75.35,137.86h-.11c-.35,0-.68.03-1.02.09-.33.06-.65.16-.94.29-.29.13-.56.29-.79.48s-.43.41-.59.67v6.23h-1.46v-8.95h1.13l.28,1.42h.03c.14-.23.32-.45.53-.65.21-.2.45-.38.71-.53.26-.15.55-.27.87-.35s.64-.13.99-.13c.06,0,.13,0,.19,0,.07,0,.12,0,.17.01v1.4Z"/><path class="cls-1" d="m84.93,140.99c0,.83-.11,1.56-.34,2.17-.23.61-.52,1.11-.89,1.51-.37.4-.79.7-1.27.89-.48.19-.97.29-1.48.29-.38,0-.72-.05-1.01-.15-.29-.1-.54-.21-.74-.35s-.37-.27-.49-.41c-.12-.14-.21-.25-.26-.33h-.03l-.31,1h-1.1v-13.63h1.46v5.53h.03c.32-.34.69-.6,1.12-.79.43-.19.91-.28,1.46-.28.25,0,.52.03.81.08.29.06.58.15.87.29.29.14.56.32.82.55.26.23.5.51.7.84.2.34.36.73.48,1.2.12.46.18.99.18,1.6Zm-1.53.11c0-.71-.08-1.29-.25-1.73s-.38-.79-.64-1.04c-.26-.25-.54-.42-.83-.51-.29-.09-.59-.14-.89-.14-.45,0-.88.09-1.28.28-.4.19-.75.43-1.06.74v4.68c.09.12.2.25.34.39.14.14.31.27.5.4.19.12.41.23.65.31.24.08.51.13.8.13.43,0,.81-.08,1.14-.25.33-.17.61-.41.83-.72s.39-.68.5-1.11c.11-.43.17-.9.17-1.42Z"/><path class="cls-1" d="m92.47,144.63h-.04c-.12.15-.27.3-.45.45s-.39.28-.63.4-.5.21-.78.28c-.28.07-.58.1-.9.1-.43,0-.83-.06-1.19-.19-.36-.13-.67-.32-.93-.56-.26-.25-.46-.55-.61-.91-.14-.36-.22-.76-.22-1.21s.08-.84.24-1.2.38-.65.67-.89c.29-.25.64-.43,1.04-.57.4-.13.85-.2,1.34-.2.46,0,.89.05,1.29.12s.75.17,1.05.28h.04v-.62c0-.25-.02-.46-.05-.65s-.08-.35-.16-.5c-.16-.3-.42-.55-.78-.75-.36-.2-.84-.3-1.45-.3-.45,0-.88.04-1.28.13-.4.08-.8.2-1.19.35v-1.22c.15-.08.33-.15.53-.21.2-.07.42-.12.65-.17s.46-.08.72-.11c.25-.02.5-.04.75-.04.9,0,1.64.16,2.22.48.57.32.99.74,1.24,1.27.09.2.16.42.2.66.04.24.06.51.06.8v5.97h-1.22l-.16-.99Zm-.08-2.94c-.27-.08-.59-.15-.96-.22-.37-.07-.77-.11-1.22-.11-.62,0-1.1.13-1.45.4s-.52.67-.52,1.21c0,.28.04.52.13.72s.21.38.36.51c.15.14.33.24.54.3.21.07.43.1.67.1.31,0,.6-.04.87-.14.27-.09.51-.2.72-.32.21-.13.39-.25.53-.38.15-.12.25-.22.32-.29v-1.79Z"/><path class="cls-1" d="m98.1,137.91h.03c.16-.21.34-.4.54-.58.2-.18.42-.34.66-.47.24-.13.51-.24.81-.32.29-.08.61-.11.96-.11.41,0,.79.06,1.15.17.36.11.67.3.93.55s.47.58.63.98c.15.41.23.9.23,1.49v5.99h-1.46v-5.75c0-.77-.15-1.33-.45-1.67-.3-.34-.73-.51-1.3-.51-.5,0-.99.14-1.46.42-.47.28-.88.66-1.21,1.15v6.36h-1.46v-8.95h1.13l.28,1.24Z"/><path class="cls-1" d="m106.33,141.26c0-.62.06-1.17.18-1.65.12-.48.28-.9.48-1.26.2-.36.44-.66.71-.9.27-.24.55-.44.84-.59.29-.15.58-.26.88-.33.3-.07.58-.1.84-.1.55,0,1.02.09,1.42.27.4.18.76.45,1.08.8h.03v-5.53h1.46v13.63h-1.1l-.3-1h-.04c-.11.14-.24.29-.4.44-.15.15-.33.28-.53.4-.2.12-.44.21-.71.29-.27.07-.58.11-.93.11-.49,0-.97-.08-1.44-.25-.47-.17-.89-.43-1.26-.8s-.66-.84-.89-1.42-.34-1.29-.34-2.12Zm1.53-.02c0,.51.06.98.17,1.4.12.42.28.77.5,1.06.22.29.49.52.81.67.32.16.69.24,1.1.24.31,0,.59-.04.84-.12.25-.08.48-.19.67-.31.2-.13.37-.26.51-.4s.25-.27.33-.39v-4.68c-.3-.31-.65-.55-1.05-.74-.4-.19-.82-.28-1.28-.28-.28,0-.57.05-.87.16-.3.1-.59.29-.85.56-.26.27-.48.63-.65,1.09s-.25,1.04-.25,1.75Z"/><path class="cls-1" d="m120.53,141.26c0-.62.06-1.17.18-1.65.12-.48.28-.9.48-1.26.2-.36.44-.66.71-.9.27-.24.55-.44.84-.59.29-.15.58-.26.88-.33.3-.07.58-.1.84-.1.55,0,1.02.09,1.42.27.4.18.76.45,1.08.8h.03v-5.53h1.46v13.63h-1.1l-.3-1h-.04c-.11.14-.24.29-.4.44-.15.15-.33.28-.53.4-.2.12-.44.21-.71.29-.27.07-.58.11-.93.11-.49,0-.97-.08-1.44-.25-.47-.17-.89-.43-1.26-.8s-.66-.84-.89-1.42-.34-1.29-.34-2.12Zm1.53-.02c0,.51.06.98.17,1.4.12.42.28.77.5,1.06.22.29.49.52.81.67.32.16.69.24,1.1.24.31,0,.59-.04.84-.12.25-.08.48-.19.67-.31.2-.13.37-.26.51-.4s.25-.27.33-.39v-4.68c-.3-.31-.65-.55-1.05-.74-.4-.19-.82-.28-1.28-.28-.28,0-.57.05-.87.16-.3.1-.59.29-.85.56-.26.27-.48.63-.65,1.09s-.25,1.04-.25,1.75Z"/><path class="cls-1" d="m135.62,144.58c.48,0,.92-.04,1.32-.12.4-.08.8-.19,1.19-.33v1.21c-.32.16-.72.28-1.19.37s-.98.14-1.52.14c-.64,0-1.24-.08-1.8-.25-.56-.16-1.05-.43-1.46-.79-.41-.36-.73-.84-.97-1.43-.23-.59-.35-1.29-.35-2.12s.11-1.52.34-2.12c.23-.6.53-1.1.9-1.5.38-.4.81-.7,1.3-.9.49-.2,1-.3,1.53-.3.5,0,.97.08,1.4.25.44.17.81.43,1.13.79.32.36.57.82.76,1.38.19.56.28,1.24.28,2.03v.19c0,.05,0,.17,0,.36h-6.18c0,.57.09,1.06.26,1.46s.41.72.71.97c.3.25.65.43,1.05.54.4.11.83.17,1.3.17Zm-.77-6.89c-.34,0-.65.07-.94.2s-.54.31-.76.54c-.22.23-.39.49-.52.8-.13.3-.22.63-.25.97h4.58c0-.35-.05-.68-.14-.98-.09-.3-.23-.57-.41-.79-.18-.23-.4-.4-.66-.53s-.56-.19-.91-.19Z"/><path class="cls-1" d="m145.87,137.86h-.11c-.35,0-.68.03-1.02.09-.33.06-.65.16-.94.29-.29.13-.56.29-.79.48s-.43.41-.59.67v6.23h-1.46v-8.95h1.13l.28,1.42h.03c.14-.23.32-.45.53-.65.21-.2.45-.38.71-.53.26-.15.55-.27.87-.35s.64-.13.99-.13c.06,0,.13,0,.19,0,.07,0,.12,0,.17.01v1.4Z"/></g></svg>