<?xml version="1.0" encoding="utf-8"?>
<!-- Generator: $$$/GeneralStr/196=Adobe Illustrator 27.6.0, SVG Export Plug-In . SVG Version: 6.00 Build 0)  -->
<svg version="1.1" id="Logo" xmlns="http://www.w3.org/2000/svg" xmlns:xlink="http://www.w3.org/1999/xlink" x="0px" y="0px"
	 viewBox="0 0 203.16 49.4" style="enable-background:new 0 0 203.16 49.4;" xml:space="preserve">
<style type="text/css">
	.st0{fill:#EA6F27;}
	.st1{fill:#C30044;}
	.st2{fill:#EA5A1B;}
	.st3{fill:#F5A723;}
	.st4{fill:#F49512;}
	.st5{fill:#F49800;}
	.st6{fill:#F49600;}
	.st7{fill:#FFFFFF;}
	.st8{fill:#4A4A4A;}
</style>
<g id="Gruppe">
	<g id="Kreise__x26__BDRh">
		<g id="Kreise">
			<path class="st0" d="M36.11,47.06c-5.19,0.02-9.85-2.29-12.98-5.94c4.55-0.99,8.42-3.8,10.81-7.62c2.54,1.5,5.51,2.35,8.68,2.34
				c3.89-0.01,7.47-1.32,10.33-3.53C51.83,40.61,44.72,47.03,36.11,47.06z"/>
			<path class="st1" d="M52.93,32.3c0.1-0.77,0.16-1.54,0.15-2.33C53.06,20.56,45.41,12.96,36,12.99c-1.23,0-2.43,0.14-3.59,0.39
				c-1.22-1.43-2.68-2.65-4.31-3.6c3-4.8,8.32-8,14.4-8.02c9.41-0.03,17.06,7.57,17.09,16.98C59.61,24.26,57,29.18,52.93,32.3z"/>
			<path class="st2" d="M42.61,35.83c-3.17,0.01-6.13-0.84-8.68-2.34c1.64-2.63,2.59-5.74,2.58-9.08c-0.01-4.22-1.56-8.07-4.1-11.04
				c1.16-0.25,2.36-0.39,3.59-0.39c9.41-0.03,17.06,7.57,17.09,16.98c0,0.79-0.05,1.57-0.15,2.33
				C50.07,34.5,46.49,35.81,42.61,35.83"/>
			<path class="st3" d="M19.53,41.5c-9.41,0.03-17.06-7.57-17.09-16.98C2.42,15.11,10.02,7.46,19.43,7.43
				c3.17-0.01,6.13,0.84,8.68,2.34c-1.25,2-2.1,4.29-2.43,6.74c-4.06,3.12-6.68,8.04-6.66,13.56c0.01,4.22,1.56,8.07,4.1,11.04
				C21.96,41.37,20.76,41.5,19.53,41.5"/>
			<path class="st4" d="M25.67,16.51c0.33-2.45,1.18-4.73,2.43-6.74c1.63,0.96,3.08,2.18,4.31,3.6
				C29.92,13.92,27.63,15.01,25.67,16.51z"/>
			<path class="st5" d="M23.12,41.11c-2.55-2.97-4.09-6.82-4.1-11.04C19,24.55,21.61,19.63,25.68,16.5
				c-0.1,0.77-0.16,1.54-0.15,2.33c0.02,6.24,3.4,11.69,8.41,14.64C31.54,37.31,27.68,40.12,23.12,41.11"/>
			<path class="st6" d="M33.93,33.49c-5.02-2.95-8.39-8.4-8.41-14.64c0-0.79,0.05-1.57,0.15-2.33c1.95-1.5,4.24-2.59,6.74-3.14
				c2.55,2.97,4.09,6.82,4.1,11.04C36.52,27.75,35.58,30.86,33.93,33.49"/>
		</g>
		<g id="BDRh">
			<path class="st7" d="M11.72,20.57h3.06c1.39,0,2.4,0.2,3.03,0.59c0.63,0.4,0.94,1.03,0.94,1.89c0,0.59-0.14,1.07-0.41,1.44
				s-0.64,0.6-1.1,0.68v0.07c0.62,0.14,1.07,0.4,1.35,0.78s0.41,0.89,0.41,1.52c0,0.9-0.32,1.59-0.97,2.1
				c-0.65,0.5-1.53,0.75-2.64,0.75h-3.67V20.57z M13.81,24.46h1.21c0.56,0,0.97-0.09,1.23-0.26c0.25-0.17,0.38-0.46,0.38-0.87
				c0-0.38-0.14-0.65-0.41-0.81c-0.28-0.16-0.71-0.25-1.31-0.25h-1.09V24.46z M13.81,26.11v2.56h1.36c0.57,0,1-0.11,1.27-0.33
				c0.27-0.22,0.41-0.56,0.41-1.01c0-0.82-0.58-1.22-1.75-1.22H13.81z"/>
			<path class="st7" d="M29,25.38c0,1.62-0.46,2.86-1.38,3.72c-0.92,0.86-2.25,1.29-3.99,1.29h-2.78v-9.82h3.08
				c1.6,0,2.85,0.42,3.74,1.27C28.55,22.68,29,23.87,29,25.38z M26.83,25.44c0-2.11-0.93-3.16-2.79-3.16h-1.11v6.4h0.89
				C25.83,28.67,26.83,27.59,26.83,25.44z"/>
			<path class="st7" d="M32.91,26.62v3.77h-2.08v-9.82h2.86c1.33,0,2.32,0.24,2.96,0.73c0.64,0.49,0.96,1.22,0.96,2.21
				c0,0.58-0.16,1.09-0.48,1.54c-0.32,0.45-0.77,0.8-1.35,1.06c1.48,2.21,2.44,3.64,2.89,4.28h-2.31l-2.34-3.77H32.91z M32.91,24.93
				h0.67c0.66,0,1.14-0.11,1.46-0.33c0.31-0.22,0.47-0.56,0.47-1.03c0-0.47-0.16-0.8-0.48-0.99c-0.32-0.2-0.82-0.3-1.49-0.3h-0.63
				V24.93z"/>
			<path class="st7" d="M46.7,30.39h-2.05V26c0-1.08-0.4-1.63-1.21-1.63c-0.57,0-0.99,0.2-1.24,0.58c-0.25,0.39-0.38,1.02-0.38,1.89
				v3.53h-2.05V19.94h2.05v2.13c0,0.17-0.02,0.55-0.05,1.17l-0.05,0.6h0.11c0.46-0.73,1.18-1.1,2.18-1.1c0.88,0,1.55,0.24,2.01,0.71
				s0.69,1.16,0.69,2.04V30.39z"/>
		</g>
	</g>
	<g id="Text">
		<path class="st8" d="M76.66,7.61h2.99c1.16,0,2.03,0.17,2.59,0.52c0.56,0.35,0.85,0.88,0.85,1.61c0,0.48-0.12,0.89-0.37,1.23
			s-0.57,0.56-0.97,0.66v0.06c0.53,0.14,0.92,0.38,1.15,0.7s0.36,0.75,0.36,1.28c0,0.78-0.29,1.39-0.88,1.84S81,16.18,80,16.18
			h-3.33V7.61z M78.98,10.9h0.7c0.33,0,0.59-0.07,0.77-0.21s0.27-0.34,0.27-0.61c0-0.48-0.36-0.72-1.09-0.72h-0.65V10.9z
			 M78.98,12.59v1.8h0.81c0.72,0,1.08-0.3,1.08-0.91c0-0.29-0.1-0.5-0.29-0.66s-0.47-0.23-0.84-0.23H78.98z"/>
		<path class="st8" d="M89.66,16.18h-5.09V7.61h5.09v1.86h-2.77v1.35h2.57v1.86h-2.57v1.62h2.77V16.18z"/>
		<path class="st8" d="M93.41,13.06v3.12h-2.31V7.61h2.81c2.33,0,3.49,0.84,3.49,2.53c0,0.99-0.48,1.76-1.45,2.3l2.5,3.73h-2.62
			l-1.82-3.12H93.41z M93.41,11.32h0.43c0.81,0,1.21-0.36,1.21-1.07c0-0.59-0.4-0.88-1.19-0.88h-0.46V11.32z"/>
		<path class="st8" d="M106.12,7.61v5.16c0,1.12-0.32,1.99-0.95,2.6s-1.55,0.92-2.75,0.92c-1.17,0-2.07-0.3-2.69-0.9
			s-0.94-1.46-0.94-2.58V7.61h2.33v5.03c0,0.61,0.11,1.04,0.34,1.32s0.56,0.41,1,0.41c0.47,0,0.82-0.14,1.03-0.41
			s0.32-0.72,0.32-1.33V7.61H106.12z"/>
		<path class="st8" d="M110.01,16.18h-2.28V7.61h5.06v1.86h-2.78v1.63h2.57v1.86h-2.57V16.18z"/>
		<path class="st8" d="M119.62,13.58c0,0.53-0.13,1-0.4,1.42s-0.66,0.73-1.17,0.96c-0.51,0.23-1.1,0.34-1.79,0.34
			c-0.57,0-1.05-0.04-1.44-0.12s-0.79-0.22-1.21-0.42v-2.06c0.44,0.23,0.9,0.4,1.38,0.53s0.91,0.19,1.31,0.19
			c0.34,0,0.6-0.06,0.76-0.18s0.24-0.27,0.24-0.46c0-0.12-0.03-0.22-0.1-0.31s-0.17-0.18-0.31-0.27s-0.52-0.27-1.14-0.55
			c-0.56-0.25-0.98-0.5-1.26-0.74s-0.49-0.51-0.62-0.82s-0.2-0.67-0.2-1.1c0-0.79,0.29-1.4,0.86-1.85c0.57-0.44,1.36-0.66,2.37-0.66
			c0.89,0,1.79,0.21,2.71,0.62l-0.71,1.79c-0.8-0.37-1.49-0.55-2.07-0.55c-0.3,0-0.52,0.05-0.66,0.16s-0.21,0.24-0.21,0.39
			c0,0.17,0.09,0.32,0.26,0.45s0.65,0.38,1.42,0.73c0.74,0.33,1.25,0.69,1.54,1.07S119.62,13,119.62,13.58z"/>
		<path class="st8" d="M125.86,7.61h2.59l-2.81,8.57h-2.72l-2.79-8.57h2.6l1.17,4.34c0.24,0.96,0.38,1.64,0.4,2.02
			c0.03-0.27,0.08-0.62,0.16-1.03s0.15-0.73,0.22-0.97L125.86,7.61z"/>
		<path class="st8" d="M134.33,16.18h-5.09V7.61h5.09v1.86h-2.77v1.35h2.57v1.86h-2.57v1.62h2.77V16.18z"/>
		<path class="st8" d="M138.07,13.06v3.12h-2.31V7.61h2.81c2.33,0,3.49,0.84,3.49,2.53c0,0.99-0.48,1.76-1.45,2.3l2.5,3.73h-2.62
			l-1.82-3.12H138.07z M138.07,11.32h0.43c0.81,0,1.21-0.36,1.21-1.07c0-0.59-0.4-0.88-1.19-0.88h-0.46V11.32z"/>
		<path class="st8" d="M143.85,7.61h2.99c1.16,0,2.03,0.17,2.59,0.52c0.56,0.35,0.85,0.88,0.85,1.61c0,0.48-0.12,0.89-0.37,1.23
			s-0.57,0.56-0.97,0.66v0.06c0.53,0.14,0.92,0.38,1.15,0.7s0.36,0.75,0.36,1.28c0,0.78-0.29,1.39-0.88,1.84s-1.38,0.67-2.39,0.67
			h-3.33V7.61z M146.16,10.9h0.7c0.33,0,0.59-0.07,0.77-0.21s0.27-0.34,0.27-0.61c0-0.48-0.36-0.72-1.09-0.72h-0.65V10.9z
			 M146.16,12.59v1.8h0.81c0.72,0,1.08-0.3,1.08-0.91c0-0.29-0.1-0.5-0.29-0.66s-0.47-0.23-0.84-0.23H146.16z"/>
		<path class="st8" d="M156.97,16.18l-0.42-1.61h-2.78l-0.43,1.61h-2.54l2.79-8.6h3.09l2.83,8.6H156.97z M156.07,12.67l-0.37-1.41
			c-0.09-0.31-0.19-0.72-0.31-1.21s-0.2-0.85-0.24-1.07c-0.04,0.2-0.1,0.53-0.21,0.98s-0.33,1.36-0.69,2.7H156.07z"/>
		<path class="st8" d="M168.48,16.18h-3.04l-3.13-6.04h-0.05c0.07,0.95,0.11,1.67,0.11,2.17v3.86h-2.05V7.61h3.02l3.12,5.95h0.04
			c-0.05-0.86-0.08-1.56-0.08-2.08V7.61h2.06V16.18z"/>
		<path class="st8" d="M177.41,11.71c0,1.43-0.39,2.53-1.18,3.3s-1.89,1.16-3.32,1.16h-2.77V7.61h2.96c1.38,0,2.44,0.35,3.18,1.05
			S177.41,10.38,177.41,11.71z M175,11.79c0-0.79-0.16-1.37-0.47-1.75s-0.78-0.57-1.42-0.57h-0.67v4.8h0.52
			c0.7,0,1.22-0.2,1.55-0.61S175,12.63,175,11.79z"/>
		<path class="st8" d="M83.83,24.31c0,1.41-0.39,2.5-1.18,3.24s-1.92,1.12-3.39,1.12h-2.4v-8.57h2.65c1.36,0,2.42,0.37,3.18,1.1
			S83.83,22.98,83.83,24.31z M82.36,24.36c0-2.05-0.96-3.08-2.88-3.08h-1.21v6.22h1C81.33,27.5,82.36,26.45,82.36,24.36z"/>
		<path class="st8" d="M90.21,28.68h-4.85v-8.57h4.85v1.18h-3.45v2.33h3.23v1.17h-3.23v2.69h3.45V28.68z"/>
		<path class="st8" d="M98.41,20.11v5.54c0,0.63-0.14,1.19-0.41,1.66s-0.66,0.84-1.18,1.1s-1.13,0.38-1.84,0.38
			c-1.06,0-1.89-0.28-2.48-0.84s-0.88-1.34-0.88-2.32v-5.52h1.41v5.42c0,0.71,0.16,1.23,0.49,1.56s0.83,0.5,1.51,0.5
			c1.32,0,1.98-0.69,1.98-2.08v-5.41H98.41z"/>
		<path class="st8" d="M103.4,28.68H102v-7.37h-2.52v-1.2h6.44v1.2h-2.52V28.68z"/>
		<path class="st8" d="M112.12,26.35c0,0.76-0.28,1.36-0.83,1.79s-1.31,0.65-2.28,0.65s-1.76-0.15-2.38-0.45v-1.32
			c0.39,0.18,0.81,0.33,1.25,0.43s0.85,0.16,1.23,0.16c0.55,0,0.96-0.11,1.23-0.32s0.4-0.49,0.4-0.85c0-0.32-0.12-0.59-0.36-0.81
			s-0.74-0.49-1.5-0.79c-0.78-0.32-1.33-0.68-1.65-1.08s-0.48-0.89-0.48-1.46c0-0.71,0.25-1.28,0.76-1.69s1.19-0.62,2.04-0.62
			c0.82,0,1.64,0.18,2.45,0.54l-0.45,1.14c-0.76-0.32-1.44-0.48-2.04-0.48c-0.45,0-0.8,0.1-1.03,0.3s-0.35,0.46-0.35,0.78
			c0,0.22,0.05,0.41,0.14,0.57s0.25,0.31,0.46,0.45s0.6,0.33,1.16,0.56c0.63,0.26,1.09,0.51,1.38,0.73s0.51,0.48,0.64,0.77
			S112.12,25.96,112.12,26.35z"/>
		<path class="st8" d="M117.19,21.19c-0.8,0-1.44,0.29-1.9,0.86s-0.69,1.36-0.69,2.36c0,1.05,0.22,1.85,0.67,2.38
			s1.08,0.81,1.92,0.81c0.36,0,0.71-0.04,1.05-0.11s0.69-0.17,1.06-0.28v1.2c-0.67,0.25-1.43,0.38-2.29,0.38
			c-1.25,0-2.22-0.38-2.89-1.14s-1.01-1.85-1.01-3.26c0-0.89,0.16-1.67,0.49-2.34s0.8-1.18,1.42-1.54s1.34-0.53,2.17-0.53
			c0.88,0,1.68,0.18,2.43,0.55l-0.5,1.17c-0.29-0.14-0.59-0.26-0.92-0.36S117.55,21.19,117.19,21.19z"/>
		<path class="st8" d="M127.6,28.68h-1.41v-3.86h-3.95v3.86h-1.4v-8.57h1.4v3.5h3.95v-3.5h1.41V28.68z"/>
		<path class="st8" d="M134.41,28.68h-4.85v-8.57h4.85v1.18h-3.45v2.33h3.23v1.17h-3.23v2.69h3.45V28.68z"/>
		<path class="st8" d="M137.35,25.25v3.42h-1.4v-8.57h2.42c1.11,0,1.92,0.21,2.46,0.62s0.8,1.04,0.8,1.88
			c0,1.07-0.55,1.83-1.66,2.28l2.42,3.79h-1.59l-2.05-3.42H137.35z M137.35,24.09h0.97c0.65,0,1.12-0.12,1.42-0.36
			s0.44-0.6,0.44-1.08c0-0.48-0.16-0.83-0.47-1.04s-0.79-0.32-1.43-0.32h-0.93V24.09z"/>
		<path class="st8" d="M78.27,37.75v3.42h-1.4v-8.57h2.42c1.11,0,1.92,0.21,2.46,0.62s0.8,1.04,0.8,1.88c0,1.07-0.55,1.83-1.66,2.28
			l2.42,3.79H81.7l-2.05-3.42H78.27z M78.27,36.59h0.97c0.65,0,1.12-0.12,1.42-0.36s0.44-0.6,0.44-1.08c0-0.48-0.16-0.83-0.47-1.04
			s-0.79-0.32-1.43-0.32h-0.93V36.59z"/>
		<path class="st8" d="M91.12,41.18h-1.41v-3.86h-3.95v3.86h-1.4v-8.57h1.4v3.5h3.95v-3.5h1.41V41.18z"/>
		<path class="st8" d="M97.93,41.18h-4.85v-8.57h4.85v1.18h-3.45v2.33h3.23v1.17h-3.23v2.69h3.45V41.18z"/>
		<path class="st8" d="M106.13,32.61v5.54c0,0.63-0.14,1.19-0.41,1.66s-0.66,0.84-1.18,1.1s-1.13,0.38-1.84,0.38
			c-1.06,0-1.89-0.28-2.48-0.84s-0.88-1.34-0.88-2.32v-5.52h1.41v5.42c0,0.71,0.16,1.23,0.49,1.56s0.83,0.5,1.51,0.5
			c1.32,0,1.98-0.69,1.98-2.08v-5.41H106.13z"/>
		<path class="st8" d="M111.74,41.18l-2.48-7.15h-0.05c0.07,1.06,0.1,2.06,0.1,2.99v4.17h-1.27v-8.57h1.97l2.38,6.81h0.04l2.45-6.81
			h1.98v8.57h-1.35v-4.24c0-0.43,0.01-0.98,0.03-1.66s0.04-1.1,0.06-1.24h-0.05l-2.57,7.14H111.74z"/>
		<path class="st8" d="M124.31,41.18l-0.86-2.38h-3.28l-0.84,2.38h-1.48l3.21-8.6h1.52l3.21,8.6H124.31z M123.09,37.59l-0.8-2.33
			c-0.06-0.16-0.14-0.4-0.24-0.74s-0.17-0.58-0.21-0.74c-0.11,0.48-0.26,1.01-0.46,1.58l-0.77,2.23H123.09z"/>
		<path class="st8" d="M129,41.18h-1.4v-7.37h-2.52v-1.2h6.44v1.2H129V41.18z"/>
		<path class="st8" d="M140.08,36.88c0,1.39-0.35,2.48-1.05,3.25s-1.68,1.16-2.96,1.16c-1.29,0-2.29-0.38-2.98-1.15
			s-1.04-1.86-1.04-3.27s0.35-2.5,1.05-3.26s1.69-1.14,2.99-1.14c1.27,0,2.26,0.38,2.95,1.15S140.08,35.48,140.08,36.88z
			 M133.54,36.88c0,1.05,0.21,1.85,0.64,2.4s1.06,0.82,1.89,0.82c0.83,0,1.46-0.27,1.88-0.81s0.64-1.34,0.64-2.41
			c0-1.05-0.21-1.85-0.63-2.39s-1.05-0.81-1.88-0.81c-0.84,0-1.47,0.27-1.9,0.81S133.54,35.83,133.54,36.88z"/>
		<path class="st8" d="M141.64,41.18v-8.57h1.4v7.37h3.63v1.2H141.64z"/>
		<path class="st8" d="M155.31,36.88c0,1.39-0.35,2.48-1.05,3.25s-1.68,1.16-2.96,1.16c-1.29,0-2.29-0.38-2.98-1.15
			s-1.04-1.86-1.04-3.27s0.35-2.5,1.05-3.26s1.69-1.14,2.99-1.14c1.27,0,2.26,0.38,2.95,1.15S155.31,35.48,155.31,36.88z
			 M148.78,36.88c0,1.05,0.21,1.85,0.64,2.4s1.06,0.82,1.89,0.82c0.83,0,1.46-0.27,1.88-0.81s0.64-1.34,0.64-2.41
			c0-1.05-0.21-1.85-0.63-2.39s-1.05-0.81-1.88-0.81c-0.84,0-1.47,0.27-1.9,0.81S148.78,35.83,148.78,36.88z"/>
		<path class="st8" d="M160.41,36.53h3.15v4.3c-0.52,0.17-1.01,0.29-1.49,0.36s-0.99,0.11-1.54,0.11c-1.3,0-2.3-0.38-3-1.15
			s-1.05-1.85-1.05-3.25c0-1.38,0.4-2.46,1.19-3.24s1.88-1.17,3.28-1.17c0.89,0,1.74,0.17,2.54,0.52L163,34.17
			c-0.7-0.32-1.39-0.48-2.09-0.48c-0.91,0-1.64,0.29-2.17,0.86s-0.8,1.36-0.8,2.36c0,1.05,0.24,1.84,0.72,2.39s1.17,0.82,2.07,0.82
			c0.45,0,0.94-0.06,1.45-0.17v-2.21h-1.78V36.53z"/>
		<path class="st8" d="M170.2,41.18h-4.85v-8.57h4.85v1.18h-3.45v2.33h3.23v1.17h-3.23v2.69h3.45V41.18z"/>
		<path class="st8" d="M178.88,41.18h-1.72l-4.21-6.83h-0.05l0.03,0.38c0.05,0.73,0.08,1.39,0.08,1.99v4.45h-1.27v-8.57h1.7
			l4.2,6.79h0.04c-0.01-0.09-0.02-0.42-0.05-0.98s-0.04-1-0.04-1.32v-4.49h1.28V41.18z"/>
		<path class="st8" d="M188.6,41.18h-4.85v-8.57h4.85v1.18h-3.45v2.33h3.23v1.17h-3.23v2.69h3.45V41.18z"/>
		<path class="st8" d="M189.99,40.44c0-0.29,0.07-0.5,0.22-0.66s0.36-0.23,0.64-0.23c0.29,0,0.5,0.08,0.65,0.24s0.22,0.37,0.22,0.65
			c0,0.28-0.08,0.5-0.23,0.66s-0.37,0.24-0.65,0.24s-0.5-0.08-0.64-0.24S189.99,40.73,189.99,40.44z"/>
		<path class="st8" d="M197.58,32.61h1.45l-3,8.57h-1.48l-2.99-8.57h1.44l1.79,5.33c0.09,0.25,0.19,0.58,0.3,0.98
			s0.17,0.7,0.21,0.89c0.05-0.3,0.13-0.64,0.23-1.03s0.19-0.68,0.26-0.87L197.58,32.61z"/>
		<path class="st8" d="M198.87,40.44c0-0.29,0.07-0.5,0.22-0.66s0.36-0.23,0.64-0.23c0.29,0,0.5,0.08,0.65,0.24s0.22,0.37,0.22,0.65
			c0,0.28-0.08,0.5-0.23,0.66s-0.37,0.24-0.65,0.24s-0.5-0.08-0.64-0.24S198.87,40.73,198.87,40.44z"/>
	</g>
</g>
</svg>
