<?xml version="1.0" encoding="UTF-8"?>
<svg width="120px" height="60px" viewBox="0 0 120 60" version="1.1" xmlns="http://www.w3.org/2000/svg" xmlns:xlink="http://www.w3.org/1999/xlink">
    <title>Logo weiß auf orange</title>
    <g id="Logo" stroke="none" stroke-width="1" fill="none" fill-rule="evenodd">
        <g id="Logoinner" transform="translate(-116.000000, -35.000000)">
            <g id="Group-6" transform="translate(116.000000, 35.000000)">
                <polygon id="Fill-1" fill="#FE5000" points="0 60 120 60 120 0 0 0"></polygon>
                <polygon id="Fill-2" fill="#FFFFFF" points="32.4302763 42.3529412 32.4302763 32.0109523 23.1582019 32.0109523 23.1582019 42.3529412 14.1176471 42.3529412 14.1176471 17.6470588 23.1582019 17.6470588 23.1582019 27.6442545 32.4302763 27.6442545 32.4302763 17.6470588 41.4705882 17.6470588 41.4705882 42.3529412"></polygon>
                <polygon id="Fill-3" fill="#FFFFFF" points="68.4997628 42.3529412 52.4599413 29.7126523 52.4599413 42.3529412 46.7647059 42.3529412 46.7647059 17.6470588 51.8014213 17.6470588 68.267344 30.7852084 68.267344 17.6470588 74.1176471 17.6470588 74.1176471 42.3529412"></polygon>
                <path d="M92.6471185,19.9627886 C89.6090909,19.9627886 87.2167562,23.5845121 87.2167562,29.1330324 C87.2167562,34.6043838 88.5838387,39.7290209 92.6471185,39.7290209 C96.7103983,39.7290209 98.1154488,34.6043838 98.1154488,29.1330324 C98.1154488,23.5845121 95.6850267,19.9627886 92.6471185,19.9627886 M92.6471185,43.2352941 C84.3307195,43.2352941 77.6470588,38.0337306 77.6470588,29.9806775 C77.6470588,22.0047933 84.3307195,16.7647059 92.6471185,16.7647059 C100.963518,16.7647059 107.647059,22.0047933 107.647059,29.9806775 C107.647059,38.0337306 100.963518,43.2352941 92.6471185,43.2352941" id="Fill-4" fill="#FFFFFF"></path>
            </g>
        </g>
    </g>
</svg>