<?xml version="1.0" encoding="utf-8"?>
<!-- Generator: Adobe Illustrator 15.0.1, SVG Export Plug-In  -->
<!DOCTYPE svg PUBLIC "-//W3C//DTD SVG 1.1//EN" "http://www.w3.org/Graphics/SVG/1.1/DTD/svg11.dtd" [
	<!ENTITY ns_flows "http://ns.adobe.com/Flows/1.0/">
]>
<svg version="1.1"
	 xmlns="http://www.w3.org/2000/svg" xmlns:xlink="http://www.w3.org/1999/xlink" xmlns:a="http://ns.adobe.com/AdobeSVGViewerExtensions/3.0/"
	 x="0px" y="0px" width="458px" height="61px" viewBox="-13.4 6.9 458 61"
	 style="overflow:visible;enable-background:new -13.4 6.9 458 61;" xml:space="preserve">
<style type="text/css">
<![CDATA[
	.st0{fill:none;stroke:#707173;stroke-width:1.8968;stroke-miterlimit:3.8637;}
	.st1{fill:none;stroke:#707173;stroke-width:1.0001;stroke-miterlimit:3.8637;}
	.st2{fill:#EC763E;}
	.st3{fill:none;stroke:#707173;stroke-width:3.7932;stroke-miterlimit:3.8637;}
	.st4{fill:#707173;}
]]>
</style>
<defs>
</defs>
<line class="st1" x1="131.3" y1="0" x2="131.3" y2="60.7"/>
<path class="st4" d="M147.1,52.3l6.8-17.3h1.8l6.6,17.3h-1.7l-2-5.4h-7.9l-2,5.4H147.1L147.1,52.3z M151.4,45.5h6.8l-3.4-9.1
	L151.4,45.5L151.4,45.5z"/>
<path class="st4" d="M165.7,52.3h-1.4V39.9h1.4v1.9h0c0.4-0.7,0.9-1.3,1.6-1.6c0.7-0.4,1.4-0.6,2.3-0.6c0.6,0,1.1,0.1,1.5,0.2
	c0.4,0.1,0.7,0.3,1,0.5c0.3,0.2,0.5,0.5,0.7,0.7c0.2,0.3,0.4,0.6,0.5,0.9c0.4-0.8,1-1.4,1.7-1.8c0.7-0.4,1.5-0.6,2.4-0.6
	c0.8,0,1.5,0.1,2,0.4c0.5,0.3,0.9,0.6,1.2,1.1c0.3,0.4,0.4,1,0.5,1.6c0.1,0.6,0.1,1.2,0.1,1.8v7.8h-1.4v-8.6c0-0.9-0.2-1.6-0.6-2.1
	c-0.4-0.5-1.1-0.8-2.1-0.8c-0.5,0-1,0.1-1.5,0.4c-0.5,0.2-0.9,0.6-1.3,1.1c-0.2,0.2-0.3,0.5-0.4,0.7c-0.1,0.3-0.2,0.6-0.2,0.9
	c-0.1,0.3-0.1,0.6-0.1,0.9c0,0.3,0,0.6,0,0.8v6.7H172v-8.6c0-0.9-0.2-1.6-0.6-2.1c-0.4-0.5-1.1-0.8-2.1-0.8c-0.5,0-1,0.1-1.5,0.4
	c-0.5,0.2-0.9,0.6-1.3,1.1c-0.2,0.2-0.3,0.5-0.4,0.7c-0.1,0.3-0.2,0.6-0.2,0.9c-0.1,0.3-0.1,0.6-0.1,0.9c0,0.3,0,0.6,0,0.8
	L165.7,52.3L165.7,52.3z"/>
<path class="st4" d="M186.1,46.1c0,0.8,0.1,1.5,0.3,2.1c0.2,0.6,0.5,1.2,0.8,1.7c0.4,0.5,0.8,0.8,1.3,1.1c0.5,0.3,1.1,0.4,1.8,0.4
	c0.6,0,1.2-0.1,1.7-0.3c0.5-0.2,1-0.5,1.3-1c0.4-0.4,0.7-0.9,0.9-1.5c0.2-0.6,0.3-1.3,0.3-2.1c0-0.8,0-1.5-0.2-2.2
	c-0.2-0.7-0.4-1.3-0.8-1.8s-0.8-0.9-1.4-1.2c-0.5-0.3-1.2-0.5-1.9-0.5c-0.7,0-1.2,0.1-1.8,0.4c-0.5,0.3-1,0.6-1.3,1.1
	c-0.4,0.5-0.6,1-0.8,1.7C186.2,44.7,186.1,45.4,186.1,46.1L186.1,46.1z M186.1,52.3h-1.4V35.1h1.4v6.8c0.5-0.8,1.1-1.3,1.9-1.7
	c0.8-0.4,1.7-0.6,2.5-0.6c0.9,0,1.8,0.2,2.4,0.6c0.7,0.4,1.3,0.8,1.7,1.4c0.5,0.6,0.8,1.3,1,2.1c0.2,0.8,0.3,1.6,0.3,2.5
	c0,0.9-0.1,1.8-0.3,2.6c-0.2,0.8-0.5,1.5-1,2.1c-0.4,0.6-1,1-1.7,1.4c-0.7,0.3-1.6,0.5-2.6,0.5c-0.4,0-0.8-0.1-1.2-0.2
	c-0.4-0.1-0.8-0.3-1.2-0.5c-0.4-0.2-0.7-0.5-1.1-0.8c-0.3-0.3-0.6-0.7-0.8-1.1h0L186.1,52.3L186.1,52.3z"/>
<path class="st4" d="M207.5,39.9h1.4v12.4h-1.4v-1.7c-0.2,0.2-0.4,0.5-0.6,0.7c-0.2,0.2-0.5,0.5-0.8,0.7c-0.3,0.2-0.7,0.4-1.1,0.5
	c-0.4,0.1-0.9,0.2-1.4,0.2c-0.8,0-1.5-0.1-2.1-0.3c-0.6-0.2-1-0.6-1.4-1c-0.3-0.4-0.6-0.9-0.7-1.4c-0.1-0.6-0.2-1.2-0.2-1.8v-8.2
	h1.4v8.2c0,1.1,0.2,1.9,0.7,2.5c0.5,0.6,1.3,0.8,2.4,0.8c0.6,0,1.1-0.1,1.6-0.3c0.5-0.2,0.9-0.6,1.2-1c0.3-0.4,0.6-0.9,0.7-1.5
	c0.2-0.6,0.3-1.2,0.3-1.9L207.5,39.9L207.5,39.9z"/>
<polygon class="st4" points="212.7,52.3 212.7,35.1 214.1,35.1 214.1,52.3 "/>
<path class="st4" d="M225.9,45.8c-0.6,0.3-1.2,0.4-1.8,0.5c-0.6,0.1-1.2,0.1-1.9,0.2c-1.1,0.1-2,0.3-2.6,0.7c-0.6,0.4-0.9,1-0.9,1.9
	c0,0.4,0.1,0.7,0.2,1c0.2,0.3,0.4,0.5,0.6,0.7c0.3,0.2,0.5,0.3,0.9,0.4c0.3,0.1,0.7,0.1,1,0.1c0.6,0,1.1-0.1,1.7-0.2
	c0.5-0.1,1-0.4,1.4-0.6c0.4-0.3,0.8-0.7,1-1.1c0.3-0.5,0.4-1,0.4-1.6L225.9,45.8L225.9,45.8z M223.5,45.1c0.3,0,0.6-0.1,1-0.1
	c0.4-0.1,0.7-0.2,0.9-0.3c0.2-0.1,0.4-0.3,0.4-0.6c0.1-0.3,0.1-0.5,0.1-0.7c0-0.7-0.2-1.3-0.7-1.8c-0.5-0.5-1.3-0.7-2.4-0.7
	c-0.5,0-1,0-1.4,0.1c-0.4,0.1-0.8,0.2-1.1,0.5c-0.3,0.2-0.6,0.5-0.8,0.9c-0.2,0.4-0.3,0.8-0.4,1.3h-1.5c0-0.7,0.2-1.4,0.5-1.9
	c0.3-0.5,0.7-1,1.1-1.3c0.5-0.3,1-0.6,1.6-0.7c0.6-0.2,1.2-0.2,1.9-0.2c0.6,0,1.2,0.1,1.8,0.2c0.6,0.1,1,0.3,1.4,0.6
	c0.4,0.3,0.7,0.7,1,1.2c0.2,0.5,0.4,1.1,0.4,1.8v6.8c0,0.6,0.1,0.9,0.3,1.1c0.2,0.1,0.6,0.1,1.2-0.1v1.1c-0.1,0-0.3,0.1-0.5,0.1
	c-0.2,0.1-0.4,0.1-0.6,0.1c-0.2,0-0.4,0-0.6-0.1c-0.2,0-0.4-0.1-0.6-0.2c-0.1-0.1-0.3-0.3-0.4-0.4c-0.1-0.2-0.1-0.4-0.2-0.6
	c0-0.2,0-0.4,0-0.6c-0.6,0.7-1.3,1.2-2.1,1.5c-0.8,0.4-1.6,0.5-2.5,0.5c-0.5,0-1.1-0.1-1.6-0.2c-0.5-0.1-0.9-0.4-1.3-0.7
	c-0.4-0.3-0.7-0.7-0.9-1.1c-0.2-0.4-0.3-1-0.3-1.6c0-2.1,1.4-3.4,4.3-3.7L223.5,45.1L223.5,45.1z"/>
<path class="st4" d="M232.6,52.3h-1.4V39.9h1.4v1.7c0.6-0.6,1.2-1.1,1.8-1.5c0.6-0.4,1.4-0.6,2.2-0.6c0.8,0,1.5,0.1,2.1,0.4
	c0.7,0.3,1.2,0.7,1.7,1.4c0.3,0.4,0.5,0.9,0.5,1.4c0.1,0.5,0.1,1,0.1,1.5v8.1h-1.4v-8.1c0-1.1-0.2-2-0.7-2.5
	c-0.5-0.6-1.3-0.8-2.5-0.8c-0.4,0-0.9,0.1-1.2,0.2c-0.4,0.1-0.7,0.3-1,0.5c-0.3,0.2-0.5,0.5-0.7,0.8c-0.2,0.3-0.4,0.6-0.5,0.9
	c-0.1,0.4-0.2,0.8-0.3,1.2c0,0.4,0,0.8,0,1.2V52.3L232.6,52.3z"/>
<path class="st4" d="M248.9,52.4c-0.2,0-0.4,0.1-0.7,0.2c-0.3,0.1-0.6,0.1-1,0.1c-0.7,0-1.3-0.2-1.7-0.5c-0.4-0.4-0.6-1-0.6-1.9
	v-9.1h-1.8v-1.2h1.8v-3.5h1.4v3.5h2.3v1.2h-2.3v8.5c0,0.3,0,0.6,0,0.8c0,0.2,0.1,0.4,0.1,0.6c0.1,0.1,0.2,0.2,0.4,0.3
	c0.2,0.1,0.4,0.1,0.7,0.1c0.2,0,0.4,0,0.6,0c0.2,0,0.4-0.1,0.6-0.1V52.4L248.9,52.4z"/>
<path class="st4" d="M260.2,45.3c0-0.6-0.1-1.2-0.3-1.7c-0.2-0.5-0.4-1-0.7-1.4c-0.3-0.4-0.7-0.7-1.2-0.9c-0.5-0.2-1.1-0.4-1.7-0.4
	c-0.6,0-1.2,0.1-1.7,0.4c-0.5,0.2-0.9,0.6-1.2,1c-0.3,0.4-0.6,0.9-0.8,1.4c-0.2,0.5-0.3,1.1-0.4,1.7H260.2L260.2,45.3z M252,46.5
	c0,0.7,0.1,1.3,0.3,1.9c0.2,0.6,0.4,1.1,0.8,1.6c0.4,0.4,0.8,0.8,1.3,1.1c0.5,0.3,1.1,0.4,1.8,0.4c0.9,0,1.8-0.2,2.4-0.7
	c0.7-0.5,1.1-1.2,1.3-2.1h1.6c-0.2,0.6-0.4,1.1-0.7,1.7c-0.3,0.5-0.6,0.9-1.1,1.3c-0.4,0.4-0.9,0.7-1.5,0.9
	c-0.6,0.2-1.3,0.3-2.1,0.3c-1,0-1.8-0.2-2.6-0.5c-0.7-0.3-1.3-0.8-1.8-1.4c-0.5-0.6-0.8-1.3-1-2.1c-0.2-0.8-0.3-1.7-0.3-2.6
	s0.1-1.8,0.4-2.6c0.3-0.8,0.6-1.5,1.1-2.1c0.5-0.6,1.1-1.1,1.8-1.4c0.7-0.4,1.5-0.5,2.4-0.5c1.7,0,3.1,0.6,4,1.8
	c1,1.2,1.5,2.9,1.4,5.1H252L252,46.5z"/>
<path class="st4" d="M265.3,48.5c0.2,1.1,0.6,1.8,1.2,2.3c0.6,0.4,1.4,0.6,2.5,0.6c0.5,0,1-0.1,1.4-0.2c0.4-0.1,0.7-0.3,0.9-0.5
	c0.3-0.2,0.4-0.5,0.6-0.7c0.1-0.3,0.2-0.6,0.2-0.9c0-0.6-0.2-1.1-0.6-1.3c-0.4-0.3-0.9-0.5-1.5-0.7c-0.6-0.2-1.2-0.3-1.9-0.4
	c-0.7-0.1-1.3-0.3-1.9-0.6c-0.6-0.2-1.1-0.6-1.5-1c-0.4-0.4-0.6-1.1-0.6-1.9c0-1,0.4-1.9,1.1-2.5c0.8-0.7,1.8-1,3.2-1
	c1.3,0,2.4,0.3,3.3,0.9c0.8,0.6,1.4,1.6,1.5,3h-1.5c-0.1-1-0.5-1.6-1.1-2c-0.6-0.4-1.3-0.6-2.3-0.6c-0.9,0-1.6,0.2-2.1,0.6
	c-0.5,0.4-0.7,0.9-0.7,1.5c0,0.6,0.2,1,0.6,1.3c0.4,0.3,0.9,0.5,1.5,0.7c0.6,0.2,1.2,0.3,1.9,0.5c0.7,0.1,1.3,0.4,1.9,0.6
	c0.6,0.3,1.1,0.6,1.5,1.1c0.4,0.4,0.6,1.1,0.6,1.9c0,0.6-0.1,1.1-0.4,1.6c-0.3,0.4-0.6,0.8-1.1,1.1c-0.4,0.3-1,0.5-1.6,0.7
	c-0.6,0.2-1.3,0.2-2,0.2s-1.4-0.1-2-0.3c-0.6-0.2-1-0.5-1.4-0.9c-0.4-0.4-0.7-0.8-0.9-1.3c-0.2-0.5-0.4-1.1-0.4-1.7H265.3
	L265.3,48.5z"/>
<path class="st4" d="M282.7,43.7c0-1.3,0.2-2.4,0.5-3.6c0.4-1.1,0.9-2.1,1.5-2.9c0.7-0.8,1.5-1.5,2.5-2c1-0.5,2.1-0.7,3.4-0.7
	c1.3,0,2.5,0.2,3.5,0.7c1,0.5,1.9,1.1,2.5,1.9c0.7,0.8,1.2,1.8,1.5,2.9c0.4,1.1,0.5,2.3,0.5,3.6c0,1.2-0.2,2.4-0.5,3.5
	c-0.3,1.1-0.8,2-1.5,2.9c-0.7,0.8-1.5,1.5-2.5,1.9s-2.2,0.7-3.5,0.7c-1.3,0-2.5-0.2-3.5-0.7s-1.8-1.1-2.5-1.9
	c-0.7-0.8-1.2-1.8-1.5-2.9C282.9,46.2,282.7,45,282.7,43.7L282.7,43.7z M290.8,51.4c1.1,0,2.1-0.2,2.9-0.6c0.8-0.4,1.5-1,2-1.7
	c0.5-0.7,0.9-1.5,1.2-2.4c0.3-0.9,0.4-1.9,0.4-2.9c0-1.2-0.2-2.3-0.5-3.2c-0.3-1-0.7-1.8-1.3-2.4c-0.6-0.7-1.2-1.2-2-1.5
	c-0.8-0.4-1.7-0.5-2.7-0.5c-1.1,0-2.1,0.2-2.9,0.6c-0.8,0.4-1.5,1-2,1.7c-0.5,0.7-0.9,1.5-1.2,2.4c-0.2,0.9-0.4,1.9-0.4,2.9
	c0,1,0.1,2,0.4,2.9c0.3,0.9,0.6,1.7,1.2,2.4c0.5,0.7,1.2,1.3,2,1.7C288.7,51.2,289.6,51.4,290.8,51.4L290.8,51.4z"/>
<path class="st4" d="M303.5,46.2c0,0.7,0.1,1.4,0.3,2c0.2,0.6,0.5,1.2,0.8,1.7c0.4,0.5,0.8,0.8,1.3,1.1c0.5,0.3,1.1,0.4,1.8,0.4
	c0.7,0,1.4-0.1,1.9-0.4c0.6-0.3,1-0.7,1.4-1.2c0.4-0.5,0.6-1.1,0.8-1.8c0.2-0.7,0.2-1.4,0.2-2.2c0-0.8-0.1-1.5-0.3-2.1
	c-0.2-0.6-0.5-1.1-0.9-1.5c-0.4-0.4-0.8-0.7-1.3-0.9c-0.5-0.2-1.1-0.3-1.7-0.3c-0.7,0-1.3,0.1-1.8,0.4c-0.5,0.3-1,0.6-1.3,1.1
	c-0.4,0.5-0.6,1-0.8,1.7C303.5,44.7,303.5,45.4,303.5,46.2L303.5,46.2z M303.5,57.2H302V39.9h1.4v2.2h0c0.2-0.4,0.5-0.8,0.8-1.1
	c0.3-0.3,0.7-0.6,1.1-0.8c0.4-0.2,0.8-0.4,1.2-0.5c0.4-0.1,0.8-0.2,1.2-0.2c1,0,1.9,0.2,2.6,0.5c0.7,0.3,1.3,0.8,1.7,1.4
	c0.5,0.6,0.8,1.3,1,2.1c0.2,0.8,0.3,1.7,0.3,2.6c0,0.9-0.1,1.7-0.3,2.5s-0.6,1.5-1,2.1c-0.4,0.6-1,1.1-1.7,1.4
	c-0.7,0.4-1.5,0.5-2.4,0.5c-0.9,0-1.7-0.2-2.5-0.6c-0.8-0.4-1.4-1-1.9-1.8L303.5,57.2L303.5,57.2z"/>
<path class="st4" d="M325.5,45.3c0-0.6-0.1-1.2-0.3-1.7c-0.2-0.5-0.4-1-0.7-1.4c-0.3-0.4-0.7-0.7-1.2-0.9c-0.5-0.2-1.1-0.4-1.7-0.4
	c-0.6,0-1.2,0.1-1.7,0.4c-0.5,0.2-0.9,0.6-1.2,1c-0.3,0.4-0.6,0.9-0.8,1.4c-0.2,0.5-0.3,1.1-0.4,1.7H325.5L325.5,45.3z M317.4,46.5
	c0,0.7,0.1,1.3,0.3,1.9c0.2,0.6,0.4,1.1,0.8,1.6c0.4,0.4,0.8,0.8,1.3,1.1c0.5,0.3,1.1,0.4,1.8,0.4c0.9,0,1.8-0.2,2.4-0.7
	c0.7-0.5,1.1-1.2,1.3-2.1h1.6c-0.2,0.6-0.4,1.1-0.7,1.7c-0.3,0.5-0.6,0.9-1.1,1.3c-0.4,0.4-0.9,0.7-1.5,0.9
	c-0.6,0.2-1.3,0.3-2.1,0.3c-1,0-1.8-0.2-2.6-0.5c-0.7-0.3-1.3-0.8-1.8-1.4c-0.5-0.6-0.8-1.3-1-2.1c-0.2-0.8-0.3-1.7-0.3-2.6
	s0.1-1.8,0.4-2.6c0.3-0.8,0.6-1.5,1.1-2.1c0.5-0.6,1.1-1.1,1.8-1.4c0.7-0.4,1.5-0.5,2.4-0.5c1.7,0,3.1,0.6,4,1.8
	c1,1.2,1.5,2.9,1.4,5.1H317.4L317.4,46.5z"/>
<path class="st4" d="M331.4,52.3h-1.4V39.9h1.4v2.3h0c0.4-1,0.9-1.7,1.5-2.1c0.6-0.4,1.5-0.6,2.5-0.6v1.6c-0.8,0-1.5,0.1-2,0.4
	c-0.5,0.3-1,0.6-1.3,1.1c-0.3,0.5-0.5,1-0.6,1.7c-0.1,0.6-0.2,1.3-0.2,2L331.4,52.3L331.4,52.3z"/>
<path class="st4" d="M338.1,52.3V39.9h1.4v12.4H338.1L338.1,52.3z M338,37.2v-2.1h1.6v2.1H338L338,37.2z"/>
<path class="st4" d="M352.2,45.3c0-0.6-0.1-1.2-0.3-1.7c-0.2-0.5-0.4-1-0.7-1.4c-0.3-0.4-0.7-0.7-1.2-0.9c-0.5-0.2-1.1-0.4-1.7-0.4
	c-0.6,0-1.2,0.1-1.7,0.4c-0.5,0.2-0.9,0.6-1.2,1c-0.3,0.4-0.6,0.9-0.8,1.4c-0.2,0.5-0.3,1.1-0.4,1.7H352.2L352.2,45.3z M344.1,46.5
	c0,0.7,0.1,1.3,0.3,1.9c0.2,0.6,0.4,1.1,0.8,1.6c0.4,0.4,0.8,0.8,1.3,1.1c0.5,0.3,1.1,0.4,1.8,0.4c0.9,0,1.8-0.2,2.4-0.7
	s1.1-1.2,1.3-2.1h1.6c-0.2,0.6-0.4,1.1-0.7,1.7c-0.3,0.5-0.6,0.9-1.1,1.3c-0.4,0.4-0.9,0.7-1.5,0.9c-0.6,0.2-1.3,0.3-2.1,0.3
	c-1,0-1.8-0.2-2.6-0.5c-0.7-0.3-1.3-0.8-1.8-1.4c-0.5-0.6-0.8-1.3-1-2.1c-0.2-0.8-0.3-1.7-0.3-2.6s0.1-1.8,0.4-2.6
	c0.3-0.8,0.6-1.5,1.1-2.1c0.5-0.6,1.1-1.1,1.8-1.4c0.7-0.4,1.5-0.5,2.4-0.5c1.7,0,3.1,0.6,4,1.8c1,1.2,1.5,2.9,1.4,5.1H344.1
	L344.1,46.5z"/>
<path class="st4" d="M358,52.3h-1.4V39.9h1.4v2.3h0c0.4-1,0.9-1.7,1.5-2.1c0.6-0.4,1.5-0.6,2.5-0.6v1.6c-0.8,0-1.5,0.1-2,0.4
	c-0.5,0.3-1,0.6-1.3,1.1c-0.3,0.5-0.5,1-0.6,1.7c-0.1,0.6-0.2,1.3-0.2,2L358,52.3L358,52.3z"/>
<path class="st4" d="M373.5,45.3c0-0.6-0.1-1.2-0.3-1.7c-0.2-0.5-0.4-1-0.7-1.4c-0.3-0.4-0.7-0.7-1.2-0.9c-0.5-0.2-1.1-0.4-1.7-0.4
	c-0.6,0-1.2,0.1-1.7,0.4c-0.5,0.2-0.9,0.6-1.2,1c-0.3,0.4-0.6,0.9-0.8,1.4c-0.2,0.5-0.3,1.1-0.4,1.7H373.5L373.5,45.3z M365.4,46.5
	c0,0.7,0.1,1.3,0.3,1.9c0.2,0.6,0.4,1.1,0.8,1.6c0.4,0.4,0.8,0.8,1.3,1.1c0.5,0.3,1.1,0.4,1.8,0.4c0.9,0,1.8-0.2,2.4-0.7
	s1.1-1.2,1.3-2.1h1.6c-0.2,0.6-0.4,1.1-0.7,1.7c-0.3,0.5-0.6,0.9-1.1,1.3c-0.4,0.4-0.9,0.7-1.5,0.9c-0.6,0.2-1.3,0.3-2.1,0.3
	c-1,0-1.8-0.2-2.6-0.5c-0.7-0.3-1.3-0.8-1.8-1.4c-0.5-0.6-0.8-1.3-1-2.1c-0.2-0.8-0.3-1.7-0.3-2.6s0.1-1.8,0.4-2.6
	c0.3-0.8,0.6-1.5,1.1-2.1c0.5-0.6,1.1-1.1,1.8-1.4c0.7-0.4,1.5-0.5,2.4-0.5c1.7,0,3.1,0.6,4,1.8c1,1.2,1.5,2.9,1.4,5.1H365.4
	L365.4,46.5z"/>
<path class="st4" d="M379.3,52.3h-1.4V39.9h1.4v1.7c0.6-0.6,1.2-1.1,1.8-1.5c0.6-0.4,1.4-0.6,2.2-0.6c0.8,0,1.5,0.1,2.1,0.4
	c0.7,0.3,1.2,0.7,1.7,1.4c0.3,0.4,0.5,0.9,0.5,1.4c0.1,0.5,0.1,1,0.1,1.5v8.1h-1.4v-8.1c0-1.1-0.2-2-0.7-2.5
	c-0.5-0.6-1.3-0.8-2.5-0.8c-0.4,0-0.9,0.1-1.2,0.2c-0.4,0.1-0.7,0.3-1,0.5c-0.3,0.2-0.5,0.5-0.7,0.8c-0.2,0.3-0.4,0.6-0.5,0.9
	c-0.1,0.4-0.2,0.8-0.3,1.2c0,0.4,0,0.8,0,1.2V52.3L379.3,52.3z"/>
<path class="st4" d="M406.9,45.3c0-0.6-0.1-1.2-0.3-1.7c-0.2-0.5-0.4-1-0.7-1.4c-0.3-0.4-0.7-0.7-1.2-0.9c-0.5-0.2-1.1-0.4-1.7-0.4
	c-0.6,0-1.2,0.1-1.7,0.4c-0.5,0.2-0.9,0.6-1.2,1c-0.3,0.4-0.6,0.9-0.8,1.4c-0.2,0.5-0.3,1.1-0.4,1.7H406.9L406.9,45.3z M398.8,46.5
	c0,0.7,0.1,1.3,0.3,1.9c0.2,0.6,0.4,1.1,0.8,1.6c0.4,0.4,0.8,0.8,1.3,1.1c0.5,0.3,1.1,0.4,1.8,0.4c0.9,0,1.8-0.2,2.4-0.7
	s1.1-1.2,1.3-2.1h1.6c-0.2,0.6-0.4,1.1-0.7,1.7c-0.3,0.5-0.6,0.9-1.1,1.3c-0.4,0.4-0.9,0.7-1.5,0.9c-0.6,0.2-1.3,0.3-2.1,0.3
	c-1,0-1.8-0.2-2.6-0.5c-0.7-0.3-1.3-0.8-1.8-1.4c-0.5-0.6-0.8-1.3-1-2.1c-0.2-0.8-0.3-1.7-0.3-2.6s0.1-1.8,0.4-2.6
	c0.3-0.8,0.6-1.5,1.1-2.1c0.5-0.6,1.1-1.1,1.8-1.4c0.7-0.4,1.5-0.5,2.4-0.5c1.7,0,3.1,0.6,4,1.8c1,1.2,1.5,2.9,1.4,5.1H398.8
	L398.8,46.5z"/>
<polygon class="st4" points="411.9,52.3 411.9,50.2 413.7,50.2 413.7,52.3 "/>
<polygon class="st4" points="416.6,35.1 418.3,35.1 423.5,50.4 428.7,35.1 430.4,35.1 424.4,52.3 422.6,52.3 "/>
<polygon class="st4" points="433.3,52.3 433.3,50.2 435,50.2 435,52.3 "/>
<path class="st4" d="M150.3,27h4.2c0.9,0,1.7,0,2.3-0.1c0.7-0.1,1.2-0.2,1.7-0.5c0.4-0.3,0.8-0.6,1-1.1c0.2-0.5,0.3-1.1,0.3-1.8
	c0-0.7-0.1-1.3-0.4-1.7c-0.2-0.4-0.6-0.8-1-1c-0.4-0.2-1-0.4-1.6-0.5c-0.6-0.1-1.3-0.1-2.1-0.1h-4.3V27L150.3,27z M150.3,18.7h4.1
	c0.8,0,1.6-0.1,2.1-0.2c0.6-0.1,1-0.4,1.4-0.6c0.4-0.3,0.6-0.6,0.7-1c0.2-0.4,0.2-0.9,0.2-1.4c0-0.5-0.1-1-0.3-1.4
	c-0.2-0.4-0.5-0.7-0.8-0.9c-0.4-0.2-0.9-0.4-1.5-0.5c-0.6-0.1-1.4-0.2-2.3-0.2h-3.8V18.7L150.3,18.7z M148.7,28.3V11.1h6.2
	c1,0,1.9,0.1,2.6,0.3s1.3,0.5,1.8,0.9c0.5,0.4,0.8,0.8,1,1.4c0.2,0.5,0.3,1.1,0.3,1.8c0,0.6-0.1,1.1-0.2,1.6
	c-0.2,0.4-0.4,0.8-0.6,1.1c-0.3,0.3-0.6,0.5-0.9,0.7c-0.3,0.2-0.7,0.3-1,0.3v0c1.2,0.2,2.1,0.6,2.7,1.4c0.6,0.8,0.9,1.7,0.9,2.9
	c0,0.9-0.1,1.7-0.4,2.3c-0.3,0.6-0.7,1.1-1.2,1.5s-1.1,0.7-1.8,0.8c-0.7,0.2-1.4,0.2-2.3,0.2L148.7,28.3L148.7,28.3z"/>
<path class="st4" d="M172.9,15.9h1.4v12.4h-1.4v-1.7c-0.2,0.2-0.4,0.5-0.6,0.7c-0.2,0.2-0.5,0.5-0.8,0.7c-0.3,0.2-0.7,0.4-1.1,0.5
	c-0.4,0.1-0.9,0.2-1.4,0.2c-0.8,0-1.5-0.1-2.1-0.3c-0.6-0.2-1-0.6-1.4-1c-0.3-0.4-0.6-0.9-0.7-1.4c-0.1-0.6-0.2-1.2-0.2-1.8v-8.2
	h1.4v8.2c0,1.1,0.2,1.9,0.7,2.5c0.5,0.6,1.3,0.8,2.4,0.8c0.6,0,1.1-0.1,1.6-0.3c0.5-0.2,0.9-0.6,1.2-1s0.6-0.9,0.7-1.5
	c0.2-0.6,0.3-1.2,0.3-1.9V15.9L172.9,15.9z"/>
<path class="st4" d="M179.3,28.3h-1.4V15.9h1.4v1.7c0.6-0.6,1.2-1.1,1.8-1.5c0.6-0.4,1.4-0.6,2.2-0.6c0.8,0,1.5,0.1,2.1,0.4
	c0.7,0.3,1.2,0.7,1.7,1.4c0.3,0.4,0.5,0.9,0.5,1.4c0.1,0.5,0.1,1,0.1,1.5v8.1h-1.4v-8.1c0-1.1-0.2-2-0.7-2.5
	c-0.5-0.6-1.3-0.8-2.5-0.8c-0.4,0-0.9,0.1-1.2,0.2c-0.4,0.1-0.7,0.3-1,0.5c-0.3,0.2-0.5,0.5-0.7,0.8s-0.4,0.6-0.5,0.9
	c-0.1,0.4-0.2,0.8-0.3,1.2s0,0.8,0,1.2V28.3L179.3,28.3z"/>
<path class="st4" d="M200.8,22.1c0-0.7-0.1-1.4-0.3-2c-0.2-0.6-0.5-1.2-0.8-1.7c-0.4-0.5-0.8-0.9-1.3-1.1c-0.5-0.3-1.1-0.4-1.8-0.4
	c-0.8,0-1.4,0.2-1.9,0.5c-0.5,0.3-1,0.7-1.3,1.2s-0.6,1.1-0.8,1.8c-0.2,0.7-0.2,1.4-0.2,2.2c0,0.8,0.1,1.5,0.3,2.1
	c0.2,0.6,0.5,1.1,0.9,1.5s0.8,0.7,1.3,1c0.5,0.2,1.1,0.3,1.7,0.3c0.7,0,1.3-0.1,1.8-0.4c0.5-0.3,1-0.6,1.3-1.1
	c0.4-0.5,0.6-1,0.8-1.7C200.7,23.5,200.8,22.8,200.8,22.1L200.8,22.1z M200.8,11.1h1.4v17.3h-1.4v-2.2h0c-0.2,0.4-0.5,0.8-0.8,1.1
	c-0.3,0.3-0.7,0.6-1.1,0.8c-0.4,0.2-0.8,0.4-1.2,0.5s-0.8,0.2-1.2,0.2c-1,0-1.9-0.2-2.6-0.5c-0.7-0.3-1.3-0.8-1.8-1.4
	c-0.4-0.6-0.8-1.3-1-2.1c-0.2-0.8-0.3-1.7-0.3-2.6c0-0.9,0.1-1.7,0.3-2.5c0.2-0.8,0.6-1.5,1-2.1c0.5-0.6,1-1.1,1.7-1.4
	c0.7-0.4,1.5-0.6,2.5-0.6c0.9,0,1.7,0.2,2.5,0.6c0.8,0.4,1.5,1,1.9,1.7L200.8,11.1L200.8,11.1z"/>
<path class="st4" d="M214.8,21.3c0-0.6-0.1-1.2-0.3-1.7c-0.2-0.5-0.4-1-0.7-1.4c-0.3-0.4-0.7-0.7-1.2-0.9c-0.5-0.2-1.1-0.4-1.7-0.4
	s-1.2,0.1-1.7,0.4c-0.5,0.2-0.9,0.6-1.2,1c-0.3,0.4-0.6,0.9-0.8,1.4c-0.2,0.5-0.3,1.1-0.4,1.7H214.8L214.8,21.3z M206.7,22.5
	c0,0.7,0.1,1.3,0.3,1.9c0.2,0.6,0.4,1.1,0.8,1.6c0.4,0.4,0.8,0.8,1.3,1.1c0.5,0.3,1.1,0.4,1.8,0.4c0.9,0,1.8-0.2,2.4-0.7
	c0.7-0.5,1.1-1.2,1.3-2.1h1.6c-0.2,0.6-0.4,1.1-0.7,1.7c-0.3,0.5-0.6,0.9-1.1,1.3c-0.4,0.4-0.9,0.7-1.5,0.9
	c-0.6,0.2-1.3,0.3-2.1,0.3c-1,0-1.8-0.2-2.6-0.5c-0.7-0.3-1.3-0.8-1.8-1.4c-0.5-0.6-0.8-1.3-1-2.1c-0.2-0.8-0.3-1.7-0.3-2.6
	s0.1-1.8,0.4-2.6c0.3-0.8,0.6-1.5,1.1-2.1c0.5-0.6,1.1-1.1,1.8-1.4c0.7-0.4,1.5-0.5,2.4-0.5c1.7,0,3.1,0.6,4,1.8
	c1,1.2,1.5,2.9,1.4,5.1H206.7L206.7,22.5z"/>
<path class="st4" d="M220,24.5c0.2,1.1,0.6,1.8,1.2,2.3c0.6,0.4,1.4,0.6,2.5,0.6c0.5,0,1-0.1,1.4-0.2s0.7-0.3,0.9-0.5
	c0.3-0.2,0.4-0.5,0.6-0.7c0.1-0.3,0.2-0.6,0.2-0.9c0-0.6-0.2-1.1-0.6-1.3c-0.4-0.3-0.9-0.5-1.5-0.7c-0.6-0.2-1.2-0.3-1.9-0.4
	c-0.7-0.1-1.3-0.3-1.9-0.6c-0.6-0.2-1.1-0.6-1.5-1c-0.4-0.4-0.6-1.1-0.6-1.9c0-1,0.4-1.9,1.1-2.5c0.8-0.7,1.8-1,3.2-1
	c1.3,0,2.4,0.3,3.3,0.9c0.8,0.6,1.4,1.6,1.5,3h-1.5c-0.1-1-0.5-1.6-1.1-2c-0.6-0.4-1.3-0.6-2.3-0.6c-0.9,0-1.6,0.2-2.1,0.6
	c-0.5,0.4-0.7,0.9-0.7,1.5c0,0.6,0.2,1,0.6,1.3c0.4,0.3,0.9,0.5,1.5,0.7c0.6,0.2,1.2,0.3,1.9,0.5c0.7,0.1,1.3,0.4,1.9,0.6
	c0.6,0.3,1.1,0.6,1.5,1.1c0.4,0.4,0.6,1.1,0.6,1.9c0,0.6-0.1,1.1-0.4,1.6c-0.3,0.4-0.6,0.8-1.1,1.1s-1,0.5-1.6,0.7
	c-0.6,0.2-1.3,0.2-2,0.2s-1.4-0.1-2-0.3c-0.6-0.2-1-0.5-1.4-0.9s-0.7-0.8-0.9-1.3c-0.2-0.5-0.4-1.1-0.4-1.7H220L220,24.5z"/>
<polygon class="st4" points="229.8,15.9 231.4,15.9 235.4,26.6 239.5,15.9 241,15.9 236.2,28.3 234.6,28.3 "/>
<path class="st4" d="M252.2,21.3c0-0.6-0.1-1.2-0.3-1.7c-0.2-0.5-0.4-1-0.7-1.4c-0.3-0.4-0.7-0.7-1.2-0.9c-0.5-0.2-1.1-0.4-1.7-0.4
	c-0.6,0-1.2,0.1-1.7,0.4c-0.5,0.2-0.9,0.6-1.2,1c-0.3,0.4-0.6,0.9-0.8,1.4c-0.2,0.5-0.3,1.1-0.4,1.7H252.2L252.2,21.3z M244.1,22.5
	c0,0.7,0.1,1.3,0.3,1.9c0.2,0.6,0.4,1.1,0.8,1.6c0.4,0.4,0.8,0.8,1.3,1.1c0.5,0.3,1.1,0.4,1.8,0.4c0.9,0,1.8-0.2,2.4-0.7
	c0.7-0.5,1.1-1.2,1.3-2.1h1.6c-0.2,0.6-0.4,1.1-0.7,1.7c-0.3,0.5-0.6,0.9-1.1,1.3c-0.4,0.4-0.9,0.7-1.5,0.9
	c-0.6,0.2-1.3,0.3-2.1,0.3c-1,0-1.8-0.2-2.6-0.5c-0.7-0.3-1.3-0.8-1.8-1.4c-0.5-0.6-0.8-1.3-1-2.1c-0.2-0.8-0.3-1.7-0.3-2.6
	s0.1-1.8,0.4-2.6c0.3-0.8,0.6-1.5,1.1-2.1c0.5-0.6,1.1-1.1,1.8-1.4c0.7-0.4,1.5-0.5,2.4-0.5c1.7,0,3.1,0.6,4,1.8
	c1,1.2,1.5,2.9,1.4,5.1H244.1L244.1,22.5z"/>
<path class="st4" d="M258,28.3h-1.4V15.9h1.4v2.3h0c0.4-1,0.9-1.7,1.5-2.1c0.6-0.4,1.5-0.6,2.5-0.6v1.6c-0.8,0-1.5,0.1-2,0.4
	c-0.5,0.3-1,0.6-1.3,1.1c-0.3,0.5-0.5,1-0.6,1.7c-0.1,0.6-0.2,1.3-0.2,2L258,28.3L258,28.3z"/>
<path class="st4" d="M266.1,22.1c0,0.8,0.1,1.5,0.3,2.1c0.2,0.6,0.5,1.2,0.8,1.7c0.4,0.5,0.8,0.8,1.3,1.1c0.5,0.3,1.1,0.4,1.8,0.4
	c0.6,0,1.2-0.1,1.7-0.3c0.5-0.2,1-0.5,1.3-1c0.4-0.4,0.7-0.9,0.9-1.5c0.2-0.6,0.3-1.3,0.3-2.1c0-0.8,0-1.5-0.2-2.2
	c-0.2-0.7-0.4-1.3-0.8-1.8s-0.8-0.9-1.4-1.2c-0.5-0.3-1.2-0.5-1.9-0.5c-0.7,0-1.2,0.1-1.8,0.4c-0.5,0.3-1,0.6-1.3,1.1
	c-0.4,0.5-0.6,1-0.8,1.7C266.2,20.7,266.1,21.4,266.1,22.1L266.1,22.1z M266.1,28.3h-1.4V11.1h1.4v6.8c0.5-0.8,1.1-1.3,1.9-1.7
	c0.8-0.4,1.7-0.6,2.5-0.6c0.9,0,1.8,0.2,2.4,0.6c0.7,0.4,1.3,0.8,1.7,1.4c0.5,0.6,0.8,1.3,1,2.1c0.2,0.8,0.3,1.6,0.3,2.5
	c0,0.9-0.1,1.8-0.3,2.6c-0.2,0.8-0.5,1.5-1,2.1c-0.4,0.6-1,1-1.7,1.4c-0.7,0.3-1.6,0.5-2.6,0.5c-0.4,0-0.8-0.1-1.2-0.2
	c-0.4-0.1-0.8-0.3-1.2-0.5c-0.4-0.2-0.7-0.5-1.1-0.8c-0.3-0.3-0.6-0.7-0.8-1.1h0L266.1,28.3L266.1,28.3z"/>
<path class="st4" d="M287.3,21.8c-0.6,0.3-1.2,0.4-1.8,0.5s-1.2,0.1-1.9,0.2c-1.1,0.1-2,0.3-2.6,0.7c-0.6,0.4-0.9,1-0.9,1.9
	c0,0.4,0.1,0.7,0.2,1c0.2,0.3,0.4,0.5,0.6,0.7c0.3,0.2,0.5,0.3,0.9,0.4c0.3,0.1,0.7,0.1,1,0.1c0.6,0,1.1-0.1,1.7-0.2
	c0.5-0.1,1-0.4,1.4-0.6c0.4-0.3,0.8-0.7,1-1.1c0.3-0.5,0.4-1,0.4-1.6V21.8L287.3,21.8z M284.9,21.1c0.3,0,0.6-0.1,1-0.1
	c0.4-0.1,0.7-0.2,0.9-0.3c0.2-0.1,0.4-0.3,0.4-0.6c0.1-0.3,0.1-0.5,0.1-0.7c0-0.7-0.2-1.3-0.7-1.8c-0.5-0.5-1.3-0.7-2.4-0.7
	c-0.5,0-1,0-1.4,0.1c-0.4,0.1-0.8,0.2-1.1,0.5c-0.3,0.2-0.6,0.5-0.8,0.9c-0.2,0.4-0.3,0.8-0.4,1.3h-1.5c0-0.7,0.2-1.4,0.5-1.9
	c0.3-0.5,0.7-1,1.1-1.3c0.5-0.3,1-0.6,1.6-0.7c0.6-0.2,1.2-0.2,1.9-0.2c0.6,0,1.2,0.1,1.8,0.2c0.6,0.1,1,0.3,1.4,0.6
	c0.4,0.3,0.7,0.7,1,1.2c0.2,0.5,0.4,1.1,0.4,1.8v6.8c0,0.6,0.1,0.9,0.3,1.1c0.2,0.1,0.6,0.1,1.2-0.1v1.1c-0.1,0-0.3,0.1-0.5,0.1
	c-0.2,0.1-0.4,0.1-0.6,0.1c-0.2,0-0.4,0-0.6-0.1c-0.2,0-0.4-0.1-0.6-0.2c-0.1-0.1-0.3-0.3-0.4-0.4c-0.1-0.2-0.1-0.4-0.2-0.6
	c0-0.2,0-0.4,0-0.6c-0.6,0.7-1.3,1.2-2.1,1.5c-0.8,0.4-1.6,0.5-2.5,0.5c-0.5,0-1.1-0.1-1.6-0.2c-0.5-0.1-0.9-0.4-1.3-0.7
	c-0.4-0.3-0.7-0.7-0.9-1.1c-0.2-0.4-0.3-1-0.3-1.6c0-2.1,1.4-3.4,4.3-3.7L284.9,21.1L284.9,21.1z"/>
<path class="st4" d="M293.9,28.3h-1.4V15.9h1.4v1.7c0.6-0.6,1.2-1.1,1.8-1.5c0.6-0.4,1.4-0.6,2.2-0.6c0.8,0,1.5,0.1,2.1,0.4
	c0.7,0.3,1.2,0.7,1.7,1.4c0.3,0.4,0.5,0.9,0.5,1.4c0.1,0.5,0.1,1,0.1,1.5v8.1h-1.4v-8.1c0-1.1-0.2-2-0.7-2.5
	c-0.5-0.6-1.3-0.8-2.5-0.8c-0.4,0-0.9,0.1-1.2,0.2c-0.4,0.1-0.7,0.3-1,0.5c-0.3,0.2-0.5,0.5-0.7,0.8c-0.2,0.3-0.4,0.6-0.5,0.9
	c-0.1,0.4-0.2,0.8-0.3,1.2c0,0.4,0,0.8,0,1.2L293.9,28.3L293.9,28.3z"/>
<path class="st4" d="M315.5,22.1c0-0.7-0.1-1.4-0.3-2c-0.2-0.6-0.5-1.2-0.8-1.7c-0.4-0.5-0.8-0.9-1.3-1.1c-0.5-0.3-1.1-0.4-1.8-0.4
	c-0.8,0-1.4,0.2-1.9,0.5c-0.5,0.3-1,0.7-1.3,1.2s-0.6,1.1-0.8,1.8c-0.2,0.7-0.2,1.4-0.2,2.2c0,0.8,0.1,1.5,0.3,2.1
	c0.2,0.6,0.5,1.1,0.9,1.5c0.4,0.4,0.8,0.7,1.3,1c0.5,0.2,1.1,0.3,1.7,0.3c0.7,0,1.3-0.1,1.8-0.4c0.5-0.3,1-0.6,1.3-1.1
	c0.4-0.5,0.6-1,0.8-1.7C315.4,23.5,315.5,22.8,315.5,22.1L315.5,22.1z M315.5,11.1h1.4v17.3h-1.4v-2.2h0c-0.2,0.4-0.5,0.8-0.8,1.1
	c-0.3,0.3-0.7,0.6-1.1,0.8c-0.4,0.2-0.8,0.4-1.2,0.5c-0.4,0.1-0.8,0.2-1.2,0.2c-1,0-1.9-0.2-2.6-0.5c-0.7-0.3-1.3-0.8-1.8-1.4
	c-0.4-0.6-0.8-1.3-1-2.1s-0.3-1.7-0.3-2.6c0-0.9,0.1-1.7,0.3-2.5c0.2-0.8,0.6-1.5,1-2.1c0.5-0.6,1-1.1,1.7-1.4
	c0.7-0.4,1.5-0.6,2.5-0.6c0.9,0,1.7,0.2,2.5,0.6c0.8,0.4,1.5,1,1.9,1.7L315.5,11.1L315.5,11.1z"/>
<path class="st4" d="M325.9,17.1v-1.2h1.8v-2c0-1,0.2-1.8,0.6-2.4c0.4-0.6,1.1-0.9,2-0.9c0.2,0,0.4,0,0.6,0c0.2,0,0.4,0,0.6,0.1v1.3
	c-0.3-0.1-0.6-0.1-0.9-0.1c-0.4,0-0.7,0.1-0.9,0.2c-0.2,0.1-0.4,0.3-0.5,0.5c-0.1,0.2-0.2,0.5-0.2,0.8c0,0.3,0,0.6,0,0.8v1.5h2.4
	v1.2h-2.4v11.2h-1.4V17.1L325.9,17.1L325.9,17.1z"/>
<path class="st4" d="M342.3,15.9h1.4v12.4h-1.4v-1.7c-0.2,0.2-0.4,0.5-0.6,0.7s-0.5,0.5-0.8,0.7c-0.3,0.2-0.7,0.4-1.1,0.5
	c-0.4,0.1-0.9,0.2-1.4,0.2c-0.8,0-1.5-0.1-2.1-0.3c-0.6-0.2-1-0.6-1.4-1c-0.3-0.4-0.6-0.9-0.7-1.4c-0.1-0.6-0.2-1.2-0.2-1.8v-8.2
	h1.4v8.2c0,1.1,0.2,1.9,0.7,2.5c0.5,0.6,1.3,0.8,2.4,0.8c0.6,0,1.1-0.1,1.6-0.3c0.5-0.2,0.9-0.6,1.2-1s0.6-0.9,0.7-1.5
	c0.2-0.6,0.3-1.2,0.3-1.9V15.9L342.3,15.9z M336.3,11.9h1.6v2.4h-1.6V11.9L336.3,11.9z M340.1,11.9h1.6v2.4h-1.6V11.9L340.1,11.9z"
	/>
<path class="st4" d="M348.7,28.3h-1.4V15.9h1.4v2.3h0c0.4-1,0.9-1.7,1.5-2.1c0.6-0.4,1.5-0.6,2.5-0.6v1.6c-0.8,0-1.5,0.1-2,0.4
	c-0.5,0.3-1,0.6-1.3,1.1c-0.3,0.5-0.5,1-0.6,1.7c-0.1,0.6-0.2,1.3-0.2,2V28.3L348.7,28.3z"/>
<line class="st3" x1="9.7" y1="15.1" x2="9.7" y2="47.8"/>
<line class="st0" x1="16.4" y1="15.1" x2="16.4" y2="47.8"/>
<line class="st3" x1="1.9" y1="15.1" x2="1.9" y2="47.8"/>
<path class="st4" d="M31.2,29.4V19h8.6c0.9,0,1.8,0.1,2.6,0.2c0.8,0.1,1.6,0.3,2.2,0.7c0.6,0.4,1.1,0.9,1.5,1.5s0.5,1.6,0.5,2.7
	c0,1.7-0.5,3-1.6,3.9c-1.1,0.8-2.8,1.3-5.3,1.3L31.2,29.4L31.2,29.4z M26.8,15.4v32.5h15.7c1.6,0,3-0.3,4.2-0.8
	c1.2-0.5,2.3-1.2,3.1-2.1c0.9-0.9,1.5-1.9,1.9-3s0.6-2.3,0.6-3.5c0-2-0.5-3.7-1.6-5.1c-1.1-1.4-2.6-2.3-4.6-2.7v-0.1
	c1.5-0.6,2.7-1.5,3.5-2.8c0.9-1.3,1.3-2.8,1.3-4.5c0-1.6-0.4-3-1.1-4.1c-0.7-1.1-1.6-2-2.7-2.6c-0.5-0.3-1.1-0.5-1.8-0.7
	c-0.7-0.2-1.4-0.3-2.2-0.3c-0.8-0.1-1.6-0.1-2.4-0.1c-0.8,0-1.5,0-2.2,0L26.8,15.4L26.8,15.4z M31.2,44.3V33H41
	c0.9,0,1.8,0.1,2.6,0.3c0.8,0.2,1.6,0.4,2.2,0.9c0.7,0.4,1.2,0.9,1.6,1.6c0.4,0.7,0.6,1.6,0.6,2.6c0,1.8-0.5,3.2-1.6,4.3
	c-1.1,1-2.5,1.5-4.5,1.5L31.2,44.3L31.2,44.3z"/>
<path class="st2" d="M63.6,34.5l5.5-15.2h0.1l5.4,15.2H63.6L63.6,34.5z M66.8,15.4L54.2,47.9h4.4l3.6-9.8H76l3.6,9.8h4.8L71.6,15.4
	H66.8L66.8,15.4z"/>
<path class="st2" d="M90,31.7c0-1.6,0.2-3.2,0.6-4.8c0.4-1.6,1.1-3,2-4.3c0.9-1.3,2.1-2.3,3.5-3c1.4-0.8,3.1-1.2,5.1-1.2
	c2,0,3.7,0.4,5.1,1.2c1.4,0.8,2.6,1.8,3.5,3c0.9,1.3,1.6,2.7,2,4.3c0.4,1.6,0.6,3.2,0.6,4.8c0,1.6-0.2,3.3-0.6,4.9
	c-0.4,1.6-1.1,3-2,4.3c-0.9,1.3-2.1,2.3-3.5,3.1c-1.4,0.8-3.1,1.1-5.1,1.1c-2,0-3.7-0.4-5.1-1.1c-1.4-0.8-2.6-1.8-3.5-3.1
	c-0.9-1.3-1.6-2.7-2-4.3C90.2,34.9,90,33.3,90,31.7L90,31.7z M85.7,31.7c0,2.2,0.3,4.4,1,6.4c0.7,2,1.7,3.8,3,5.4
	c1.3,1.6,2.9,2.8,4.9,3.8c1.9,0.9,4.2,1.4,6.8,1.4c2.6,0,4.8-0.5,6.8-1.4c1.9-0.9,3.6-2.2,4.9-3.8c1.3-1.6,2.3-3.4,2.9-5.4
	c0.7-2.1,1-4.2,1-6.4c0-2.2-0.3-4.3-1-6.4c-0.6-2.1-1.6-3.9-2.9-5.5c-1.3-1.6-2.9-2.8-4.9-3.8c-1.9-0.9-4.2-1.4-6.8-1.4
	s-4.8,0.5-6.8,1.4c-1.9,0.9-3.6,2.2-4.9,3.8s-2.3,3.4-3,5.5C86,27.3,85.7,29.4,85.7,31.7L85.7,31.7z"/>
</svg>
