<?xml version="1.0" encoding="utf-8"?>
<!-- Generator: Adobe Illustrator 25.4.1, SVG Export Plug-In . SVG Version: 6.00 Build 0)  -->
<svg version="1.1" xmlns="http://www.w3.org/2000/svg" xmlns:xlink="http://www.w3.org/1999/xlink" x="0px" y="0px" width="4310px"
	 height="1000px" viewBox="0 0 4310 1000" style="enable-background:new 0 0 4310 1000;" xml:space="preserve">
<style type="text/css">
	.st0{fill:none;}
	.st1{fill:#FFFFFF;}
	.st2{fill:#005E3F;}
</style>

<g id="AOK_PLUS_Logo_Horiz">
	<g id="H_x5F_M_x5F_pos">
		<rect id="Bounding_box" x="0" class="st0" width="4310" height="1000"/>
		<path class="st2" d="M 1813.4802 455.8991 l 302.9167 392.0985 h -164.7314 h -0.0327 L 1727.448 551.9887 L 1629 661.4436 V 848 h -120 V 152 h 120 v 330.1621 L 1925.1834 152 h 160.3892 L 1813.4802 455.8991 z M 1450.0001 499.9994 C 1450.0001 705.442 1283.423 872 1078 872 c -205.4423 0 -372 -166.558 -372 -372.0006 C 706 294.5774 872.5577 128 1078 128 C 1283.423 128 1450.0001 294.5774 1450.0001 499.9994 z M 1325.5194 499.9752 C 1325.5194 361.9344 1214.6766 250 1078.0037 250 c -136.6912 0 -247.4844 111.9344 -247.4844 249.9752 C 830.5193 638.0183 941.3125 750 1078.0037 750 C 1214.6766 750 1325.5194 638.0183 1325.5194 499.9752 z M 457.7832 152 H 652 v 696 H 532 V 698 H 244.3586 l -98.0063 150 H 1 L 457.7832 152 z M 532 257.7604 L 315.5764 589 H 532 V 257.7604 z M 2713.8157 251.467 c 15.2488 30.1973 22.9851 63.3022 22.9851 98.3922 c 0 37.7963 -8.5786 73.6295 -25.5002 106.5041 c -16.8477 32.6805 -42.1497 59.6097 -75.2063 80.0353 c -33.051 20.4058 -74.0005 30.7522 -121.7102 30.7522 h -189.0781 v 279.9405 c 0 1.0529 -0.8552 1.9086 -1.9084 1.9086 h -68.4924 c -1.0498 0 -1.905 -0.8558 -1.905 -1.9086 V 153.908 c 0 -1.0529 0.8552 -1.908 1.905 -1.908 h 273.8118 c 45.7275 0 84.6792 9.188 115.7742 27.3119 C 2675.4065 197.347 2698.7327 221.6239 2713.8157 251.467 z M 2663.4734 354.9715 c 0 -39.9471 -12.2712 -73.2242 -36.4688 -98.8989 c -24.354 -25.8318 -59.489 -38.9291 -104.4309 -38.9291 h -197.2678 v 284.8701 h 188.0571 c 46.9971 0 84.2068 -14.3131 110.5903 -42.5352 C 2650.1777 431.4575 2663.4734 396.2974 2663.4734 354.9715 z M 4197.5898 522.7491 l -0.0063 -0.0064 l -215.1472 -105.696 c -53.0671 -25.1555 -78.7007 -67.4376 -68.4434 -113.0512 c 9.5486 -42.4097 54.3054 -85.1997 132.7759 -85.1997 l 223.323 0.0001 c 1.0527 0 1.9082 -0.8551 1.9082 -1.9084 v -62.9826 c 0 -1.0499 -0.8555 -1.9049 -1.9082 -1.9049 h -223.323 c -115.4019 0 -182.5686 68.9727 -197.9387 137.329 c -17.093 75.9262 23.9551 149.6697 104.5644 187.8702 l 214.7573 105.5175 c 51.9692 25.4778 77.7183 69.5216 67.1797 114.9312 c -8.9355 38.5419 -48.6118 83.5492 -130.9956 83.5492 h -255.4216 c -1.0527 0 -1.9143 0.8557 -1.9143 1.9084 v 62.9861 c 0 1.0533 0.8616 1.9084 1.9143 1.9084 h 255.4216 c 81.9814 0 174.4058 -41.8225 196.082 -135.2648 C 4318.0728 636.5951 4277.7075 562.0192 4197.5898 522.7491 z M 3779.8345 152 h -68.4951 c -1.0535 0 -1.9084 0.8551 -1.9084 1.908 v 450.7788 c 0 58.416 -17.5024 105.5342 -52.0278 140.0531 c -34.5251 34.5183 -81.2996 52.0207 -139.0146 52.0207 c -58.4102 0 -105.5359 -17.5024 -140.0549 -52.0207 c -34.5251 -34.5253 -52.0276 -81.6435 -52.0276 -140.0531 V 153.908 c 0 -1.0529 -0.8552 -1.908 -1.9084 -1.908 h -68.4824 c -1.0535 0 -1.915 0.8551 -1.915 1.908 v 453.855 c 0 51.3377 10.6148 96.9179 31.551 135.4771 c 20.802 38.3673 51.2996 68.5264 90.6506 89.647 c 39.6448 21.2871 87.4846 32.0804 142.1868 32.0804 c 54.6829 0 102.3315 -10.787 141.6318 -32.0607 c 39.0061 -21.1148 69.3381 -51.2867 90.1653 -89.6667 c 20.9363 -38.6039 31.5576 -84.184 31.5576 -135.4771 V 153.908 C 3781.7432 152.8551 3780.8879 152 3779.8345 152 z M 3221.0852 781.814 h -279.3135 c -34.9978 0 -63.4658 -28.4673 -63.4658 -63.4652 V 153.908 c 0 -1.0528 -0.8557 -1.908 -1.9084 -1.908 h -68.4888 c -1.0535 0 -1.9087 0.8552 -1.9087 1.908 v 557.0814 C 2806 787.0863 2867.9143 849 2944.0117 849 h 277.0735 c 1.0535 0 1.9148 -0.8552 1.9148 -1.908 v -63.3695 C 3223 782.6691 3222.1387 781.814 3221.0852 781.814 z"/>
	</g>
</g>
</svg>
