<svg id="Ebene_1" data-name="Ebene 1" xmlns="http://www.w3.org/2000/svg" xmlns:xlink="http://www.w3.org/1999/xlink"
     viewBox="0 0 960 198">
    <defs>
        <style>.cls-1{fill:none;}.cls-2{fill:#ffe600;}.cls-3{clip-path:url(#clip-path);}.cls-4{fill:#ff0033;}</style>
        <clipPath id="clip-path">
            <rect class="cls-1" x="16.14" y="16.41" width="930.1" height="170.59"/>
        </clipPath>
    </defs>
    <title>Logo</title>
    <polygon class="cls-2" points="27.11 16.41 82.71 74.22 139.74 74.22 83.68 16.41 27.11 16.41"/>
    <polygon class="cls-2" points="140.78 74.13 140.78 129.73 197.67 71.65 197.67 16.43 140.78 74.13"/>
    <rect class="cls-2" x="83.33" y="129.72" width="56.84" height="55.61"/>
    <g class="cls-3">
        <path d="M27.93,104.84H33.7V97.71H27.93V91.92H33.7V82.81H16.14v38.28H33.7V112H27.93v-7.13Zm5.76,0h1.63c2.79,0,4.13,1.23,4.13,3.48,0,2.95-2.14,3.65-4.61,3.65H33.7v9.12h4.16c6.76,0,13.4-4,13.4-11.63,0-5.63-3.22-8.37-6.65-9.55,2.84-1.55,4.72-3.64,4.72-7.51s-2.14-9.6-12.22-9.6H33.7v9.12h0.46c2.41,0,4,.7,4,2.63,0,2.47-1.56,3.16-4,3.16H33.7v7.13Z"/>
    </g>
    <polygon
            points="53.5 121.09 65.29 121.09 65.29 109.78 68.56 106.18 78 121.09 92.69 121.09 76.55 97.77 90.44 82.81 75.91 82.81 65.4 96 65.29 96 65.29 82.81 53.5 82.81 53.5 121.09"/>
    <polygon
            points="92.51 121.09 104.3 121.09 104.3 109.78 107.57 106.18 117.01 121.09 131.7 121.09 115.56 97.77 129.45 82.81 114.92 82.81 104.41 96 104.3 96 104.3 82.81 92.51 82.81 92.51 121.09"/>
    <polygon points="155.24 113.67 155.24 187 227.76 113.29 227.76 40.33 155.24 113.67"/>
    <g class="cls-3">
        <path class="cls-4"
              d="M199.59,109.25l10.58-10.88V81.28l-29.67,29.39-1.95,6.14-21,.36s15.05-10,21.4-15.72c10.87-9.87,2.41-20.22-6.33-22.87-22.63-6.86-39.83,1.35-39.83,1.35L128,93.12l1.42,0.64s8.09-7.5,23.11-4.84c7.79,1.38,7.09,7.45,3.25,10.7-10.22,8.64-40.19,29.25-40.19,29.25l0.24,0.83,59,0,3.61-9.88H207.8l-4,9.88h6.37V109.25H199.59Zm10.58-10.88L220.75,87.5l-9,21.75h-1.59v20.47h17.11l2.87-9.88h9.16l4.2-10.47h-9.87l11.53-32.45-30.35-.24-4.64,4.6V98.38Z"/>
        <path d="M399.31,136.67v5.28a13.93,13.93,0,0,1-2.91.32h-7.8c-4.71-.32-9-1.78-9.43-7.39a10.52,10.52,0,0,1,.24-2.57c0.31-2.08-.4-1.54,7.4-1.54,0,3.41-.16,7,5.75,7a14.9,14.9,0,0,0,6.75-1.12m-2.59-14.22c-2.65,0-4.34-.2-6-2-4.62-4.92-.58-21.69,8.6-23.43V91.85c-6.64,1-12.87,6.2-15.7,13.34a26.18,26.18,0,0,0-1.91,9c0,3.82-.11,7.45,2.94,10.48,3.32,3.29,9.41,3.81,14.67,2.07v-4.52a11.74,11.74,0,0,1-2.59.28M399.31,97a8.28,8.28,0,0,1,1.56-.15c2.71,0,4.56,0,6.8,2.14,4.58,4.41.74,14.91-1.19,17.85a11.64,11.64,0,0,1-7.17,5.29v4.52a17.28,17.28,0,0,0,4.9-2.5c1.26-.93,1.23-1.43,2.09-2.06a42.21,42.21,0,0,1-3.08,10.34,8.85,8.85,0,0,1-3.92,4.2v5.28a15.41,15.41,0,0,0,9.17-5.81c4.17-6.18,7.48-27.34,9.46-36.23,0.6-2.68,1.2-5,1.78-7.48H413a40.16,40.16,0,0,1-1,4.47c-1.4-1-.56-2-3.72-3.63a14.86,14.86,0,0,0-9-1.41V97Z"/>
        <path d="M529,123.73c-10.17,0-8.39-9.61-6.78-16,1.1-4.37,4.51-9.81,9.35-11.13V92.21c-3.89,1.13-5,3.29-7,4.68,0.28-1.22,4.13-19.06,4.15-20.13h-6.1c-1.42.29-.87,1.5-1.89,5.75-0.51,2.15-1,4.28-1.41,6.57l-5.49,26.14c-0.55,2.39-2.29,11.49-3,13,0.83,0,6,.08,6.33-0.06,1-.36.72-1,1-2.24s0.23-1.92,1-2.49c1,3.59,6.41,6.09,12.48,5.23v-5.27a9.28,9.28,0,0,1-2.57.36m2.57-27.18a8.39,8.39,0,0,1,2.22-.3c3.13,0,4.48-.14,6.48,2.15,4.52,5.19.74,22.28-8.7,25v5.27c6.22-.87,13.09-5.26,16.48-15.57,2.91-8.87,2.79-21.61-10.11-21.61a22.84,22.84,0,0,0-6.37.75v4.34Z"/>
        <path d="M828.67,123.73c-12.06,0-8-14.94-4.48-21.41a11.88,11.88,0,0,1,7-5.63V92.26a12.71,12.71,0,0,0-4.66,2.49,24.88,24.88,0,0,1-2.32,2.15c0.2-2.42,3.9-17.09,4.15-20.13h-6.23c-1.27.52-1.11,2.44-2.37,8.66-1.53,7.59-4.23,20.82-6,28.47-0.57,2.41-1,4.65-1.52,7.1-0.27,1.22-1.4,6.52-1.73,7.21h6.71c0.2-.88.42-1.68,0.63-2.56,0.29-1.24.12-1.61,1-2.23,0.83,3.55,6.29,6.09,12.42,5.25v-5.28a9.27,9.27,0,0,1-2.51.35m2.51-27c5.08-1.55,10.59.47,10.59,6.92v2.24c0,7.19-4.16,15.73-10.59,17.54v5.28c6.23-.86,13.14-5.22,16.54-15.59,3-9.29,2.49-21.61-10.11-21.61a22.46,22.46,0,0,0-6.43.79v4.43Z"/>
        <path d="M683.3,106.8H674c0-2.15,1.57-4.7,2.65-6a12.59,12.59,0,0,1,6.62-4.18V91.78a18,18,0,0,0-12.65,7.48c-2.65,3.53-5.56,11.4-5.56,17.44,0,4.32,1.35,7.3,3.58,9.52,3.27,3.25,9.24,3.86,14.62,2.63V123.8c-4,1.35-8.73.33-10.45-3-1.87-3.65-.49-5.56-0.41-9.17H683.3V106.8Zm0,22V123.8a9.37,9.37,0,0,0,6.39-6.77h6.71c-0.29,3.49-3.49,7.13-6.32,9a20.61,20.61,0,0,1-6.78,2.81m8.95-22H683.3v4.79h15c0-2.49,1-4,1-6.71v-3.83c0-5.83-5.22-9.59-11.18-9.59a33.37,33.37,0,0,0-4.79.32v4.86c4.73-1.14,9.27,1,9.27,5.69,0,2.7-.28,3.23-0.32,4.47"/>
        <path d="M313.65,106.2c-16.61,2.42-19.62,16.53-13,21.29,3.26,2.36,8.53,2.61,13,.86V123.6a14.21,14.21,0,0,1-3.19.45c-3.14,0-5.75-1.59-5.75-4.79,0-4.82,4.29-7.28,8.94-8.24V106.2Zm0-14.22a15.26,15.26,0,0,0-5.81,2.62c-2,1.62-4.22,5-4.42,7.4h6.71c0.72-1.5,1.41-3.62,3.51-4.92V92ZM320,123.41c0.67,0.56.28,0.15,0.07,1l-0.06.26-0.33,3.5h6.39a42.16,42.16,0,0,1,1-7.31c1.07-6.49,4.43-16.5,4.43-22.41,0-6.69-10.27-8.38-17.89-6.51v5.1a8.93,8.93,0,0,1,4.79-1.15c8.77,0,5.51,6.89,5.43,10.22a28.69,28.69,0,0,0-5.11-.32,35.3,35.3,0,0,0-5.11.36V111a22.56,22.56,0,0,1,8.95-.07,33,33,0,0,1-1.16,4.92,11.22,11.22,0,0,1-2.25,4.14,10.77,10.77,0,0,1-3.51,2.88,9.61,9.61,0,0,1-2,.71v4.75a13.52,13.52,0,0,0,6.39-4.94"/>
        <path d="M563.49,106.8c1.48-6.37,5.53-9.35,9.4-10.2v-5A20.2,20.2,0,0,0,560.47,99c-2.63,3.49-5.61,10.82-5.61,16.76,0,4.09.35,8.21,3.78,10.92s9.12,3.37,14.25,2.21v-5.1c-5.05,1.58-11.32-.13-11.32-6.43,0-1.14,0-4.23.37-5.06,0.5-1.08,1.44-.72,3.13-0.7h7.81v-4.8h-9.4m9.4,22.08v-5.1c3.23-1,6-3.37,6.25-6.75h7a18.49,18.49,0,0,1-2.41,5.25c-2.22,3.26-6.38,5.59-10.87,6.6m0-32.28c3.16-.69,6.19,0,7.62,1.49a7.91,7.91,0,0,1,1.76,5.42c-0.38,3.83.19,3.32-4.08,3.29h-5.3v4.8h14.88a36,36,0,0,0,1.28-9.27c0-6.67-4.54-10.86-11.18-10.86H575a15.17,15.17,0,0,0-2.1.15v5Z"/>
        <path d="M789.7,106.8h-9.28c0.45-5.36,4.87-8.92,9.28-10V91.6c-8,1-13.31,7.22-15.94,14.29a30.64,30.64,0,0,0-2,8.9c0,4.3-.2,8.9,4,12,3.85,2.89,9.27,3,13.94,2.1v-5.1a9.54,9.54,0,0,1-8.84-1.15c-3-2.28-2.76-8.89-1.71-11.07H789.7V106.8Zm0,22.1v-5.1c3.36-1.12,6.12-3.74,6.38-6.78h7c-0.82,1.71-.78,2.94-2.46,5.21a8.21,8.21,0,0,1-1.83,2c-2.23,1.71-3.59,3.23-7.27,4.22q-0.9.24-1.85,0.44m8.93-22.1H789.7v4.79h15c0.35-4.22,3.46-11.82-1.78-17.07l-0.5-.46c-3.12-2.65-6.8-2.6-10.5-2.6a18.41,18.41,0,0,0-2.22.14v5.15c4.63-1.18,9.25.32,9.25,5.25,0,1.24.15,3.76-.32,4.79"/>
        <path d="M872.51,106.8h-9.33c0.34-4.12,4.12-8.9,9.33-10.12V91.6c-11.34,1.45-18,14.12-18,23.82,0,4.12.2,8.41,3.78,11.24,3.83,3,9.42,3.19,14.18,2.22v-5.11c-5,1.63-11.25,0-11.25-6.76,0-6.94-.71-5.43,11.18-5.43h0.07V106.8Zm0,22.09v-5.11c3.27-1.05,6-3.47,6.32-6.76h7c-1.27,5.44-6.28,10-11.56,11.44-0.58.16-1.18,0.3-1.79,0.42m8.88-22.09h-8.88v4.79h14.95c0.28-3.42,2.33-8.52.61-13.39-2.17-6.17-7.55-6.74-13.39-6.74a17,17,0,0,0-2.17.14v5.07l0.56-.12c7.46-1.35,9.89,3.47,8.32,10.24"/>
        <path d="M442.74,106.8h-9.28c0.35-4.17,4.15-8.37,7.57-9.68a11,11,0,0,1,1.71-.49V91.8a17.86,17.86,0,0,0-12.21,7c-2.49,3.14-5.7,10.77-5.7,16.35,0,6.21.55,11.62,8,13.69a21.51,21.51,0,0,0,9.87.14v-5.14c-5,1.52-11.2-.15-11.2-6.12l0.32-6.07h10.88V106.8Zm0,22.13v-5.14c3.29-1,6.09-3.35,6.37-6.76h7c-2,4.22-1.2,5-6.43,8.91a17.21,17.21,0,0,1-5.14,2.52c-0.59.18-1.2,0.34-1.83,0.47m8.93-22.13h-8.93v4.79h15c0-1.87,1.28-5.45,1.28-8.63,0-6.92-4.32-11.5-11.18-11.5a35.35,35.35,0,0,0-5.1.33v4.83a11,11,0,0,1,5.52.17c4.63,1.59,3.87,6.47,3.41,10"/>
        <path d="M614.93,117c0,7.69-10.57,8.5-13.84,5.22-2.61-2.61.25-4.9-1.81-4.9-6.85,0-6.71-.82-6.71,3.83,0,5.16,5.31,8,10.22,8,5.09,0,11.08-.13,14.79-3.74,2.46-2.4,5-5.31,5-10,0-5.1-4.17-6.4-8-7.63-3-1-8.7-1.67-10-3.37-2-2.56-.18-7.85,8.17-7.85,5.51,0,5.11,3,5.11,5.75h7c0-1.62.32-1.74,0.32-3.52,0-7.6-14.84-10.21-23.74-3.61-4.31,3.2-9.83,13.4,3,17,4.09,1.13,10.47,1.86,10.47,4.86"/>
        <path d="M632.18,103.29c0,2.94-.33,4.76,3,6.91,6.08,3.94,15.22,2.11,15.22,7.47,0,7.63-14.49,8.46-15,2.19-0.23-3,2.18-2.51-6.09-2.51-2.33,0-2.91,11.82,8.95,11.82,5.13,0,11-.1,14.78-3.74,2.47-2.41,5-5.28,5-10,0-5.1-4.17-6.4-8-7.63-3-1-8.7-1.67-10-3.37-2-2.56-.18-7.85,8.17-7.85,5.51,0,5.11,2.93,5.11,5.75h7c0-1.62.32-1.74,0.32-3.51,0-8.59-19.31-10.78-26.52-.64a10.2,10.2,0,0,0-1.91,5.12"/>
        <path d="M351,97.27L351.64,95a10.24,10.24,0,0,1,.67-2.53h-7c-0.12,1.36-1.4,6.83-1.78,8.76-0.6,3-5.52,25.26-5.57,27h6.71l3.81-17.92a29.25,29.25,0,0,1,1.52-5.82c4.48-10.62,17-8.07,17-3.1,0,5.65-2.39,14.71-3.7,20.58-0.36,1.62-.9,5.18-1.41,6.25,1.61,0,3.21,0,4.81,0,3.15,0.05,2.19.77,4.42-10.27,1.09-5.39,2.63-10.84,3.34-16.5a8.66,8.66,0,0,0-2.42-7c-1.78-1.78-4-2.33-7.23-2.7-5.52-.62-11.12,2.32-13.47,5.82Z"/>
        <path d="M906.89,97.27L907.55,95a10.24,10.24,0,0,1,.67-2.53h-7c-0.12,1.45-5,23.72-5.57,26.71-0.34,1.73-.62,2.74-1,4.47a30.5,30.5,0,0,0-.83,4.61h6.71c0.87-3.72,4.16-21,5.33-23.74a12.21,12.21,0,0,1,7.4-7,9.38,9.38,0,0,1,6.09.08c5.23,1.83,3.55,7.15,2.51,12-0.46,2.14-3.73,17.9-4.07,18.61,1.61,0,3.21,0,4.81,0,3.15,0.05,2.19.77,4.42-10.27,1.09-5.39,2.63-10.84,3.34-16.5a8.67,8.67,0,0,0-2.42-7c-1.78-1.78-4-2.33-7.23-2.7-5.52-.62-11.12,2.32-13.47,5.82Z"/>
        <path d="M259,128.21l28.77,0c2.65,0,2.29.22,2.75-2a20.21,20.21,0,0,0,.75-4.36H267.64l4.71-22.44c0.78-3.92,1.62-7.44,2.4-11.34,0.34-1.7,2-10.38,2.47-11.26h-7.35l-5.41,25.58C262.68,111,261,119.7,259,128.21"/>
        <path d="M751.67,128.21h7c0-1.93,4.8-23.45,5.3-25.69s5.25-23.84,5.25-25.74h-6.71l-8.12,38.52c-0.87,4.39-1.76,8.69-2.74,12.91"/>
        <path d="M717.49,98.18l0,0v-5.8h-5.8c0,3.62-4.25,21.65-5.24,26.71-0.39,2-1.75,7.5-1.78,9.08,8.13,0,6.63,1.05,7.64-3.86,0.34-1.64.61-3.21,1-4.77,0.75-3.13,1.3-6.21,2-9.46a27.18,27.18,0,0,1,2.16-6.52V98.24s-0.06,0,0-.06m0,0,0,0.05,0,0v5.36c2-3.78,5.11-5.1,11.46-5.1a4.65,4.65,0,0,1,1.6.32c0.31-1.34,1.16-5.79,1.6-6.71-4.2,0-5.6-.14-8.73,1.18a11.77,11.77,0,0,0-3.17,1.93c-1,.93-1.53,2-2.47,2.64a32.85,32.85,0,0,1,1-5.43h-1.23v5.8Z"/>
        <path d="M477.23,98.17c0-1.82.8-3.88,1-5.75h-7a46.54,46.54,0,0,1-1.46,9.08l-5.57,26.7h7c0-1.77,3.38-16.49,3.81-18.56,1.73-8.39,6.54-12.82,15-10.83,0.57-1.2,1.22-5.1,1.6-6.71-7.09,0-9.83.48-13.79,5.38l-0.59.69"/>
        <path d="M936.34,128.21l6.75,0c1.74-.08,1.2.46,1.94-2.85l1.21-5.82h-8c-0.65,2.81-1.26,5.79-1.92,8.62"/>
        <path d="M325.15,84.44c6.24,0,5.69.45,6.13-1.22l1.22-6.45h-6.71a35.47,35.47,0,0,1-.88,4.23c-0.21.95-.34,1.32-0.47,2.16s-0.39,1.27.71,1.27"/>
        <path d="M317.48,84.44c0.35-1.5,1.57-6.47,1.6-7.67h-6.71c-0.72,8.7-5.1,7.67,5.11,7.67"/>
    </g>
</svg>