<?xml version="1.0" encoding="UTF-8"?><svg id="Ebene_1" xmlns="http://www.w3.org/2000/svg" viewBox="0 0 405.62 60.36"><defs><style>.cls-1{fill:#6f6f6e;}.cls-1,.cls-2{stroke-width:0px;}.cls-2{fill:#11306f;}</style></defs><polygon class="cls-2" points="0 4.65 0 55.7 13.71 55.7 13.71 17.07 22.98 17.07 22.98 55.7 36.69 55.7 36.69 17.07 45.89 17.07 45.89 55.7 59.59 55.7 59.59 4.65 0 4.65"/><polygon class="cls-2" points="142.39 4.65 142.39 24.11 129.56 24.11 129.56 4.65 115.85 4.65 115.85 55.7 129.56 55.7 129.56 36.52 142.39 36.52 142.39 55.7 156.1 55.7 156.1 4.65 142.39 4.65"/><polygon class="cls-2" points="165.1 4.65 165.1 55.7 194.75 55.7 194.75 43.27 178.81 43.27 178.81 4.65 165.1 4.65"/><polygon class="cls-2" points="200.14 4.65 200.14 55.7 233.42 55.7 233.42 43.27 213.85 43.27 213.85 36 233.42 36 233.42 24.11 213.85 24.11 213.85 17.08 233.42 17.08 233.42 4.65 200.14 4.65"/><path class="cls-2" d="M68.5,4.65v51.05h13.71v-12.45h11.19v12.45h13.71V4.65h-38.61ZM82.21,17.07h11.19v13.78h-11.19v-13.78Z"/><rect class="cls-1" x="258.95" width="1.9" height="60.36"/><path class="cls-2" d="M405.62,55.73l-20.43-28.87,19.34-22.23h-7.29l-12.92,15.01-11.4,12.92h-.07V4.63h-5.99v51.1h5.99v-15.08l8.38-9.31,17.03,24.39h7.36ZM364.63,55.73l-20.43-28.87,19.34-22.23h-7.29l-12.92,15.01-11.41,12.92h-.07V4.63h-5.99v51.1h5.99v-15.08l8.37-9.31,17.03,24.4h7.36ZM292.37,31.76h7.58c9.17,0,13.28,3.03,13.28,9.38s-3.97,9.24-14.15,9.24h-6.71v-18.62ZM292.37,9.96h6.35c8.52,0,12.05,2.74,12.05,8.16,0,5.92-3.68,8.81-11.19,8.81h-7.22V9.96ZM299.3,55.73c13.79,0,19.99-4.9,19.99-14.58,0-6.57-4.26-11.19-10.39-12.42v-.29c4.67-1.35,7.85-5.68,7.73-10.54,0-8.66-5.7-13.28-17.54-13.28h-12.71v51.1h12.92Z"/></svg>