<svg xmlns="http://www.w3.org/2000/svg" viewBox="0 0 325.69 39" class="header-logo__svg">
                        <title><span class="brand-wrap">Audi BKK</span></title>

                        <path d="M275.67 286h5.16l11.67 22.24h-5.56l-2.4-4.61h-12.68l-2.37 4.61H264zm-2 13.79h9l-4.51-9zM309.3 306.52a10.16 10.16 0 01-6.39 2.21c-4.08 0-7.77-1.35-7.77-7v-9.28H300v8.66c0 2.64 1.2 3.9 4.12 3.9a9.27 9.27 0 004.94-1.32v-11.21h4.83v15.76h-4.21zM318.51 300.34c0-5.19 3.38-8.35 9.34-8.35a11.2 11.2 0 016 1.54V286h4.82v22.24h-4.21l-.33-1.78a10.2 10.2 0 01-6.64 2.27c-5.63 0-8.98-3.19-8.98-8.39zm15.33 3.38v-6.79a10.93 10.93 0 00-5.41-1.22c-3.25 0-5 1.69-5 4.63s1.75 4.61 5 4.61a10.52 10.52 0 005.41-1.23zM344.68 286h4.82v4.18h-4.82zm0 6.48h4.82v15.76h-4.82z" transform="translate(-264 -278.09)" class="header-logo__path header-logo__path--red"></path>

                        <path d="M366.67 286h8.39c6.23 0 9.49 2.15 9.49 6.2 0 2.55-1.35 4-3.59 4.7 3 .77 4.7 2.34 4.7 5.13 0 4.06-3.26 6.21-9.5 6.21h-9.49zm3.17 2.55v7.34h4.54c4.52 0 6.91-.83 6.91-3.69s-2.39-3.65-6.91-3.65zm0 9.8v7.34h5.65c4.51 0 6.91-.8 6.91-3.66s-2.4-3.68-6.91-3.68zM391.61 286h3.17v10.07L408.66 286h4.67l-15.24 10.87 15.7 11.37h-5L394.78 298v10.29h-3.17zM417.57 286h3.16v10.07L434.61 286h4.67l-15.23 10.87 15.69 11.37h-4.94L420.73 298v10.29h-3.16zM570.42 278.09a19.18 19.18 0 00-12.14 4.31 19.27 19.27 0 00-24.29 0 19.27 19.27 0 00-24.29 0 19.28 19.28 0 100 29.93 19.27 19.27 0 0024.29 0 19.27 19.27 0 0024.29 0 19.27 19.27 0 1012.14-34.24zM558.27 306a14.94 14.94 0 010-17.33 14.89 14.89 0 010 17.33zM534 306a14.89 14.89 0 010-17.33 14.89 14.89 0 010 17.33zm-24.29 0a14.94 14.94 0 010-17.33 14.89 14.89 0 010 17.33zm-27.06-8.67a14.92 14.92 0 0124-11.83 19.24 19.24 0 000 23.67 14.92 14.92 0 01-24-11.84zm30.13 11.84a19.28 19.28 0 000-23.67 14.92 14.92 0 0118.16 0 19.24 19.24 0 000 23.67 14.92 14.92 0 01-18.16 0zm24.28 0a19.24 19.24 0 000-23.67 14.92 14.92 0 0118.16 0 19.28 19.28 0 000 23.67 14.92 14.92 0 01-18.16 0zm33.37 3.08a14.85 14.85 0 01-9.08-3.08 19.28 19.28 0 000-23.67 14.92 14.92 0 119.08 26.75z" transform="translate(-264 -278.09)" class="header-logo__path header-logo__path--black"></path>
                    </svg>