<?xml version="1.0" encoding="utf-8"?>
<!-- Generator: Adobe Illustrator 26.4.0, SVG Export Plug-In . SVG Version: 6.00 Build 0)  -->
<svg version="1.1" id="Ebene_1" xmlns="http://www.w3.org/2000/svg" xmlns:xlink="http://www.w3.org/1999/xlink" x="0px" y="0px"
	 viewBox="0 0 275.5 157" style="enable-background:new 0 0 275.5 157;" xml:space="preserve">
<style type="text/css">
	.st0{fill-rule:evenodd;clip-rule:evenodd;fill:#004F9F;}
	.st1{fill:#004F9F;}
	.st2{fill:#BBBDBE;}
</style>
<g>
	<path class="st0" d="M7.4,69.5v3.8h1.2c0.7,0,1.3-0.2,1.7-0.5c0.4-0.3,0.6-0.8,0.6-1.4c0-0.6-0.2-1.1-0.6-1.4
		c-0.4-0.3-1-0.5-1.7-0.5H7.4L7.4,69.5z M7.4,61.1v3.3h1c0.6,0,1.1-0.1,1.4-0.4c0.3-0.3,0.5-0.7,0.5-1.2c0-0.5-0.2-0.9-0.5-1.2
		c-0.3-0.3-0.8-0.4-1.4-0.4H7.4L7.4,61.1z M0.5,79.1V55.4h9.8c2.1,0,3.7,0.6,4.9,1.7c1.2,1.1,1.8,2.7,1.8,4.7c0,1.3-0.3,2.4-0.8,3.2
		c-0.6,0.9-1.3,1.4-2.4,1.7c1.4,0.3,2.4,1,3.1,1.9c0.7,0.9,1,2.2,1,3.7c0,2.2-0.6,3.9-1.9,5c-1.3,1.1-3.2,1.7-5.7,1.7H0.5L0.5,79.1z
		"/>
	<polygon class="st1" points="19.8,79.1 19.8,55.4 27,55.4 27,65.5 31.7,55.4 40,55.4 33.8,67.1 40.9,79.1 32,79.1 27,69.2 27,79.1 
		19.8,79.1 	"/>
	<polygon class="st1" points="42.6,79.1 42.6,55.4 49.8,55.4 49.8,65.5 54.5,55.4 62.8,55.4 56.6,67.1 63.7,79.1 54.8,79.1 
		49.8,69.2 49.8,79.1 42.6,79.1 	"/>
	<polygon class="st1" points="74.3,78.5 77.5,78.5 81.6,60 81.7,60 85.8,78.5 89,78.5 93.7,56.9 91.1,56.9 87.3,74.4 87.3,74.4 
		83.4,56.9 79.9,56.9 76.1,74.4 76,74.4 72.5,56.9 69.6,56.9 74.3,78.5 	"/>
	<polygon class="st1" points="95.3,78.5 105.7,78.5 105.7,76.1 98,76.1 98,68.4 105,68.4 105,66.1 98,66.1 98,59.2 105.3,59.2 
		105.3,56.9 95.3,56.9 95.3,78.5 	"/>
	<path class="st0" d="M108.5,78.5h2.7v-9.8h1.2c2,0,2.8,0.7,3.4,2.5l2.5,7.3h2.9l-3-8.7c-0.4-1.2-1.1-1.9-2.4-2.1v-0.1
		c3.2-0.7,4.3-2.9,4.3-5.2c0-1.6-0.5-3.1-1.6-4.1c-1-0.9-2.3-1.5-4.6-1.5h-5.5V78.5L108.5,78.5z M111.2,59.1h2.2c2.4,0,4,1.1,4,3.6
		c0,1.9-1.1,3.8-4,3.8h-2.1V59.1L111.2,59.1z"/>
	<path class="st0" d="M123.5,78.5h2.7v-9.8h1.2c2,0,2.8,0.7,3.4,2.5l2.5,7.3h2.9l-3-8.7c-0.4-1.2-1.1-1.9-2.4-2.1v-0.1
		c3.2-0.7,4.3-2.9,4.3-5.2c0-1.6-0.5-3.1-1.6-4.1c-1-0.9-2.3-1.5-4.6-1.5h-5.5V78.5L123.5,78.5z M126.2,59.1h2.2c2.4,0,4,1.1,4,3.6
		c0,1.9-1.1,3.8-4,3.8h-2.1V59.1L126.2,59.1z"/>
	<path class="st0" d="M143.5,56.9l-7.2,21.6h2.7l1.7-5.6h8.2l1.7,5.6h2.8l-7.1-21.6H143.5L143.5,56.9z M141.5,70.5l3.4-10.8h0.1
		l3.3,10.8H141.5L141.5,70.5z"/>
	<polygon class="st1" points="154,68.7 160.6,68.7 160.6,70.9 154,70.9 154,68.7 	"/>
	<polygon class="st1" points="163.2,78.5 165.8,78.5 165.8,59.8 165.8,59.8 171.7,78.5 173.7,78.5 179.8,59.8 179.9,59.8 
		179.9,78.5 182.5,78.5 182.5,56.9 178.4,56.9 172.9,74 172.8,74 167.4,56.9 163.2,56.9 163.2,78.5 	"/>
	<polygon class="st1" points="186.2,78.5 196.6,78.5 196.6,76.1 188.9,76.1 188.9,68.4 195.9,68.4 195.9,66.1 188.9,66.1 
		188.9,59.2 196.2,59.2 196.2,56.9 186.2,56.9 186.2,78.5 	"/>
	<polygon class="st1" points="199.4,56.9 202.1,56.9 202.1,78.5 199.4,78.5 199.4,56.9 	"/>
	<path class="st1" d="M214.7,57.4c-1-0.4-2.5-0.7-3.9-0.7c-3.3,0-6,1.9-6,5.4c0,2.8,0.9,4.1,4.8,6.5c2.9,1.8,3.3,2.7,3.3,4.4
		c0,1.8-1.4,3.4-3.8,3.4c-1.3,0-2.9-0.7-4.1-1.4v2.8c1.1,0.6,2.8,0.9,4.5,0.9c4.1,0,6.3-2.7,6.3-6.1c0-2.5-1.1-4.4-4.5-6.3
		c-3.1-1.8-3.7-2.7-3.7-4.1c0-1.8,1.3-3.2,3.4-3.2c1.3,0,2.7,0.4,3.7,1V57.4L214.7,57.4z"/>
	<path class="st1" d="M227.3,57.4c-1-0.4-2.5-0.7-3.9-0.7c-3.3,0-6,1.9-6,5.4c0,2.8,0.9,4.1,4.8,6.5c2.9,1.8,3.3,2.7,3.3,4.4
		c0,1.8-1.4,3.4-3.8,3.4c-1.3,0-2.9-0.7-4.1-1.4v2.8c1.1,0.6,2.8,0.9,4.5,0.9c4.1,0,6.3-2.7,6.3-6.1c0-2.5-1.1-4.4-4.5-6.3
		c-3.1-1.8-3.7-2.7-3.7-4.1c0-1.8,1.3-3.2,3.4-3.2c1.3,0,2.7,0.4,3.7,1V57.4L227.3,57.4z"/>
	<polygon class="st1" points="231.1,78.5 233.7,78.5 233.7,60.8 233.7,60.8 241.9,78.5 245.2,78.5 245.2,56.9 242.6,56.9 
		242.6,74.7 242.6,74.7 234.4,56.9 231.1,56.9 231.1,78.5 	"/>
	<polygon class="st1" points="248.9,78.5 259.4,78.5 259.4,76.1 251.6,76.1 251.6,68.4 258.6,68.4 258.6,66.1 251.6,66.1 
		251.6,59.2 259,59.2 259,56.9 248.9,56.9 248.9,78.5 	"/>
	<path class="st0" d="M262.1,78.5h2.7v-9.8h1.2c2,0,2.8,0.7,3.4,2.5l2.5,7.3h2.9l-3-8.7c-0.4-1.2-1.1-1.9-2.4-2.1v-0.1
		c3.2-0.7,4.3-2.9,4.3-5.2c0-1.6-0.5-3.1-1.6-4.1c-1-0.9-2.3-1.5-4.6-1.5h-5.5V78.5L262.1,78.5z M264.9,59.1h2.2c2.4,0,4,1.1,4,3.6
		c0,1.9-1.1,3.8-4,3.8h-2.1V59.1L264.9,59.1z"/>
	<path class="st2" d="M12.4,130.3c21.7-33.3,61-46.3,117.7-39c18,1.6,34.1,0.5,48.3-3.4C129,122.5,73.7,136.7,12.4,130.3L12.4,130.3
		z"/>
	<path class="st1" d="M259.7,0.5c-9.9,18.3-20.8,34.7-32.3,48.9l-1.7,2l8.1,0l0.4-0.5c10.2-14.8,19.5-31.4,27.7-49.3L259.7,0.5z"/>
	<path class="st1" d="M194.3,83.5l-0.4,0.3c-25.1,21.3-54,36.3-85.8,44.7c-31.8,8.4-67.5,10.4-106,5.9l-1.6-0.2l2.4,21.6l1.1,0.1
		c7,0.4,14,0.6,20.8,0.6c34,0,65.2-4.9,93.1-14.6c33.5-11.7,63.2-30.6,88.1-56.3l2.1-2.1L194.3,83.5z"/>
</g>
</svg>
