<?xml version="1.0" encoding="UTF-8"?><svg id="a" xmlns="http://www.w3.org/2000/svg" width="81" height="28.31" viewBox="0 0 81 28.31"><path d="M12.9,18.5c0,3.69-2.21,5.44-6.92,5.44-2.03.02-4.05-.3-5.98-.95v-3.62c1.91.66,3.91,1.01,5.92,1.03,2.05,0,2.76-.42,2.76-1.58s-.66-1.66-3.32-2.67C1.53,14.68,0,13.01,0,10.27c0-3.61,2.63-5.7,7.24-5.7,1.72-.03,3.43.24,5.05.79v3.8c-1.61-.58-3.31-.89-5.03-.9-2.08,0-3.05.53-3.05,1.66,0,.98.74,1.56,3.32,2.61,4.05,1.69,5.37,3.14,5.37,5.96ZM78.75,6.55c-1.47-2.3-3.58-4.12-6.06-5.26s-5.24-1.53-7.94-1.14-5.24,1.55-7.3,3.34c-2.06,1.79-3.56,4.14-4.33,6.76-.76,2.62-.76,5.41.02,8.03.78,2.62,2.29,4.96,4.36,6.74,2.07,1.78,4.61,2.93,7.31,3.31l8.87-8.89c.42-.39.76-.87.99-1.39.23-.53.36-1.09.37-1.67.01-.58-.09-1.15-.3-1.68-.21-.54-.53-1.02-.93-1.43-.41-.41-.9-.73-1.43-.95-.54-.21-1.11-.31-1.69-.29-.58.02-1.15.16-1.67.41-.52.25-.99.6-1.37,1.04l-.87.95-.87-.95c-.38-.44-.84-.79-1.37-1.04-.52-.25-1.09-.39-1.67-.41-.58-.02-1.15.08-1.69.29-.54.21-1.03.54-1.43.95-.4.41-.72.9-.93,1.43-.21.53-.32,1.11-.3,1.68.01.58.14,1.14.37,1.67.23.53.57,1,.99,1.39l2.87,2.9,2.03-2.03-2.89-2.88c-.16-.13-.28-.29-.37-.47-.09-.18-.14-.38-.15-.58-.01-.2.02-.4.09-.59.07-.19.18-.36.32-.5.14-.14.31-.25.5-.33.19-.07.39-.1.59-.09.2.01.4.07.58.16.18.09.34.23.46.39l2.87,2.88,2.87-2.87c.13-.15.29-.28.46-.37.18-.09.37-.14.57-.16.2-.01.4.02.59.08.19.07.36.17.51.31.14.14.25.31.33.5.07.19.1.39.09.59,0,.2-.06.4-.15.58-.09.18-.22.34-.37.47l-7.85,7.84c-2.37-.7-4.45-2.15-5.92-4.14-1.47-1.99-2.26-4.4-2.24-6.87-.02-1.48.26-2.95.81-4.33.55-1.38,1.37-2.63,2.41-3.69,1.04-1.06,2.27-1.9,3.64-2.48,1.36-.58,2.83-.89,4.31-.9,1.48.01,2.94.32,4.3.9,1.36.58,2.59,1.43,3.62,2.49,1.03,1.06,1.84,2.32,2.38,3.69.54,1.38.8,2.85.76,4.32h0c0,3.69-1.15,6.15-4.39,9.39l-4.48,4.46c7.09-.92,11.98-6.44,11.98-13.85,0-2.73-.78-5.41-2.25-7.7ZM69.22,5.51c.32.31.58.69.76,1.1.18.41.27.86.28,1.31-.02.91-.4,1.77-1.05,2.4-.65.63-1.52.99-2.43.99s-1.78-.35-2.43-.99-1.02-1.5-1.05-2.4c0-.45.1-.89.28-1.31.18-.41.44-.79.76-1.1.32-.31.7-.56,1.12-.73.42-.17.87-.25,1.32-.24.45,0,.9.07,1.32.24.42.17.8.41,1.12.73ZM67.97,7.92c0-.31-.14-.6-.36-.82-.22-.21-.52-.33-.83-.33s-.6.12-.83.33c-.22.21-.35.51-.36.82,0,.32.12.62.34.85.22.23.52.36.84.36.32,0,.62-.13.84-.36.22-.23.35-.53.34-.85ZM48.43,4.8h-5.03l-5.87,7.71v-7.71h-4.21v18.87h4.21v-5.33l.97-1.19,5.03,6.52h5.15l-7.63-9.71,7.37-9.16ZM30.22,18.45c0,3.46-2.69,5.22-7.87,5.22h-6.34V4.8h6.66c4.5,0,6.95,1.69,6.95,4.8.04.52-.03,1.04-.2,1.53-.17.49-.43.95-.78,1.33-.35.39-.77.7-1.24.93-.47.22-.98.35-1.5.38v.05c2.82.42,4.32,2.01,4.32,4.62ZM20.22,12.56h2.32c1.82,0,2.74-.79,2.74-2.35s-.84-2.19-2.74-2.19h-2.32v4.54ZM25.88,18.15c0-1.58-1-2.37-3-2.37h-2.66v4.67h2.66c2,0,3-.77,3-2.3Z" style="fill:#003c6e; stroke-width:0px;"/></svg>