<?xml version="1.0" encoding="UTF-8" standalone="no"?>
<svg
   xmlns:dc="http://purl.org/dc/elements/1.1/"
   xmlns:cc="http://creativecommons.org/ns#"
   xmlns:rdf="http://www.w3.org/1999/02/22-rdf-syntax-ns#"
   xmlns:svg="http://www.w3.org/2000/svg"
   xmlns="http://www.w3.org/2000/svg"
   xmlns:sodipodi="http://sodipodi.sourceforge.net/DTD/sodipodi-0.dtd"
   xmlns:inkscape="http://www.inkscape.org/namespaces/inkscape"
   version="1.1"
   id="Ebene_1"
   x="0px"
   y="0px"
   viewBox="0 0 677.31463 107.71731"
   xml:space="preserve"
   width="677.31464"
   height="107.71732"
   sodipodi:docname="Bertelsmann BKK Logo.svg"
   inkscape:version="1.0.2 (e86c870879, 2021-01-15, custom)"><metadata
   id="metadata113"><rdf:RDF><cc:Work
       rdf:about=""><dc:format>image/svg+xml</dc:format><dc:type
         rdf:resource="http://purl.org/dc/dcmitype/StillImage" /><dc:title></dc:title></cc:Work></rdf:RDF></metadata><defs
   id="defs111" /><sodipodi:namedview
   pagecolor="#ffffff"
   bordercolor="#666666"
   borderopacity="1"
   objecttolerance="10"
   gridtolerance="10"
   guidetolerance="10"
   inkscape:pageopacity="0"
   inkscape:pageshadow="2"
   inkscape:window-width="1680"
   inkscape:window-height="988"
   id="namedview109"
   showgrid="false"
   fit-margin-top="0"
   fit-margin-left="0"
   fit-margin-right="0"
   fit-margin-bottom="0"
   inkscape:zoom="1.057"
   inkscape:cx="374.61028"
   inkscape:cy="-12.924329"
   inkscape:window-x="-8"
   inkscape:window-y="-8"
   inkscape:window-maximized="1"
   inkscape:current-layer="Ebene_1" />
<style
   type="text/css"
   id="style2">
	.st0{fill-rule:evenodd;clip-rule:evenodd;fill:#1E3460;}
	.st1{fill:#1E3460;}
</style>
<g
   id="g106"
   transform="matrix(2.7201342,0,0,2.7201342,-1.9040939,-1.9040939)">
	<g
   id="g32">
		<path
   class="st0"
   d="m 14.3,14 c 0,1.8 -1,3.2 -4.6,3.2 H 3.4 v -6.5 h 6.3 c 3.2,0 4.6,1.2 4.6,3.3 M 13.8,5.8 c 0,2 -1.4,2.8 -3.6,2.8 H 3.4 V 2.9 h 5.9 c 3.6,0 4.5,1.1 4.5,2.9 z m 3.4,8.4 C 17.2,12 15.8,10 12.8,9.6 15.7,9 16.5,7.3 16.5,5.4 c 0,-3.2 -2,-4.7 -7,-4.7 H 0.7 v 18.6 h 9.4 c 5,0 7.1,-2.4 7.1,-5.1 z"
   id="path4" />
		<path
   class="st0"
   d="m 32.2,11.8 h -9.3 c 0.4,-2.9 2.2,-4.1 4.8,-4.1 2.2,0 4.5,1.1 4.5,4.1 m 2.7,1.8 V 12.8 C 34.9,8.4 32.4,6 27.8,6 c -4.7,0 -7.5,2.5 -7.5,7.2 0,4.1 2.7,6.7 7.4,6.7 3.2,0 6.4,-1.2 6.9,-4.4 h -2.7 c -0.6,1.9 -2.1,2.6 -4.3,2.6 -3,0 -4.5,-1.9 -4.8,-4.5 z"
   id="path6" />
		<path
   class="st1"
   d="m 55.7,19.3 v -1.8 c -0.7,0.1 -1.7,0.2 -2.3,0.2 -1.6,0 -2,-0.7 -2,-2.1 V 8.2 h 4.2 V 6.4 H 51.4 V 2.5 l -2.4,1 v 12.3 c 0,2.9 1.4,3.7 4,3.7 0.9,0 1.8,-0.1 2.7,-0.2"
   id="path8" />
		<path
   class="st0"
   d="m 69.1,11.8 h -9.3 c 0.4,-2.9 2.2,-4.1 4.8,-4.1 2.2,0 4.4,1.1 4.5,4.1 m 2.7,1.8 V 12.8 C 71.8,8.4 69.3,6 64.7,6 60,6 57.2,8.5 57.2,13.2 c 0,4.1 2.7,6.7 7.4,6.7 3.2,0 6.4,-1.2 6.9,-4.4 h -2.7 c -0.6,1.9 -2.1,2.6 -4.3,2.6 -3,0 -4.5,-1.9 -4.8,-4.5 z"
   id="path10" />
		<rect
   x="75.400002"
   y="0.80000001"
   class="st1"
   width="2.5"
   height="18.6"
   id="rect12" />
		<path
   class="st1"
   d="m 95.2,15.7 c 0,-1.9 -1.2,-2.9 -3.6,-3.4 l -4.2,-0.8 c -1.9,-0.4 -2.8,-0.8 -2.8,-1.8 0,-1.3 1.5,-2 3.8,-2 1.8,0 3.5,0.5 3.7,2.1 h 2.6 C 94.7,6.7 91.4,6 88.5,6 c -3.4,0 -6.3,1.2 -6.3,4 0,2 1.5,2.9 3.5,3.3 l 4,0.8 c 1.5,0.3 2.9,0.6 2.9,1.8 0,1.4 -1.4,2.2 -4.2,2.2 -2.3,0 -3.9,-0.6 -4.2,-2.4 h -2.7 c 0.2,3 2.9,4.2 6.6,4.2 4.9,-0.1 7.1,-1.5 7.1,-4.2"
   id="path14" />
		<path
   class="st1"
   d="m 122.7,19.3 v -7.5 c 0,-4.3 -2.3,-5.9 -5.7,-5.9 -2.9,0 -4.8,2 -5.6,3.2 -0.7,-2.1 -2.4,-3.2 -4.7,-3.2 -2.3,0 -4,0.8 -5.5,2.8 l -0.1,-2.3 h -2.4 c 0.1,1 0.1,2 0.1,2.9 v 10 h 2.5 V 13 c 0,-3.8 2.4,-5.4 4.6,-5.4 2.3,0 3.5,1.5 3.5,5 v 6.6 h 2.5 v -6.3 c 0,-4.6 3.2,-5.4 4.5,-5.4 2.6,0 3.7,1.8 3.7,5.2 v 6.5 h 2.6"
   id="path16" />
		<path
   class="st0"
   d="m 137.4,13.6 c 0,3.1 -1.8,4.5 -4.9,4.5 -2.4,0 -3.5,-1 -3.5,-2.5 0,-2.9 5.6,-2.6 7,-2.6 h 1.3 v 0.6 m 2.7,5.7 c -0.1,-0.7 -0.1,-1.5 -0.1,-2.5 v -6.4 c 0,-3.2 -2.6,-4.6 -6.2,-4.6 -2.9,0 -6.1,0.8 -6.4,3.9 h 2.7 c 0.2,-1.3 1.4,-2.1 3.8,-2.1 2.2,0 3.7,0.8 3.7,3.1 v 0.5 h -1.4 c -2.9,0 -9.6,-0.2 -9.6,4.3 0,2.5 2.2,4.2 5.5,4.2 2.5,0 4.2,-0.3 5.6,-2.3 0.1,0.6 0.1,1.2 0.1,1.8 h 2.3 z"
   id="path18" />
		<path
   class="st1"
   d="M 158.8,19.3 V 12 c 0,-4.3 -2.6,-6.1 -6.3,-6.1 -4.1,0 -5.3,2.6 -5.6,2.8 l -0.1,-2.3 h -2.4 c 0.1,1 0.1,2 0.1,2.9 v 10 h 2.5 v -6.1 c 0,-4.1 2.4,-5.6 5.1,-5.6 2.4,0 4.1,1.4 4.1,4.4 v 7.3 h 2.6"
   id="path20" />
		<path
   class="st1"
   d="M 177.7,19.3 V 12 c 0,-4.3 -2.6,-6.1 -6.3,-6.1 -4.1,0 -5.3,2.6 -5.6,2.8 l -0.1,-2.3 h -2.4 c 0.1,1 0.1,2 0.1,2.9 v 10 h 2.5 v -6.1 c 0,-4.1 2.4,-5.6 5.1,-5.6 2.4,0 4.1,1.4 4.1,4.4 v 7.3 h 2.6"
   id="path22" />
		<path
   class="st0"
   d="m 197.9,13.8 c 0,1.6 -1.3,2.1 -3,2.1 H 190 v -4.2 h 4.8 c 1.4,-0.1 3.1,0.3 3.1,2.1 m -0.8,-7.6 c 0,1.4 -0.9,2.1 -3.2,2.1 H 190 V 4.2 h 3.8 c 2.1,0 3.3,0.6 3.3,2 z m 6.3,7.9 c 0,-3 -2.4,-4 -4.8,-4.4 2.4,-0.6 4,-1.7 4,-4.3 0,-2.5 -2,-4.6 -7.2,-4.6 h -10.6 v 18.6 h 11 c 5.8,-0.1 7.6,-2.6 7.6,-5.3 z"
   id="path24" />
		<path
   class="st0"
   d="m 207.4,19.3 h 5.4 V 0.8 h -5.4 z m 20,0 -8.5,-10.3 8,-8.3 h -6.5 l -7.5,8.3 7.7,10.2 h 6.8 z"
   id="path26" />
		<path
   class="st0"
   d="m 229,19.3 h 5.4 V 0.8 H 229 Z m 20.1,0 -8.5,-10.3 8,-8.3 H 242 l -7.5,8.3 7.7,10.2 h 6.9 z"
   id="path28" />
		<path
   class="st1"
   d="M 46.7,8.4 V 6.2 c -0.3,0 -0.7,0 -1.1,0 -2.2,0 -3.8,1.3 -4.7,2.9 L 40.8,6.5 h -2.4 c 0.1,1 0.1,2 0.1,2.9 v 10 H 41 v -6.3 c 0,-3.2 1.5,-4.8 4.5,-4.8 0.5,0 0.9,0 1.2,0.1"
   id="path30" />
	</g>
	<g
   id="g104">
		<path
   class="st1"
   d="m 4.4,29 h 1.3 l 3.6,8.9 H 8 L 7,35.6 H 2.9 l -1,2.3 H 0.7 Z M 3.3,34.6 H 6.7 L 5,30.2 Z"
   id="path34" />
		<path
   class="st1"
   d="m 11.8,31.7 v 4 c 0,0.6 0.1,1.4 1.3,1.4 0.6,0 1.1,-0.2 1.5,-0.7 0.3,-0.4 0.3,-0.9 0.3,-1.2 V 31.7 H 16 v 5 c 0,0.1 0,0.8 0,1.2 h -1.2 v -1.1 c -0.2,0.4 -0.6,1.1 -2,1.1 -1.5,0 -2.3,-0.9 -2.3,-2.1 v -4.2 h 1.3 z"
   id="path36" />
		<path
   class="st1"
   d="m 18.4,31.4 c 0,-1 0.2,-2.6 2.8,-2.6 1.2,0 2.6,0.4 2.6,1.8 0,0.6 -0.2,0.9 -0.7,1.2 -0.7,0.5 -0.9,0.7 -0.9,1 0,0.2 0.1,0.4 0.3,0.5 l 1.1,0.7 c 0.8,0.5 1.1,1 1.1,1.7 0,1.4 -1.1,2.2 -2.4,2.2 -0.7,0 -1.5,-0.2 -1.9,-1 -0.1,-0.4 -0.1,-0.7 -0.1,-0.9 h 1.1 c 0,0.7 0.4,1 1,1 0.9,0 1.1,-0.7 1.1,-1.1 0,-0.7 -0.4,-0.9 -0.8,-1.2 L 22,34.2 c -0.6,-0.4 -0.9,-0.8 -0.9,-1.3 0,-0.7 0.5,-1.1 1,-1.5 0.3,-0.2 0.5,-0.4 0.5,-0.9 0,-0.6 -0.5,-1.1 -1.5,-1.1 -1.2,0 -1.6,0.5 -1.6,1.8 v 6.5 h -1.2 v -6.3 z"
   id="path38" />
		<path
   class="st1"
   d="m 27.5,35 c 0,1.3 0.5,2.2 1.8,2.2 0.8,0 1.4,-0.4 1.5,-1.3 H 32 c 0,0.3 -0.1,0.8 -0.5,1.3 -0.3,0.3 -0.9,0.8 -2.1,0.8 -2,0 -2.9,-1.2 -2.9,-3.2 0,-1.2 0.2,-2.2 1.2,-2.9 0.6,-0.4 1.3,-0.5 1.7,-0.5 2.8,0 2.7,2.5 2.7,3.5 h -4.6 z m 3.2,-0.8 c 0,-0.6 -0.1,-1.8 -1.5,-1.8 -0.8,0 -1.7,0.5 -1.7,1.8 z"
   id="path40" />
		<path
   class="st1"
   d="m 33.8,33 c 0,-0.4 0,-0.9 -0.1,-1.3 h 1.2 v 1.2 c 0.2,-0.9 1,-1.2 1.5,-1.2 0.3,0 0.6,0 0.8,0 v 1.1 c -0.1,0 -0.1,0 -0.2,0 -0.1,0 -0.2,0 -0.3,0 -1.4,0 -1.7,0.8 -1.7,1.9 V 38 h -1.2 z"
   id="path42" />
		<path
   class="st1"
   d="m 39.8,38.4 c 0,0.7 0.3,1.2 1.4,1.2 1.6,0 1.6,-1.2 1.6,-2.9 -0.5,1 -1.7,1.1 -2,1.1 -0.6,0 -1.4,-0.1 -1.9,-0.8 -0.5,-0.6 -0.7,-1.5 -0.7,-2.3 0,-2.1 1.2,-3.1 2.8,-3.1 1.2,0 1.7,0.6 2,0.9 v -0.9 h 1.1 v 1.1 3.9 c 0,1.5 0,2.1 -0.3,2.6 -0.5,1 -1.7,1.1 -2.6,1.1 -2.5,0 -2.6,-1.2 -2.6,-2 h 1.2 z m 2.7,-2.1 c 0.2,-0.3 0.4,-0.7 0.4,-1.8 0,-0.8 -0.2,-1.2 -0.5,-1.5 -0.3,-0.3 -0.8,-0.5 -1.3,-0.5 -1.5,0 -1.7,1.5 -1.7,2.3 0,1 0.3,2.2 1.7,2.2 0.7,0 1.1,-0.3 1.4,-0.7 z"
   id="path44" />
		<path
   class="st1"
   d="m 47.1,35 c 0,1.3 0.5,2.2 1.8,2.2 0.8,0 1.4,-0.4 1.5,-1.3 h 1.2 c 0,0.3 -0.1,0.8 -0.5,1.3 -0.3,0.3 -0.9,0.8 -2.1,0.8 -2,0 -2.9,-1.2 -2.9,-3.2 0,-1.2 0.2,-2.2 1.2,-2.9 0.6,-0.4 1.3,-0.5 1.7,-0.5 2.8,0 2.7,2.5 2.7,3.5 h -4.6 z m 3.2,-0.8 c 0,-0.6 -0.1,-1.8 -1.5,-1.8 -0.8,0 -1.7,0.5 -1.7,1.8 z"
   id="path46" />
		<path
   class="st1"
   d="m 53.7,31.7 1.5,4.9 1.6,-4.9 h 1.5 l 1.4,4.9 1.6,-4.9 h 1.2 l -2.2,6.2 H 59 l -1.5,-5.1 -1.6,5.1 h -1.4 l -2.1,-6.2 z"
   id="path48" />
		<path
   class="st1"
   d="m 66.5,31.6 c 2.5,0 3,2 3,3.3 0,1.8 -1,3.3 -3.1,3.3 -2.1,0 -3.1,-1.4 -3.1,-3.2 0,-1.6 0.7,-3.4 3.2,-3.4 z m -0.1,5.7 c 0.9,0 1.9,-0.6 1.9,-2.5 0,-1.5 -0.7,-2.4 -1.8,-2.4 -0.7,0 -1.9,0.5 -1.9,2.4 -0.1,1.3 0.5,2.5 1.8,2.5 z m -1.7,-8.2 h 1.1 v 1.3 h -1.1 z m 2.4,0 h 1.2 v 1.3 h -1.2 z"
   id="path50" />
		<path
   class="st1"
   d="m 71.5,29 h 1.2 v 3.6 c 0.4,-0.7 1.2,-1 2,-1 0.7,0 1.6,0.2 2,1 0.1,0.2 0.2,0.5 0.2,1.4 v 3.9 h -1.2 v -3.7 c 0,-0.6 0,-1.8 -1.3,-1.8 -0.9,0 -1.3,0.5 -1.5,0.8 -0.2,0.3 -0.2,0.9 -0.2,1.3 v 3.3 h -1.2 z"
   id="path52" />
		<path
   class="st1"
   d="m 79.2,32.5 v -0.7 h 1.2 v 1 c 0.1,-0.3 0.6,-1.1 2,-1.1 0.6,0 2.3,0.2 2.3,2.1 V 38 h -1.2 v -4 c 0,-0.4 0,-0.8 -0.3,-1.1 -0.3,-0.3 -0.7,-0.4 -1.1,-0.4 -0.8,0 -1.6,0.6 -1.6,1.9 V 38 h -1.2 v -5.5 z"
   id="path54" />
		<path
   class="st1"
   d="M 86.8,29 H 88 v 8.9 h -1.2 z"
   id="path56" />
		<path
   class="st1"
   d="m 90.3,29 h 1.4 v 1.3 h -1.4 z m 0.1,2.7 h 1.2 v 6.2 h -1.2 z"
   id="path58" />
		<path
   class="st1"
   d="m 97.5,33.7 c 0,-0.3 -0.1,-1.3 -1.2,-1.3 -1.6,0 -1.6,1.9 -1.6,2.3 0,1.3 0.3,2.5 1.5,2.5 1,0 1.3,-0.7 1.3,-1.3 h 1.2 c -0.1,1.2 -1,2.2 -2.5,2.2 -0.4,0 -1.4,-0.1 -2,-0.8 -0.4,-0.4 -0.7,-1.1 -0.7,-2.4 0,-2.6 1.6,-3.4 2.8,-3.4 0.4,0 1.3,0.1 1.9,0.8 0.5,0.5 0.5,1 0.5,1.4 z"
   id="path60" />
		<path
   class="st1"
   d="m 100.3,29 h 1.2 v 3.6 c 0.4,-0.7 1.2,-1 2,-1 0.7,0 1.6,0.2 2,1 0.1,0.2 0.2,0.5 0.2,1.4 v 3.9 h -1.2 v -3.7 c 0,-0.6 0,-1.8 -1.3,-1.8 -0.9,0 -1.3,0.5 -1.5,0.8 -0.2,0.3 -0.2,0.9 -0.2,1.3 v 3.3 h -1.2 z"
   id="path62" />
		<path
   class="st1"
   d="m 111.4,29 h 1.4 v 1.3 h -1.4 z m 0.1,2.7 h 1.2 v 6.2 h -1.2 z"
   id="path64" />
		<path
   class="st1"
   d="m 115.1,32.5 v -0.7 h 1.2 v 1 c 0.1,-0.3 0.6,-1.1 2,-1.1 0.6,0 2.3,0.2 2.3,2.1 V 38 h -1.2 v -4 c 0,-0.4 0,-0.8 -0.3,-1.1 -0.3,-0.3 -0.7,-0.4 -1.1,-0.4 -0.8,0 -1.6,0.6 -1.6,1.9 V 38 h -1.2 v -5.5 z"
   id="path66" />
		<path
   class="st1"
   d="m 126.4,29 h 1.2 v 7.8 h 4.2 v 1.1 h -5.4 z"
   id="path68" />
		<path
   class="st1"
   d="m 133.9,35 c 0,1.3 0.5,2.2 1.8,2.2 0.8,0 1.4,-0.4 1.5,-1.3 h 1.2 c 0,0.3 -0.1,0.8 -0.5,1.3 -0.3,0.3 -0.9,0.8 -2.1,0.8 -2,0 -2.9,-1.2 -2.9,-3.2 0,-1.2 0.2,-2.2 1.2,-2.9 0.6,-0.4 1.3,-0.5 1.7,-0.5 2.8,0 2.7,2.5 2.7,3.5 h -4.6 z m 3.3,-0.8 c 0,-0.6 -0.1,-1.8 -1.5,-1.8 -0.8,0 -1.7,0.5 -1.7,1.8 z"
   id="path70" />
		<path
   class="st1"
   d="m 140.1,29 h 1.4 v 1.3 h -1.4 z m 0.1,2.7 h 1.2 v 6.2 h -1.2 z"
   id="path72" />
		<path
   class="st1"
   d="m 144.4,36.1 c 0,0.5 0.2,1.1 1.4,1.1 0.5,0 0.8,-0.1 1.1,-0.4 0.1,-0.2 0.2,-0.4 0.2,-0.6 0,-0.6 -0.4,-0.7 -1.4,-0.9 -1.3,-0.3 -2.4,-0.6 -2.4,-1.9 0,-1.1 1,-1.9 2.4,-1.9 0.8,0 1.9,0.2 2.2,1 0.2,0.3 0.2,0.6 0.2,0.9 h -1.2 c 0,-0.9 -0.8,-1 -1.2,-1 -0.2,0 -1.3,0 -1.3,0.9 0,0.6 0.6,0.7 0.9,0.8 1.7,0.4 2.1,0.5 2.5,0.9 0.3,0.3 0.5,0.8 0.5,1.2 0,0.7 -0.4,1.3 -0.8,1.6 -0.5,0.3 -1.2,0.4 -1.8,0.4 -1.3,0 -2.4,-0.5 -2.4,-2 h 1.1 z"
   id="path74" />
		<path
   class="st1"
   d="m 149.1,31.7 h 1.1 v -1.3 l 1.1,-0.4 v 1.7 h 1.4 v 0.9 h -1.4 v 3.7 c 0,0.3 0,0.8 0.8,0.8 0.2,0 0.5,0 0.6,-0.1 v 1 c -0.2,0 -0.5,0.1 -1,0.1 -1.1,0 -1.6,-0.3 -1.6,-1.3 V 32.7 H 149 v -1 z"
   id="path76" />
		<path
   class="st1"
   d="m 155.3,31.7 v 4 c 0,0.6 0.1,1.4 1.3,1.4 0.6,0 1.1,-0.2 1.5,-0.7 0.3,-0.4 0.3,-0.9 0.3,-1.2 v -3.5 h 1.2 v 5 c 0,0.1 0,0.8 0,1.2 h -1.2 v -1.1 c -0.2,0.4 -0.6,1.1 -2,1.1 -1.5,0 -2.3,-0.9 -2.3,-2.1 v -4.2 h 1.2 z"
   id="path78" />
		<path
   class="st1"
   d="m 162,32.5 v -0.7 h 1.2 v 1 c 0.1,-0.3 0.6,-1.1 2,-1.1 0.6,0 2.3,0.2 2.3,2.1 V 38 h -1.2 v -4 c 0,-0.4 0,-0.8 -0.3,-1.1 -0.3,-0.3 -0.7,-0.4 -1.1,-0.4 -0.8,0 -1.6,0.6 -1.6,1.9 V 38 H 162 Z"
   id="path80" />
		<path
   class="st1"
   d="m 170.7,38.4 c 0,0.7 0.3,1.2 1.4,1.2 1.6,0 1.6,-1.2 1.6,-2.9 -0.5,1 -1.7,1.1 -2,1.1 -0.6,0 -1.4,-0.1 -1.9,-0.8 -0.5,-0.6 -0.7,-1.5 -0.7,-2.3 0,-2.1 1.2,-3.1 2.8,-3.1 1.2,0 1.7,0.6 2,0.9 v -0.9 h 1.1 v 1.1 3.9 c 0,1.5 0,2.1 -0.3,2.6 -0.5,1 -1.7,1.1 -2.6,1.1 -2.5,0 -2.6,-1.2 -2.6,-2 h 1.2 z m 2.8,-2.1 c 0.2,-0.3 0.4,-0.7 0.4,-1.8 0,-0.8 -0.2,-1.2 -0.5,-1.5 -0.3,-0.3 -0.8,-0.5 -1.3,-0.5 -1.5,0 -1.7,1.5 -1.7,2.3 0,1 0.3,2.2 1.7,2.2 0.7,0 1.1,-0.3 1.4,-0.7 z"
   id="path82" />
		<path
   class="st1"
   d="m 181.9,31.7 v 4 c 0,0.6 0.1,1.4 1.3,1.4 0.6,0 1.1,-0.2 1.5,-0.7 0.3,-0.4 0.3,-0.9 0.3,-1.2 v -3.5 h 1.2 v 5 c 0,0.1 0,0.8 0,1.2 H 185 v -1.1 c -0.2,0.4 -0.6,1.1 -2,1.1 -1.5,0 -2.3,-0.9 -2.3,-2.1 v -4.2 h 1.2 z"
   id="path84" />
		<path
   class="st1"
   d="m 188.6,32.5 v -0.7 h 1.2 v 1 c 0.1,-0.3 0.6,-1.1 2,-1.1 0.6,0 2.3,0.2 2.3,2.1 V 38 h -1.2 v -4 c 0,-0.4 0,-0.8 -0.3,-1.1 -0.3,-0.3 -0.7,-0.4 -1.1,-0.4 -0.8,0 -1.6,0.6 -1.6,1.9 V 38 h -1.2 v -5.5 z"
   id="path86" />
		<path
   class="st1"
   d="m 200.5,29 h 1.2 v 8 c 0,0.1 0,0.7 0,1 h -1.2 v -1 c -0.1,0.2 -0.2,0.4 -0.6,0.7 -0.5,0.3 -1.1,0.5 -1.5,0.5 -0.8,0 -2.7,-0.4 -2.7,-3.2 0,-2.4 1.3,-3.4 2.8,-3.4 1.3,0 1.8,0.8 1.9,1.1 V 29 Z m -0.4,4 c -0.2,-0.3 -0.7,-0.6 -1.4,-0.6 -1.7,0 -1.7,2.1 -1.7,2.5 0,1.1 0.3,2.4 1.7,2.4 1.8,0 1.8,-2 1.8,-2.5 0.1,-1 -0.1,-1.4 -0.4,-1.8 z"
   id="path88" />
		<path
   class="st1"
   d="m 208.4,35.3 c 0,0.6 0.1,1.8 2.2,1.8 1.9,0 2.1,-1.2 2.1,-1.6 0,-1 -0.8,-1.2 -2.1,-1.5 -1.4,-0.3 -2,-0.5 -2.4,-0.8 -0.7,-0.5 -0.9,-1.2 -0.9,-1.8 0,-1.8 1.7,-2.6 3.4,-2.6 0.6,0 1.8,0.1 2.5,0.9 0.5,0.5 0.5,1.1 0.5,1.5 h -1.3 c -0.1,-1.1 -1,-1.4 -1.9,-1.4 -1.2,0 -2,0.6 -2,1.4 0,0.8 0.5,1.1 1.6,1.3 2.1,0.5 2.4,0.6 2.9,0.9 0.8,0.5 0.9,1.4 0.9,1.8 0,1.6 -1.2,2.8 -3.5,2.8 -0.7,0 -2.1,-0.1 -2.8,-1 -0.5,-0.7 -0.5,-1.4 -0.5,-1.8 h 1.3 z"
   id="path90" />
		<path
   class="st1"
   d="m 216.3,35 c 0,1.3 0.5,2.2 1.8,2.2 0.8,0 1.4,-0.4 1.5,-1.3 h 1.2 c 0,0.3 -0.1,0.8 -0.5,1.3 -0.3,0.3 -0.9,0.8 -2.1,0.8 -2,0 -2.9,-1.2 -2.9,-3.2 0,-1.2 0.2,-2.2 1.2,-2.9 0.6,-0.4 1.3,-0.5 1.7,-0.5 2.8,0 2.7,2.5 2.7,3.5 h -4.6 z m 3.3,-0.8 c 0,-0.6 -0.1,-1.8 -1.5,-1.8 -0.8,0 -1.7,0.5 -1.7,1.8 z"
   id="path92" />
		<path
   class="st1"
   d="m 222.7,33 c 0,-0.4 0,-0.9 -0.1,-1.3 h 1.2 v 1.2 c 0.2,-0.9 1,-1.2 1.5,-1.2 0.3,0 0.6,0 0.8,0 v 1.1 c -0.1,0 -0.1,0 -0.2,0 -0.1,0 -0.2,0 -0.3,0 -1.4,0 -1.7,0.8 -1.7,1.9 V 38 h -1.2 z"
   id="path94" />
		<path
   class="st1"
   d="m 226.6,31.7 h 1.3 l 2,4.9 1.9,-4.9 h 1.3 l -2.7,6.2 h -1.2 z"
   id="path96" />
		<path
   class="st1"
   d="m 234.4,29 h 1.4 v 1.3 h -1.4 z m 0.1,2.7 h 1.2 v 6.2 h -1.2 z"
   id="path98" />
		<path
   class="st1"
   d="m 241.6,33.7 c 0,-0.3 -0.1,-1.3 -1.2,-1.3 -1.6,0 -1.6,1.9 -1.6,2.3 0,1.3 0.3,2.5 1.5,2.5 1,0 1.3,-0.7 1.3,-1.3 h 1.2 c -0.1,1.2 -1,2.2 -2.5,2.2 -0.4,0 -1.4,-0.1 -2,-0.8 -0.4,-0.4 -0.7,-1.1 -0.7,-2.4 0,-2.6 1.6,-3.4 2.8,-3.4 0.4,0 1.3,0.1 1.9,0.8 0.5,0.5 0.5,1 0.5,1.4 z"
   id="path100" />
		<path
   class="st1"
   d="m 245.1,35 c 0,1.3 0.5,2.2 1.8,2.2 0.8,0 1.4,-0.4 1.5,-1.3 h 1.2 c 0,0.3 -0.1,0.8 -0.5,1.3 -0.3,0.3 -0.9,0.8 -2.1,0.8 -2,0 -2.9,-1.2 -2.9,-3.2 0,-1.2 0.2,-2.2 1.2,-2.9 0.6,-0.4 1.3,-0.5 1.7,-0.5 2.8,0 2.7,2.5 2.7,3.5 h -4.6 z m 3.3,-0.8 c 0,-0.6 -0.1,-1.8 -1.5,-1.8 -0.8,0 -1.7,0.5 -1.7,1.8 z"
   id="path102" />
	</g>
</g>
</svg>
