<?xml version="1.0" encoding="UTF-8" standalone="no"?>
<svg
   xmlns:dc="http://purl.org/dc/elements/1.1/"
   xmlns:cc="http://creativecommons.org/ns#"
   xmlns:rdf="http://www.w3.org/1999/02/22-rdf-syntax-ns#"
   xmlns:svg="http://www.w3.org/2000/svg"
   xmlns="http://www.w3.org/2000/svg"
   xmlns:sodipodi="http://sodipodi.sourceforge.net/DTD/sodipodi-0.dtd"
   xmlns:inkscape="http://www.inkscape.org/namespaces/inkscape"
   version="1.1"
   id="svg2"
   xml:space="preserve"
   width="429.66928"
   height="218.69919"
   viewBox="0 0 429.66928 218.69918"
   sodipodi:docname="BKK VDN Logo.svg"
   inkscape:version="1.0.2 (e86c870879, 2021-01-15, custom)"><metadata
     id="metadata8"><rdf:RDF><cc:Work
         rdf:about=""><dc:format>image/svg+xml</dc:format><dc:type
           rdf:resource="http://purl.org/dc/dcmitype/StillImage" /><dc:title></dc:title></cc:Work></rdf:RDF></metadata><defs
     id="defs6"><clipPath
       clipPathUnits="userSpaceOnUse"
       id="clipPath18"><path
         d="M 0,0 H 595.276 V 841.89 H 0 Z"
         id="path16" /></clipPath><clipPath
       clipPathUnits="userSpaceOnUse"
       id="clipPath26"><path
         d="M -32768,32767 H 32767 V -32768 H -32768 Z"
         id="path24" /></clipPath><linearGradient
       x1="0"
       y1="0"
       x2="1"
       y2="0"
       gradientUnits="userSpaceOnUse"
       gradientTransform="matrix(0,809.98999,809.98999,0,188.1644,-31.060486)"
       spreadMethod="pad"
       id="linearGradient32"><stop
         style="stop-opacity:1;stop-color:#ffffff"
         offset="0"
         id="stop28" /><stop
         style="stop-opacity:0;stop-color:#ffffff"
         offset="1"
         id="stop30" /></linearGradient><mask
       maskUnits="userSpaceOnUse"
       x="0"
       y="0"
       width="1"
       height="1"
       id="mask34"><g
         id="g44"><g
           clip-path="url(#clipPath26)"
           id="g42"><g
             id="g40"><g
               id="g38"><path
                 d="M -32768,32767 H 32767 V -32768 H -32768 Z"
                 style="fill:url(#linearGradient32);stroke:none"
                 id="path36" /></g></g></g></g></mask><clipPath
       clipPathUnits="userSpaceOnUse"
       id="clipPath52"><path
         d="M -0.913391,847.152 H 609.342 V -15.0551 H -0.913391 Z"
         id="path50" /></clipPath><clipPath
       clipPathUnits="userSpaceOnUse"
       id="clipPath68"><path
         d="m 436.94,748.878 h 142.875 v 78.13 H 436.94 Z"
         id="path66" /></clipPath><clipPath
       clipPathUnits="userSpaceOnUse"
       id="clipPath84"><path
         d="m 442.433,754.687 h 134.402 v 68.41 H 442.433 Z"
         id="path82" /></clipPath><clipPath
       clipPathUnits="userSpaceOnUse"
       id="clipPath100"><path
         d="m 436.94,748.878 h 142.875 v 78.13 H 436.94 Z"
         id="path98" /></clipPath><clipPath
       clipPathUnits="userSpaceOnUse"
       id="clipPath5204"><path
         d="M 0,0 H 595.276 V 841.89 H 0 Z"
         id="path5202" /></clipPath><clipPath
       clipPathUnits="userSpaceOnUse"
       id="clipPath9514"><path
         d="M 0,0 H 595.276 V 841.89 H 0 Z"
         id="path9512" /></clipPath><clipPath
       clipPathUnits="userSpaceOnUse"
       id="clipPath9536"><path
         d="M 0,0 H 595.276 V 841.89 H 0 Z"
         id="path9534" /></clipPath></defs><sodipodi:namedview
     pagecolor="#ffffff"
     bordercolor="#666666"
     borderopacity="1"
     objecttolerance="10"
     gridtolerance="10"
     guidetolerance="10"
     inkscape:pageopacity="0"
     inkscape:pageshadow="2"
     inkscape:window-width="1680"
     inkscape:window-height="988"
     id="namedview4"
     showgrid="false"
     fit-margin-top="0"
     fit-margin-left="0"
     fit-margin-right="0"
     fit-margin-bottom="0"
     inkscape:zoom="1.3095535"
     inkscape:cx="102.04952"
     inkscape:cy="9.6616769"
     inkscape:window-x="-8"
     inkscape:window-y="-8"
     inkscape:window-maximized="1"
     inkscape:current-layer="g10" /><g
     id="g10"
     inkscape:groupmode="layer"
     inkscape:label="BKK VDN Logo"
     transform="matrix(1.3333333,0,0,-1.3333333,-31.788324,1069.1463)"><g
       id="g62"
       transform="matrix(2.3976782,0,0,2.3976782,-1036.9705,-1171.6612)"><g
         id="g64"
         clip-path="url(#clipPath68)"><g
           id="g70"
           transform="translate(452.99991,797.06769)"><path
             d="m 0,0 c -3.242,0.383 -6.009,2.304 -7.555,5.016 -1.931,-4.356 -3.012,-9.168 -3.012,-14.231 0,-11.27 5.268,-21.601 14.074,-28.188 -4.54,6.284 -6.986,13.802 -6.986,21.717 0,5.602 1.252,10.915 3.479,15.686"
             style="fill:#0a81c5;fill-opacity:1;fill-rule:nonzero;stroke:none"
             id="path72" /></g><g
           id="g74"
           transform="translate(477.67929,823.09668)"><path
             d="m 0,0 c -7.571,0 -14.586,-2.407 -20.336,-6.485 2.915,-0.962 5.232,-3.219 6.287,-6.09 6.352,5.047 14.379,8.073 23.104,8.073 3.681,0 7.268,-0.526 10.722,-1.569 C 13.981,-2.124 7.142,0 0,0"
             style="fill:#0a81c5;fill-opacity:1;fill-rule:nonzero;stroke:none"
             id="path76" /></g></g></g><g
       id="g78"
       transform="matrix(2.3976782,0,0,2.3976782,-1036.9705,-1171.6612)"><g
         id="g80"
         clip-path="url(#clipPath84)"><g
           id="g86"
           transform="translate(462.0993,807.05823)"><path
             d="m 0,0 c 0,-4.369 -3.542,-7.911 -7.91,-7.911 -4.369,0 -7.911,3.542 -7.911,7.911 0,4.367 3.542,7.909 7.911,7.909 C -3.542,7.909 0,4.367 0,0"
             style="fill:#0a81c5;fill-opacity:1;fill-rule:nonzero;stroke:none"
             id="path88" /></g><g
           id="g90"
           transform="translate(474.87921,762.31128)"><path
             d="M 0,0 C -0.646,-2.206 -2.288,-3.981 -4.409,-4.812 4.109,-9.216 14.486,-8.409 22.211,-2.667 14.87,-4.678 6.872,-3.823 0,0"
             style="fill:#7b8084;fill-opacity:1;fill-rule:nonzero;stroke:none"
             id="path92" /></g></g></g><g
       id="g94"
       transform="matrix(2.3976782,0,0,2.3976782,-1036.9705,-1171.6612)"><g
         id="g96"
         clip-path="url(#clipPath100)"><g
           id="g102"
           transform="translate(464.96701,771.25317)"><path
             d="M 0,0 C -4.283,6.134 -6.011,13.59 -5.066,20.804 -9.48,12.765 -9.122,2.949 -4.295,-4.739 -3.653,-2.584 -2.06,-0.843 0,0"
             style="fill:#7b8084;fill-opacity:1;fill-rule:nonzero;stroke:none"
             id="path104" /></g><g
           id="g106"
           transform="translate(473.31509,764.39569)"><path
             d="m 0,0 c 0,-3.062 -2.482,-5.544 -5.544,-5.544 -3.062,0 -5.544,2.482 -5.544,5.544 0,3.062 2.482,5.543 5.544,5.543 C -2.482,5.543 0,3.062 0,0"
             style="fill:#7b8084;fill-opacity:1;fill-rule:nonzero;stroke:none"
             id="path108" /></g><g
           id="g110"
           transform="translate(476.77609,781.67969)"><path
             d="m 0,0 1.424,-6.614 c 0.24,-1.078 0.28,-1.331 0.452,-2.342 h 0.067 c 0.173,1.011 0.226,1.291 0.452,2.342 L 3.846,0 H 4.751 L 2.435,-9.794 H 1.278 L -0.918,0 Z"
             style="fill:#0a81c5;fill-opacity:1;fill-rule:nonzero;stroke:none"
             id="path112" /></g><g
           id="g114"
           transform="translate(484.92749,775.62567)"><path
             d="m 0,0 0.003,1.21 c 0,0.825 -0.386,1.291 -1.051,1.291 -0.679,0 -1.051,-0.453 -1.051,-1.291 l -0.005,-1.212 z m 0.815,-1.638 c 0,-0.945 -0.08,-1.343 -0.333,-1.663 C 0.19,-3.66 -0.356,-3.86 -0.995,-3.86 c -1.224,0 -1.929,0.692 -1.929,1.877 V 1.21 c 0,1.198 0.732,1.903 1.956,1.903 1.224,0 1.783,-0.599 1.783,-1.89 V -0.68 h -2.914 v -0.824 c 0,-0.799 0.067,-1.145 0.266,-1.385 0.186,-0.213 0.493,-0.332 0.825,-0.332 0.373,0 0.692,0.146 0.825,0.385 0.12,0.227 0.159,0.506 0.173,1.198 z"
             style="fill:#0a81c5;fill-opacity:1;fill-rule:nonzero;stroke:none"
             id="path116" /></g><g
           id="g118"
           transform="translate(509.9714,775.62567)"><path
             d="m 0,0 0.003,1.21 c 0,0.825 -0.386,1.291 -1.051,1.291 C -1.727,2.501 -2.1,2.048 -2.1,1.21 l -0.005,-1.212 z m 0.815,-1.638 c 0,-0.945 -0.08,-1.343 -0.333,-1.663 -0.293,-0.359 -0.838,-0.559 -1.477,-0.559 -1.224,0 -1.929,0.692 -1.929,1.877 V 1.21 c 0,1.198 0.731,1.903 1.956,1.903 1.224,0 1.783,-0.599 1.783,-1.89 V -0.68 H -2.1 v -0.824 c 0,-0.799 0.067,-1.145 0.267,-1.385 0.186,-0.213 0.492,-0.332 0.825,-0.332 0.372,0 0.692,0.146 0.825,0.385 0.12,0.227 0.159,0.506 0.173,1.198 z"
             style="fill:#0a81c5;fill-opacity:1;fill-rule:nonzero;stroke:none"
             id="path120" /></g><g
           id="g122"
           transform="translate(568.64001,775.62567)"><path
             d="m 0,0 0.002,1.21 c 0,0.825 -0.385,1.291 -1.05,1.291 C -1.727,2.501 -2.1,2.048 -2.1,1.21 l -0.005,-1.212 z m 0.815,-1.638 c 0,-0.945 -0.08,-1.343 -0.333,-1.663 -0.293,-0.359 -0.838,-0.559 -1.477,-0.559 -1.224,0 -1.93,0.692 -1.93,1.877 V 1.21 c 0,1.198 0.732,1.903 1.957,1.903 1.224,0 1.783,-0.599 1.783,-1.89 V -0.68 H -2.1 v -0.824 c 0,-0.799 0.067,-1.145 0.266,-1.385 0.187,-0.213 0.493,-0.332 0.826,-0.332 0.372,0 0.692,0.146 0.825,0.385 0.119,0.227 0.159,0.506 0.173,1.198 z"
             style="fill:#0a81c5;fill-opacity:1;fill-rule:nonzero;stroke:none"
             id="path124" /></g><g
           id="g126"
           transform="translate(487.776,778.61908)"><path
             d="m 0,0 c 0.026,-0.346 0.026,-0.466 0.026,-0.825 l 0.053,-0.014 c 0.467,0.732 0.852,0.985 1.518,0.972 V -0.679 C 0.586,-0.733 0.093,-1.238 0.093,-2.262 v -4.472 h -0.812 v 6.068 c 0,0.186 -0.04,0.52 -0.08,0.666 z"
             style="fill:#0a81c5;fill-opacity:1;fill-rule:nonzero;stroke:none"
             id="path128" /></g><g
           id="g130"
           transform="translate(490.10971,778.6322)"><path
             d="M 0,0 0.747,0.002 0.746,1.474 1.557,1.78 1.555,-0.002 2.488,0 V -0.612 L 1.555,-0.614 c 0,0 0.002,-0.132 0.002,-0.291 v -4.392 c 0,-0.678 0.16,-0.864 0.745,-0.864 H 2.515 V -6.72 C 2.276,-6.747 2.182,-6.747 2.009,-6.747 c -0.877,0 -1.263,0.306 -1.263,0.998 L 0.747,-0.614 0,-0.612 Z"
             style="fill:#0a81c5;fill-opacity:1;fill-rule:nonzero;stroke:none"
             id="path132" /></g><g
           id="g134"
           transform="translate(494.4758,778.61908)"><path
             d="M 0,0 C 0.027,-0.346 0.027,-0.466 0.027,-0.825 L 0.08,-0.839 c 0.466,0.732 0.852,0.985 1.516,0.972 V -0.679 C 0.586,-0.733 0.093,-1.238 0.093,-2.262 v -4.472 h -0.812 v 6.068 c 0,0.186 -0.039,0.52 -0.08,0.666 z"
             style="fill:#0a81c5;fill-opacity:1;fill-rule:nonzero;stroke:none"
             id="path136" /></g><g
           id="g138"
           transform="translate(499.83069,775.3858)"><path
             d="M 0,0 C 0,0 -0.321,0.002 -0.481,-0.004 -0.961,-0.021 -1.25,-0.08 -1.54,-0.2 c -0.452,-0.186 -0.679,-0.652 -0.679,-1.384 0,-1.065 0.267,-1.464 0.985,-1.464 0.732,0 1.238,0.519 1.238,1.264 z M 0.004,-2.902 C -0.329,-3.367 -0.821,-3.62 -1.42,-3.62 c -1.078,0 -1.623,0.665 -1.623,1.956 0,0.998 0.359,1.65 1.051,1.956 0.505,0.226 1.051,0.306 1.996,0.319 v 1.078 c 0,0.679 -0.333,1.025 -0.972,1.025 -0.412,0 -0.745,-0.16 -0.905,-0.426 C -1.992,2.089 -2.032,1.849 -2.059,1.264 h -0.798 c 0.04,1.477 0.598,2.075 1.942,2.075 0.706,0 1.265,-0.266 1.517,-0.705 C 0.748,2.355 0.816,2.049 0.816,1.596 v -4.511 c 0,-0.213 0.013,-0.333 0.08,-0.585 H 0.07 c -0.013,0.252 -0.013,0.319 -0.013,0.585 z"
             style="fill:#0a81c5;fill-opacity:1;fill-rule:nonzero;stroke:none"
             id="path140" /></g><g
           id="g142"
           transform="translate(558.43549,775.3858)"><path
             d="m 0,0 c 0,0 -0.321,0.002 -0.481,-0.004 -0.48,-0.017 -0.77,-0.076 -1.059,-0.196 -0.452,-0.186 -0.679,-0.652 -0.679,-1.384 0,-1.065 0.266,-1.464 0.985,-1.464 0.731,0 1.237,0.519 1.237,1.264 z m 0.003,-2.902 c -0.332,-0.465 -0.825,-0.718 -1.424,-0.718 -1.077,0 -1.623,0.665 -1.623,1.956 0,0.998 0.36,1.65 1.052,1.956 0.505,0.226 1.051,0.306 1.995,0.319 v 1.078 c 0,0.679 -0.332,1.025 -0.971,1.025 -0.412,0 -0.745,-0.16 -0.905,-0.426 C -1.992,2.089 -2.032,1.849 -2.06,1.264 h -0.798 c 0.041,1.477 0.599,2.075 1.944,2.075 0.705,0 1.264,-0.266 1.516,-0.705 C 0.749,2.355 0.815,2.049 0.815,1.596 v -4.511 c 0,-0.213 0.014,-0.333 0.08,-0.585 H 0.07 c -0.013,0.252 -0.013,0.319 -0.013,0.585 z"
             style="fill:#0a81c5;fill-opacity:1;fill-rule:nonzero;stroke:none"
             id="path144" /></g><g
           id="g146"
           transform="translate(504.9469,772.69739)"><path
             d="m 0,0 c -0.292,-0.626 -0.732,-0.918 -1.344,-0.918 -0.985,0 -1.584,0.626 -1.584,1.65 v 5.19 h 0.812 V 0.931 c 0,-0.732 0.36,-1.17 0.972,-1.17 0.692,0 1.105,0.505 1.105,1.343 v 4.818 h 0.811 v -6.734 h -0.811 v 0.306 c 0,0.08 0,0.093 0.105,0.479 z"
             style="fill:#0a81c5;fill-opacity:1;fill-rule:nonzero;stroke:none"
             id="path148" /></g><g
           id="g150"
           transform="translate(512.10522,778.61908)"><path
             d="m 0,0 h 0.812 v -0.306 c 0,-0.08 -0.014,-0.16 -0.067,-0.386 l 0.053,-0.014 c 0.32,0.56 0.745,0.812 1.318,0.812 0.984,0 1.583,-0.625 1.583,-1.65 v -5.19 H 2.888 v 4.991 c 0,0.745 -0.346,1.17 -0.971,1.17 -0.706,0 -1.105,-0.478 -1.105,-1.344 V -6.734 H 0 Z"
             style="fill:#0a81c5;fill-opacity:1;fill-rule:nonzero;stroke:none"
             id="path152" /></g><g
           id="g154"
           transform="translate(521.68622,780.96112)"><path
             d="m 0,0 -0.004,-8.36 1.454,0.003 c 0.559,0 1.025,0.147 1.318,0.413 0.319,0.306 0.426,0.731 0.426,1.809 v 4.046 c 0,0.945 -0.093,1.317 -0.413,1.636 C 2.448,-0.133 2.036,0 1.344,0 Z m -0.919,0.719 h 2.675 c 1.544,0 2.356,-0.892 2.356,-2.569 v -4.697 c 0,-1.743 -0.772,-2.529 -2.489,-2.529 h -2.542 z"
             style="fill:#0a81c5;fill-opacity:1;fill-rule:nonzero;stroke:none"
             id="path156" /></g><g
           id="g158"
           transform="translate(530.18268,772.69739)"><path
             d="m 0,0 c -0.293,-0.626 -0.732,-0.918 -1.344,-0.918 -0.985,0 -1.583,0.626 -1.583,1.65 v 5.19 h 0.811 V 0.931 c 0,-0.732 0.36,-1.17 0.972,-1.17 0.692,0 1.104,0.505 1.104,1.343 V 5.922 H 0.771 V -0.812 H -0.04 v 0.306 c 0,0.08 0,0.093 0.107,0.479 z"
             style="fill:#0a81c5;fill-opacity:1;fill-rule:nonzero;stroke:none"
             id="path160" /></g><g
           id="g162"
           transform="translate(533.11987,778.61908)"><path
             d="m 0,0 c 0.026,-0.346 0.026,-0.466 0.026,-0.825 l 0.053,-0.014 c 0.467,0.732 0.852,0.985 1.518,0.972 V -0.679 C 0.585,-0.733 0.093,-1.238 0.093,-2.262 v -4.472 h -0.812 v 6.068 c 0,0.186 -0.04,0.52 -0.08,0.666 z"
             style="fill:#0a81c5;fill-opacity:1;fill-rule:nonzero;stroke:none"
             id="path164" /></g><g
           id="g166"
           transform="translate(539.03748,773.92133)"><path
             d="m 0,0 c 0,-0.718 -0.053,-1.065 -0.213,-1.397 -0.24,-0.492 -0.772,-0.758 -1.517,-0.758 -1.158,0 -1.677,0.572 -1.677,1.822 v 3.367 c 0,1.184 0.586,1.797 1.717,1.797 0.638,0 1.144,-0.24 1.384,-0.639 0.199,-0.333 0.266,-0.719 0.266,-1.531 h -0.772 v 0.52 c 0,0.612 -0.333,0.984 -0.878,0.984 -0.679,0 -0.905,-0.385 -0.905,-1.57 v -2.621 c 0,-1.145 0.2,-1.478 0.905,-1.478 0.545,0 0.905,0.372 0.905,0.931 V 0 Z"
             style="fill:#0a81c5;fill-opacity:1;fill-rule:nonzero;stroke:none"
             id="path168" /></g><g
           id="g170"
           transform="translate(540.25012,781.67969)"><path
             d="m 0,0 h 0.811 v -1.837 c 0,-0.878 -0.013,-1.091 -0.08,-1.903 l 0.067,-0.026 c 0.333,0.559 0.758,0.811 1.331,0.811 0.998,0 1.583,-0.611 1.583,-1.649 v -5.19 H 2.901 v 4.99 c 0,0.771 -0.347,1.184 -0.985,1.184 -0.705,0 -1.105,-0.492 -1.105,-1.357 V -9.794 H 0 Z"
             style="fill:#0a81c5;fill-opacity:1;fill-rule:nonzero;stroke:none"
             id="path172" /></g><g
           id="g174"
           transform="translate(549.01892,781.67969)"><path
             d="M 0,0 H 1.331 L 3.38,-6.401 c 0.385,-1.184 0.466,-1.437 0.758,-2.528 l 0.067,0.013 C 4.152,-7.785 4.152,-7.479 4.152,-6.281 V 0 h 0.851 v -9.794 h -1.33 l -2.062,6.44 C 1.238,-2.156 1.158,-1.916 0.865,-0.839 L 0.799,-0.852 C 0.838,-1.983 0.852,-2.276 0.852,-3.473 V -9.794 H 0 Z"
             style="fill:#0a81c5;fill-opacity:1;fill-rule:nonzero;stroke:none"
             id="path176" /></g><g
           id="g178"
           transform="translate(560.65088,781.67969)"><path
             d="m 0,0 h 0.812 v -1.837 c 0,-0.878 -0.014,-1.091 -0.081,-1.903 l 0.067,-0.026 c 0.333,0.559 0.759,0.811 1.331,0.811 0.998,0 1.583,-0.611 1.583,-1.649 v -5.19 H 2.901 v 4.99 c 0,0.771 -0.346,1.184 -0.985,1.184 -0.705,0 -1.104,-0.492 -1.104,-1.357 V -9.794 H 0 Z"
             style="fill:#0a81c5;fill-opacity:1;fill-rule:nonzero;stroke:none"
             id="path180" /></g><path
           d="m 556.988,780.748 h -0.892 v 0.958 h 0.892 z"
           style="fill:#0a81c5;fill-opacity:1;fill-rule:nonzero;stroke:none"
           id="path182" /><path
           d="m 558.811,780.748 h -0.892 v 0.958 h 0.892 z"
           style="fill:#0a81c5;fill-opacity:1;fill-rule:nonzero;stroke:none"
           id="path184" /><g
           id="g186"
           transform="translate(479.8266,789.67279)"><path
             d="M 0,0 H 1.614 C 3.81,0 5,0.37 5,2.959 5,5.036 4.234,5.833 1.984,5.833 H 0 Z m 2.117,8.991 c 1.137,0 1.746,0.285 2.142,0.74 0.45,0.512 0.53,1.024 0.53,2.019 0,2.306 -1.508,2.476 -3.069,2.476 H 0 V 8.991 Z m 0.635,8.394 c 4.206,0 5.926,-1.651 5.926,-5.179 C 8.678,9.588 7.566,7.995 5.423,7.511 7.858,7.142 8.995,5.605 8.995,2.418 8.995,-1.451 7.17,-3.159 3.149,-3.159 h -7.117 v 20.544 z"
             style="fill:#7b8084;fill-opacity:1;fill-rule:nonzero;stroke:none"
             id="path188" /></g><g
           id="g190"
           transform="translate(495.22589,807.05731)"><path
             d="M 0,0 V -8.65 L 4.709,0 H 9.101 L 3.756,-9.219 9.101,-20.543 H 4.603 L 0,-10.158 V -20.543 H -4.021 V 0 Z"
             style="fill:#7b8084;fill-opacity:1;fill-rule:nonzero;stroke:none"
             id="path192" /></g><g
           id="g194"
           transform="translate(510.46689,807.05731)"><path
             d="M 0,0 V -8.65 L 4.709,0 H 9.1 L 3.757,-9.219 9.1,-20.543 H 4.603 L 0,-10.158 V -20.543 H -4.022 V 0 Z"
             style="fill:#7b8084;fill-opacity:1;fill-rule:nonzero;stroke:none"
             id="path196" /></g><g
           id="g198"
           transform="translate(527.73993,807.05731)"><path
             d="M 0,0 2.99,-14.938 6.349,0 h 3.942 L 5.238,-20.543 H 0.555 L -4.154,0 Z"
             style="fill:#0a81c5;fill-opacity:1;fill-rule:nonzero;stroke:none"
             id="path200" /></g><g
           id="g202"
           transform="translate(543.7215,789.72931)"><path
             d="m 0,0 h 0.978 c 0.927,0 1.641,0.057 2.196,0.341 1.243,0.655 1.64,2.39 1.64,6.402 0,3.13 -0.185,4.98 -0.634,6.061 C 3.703,13.913 2.751,14.17 1.11,14.17 H 0 Z m 2.063,17.328 c 6.35,0 6.747,-4.325 6.747,-10.471 0,-6.202 -0.636,-10.072 -7.011,-10.072 h -5.874 v 20.543 z"
             style="fill:#0a81c5;fill-opacity:1;fill-rule:nonzero;stroke:none"
             id="path204" /></g><g
           id="g206"
           transform="translate(560.62891,807.05731)"><path
             d="M 0,0 5.105,-14.227 V 0 H 8.809 V -20.543 H 3.57 L -1.668,-5.52 V -20.543 H -5.371 V 0 Z"
             style="fill:#0a81c5;fill-opacity:1;fill-rule:nonzero;stroke:none"
             id="path208" /></g><g
           id="g210"
           transform="translate(574.43359,805.05243)"><path
             d="m 0,0 c 0.409,0.013 0.503,0.182 0.503,0.396 0,0.208 -0.094,0.314 -0.44,0.314 H -0.459 V 0 Z m -0.459,-0.434 v -1.201 h -0.434 v 2.779 h 0.899 c 0.509,0 1.038,-0.138 1.038,-0.767 0,-0.32 -0.195,-0.572 -0.567,-0.647 V -0.283 C 0.861,-0.358 0.905,-0.528 0.949,-0.83 0.987,-1.094 1.018,-1.383 1.113,-1.635 H 0.559 c -0.031,0.157 -0.075,0.334 -0.094,0.497 -0.031,0.239 -0.031,0.459 -0.157,0.591 -0.107,0.113 -0.252,0.101 -0.402,0.113 z m 2.445,0.157 c 0,1.069 -0.867,1.943 -1.942,1.943 -1.082,0 -1.955,-0.874 -1.955,-1.943 0,-1.081 0.873,-1.955 1.955,-1.955 1.075,0 1.942,0.874 1.942,1.955 m -4.312,0 c 0,1.302 1.056,2.358 2.37,2.358 1.307,0 2.357,-1.056 2.357,-2.358 0,-1.314 -1.05,-2.37 -2.357,-2.37 -1.314,0 -2.37,1.056 -2.37,2.37"
             style="fill:#0a81c5;fill-opacity:1;fill-rule:nonzero;stroke:none"
             id="path212" /></g></g></g></g></svg>
