<?xml version="1.0" encoding="utf-8"?>
<!-- Generator: Adobe Illustrator 24.0.1, SVG Export Plug-In . SVG Version: 6.00 Build 0)  -->
<svg version="1.1" id="Logo" xmlns="http://www.w3.org/2000/svg" xmlns:xlink="http://www.w3.org/1999/xlink" x="0px" y="0px"
	 viewBox="0 0 1746.2 809.1" style="enable-background:new 0 0 1746.2 809.1;" xml:space="preserve">
<style type="text/css">
	.st0{clip-path:url(#SVGID_2_);fill:url(#SVGID_3_);}
	.st1{fill:#FFFFFF;}
</style>
<g>
	<defs>
		<path id="SVGID_1_" d="M1071.1,84.9C1022.5,36.5,955.4,6.6,881.4,6.6c-74,0-141.1,29.9-189.7,78.3C643,36.5,576,6.6,501.9,6.6
			c-148.6,0-269,120.5-269,269s120.5,269,269,269c74,0,141.1-29.9,189.7-78.3c48.6,48.4,115.7,78.3,189.7,78.3
			c74,0,141.1-29.9,189.7-78.3c48.6,48.4,115.7,78.3,189.7,78.3c148.6,0,269-120.5,269-269s-120.5-269-269-269
			C1186.8,6.6,1119.8,36.5,1071.1,84.9"/>
	</defs>
	<clipPath id="SVGID_2_">
		<use xlink:href="#SVGID_1_"  style="overflow:visible;"/>
	</clipPath>
	
		<linearGradient id="SVGID_3_" gradientUnits="userSpaceOnUse" x1="-2429.6563" y1="985.5916" x2="-2428.6563" y2="985.5916" gradientTransform="matrix(1297.0001 0 0 -1297.0002 3151497.25 1278588.125)">
		<stop  offset="3.800000e-07" style="stop-color:#EA5929"/>
		<stop  offset="0.1" style="stop-color:#EA5929"/>
		<stop  offset="0.5" style="stop-color:#F39205"/>
		<stop  offset="0.9" style="stop-color:#FCC128"/>
		<stop  offset="1" style="stop-color:#FCC128"/>
	</linearGradient>
	<rect x="232.9" y="6.6" class="st0" width="1297" height="538.1"/>
</g>
<g>
	<path class="st1" d="M697.5,425.7c-11.7-4.9-19.4-16.4-19.4-29.1V154.7c0-17.4,14.1-31.5,31.5-31.5c17.4,0,31.5,14.1,31.5,31.5
		v165.9l188.2-188.2c12.3-12.3,32.2-12.3,44.5,0c12.3,12.3,12.3,32.2,0,44.5L731.8,418.9C722.8,427.9,709.2,430.6,697.5,425.7"/>
	<path class="st1" d="M1113.7,425.7c-11.7-4.9-19.4-16.4-19.4-29.1V230.8L906.1,418.9c-12.2,12.2-32.3,12.2-44.5,0
		c-12.2-12.2-12.2-32.3,0-44.5l241.9-241.9c9-9,22.6-11.7,34.3-6.8c11.7,4.9,19.4,16.4,19.4,29.1v165.9l188.2-188.2
		c9-9,22.6-11.7,34.3-6.8c11.8,4.9,19.4,16.4,19.4,29.1v241.9c0,17.4-14.1,31.5-31.5,31.5c-17.4,0-31.5-14.1-31.5-31.5V230.8
		l-188.2,188.2C1139.1,427.9,1125.5,430.6,1113.7,425.7"/>
	<path class="st1" d="M501.9,433.1c-86.8,0-157.4-70.6-157.4-157.4c0-86.8,70.6-157.4,157.4-157.4c44.3,0,86.7,18.8,116.5,51.6
		c11.3,12.4,10.9,31.6-1,43.5L467.2,363.5c10.7,4.3,22.5,6.6,34.7,6.6c26.5,0,52-11.3,69.9-30.9c11.7-12.9,31.6-13.8,44.5-2.1
		c12.9,11.7,13.8,31.6,2.1,44.5C588.6,414.3,546.2,433.1,501.9,433.1 M501.9,181.3c-52,0-94.4,42.3-94.4,94.4
		c0,16.8,4.4,32.6,12.1,46.2l128.5-128.5C534.2,185.6,518.2,181.3,501.9,181.3"/>
</g>
<g>
	<path d="M47,796.6c-6.4,0-12.8-0.2-19.3-0.6c-6.5-0.4-12.2-1.2-17.1-2.5V676.4c2.6-0.5,5.3-0.9,8.2-1.3c2.9-0.4,5.9-0.7,8.9-1
		c3-0.2,6-0.4,9-0.5c3-0.1,5.8-0.2,8.4-0.2c7.3,0,14.1,0.6,20.4,1.7c6.3,1.1,11.7,2.9,16.3,5.5c4.6,2.6,8.1,5.9,10.7,10.1
		c2.5,4.2,3.8,9.3,3.8,15.5c0,5.7-1.4,10.6-4.1,14.6c-2.7,4.1-6.5,7.3-11.4,9.7c7.3,2.4,12.7,6,16.2,10.8c3.5,4.8,5.2,10.8,5.2,18.1
		c0,12.4-4.5,21.7-13.6,27.9C79.6,793.5,65.7,796.6,47,796.6z M32.2,723.7h15.5c8.4,0,14.9-1.2,19.7-3.6c4.8-2.4,7.1-6.6,7.1-12.8
		c0-5.8-2.5-9.9-7.4-12.4c-4.9-2.4-11.3-3.7-19.2-3.7c-3.4,0-6.4,0.1-9,0.2c-2.6,0.1-4.8,0.3-6.7,0.5V723.7z M32.2,740.9v36.7
		c2.4,0.2,5,0.4,7.8,0.5c2.8,0.1,5.3,0.2,7.7,0.2c4.5,0,8.7-0.3,12.6-0.9c3.9-0.6,7.2-1.6,10.1-3c2.8-1.4,5.1-3.4,6.8-5.8
		c1.7-2.4,2.5-5.6,2.5-9.4c0-6.8-2.5-11.6-7.5-14.3c-5-2.7-11.9-4-20.7-4H32.2z"/>
	<path d="M116.8,750.1c0-8,1.2-15,3.6-21.1c2.4-6,5.5-11,9.5-15.1c3.9-4,8.5-7,13.6-9c5.1-2,10.3-3,15.7-3
		c12.5,0,22.3,3.9,29.3,11.7c7,7.8,10.5,19.4,10.5,34.8c0,1.2,0,2.5-0.1,3.9c-0.1,1.5-0.1,2.8-0.3,3.9h-60c0.6,7.3,3.2,13,7.7,17
		c4.6,4,11.2,6,19.9,6c5.1,0,9.8-0.5,14-1.4c4.2-0.9,7.6-1.9,10-3l2.8,17.2c-1.2,0.6-2.8,1.2-4.8,1.8c-2,0.6-4.3,1.2-7,1.7
		c-2.6,0.5-5.4,1-8.4,1.3c-3,0.3-6.1,0.5-9.2,0.5c-8,0-15-1.2-20.9-3.6c-5.9-2.4-10.8-5.7-14.6-9.9c-3.8-4.2-6.7-9.2-8.5-15
		C117.7,763.3,116.8,757,116.8,750.1z M177.9,740.8c0-2.9-0.4-5.7-1.2-8.3c-0.8-2.6-2-4.9-3.6-6.8c-1.6-1.9-3.5-3.4-5.7-4.5
		c-2.3-1.1-5-1.7-8.1-1.7c-3.2,0-6.1,0.6-8.5,1.8c-2.4,1.2-4.5,2.8-6.2,4.8c-1.7,2-3,4.2-3.9,6.8c-0.9,2.6-1.6,5.2-1.9,7.8H177.9z"
		/>
	<path d="M218.1,680.2l21.1-3.5v27.5h32.4v17.6h-32.4v37.1c0,7.3,1.2,12.5,3.5,15.7c2.3,3.1,6.3,4.7,11.8,4.7
		c3.8,0,7.2-0.4,10.2-1.2c3-0.8,5.3-1.6,7-2.3l3.5,16.7c-2.4,1-5.6,2.1-9.6,3.2c-3.9,1.1-8.6,1.7-13.9,1.7c-6.5,0-11.9-0.9-16.3-2.6
		c-4.3-1.7-7.8-4.3-10.4-7.6c-2.6-3.3-4.4-7.3-5.4-12c-1-4.7-1.6-10.1-1.6-16.1V680.2z"/>
	<path d="M341.6,723.2c-1.7-0.6-4.1-1.2-7.2-1.8c-3.1-0.6-6.6-1-10.7-1c-2.3,0-4.8,0.2-7.4,0.7c-2.6,0.5-4.4,0.9-5.5,1.2v72.9h-21.1
		v-86.7c4.1-1.5,9.1-2.9,15.2-4.3c6.1-1.3,12.8-2,20.3-2c1.4,0,3,0.1,4.9,0.3c1.9,0.2,3.7,0.4,5.6,0.7c1.9,0.3,3.7,0.6,5.4,1
		c1.7,0.4,3.1,0.8,4.2,1.1L341.6,723.2z"/>
	<path d="M381.3,677.6c0,3.9-1.3,7.1-3.8,9.4c-2.6,2.3-5.6,3.5-9,3.5c-3.6,0-6.7-1.2-9.2-3.5c-2.6-2.3-3.8-5.5-3.8-9.4
		c0-4.1,1.3-7.2,3.8-9.6c2.6-2.3,5.6-3.5,9.2-3.5c3.5,0,6.5,1.2,9,3.5C380,670.3,381.3,673.5,381.3,677.6z M379,795.2H358v-91H379
		V795.2z"/>
	<path d="M398.7,750.1c0-8,1.2-15,3.6-21.1c2.4-6,5.5-11,9.5-15.1c3.9-4,8.5-7,13.6-9c5.1-2,10.3-3,15.7-3
		c12.5,0,22.3,3.9,29.3,11.7c7,7.8,10.5,19.4,10.5,34.8c0,1.2,0,2.5-0.1,3.9c-0.1,1.5-0.1,2.8-0.3,3.9h-60c0.6,7.3,3.2,13,7.7,17
		c4.6,4,11.2,6,19.9,6c5.1,0,9.8-0.5,14-1.4c4.2-0.9,7.6-1.9,10-3l2.8,17.2c-1.2,0.6-2.8,1.2-4.8,1.8c-2,0.6-4.4,1.2-7,1.7
		c-2.6,0.5-5.4,1-8.4,1.3c-3,0.3-6.1,0.5-9.2,0.5c-8,0-15-1.2-20.9-3.6c-5.9-2.4-10.8-5.7-14.6-9.9c-3.8-4.2-6.7-9.2-8.5-15
		C399.6,763.3,398.7,757,398.7,750.1z M459.8,740.8c0-2.9-0.4-5.7-1.2-8.3c-0.8-2.6-2-4.9-3.6-6.8c-1.6-1.9-3.5-3.4-5.7-4.5
		c-2.3-1.1-5-1.7-8.1-1.7c-3.2,0-6.1,0.6-8.5,1.8c-2.4,1.2-4.5,2.8-6.2,4.8c-1.7,2-3,4.2-3.9,6.8c-0.9,2.6-1.6,5.2-1.9,7.8H459.8z"
		/>
	<path d="M583,749.8c0,7.3-1.1,13.9-3.2,19.7c-2.1,5.9-5.2,10.9-9.2,15.1c-4,4.2-8.8,7.4-14.5,9.6c-5.7,2.2-12.1,3.3-19.3,3.3
		c-7,0-13.6-0.5-19.9-1.6c-6.3-1-11.6-2.2-15.7-3.5V663.7l21.1-3.5v47.2c2.4-1.3,5.4-2.4,9-3.5c3.5-1,7.5-1.6,11.7-1.6
		c6.4,0,12.1,1.1,17.1,3.4c5,2.3,9.2,5.5,12.6,9.7c3.4,4.2,5.9,9.2,7.7,15.1C582.1,736.3,583,742.7,583,749.8z M561.4,749.5
		c0-8.9-1.8-16-5.3-21.2c-3.5-5.2-9.1-7.8-16.8-7.8c-3.5,0-6.8,0.5-9.8,1.6c-3.1,1-5.5,2.2-7.4,3.5v52.4c1.5,0.3,3.5,0.7,5.8,1
		c2.4,0.3,5.2,0.4,8.6,0.4c7.8,0,13.9-2.6,18.3-7.9C559.2,766,561.4,758.7,561.4,749.5z"/>
	<path d="M625.4,780.1c5.6,0,9.6-0.7,12.2-2c2.5-1.3,3.8-3.6,3.8-6.9c0-3-1.4-5.5-4.1-7.5c-2.7-2-7.2-4.1-13.5-6.4
		c-3.8-1.4-7.3-2.9-10.5-4.4c-3.2-1.6-5.9-3.4-8.3-5.5c-2.3-2.1-4.1-4.6-5.5-7.6c-1.3-3-2-6.6-2-10.9c0-8.4,3.1-14.9,9.2-19.7
		c6.1-4.8,14.5-7.2,25.1-7.2c5.3,0,10.4,0.5,15.3,1.5c4.9,1,8.5,1.9,11,2.9l-3.8,17.1c-2.3-1-5.3-2-8.9-2.9
		c-3.6-0.9-7.8-1.3-12.5-1.3c-4.3,0-7.8,0.7-10.4,2.2c-2.7,1.5-4,3.7-4,6.7c0,1.5,0.3,2.8,0.8,4c0.5,1.2,1.4,2.2,2.7,3.2
		c1.3,1,3,2,5,3c2.1,1,4.6,2,7.7,3c5,1.9,9.2,3.7,12.7,5.5c3.5,1.8,6.4,3.8,8.6,6.1c2.3,2.3,3.9,4.8,5,7.7c1,2.9,1.6,6.4,1.6,10.4
		c0,8.7-3.2,15.3-9.7,19.7c-6.4,4.5-15.6,6.7-27.6,6.7c-8,0-14.4-0.7-19.3-2c-4.9-1.3-8.3-2.4-10.3-3.2l3.7-17.6
		c3.1,1.3,6.9,2.5,11.2,3.7C614.9,779.5,619.8,780.1,625.4,780.1z"/>
	<path d="M701.1,739.7c2.7-2.8,5.5-5.8,8.5-9c3-3.2,6-6.4,8.9-9.6c2.9-3.2,5.7-6.3,8.3-9.2c2.6-3,4.8-5.5,6.7-7.7h24.9
		c-5.8,6.5-11.9,13.2-18.3,20.2c-6.4,7-12.9,13.7-19.4,20.4c3.5,2.9,7.1,6.4,10.9,10.5c3.8,4.1,7.5,8.5,11.1,13.1
		c3.6,4.6,6.9,9.3,10.1,13.9c3.1,4.6,5.7,8.9,7.8,12.9h-24.4c-2.1-3.6-4.5-7.4-7.2-11.3c-2.7-3.9-5.7-7.8-8.8-11.5
		c-3.1-3.7-6.3-7.2-9.6-10.5c-3.2-3.3-6.4-6.1-9.6-8.4v41.8H680V663.7l21.1-3.5V739.7z"/>
	<path d="M825.7,723.2c-1.7-0.6-4.1-1.2-7.2-1.8c-3.1-0.6-6.6-1-10.7-1c-2.3,0-4.8,0.2-7.4,0.7c-2.6,0.5-4.4,0.9-5.5,1.2v72.9h-21.1
		v-86.7c4.1-1.5,9.1-2.9,15.2-4.3c6.1-1.3,12.8-2,20.3-2c1.4,0,3,0.1,4.9,0.3c1.9,0.2,3.7,0.4,5.6,0.7c1.9,0.3,3.7,0.6,5.4,1
		c1.7,0.4,3.1,0.8,4.2,1.1L825.7,723.2z"/>
	<path d="M872.1,702c7,0,12.8,0.9,17.6,2.6c4.8,1.7,8.6,4.2,11.4,7.3c2.8,3.1,4.9,6.9,6.1,11.4c1.2,4.5,1.8,9.4,1.8,14.7v55.2
		c-3.2,0.7-8.2,1.5-14.7,2.5c-6.6,1-14,1.5-22.2,1.5c-5.5,0-10.4-0.5-15-1.6c-4.5-1-8.4-2.7-11.6-5c-3.2-2.3-5.7-5.3-7.5-9
		c-1.8-3.7-2.7-8.3-2.7-13.7c0-5.2,1-9.6,3-13.2c2-3.6,4.8-6.5,8.3-8.8c3.5-2.3,7.5-3.9,12.1-4.9c4.6-1,9.4-1.5,14.4-1.5
		c2.3,0,4.8,0.1,7.3,0.4c2.5,0.3,5.3,0.8,8.2,1.5v-3.5c0-2.4-0.3-4.8-0.9-7c-0.6-2.2-1.6-4.1-3-5.8c-1.5-1.7-3.4-3-5.7-3.9
		c-2.4-0.9-5.4-1.4-9-1.4c-4.9,0-9.3,0.3-13.4,1c-4.1,0.7-7.4,1.5-9.9,2.4l-2.6-17.1c2.7-0.9,6.6-1.9,11.7-2.8
		C860.9,702.4,866.3,702,872.1,702z M873.9,780.4c6.5,0,11.4-0.3,14.8-1v-23.3c-1.2-0.3-2.8-0.7-5-1c-2.2-0.3-4.6-0.5-7.3-0.5
		c-2.3,0-4.7,0.2-7,0.5c-2.4,0.3-4.5,1-6.4,1.9c-1.9,0.9-3.5,2.2-4.6,3.9c-1.2,1.7-1.7,3.8-1.7,6.4c0,5,1.6,8.4,4.7,10.4
		C864.3,779.5,868.5,780.4,873.9,780.4z"/>
	<path d="M932.7,707.2c4.1-1.2,9.3-2.3,15.8-3.3c6.5-1,13.7-1.6,21.6-1.6c7.4,0,13.6,1,18.6,3c5,2,9,4.9,11.9,8.5
		c3,3.7,5,8.1,6.3,13.2c1.2,5.2,1.8,10.8,1.8,17v51.2h-21.1v-47.8c0-4.9-0.3-9-1-12.4c-0.6-3.4-1.7-6.2-3.1-8.4
		c-1.5-2.1-3.4-3.7-5.9-4.7c-2.5-1-5.5-1.5-9.1-1.5c-2.7,0-5.5,0.2-8.4,0.5c-2.9,0.3-5,0.6-6.4,0.9v73.4h-21.1V707.2z"/>
	<path d="M1053.4,739.7c2.7-2.8,5.5-5.8,8.5-9c3-3.2,6-6.4,8.9-9.6c2.9-3.2,5.7-6.3,8.3-9.2c2.6-3,4.8-5.5,6.7-7.7h24.9
		c-5.8,6.5-11.9,13.2-18.3,20.2c-6.4,7-12.9,13.7-19.4,20.4c3.5,2.9,7.1,6.4,10.9,10.5c3.8,4.1,7.5,8.5,11.1,13.1
		c3.6,4.6,6.9,9.3,10.1,13.9c3.1,4.6,5.7,8.9,7.8,12.9h-24.4c-2.1-3.6-4.5-7.4-7.2-11.3c-2.7-3.9-5.7-7.8-8.8-11.5
		c-3.1-3.7-6.3-7.2-9.6-10.5c-3.2-3.3-6.4-6.1-9.6-8.4v41.8h-21.1V663.7l21.1-3.5V739.7z"/>
	<path d="M1117.1,750.1c0-8,1.2-15,3.6-21.1c2.4-6,5.5-11,9.5-15.1c3.9-4,8.5-7,13.6-9c5.1-2,10.3-3,15.7-3
		c12.5,0,22.3,3.9,29.3,11.7c7,7.8,10.5,19.4,10.5,34.8c0,1.2,0,2.5-0.1,3.9c-0.1,1.5-0.1,2.8-0.3,3.9h-60c0.6,7.3,3.2,13,7.7,17
		c4.6,4,11.2,6,19.9,6c5.1,0,9.8-0.5,14-1.4c4.2-0.9,7.6-1.9,10-3l2.8,17.2c-1.2,0.6-2.8,1.2-4.8,1.8c-2,0.6-4.4,1.2-7,1.7
		c-2.6,0.5-5.4,1-8.4,1.3c-3,0.3-6.1,0.5-9.2,0.5c-8,0-15-1.2-20.9-3.6c-5.9-2.4-10.8-5.7-14.6-9.9c-3.8-4.2-6.7-9.2-8.5-15
		C1118.1,763.3,1117.1,757,1117.1,750.1z M1178.2,740.8c0-2.9-0.4-5.7-1.2-8.3c-0.8-2.6-2-4.9-3.6-6.8c-1.6-1.9-3.5-3.4-5.7-4.5
		c-2.3-1.1-5-1.7-8.1-1.7c-3.2,0-6.1,0.6-8.5,1.8c-2.4,1.2-4.5,2.8-6.2,4.8c-1.7,2-3,4.2-3.9,6.8c-0.9,2.6-1.6,5.2-1.9,7.8H1178.2z"
		/>
	<path d="M1219.4,707.2c4.1-1.2,9.3-2.3,15.8-3.3c6.5-1,13.7-1.6,21.6-1.6c7.4,0,13.6,1,18.6,3c5,2,9,4.9,11.9,8.5
		c3,3.7,5,8.1,6.3,13.2c1.2,5.2,1.8,10.8,1.8,17v51.2h-21.1v-47.8c0-4.9-0.3-9-1-12.4c-0.6-3.4-1.7-6.2-3.1-8.4
		c-1.5-2.1-3.4-3.7-5.9-4.7c-2.5-1-5.5-1.5-9.1-1.5c-2.7,0-5.5,0.2-8.4,0.5c-2.9,0.3-5,0.6-6.4,0.9v73.4h-21.1V707.2z"/>
	<path d="M1340.2,739.7c2.7-2.8,5.5-5.8,8.5-9c3-3.2,6-6.4,8.9-9.6c2.9-3.2,5.7-6.3,8.3-9.2c2.6-3,4.8-5.5,6.7-7.7h24.9
		c-5.8,6.5-11.9,13.2-18.3,20.2c-6.4,7-12.9,13.7-19.4,20.4c3.5,2.9,7.1,6.4,10.9,10.5c3.8,4.1,7.5,8.5,11.1,13.1
		c3.6,4.6,6.9,9.3,10.1,13.9c3.1,4.6,5.7,8.9,7.8,12.9h-24.4c-2.1-3.6-4.5-7.4-7.2-11.3c-2.7-3.9-5.7-7.8-8.8-11.5
		c-3.1-3.7-6.3-7.2-9.6-10.5c-3.2-3.3-6.4-6.1-9.6-8.4v41.8h-21.1V663.7l21.1-3.5V739.7z"/>
	<path d="M1443.2,702c7,0,12.8,0.9,17.6,2.6c4.8,1.7,8.6,4.2,11.4,7.3c2.8,3.1,4.9,6.9,6.1,11.4c1.2,4.5,1.8,9.4,1.8,14.7v55.2
		c-3.2,0.7-8.2,1.5-14.7,2.5c-6.6,1-14,1.5-22.2,1.5c-5.5,0-10.4-0.5-15-1.6c-4.5-1-8.4-2.7-11.6-5c-3.2-2.3-5.7-5.3-7.5-9
		c-1.8-3.7-2.7-8.3-2.7-13.7c0-5.2,1-9.6,3-13.2c2-3.6,4.8-6.5,8.3-8.8c3.5-2.3,7.5-3.9,12.1-4.9c4.6-1,9.4-1.5,14.4-1.5
		c2.3,0,4.8,0.1,7.3,0.4c2.5,0.3,5.3,0.8,8.2,1.5v-3.5c0-2.4-0.3-4.8-0.9-7c-0.6-2.2-1.6-4.1-3-5.8c-1.5-1.7-3.4-3-5.7-3.9
		c-2.4-0.9-5.4-1.4-9-1.4c-4.9,0-9.3,0.3-13.4,1c-4.1,0.7-7.4,1.5-9.9,2.4l-2.6-17.1c2.7-0.9,6.6-1.9,11.7-2.8
		C1431.9,702.4,1437.4,702,1443.2,702z M1444.9,780.4c6.5,0,11.4-0.3,14.8-1v-23.3c-1.2-0.3-2.8-0.7-5-1c-2.2-0.3-4.6-0.5-7.3-0.5
		c-2.3,0-4.7,0.2-7,0.5c-2.4,0.3-4.5,1-6.4,1.9c-1.9,0.9-3.5,2.2-4.6,3.9c-1.2,1.7-1.7,3.8-1.7,6.4c0,5,1.6,8.4,4.7,10.4
		C1435.4,779.5,1439.6,780.4,1444.9,780.4z"/>
	<path d="M1526.5,780.1c5.6,0,9.6-0.7,12.2-2c2.5-1.3,3.8-3.6,3.8-6.9c0-3-1.4-5.5-4.1-7.5c-2.7-2-7.2-4.1-13.5-6.4
		c-3.8-1.4-7.3-2.9-10.5-4.4c-3.2-1.6-5.9-3.4-8.3-5.5c-2.3-2.1-4.1-4.6-5.5-7.6c-1.3-3-2-6.6-2-10.9c0-8.4,3.1-14.9,9.2-19.7
		c6.1-4.8,14.5-7.2,25.1-7.2c5.3,0,10.4,0.5,15.3,1.5c4.9,1,8.5,1.9,11,2.9l-3.8,17.1c-2.3-1-5.3-2-8.9-2.9
		c-3.6-0.9-7.8-1.3-12.5-1.3c-4.3,0-7.8,0.7-10.4,2.2c-2.7,1.5-4,3.7-4,6.7c0,1.5,0.3,2.8,0.8,4c0.5,1.2,1.4,2.2,2.7,3.2
		c1.3,1,3,2,5,3c2.1,1,4.6,2,7.7,3c5,1.9,9.2,3.7,12.7,5.5c3.5,1.8,6.4,3.8,8.6,6.1c2.3,2.3,3.9,4.8,5,7.7c1,2.9,1.6,6.4,1.6,10.4
		c0,8.7-3.2,15.3-9.7,19.7c-6.4,4.5-15.6,6.7-27.6,6.7c-8,0-14.4-0.7-19.3-2c-4.9-1.3-8.3-2.4-10.3-3.2l3.7-17.6
		c3.1,1.3,6.9,2.5,11.2,3.7C1516,779.5,1521,780.1,1526.5,780.1z"/>
	<path d="M1604,780.1c5.6,0,9.6-0.7,12.2-2c2.5-1.3,3.8-3.6,3.8-6.9c0-3-1.4-5.5-4.1-7.5c-2.7-2-7.2-4.1-13.5-6.4
		c-3.8-1.4-7.3-2.9-10.5-4.4c-3.2-1.6-5.9-3.4-8.3-5.5c-2.3-2.1-4.1-4.6-5.5-7.6c-1.3-3-2-6.6-2-10.9c0-8.4,3.1-14.9,9.2-19.7
		c6.1-4.8,14.5-7.2,25.1-7.2c5.3,0,10.4,0.5,15.3,1.5c4.9,1,8.5,1.9,11,2.9l-3.8,17.1c-2.3-1-5.3-2-8.9-2.9
		c-3.6-0.9-7.8-1.3-12.5-1.3c-4.3,0-7.8,0.7-10.4,2.2c-2.7,1.5-4,3.7-4,6.7c0,1.5,0.3,2.8,0.8,4c0.5,1.2,1.4,2.2,2.7,3.2
		c1.3,1,3,2,5,3c2.1,1,4.6,2,7.7,3c5,1.9,9.2,3.7,12.7,5.5c3.5,1.8,6.4,3.8,8.6,6.1c2.3,2.3,3.9,4.8,5,7.7c1,2.9,1.6,6.4,1.6,10.4
		c0,8.7-3.2,15.3-9.7,19.7c-6.4,4.5-15.6,6.7-27.6,6.7c-8,0-14.4-0.7-19.3-2c-4.9-1.3-8.3-2.4-10.3-3.2l3.7-17.6
		c3.1,1.3,6.9,2.5,11.2,3.7C1593.4,779.5,1598.4,780.1,1604,780.1z"/>
	<path d="M1653.6,750.1c0-8,1.2-15,3.6-21.1c2.4-6,5.5-11,9.5-15.1c3.9-4,8.5-7,13.6-9c5.1-2,10.3-3,15.7-3
		c12.5,0,22.3,3.9,29.3,11.7c7,7.8,10.5,19.4,10.5,34.8c0,1.2,0,2.5-0.1,3.9c-0.1,1.5-0.1,2.8-0.3,3.9h-60c0.6,7.3,3.2,13,7.7,17
		c4.6,4,11.2,6,19.9,6c5.1,0,9.8-0.5,14-1.4c4.2-0.9,7.6-1.9,10-3l2.8,17.2c-1.2,0.6-2.8,1.2-4.8,1.8c-2,0.6-4.4,1.2-7,1.7
		c-2.6,0.5-5.4,1-8.4,1.3c-3,0.3-6.1,0.5-9.2,0.5c-8,0-15-1.2-20.9-3.6c-5.9-2.4-10.8-5.7-14.6-9.9c-3.8-4.2-6.7-9.2-8.5-15
		C1654.5,763.3,1653.6,757,1653.6,750.1z M1714.6,740.8c0-2.9-0.4-5.7-1.2-8.3c-0.8-2.6-2-4.9-3.6-6.8c-1.6-1.9-3.5-3.4-5.7-4.5
		c-2.3-1.1-5-1.7-8.1-1.7c-3.2,0-6.1,0.6-8.5,1.8c-2.4,1.2-4.5,2.8-6.2,4.8c-1.7,2-3,4.2-3.9,6.8c-0.9,2.6-1.6,5.2-1.9,7.8H1714.6z"
		/>
</g>
</svg>
