<?xml version="1.0" encoding="utf-8"?>
<!-- Generator: Adobe Illustrator 25.4.8, SVG Export Plug-In . SVG Version: 6.00 Build 0)  -->
<svg version="1.1" id="Ebene_1" xmlns="http://www.w3.org/2000/svg" xmlns:xlink="http://www.w3.org/1999/xlink" x="0px" y="0px"
	 viewBox="0 0 495.3 177.2" style="enable-background:new 0 0 495.3 177.2;" xml:space="preserve">
<style type="text/css">
	.st0{fill:#9D9D9C;}
	.st1{fill:none;}
	.st2{fill-rule:evenodd;clip-rule:evenodd;fill:#9D9D9C;}
	.st3{fill:none;stroke:#9D9D9C;stroke-width:0.4349;stroke-miterlimit:3.8637;}
	.st4{fill:#FFD500;}
</style>
<g>
	<path class="st0" d="M494.4,97l-1.6-0.6l-0.8-0.3l-0.2-0.1h-0.1l0,0l0,0l0,0c0,0-0.7,0-1-0.1l0,0c-0.4,0-0.2,0,0,0l0,0l0,0h-0.1
		l-0.4,0.1l0.5-0.1l0,0l0,0l-0.5,0.1l-3.7,1l1-0.1l-1,0.1l1-0.1c-1.5,0.3-3.3,0.7-5.4,1.1c-0.2,0-0.3,0.1-0.5,0.1
		c-1,0.2-2.1,0.4-3.2,0.6c-0.1,0-0.1,0-0.2,0l-1.8,0.4h-0.1l-0.4,0.1l-0.4-0.1l0,0h-0.1l-1.1-0.4c-1.7-0.6-3.4-1.1-4.9-1.6
		c1.3,0.4,2.7,0.8,4.1,1.2l2.2,0.7h0.1l0.9-0.2c3.2-0.7,4.9-1.5,8.3-2.2l3.5-1.1l1.3-0.3l0.7-0.1h0.1l0,0l0,0c-0.3,0,1.5,0,1.6,0.1
		l0,0l0.2,0.1l0.3,0.1l2.6,0.8"/>
	<path class="st0" d="M491.8,95.9c0,0-0.2,0-0.5,0C491.6,95.9,491.7,95.9,491.8,95.9L491.8,95.9z"/>
	<path class="st0" d="M490.6,95.8L490.6,95.8C490.7,95.8,490.7,95.9,490.6,95.8C490.7,95.9,490.7,95.8,490.6,95.8L490.6,95.8
		L490.6,95.8L490.6,95.8L490.6,95.8L490.6,95.8L490.6,95.8L490.6,95.8L490.6,95.8z"/>
	<path class="st0" d="M476.2,99.3L476.2,99.3L476.2,99.3L476.2,99.3L476.2,99.3z"/>
	<path class="st0" d="M475,99.2L475,99.2C474.9,99.2,474.8,99.2,475,99.2L475,99.2L475,99.2z"/>
	<path class="st0" d="M360.8,40.7l0.3-0.9c5-13.6,9.7-24.5,14.3-36.9l0.1-0.3l-0.7,1.6c-2.5,6.4-5.1,12.7-7.5,18.6
		c-2.9,7.2-5.8,14.7-8.8,22.6l-1.8,4.8L360.8,40.7L360.8,40.7z"/>
	<path class="st0" d="M354.4,58.6c-0.6,0.1-1.2,0.3-1.9,0.5V59C353,58.9,353.6,58.7,354.4,58.6C354.4,58.6,354.4,58.6,354.4,58.6
		L354.4,58.6z"/>
	<path class="st0" d="M360.9,57c1-0.2,1.9-0.5-2.4,0.6v-0.1C359.3,57.3,360.1,57.1,360.9,57L360.9,57L360.9,57L360.9,57L360.9,57
		L360.9,57L360.9,57L360.9,57z"/>
	<path class="st0" d="M353,56.6l-0.2,0.5C352.9,57,352.9,56.8,353,56.6L353,56.6L353,56.6z"/>
	<path class="st0" d="M361,56.9c3.2-0.8,2.1-0.5-0.2,0.1l-0.2-0.1l-0.3-0.3l-1.1-1c0-0.1,0.1-0.1,0.1-0.2c0.3,0.3,0.7,0.6,1,0.9
		l0.6,0.5L361,56.9L361,56.9L361,56.9L361,56.9z"/>
	<path class="st0" d="M353.8,54.6l-0.4,1l0,0l0,0L353.8,54.6L353.8,54.6L353.8,54.6z"/>
	<polygon class="st0" points="353.8,54.6 353.6,55.3 353.8,54.6 	"/>
	<path class="st0" d="M354.9,51.9l-0.8,2.2H354C354.2,53.3,354.5,52.6,354.9,51.9L354.9,51.9L354.9,51.9z"/>
	<path class="st0" d="M356.5,52.6c0,0.1-0.1,0.2-0.1,0.2l-0.2-0.1c-0.4-0.4-0.9-0.8-1.3-1.2l-0.1,0.3l0,0c0-0.1,0.1-0.2,0.1-0.3
		c-1.3-1.2-2.6-2.4-3.9-3.6l0.2-0.2c1.3,1.2,2.5,2.4,3.8,3.6c0.3-0.8,0.6-1.6,1-2.4l-0.9,2.4C355.5,51.8,356,52.2,356.5,52.6
		L356.5,52.6z"/>
	<polygon class="st0" points="350.5,47.7 349.8,47.1 355.9,52.8 	"/>
	<path class="st0" d="M310.8,61.1v1.5v-0.5v-0.7V61.1L310.8,61.1L310.8,61.1z"/>
	<path class="st0" d="M310.8,61.1L310.8,61.1L310.8,61.1v-0.2l0,0l0,0l0,0V61.1L310.8,61.1z"/>
	<path class="st0" d="M310.8,60.9L310.8,60.9L310.8,60.9L310.8,60.9L310.8,60.9z"/>
	<path class="st0" d="M310.8,60.9L310.8,60.9L310.8,60.9L310.8,60.9L310.8,60.9L310.8,60.9z"/>
	<path class="st0" d="M310.8,60.9L310.8,60.9L310.8,60.9L310.8,60.9L310.8,60.9c0.9-1.3,2.5-3.6,2.8-4l0,0l0,0
		C312.7,58.2,311.1,60.5,310.8,60.9L310.8,60.9L310.8,60.9z"/>
	<path class="st0" d="M313.6,56.9L313.6,56.9L313.6,56.9L313.6,56.9l0.2-0.1l1.3-0.6l-0.8,0.3l-0.4,0.2l-0.2,0.1L313.6,56.9
		L313.6,56.9L313.6,56.9L313.6,56.9L313.6,56.9L313.6,56.9z"/>
	<polygon class="st0" points="330.9,49.4 325.9,51.4 325,51.8 325.9,51.4 325,51.8 325.9,51.4 325,51.8 325,51.8 	"/>
	<path class="st0" d="M310.8,62.6v-1.5l0,0l0,0l0,0v-0.2l0,0c0.3-0.4,1.9-2.7,2.8-4l0,0l0,0l0,0l0,0l0,0l0,0l0,0l0,0h0.1l0.2-0.1
		l0.4-0.2l0.8-0.3l-1.3,0.6l-0.2,0.1l0,0l0,0l0,0l0,0l0,0l0,0l0,0l0,0c0.6-0.9,0.9-1.3,0,0h0.1l0.1-0.1l0.3-0.1l0.5-0.3l2.2-1
		c1.5-0.7,3-1.4,4.6-2.1c3.1-1.4,6.4-2.9,9.7-4.4l1-0.2l-9,3.9l2.7-1.1l-0.9,0.4l-1.8,0.8l1.8-0.8l-1.8,0.8l1.8-0.8l-8.9,4l3.5-1.7
		L316,56l3.5-1.7l-4.4,2.1L316,56l-0.9,0.4L316,56l-2,1l-0.2,0.1l-0.1,0.1h-0.1l0,0l0,0c-1.6,2.2-2.4,3.4-2.7,3.9l0,0l0,0l0,0v0.6
		v1.1"/>
	<path class="st0" d="M311,60.9c0.1-0.2,0.2-0.3,0.2-0.4C311.2,60.5,311.1,60.6,311,60.9L311,60.9L311,60.9z"/>
	<path class="st0" d="M314.3,56.6l0.9-0.4L314.3,56.6z"/>
	<path class="st0" d="M310.8,61.4v0.7v-1c-0.1,0.1-0.1,0.1,0,0v-0.2l0,0l0,0V61v0.1l0,0V61.4L310.8,61.4z"/>
	<path class="st0" d="M310.2,61.8C310.2,61.8,310.1,61.8,310.2,61.8C310.1,61.8,310.2,61.8,310.2,61.8L310.2,61.8z"/>
	<path class="st0" d="M310.2,61.8L310.2,61.8L310.2,61.8c0,0,0.2-0.2,0.5-0.7l0.1-0.1l0,0C310.4,61.4,310.2,61.7,310.2,61.8
		L310.2,61.8z"/>
	<path class="st0" d="M310.8,60.9c-0.4,0.5-0.6,0.8-0.6,0.9c0.3-0.4,3.9-5.6,3.4-4.9l0,0l0,0l0,0l0,0l0,0l0,0
		C313.3,57.3,311.7,59.6,310.8,60.9L310.8,60.9L310.8,60.9L310.8,60.9L310.8,60.9L310.8,60.9L310.8,60.9z"/>
	<path class="st0" d="M310.8,60.9L310.8,60.9L310.8,60.9L310.8,60.9L310.8,60.9z"/>
	<path class="st0" d="M310.8,60.9L310.8,60.9L310.8,60.9L310.8,60.9L310.8,60.9L310.8,60.9L310.8,60.9L310.8,60.9z"/>
	<path class="st0" d="M310.8,60.9L310.8,60.9L310.8,60.9L310.8,60.9L310.8,60.9L310.8,60.9z"/>
	<path class="st0" d="M313.6,56.9L313.6,56.9C313.6,56.9,313.6,56.8,313.6,56.9C313.6,56.8,313.6,56.8,313.6,56.9
		C313.6,56.8,313.6,56.8,313.6,56.9L313.6,56.9C313.6,56.8,313.6,56.8,313.6,56.9L313.6,56.9z"/>
	<polygon class="st0" points="310.8,61.4 310.8,62.1 310.8,61.4 310.8,61 	"/>
	<path class="st0" d="M310.8,60.9c-0.4,0.5-0.6,0.9-0.6,0.9S310.4,61.4,310.8,60.9L310.8,60.9L310.8,60.9z"/>
	<path class="st0" d="M310.7,61c-0.3,0.5-0.5,0.7-0.5,0.7S310.3,61.5,310.7,61L310.7,61z"/>
	<path class="st0" d="M310.8,60.9c0,0.1-0.1,0.1-0.1,0.1C310.7,61,310.8,60.9,310.8,60.9L310.8,60.9L310.8,60.9L310.8,60.9z"/>
	<path class="st0" d="M313.6,56.9c-0.3,0.4-1.9,2.7-2.8,4l0,0C311.7,59.6,313.3,57.3,313.6,56.9L313.6,56.9L313.6,56.9
		C313.6,56.8,313.6,56.8,313.6,56.9C313.6,56.8,313.6,56.8,313.6,56.9L313.6,56.9L313.6,56.9L313.6,56.9l0.2-0.1l1.3-0.6l-1.3,0.6
		L313.6,56.9L313.6,56.9L313.6,56.9L313.6,56.9L313.6,56.9z"/>
	<path class="st0" d="M313.6,56.9L313.6,56.9C313.6,56.9,313.6,56.8,313.6,56.9C313.6,56.8,313.6,56.9,313.6,56.9L313.6,56.9z"/>
	<path class="st0" d="M313.6,56.8L313.6,56.8L313.6,56.8L313.6,56.8z"/>
	<path class="st0" d="M325.9,51.4l-0.9,0.4L325.9,51.4z"/>
	<polygon class="st0" points="325,51.8 325,51.8 323.2,52.6 	"/>
	<path class="st0" d="M325,51.8l-1.8,0.8L325,51.8z"/>
	<path class="st0" d="M325.9,51.4l-0.9,0.4L325.9,51.4z"/>
	<path class="st0" d="M315.2,56.2l-0.9,0.4L315.2,56.2z"/>
	<polygon class="st0" points="316.1,55.9 319.6,54.2 315.2,56.2 	"/>
	<path class="st0" d="M316.1,55.9l-0.9,0.3L316.1,55.9z"/>
	<path class="st0" d="M319.6,54.2l-3.5,1.7L319.6,54.2z"/>
	<line class="st1" x1="311" y1="61.6" x2="311" y2="62.6"/>
	<polygon class="st0" points="340.2,52.5 339.2,52.9 343,51.1 343.4,51 343.4,51 	"/>
	<polygon class="st0" points="344,51 344.9,51.8 344,51 	"/>
	<polygon class="st0" points="344,51 344,51 344,51 344,51 	"/>
	<polygon class="st0" points="343.6,50.9 343.5,51 343.5,50.9 343.6,50.9 	"/>
	<path class="st0" d="M343.9,50.9L343.9,50.9L343.9,50.9h-0.2l0,0h0.1l-0.3-0.2l-0.1-0.1l0,0l0.3,0.3L343.9,50.9l0.1-0.2l0,0
		L343.9,50.9L343.9,50.9L343.9,50.9z"/>
	<path class="st0" d="M344.3,50.6L344.3,50.6c-0.1,0-0.1,0-0.1,0H344.3L344.3,50.6L344.3,50.6z"/>
	<path class="st0" d="M344.5,50.5L344.5,50.5c-0.1,0-0.1,0-0.1,0H344.5L344.5,50.5C344.5,50.5,344.6,50.5,344.5,50.5L344.5,50.5
		L344.5,50.5L344.5,50.5z"/>
	<path class="st0" d="M344.6,50.4c0.3,0,0.4,0.1,0.4,0.1S344.8,50.5,344.6,50.4L344.6,50.4L344.6,50.4z"/>
	<path class="st0" d="M343.3,50.4L343.3,50.4C343.4,50.5,343.4,50.5,343.3,50.4L343.3,50.4L343.3,50.4L343.3,50.4L343.3,50.4z"/>
	<polygon class="st0" points="344.6,50.5 344.6,50.5 344.6,50.5 344.6,50.5 	"/>
	<path class="st0" d="M344.5,50.5L344.5,50.5c-0.7-0.1-1.2-0.2-1.4-0.2l0,0l0,0l0,0C343.5,50.3,344.1,50.4,344.5,50.5L344.5,50.5
		L344.5,50.5z"/>
	<path class="st0" d="M344.6,50.4L344.6,50.4L344.6,50.4L344.6,50.4L344.6,50.4L344.6,50.4z"/>
	<path class="st0" d="M343.1,50.3L343.1,50.3C343.2,50.3,343.1,50.3,343.1,50.3L343.1,50.3L343.1,50.3L343.1,50.3L343.1,50.3z"/>
	<path class="st0" d="M343,50.2L343,50.2C342.8,50.2,342.9,50.2,343,50.2L343,50.2z"/>
	<polygon class="st0" points="343.9,51.1 347.1,53.7 344.4,51.6 343.8,51.1 	"/>
	<polygon class="st0" points="343.4,51.3 341.5,52 343.5,51.1 343.5,51.1 343.6,51.2 	"/>
	<path class="st0" d="M343.8,51.1L343.8,51.1h-0.2h0.1l-0.6-0.5l0,0c0.1,0,0.1,0,0.2,0l0,0l0.4,0.4l0,0l0.5-0.3c0.1,0,0.1,0,0.2,0
		l0,0l-0.4,0.2L343.8,51.1h0.1H343.8L343.8,51.1L343.8,51.1z"/>
	<path class="st0" d="M344.6,50.7L344.6,50.7c-0.1,0-0.1,0-0.2,0h0.1C344.5,50.6,344.6,50.6,344.6,50.7
		C344.6,50.6,344.6,50.6,344.6,50.7L344.6,50.7C345,50.7,344.8,50.7,344.6,50.7L344.6,50.7L344.6,50.7L344.6,50.7
		C344.5,50.7,344.5,50.7,344.6,50.7L344.6,50.7z"/>
	<path class="st0" d="M344.5,50.6L344.5,50.6c-0.3,0-0.7-0.1-1.4-0.2l0,0l-0.1-0.1l0,0c1,0.2,1.5,0.3,1.7,0.3l0,0
		c-0.1,0-0.4-0.1-0.1,0L344.5,50.6L344.5,50.6L344.5,50.6L344.5,50.6z"/>
	<path class="st0" d="M344.7,50.6c0.1,0,0.1,0,0.1,0H344.7L344.7,50.6L344.7,50.6z"/>
	<path class="st0" d="M343.1,50.4L343.1,50.4c0,0.1-0.1,0-0.1,0l0,0l0,0l0,0l0,0C343,50.4,343,50.4,343.1,50.4L343.1,50.4z"/>
	<path class="st0" d="M355.5,62.9c-0.4,0.1-0.7,0.2-0.7,0.2S355,63,355.5,62.9L355.5,62.9L355.5,62.9z"/>
	<path class="st0" d="M358.2,62.3c-2.4,0.6-3,0.7-3,0.7s0.2,0,0.4-0.1l0,0l0,0l0,0C356.2,62.7,357.3,62.4,358.2,62.3
		C358.2,62.2,358.2,62.3,358.2,62.3L358.2,62.3z"/>
	<path class="st0" d="M355.6,62.9h-0.1l0,0l-0.4-0.4l-0.9-0.7l-1.7-1.5l-0.1-0.1v-0.1l0.2,0.1l-0.2-0.1l0.2,0.1l-0.2-0.1l0,0
		l1.5,1.4l0.9,0.8l0.4,0.4l0.2,0.2L355.6,62.9L355.6,62.9L355.6,62.9L355.6,62.9L355.6,62.9L355.6,62.9z"/>
	<path class="st0" d="M361,57.5c-0.4,1.3-0.9,2.6-1.3,4h-0.1L361,57.5L361,57.5z"/>
	<path class="st0" d="M350.8,58.6L350.8,58.6c-1.8-1.5-3.7-3.2-5.6-4.9L350.8,58.6L350.8,58.6z"/>
	<path class="st0" d="M352.4,60l0.2,0.1L352.4,60L352.4,60L352.4,60z"/>
	<path class="st0" d="M350.8,58.6L350.8,58.6l-5.6-4.9L350.8,58.6L350.8,58.6z"/>
	<path class="st0" d="M352.4,60L352.4,60L352.4,60z"/>
	<polygon class="st0" points="350.8,58.6 350.8,58.6 345.1,53.7 	"/>
	<path class="st0" d="M343.7,51.1l1.3,1.2L343.7,51.1l-0.4,0.1L343.7,51.1l-0.6-0.4l-0.4-0.3l0,0l0,0h0.1l0.1,0.1l0.4,0.4
		L343.7,51.1l0.6-0.3l0.2-0.1h0.1l0,0l0,0l0,0h-0.1h-0.1l-0.2,0.1L343.7,51.1L343.7,51.1z"/>
	<path class="st0" d="M344.6,50.7L344.6,50.7c-0.8-0.1-1.3-0.2-1.6-0.3c0,0,0,0-0.1,0l0,0c-0.1,0-0.2,0-0.2,0l0,0c0.1,0,0.2,0,0.2,0
		l0,0l0,0l0,0l0,0C343.9,50.6,344.4,50.7,344.6,50.7L344.6,50.7L344.6,50.7L344.6,50.7z"/>
	<path class="st0" d="M344.7,50.7c-0.5-0.1,0.2,0,0.2,0S344.8,50.7,344.7,50.7L344.7,50.7L344.7,50.7z"/>
	<polygon class="st0" points="329.9,56 332.6,54.7 327.2,57.1 327.2,57.1 	"/>
	<polygon class="st0" points="329.9,56 327.2,57.1 327.3,57.2 	"/>
	<path class="st0" d="M328.7,56.9l5.3-2.5l-6.7,3c0,0,0.1,0.1,0.1,0.2L328.7,56.9L328.7,56.9z"/>
	<path class="st0" d="M328.7,56.9l-1.3,0.6l0,0L328.7,56.9L328.7,56.9z"/>
	<path class="st0" d="M327.2,57.1L327.2,57.1c-0.1-0.1-0.1-0.1-0.2-0.2l10.6-4.5l4-1.7l2-0.8l0.2-0.1c-0.1-0.1-0.4-0.2-0.1-0.2
		l0.2,0.2l0.2-0.1h0.1l-0.3,0.1l0.7,0.7l-0.8-0.7l0,0l-0.2,0.1l-1.9,0.9l-4,1.7c-2.7,1.2-5.4,2.3-7.9,3.4l2.6-1.3L327.2,57.1
		L327.2,57.1z"/>
	<path class="st0" d="M344.1,49.7L344.1,49.7c-0.2,0-0.3-0.1-0.4-0.1l0,0c0.3,0-0.7-0.2,0.6,0L344.1,49.7L344.1,49.7z"/>
	<path class="st0" d="M332.6,54.7l-5.4,2.4L332.6,54.7z"/>
	<path class="st0" d="M315.9,61.4l-0.3,6.8v-5.5v-1.2h0.1c0,0.7,0,1.3,0,1.9v-0.8v-0.9c0,0,0-0.1,0-0.2L315.9,61.4l1.8-0.8
		c1.1-0.5,2.2-0.9,3.2-1.4c1.5-0.7,3-1.3,4.4-2c0.1,0.1,0.1,0.1,0.2,0.2c-1.3,0.6-2.5,1.1-3.8,1.7C319.8,59.8,316.9,61.2,315.9,61.4
		L315.9,61.4z"/>
	<path class="st0" d="M315.6,61.5L315.6,61.5C315.6,61.5,315.6,61.4,315.6,61.5L315.6,61.5L315.6,61.5z"/>
	<path class="st0" d="M315.8,61.4L315.8,61.4C315.7,61.4,315.7,61.4,315.8,61.4C315.6,61.4,315.7,61.3,315.8,61.4
		C315.8,61.3,315.8,61.3,315.8,61.4L315.8,61.4z"/>
	<path class="st0" d="M315.8,61.3c0-0.1,0-0.1-0.2,0.2v-0.1c-0.3,0,0.7-0.3,0.9-0.5l2.5-1.2c1.9-0.9,3.9-1.8,5.9-2.7c0,0,0,0,0.1,0
		c-1.1,0.5-2.3,1.1-3.5,1.6c-1.4,0.7-2.9,1.3-4.3,2C316.9,60.8,316.1,61.1,315.8,61.3L315.8,61.3z"/>
	<path class="st0" d="M340.9,50.4c-3.6,1.8-8.8,4.1-14,6.4c-0.1-0.1-0.1-0.1-0.2-0.2c0.1,0,0.1-0.1,0.2-0.1
		c3.9-1.8,7.8-3.5,12.5-5.5L340.9,50.4L340.9,50.4z"/>
	<path class="st0" d="M329.5,54.9c-0.9,0.4-2,0.9-3.1,1.5l0,0C327.4,55.9,328.4,55.4,329.5,54.9L329.5,54.9z"/>
	<polygon class="st0" points="341.5,49.3 337.5,51.1 341.5,49.3 337.5,51.1 332.2,53.8 	"/>
	<polygon class="st0" points="353.1,55.8 354.2,56.8 354.6,57.1 	"/>
	<polygon class="st0" points="353.1,55.8 354.2,56.8 346.4,50.1 348.3,51.7 346.4,50.1 348.3,51.7 	"/>
	<path class="st0" d="M353.1,55.8l-4.8-4.1L353.1,55.8z"/>
	<path class="st0" d="M353.1,55.8l-4.8-4.1L353.1,55.8z"/>
	<path class="st0" d="M356,60.2c-0.1,0-0.1,0-0.2,0l0,0C355.9,60.2,356,60.2,356,60.2L356,60.2L356,60.2z"/>
	<path class="st0" d="M356.3,59.3l-0.1,0.5l-0.1-0.1l0.1-0.3C356.2,59.3,356.3,59.3,356.3,59.3L356.3,59.3z"/>
	<path class="st0" d="M358.1,59.7c-0.1,0-0.1,0-0.2,0.1l0,0l0,0C357.9,59.7,358,59.7,358.1,59.7L358.1,59.7L358.1,59.7z"/>
	<path class="st0" d="M357.8,59.5l-0.1,0.2l-0.6-0.5c0.1,0,0.2,0,0.3-0.1l0.1,0.1L357.8,59.5L357.8,59.5z"/>
	<polygon class="st0" points="356.6,58.4 356.5,58.7 356.4,58.6 356.5,58.4 	"/>
	<polygon class="st0" points="356.8,57.6 356.7,58.1 356.6,58.1 356.8,57.6 	"/>
	<path class="st0" d="M355,57c0,0.1-0.1,0.2-0.1,0.4l-0.6-0.5l0.4,0.3l-1.5-1.3l-4.8-4.1l-2.8-2.4l-0.7-0.6l-0.2-0.1l0,0l0,0l0,0
		l0,0l0,0c-0.1,0-1-0.2-1-0.2s0.1,0,0.2,0l0,0l0,0l0,0c-0.1,0-0.1,0,0,0h-0.1l-0.4,0.2l-1.7,0.7l-4,1.8c1.3-0.6,2.7-1.3,4.1-2
		l1.1-0.5l0.5-0.2l0.3-0.1l0.1-0.1h0.1l0,0c-0.8-0.1,0.9,0.1,1,0.2l0,0l0,0l0,0l0,0l0,0l1.8,1.5c2.4,2,4.8,3.9,6.9,5.6L355,57
		l-1.6-1.4L355,57L355,57z"/>
	<path class="st0" d="M341.5,49.3l-4,1.8L341.5,49.3z"/>
	<path class="st0" d="M353.1,55.8l1.5,1.3L353.1,55.8z"/>
	<path class="st0" d="M348.3,51.7l4.8,4.1L348.3,51.7z"/>
	<path class="st0" d="M348.3,51.7l4.8,4.1L348.3,51.7z"/>
	<path class="st0" d="M356,60.4c-0.1,0-0.1,0-0.2,0l0,0l0.1-0.1c0.1,0,0.1,0,0.2,0L356,60.4L356,60.4z"/>
	<path class="st0" d="M355.6,60.3c-0.1,0-0.2,0-0.3,0.1l0,0l0,0l0,0C355.4,60.3,355.5,60.3,355.6,60.3L355.6,60.3L355.6,60.3z"/>
	<path class="st0" d="M355.3,60.4c-0.1,0-0.1,0-0.1,0S355.2,60.4,355.3,60.4L355.3,60.4L355.3,60.4L355.3,60.4L355.3,60.4
		C355.3,60.3,355.3,60.3,355.3,60.4L355.3,60.4L355.3,60.4z"/>
	<path class="st0" d="M356.1,60.2c-0.1,0-0.1,0-0.2,0v-0.1C356,60.1,356,60.1,356.1,60.2L356.1,60.2L356.1,60.2z"/>
	<path class="st0" d="M355.9,60.1c-0.1,0-0.2,0-0.2,0.1C355.7,60.2,355.8,60.2,355.9,60.1L355.9,60.1z"/>
	<path class="st0" d="M358.2,59.8c-0.1,0-0.1,0-0.2,0.1l-0.1-0.1c0.1,0,0.2,0,0.2-0.1L358.2,59.8L358.2,59.8L358.2,59.8z"/>
	<path class="st0" d="M358,59.7c-0.1,0-0.1,0-0.2,0.1l-0.1-0.1C357.8,59.7,357.9,59.7,358,59.7L358,59.7L358,59.7z"/>
	<path class="st0" d="M358.6,59.6c0.3-0.1,0.6-0.1-0.3,0.1l0,0l0,0l0,0l0,0C358.4,59.6,358.5,59.6,358.6,59.6L358.6,59.6L358.6,59.6
		L358.6,59.6L358.6,59.6z"/>
	<path class="st0" d="M358.5,59.6L358.5,59.6L358.5,59.6z"/>
	<path class="st0" d="M358.6,59.6L358.6,59.6L358.6,59.6h-0.1l0,0C358.5,59.5,358.5,59.5,358.6,59.6L358.6,59.6L358.6,59.6
		L358.6,59.6L358.6,59.6L358.6,59.6z"/>
	<path class="st0" d="M358.6,59.6C359.4,59.4,359.8,59.3,358.6,59.6L358.6,59.6L358.6,59.6z"/>
	<path class="st0" d="M355.8,59.4c-0.1,0-0.3,0.1-0.4,0.1l0.1-0.3C355.7,59.3,355.7,59.4,355.8,59.4L355.8,59.4z"/>
	<path class="st0" d="M355.9,59.4C355.9,59.4,355.9,59.5,355.9,59.4C355.9,59.5,355.8,59.5,355.9,59.4L355.9,59.4L355.9,59.4z"/>
	<path class="st0" d="M357.9,59.1l-0.1,0.2l-0.3-0.3c0.1,0,0.1,0,0.2-0.1L357.9,59.1L357.9,59.1z"/>
	<path class="st0" d="M358.1,58.9L358.1,58.9L358.1,58.9L358.1,58.9L358.1,58.9L358.1,58.9z"/>
	<path class="st0" d="M356.3,58.2c0,0.1-0.1,0.2-0.1,0.3l-0.3-0.2L356,58L356.3,58.2L356.3,58.2z"/>
	<polygon class="st0" points="356.7,58.1 356.7,58.2 356.6,58.2 356.6,58.1 	"/>
	<path class="st0" d="M356.4,57.9C356.4,58,356.4,58,356.4,57.9l-0.3-0.2l0.2-0.6l0.3,0.3C356.6,57.6,356.5,57.8,356.4,57.9
		L356.4,57.9z"/>
	<path class="st0" d="M358.9,50.5c-0.5,1.8-1.2,3.8-1.9,5.9l-0.1-0.1l-0.1-0.1l0.1-0.2L358.9,50.5L358.9,50.5z"/>
	<path class="st0" d="M474.3,104.7C474.3,104.7,474.4,104.7,474.3,104.7C474.4,104.7,474.3,104.7,474.3,104.7L474.3,104.7
		L474.3,104.7z"/>
	<polygon class="st0" points="492.6,98.5 489,99.2 483.6,100.6 489,99.2 	"/>
	<path class="st0" d="M495.2,100.2v1.1l-3.8-1.9l-3.5,0.9l-11.8,4.4h-1.8c-0.2,0-1.2-0.1-1.7-0.1l0,0l0,0l0,0l-0.2-0.1l-0.9-0.2
		c-3-1.1-4.4-2.3-7.7-3.6c-1.7-0.6-3.4-1.3-5.1-1.9l-1.3-0.5h-0.1h-0.2h-2.8c-0.7-0.1-1.1-0.3-1.1-0.4l0,0c0-0.2,1-0.4,2.6-0.6
		c0.4,0,0.9-0.1,1.4-0.1c0,0,0.4,0,0.5,0l0.6,0.1c1.2,0.3,2.5,0.7,3.9,1.1c2.8,0.8,4.4,1.8,7.9,3l2.7,0.9c0.1,0,0.3,0.1,0.4,0.1
		c0.3,0.1,0.6,0.1,0.8,0.1c0.1,0,0.1,0,0.2,0c0.5,0,0.9-0.2,1.3-0.3c0.2,0,0.4-0.1,0.6-0.1c1.9-0.4,5.6-0.8,7.5-1.2l5.4-1.4l3.6-0.7
		L495.2,100.2L495.2,100.2z"/>
	<path class="st0" d="M472.6,104.6C472,104.6,472.2,104.6,472.6,104.6L472.6,104.6z"/>
	<path class="st0" d="M435.3,75.1c0-2.1,0.1-3.1,0.1-5.4c0-0.9,0-1.9-0.1-3.3l-0.1-0.1l0,0c-0.1,1.4-0.1,4.3-0.1,7.3l0.2,2
		C435.3,75.4,435.3,75.3,435.3,75.1L435.3,75.1z"/>
	<path class="st0" d="M474.1,102.3c-0.1,0-0.1,0-0.2,0c-0.2,0-0.5,0-0.8-0.1c-0.1,0-0.2-0.1-0.4-0.1l-2.7-0.9
		c-3.5-1.1-5.1-2.1-7.9-3c-1.4-0.4-2.7-0.8-3.9-1.1l-0.6-0.1l0,0c0,0-0.1,0-0.3-0.1l0.3,0.1c-0.1,0-0.5,0-0.5,0
		c-0.5,0.1-1,0.1-1.4,0.1c-1.6,0.2-2.6,0.4-2.6,0.6l0,0l0,0l0,0c0,0.1,0.4,0.3,1.1,0.4h-4c-2.7,0-5.4,0-7.8,0.1l-1.8,0.1h-0.9h-0.2
		c-0.1-0.1-0.2-0.2-0.5-0.5l0,0h0.3l0.6-0.1l1.2-0.1c3.4-0.3,7.9-0.5,12.3-0.7l-6.4-0.4l-5.9,0.1h-1.5h-0.4H439l0,0l0,0l0,0
		c-0.8-0.7-1.2-1.2-1.4-1.4c0,0,0,0-0.1-0.1l0,0c-0.2-0.2-0.1-0.1,0,0l0,0V95v-0.7l-0.3-2.6c-0.4,1-0.7-10.7-1-7.3l-0.5-6.8
		l-0.4-1.9c0-0.2,0-0.3,0-0.5c0-2.1,0.1-3.1,0.1-5.4c0-0.9,0-1.9-0.1-3.3l0.3,0.2l0.2,0.1l0.1,0.1l0,0l0,0v0.4v-0.4l0,0
		c0,0.1,0,0.1,0,0v-0.8l0.3,0.2l0,0l0,0l0,0l0,0l0,0l0,0c-0.1-0.1-0.2-0.3-0.4-0.6l0,0v-0.6l0.1,0.1l0.5,0.3l0.2,0.1l0,0l0,0l0,0
		l0,0l0,0c0-0.1-0.1-0.1-0.1-0.1l0,0l0.1,0.2v0.1l0,0c0,0-0.1-0.1-0.2-0.4l0.1,0.1l0,0l0,0l0,0c-0.3-0.5-0.5-0.8-0.6-1.1
		c-0.2-0.4-0.3-0.6-0.4-0.6l0,0l0.2,0.3l0,0l0,0c0,0,0-0.1-0.1-0.1l0,0v0.1v0.1c0-0.1-0.1-0.1-0.1-0.2l0,0l0,0v0.1v0.1v0.7l-0.6-0.4
		c0,0-0.1,0-0.1-0.1l0,0c-0.1-0.2-0.2-0.4-0.3-0.5l0,0l0,0l0,0l0,0l0,0l0,0c-0.1-0.2-0.2-0.3-0.2-0.4l0,0l0,0c0,0,0.1,0.2,0.3,0.5
		l0,0l0,0v0.1v0.2l0,0c-0.2-0.2-0.5-0.3-0.8-0.5c-0.3-0.5-0.4-0.7,0,0c-1.1-0.7-2.1-1.3-3.1-1.9c-2.8-1.7-5.5-3.4-8.3-5l-5.2-3.1
		l-2.3-1.3l0,0l0.4-0.3l0,0c0.3,0,0.5,0,0.6,0l0.3,0.1c1.2,0.7,2.5,1.4,3.8,2.1c2.6,1.4,5.3,2.9,8,4.4s5.5,3.1,8.4,4.7
		c0.3,0.2,0.9,0.4,0.9,0.5l0,0l0.1,1.2l0.1,2.5l0.3,5l-0.3-5l-0.1-2.5l-0.1-1.2l0.1,1.2l0.1,2.5l0.3,5c0,0.6,0.1,1.1,0.1,1.6
		c0,0,0,0,0,0.1c0,0.5,0,1,0.1,1.6c0,0.1,0,0.1,0,0.2c0,0.5,0,1,0.1,1.4c0,0.1,0,0.2,0,0.3c0,0.4,0,0.9,0.1,1.3c0,0.2,0,0.3,0,0.5
		c0,0.4,0,0.8,0,1.2c0,0.2,0,0.3,0,0.5c0,0.4,0,0.8,0,1.2c0,0.2,0,0.3,0,0.5c0,0.4,0,0.9,0.1,1.3c0,0.1,0,0.2,0,0.3
		c0,0.5,0,1,0.1,1.5l0.2,5.1l-0.2-5.1l0.2,5.1l0.1,1.7c-0.2-0.2-0.4-0.4-0.4-0.4c0-0.2,0-0.4,0-0.6c-0.2-4.5-0.4-9.1-0.6-13.9
		l-0.1-2.5l-0.3-8.2l-0.1-2.1v-1.1v-0.1l0,0c0-0.1,0.4,0.4,0-0.2v0.2l-0.4-0.2l-3.6-2.1l-1.4-0.5l3.8,2.3l-3.8-2.3l3.8,2.3
		c0.3,0.1,1.1,0.8,1.4,0.8l0.1,2l0.3,8.8l0.7,17.6l-0.7-17.6l-0.3-8.8l-0.1-2l0.1,2l0.3,8.8l0.7,17.6l0.1,1.5v0.8v0.4v0.2l0,0l0,0
		l0,0l-0.1-0.1c0-0.1,0,0,0,0l0.1,0.1c0.1,0.1,0.3,0.2,0.5,0.4c0.1,0.1,0.1,0.1,0.2,0.2l0,0l0,0h0.1h0.1h3h6.1h9.1
		c2.4,0.6,5.6,1.9,8.4,2.8l6.8,3l-6.8-3c-2.8-0.9-6-2.2-8.4-2.8h-9.1h9.1c2.4,0.6,5.6,1.9,8.4,2.8l6.8,3c0.3,0,0.6,0.1,0.8,0.1
		c0.2,0,0.4,0,0.6,0h0.1h0.1c1.8,0,5.1-0.4,6.6-0.8c2.4-0.6-1.2-0.1,2.7-0.5c-1.9,0.4-5.6,0.8-7.5,1.2c-0.2,0-0.4,0-0.6,0.1
		C475,102.1,474.6,102.2,474.1,102.3L474.1,102.3z"/>
	<path class="st0" d="M439.6,98.6L439.6,98.6L439.6,98.6L439.6,98.6z"/>
	<path class="st0" d="M439.5,98.5C439.5,98.5,439.6,98.6,439.5,98.5C439.6,98.6,439.5,98.5,439.5,98.5L439.5,98.5L439.5,98.5z"/>
	<path class="st0" d="M439,98.5L439,98.5c-1.6-1.5-2.5-2.4-2.9-2.8c0,0-0.1-0.1-0.2-0.2l0,0v-0.1c-0.1-1.1-0.2-2.2-0.4-3.2
		c0.2-0.1,0.4,0.4,0.5,1.3c0.1,0.5,0.2,1,0.3,1.7v0.1v0.1l0,0l0,0l0,0c-0.4-0.4,2.6,2.5,3.1,3h-0.2L439,98.5L439,98.5L439,98.5
		L439,98.5z"/>
	<path class="st0" d="M457.7,97L457.7,97l-0.3-0.1C457.7,97,457.7,97,457.7,97L457.7,97L457.7,97z"/>
	<path class="st0" d="M436.1,95.7C436.1,95.7,436.1,95.8,436.1,95.7C436.1,95.8,434.9,94.6,436.1,95.7L436.1,95.7z"/>
	<path class="st0" d="M439.9,95.7H439c-0.4-0.4-0.5-0.6-0.5-0.7c0-0.1,0.1-0.2,0.1-0.3s0-0.1,0-0.2l-0.1-1.8c0-0.1,0-0.2,0-0.3
		c0.1,0.1,0.2,0.2,0.4,0.4v0.9l0,0c-0.1-0.1-0.1-0.1-0.1-0.1s0,0,0.1,0.1l0,0c-0.4-0.4-0.3-0.3,0,0l0,0c-0.2-0.2-0.1-0.1,0,0
		c0,0.1,0,0.1,0,0.1v0.1c0,0.1,0,0.1,0,0.2v0.1l0,0l0,0l0,0l0,0l0,0l0,0v0.1c-0.1-0.1-0.1-0.1-0.1-0.1s0,0,0.1,0.1
		c0,0.5,0.1,0.9,0.5,0.9c0.1,0,0.2,0,0.4-0.1c3.4,0,6.7,0.1,10,0.1c-2.1,0.1-4.3,0.1-6.6,0.2L439.9,95.7L439.9,95.7z"/>
	<path class="st0" d="M435.9,65.7v0.4l0,0V65.7C435.9,65.6,435.9,65.6,435.9,65.7L435.9,65.7z"/>
	<path class="st0" d="M435.8,65.1v0.4c-0.1-0.3-0.3-0.6-0.5-0.9l0.5,0.3V65.1L435.8,65.1z"/>
	<path class="st0" d="M435.9,64.1c0.4,0.6,0.6,1,0.7,1.2l0,0l-0.3-0.2l-0.4-0.3v-0.2L435.9,64.1L435.9,64.1z"/>
	<path class="st0" d="M434.9,64.5c0,0.2,0,0.3,0,0.5c-0.2-0.3-0.4-0.6-0.5-0.9L434.9,64.5L434.9,64.5L434.9,64.5z"/>
	<path class="st0" d="M435.2,64.4c0.1,0.1,0.1,0.2,0.2,0.3l-0.5-0.3v-0.2C435,64.3,435.1,64.3,435.2,64.4L435.2,64.4z"/>
	<path class="st0" d="M403.1,60.1l-2.3,1.9l3-2.6c0.1,0,0.1,0,0.2,0L403.1,60.1L403.1,60.1z"/>
	<path class="st0" d="M403.1,59.2l-1.3,1C402.3,59.8,402.7,59.5,403.1,59.2L403.1,59.2L403.1,59.2z"/>
	<path class="st0" d="M411.4,53.4l-7.5,6c0,0-0.1,0-0.2,0l5.5-4.8l-0.9,0.4l-4.9,3.9l0,0c3.5-2.8,6.8-5.5,9.4-7.6l0.7,0.4l0,0
		l-0.2,0.2l-0.4,0.3c-0.8,0.1-1.4,0.1-1.1,0.1l0,0l0,0l0,0l0.1,0.1l0.2,0.1c0.1,0,0.1,0.1,0.2,0.1l-0.9,0.7c0,0,0,0-0.1,0h0.1
		L411.4,53.4L411.4,53.4z"/>
	<path class="st0" d="M403.1,59.2L403.1,59.2L403.1,59.2L403.1,59.2L403.1,59.2L403.1,59.2z"/>
	<path class="st0" d="M416.2,52c-0.3,0-1,0.1-1.7,0.1l-0.7-0.4l0.1-0.1l0.4-0.4l0.2-0.2l0,0L416.2,52L416.2,52z"/>
	<path class="st0" d="M413.7,51.6L413.7,51.6l-0.5-0.2l-0.3-0.2c0,0,0,0,0.1,0l0.3,0.2L413.7,51.6L413.7,51.6z"/>
	<polygon class="st0" points="414.4,51.1 413.8,51.6 413.7,51.6 414.3,51.1 414.4,51 414.5,51 	"/>
	<path class="st0" d="M414.4,51c-0.3,0-0.9,0.1-1.3,0.1l0.1-0.1c0.3,0,0.6,0,1-0.1L414.4,51L414.4,51z"/>
	<path class="st0" d="M414.1,50.8c-0.3,0-0.6,0-0.8,0.1c0.1-0.1,0.2-0.2,0.4-0.3h0.1L414.1,50.8L414.1,50.8z"/>
	<path class="st0" d="M473.9,102.3L473.9,102.3c-0.2,0-0.5,0-0.8-0.1C473.5,102.2,473.7,102.3,473.9,102.3L473.9,102.3z"/>
	<path class="st0" d="M474.1,102.3c-0.1,0-0.1,0-0.2,0l0,0C474,102.3,474,102.3,474.1,102.3L474.1,102.3z"/>
	<path class="st0" d="M475.4,101.9c-0.4,0.1-0.8,0.3-1.3,0.3C474.6,102.2,475,102.1,475.4,101.9L475.4,101.9z"/>
	<path class="st0" d="M472.8,102.1c0.1,0,0.3,0.1,0.4,0.1C473,102.1,472.9,102.1,472.8,102.1l-2.7-0.9c-3.5-1.1-5.1-2.1-7.9-3
		c-1.4-0.4-2.7-0.8-3.9-1.1l-0.6-0.1c-0.1,0-0.5,0-0.5,0c-0.5,0.1-1,0.1-1.4,0.1c-1.6,0.2-2.6,0.4-2.6,0.6c0-0.2,1-0.4,2.6-0.6
		c0.4,0,0.9-0.1,1.4-0.1c0,0,0.4,0,0.5,0l-0.3-0.1l0.3,0.1l0,0l0,0l0.6,0.1c1.2,0.3,2.5,0.7,3.9,1.1c2.8,0.8,4.4,1.8,7.9,3
		L472.8,102.1L472.8,102.1z"/>
	<path class="st0" d="M476,101.8c-0.2,0-0.4,0-0.6,0.1C475.6,101.9,475.8,101.8,476,101.8c1.9-0.4,5.6-0.8,7.5-1.2
		C481.6,101,477.9,101.4,476,101.8L476,101.8z"/>
	<path class="st0" d="M457.5,97c0.2,0,0.3,0,0.3,0.1C457.7,97,457.7,97,457.5,97L457.5,97z"/>
	<path class="st0" d="M401.1,63c0.1,0,0.1,0,0.1,0H401.1L401.1,63L401.1,63z"/>
	<path class="st0" d="M400.9,62.9L400.9,62.9c-1-0.3-3.9-1.2-4.3-1.3l0,0l0,0v-0.1c1.2,0.3,4.2,1.3,3.7,1.1l0,0l0,0l0,0l0.1-0.1
		l0.2-0.1l0.3-0.3l2.3-1.9l0.9-0.7l-0.9,0.7l0.9-0.7c0.5,0.1,0.3,0.1,0,0l7.5-6l-7.5,6l7.5-6l0.1-0.1l-0.1,0.1l0.1-0.1l0,0l-7,5.7
		l7.1-5.6l-7.1,5.6l7.1-5.6l0,0c-2.8,2.4-6.3,5.1-9.7,7.9l-1.6,1.3l-0.1,0.1h-0.1l0,0l0,0C400.6,62.8,400.7,62.9,400.9,62.9
		L400.9,62.9z"/>
	<path class="st0" d="M396.5,61.6L396.5,61.6L396.5,61.6L396.5,61.6z"/>
	<path class="st0" d="M396.8,61.5L396.8,61.5c-0.1,0-0.2-0.1-0.3-0.1v-0.1l-0.2-0.5l-0.3-1l-1.3-3.9l1.2,3.2l0.6,1.6L396.8,61.5
		L396.8,61.5L396.8,61.5z"/>
	<path class="st0" d="M396.5,61.4L396.5,61.4C396,61.3,395.8,61.2,396.5,61.4L396.5,61.4z"/>
	<path class="st0" d="M412.7,52.7c-0.3,0.2-0.5,0.5-0.8,0.7c0,0,0,0-0.1,0L412.7,52.7L412.7,52.7L412.7,52.7z"/>
	<path class="st0" d="M411.9,53.1l-0.2,0.2l0,0L411.9,53.1L411.9,53.1z"/>
	<path class="st0" d="M404,59.4l-0.9,0.7L404,59.4z"/>
	<path class="st0" d="M411.4,53.4l-7.4,6L411.4,53.4z"/>
	<polygon class="st0" points="435.1,73.6 435.1,75.1 435.3,75.6 	"/>
	<path class="st0" d="M465.3,95.8h-0.5H465.3z"/>
	<polygon class="st0" points="435.9,66 435.9,66 436,67.2 	"/>
	<polygon class="st0" points="435.9,66.8 435.9,66.8 435.9,66 436,67.2 	"/>
	<path class="st0" d="M400.8,63.1l0.1-0.1h0.1c0,0-0.1,0-0.2-0.1l-0.2,0.2l0,0l0,0l0,0l0,0C400.7,63.1,400.7,63.2,400.8,63.1
		L400.8,63.1L400.8,63.1z"/>
	<path class="st0" d="M435.9,64.6V64c0-0.1-0.1-0.1-0.1-0.2l0,0l0,0v0.1V64v0.7h0.1V64.6L435.9,64.6z"/>
	<path class="st0" d="M436.6,65.3L436.6,65.3l-0.3-0.2l-0.4-0.3V65l0.1,0.1l0.5,0.3l0.2,0.1l0,0C436.7,65.4,436.7,65.4,436.6,65.3
		L436.6,65.3L436.6,65.3L436.6,65.3c0,0.1,0.2,0.4,0.2,0.4S436.8,65.6,436.6,65.3L436.6,65.3z"/>
	<path class="st0" d="M435.9,65L435.9,65l-0.1,0.1v0.4c0,0,0,0.1,0.1,0.1V65L435.9,65z"/>
	<path class="st0" d="M436.3,66.3L436.3,66.3L436.3,66.3L436.3,66.3L436.3,66.3z"/>
	<path class="st0" d="M434.8,63.8C434.8,63.8,434.8,63.9,434.8,63.8L434.8,63.8L434.8,63.8L434.8,63.8L434.8,63.8L434.8,63.8z"/>
	<path class="st0" d="M434.7,63.6C434.7,63.7,434.7,63.7,434.7,63.6C434.7,63.7,434.7,63.7,434.7,63.6L434.7,63.6z"/>
	<path class="st0" d="M434.7,63.6L434.7,63.6L434.7,63.6L434.7,63.6z"/>
	<path class="st0" d="M434.6,63.5C434.6,63.5,434.7,63.5,434.6,63.5C434.7,63.5,434.6,63.5,434.6,63.5L434.6,63.5z"/>
	<path class="st0" d="M434.6,63.4L434.6,63.4L434.6,63.4L434.6,63.4L434.6,63.4L434.6,63.4z"/>
	<path class="st0" d="M400.8,63.2c0.6,0.2,0.9,0.3,0.9,0.3S401.3,63.3,400.8,63.2L400.8,63.2L400.8,63.2z"/>
	<path class="st0" d="M400.7,63.2C400.8,63.3,400.8,63.3,400.7,63.2C400.8,63.3,400.8,63.3,400.7,63.2L400.7,63.2L400.7,63.2z"/>
	<path class="st0" d="M394.8,62.2L394.8,62.2C394.7,62.1,394.7,62.1,394.8,62.2L394.8,62.2z"/>
	<path class="st0" d="M413.8,51.7L413.8,51.7c-0.1,0-0.2,0-0.2,0l0.1-0.1L413.8,51.7L413.8,51.7z"/>
	<path class="st0" d="M412.8,52.7l-8.1,6.3L412.8,52.7z"/>
	<path class="st0" d="M411.9,53.1l-0.5,0.3L411.9,53.1z"/>
	<path class="st0" d="M456.3,95.3l-6.4,0.2c-3.3-0.1-6.6-0.1-10-0.1l0,0l0,0c-0.1,0-0.2,0-0.2,0.1h-0.1l0,0l0,0
		c-0.5,0-0.5-0.4-0.5-0.9l0,0l0,0l0,0c0.2,0.2,0.7,0.7,0.8,0.7l0,0l0,0l0,0l0,0v-0.1l0.1,0.1l0,0l0,0l0,0v-0.1v-0.3v-0.2
		c0.2,0.2,0.4,0.4,0.6,0.6l0,0l0,0l0,0l0,0l0,0l0,0l0,0l0,0l0,0l0,0l0,0v-0.2v-0.5h1.3l3.1,0.1C449,94.9,452.8,95.1,456.3,95.3
		L456.3,95.3z"/>
	<path class="st0" d="M441.4,95.3C441.5,95.3,441.5,95.3,441.4,95.3L441.4,95.3L441.4,95.3z"/>
	<path class="st0" d="M440.5,95.3L440.5,95.3L440.5,95.3L440.5,95.3c-0.1-0.1-0.1-0.1-0.2-0.2c-0.1-0.1-0.1-0.1-0.2-0.2
		c-0.1-0.1-0.2-0.2-0.3-0.3v-0.1h0.3h0.3v0.1v0.3V95v0.3H440.5L440.5,95.3z"/>
	<path class="st0" d="M439.8,94.9v0.3c-0.3-0.3-0.5-0.5-0.6-0.6l0,0h0.2h0.4C439.8,94.7,439.8,94.8,439.8,94.9L439.8,94.9z"/>
	<path class="st0" d="M459.5,94.8L459.5,94.8c-0.1,0-0.2,0-0.6-0.2c-0.1,0-0.3-0.1-0.5-0.1c-0.2-0.1,0.2,0-0.6-0.1h-0.3
		c-0.5,0-1,0-1.7,0c-2.7,0-7.1,0-14.4,0.1c-0.3,0-0.6,0-0.8,0l0,0v-0.6h0.1h2.5h2h2c-2.1,0-4.3,0-6.5-0.1l0,0h0.9h-0.8h-0.1v-0.7
		v0.7h-0.6l0,0V93v-0.7l-0.1-4.2c0,1.9,0.1,3.8,0.1,5.7c0-1.9-0.1-3.8-0.1-5.7c0,1.9,0.1,3.8,0.1,5.7h-0.4h-0.3h-0.1l0,0l0,0l0,0
		c0,0,0,0-0.1-0.1l0,0l-0.1-2.5l-0.2-5.1c0-0.5,0-1-0.1-1.5c0-0.1,0-0.2,0-0.3c0-0.4,0-0.9-0.1-1.3c0-0.2,0-0.3,0-0.5
		c0-0.4,0-0.8,0-1.2c0-0.2,0-0.3,0-0.5c0-0.4,0-0.8,0-1.2c0-0.1,0-0.3,0-0.5c0-0.4,0-0.9-0.1-1.3c0-0.1,0-0.2,0-0.3
		c0-0.5,0-1-0.1-1.4c0-0.1,0-0.1,0-0.2c0-0.5-0.1-1-0.1-1.6c0,0,0,0,0-0.1c0-0.5-0.1-1.1-0.1-1.6l-0.3-5l-0.1-2.5l-0.1-1.2l0,0
		c0-0.1-0.6-0.4-0.9-0.5c-2.8-1.6-5.6-3.2-8.4-4.7c-2.7-1.5-5.4-3-8-4.4c-1.3-0.7-2.6-1.4-3.8-2.1l-0.3-0.1c0.3,0,0.3,0,0,0
		l-1.6-0.9l0,0l0,0l0.1-0.1l0,0l0,0l0,0c0.1,0,0,0-0.2,0l0.1-0.1l0,0h-0.1l0.1-0.1l0,0h-0.1c-0.2,0-0.3,0-0.4,0l-0.4-0.2h-0.1
		c0.1-0.1,0.2-0.2,0.3-0.3l0.1-0.1l0,0l0,0l0,0l0,0h-0.1h0.2c0,0-0.3,0-1.3,0.1l0,0l0.2,0.1l0.4,0.2c-0.1,0.1-0.2,0.2-0.4,0.3
		c-0.7,0-0.9,0.1-0.9,0.1h0.4c0,0,0,0-0.1,0l0,0l0,0l0,0l0,0l0,0l0,0c-0.6,0-0.2,0,0,0l0,0h-0.1l0,0l0,0l0,0l0,0l0.1,0.1
		c-0.1,0-0.2,0-0.2,0l0,0c-0.8,0.1-0.6,0,0,0l0,0h0.1l0.3,0.1c-2.9,2.5-6.9,5.7-11,8.9l-0.8,0.6l1.9-1.7l0,0l-3.1,2.5l2.9-2.6
		c0,0,0,0-0.1,0l-1.1,0.9l-1.7,1.4l-0.4,0.4l0,0l0,0l0,0c-3.1-0.9-1.7-0.5-1.7-0.5s-0.1,0-0.2-0.1l0,0l0,0l0,0c0,0-0.1,0,0,0l0,0
		h0.1l0,0l0,0l0,0c0.2,0.1,0.7,0.2,1.7,0.5l0.1-0.1l0.4-0.3l2.7-2.3l0,0l-3.1,2.6l0,0l0,0l0,0c0.2,0.1-1-0.3-1.6-0.5l0,0l0,0l0,0
		v-0.1l-0.1-0.3l-0.2-0.5l-0.3-1l-0.7-2l-0.1-0.2c-0.2-0.1-0.4-0.1-0.6-0.2l0,0l0,0l0,0l0.1-0.1l0.3-0.2l-0.3-1.1l-2.7-6.9l-0.6-1.9
		l-0.6-2.4l0.1-0.5l2.4,6.4l-1.3-3.7l2.1,5.5l-2.5-6.9h0.1l0.9,2.3c1,2.8,1.9,5.7,2.9,8.5c0,0.1,0,0.1,0.1,0.2l0.2-0.1
		c-1.6-4.8-3.2-9.6-4.9-14.7l-0.6-1.9c1.9,5.5,4,11.5,5.8,16.3l0.2-0.1c-2.8-8.5-5.4-14.8-8.3-23.8l-0.3-0.8
		c1.8,4.6,4.4,11.9,6.2,16.5c-2.7-7.4-5.2-14.3-7.8-21.1l-0.3-0.9c-1.6-4.6-3.1-9-4.6-13.3c-0.7-2.1-1.5-4.2-2.2-6.3l-1.1-3.1
		l-0.4,1c-0.1,0.3-0.2,0.6-0.3,1l-0.6-1.5l0.6,1.5c-4.6,13-8.9,25.2-13.2,37.8l3.2-10.3c-2.6,6.3-5.3,13.7-7.6,19.6l-0.7,1.8
		c2.5-7.9,6.1-18.1,8.6-26c-2,5.5-3.4,10.2-5.8,16.6l0.6-1.9c-1.7,4.7-3.1,8.9-4.5,12.9c-0.5-0.5-1-0.9-1.5-1.4
		c0.4-1.2,0.7-2.3,1.1-3.4l-1.2,3.3c-0.4-0.4-0.8-0.7-1.2-1.1c0.5-1.3,1-2.7,1.5-4.1l0.5-1.4l0.2,0.6l0.6-2.4l1.8-4l1.5-4.2
		c1.1-2.2,2.3-5.2,3.4-8.4c1.2-3.2,2.4-6.7,3.6-9.9l-0.9,2.8c0.7-1.4,1.4-3.2,2.1-5c1-2.8,2-5.8,2.9-8.3l1.8-5.6l0.2-0.5l-0.1,0.2
		l0.1-0.2l0.7-2V0l0,0l0,0l0,0l0,0c11.8,0.2,3.3,0.1,5.9,0.1l0,0v0.1l0.1,0.2l0.2,0.5l0.3,1l1.3,3.9l1.5,4.1l-1-2.8l0.9,2.3
		l-1.7-4.6L387,14l1.2,3.2l-0.3-0.9l1.6,4.1l3.2,8.7l1.9,6.1L393,30l-0.9-2.8l3.1,9.3V36c1.3,3.7,2.9,8.3,4.4,13l0.2,0.5l0.9,2.9
		l0,0l-0.6-1.9l0.4,0.4c0.1,0.4,0.3,0.9,0.4,1.3l2.3-1.8l-0.7,0.6l5.8-4.5l1.2-0.9l0.3-0.2l0.2-0.1l0,0c10.8-0.7,3-0.2,5.4-0.3l0,0
		l0,0l0,0l0,0l0.1,0.1l0.7,0.4l2.6,1.6c1.7,1.1,3.4,2.2,5,3.2l-2.9-1.5l2.9,1.5c3,1.9,5.9,3.8,8.6,5.6c1.4,0.9,2.7,1.8,4.1,2.7
		l2,1.3l0.5,0.3l0.1,0.1h0.1c1,1.7,1.5,2.6,1.8,3c-0.1-0.2-0.2-0.3,0.1,0.1l0,0l0,0l0,0v0.3v1.1c-0.1,6.1-0.2,11.5-0.4,16.1
		c0-3.4-0.1-6.9-0.1-10.2c0-1.7,0-3.3,0-4.8v-2.3v-0.1v0.2l0,0l0,0c-0.6-1-1.8-3-1.6-2.6l0,0l0,0l-0.2-0.2l-0.5-0.3l-0.9-0.6
		c-3.7-2.4-7.5-4.7-11.3-7l-5.7-3.5l-2.9-1.8l-1.5-0.9l-0.7-0.4l0,0c-0.3,0-1.1,0.1-0.3,0l0,0l0.1,0.1l1.1,0.7l4.3,2.8l-0.4-0.2
		l2,1.4l-1.6-1.1c6.7,4,12.5,7.6,18.2,11.2l0.1,0.1h0.1c0.6,1.1-1.4-2.4,1.4,2.4l0,0l0,0l0,0v0.3v0.6v1.2v2.5l0.1,5
		c0.1,3.3,0.2,6.7,0.3,10.3v-2.5l0.2,11.8l2.3,0.1l6.2,0.1c3.3,0.5,5.8,0,9.7,1.2c-3.9-1.3-6.4-0.8-9.7-1.2c3.3,0.5,5.8,0,9.7,1.2
		c-2.9-0.9-4.8-0.5-7-0.4h-1.3c0.4,0,0.9,0,1.3,0l3.1,0.1c0.3,0,1.1,0.1,1.9,0.1C459.1,94.4,459.2,94.7,459.5,94.8
		c-0.3-0.1-0.4-0.4-1.9-0.6c-0.7,0-1.5-0.1-1.9-0.1l-3.1-0.1l3.1,0.1c0.3,0,1.1,0.1,1.9,0.1C459.1,94.4,459.2,94.7,459.5,94.8
		L459.5,94.8L459.5,94.8z"/>
	<polygon class="st0" points="446.4,93.9 445,93.9 443.7,93.9 	"/>
	<path class="st0" d="M440.5,91.5l-0.1-1L440.5,91.5z"/>
	<path class="st0" d="M440.5,91.5l-0.1-1L440.5,91.5z"/>
	<path class="st0" d="M440.5,91.5v-0.9C440.4,90.8,440.5,91.2,440.5,91.5L440.5,91.5z"/>
	<path class="st0" d="M439.7,88.1l-0.2-12.7L439.7,88.1z"/>
	<path class="st0" d="M439.7,88.1l-0.2-12.7L439.7,88.1z"/>
	<path class="st0" d="M439.7,88.1l-0.2-12.7L439.7,88.1z"/>
	<path class="st0" d="M439.7,88.1l-0.2-12.7L439.7,88.1z"/>
	<polygon class="st0" points="439.4,73.5 439.4,71.6 439.4,73.5 439.5,75.4 439.4,71.6 439.4,71.5 439.4,71.4 439.3,67.7 
		439.3,69.5 439.4,71.4 439.3,69.5 439.3,67.7 439.3,69.5 439.4,71.4 439.4,71.6 439.4,73.5 439.5,75.4 	"/>
	<polygon class="st0" points="439.5,73.1 439.5,73.1 439.4,72 439.4,70 439.4,69.5 	"/>
	<path class="st0" d="M439.3,63.7L439.3,63.7c-0.1-0.2-0.2-0.3-0.2-0.4C439.1,63.4,439.2,63.6,439.3,63.7L439.3,63.7v0.2v0.2v0.5v1
		v1.9l-0.1-2.9v-0.7v-0.2H439.3L439.3,63.7L439.3,63.7c-0.3-0.5,0.7,1.2-0.7-1.1l0,0l0,0l0,0l0,0l-0.1-0.2c0,0,0,0,0.1,0.2l0,0l0,0
		l0,0l0,0l0,0l0,0l-0.1-0.1l-0.3-0.2l-1.2-0.8c-1.6-1-3.2-2-4.8-3c-3.1-2-6.1-3.9-8.9-5.7l1.2,0.8l1.7,1l1.2,0.8l1.7,1.1l1.7,1
		l1.7,1l1.2,0.8l1.7,1l1.7,1l1.7,1l0,0l0,0l0,0l0,0l0,0l0,0l-1.7-1l-1.7-1l-1.7-1l-1.2-0.8l-1.7-1l-1.7-1l-1.7-1.1l-1.2-0.8l-1.7-1
		l-1.3-0.9l1.2,0.8l1.7,1l1.2,0.8l1.7,1.1l1.7,1l1.7,1l1.2,0.8l1.7,1l1.7,1l1.7,1l0,0l0,0l0,0l0,0v0.1l0,0c0.1,0.1,0.2,0.4,0.4,0.7
		C439.1,63.4,439.2,63.6,439.3,63.7L439.3,63.7v0.2v0.2v0.5v1v1.9v-1.9v-1v-0.5v-0.2V63.7L439.3,63.7L439.3,63.7z"/>
	<polygon class="st0" points="439.4,67.1 439.4,67.1 439.4,66.6 439.4,65.9 	"/>
	<path class="st0" d="M397.8,61.2C398.1,61.3,398,61.2,397.8,61.2L397.8,61.2L397.8,61.2z"/>
	<path class="st0" d="M399.9,60.3l1.6-1.3l-1.5,1.1l-0.7,0.6c-0.2,0.1-0.1,0.3-0.5,0.2l-0.1-0.4l-1-2.9c-0.1,0-0.1,0-0.2-0.1
		c0.3,0.9,0.6,1.7,0.9,2.6c0.3,0.3-0.2,0.8,0.8,0.9L399.9,60.3L399.9,60.3z"/>
	<path class="st0" d="M403,59.1L403,59.1L403,59.1L403,59.1L403,59.1L403,59.1z"/>
	<polygon class="st0" points="403.4,58.6 405,57.1 403.3,58.6 	"/>
	<path class="st0" d="M424.4,50.6l-3-1.6L424.4,50.6z"/>
	<path class="st0" d="M411.4,46.6c2.9-0.2,3.9-0.3,4.2-0.3l-0.2-0.1l0,0l0,0c-8.2,0.5-2.3,0.1-4.1,0.3l0,0l0,0l-0.1,0.1l-0.3,0.3
		l-2.4,1.9l2.1-1.5l0.5-0.4L411.4,46.6L411.4,46.6L411.4,46.6L411.4,46.6L411.4,46.6L411.4,46.6z"/>
	<path class="st0" d="M387.5,25.8c-1.9-5.5-3.5-9.7-5.4-15.2C384,16.1,385.6,20.2,387.5,25.8l0.2,0.5l1.6,4.6l-1.6-4.6L387.5,25.8
		L387.5,25.8z"/>
	<path class="st0" d="M385.7,20.2c-2.2-6.5-3.9-10.5-5.9-16.6C381.8,9.6,383.5,13.7,385.7,20.2L385.7,20.2z"/>
	<path class="st0" d="M380.6,3.2L380.6,3.2l0.2-0.4l0.1-0.5V2.2V2.1l0,0l0,0l0,0l0,0c0.1,0,0.1,0,0,0l0,0l0,0l0,0l0,0
		c-6.7-0.1-1.9,0-3.4-0.1l0,0l0,0l0,0c-1.2,0-0.8,0,0,0l0,0l0.1,0.2l0.3,0.9L377.5,2c1.1,0,2.9,0.1,3.4,0.1l0,0l0,0l0,0l0,0v0.1
		l-0.1,0.1l-0.1,0.3L380.6,3.2L380.6,3.2z"/>
	<path class="st0" d="M379,1.8L379,1.8C379,1.7,379,1.7,379,1.8L379,1.8C379,1.7,379,1.7,379,1.8L379,1.8z"/>
	<path class="st0" d="M439.1,94.5L439.1,94.5L439.1,94.5L439.1,94.5L439.1,94.5L439.1,94.5C439,94.6,439,94.6,439.1,94.5
		C439,94.5,439,94.4,439.1,94.5C439,94.5,439.1,94.6,439.1,94.5L439.1,94.5z"/>
	<path class="st0" d="M439,94.4C439,94.5,439,94.5,439,94.4C439,94.5,439,94.4,439,94.4L439,94.4c0-0.2,0-0.3,0-0.3
		c0-0.1,0-0.1,0-0.1v-0.1l0,0l0.1,0.1l0,0l0,0l0,0c0.1,0.1,0.3,0.3,0.6,0.6L439,94.4L439,94.4L439,94.4L439,94.4z"/>
	<path class="st0" d="M439,93.9C439.2,94.1,439.1,94,439,93.9L439,93.9L439,93.9z"/>
	<path class="st0" d="M440.5,94.4c-0.1,0-0.3,0-0.4,0h-0.2v-0.1v-0.5h0.6v0.3V94.4L440.5,94.4L440.5,94.4z"/>
	<path class="st0" d="M439.8,93.9c0,0.2,0,0.4,0,0.6h-0.1l0,0l-0.1-0.1c-0.2-0.2-0.4-0.4-0.5-0.5l0,0l0,0l0,0l0,0l0,0
		c0.1,0.1,0.1,0.1,0.1,0.1s0,0-0.1-0.1l0,0l0,0H439.8C439.8,93.8,439.8,93.9,439.8,93.9c-0.1,0-0.2,0-0.3,0H439.8L439.8,93.9z"/>
	<path class="st0" d="M440.5,93.8L440.5,93.8c-0.2,0-0.4,0-0.6,0l0,0H440.5L440.5,93.8z"/>
	<path class="st0" d="M439,93.8L439,93.8L439,93.8L439,93.8L439,93.8L439,93.8z"/>
	<path class="st0" d="M441.5,63.5c0.1,0.2,0.2,0.4,0.2,0.4S441.7,63.8,441.5,63.5L441.5,63.5z"/>
	<path class="st0" d="M397.9,61.2L397.9,61.2C397.8,61.2,397.8,61.2,397.9,61.2L397.9,61.2C397.8,61.2,397.8,61.2,397.9,61.2
		L397.9,61.2z"/>
	<path class="st0" d="M397.8,61.2L397.8,61.2h-0.1l0,0l-0.1-0.1l-0.1-0.3l-0.4-1l-0.4-1.4l0.6,1.7l0.3,0.9L397.8,61.2L397.8,61.2
		L397.8,61.2L397.8,61.2z"/>
	<path class="st0" d="M397.7,61.1L397.7,61.1C397.4,61,397.5,61.1,397.7,61.1L397.7,61.1z"/>
	<path class="st0" d="M357.3,60.9c-0.1,0.1-0.1,0.1-0.1,0.1C357.1,61,357.1,60.9,357.3,60.9L357.3,60.9L357.3,60.9z"/>
	<path class="st0" d="M357.3,60.6c0,0,0,0.1-0.1,0.2l-0.3-0.3l-0.1-0.1c-0.4,0.1-0.7,0.2-0.9,0.2c0.2-0.1,1.5-0.4,2.2-0.6
		c-0.2,0.1-0.5,0.1-0.7,0.2L357.3,60.6L357.3,60.6z"/>
	<path class="st0" d="M356.6,60.2c-0.2,0.1-0.4,0.1-0.6,0.1c0.7-0.2,1.5-0.4,2-0.5c-0.1,0-0.3,0.1-0.4,0.1l-0.1,0.1
		c-0.3,0.1-0.5,0.1-0.8,0.2L356.6,60.2L356.6,60.2z"/>
	<path class="st0" d="M355.9,60.3c-0.1,0-0.2,0-0.2,0.1l0,0C355.7,60.3,355.8,60.2,355.9,60.3L355.9,60.3L355.9,60.3z"/>
	<path class="st0" d="M355.4,60.3C355.3,60.3,355.3,60.3,355.4,60.3L355.4,60.3L355.4,60.3L355.4,60.3z"/>
	<path class="st0" d="M357.8,59.8c-0.4,0.1-1,0.2-1.8,0.4l0,0C356.6,60.1,357.2,59.9,357.8,59.8L357.8,59.8L357.8,59.8L357.8,59.8z"
		/>
	<path class="st0" d="M357.7,59.7c-0.4,0.1-0.8,0.2-1.3,0.3l-0.2-0.2l0.1-0.5l0.1-0.5v-0.1l0.5,0.4L357.7,59.7L357.7,59.7
		L357.7,59.7z"/>
	<path class="st0" d="M355.5,59.5c-0.4,0.1-0.9,0.2-1.5,0.4v-0.1l0.1-0.3l0.2-0.6c0-0.1,0.1-0.2,0.1-0.3c0.5-0.1,1.1-0.3,1.5-0.4
		l-0.2,0.4L355.5,59.5L355.5,59.5z"/>
	<path class="st0" d="M358.3,59.7c-0.1,0-0.2,0-0.2,0.1l0,0C358.1,59.7,358.2,59.7,358.3,59.7L358.3,59.7L358.3,59.7L358.3,59.7
		L358.3,59.7L358.3,59.7z"/>
	<path class="st0" d="M356.3,59.1l-0.2,0.5l0,0l-0.1-0.1v-0.1c0.1-0.3,0.2-0.6,0.3-0.9l0.2,0.2L356.3,59.1L356.3,59.1z"/>
	<path class="st0" d="M358.6,59.5C358.5,59.5,358.5,59.5,358.6,59.5h-0.2l-0.4-0.3l-0.1-0.1l0.1-0.2c0,0,0,0,0.1,0l0.3,0.3
		L358.6,59.5L358.6,59.5L358.6,59.5z"/>
	<polygon class="st0" points="357.9,59.3 357.8,59.5 357.4,59.1 356.6,58.4 356.7,58.2 357.2,58.7 357.6,59 	"/>
	<path class="st0" d="M403.8,59.4L403.8,59.4c-0.2-0.1-0.4-0.1-0.7-0.2l0,0C403.3,59.2,403.6,59.3,403.8,59.4L403.8,59.4z"/>
	<path class="st0" d="M403.6,59.3L403.6,59.3c-0.2,0-0.3-0.1-0.4-0.1l0.3-0.2v0.1L403.6,59.3L403.6,59.3z"/>
	<path class="st0" d="M358,58.9c-0.1,0-0.2,0-0.2,0.1l-0.5-0.4l-0.5-0.4v-0.1c0.7-0.2,1.3-0.3,1.8-0.4l0,0l0,0l0.9,0.7l0.1,0.1l0,0
		l0,0l0,0l0,0C359.2,58.6,358.8,58.7,358,58.9l-0.2-0.3L358,58.9L358,58.9L358,58.9z"/>
	<path class="st0" d="M359.5,58.5c-0.4,0.1-0.5,0.1-0.5,0.1S359.3,58.6,359.5,58.5L359.5,58.5L359.5,58.5z"/>
	<path class="st0" d="M359.7,58.5c-0.1,0-0.1,0-0.2,0l0,0C359.6,58.5,359.7,58.5,359.7,58.5L359.7,58.5z"/>
	<path class="st0" d="M355.9,58.2c-0.5,0.1-1,0.2-1.4,0.3c0-0.1,0.1-0.2,0.1-0.3c-0.5-0.5-1-1-1.5-1.5l0.2-0.6l0.9,0.8l0.6,0.5
		L355.9,58.2L355.9,58.2z"/>
	<path class="st0" d="M359.8,58.5C359.8,58.5,359.7,58.5,359.8,58.5C359.7,58.5,359.8,58.5,359.8,58.5L359.8,58.5z"/>
	<path class="st0" d="M359.8,58.5L359.8,58.5L359.8,58.5L359.8,58.5z"/>
	<path class="st0" d="M359.8,58.5L359.8,58.5L359.8,58.5L359.8,58.5z"/>
	<path class="st0" d="M359.9,58.5C359.8,58.5,359.8,58.5,359.9,58.5C359.8,58.5,359.8,58.5,359.9,58.5L359.9,58.5z"/>
	<path class="st0" d="M359.9,58.4C359.9,58.4,359.9,58.5,359.9,58.4C359.9,58.5,359.9,58.5,359.9,58.4L359.9,58.4z"/>
	<path class="st0" d="M360,58.4C360,58.4,359.9,58.4,360,58.4C359.9,58.4,360,58.4,360,58.4L360,58.4z"/>
	<path class="st0" d="M360,58.4L360,58.4L360,58.4L360,58.4z"/>
	<path class="st0" d="M360,58.4L360,58.4L360,58.4L360,58.4z"/>
	<path class="st0" d="M360,58.4L360,58.4L360,58.4L360,58.4z"/>
	<path class="st0" d="M360,58.4L360,58.4L360,58.4L360,58.4z"/>
	<path class="st0" d="M360.1,58.4L360.1,58.4L360.1,58.4L360.1,58.4z"/>
	<path class="st0" d="M360.1,58.4L360.1,58.4L360.1,58.4z"/>
	<path class="st0" d="M356.6,58.2l-0.1,0.2l-0.2-0.2l0,0C356.4,58.1,356.5,58.1,356.6,58.2L356.6,58.2L356.6,58.2z"/>
	<polygon class="st0" points="356.6,58.1 356.6,58.1 356.6,58.1 	"/>
	<path class="st0" d="M356.4,58L356.4,58L356.4,58L356.4,58L356.4,58z"/>
	<path class="st0" d="M356.7,58c-0.1,0-0.1,0-0.2,0l-0.1-0.1c0.1-0.2,0.1-0.4,0.2-0.5c0.1-0.2,0.2-0.5,0.2-0.7
		c0-0.1,0.1-0.2,0.1-0.3c0.3-0.8,0.5-1.5,0.8-2.3l1.2,1.1l0.3,0.2c-0.2,0.7-0.5,1.4-0.7,2C357.9,57.7,357.3,57.8,356.7,58l0.2-0.3
		l0.3-1L356.7,58L356.7,58z"/>
	<path class="st0" d="M356.1,57.8L356,58l-2.6-2.4l0,0l1.6,1.3c0.1-0.3,0.2-0.5,0.3-0.8l-1.5-1.5l0.2-0.5l0,0c0.5,0.4,1,0.8,1.5,1.2
		c0.3-0.8,0.6-1.6,0.9-2.4l1.2,1.1l-0.8,2L356.1,57.8l-0.4-0.4L356.1,57.8L356.1,57.8z"/>
	<path class="st0" d="M353.2,55.9l-0.2,0.5C353,56.3,353,56.1,353.2,55.9l-1.2-0.3c-2.2-2.1-4.4-4.3-6.8-6.4l-0.6-0.6l-0.1-0.1l0,0
		c-0.1,0-0.5-0.1-0.8-0.1l0,0l0,0l0,0h-0.1l-0.2,0.1l-0.4,0.2l-1.6,0.7l1.7-0.7l0.4-0.2h0.1l0,0l0,0l0,0l0,0c-0.1,0-0.2,0-0.2,0
		s0.9,0.2,1,0.2l0,0l0,0l0,0l0.2,0.1l0.7,0.6l2.8,2.4l-1.9-1.6L353.2,55.9L353.2,55.9z"/>
	<path class="st0" d="M344.5,48.5L344.5,48.5L344.5,48.5z"/>
	<polygon class="st0" points="353.9,54.3 353.8,54.6 353.8,54.6 	"/>
	<path class="st0" d="M353.8,54.4L353.8,54.4l-0.7-0.6l0.9,0.3C353.9,54.2,353.8,54.3,353.8,54.4L353.8,54.4z"/>
	<path class="st0" d="M413,51.1C413,51.2,413,51.2,413,51.1l-0.2-0.1l0,0h0.1L413,51.1L413,51.1z"/>
	<path class="st0" d="M414.6,51L414.6,51h-0.1l0,0C414.5,51,414.5,51,414.6,51L414.6,51z"/>
	<polygon class="st0" points="439.4,71.6 439.5,75.4 439.4,73.5 	"/>
	<polygon class="st0" points="439.3,67.7 439.4,71.4 439.3,69.5 	"/>
	<polygon class="st0" points="439.4,72 439.5,73.1 439.4,72 439.4,70 439.4,69.5 439.4,70 	"/>
	<polygon class="st0" points="439.4,72 439.5,73.1 439.4,69.5 439.4,70 	"/>
	<path class="st0" d="M439.3,64.6l0.1,2.9v-1.9L439.3,64.6v-0.4V64v-0.1v-0.2c-0.1-0.2-0.2-0.3-0.2-0.4c-0.2-0.4-0.4-0.6-0.4-0.7
		c1.4,2.3,0.4,0.6,0.7,1.2l0,0l0,0l0,0v0.1L439.3,64.6L439.3,64.6z"/>
	<path class="st0" d="M438.6,62.6L438.6,62.6L438.6,62.6c-0.1-0.1-0.1-0.2-0.1-0.2l0,0l0,0C438.5,62.4,438.6,62.6,438.6,62.6
		L438.6,62.6z"/>
	<path class="st0" d="M438.6,62.6L438.6,62.6L438.6,62.6L438.6,62.6L438.6,62.6z"/>
	<path class="st0" d="M438.6,62.5L438.6,62.5L438.6,62.5L438.6,62.5z"/>
	<polygon class="st0" points="438.5,62.5 438.5,62.5 438.5,62.5 	"/>
	<path class="st0" d="M438.5,62.5L438.5,62.5L438.5,62.5L438.5,62.5l-1.7-1.1l-1.7-1l-1.7-1l-1.2-0.8l-1.7-1l-1.7-1l-1.7-1.1
		l-1.2-0.8l-1.7-1l-1-1c2.7,1.8,5.7,3.7,8.9,5.7c1.6,1,3.2,2,4.8,3l1.2,0.8l0.3,0.2L438.5,62.5L438.5,62.5L438.5,62.5z"/>
	<polygon class="st0" points="439.4,66.6 439.4,67.1 439.4,66.6 439.4,65.9 	"/>
	<polygon class="st0" points="439.4,66.6 439.4,67.1 439.4,65.9 	"/>
	<polygon class="st0" points="375.7,2.4 375.6,2.6 375.5,2.9 	"/>
	<path class="st0" d="M421.4,49l3,1.6L421.4,49z"/>
	<path class="st0" d="M346.4,50.1l1.9,1.6L346.4,50.1z"/>
	<path class="st0" d="M355.7,60.6L355.7,60.6C355.7,60.6,355.7,60.5,355.7,60.6L355.7,60.6L355.7,60.6
		C355.7,60.5,355.7,60.6,355.7,60.6L355.7,60.6z"/>
	<path class="st0" d="M358.9,59.8l-3.1,0.8C355.7,60.6,359.4,59.6,358.9,59.8C358.8,59.8,358.9,59.8,358.9,59.8L358.9,59.8z"/>
	<polygon class="st0" points="355.8,60.5 355.8,60.5 355.8,60.5 355.8,60.4 355.9,60.1 355.8,60.4 	"/>
	<polygon class="st0" points="355.9,60.1 355.9,60.1 356.3,59.1 356.5,58.4 356.3,59.1 	"/>
	<path class="st0" d="M358.5,59.9c-0.1,0-0.1,0-0.2,0C358.4,59.9,358.4,59.9,358.5,59.9L358.5,59.9z"/>
	<polygon class="st0" points="358.3,59.9 358.3,59.9 358.3,59.9 358.1,59.8 358,59.6 358.1,59.8 358.3,59.9 	"/>
	<path class="st0" d="M358.7,59.8c-0.1,0-0.1,0-0.2,0C358.6,59.9,358.6,59.8,358.7,59.8L358.7,59.8z"/>
	<path class="st0" d="M358.8,59.8h-0.1H358.8L358.8,59.8z"/>
	<polygon class="st0" points="358,59.6 358,59.6 357.9,59.6 357.4,59.1 356.5,58.4 357.4,59.1 357.9,59.6 	"/>
	<path class="st0" d="M357.2,56.6l-0.7,1.8L357.2,56.6z"/>
	<polygon class="st0" points="356.5,58.4 356.5,58.4 356.1,57.9 	"/>
	<polygon class="st0" points="356.1,57.9 356.1,57.9 353.4,55.5 	"/>
	<path class="st0" d="M354.4,60.5L354.4,60.5c0,0,0.3-0.1,0.8-0.2l0,0l0,0l0,0l0.1-0.2l0.5-1.4l1-2.7l2.1-5.5l-2.1,5.5l-1,2.7
		l-0.5,1.4l-0.1,0.2l0,0l0,0l0,0c1.3-0.3,3.6-0.9,3.6-0.9s-2.3,0.6-3.6,0.9l0,0c-0.1,0-0.2,0-0.2,0.1c0.1,0,0.1,0,0.2-0.1l0,0
		C354.8,60.4,354.5,60.5,354.4,60.5c0.1,0,0.2-0.1,0.5-0.1C354.5,60.5,354.4,60.5,354.4,60.5L354.4,60.5z"/>
	<path class="st0" d="M354.4,60.5L354.4,60.5L354.4,60.5L354.4,60.5z"/>
	<path class="st0" d="M354.9,60.4L354.9,60.4L354.9,60.4L354.9,60.4z"/>
	<polygon class="st0" points="358.7,59.5 358.7,59.5 358.7,59.4 358.6,59.4 358.4,59.1 357.8,58.6 358.4,59.1 358.6,59.4 
		358.7,59.4 	"/>
	<path class="st0" d="M358.8,59.4L358.8,59.4L358.8,59.4L358.8,59.4z"/>
	<polygon class="st0" points="439.4,73.5 439.4,71.5 439.3,69.5 439.3,67.7 439.3,69.5 439.4,71.5 439.4,73.5 439.5,75.4 	"/>
	<polygon class="st0" points="439.4,72 439.4,70 439.4,69.5 439.4,70 439.4,72 439.5,73.1 	"/>
	<polygon class="st0" points="439.3,65.6 439.3,67.5 439.3,65.6 439.3,64.6 439.3,64.2 439.3,63.9 439.3,63.8 439.3,63.7 
		439.3,63.8 439.3,63.9 439.3,64.2 439.3,64.6 	"/>
	<path class="st0" d="M439,63.3c0.1,0.1,0.1,0.3,0.2,0.4C439.2,63.6,439.1,63.4,439,63.3L439,63.3z"/>
	<path class="st0" d="M438.6,62.6c0.1,0.1,0.2,0.4,0.4,0.7C438.8,62.9,438.7,62.7,438.6,62.6C438.6,62.6,438.6,62.5,438.6,62.6
		L438.6,62.6L438.6,62.6l-0.1-0.1l0,0l-1.7-1l-1.7-1l-1.7-1l-1.2-0.8l-1.7-1l-1.7-1l-1.7-1.1l-1.2-0.8l-1.7-1l-1-1.1l1.2,0.8l1.7,1
		l1.2,0.8l1.7,1.1l1.7,1l1.7,1l1.2,0.8l1.7,1l1.7,1l1.7,1l0,0L438.6,62.6L438.6,62.6L438.6,62.6C438.6,62.5,438.6,62.6,438.6,62.6
		c-0.1-0.1-0.1-0.2-0.1-0.2S438.5,62.4,438.6,62.6L438.6,62.6L438.6,62.6L438.6,62.6z"/>
	<polygon class="st0" points="438.6,62.6 438.6,62.6 438.6,62.6 	"/>
	<path class="st0" d="M438.5,62.4l0.1,0.2C438.6,62.6,438.5,62.4,438.5,62.4L438.5,62.4z"/>
	<path class="st0" d="M438.5,62.4L438.5,62.4L438.5,62.4L438.5,62.4z"/>
	<polygon class="st0" points="439.4,66.6 439.4,65.9 439.4,66.6 439.4,67.1 	"/>
	<path class="st0" d="M439.5,75.4l0.2,12.7L439.5,75.4z"/>
	<path class="st0" d="M439.5,75.4l0.2,12.7L439.5,75.4z"/>
	<path class="st0" d="M439.9,95.4c3.4,0,6.7,0.1,10,0.1C446.6,95.4,443.3,95.4,439.9,95.4L439.9,95.4L439.9,95.4z"/>
	<path class="st0" d="M439.9,95.4c-0.1,0-0.3,0.1-0.4,0.1l0,0C439.6,95.4,439.7,95.4,439.9,95.4L439.9,95.4L439.9,95.4z"/>
	<path class="st0" d="M439,94.5c0,0.5,0.1,0.9,0.5,0.9C439,95.4,439,95,439,94.5L439,94.5L439,94.5z"/>
	<path class="st0" d="M438.9,93.8c0,0.1,0,0.1,0,0.2C439,93.9,439,93.8,438.9,93.8L438.9,93.8L438.9,93.8z"/>
	<path class="st0" d="M438.9,93.7C438.9,93.8,438.9,93.8,438.9,93.7L438.9,93.7C438.9,93.8,438.9,93.8,438.9,93.7l-0.1-2.5
		L438.9,93.7L438.9,93.7z"/>
	<polygon class="st0" points="438.9,91.2 438.9,91.2 438.7,86.1 	"/>
	<path class="st0" d="M447,93.9h-2h-2h-2.5h-0.1l0,0C442.7,93.9,444.9,93.9,447,93.9L447,93.9z"/>
	<path class="st0" d="M440.5,93.9L440.5,93.9h-0.6l0,0C440.1,93.9,440.3,93.9,440.5,93.9L440.5,93.9z"/>
	<path class="st0" d="M439.8,93.9L439.8,93.9h-0.3C439.5,93.9,439.7,93.9,439.8,93.9L439.8,93.9z"/>
	<polygon class="st0" points="445,93.9 443.7,93.9 446.4,93.9 	"/>
	<path class="st0" d="M462.5,95l0.9,0.4L462.5,95z"/>
	<path class="st0" d="M475.9,99.6l-0.4,0.1l-0.9-0.3l-2.1-0.7l-4.3-1.4l-8.6-2.9c-3.9-1.3-6.4-0.8-9.7-1.2l6.1,0.2h1.5
		c1.8,0.2,1.3,0.4,2.1,0.6l2.9,1.1l0.9,0.3l4.1,1.6l-2.7-1.1h0.5l0,0l3.8,1.1c1.5,0.5,3.2,1.1,4.9,1.6l1.3,0.4l0.4,0.1l2.4-0.5
		c1.2-0.2,2.3-0.4,3.4-0.7c0.2,0,0.3-0.1,0.5-0.1c-0.2,0-0.3,0.1-0.5,0.1c-1.1,0.2-2.3,0.4-3.4,0.7c1.2-0.2,2.3-0.4,3.5-0.7
		c0.2,0,0.3-0.1,0.5-0.1c2-0.4,3.7-0.7,5.2-1h0.1l-1,0.1l3.7-1C484.1,97.1,481.8,98.4,475.9,99.6L475.9,99.6z"/>
	<path class="st0" d="M476.2,99.3L476.2,99.3L476.2,99.3L476.2,99.3L476.2,99.3L476.2,99.3z"/>
	<path class="st0" d="M475,99.2L475,99.2C474.8,99.2,474.9,99.2,475,99.2L475,99.2L475,99.2z"/>
	<path class="st0" d="M481.5,98c-1.1,0.2-2.3,0.4-3.5,0.7C479.2,98.4,480.4,98.2,481.5,98c0.2,0,0.3-0.1,0.5-0.1
		C481.8,97.9,481.7,97.9,481.5,98L481.5,98z"/>
	<path class="st0" d="M487.3,96.8c-0.1,0-0.1,0-0.1,0H487.3L487.3,96.8z"/>
	<path class="st0" d="M487.3,96.8l-0.9,0.2L487.3,96.8z"/>
	<polygon class="st0" points="465.3,95.8 464.8,95.8 465.3,95.8 	"/>
	<path class="st0" d="M449.9,93.2c3.3,0.5,5.8,0,9.7,1.2C455.7,93.1,453.2,93.6,449.9,93.2L449.9,93.2z"/>
	<path class="st0" d="M480.8,101.2c-1.6,0.4-4.8,0.8-6.6,0.8C476,101.9,479.3,101.5,480.8,101.2L480.8,101.2z"/>
	<path class="st0" d="M472.6,101.9c0.3,0,0.6,0.1,0.8,0.1C473.1,101.9,472.8,101.9,472.6,101.9L472.6,101.9z"/>
	<path class="st0" d="M472.6,101.9L472.6,101.9l-6.8-3c-2.8-0.9-6-2.2-8.4-2.8h-9.1h9.1c2.4,0.6,5.6,1.9,8.4,2.8L472.6,101.9
		L472.6,101.9z"/>
	<polygon points="176,105.8 176,73.2 185,73.2 185,86.1 196.1,86.1 196.1,73.2 205.1,73.2 205.1,105.8 196.1,105.8 196.1,92.4 
		185,92.4 185,105.8 	"/>
	<polygon points="211.2,105.8 211.2,73.2 236,73.2 236,79.5 220.2,79.5 220.2,86.3 234.7,86.3 234.7,92.6 220.2,92.6 220.2,99.5 
		236,99.5 236,105.8 	"/>
	<path d="M250.1,105.8h-9V73.3h15.1c5.5,0,12.6,1.5,12.6,8.4c0,4.9-3.7,7.4-8.3,8v0.2c5.8,0.1,6.9,3.1,7.4,8.1
		c0.2,2.7,0.7,5.3,1.5,7.9h-9.8c-0.5-2.3-0.8-4.6-1-6.9c-0.4-3.9-0.5-5.5-5.1-5.5h-3.4L250.1,105.8L250.1,105.8z M253.6,87
		c2.9,0,5.7-0.4,5.7-3.7s-2.8-3.7-5.7-3.7h-3.5v7.5h3.5V87z"/>
	<polygon points="293.7,73.2 304.4,73.2 293.1,87.6 305.3,105.8 294.1,105.8 283.4,88.5 283.3,88.5 283.3,105.8 274.3,105.8 
		274.3,73.2 283.3,73.2 283.3,87.5 283.4,87.5 	"/>
	<path d="M340.1,73.2v20.6c-0.1,9.1-7.3,12.6-15.6,12.6c-8.2,0-15.5-3.6-15.6-12.6V73.2h9v20.2c0.1,4.1,2.3,6.8,6.5,6.8
		s6.4-2.6,6.5-6.8V73.2L340.1,73.2L340.1,73.2z"/>
	<polygon points="346.3,105.8 346.3,73.2 355.4,73.2 355.4,99.5 370.1,99.5 370.1,105.8 	"/>
	<polygon points="374,105.8 374,73.2 398.8,73.2 398.8,79.5 383,79.5 383,86.3 397.5,86.3 397.5,92.6 383,92.6 383,99.5 398.8,99.5 
		398.8,105.8 	"/>
	<path d="M421.4,82.8c0-1.3-0.4-2.2-1.2-2.9c-0.8-0.7-1.9-1-3.5-1c-2.1,0-3.9,1.4-3.9,3c0,2.4,2.9,3.2,5.3,3.8
		c5.5,1.4,13.4,1.9,13.4,10.7c0,6.9-6.8,10.1-14.3,10.1c-7.6,0-14.2-2.2-14.4-11h9c0,3.1,2.2,4.7,5.5,4.7c2.1,0,4.7-1.1,4.7-3.2
		c0-4.4-6.7-3.5-13.7-6.6c-3.3-1.4-4.9-4.4-4.9-7.9c0.4-7.7,7.1-9.8,13.9-9.8c6.7,0,13.6,2.4,13.1,10.2h-9V82.8z"/>
	<path class="st2" d="M23.6,81.2c-0.9-2.1-3.7-2.4-7-2.3c-1.7,0-3,0-3,0v7.9c3.5-0.2,7.1,0.9,9.4-1.5C24,84.3,24.1,82.5,23.6,81.2
		L23.6,81.2L23.6,81.2z M24.2,93.6c-2-3.2-7.3-2.1-10.5-2.2v8.5c2.7-0.1,5.8,0.3,8.3-0.3c1-0.5,2-1.3,2.5-2.4
		C24.8,96,24.7,94.6,24.2,93.6L24.2,93.6L24.2,93.6z M26.6,73.7c2.7,0.9,5.2,3.4,5.7,6.2c0.6,3-0.7,5.6-3.1,7.3
		c-1,0.6-2.1,1-3.2,1.4v0.2c2.8,0.3,5.5,2,6.9,4.6c1.2,2.8,0.6,5.4-0.8,7.9c-2.9,3.7-7.3,4.5-12,4.3H4.2V72.8
		C11.8,73,21,72.3,26.6,73.7L26.6,73.7L26.6,73.7z"/>
	<path class="st3" d="M109.9,82.8c2.8,0,5-2.3,5-5c0-2.8-2.2-5-5-5s-5,2.3-5,5C104.9,80.6,107.1,82.8,109.9,82.8L109.9,82.8
		L109.9,82.8z"/>
	<path class="st2" d="M108.8,77.4v-1.9h1.6c0.7,0,1.4,0.1,1.4,0.9c0,1.1-1.1,0.9-1.9,0.9h-1.1V77.4L108.8,77.4z M108.8,78.1h1.2
		l1.6,2.6h0.8l-1.7-2.6c1-0.1,1.8-0.5,1.8-1.6c0-1-0.5-1.6-2-1.6H108v5.7h0.7L108.8,78.1L108.8,78.1L108.8,78.1z"/>
	<path class="st0" d="M47.8,73.1l0.1,15.2c0,0,7.6-10.2,11.2-15.1h10.6l-11.9,15l12.5,18H58.9c0,0-10.9-17.3-11-17.2
		c0,6.1,0,17.1,0,17.1h-9.7V73.2h9.6V73.1L47.8,73.1z"/>
	<path class="st0" d="M83,73.1v15.4l11.6-15.3h10.7L93.1,88.3c3.9,6.1,12.3,17.9,12.3,17.9H94c0,0-10.9-17-11-17v16.9h-9.5V73.2
		L83,73.1L83,73.1L83,73.1z"/>
	<polygon class="st4" points="116.3,60.5 175.1,2 175.2,60.6 116.5,119.2 116.5,60.7 58.9,60.7 0,1.8 57.6,1.8 116.3,60.5 	"/>
	<polygon class="st4" points="116.6,177.2 58.7,177.2 58.7,119.2 116.6,119.2 116.6,177.2 	"/>
</g>
</svg>
