<svg xmlns="http://www.w3.org/2000/svg" xmlns:xlink="http://www.w3.org/1999/xlink" width="190.611" height="41.069" viewBox="0 0 190.611 41.069">
  <defs>
    <clipPath id="clip-path">
      <rect id="Rechteck_3" data-name="Rechteck 3" width="190.611" height="41.069" fill="none"/>
    </clipPath>
  </defs>
  <g id="Gruppe_3" data-name="Gruppe 3" transform="translate(0 0)">
    <path id="Pfad_1" data-name="Pfad 1" d="M2.025.214.884,5.575H23.331L.214,35.589v5.024H31.17l1.136-5.36H7.653L30.7,5.241V.214Z" transform="translate(0.119 0.119)" fill="#110450"/>
    <path id="Pfad_2" data-name="Pfad 2" d="M24.18.214v40.4h6.3V22.859H49.37l1.141-5.36H30.477V5.575h20.9L52.519.214Z" transform="translate(13.406 0.119)" fill="#110450"/>
    <g id="Gruppe_2" data-name="Gruppe 2" transform="translate(0 0)">
      <g id="Gruppe_1" data-name="Gruppe 1" clip-path="url(#clip-path)">
        <path id="Pfad_3" data-name="Pfad 3" d="M46.1.214H65.73c4.489,0,7.772.805,9.782,2.479,2.077,1.676,3.081,4.155,3.081,7.572v.6c0,4.153-1.741,6.967-5.293,8.374a9.738,9.738,0,0,1,4.758,3.216,9.9,9.9,0,0,1,1.674,6.03v1.006c0,3.886-1.273,6.7-3.752,8.509q-3.717,2.614-10.853,2.613H46.032V.214Zm9.246,7.169v8.778h8.308a6.62,6.62,0,0,0,4.153-1.006,3.957,3.957,0,0,0,1.206-3.216v-.67a3.64,3.64,0,0,0-1.139-2.947,6.113,6.113,0,0,0-3.819-.939H55.345Zm0,26.063H64.39c2.144,0,3.617-.334,4.489-1.006s1.273-1.875,1.273-3.684V28.02c0-1.809-.469-3.082-1.341-3.752a7.93,7.93,0,0,0-4.623-1.073H55.345V33.446Z" transform="translate(25.521 0.119)" fill="#fc0d78"/>
      </g>
    </g>
    <path id="Pfad_4" data-name="Pfad 4" d="M96.027.214,81.355,16.829V.214H71.506v40.4h9.849V23.194L96.7,40.613h12.729L90.2,19.308,107.418.214Z" transform="translate(39.645 0.119)" fill="#fc0d78"/>
    <path id="Pfad_5" data-name="Pfad 5" d="M122.559.214,107.886,16.829V.214H97.971v40.4h9.916V23.194l15.341,17.419h12.729l-19.3-21.3L133.883.214Z" transform="translate(54.317 0.119)" fill="#fc0d78"/>
  </g>
</svg>
