<?xml version="1.0" encoding="UTF-8" standalone="no"?>
<!-- Created with Inkscape (http://www.inkscape.org/) -->
<svg
   xmlns:svg="http://www.w3.org/2000/svg"
   xmlns="http://www.w3.org/2000/svg"
   version="1.0"
   width="1133.8583"
   height="255.1181"
   id="svg2">
  <defs
     id="defs4" />
  <g
     transform="translate(391.49609,76.99059)"
     id="layer1">
    <g
       transform="translate(-467.9848,-196.79839)"
       id="g2428"
       style="fill:#0002a6;fill-opacity:1">
      <g
         id="g2971"
         style="fill:#0002a6;fill-opacity:1">
        <path
           d="M 144.07503,257.05785 C 140.58291,258.38431 135.97412,258.64825 131.39241,258.64825 L 111.9218,258.64825 L 111.9218,205.97543 L 132.482,205.97543 C 141.63867,205.97543 151.39089,208.89907 151.91877,219.02351 C 151.91877,225.67614 147.60099,229.66907 141.93644,231.51664 C 146.25422,232.58593 149.73957,233.91917 152.18271,237.91209 C 154.35513,241.35007 154.35513,246.15512 152.74442,249.62694 C 150.82917,253.32209 148.12887,255.72462 144.07503,257.05785 z M 132.482,213.96129 L 121.93796,213.96129 L 121.93796,227.78765 L 132.74594,227.78765 C 138.14655,227.78765 141.11079,225.37836 141.11079,220.87109 C 141.11079,216.87816 137.88937,213.96129 132.482,213.96129 z M 133.53099,235.50957 L 121.93796,235.50957 L 121.93796,250.96017 L 133.27382,250.96017 C 140.58291,250.96017 142.9922,247.48159 142.9922,242.97432 C 142.9922,239.5025 140.58291,235.50957 133.53099,235.50957"
           id="path2448"
           style="fill:#0002a6;fill-opacity:1;fill-rule:evenodd;stroke:none" />
        <path
           d="M 170.002,236.57886 C 170.29978,231.77381 172.7023,227.26654 178.40745,227.26654 C 183.80806,227.26654 186.50836,231.25947 186.21058,236.57886 L 170.002,236.57886 z M 178.67139,221.12826 C 164.60139,221.12826 159.76251,231.00229 159.76251,240.31462 C 159.76251,250.96017 165.16311,259.46037 177.31786,259.71754 C 187.03624,259.71754 195.40109,257.05785 195.96281,246.96724 L 186.21058,246.96724 C 186.21058,250.66239 182.71846,253.61987 178.67139,253.61987 C 171.91725,253.61987 169.73806,248.55765 169.73806,242.97431 L 196.75462,242.67654 C 197.58028,231.77381 192.70079,221.12826 178.67139,221.12826"
           id="path2454"
           style="fill:#0002a6;fill-opacity:1;fill-rule:evenodd;stroke:none" />
        <path
           d="M 208.38149,222.46149 L 208.38149,216.62099 L 218.09987,211.55876 L 218.09987,222.46149 L 227.55432,222.46149 L 227.55432,229.66906 L 218.09987,229.66906 L 218.09987,247.22442 C 218.09987,250.6624 219.45341,252.80775 223.24331,252.80775 C 224.59007,252.80775 225.94361,253.06492 227.81826,252.55058 L 227.81826,258.64825 C 222.97937,259.46037 217.27422,260.78684 212.69927,258.38431 C 209.17331,256.53674 208.38149,253.06492 208.38149,248.29371 L 208.38149,229.66906 L 200.28058,229.66906 L 200.28058,222.46149 L 208.38149,222.46149"
           id="path2460"
           style="fill:#0002a6;fill-opacity:1;fill-rule:evenodd;stroke:none" />
        <path
           d="M 236.74482,258.64825 L 236.74482,222.20431 L 246.99108,222.20431 L 246.99108,228.85694 C 249.17027,223.79472 253.48128,221.39219 259.70754,221.94714 L 259.70754,230.1834 C 251.87058,229.37128 246.99108,233.10704 246.99108,240.01684 L 246.99108,258.64825 L 236.74482,258.64825"
           id="path2466"
           style="fill:#0002a6;fill-opacity:1;fill-rule:evenodd;stroke:none" />
        <path
           d="M 267.24673,214.21846 L 267.24673,205.97543 L 277.5336,205.97543 L 277.5336,214.21846 L 267.24673,214.21846 z M 267.24673,258.64825 L 267.24673,222.20432 L 277.5336,222.20432 L 277.5336,258.64825 L 267.24673,258.64825"
           id="path2472"
           style="fill:#0002a6;fill-opacity:1;fill-rule:evenodd;stroke:none" />
        <path
           d="M 296.44249,236.57886 C 296.69966,231.77381 299.14279,227.26654 304.5434,227.26654 C 309.944,227.26654 312.65107,231.25947 312.38713,236.57886 L 296.44249,236.57886 z M 305.07128,221.12826 C 290.77795,221.12826 285.89845,231.00229 285.89845,240.31462 C 285.89845,250.96017 291.563,259.46037 303.71774,259.71754 C 313.17219,259.71754 321.84158,257.05785 322.36946,246.96724 L 312.38713,246.96724 C 312.38713,250.66239 309.12511,253.61987 305.07128,253.61987 C 298.31714,253.61987 296.17855,248.55765 295.91461,242.97431 L 323.19511,242.67654 C 323.98016,231.77381 319.14128,221.12826 305.07128,221.12826"
           id="path2478"
           style="fill:#0002a6;fill-opacity:1;fill-rule:evenodd;stroke:none" />
        <path
           d="M 348.5942,253.06492 C 341.84006,252.80775 340.18875,245.89795 340.18875,240.31462 C 340.18875,234.43351 341.84006,227.78765 348.85814,227.78765 C 356.69511,227.78765 358.04864,234.43351 358.04864,240.31462 C 358.31258,246.96724 356.95905,253.61987 348.5942,253.06492 z M 351.2945,221.12826 C 346.41501,221.12826 343.19359,222.71866 340.48652,226.45442 L 340.48652,205.97543 L 330.20642,205.97543 L 330.20642,258.64825 L 340.18875,258.64825 L 340.75046,253.06492 C 343.19359,257.86997 348.02572,259.71755 352.90521,259.71755 C 364.24107,259.71755 368.55208,250.40522 368.28814,241.0929 C 368.03097,230.70452 363.15147,221.12826 351.2945,221.12826"
           id="path2484"
           style="fill:#0002a6;fill-opacity:1;fill-rule:evenodd;stroke:none" />
        <path
           d="M 407.72338,243.23148 C 409.37469,246.41229 409.37469,250.40522 407.1955,253.32208 C 403.66954,258.64825 396.13035,259.98148 390.16126,259.71754 C 382.06035,259.2032 374.51439,257.05784 374.7851,247.48158 L 385.05843,247.48158 C 385.05843,251.47451 387.46096,253.06491 391.5148,253.32208 C 395.30469,253.32208 398.83065,251.99562 398.83065,248.55764 C 398.83065,246.15512 396.39429,245.07906 392.86156,244.30754 C 389.11227,243.49542 386.41197,243.23148 382.06035,241.35007 C 378.83217,239.75966 375.30621,237.09997 375.30621,232.03098 C 375.30621,227.78764 378.83217,224.60684 383.14318,222.71865 C 386.11419,221.39219 389.64015,221.12825 392.86156,221.12825 C 399.92025,221.12825 407.72338,223.53078 407.1955,232.32875 L 397.74106,232.32875 C 397.74106,231.00229 397.47712,229.66906 396.13035,228.593 C 394.2151,226.71158 387.7655,226.71158 385.85025,229.66906 C 383.41389,234.69744 390.46581,235.25239 398.005,237.09997 C 402.88449,238.16926 406.10591,240.31461 407.72338,243.23148"
           id="path2490"
           style="fill:#0002a6;fill-opacity:1;fill-rule:evenodd;stroke:none" />
        <path
           d="M 443.13863,258.64825 L 427.45792,237.91209 L 441.48732,222.46149 L 453.64883,222.46149 L 439.09156,237.65492 L 456.34913,258.64825 L 443.13863,258.64825 z M 416.91389,258.64825 L 416.91389,205.97543 L 427.19399,205.97543 L 427.19399,258.64825 L 416.91389,258.64825"
           id="path2496"
           style="fill:#0002a6;fill-opacity:1;fill-rule:evenodd;stroke:none" />
        <path
           d="M 462.31146,258.64825 L 462.31146,222.20431 L 472.29378,222.20431 L 472.29378,228.85694 C 474.46621,223.79472 478.78398,221.39219 485.01025,221.94714 L 485.01025,230.1834 C 477.16651,229.37128 472.29378,233.10704 472.29378,240.01684 L 472.29378,258.64825 L 462.31146,258.64825"
           id="path2502"
           style="fill:#0002a6;fill-opacity:1;fill-rule:evenodd;stroke:none" />
        <path
           d="M 504.97489,253.32209 C 501.21883,253.06492 499.03964,251.21734 499.03964,248.0027 C 499.03964,240.31462 509.02196,241.0929 514.16539,241.0929 C 514.42933,247.22441 513.90145,253.32209 504.97489,253.32209 z M 523.88378,232.32876 C 523.88378,224.86401 515.7761,221.12826 506.32166,221.12826 C 497.17176,221.39219 490.68156,224.3429 490.68156,232.84987 L 500.39317,232.84987 C 500.12923,228.85694 503.09348,226.71159 506.61944,226.71159 C 512.29075,226.71159 514.72711,229.37128 514.16539,235.50957 C 508.75802,235.76674 501.48277,235.2524 495.81822,237.91209 C 492.02833,239.75967 489.06408,243.23149 489.06408,248.55765 C 489.06408,255.46744 493.90297,259.71754 501.21883,259.98148 C 506.32166,260.52966 512.29075,258.12714 514.72711,253.32209 L 514.99105,258.64825 L 523.88378,258.64825 C 523.88378,249.89088 523.88378,241.35007 523.88378,232.32876"
           id="path2508"
           style="fill:#0002a6;fill-opacity:1;fill-rule:evenodd;stroke:none" />
        <path
           d="M 534.16387,222.46149 L 544.44397,222.46149 L 544.44397,228.33583 C 547.14427,223.53078 552.2471,221.3922 557.64771,221.3922 C 563.88074,221.3922 570.107,224.86401 570.107,233.66199 L 570.107,258.64825 L 559.8269,258.64825 L 559.8269,236.57886 C 560.08407,231.77381 557.64771,228.33583 552.80882,228.33583 C 548.19326,228.33583 544.44397,231.25947 544.44397,237.91209 L 544.44397,258.64825 L 534.16387,258.64825 L 534.16387,222.46149"
           id="path2514"
           style="fill:#0002a6;fill-opacity:1;fill-rule:evenodd;stroke:none" />
        <path
           d="M 606.57124,258.64825 L 590.89053,237.91209 L 605.22447,222.46149 L 617.08144,222.46149 L 602.52417,237.65492 L 619.78174,258.64825 L 606.57124,258.64825 z M 580.61043,258.64825 L 580.61043,205.97543 L 590.6266,205.97543 L 590.6266,258.64825 L 580.61043,258.64825"
           id="path2520"
           style="fill:#0002a6;fill-opacity:1;fill-rule:evenodd;stroke:none" />
        <path
           d="M 632.49821,236.57886 C 632.76215,231.77381 635.19851,227.26654 640.86306,227.26654 C 645.74255,227.26654 648.44285,231.25947 648.44285,236.57886 L 632.49821,236.57886 z M 641.127,221.12826 C 626.83367,221.12826 621.95417,231.00229 621.95417,240.31462 C 621.95417,250.96017 627.61872,259.46037 639.78023,259.71754 C 648.97073,259.71754 657.59952,257.05785 658.16124,246.96724 L 648.44285,246.96724 C 648.44285,250.66239 644.9169,253.61987 641.127,253.61987 C 634.37286,253.61987 632.23427,248.55765 632.23427,242.97431 L 658.95306,242.67654 C 659.77194,231.77381 654.89922,221.12826 641.127,221.12826"
           id="path2526"
           style="fill:#0002a6;fill-opacity:1;fill-rule:evenodd;stroke:none" />
        <path
           d="M 667.05396,222.46149 L 677.33406,222.46149 L 677.33406,228.33583 C 680.03436,223.53078 684.91386,221.3922 690.5784,221.3922 C 696.77083,221.3922 702.99709,224.86401 702.99709,233.66199 L 702.99709,258.64825 L 692.71699,258.64825 L 692.71699,236.57886 C 692.71699,231.77381 690.5784,228.33583 685.69891,228.33583 C 681.12396,228.33583 677.33406,231.25947 677.33406,237.91209 L 677.33406,258.64825 L 667.05396,258.64825 L 667.05396,222.46149"
           id="path2532"
           style="fill:#0002a6;fill-opacity:1;fill-rule:evenodd;stroke:none" />
        <path
           d="M 739.46809,258.64825 L 723.78062,237.91209 L 737.85062,222.46149 L 750.01213,222.46149 L 735.41425,237.65492 L 752.71243,258.64825 L 739.46809,258.64825 z M 713.27718,258.64825 L 713.27718,205.97543 L 723.52345,205.97543 L 723.52345,258.64825 L 713.27718,258.64825"
           id="path2538"
           style="fill:#0002a6;fill-opacity:1;fill-rule:evenodd;stroke:none" />
        <path
           d="M 771.62132,253.32209 C 767.83142,253.06492 765.65223,251.21734 765.65223,248.0027 C 765.65223,240.31462 775.66839,241.0929 780.81182,241.0929 C 781.07576,247.22441 780.51405,253.32209 771.62132,253.32209 z M 790.53021,232.32876 C 790.53021,224.86401 782.4293,221.12826 772.96809,221.12826 C 763.77758,221.39219 757.28738,224.3429 757.02344,232.84987 L 767.00576,232.84987 C 766.74183,228.85694 769.70607,226.71159 773.23203,226.71159 C 778.63263,226.71159 781.3397,229.37128 780.81182,235.50957 C 775.10667,235.76674 767.83142,235.2524 762.42405,237.91209 C 758.64092,239.75967 755.41274,243.23149 755.41274,248.55765 C 755.41274,255.46744 760.55617,259.71754 767.83142,259.98148 C 772.96809,260.52966 778.89657,258.12714 781.3397,253.32209 L 781.59687,258.64825 L 790.53021,258.64825 C 790.53021,249.89088 790.53021,241.35007 790.53021,232.32876"
           id="path2544"
           style="fill:#0002a6;fill-opacity:1;fill-rule:evenodd;stroke:none" />
        <path
           d="M 831.04828,243.23148 C 832.66575,246.41229 832.40182,250.40522 830.48656,253.32208 C 826.99444,258.64825 819.42141,259.98148 813.49293,259.71754 C 805.12131,259.2032 797.81222,257.05784 798.06939,247.48158 L 808.34949,247.48158 C 808.08556,251.47451 810.79263,253.06491 814.8397,253.32208 C 818.33182,253.32208 822.12172,251.99562 822.12172,248.55764 C 822.12172,246.15512 819.42141,245.07906 816.19323,244.30754 C 812.40333,243.49542 809.70303,243.23148 805.38525,241.35007 C 801.85929,239.75966 798.63111,237.09997 798.63111,232.03098 C 798.63111,227.78764 801.85929,224.60684 806.47485,222.71865 C 809.43909,221.39219 812.93121,221.12825 816.19323,221.12825 C 823.21131,221.12825 830.79111,223.53078 830.48656,232.32875 L 820.76818,232.32875 C 820.76818,231.00229 820.50424,229.66906 819.42141,228.593 C 817.28283,226.71158 811.0498,226.71158 808.87737,229.66906 C 806.73879,234.69744 813.7501,235.25239 821.3299,237.09997 C 826.17555,238.16926 829.43757,240.31461 831.04828,243.23148"
           id="path2550"
           style="fill:#0002a6;fill-opacity:1;fill-rule:evenodd;stroke:none" />
        <path
           d="M 869.95565,243.23148 C 871.57312,246.41229 871.57312,250.40522 869.65787,253.32208 C 866.16575,258.64825 858.58595,259.98148 852.66424,259.71754 C 844.29262,259.2032 836.71283,257.05784 837.2407,247.48158 L 847.25686,247.48158 C 847.25686,251.47451 849.95717,253.06491 853.74707,253.32208 C 857.50313,253.32208 861.29302,251.99562 861.29302,248.55764 C 861.29302,246.15512 858.58595,245.07906 855.35777,244.30754 C 851.57464,243.49542 848.6104,243.23148 844.55656,241.35007 C 841.0306,239.75966 837.80242,237.09997 837.80242,232.03098 C 837.80242,227.78764 841.0306,224.60684 845.34161,222.71865 C 848.34646,221.39219 852.09575,221.12825 855.1006,221.12825 C 862.37585,221.12825 869.95565,223.53078 869.39393,232.32875 L 859.93949,232.32875 C 859.93949,231.00229 859.67555,229.66906 858.58595,228.593 C 856.44737,226.71158 849.95717,226.71158 848.04868,229.66906 C 845.9101,234.69744 852.66424,235.25239 860.50121,237.09997 C 865.34009,238.16926 868.60888,240.31461 869.95565,243.23148"
           id="path2556"
           style="fill:#0002a6;fill-opacity:1;fill-rule:evenodd;stroke:none" />
        <path
           d="M 886.94929,236.57886 C 887.22,231.77381 889.65636,227.26654 895.32091,227.26654 C 900.72151,227.26654 903.42181,231.25947 903.15787,236.57886 L 886.94929,236.57886 z M 895.61868,221.12826 C 881.54868,221.12826 876.7098,231.00229 876.7098,240.31462 C 876.7098,250.96017 882.11717,259.46037 894.27192,259.71754 C 903.9903,259.71754 912.35515,257.05785 912.87626,246.96724 L 903.15787,246.96724 C 903.15787,250.66239 899.67252,253.61987 895.61868,253.61987 C 888.86454,253.61987 886.69212,248.55765 886.69212,242.97431 L 913.70191,242.67654 C 914.52757,231.77381 909.65484,221.12826 895.61868,221.12826"
           id="path2562"
           style="fill:#0002a6;fill-opacity:1;fill-rule:evenodd;stroke:none" />
        <path
           d="M 1174.9139,338.48652 L 989.34422,338.48652 L 989.34422,155.15694 L 1174.9139,155.15694 L 1174.9139,338.48652 z M 1102.2764,198.51068 L 1029.5984,294.3139 L 1062.5434,294.3139 L 1135.2147,198.51068 L 1102.2764,198.51068 z M 1015.2712,180.43421 L 1015.2712,312.94531 L 1149.2509,312.94531 L 1149.2509,180.43421 L 1015.2712,180.43421"
           id="path2568"
           style="fill:#0002a6;fill-opacity:1;fill-rule:evenodd;stroke:none" />
        <path
           d="M 129.7817,338.22258 L 112.21958,338.22258 L 112.21958,285.25875 L 129.7817,285.25875 C 148.69059,285.25875 158.67291,294.3139 158.67291,311.61208 C 158.67291,328.91026 150.30129,338.22258 129.7817,338.22258 z M 128.42816,293.24461 L 122.72978,293.24461 L 122.72978,330.24349 L 128.42816,330.24349 C 142.9922,330.50066 147.86493,323.33369 147.86493,311.87602 C 147.86493,298.86178 140.85362,293.24461 128.42816,293.24461"
           id="path2574"
           style="fill:#0002a6;fill-opacity:1;fill-rule:evenodd;stroke:none" />
        <path
           d="M 174.88149,315.86218 C 175.13866,311.09774 177.58179,306.54986 182.9824,306.54986 C 188.383,306.54986 191.09007,310.54279 190.82613,315.86218 L 174.88149,315.86218 z M 183.51028,300.45218 C 169.21695,300.45218 164.33745,310.27885 164.33745,319.59794 C 164.33745,330.50066 170.002,339.04147 182.15674,339.29864 C 191.61119,339.29864 200.28058,336.63895 200.80846,326.25056 L 190.82613,326.25056 C 190.82613,330.24349 187.55735,333.16036 183.51028,333.16036 C 176.75614,333.16036 174.61755,328.13198 174.35361,322.00046 L 201.62735,322.00046 C 202.41916,311.09774 197.58028,300.45218 183.51028,300.45218"
           id="path2580"
           style="fill:#0002a6;fill-opacity:1;fill-rule:evenodd;stroke:none" />
        <path
           d="M 245.11643,338.22258 L 235.13411,338.22258 L 234.83633,332.38208 C 233.21886,336.89612 228.64391,339.55581 222.68158,339.55581 C 215.92744,339.55581 209.47108,335.30571 209.1733,325.47228 L 209.1733,301.78541 L 219.71734,301.78541 L 219.71734,324.13905 C 219.4534,329.46521 221.62583,332.38208 226.72865,332.38208 C 231.34421,332.38208 234.83633,329.72238 234.83633,322.81258 L 234.83633,301.78541 L 245.11643,301.78541 L 245.11643,338.22258"
           id="path2586"
           style="fill:#0002a6;fill-opacity:1;fill-rule:evenodd;stroke:none" />
        <path
           d="M 258.36077,301.78542 L 258.36077,295.90431 L 268.33632,290.87593 L 268.33632,301.78542 L 277.79754,301.78542 L 277.79754,308.95239 L 268.33632,308.95239 L 268.33632,326.50774 C 268.33632,330.2435 269.42592,332.38208 273.21582,332.38208 C 274.56935,332.38208 275.91612,332.64602 277.79754,332.13168 L 277.79754,338.22259 C 272.95188,339.04148 267.24673,340.36794 262.67178,337.70824 C 259.14582,336.11784 258.36077,332.64602 258.36077,327.5838 L 258.36077,308.95239 L 250.25309,308.95239 L 250.25309,301.78542 L 258.36077,301.78542"
           id="path2592"
           style="fill:#0002a6;fill-opacity:1;fill-rule:evenodd;stroke:none" />
        <path
           d="M 316.17703,322.51481 C 317.78774,325.73622 317.78774,329.98632 315.87925,332.90319 C 312.38713,338.22259 304.80733,339.55582 298.87885,339.29865 C 290.514,338.77754 282.93421,336.63895 283.46208,326.80552 L 293.47824,326.80552 C 293.47824,331.05562 296.17855,332.64602 299.96845,332.90319 C 303.71774,332.90319 307.50764,331.56996 307.50764,328.13198 C 307.50764,325.47228 304.80733,324.40299 301.57915,323.59087 C 297.78925,322.81259 295.08895,322.51481 290.77794,320.66723 C 287.25198,319.07683 284.0238,316.41713 284.0238,311.35491 C 284.0238,307.10481 287.25198,303.89017 291.56299,302.04259 C 294.56107,300.70936 298.31713,300.45219 301.57915,300.45219 C 308.59723,300.45219 316.17703,302.85471 315.61531,311.61208 L 306.16087,311.61208 C 306.16087,310.27885 305.89693,308.95239 304.80733,307.88309 C 302.66875,306.03552 296.17855,306.03552 294.2633,308.95239 C 292.12471,314.01461 298.87885,314.53572 306.72259,316.41713 C 311.56147,317.49319 314.82349,319.59794 316.17703,322.51481"
           id="path2598"
           style="fill:#0002a6;fill-opacity:1;fill-rule:evenodd;stroke:none" />
        <path
           d="M 341.53551,300.18824 C 349.64319,300.18824 358.31258,303.89016 358.31258,314.0146 L 348.28965,314.0146 C 348.28965,309.20955 345.58935,306.29268 340.75046,306.54986 C 339.39692,306.54986 338.05016,307.1048 336.96056,307.61915 C 333.99632,309.50733 332.90672,314.27177 332.90672,319.34076 C 332.90672,324.40298 334.26026,329.46521 336.43945,331.31278 C 338.05016,332.90319 340.75046,333.16036 343.19359,332.90319 C 347.24066,332.13167 348.28965,328.39591 348.28965,325.18127 L 358.31258,324.91733 C 358.31258,335.56288 349.64319,339.55581 340.48652,339.29864 C 328.33177,338.77753 322.93117,331.05561 322.93117,319.59793 C 322.93117,307.88309 329.67854,300.18824 341.53551,300.18824"
           id="path2604"
           style="fill:#0002a6;fill-opacity:1;fill-rule:evenodd;stroke:none" />
        <path
           d="M 366.14955,285.25875 L 376.39581,285.25875 L 376.39581,307.36198 C 379.09611,302.85471 383.14318,300.70935 388.55056,300.70935 C 395.3047,300.70935 401.7949,305.77158 401.7949,312.94531 L 401.7949,338.22258 L 391.81258,338.22258 L 391.81258,315.86218 C 391.81258,310.8338 389.64015,307.61915 384.76066,307.61915 C 380.18571,307.61915 376.13187,310.54279 376.13187,317.19541 L 376.13187,338.22258 L 366.14955,338.22258 L 366.14955,285.25875"
           id="path2610"
           style="fill:#0002a6;fill-opacity:1;fill-rule:evenodd;stroke:none" />
        <path
           d="M 420.17591,315.86218 C 420.43985,311.09774 422.88298,306.54986 428.54753,306.54986 C 433.94813,306.54986 436.64843,310.54279 436.38449,315.86218 L 420.17591,315.86218 z M 428.8047,300.45218 C 414.7753,300.45218 409.63864,310.27885 409.63864,319.59794 C 409.63864,330.50066 415.30318,339.04147 427.45793,339.29864 C 437.17631,339.29864 445.54116,336.63895 446.10288,326.25056 L 436.38449,326.25056 C 436.38449,330.24349 432.85853,333.16036 428.8047,333.16036 C 422.05732,333.16036 419.87813,328.13198 419.87813,322.00046 L 446.89469,322.00046 C 447.72035,311.09774 442.84086,300.45218 428.8047,300.45218"
           id="path2616"
           style="fill:#0002a6;fill-opacity:1;fill-rule:evenodd;stroke:none" />
        <path
           d="M 510.37549,336.63895 C 506.88337,337.70824 502.26781,338.22259 497.42893,338.22259 L 478.2561,338.22259 L 478.2561,285.25875 L 498.78246,285.25875 C 507.97297,285.25875 517.69135,288.21623 518.21923,298.30683 C 518.21923,304.95946 513.90145,308.95239 508.2369,310.8338 C 512.55468,311.87602 516.08064,313.20249 518.4764,317.19542 C 520.65559,320.66723 520.65559,325.47228 519.04488,329.16744 C 517.12963,332.90319 514.42933,335.30572 510.37549,336.63895 z M 498.78246,293.24461 L 488.23842,293.24461 L 488.23842,307.10481 L 499.03963,307.10481 C 504.44701,307.10481 507.41125,304.70229 507.41125,300.18825 C 507.41125,296.20209 504.18307,293.24461 498.78246,293.24461 z M 499.87206,314.82673 L 488.23842,314.82673 L 488.23842,330.50067 L 499.56751,330.50067 C 506.88337,330.50067 509.3265,326.80552 509.3265,322.25764 C 509.3265,318.81966 506.88337,314.82673 499.87206,314.82673"
           id="path2622"
           style="fill:#0002a6;fill-opacity:1;fill-rule:evenodd;stroke:none" />
        <path
           d="M 542.79266,332.90319 C 539.0366,332.64602 536.86418,330.79844 536.86418,327.31986 C 536.86418,319.59794 546.83973,320.41006 551.98316,320.41006 C 552.2471,326.50774 551.71922,332.90319 542.79266,332.90319 z M 561.70155,311.61208 C 561.70155,304.18117 553.59387,300.45218 543.87549,300.45218 C 534.98953,300.70936 528.49256,303.63299 528.23539,312.16703 L 538.21094,312.16703 C 537.95377,308.1741 540.65407,306.03552 544.44397,306.03552 C 549.84458,306.03552 552.2471,308.43127 551.71922,314.82673 C 546.31862,315.09067 539.0366,314.53572 533.63599,317.19541 C 529.8461,319.07683 526.58408,322.51481 526.58408,327.84097 C 526.58408,335.04854 531.72074,339.29864 539.0366,339.55582 C 544.1462,339.81299 550.10852,337.70824 552.54488,332.90319 L 552.80882,338.22258 L 561.70155,338.22258 C 561.70155,329.46521 561.70155,320.66723 561.70155,311.61208"
           id="path2628"
           style="fill:#0002a6;fill-opacity:1;fill-rule:evenodd;stroke:none" />
        <path
           d="M 571.45377,301.78542 L 581.70003,301.78542 L 581.70003,307.61916 C 584.40033,302.85471 589.537,300.70936 594.94437,300.70936 C 601.17064,300.70936 607.36306,304.18118 607.36306,312.94532 L 607.36306,338.22259 L 597.1168,338.22259 L 597.1168,315.86219 C 597.38074,311.09774 594.94437,307.61916 590.06488,307.61916 C 585.48993,307.61916 581.70003,310.54279 581.70003,317.19542 L 581.70003,338.22259 L 571.45377,338.22259 L 571.45377,301.78542"
           id="path2634"
           style="fill:#0002a6;fill-opacity:1;fill-rule:evenodd;stroke:none" />
        <path
           d="M 643.04225,338.22258 L 627.88266,317.19541 L 641.95265,301.78541 L 653.85023,301.78541 L 639.25235,316.93824 L 656.24599,338.22258 L 643.04225,338.22258 z M 617.37922,338.22258 L 617.37922,285.25875 L 627.36154,285.25875 L 627.36154,338.22258 L 617.37922,338.22258"
           id="path2640"
           style="fill:#0002a6;fill-opacity:1;fill-rule:evenodd;stroke:none" />
        <path
           d="M 721.64203,338.22258 L 716.7693,326.50773 L 693.01476,326.50773 L 688.96769,338.22258 L 677.86193,338.22258 L 698.42213,285.25875 L 712.18759,285.25875 L 732.97789,338.22258 L 721.64203,338.22258 z M 704.87173,292.98743 L 696.24294,318.52188 L 713.80506,318.52188 L 704.87173,292.98743"
           id="path2646"
           style="fill:#0002a6;fill-opacity:1;fill-rule:evenodd;stroke:none" />
        <path
           d="M 759.72375,284.2233 C 773.49597,284.2233 782.1586,288.99451 782.1586,301.78542 L 770.53173,301.78542 C 770.53173,294.86885 766.22072,291.91138 759.98769,291.91138 C 749.17971,291.91138 744.60476,301.52148 744.60476,312.16703 C 744.60476,328.91026 754.85102,335.04855 770.79567,330.50067 L 770.79567,318.00754 L 759.72375,318.00754 L 759.72375,309.76451 L 781.59688,309.76451 L 781.59688,336.37501 C 774.32163,338.48653 768.65708,339.55582 760.81335,339.55582 C 743.25799,339.29865 733.24183,330.2435 733.24183,311.87602 C 733.24183,294.86885 744.60476,283.93229 759.72375,284.2233"
           id="path2652"
           style="fill:#0002a6;fill-opacity:1;fill-rule:evenodd;stroke:none" />
      </g>
    </g>
  </g>
</svg>
