<svg xmlns="http://www.w3.org/2000/svg" xmlns:xlink="http://www.w3.org/1999/xlink" version="1.1" id="Ebene_1" x="0px" y="0px" viewBox="0 0 300 153" style="enable-background:new 0 0 300 153;" xml:space="preserve" width="300"  height="153" >
<style type="text/css">
	.st0{fill:#FFCC00;}
	.st1{fill:#004983;}
</style>
<g>
	<g>
		<path class="st0" d="M236.5,0h1.1c0.1,0.2,0.6,0.6,0.9,0.5v0.4c1.4-0.1,0.8,2,2.3,1.7c0.9,1.5,2.9,2.1,3.9,3.5v1.9    c0.4,0.2,0.9,0.3,1.2,0.8c0,0,0.5-0.2,0.4-0.7h1.8V7.7c-0.2-0.1-0.4-0.1-0.7-0.1c-0.1-0.3-0.2-0.4-0.5-0.5    c-0.3-1.2-0.7-0.5-0.7-1.5c0-1.3,1.5-1.5,2.3-1.5c0.2,0,2.1,0.4,2.4,1.2h0.5c0.1-0.1,0-0.2,0.3-0.2c0.7,0,0.8,0.9,1.2,0.9    c0.3,0,0.2-0.1,0.2-0.2h0.4c0.2,0.6,0.2,1.3,0.6,1.8c0.3-0.1,0.8-0.6,1.2-0.5c0.1-0.1,0.1-0.1,0.1-0.3c0-0.3-0.5-1.1-0.7-1.6    c0.1-0.1,0.5-0.4,0.5-0.7V3.1c-0.1-0.1-0.2,0-0.2-0.3c0-0.3,0.2-0.4,0.2-0.7c0.2,0,0.2,0.1,0.3,0.2c0.1-0.1,1.5-0.9,1.7-0.9    c0.3,0,0.5,0.2,0.8,0.2v1c0,0.3-0.2-0.1-0.2,0.2v0.4h0.9c-0.1,0.7,0.3,0.6,0.8,1.1h1.9c0.3,0-0.1,0.2,0.2,0.2c0,0,0.9,0,1.1-0.7    c0.5,0.2,0.9-0.3,1.4-0.5c0.3,0.2,0.6,0.7,0.8,0.7c0.2,0,0.7-0.5,0.9-0.5c0.5,0,2.3,0.9,2.3,1.3c0,0.3-0.1,0.3-0.2,0.7    c1.3,0.4,1.4,0.3,2.3,1v1.7c0,0.8,0.6,1.1,1.1,1.2v0.7h-0.4c-0.1,0.1-0.1,0.1-0.1,0.4c0,1.7,3.1,1.9,5.5,5v0.6h-0.4v2.3    c-0.4,0.2-0.9,1.6-0.9,1.7c0,0.8,2.1,4.6,3.7,5v1.5c1,0.9,1.6,2.2,2.9,2.9c1.3,0.5,2.4,1.2,3.7,1.8c0.4,0.5,0.4,1.3,1.1,1.4    c1,0.7,2.1,2.9,4,2.7c0.4,0.6,1.1,2,2.1,2.3v0.6c0.5,0.3,1.2,0.6,1.3,1h0.3c0.1-0.2,0.1-0.4,0.1-0.7h1.1c0.6,0.8,1.5,1.7,2.8,1.8    c0.2,0.4,0,1,0.7,0.9c0,0.7,0.4,1.3,0.9,1.9c0,0.4-0.2,0.4-0.2,0.7c0,0.3,0.2,0.4,0.5,0.5v1.5c0,0.1-0.5,1.2-0.5,1.3    c0,0.3,0.1,0.3,0.2,0.4v1.3c-0.5,0.2-1.3,0.7-1.6,0.7c-0.3,0-2.8-1-3.3-1.4h-0.5c-0.1,0.4-0.2,1.4-1,1.3v2.6    c0,0.9-0.9,1.5-0.9,2.6c-2.9,1.5-6.7,1.6-8.8,4.3c-0.6,0.1-1.8,1.3-1.8,1.8c0,0.3,0.2,0.5,0.2,0.7c0.2,0.1,0.4,0.1,0.7,0.1    c-0.2,1.7,1.8,2.4,2.5,3.5c0.3,0.3,0,1,0.7,0.9c-0.2,0.5,0.3,0.9,0.5,1.4c-0.6,0.7-0.8,1.7-1.4,2.3v0.3c1.6-0.3,2.5,1.3,2.8,2.7    c-0.4,0.6-0.6,3.4-1.8,3.4c-0.1,0-2.8-2.1-3.7-2.8c0.2-0.3,0.5-0.5,0.5-0.7c0-0.1-1-1-1.2-1h-1.4c-0.3,0,0.1-0.2-0.2-0.2h-0.6v0.9    c-0.4-0.1-1.1,0.1-1.1,0.7h-0.4c-0.4-0.7-0.6-1.3-1.3-1.8c-1,0-1.9,0.5-2.7,0.5c-0.3,0-0.7-0.2-0.9-0.5c0-0.1,0.1-0.2,0.2-0.3    v-0.4c-0.1,0.1-0.3,0.2-0.4,0.7c-0.3,0-0.5,0-0.7,0.1c0.1,0.2,0.2,0.3,0.2,0.6c0,0.3-0.2,0.4-0.2,0.7c0,0.3,0.2,0.3,0.2,0.4    c-0.5,0-1.1,0.1-2.7,0.2c-0.2,0-0.7-0.2-1-0.2c-0.3,0-3.5,0.9-3.8,0.9c-0.3,0-0.7-0.2-1-0.2c-0.3,0-0.5,0.2-0.8,0.2    c-0.3,0-0.3-0.1-0.4-0.2h-0.5c-0.3,0.7-0.1,1.8-1.1,2.1h-2.6c-0.1,0.4-0.1,0.9-0.1,1.3c-0.5,0.3-1,0.2-1.5,0.5    c-0.5,0.4-0.7,0.6-1,1.1h-0.4c0-0.2-0.1-0.2-0.2-0.2c0-0.2,0.1-0.2,0.2-0.3v-0.3c-0.2-0.1-0.3-0.1-0.6-0.1c-0.2,0-2.5,0.9-3.5,0.9    c-0.4-0.6-0.4-0.7-1.1-1.4c-0.3-0.5-0.3-1-1-1.1c0.2-0.4,0.6-0.6,0.9-0.8c-0.3-0.1-0.7-0.2-1-0.3c-0.5,0.6-0.6,0.7-1,0.7    c0,0-3.2-1.4-3.3-1.4c-0.1,0-0.8,0.1-0.9,0.7h-1.7V73c-0.5,0.2-0.8,0.4-0.8,0.8c0,0.3,0.5,0.9,0.5,1.3c0,0.3-0.2,0.7-0.2,1    c0,0.3,0.2,0.5,0.4,0.6c0.1,0.2-0.2,0.9,0.3,1.1v0.6c-1.2,0.9-3,2.5-3.9,3.9c-0.4-0.1-0.6-0.2-0.9-0.2v-0.9c0-0.3,0.2-0.1,0.2-0.4    c0-0.3-0.2-0.4-0.2-0.7c0-0.3,0.5-0.5,0.5-0.8c0-0.6-0.6-0.5-0.7-0.5c-0.3,0-0.7,0.2-1,0.5c-0.1-0.1-0.9-0.7-0.9-0.9    c0-0.3,0.2-0.4,0.2-0.7c0-0.4-0.7-1.6-1.3-1.6c-0.3,0-0.3,0.1-0.4,0.2c-1.2-1-2.1-1.8-3.4-1.8c0-0.3-0.2-0.5-0.3-0.7    c-0.4,0.2-1.4,0.4-1.3,1.1H228c-0.2-0.2-0.6-0.5-0.9-0.7V74c0.8-1.2,2.6-0.8,3.9-1.6h2.2c0.3-0.5,0.4-0.3,0.6-0.7h1.1    c0,0.3,0,0.5,0.1,0.7h0.3c0.1-0.2,0.1-0.4,0.1-0.7c0-0.3,0-0.6-0.2-0.9h0.6c0.1-0.2,0.1-0.3,0.1-0.6c0-0.9-0.3-0.7-0.9-1.1    c0.3-0.4,0.8-0.8,0.9-1.4c-0.1-0.3-0.7-0.8-1.1-0.6v-0.7c0.8-0.2,0.7-0.5,0.7-0.9c0-0.3-0.2-0.6-0.2-0.9c0-0.3,0.2-0.5,0.2-0.9    h0.4v-3.2c-0.1-0.1-0.2-0.2-0.4-0.3v-2c0-0.8-1-2.6-1.6-3.1v-1.5c0.7-2.3,4.1-0.9,4.8-3c0.2-0.1,0.7,0,1.1-0.3    c-0.1-0.2-0.2-0.3-0.5-0.4v-1.9c-0.8-0.3-0.7-0.3-0.7-0.9c0-0.3,0.1-0.5,0.3-0.8h0.4c0.2,0.4,0.7,0.9,0.9,0.9    c0.3,0,0.5-0.4,0.7-0.7c0.2,0.1,0.2,0.2,0.5,0.2c0.5,0,0.6-0.4,0.6-0.6c0-0.1-0.7-1.3-0.7-1.6c0-0.3,0.5-0.7,0.5-1    c0-0.3,0.1-0.4,0.1-0.4c0.1-0.2,0.1-0.4,0.1-0.7c0-2.4-2.4-3.9-3.9-4.9v-2c-1.2-2.1-2.1-0.9-2.1-3.1c0-0.3,0.2-0.7,0.2-2    c0-0.1,0.2,0,0.2-0.3v-2.2c-0.1-0.1-0.2,0-0.2-0.3c0-0.3,0.2-0.3,0.2-0.5c-0.3-0.4-0.6-0.9-0.8-1.3c-0.8,0.3-0.8,1.1-1.3,1.6h-0.6    c-0.8-0.8-0.3-2.6-2.1-2.1v-1.1c0.2,0,0.2,0,0.2-0.2c0-0.3-0.2-0.3-0.5-0.5v-1.7c-0.2-0.2-0.6-0.5-0.9-0.5c-0.1,0-0.6,0.3-0.7,0.7    h-0.7c0-0.3-0.2-0.4-0.2-0.7c0-0.2,0.5-0.7,0.5-0.9c0-0.3,0-0.4-0.1-0.5c-0.2,0.2-0.4,0.4-0.6,0.7c0-0.3-0.3-0.5-0.4-0.7H228    c-0.1,0.3-0.3,0.7-0.6,0.9H227v-0.4c-0.1-0.1,0-0.1-0.2-0.1s-0.2,0.2-0.5,0.2c-0.3,0-0.7-0.5-1-0.5h-1.6v0.7h1.1    c-0.2,0.4,0,0.8,0,1.1c0,1.5-2.5,1.2-3.1,1.6c-0.6,0.6-0.8,0.7-1.3,1.6c-0.8-0.8-2-0.3-2-1.4c0-0.8,0.9-0.8,0.7-1.8h0.4    c0.1-0.2,0.1-0.3,0.1-0.6c0-0.5,0.1-0.5-0.5-0.8v-1.7c-0.4-0.3-0.3-0.4-0.7-0.6v-2c-0.5-0.2-0.3-0.7-0.7-1v-1.5    c-0.2-0.1-0.5-0.4-0.5-0.7c0-0.7,1.2-1.8,1.8-2.9v0.4c0.1,0.1,0,0.1,0.3,0.1c0.3,0,0.2-0.1,0.2-0.2h1.5c0.3,0,0.1-0.2,0.4-0.2    c0.3,0,0.2,0.2,0.5,0.2c0.3,0-0.1-0.2,0.2-0.2h0.3c0.2,0.5,0.7,0.7,0.8,0.7c0.3,0,0.5-0.2,0.6-0.5c0.2,0.1,0.4,0.3,0.5,0.5h0.3    c0.3-0.6,0.5-0.7,0.7-0.7c0.3,0,0.3,0.1,0.4,0.2c0.5-0.5,0.6-1.7,1.1-2.3c0.4,0.1,0.6,0.2,0.9,0.2c1.1,0,2.8-4.5,3-5h0.4    c0.1,0.6,0.6,0.4,0.8,0.4c1.3,0,3.5-2.1,3.6-2.7C236.5,1,236.3,0.4,236.5,0"/>
	</g>
	<g>
		<g>
			<path class="st1" d="M103.4,95.4c0.4,0,17.3,0.9,17.3-12.3c0-6.5-4.9-10.3-11-11.1v-0.1c5.1-0.9,9.8-4.3,9.8-9.9     c0-8-7.2-11.8-15.7-11.9H82.1v45.3H103.4L103.4,95.4z M94.7,86.6v-9.8h8.2c2.8,0.2,4.6,2.6,4.6,5.1c0,2.8-2.3,4.7-5.5,4.7H94.7     L94.7,86.6z M94.7,58.9h6.9c3,0,5.2,1.8,5.2,4.4c0,3.5-2.2,4.8-5.6,4.8l-6.4,0.1V58.9"/>
			<polyline class="st1" points="140.9,70 140.7,70 140.7,50.1 128.1,50.1 128.1,95.4 140.7,95.4 140.7,71.3 140.9,71.3 155.8,95.4      171.4,95.4 154.5,70.1 170.2,50.1 155.3,50.1 140.9,70    "/>
			<polyline class="st1" points="189.8,70 189.7,70 189.7,50.1 177.1,50.1 177.1,95.4 189.7,95.4 189.7,71.3 189.8,71.3 204.8,95.4      220.4,95.4 203.5,70.1 219.2,50.1 204.2,50.1 189.8,70    "/>
		</g>
		<g>
			<rect x="65.9" y="116.8" class="st1" width="6.5" height="0.6"/>
			<path class="st1" d="M9.3,117.5c-0.1-1.8-0.1-1.9-0.8-2.1c-0.2-0.1-2.2-0.5-4.5-0.4l0.1,5.2c0,2.1,0.1,2.7,0.1,3.8     c0.9,0,1.1,0,2.1,0.1l0,0.7c-1.1-0.1-1.4-0.1-3.4-0.1c-1.6,0-2,0-2.8,0.1l0-0.7l2-0.1c0.2-2.6,0.2-10.5,0.2-13.6     c0-2.5,0-3.3-0.1-4.7L0,105.5l0-0.6c0.8,0,1.7,0.1,3.4,0.1c7,0,7.5,0,8.7-0.1c0,0.8-0.1,1.6,0,2.9h-0.6c0-0.4-0.1-1.1-0.3-1.4     c-0.4-0.5-2.9-0.9-5.5-0.9l-1.5,0C4,108.3,4,110.3,4,114.4c1.5,0.1,4.7-0.1,5.1-0.5c0.1-0.2,0.1-0.3,0.3-1.7h0.6L9.8,115     c0,0.6,0,1.7,0.1,2.5H9.3"/>
			<path class="st1" d="M209.6,104.9c-1.3,0-3.5,0.1-3.5,0.1c-0.3,0-0.7,0-1.1,0c-1.7,0-2.6-0.1-3.4-0.1l0,0.6l2.1,0.2     c0.1,1.3,0.1,2.2,0.1,4.7c0,3.1,0,10.9-0.2,13.6l-2,0.1l0,0.7c0.8-0.1,1.1-0.1,2.8-0.1c2,0,2.4,0,3.4,0.1l0-0.7     c-1-0.1-1.2-0.1-2.1-0.1c-0.1-1.1-0.1-1.6-0.1-3.8c0,0,0-11.3,0.2-14.4c0.6,0,1.4,0,2.4,0c3.1,0,5,1.4,5,4.2     c0,3.1-2.6,4.5-4.7,4.5c-0.7,0-1.3-0.1-1.6-0.3l-0.2,0.1l0.2,0.7c0.3,0.2,0.8,0.4,1.8,0.4c4.5,0,6.5-3.1,6.5-5.8     C215.1,105,211.5,104.9,209.6,104.9z"/>
			<path class="st1" d="M20,119c-0.9,0-3.9,0-4.7,0c0.2-0.7,0.3-0.9,0.8-2c0.6-1.5,1.2-3,1.8-4.6c0.2,0.7,1.2,3.6,1.4,4.2L20,119     L20,119z M20.9,121.8c0.1,0.3,0.3,1.1,0.7,2.3c-0.7,0-0.8,0-1.4,0.1v0.5c0.9,0,1.3,0,3.1,0c0.8,0,1.3,0,2,0v-0.5     c-0.6,0-0.6,0-1.2-0.1c-1.2-2.8-2.2-5.6-3.2-8.5c-0.6-1.7-1.2-3.7-1.6-5.2h-1.2c-0.9,2.6-4,10-6,13.7l-1.4,0.1v0.5     c0.6,0,1.1,0,2.1,0c0.9,0,1.4,0,2.3,0v-0.5l-1.5-0.1c0.4-1.4,0.9-2.9,1.6-4.5c0.7,0,1.5,0,2.6,0c1.5,0,1.9,0,2.5,0L20.9,121.8"/>
			<path class="st1" d="M31.4,111.3c0.4-0.1,0.8-0.1,1.3-0.1c0.9,0,1.7,0.2,2.2,0.9c0.4,0.4,0.7,1.1,0.7,2c0,1.8-1.1,2.5-1.5,2.8     c-0.6,0.4-1.4,0.5-2.2,0.5c-0.2,0-0.4,0-0.7,0c0-0.7,0-1,0-1.8C31.3,114.1,31.3,112.7,31.4,111.3L31.4,111.3z M34.6,117.3     c0.9-0.2,3.1-0.9,3.1-3.3c0-1.2-0.5-2.1-1.1-2.5c-0.9-0.8-2.3-0.8-2.9-0.8c-0.6,0-1.2,0-1.8,0.1c-1.9,0.1-2.9,0.1-4.1,0v0.5     c0.7,0.1,0.8,0.1,1.5,0.2c0.1,1,0.1,1.7,0.1,4.3c0,0.1,0,4.7,0,6.2c0,1.2-0.1,1.7-0.1,2.3c-0.7,0-0.8,0-1.4,0.1v0.5     c0.6,0,1,0,3.3,0c1.1,0,1.6,0.1,2.2,0.1c3.2,0,5.1-1.5,5.1-3.9c0-2.2-1.4-3.2-3.8-3.4l-0.4,0L34.6,117.3L34.6,117.3z M31.3,117.8     c0.4,0,0.7,0,1.1,0c1.7,0,3.8,0.4,3.8,3c0,0.8-0.2,1.7-0.7,2.4c-0.8,1-1.9,1.1-2.9,1.1c-0.5,0-0.8,0-1.2-0.1     C31.3,122.7,31.3,119.6,31.3,117.8"/>
			<path class="st1" d="M48.9,119.7c-0.1-1.2-0.1-1.3-0.5-1.4c-1-0.4-2.6-0.4-3.2-0.4v1.4c0,1.6,0,3.3,0.1,4.9     c1.5,0,4.1-0.1,5.1-0.5c0.4-0.2,0.4-0.2,0.5-1.6h0.5c0,0.7,0,0.8,0,2.7c-1.3-0.1-1.8-0.1-6-0.1c-1.3,0-2.6,0-3.9,0.1v-0.5     c0.7,0,0.9,0,1.6-0.1c0.1-1,0.1-1.5,0.1-2.9c0-1.2,0-2.4,0-3.3v-1.2c0-3.6-0.1-4.6-0.1-5.4l-1.4-0.1v-0.5c0.8,0,1.4,0.1,2.9,0.1     c1.5,0,5.2,0,6.4-0.1c0,0.4,0,1.4,0,2.4h-0.5c0-0.9-0.1-1.1-0.5-1.3c-0.7-0.4-2.4-0.6-3.8-0.6c-0.4,0-0.7,0-0.9,0     c0,0.8,0,1.2-0.1,2.5l-0.1,3.6c0.7,0,2.3,0,3.2-0.3c0.4-0.1,0.4-0.1,0.5-1.4h0.5c0,0.7-0.1,1.2-0.1,2.1c0,0.5,0,1.1,0,1.8     L48.9,119.7"/>
			<path class="st1" d="M58.4,111.3c0.4,0,0.8-0.1,1.4-0.1c0.9,0,2.9,0.1,2.9,2.9c0,2.2-1.4,3-3,3.1c-0.5,0-0.9,0-1.5,0     C58.2,116.1,58.2,113.3,58.4,111.3L58.4,111.3z M59.8,124.2c-0.7,0-0.9-0.1-1.4-0.1c-0.1-1.2-0.1-1.9-0.2-3c0-0.5-0.1-3-0.1-3.5     l0.2,0l0.3,0.4c0.8,1,1.7,2,2.5,3c1.3,1.6,2.1,2.8,2.7,3.6c0.5,0,0.7,0,1.3,0c0.9,0,1.3,0,2.1,0v-0.5c-0.5,0-0.6,0-1.1-0.1     c-0.5-0.5-0.9-0.9-1.8-2.1c-0.5-0.6-2.6-3.2-3-3.7c-0.3-0.4-0.5-0.5-0.7-0.7c1.6-0.3,2.9-0.9,3.7-2.2c0.4-0.8,0.4-1.6,0.4-1.8     c0-1.3-0.6-2.1-1.2-2.4c-0.8-0.6-2-0.6-3.1-0.6c-0.6,0-1.7,0.1-2.2,0.1c-1.9,0-2.9,0-3.7,0v0.5l1.5,0.2c0.1,1.1,0.1,1.6,0.1,5.3     c0,1.4,0,2.9,0,4.7c0,1.7-0.1,2.1-0.2,2.9c-0.6,0-0.9,0-1.5,0.1v0.5c0.7,0,0.8,0,1.4,0c1.4,0,3,0,3.9,0V124.2"/>
			<path class="st1" d="M280.5,119.7c-0.1-1.2-0.1-1.3-0.5-1.4c-1-0.4-2.6-0.4-3.2-0.4v1.4c0,1.6,0,3.3,0.1,4.9     c1.5,0,4.1-0.1,5.1-0.5c0.4-0.2,0.4-0.2,0.5-1.6h0.5c0,0.7,0,0.8,0,2.7c-1.3-0.1-1.8-0.1-6-0.1c-1.3,0-2.6,0-3.9,0.1v-0.5     c0.7,0,0.9,0,1.6-0.1c0.1-1,0.1-1.5,0.1-2.9c0-1.2,0-2.4,0-3.3v-1.2c0-3.6-0.1-4.6-0.1-5.4l-1.4-0.1v-0.5c0.8,0,1.4,0.1,2.9,0.1     c1.5,0,5.2,0,6.4-0.1c0,0.4,0,1.4,0,2.4h-0.5c0-0.9-0.1-1.1-0.5-1.3c-0.7-0.4-2.4-0.6-3.8-0.6c-0.4,0-0.7,0-0.9,0     c0,0.8,0,1.2-0.1,2.5l-0.1,3.6c0.7,0,2.3,0,3.2-0.3c0.4-0.1,0.4-0.1,0.5-1.4h0.5c0,0.7-0.1,1.2-0.1,2.1c0,0.5,0,1.1,0,1.8     L280.5,119.7"/>
			<path class="st1" d="M289.4,111.3c0.4,0,0.8-0.1,1.4-0.1c0.9,0,2.9,0.1,2.9,2.9c0,2.2-1.4,3-3,3.1c-0.5,0-0.9,0-1.5,0     C289.2,116.1,289.2,113.3,289.4,111.3L289.4,111.3z M290.9,124.2c-0.7,0-0.9-0.1-1.4-0.1c-0.1-1.2-0.1-1.9-0.2-3     c0-0.5-0.1-3-0.1-3.5l0.2,0l0.3,0.4c0.8,1,1.7,2,2.5,3c1.3,1.6,2.1,2.8,2.7,3.6c0.5,0,0.7,0,1.3,0c0.9,0,1.3,0,2.1,0v-0.5     c-0.5,0-0.6,0-1.1-0.1c-0.5-0.5-0.9-0.9-1.8-2.1c-0.5-0.6-2.6-3.2-3-3.7c-0.3-0.4-0.5-0.5-0.7-0.7c1.6-0.3,2.9-0.9,3.7-2.2     c0.4-0.8,0.4-1.6,0.4-1.8c0-1.3-0.6-2.1-1.2-2.4c-0.8-0.6-2-0.6-3.1-0.6c-0.6,0-1.7,0.1-2.2,0.1c-1.9,0-2.9,0-3.7,0v0.5l1.5,0.2     c0.1,1.1,0.1,1.6,0.1,5.3c0,1.4,0,2.9,0,4.7c0,1.7-0.1,2.1-0.2,2.9c-0.6,0-0.9,0-1.5,0.1v0.5c0.7,0,0.8,0,1.4,0c1.4,0,3,0,3.9,0     V124.2"/>
			<path class="st1" d="M233.4,111.3c0.4,0,0.8-0.1,1.4-0.1c0.9,0,2.9,0.1,2.9,2.9c0,2.2-1.4,3-3,3.1c-0.5,0-0.9,0-1.5,0     C233.2,116.1,233.2,113.3,233.4,111.3L233.4,111.3z M234.8,124.2c-0.7,0-0.9-0.1-1.4-0.1c-0.1-1.2-0.1-1.9-0.2-3     c0-0.5-0.1-3-0.1-3.5l0.2,0l0.3,0.4c0.8,1,1.7,2,2.5,3c1.3,1.6,2.1,2.8,2.7,3.6c0.5,0,0.7,0,1.3,0c0.9,0,1.3,0,2.1,0v-0.5     c-0.5,0-0.6,0-1.1-0.1c-0.5-0.5-0.9-0.9-1.8-2.1c-0.5-0.6-2.6-3.2-3-3.7c-0.3-0.4-0.5-0.5-0.7-0.7c1.6-0.3,2.9-0.9,3.7-2.2     c0.4-0.8,0.4-1.6,0.4-1.8c0-1.3-0.6-2.1-1.2-2.4c-0.8-0.6-2-0.6-3.1-0.6c-0.6,0-1.7,0.1-2.2,0.1c-1.9,0-2.9,0-3.7,0v0.5l1.5,0.2     c0.1,1.1,0.1,1.6,0.1,5.3c0,1.4,0,2.9,0,4.7c0,1.7-0.1,2.1-0.2,2.9c-0.6,0-0.9,0-1.5,0.1v0.5c0.7,0,0.8,0,1.4,0c1.4,0,3,0,3.9,0     V124.2"/>
			<path class="st1" d="M89.9,108.5l-0.1-1.7c-2-1.4-4.4-1.6-5.5-1.6c-1.8,0-3.5,0.6-4.8,2.1c-1.8,2-2.3,4.7-2.3,7.4     c0,2.1,0.3,4.8,1.6,6.6c1.4,1.9,3.4,3,5.7,3c0.9,0,3.1-0.2,5.8-1.9l0,0.8c-1.4,0.8-3.3,1.8-6.2,1.8c-6.3-0.1-9.1-5.1-9.1-10.3     c0-5.8,3.5-10.3,10-10.3c1.1,0,2.1,0.1,3,0.2c1.1,0.2,1.5,0.2,2.5,0.2l0,2c0,0.5,0,0.9,0,1.7H89.9"/>
			<path class="st1" d="M101.3,119c-0.9,0-3.9,0-4.7,0c0.2-0.7,0.3-0.9,0.8-2c0.6-1.5,1.2-3,1.8-4.6c0.2,0.7,1.2,3.6,1.4,4.2     L101.3,119L101.3,119z M102.3,121.8c0.1,0.3,0.3,1.1,0.7,2.3c-0.7,0-0.8,0-1.4,0.1v0.5c0.9,0,1.3,0,3.1,0c0.8,0,1.3,0,2,0v-0.5     c-0.6,0-0.6,0-1.2-0.1c-1.2-2.8-2.2-5.6-3.2-8.5c-0.6-1.7-1.2-3.7-1.6-5.2h-1.2c-0.9,2.6-4,10-6,13.7l-1.4,0.1v0.5     c0.6,0,1.1,0,2.1,0c0.9,0,1.4,0,2.3,0v-0.5l-1.5-0.1c0.4-1.4,0.9-2.9,1.6-4.5c0.7,0,1.5,0,2.6,0c1.5,0,1.9,0,2.5,0L102.3,121.8"/>
			<path class="st1" d="M222.2,119c-0.9,0-3.9,0-4.7,0c0.2-0.7,0.3-0.9,0.8-2c0.6-1.5,1.2-3,1.8-4.6c0.2,0.7,1.2,3.6,1.4,4.2     L222.2,119L222.2,119z M223.2,121.8c0.1,0.3,0.3,1.1,0.7,2.3c-0.7,0-0.8,0-1.4,0.1v0.5c0.9,0,1.3,0,3.1,0c0.8,0,1.3,0,2,0v-0.5     c-0.6,0-0.6,0-1.2-0.1c-1.2-2.8-2.2-5.6-3.2-8.5c-0.6-1.7-1.2-3.7-1.6-5.2h-1.2c-0.9,2.6-4,10-6,13.7l-1.4,0.1v0.5     c0.6,0,1.1,0,2.1,0c0.9,0,1.4,0,2.3,0v-0.5l-1.5-0.1c0.4-1.4,0.9-2.9,1.6-4.5c0.7,0,1.5,0,2.6,0c1.5,0,1.9,0,2.5,0L223.2,121.8"/>
			<path class="st1" d="M110.1,123.3c0.8,1,2,1.1,2.7,1.1c1.7,0,3.1-1.1,3.1-3c0-2.2-1.8-2.9-2.7-3.2c-0.4-0.2-0.8-0.3-1.3-0.5     c-2-0.9-2.6-2.2-2.6-3.4c0-1,0.4-2,1-2.7c0.9-1,2.4-1.3,3.8-1.3c0.8,0,1.5,0.1,2.5,0.3c0,0.7,0,0.8,0,2.4h-0.5l-0.1-1.2     c-0.7-0.6-1.4-0.8-2.2-0.8c-2.2,0-2.4,2-2.4,2.7c0,2,1.5,2.6,2.9,3c1.3,0.5,3.6,1.3,3.6,3.9c0,2.9-2.5,4.4-5.8,4.4     c-1.3,0-2-0.2-2.7-0.3c0-0.4,0.1-0.9,0.1-1.6c0-0.4,0-0.9,0-1.2h0.5L110.1,123.3"/>
			<path class="st1" d="M119.9,113.1c0-0.9,0-1.8,0.1-2.4c1.9,0.1,3.8,0.2,5.7,0.2c0.9,0,2.5-0.1,5.4-0.2c0,0.4,0,2,0,2.4h-0.5     c0-0.5,0-0.7-0.1-1.3c-0.9-0.4-1.4-0.5-3.9-0.6c-0.1,1.1-0.1,1.7-0.2,3.4c0,1.9,0,3.3,0,6.4c0,1.7,0,2.2,0.1,3.1     c0.7,0,0.8,0,1.5,0.1v0.5c-0.8,0-1.2,0-2.4,0c-1.3,0-2,0-2.9,0v-0.5c0.6,0,0.9,0,1.5-0.1c0.2-3.4,0.2-7,0.2-10.6     c0-1,0-1.5-0.1-2.4c-1.8,0-3.1,0.2-3.9,0.6c-0.1,0.5-0.1,0.7-0.1,1.2H119.9"/>
			<path class="st1" d="M243.3,113.1c0-0.9,0-1.8,0.1-2.4c1.9,0.1,3.8,0.2,5.7,0.2c0.9,0,2.5-0.1,5.4-0.2c0,0.4,0,2,0,2.4H254     c0-0.5,0-0.7-0.1-1.3c-0.9-0.4-1.4-0.5-3.9-0.6c-0.1,1.1-0.1,1.7-0.2,3.4c0,1.9,0,3.3,0,6.4c0,1.7,0,2.2,0.1,3.1     c0.7,0,0.8,0,1.5,0.1v0.5c-0.8,0-1.2,0-2.4,0c-1.3,0-2,0-2.9,0v-0.5c0.6,0,0.9,0,1.5-0.1c0.2-3.4,0.2-7,0.2-10.6     c0-1,0-1.5-0.1-2.4c-1.8,0-3.1,0.2-3.9,0.6c-0.1,0.5-0.1,0.7-0.1,1.2H243.3"/>
			<path class="st1" d="M141.2,119.7c-0.1-1.2-0.1-1.3-0.5-1.4c-1-0.4-2.6-0.4-3.2-0.4v1.4c0,1.6,0,3.3,0.1,4.9     c1.5,0,4.1-0.1,5.1-0.5c0.4-0.2,0.4-0.2,0.5-1.6h0.5c0,0.7,0,0.8,0,2.7c-1.3-0.1-1.8-0.1-6-0.1c-1.3,0-2.6,0-3.9,0.1v-0.5     c0.7,0,0.9,0,1.6-0.1c0.1-1,0.1-1.5,0.1-2.9c0-1.2,0-2.4,0-3.3v-1.2c0-3.6-0.1-4.6-0.1-5.4l-1.4-0.1v-0.5c0.8,0,1.4,0.1,2.9,0.1     c1.5,0,5.2,0,6.4-0.1c0,0.4,0,1.4,0,2.4h-0.5c0-0.9-0.1-1.1-0.5-1.3c-0.7-0.4-2.4-0.6-3.8-0.6c-0.4,0-0.7,0-0.9,0     c0,0.8,0,1.2-0.1,2.5l-0.1,3.6c0.7,0,2.3,0,3.2-0.3c0.4-0.1,0.4-0.1,0.5-1.4h0.5c0,0.7-0.1,1.2-0.1,2.1c0,0.5,0,1.1,0,1.8     L141.2,119.7"/>
			<path class="st1" d="M147,110.7c0.7,0,1.3,0,3.2,0c1.1,0,1.6,0,2.2,0v0.5c-0.7,0.1-1.1,0.1-1.5,0.2c-0.2,2.2-0.2,3.7-0.2,7.5     c0,2.4,0,3.5,0.1,5.3c2.6,0.1,4.3-0.4,5.2-0.8l0.1-1.3h0.5c0,0.1,0,2,0,2.7c-1,0-3,0-4.9,0c-2,0-3.9,0-4.7,0v-0.5l1.6-0.1     c0.1-1,0.2-1.6,0.2-3.1c0-2.4,0-3.6,0-4.4c0-3.6,0-4.2-0.1-5.3l-1.6-0.2V110.7"/>
			<path class="st1" d="M159.6,110.7c0.7,0,1.3,0,3.2,0c1.1,0,1.6,0,2.2,0v0.5c-0.7,0.1-1.1,0.1-1.5,0.2c-0.2,2.2-0.2,3.7-0.2,7.5     c0,2.4,0,3.5,0.1,5.3c2.6,0.1,4.3-0.4,5.2-0.8l0.1-1.3h0.5c0,0.1,0,2,0,2.7c-1,0-3,0-4.9,0c-2,0-3.9,0-4.7,0v-0.5l1.6-0.1     c0.1-1,0.2-1.6,0.2-3.1c0-2.4,0-3.6,0-4.4c0-3.6,0-4.2-0.1-5.3l-1.6-0.2V110.7"/>
			<path class="st1" d="M269.3,111.3c0.2,0,0.9-0.1,1.2-0.2v-0.5c-0.3,0-1,0-1.5,0c-0.9,0-1.6,0-1.9,0v0.5l1.2,0.2     c0,1.1,0.1,5.4,0.1,5.4l0,4.5c-2.5-2.8-6.9-8-8.4-10.5c-0.3,0-2.5-0.1-2.9-0.1v0.5l1.2,0.2c0,0.2,0.2,0.9,0.2,2v5.5     c0,1.9-0.1,3.1-0.1,3.9c0,0.5-0.1,0.8-0.1,1.3c-0.4,0-0.9,0-1.2,0.1v0.5c0.4,0,0.6,0,1,0c0.9,0,1.9,0,2.4,0v-0.5     c-0.5,0-0.7-0.1-1.1-0.1c0-0.3,0-0.6,0-0.8c0-0.5,0-1.1,0-2.1v-7.8c0-0.1,0-0.1,0-0.2c3.2,3.7,8.4,10.3,9,11.2l1,0     c-0.1-0.5-0.1-1.3-0.1-2v-7.9C269.2,113.4,269.2,112.5,269.3,111.3z"/>
			<path class="st1" d="M184.9,114.9c0.6-0.6,0.9-1.2,0.9-2c0-0.5-0.2-1-0.5-1.3c-0.3-0.3-0.7-0.5-1.2-0.5c-0.5,0-0.9,0.2-1.2,0.5     c-0.3,0.3-0.4,0.8-0.4,1.3c0,0.4,0.1,0.9,0.2,1.4c0.2,0.5,0.4,1,0.6,1.6C184.1,115.6,184.6,115.3,184.9,114.9L184.9,114.9z      M183.6,123.6c0.6-0.2,1.1-0.6,1.6-1c-0.7-0.8-1.2-1.5-1.5-2.1c-0.4-0.6-0.9-1.5-1.7-2.9c-0.7,0.4-1.3,0.8-1.7,1.3     c-0.6,0.6-0.9,1.4-0.9,2.2c0,0.8,0.3,1.5,0.8,2c0.5,0.6,1.2,0.9,2,0.9C182.5,123.9,183,123.8,183.6,123.6L183.6,123.6z      M181.6,116.8c-0.1-0.2-0.2-0.4-0.3-0.8c-0.1-0.3-0.2-0.6-0.3-0.8c-0.1-0.2-0.1-0.4-0.1-0.7c0-0.2-0.1-0.4-0.1-0.7     c0-1,0.3-1.8,0.9-2.5c0.6-0.7,1.4-1,2.3-1c0.9,0,1.6,0.2,2.1,0.7c0.5,0.5,0.8,1.1,0.8,1.9c0,0.9-0.4,1.7-1.1,2.2     c-0.7,0.6-1.5,1-2.3,1.4c0.6,1.1,1.1,1.9,1.4,2.3c0.3,0.5,0.8,1.1,1.5,2c0.7-0.9,1.3-1.7,1.5-2.3c0.3-0.6,0.4-1.1,0.4-1.5     c0-0.4-0.1-0.6-0.4-0.8c-0.2-0.1-0.5-0.2-0.9-0.2v-0.4h4.6v0.4c-0.5,0.1-0.8,0.1-1,0.2c-0.4,0.2-0.7,0.5-1,1l-0.5,1     c-0.4,0.7-0.7,1.2-1,1.6c-0.3,0.4-0.6,0.9-1.2,1.5c0.3,0.3,0.6,0.6,1,1c0.8,0.7,1.5,1,2.3,1c0.5,0,0.9-0.1,1.2-0.3     c0.2-0.1,0.5-0.4,0.8-0.8l0.3,0.2c0,0.2-0.2,0.4-0.4,0.8c-0.3,0.3-0.5,0.6-0.7,0.8c-0.4,0.3-0.8,0.5-1.3,0.7     c-0.3,0.1-0.6,0.1-0.8,0.1c-0.7,0-1.3-0.2-2-0.6c-0.4-0.2-0.9-0.7-1.6-1.3c-0.6,0.6-1.3,1-1.9,1.3c-0.8,0.4-1.8,0.6-2.8,0.6     c-1.1,0-2-0.3-2.7-0.9c-0.7-0.6-1-1.4-1-2.4c0-1,0.3-1.8,0.9-2.5c0.6-0.7,1.4-1.4,2.5-2L181.6,116.8"/>
		</g>
		<g>
			<g>
				<path class="st1" d="M48.1,151.4v-8.9h1.7v0.5c0,0,0.9-0.5,1.9-0.6c0.3-0.1,0.7-0.1,0.9-0.1c0.8,0,1.4,0.3,1.8,0.8      c0.6-0.3,2-0.8,3.2-0.8c2.4,0,3.1,1.2,3.1,4.5v4.7h-1.7v-4.1c0-2.6-0.1-3.5-1.7-3.5c-1.1,0-2.2,0.5-2.2,0.6      c0.1,0.3,0.2,1.4,0.2,2.4v4.6h-1.7v-4.6c0-2.2-0.2-3-1.7-3c-1,0-2.1,0.5-2.1,0.5v7H48.1z"/>
				<path class="st1" d="M63.9,138.8h1.7v1.9h-1.7V138.8z M63.9,142.5h1.7v8.9h-1.7V142.5z"/>
				<path class="st1" d="M70.7,144v3.9c0,1.6,0.1,2.1,1.1,2.1c0.5,0,1.5-0.1,1.5-0.1l0.1,1.5c0,0-1.2,0.2-1.8,0.2      c-1.9,0-2.6-0.7-2.6-3.3V144h-1.2v-1.5H69v-2.7h1.7v2.7h2.6v1.5H70.7z"/>
				<path class="st1" d="M82.2,149.9l0,1.3c0,0-2,0.4-3.6,0.4c-2.7,0-3.6-1.5-3.6-4.6c0-3.3,1.4-4.7,3.8-4.7c2.5,0,3.7,1.3,3.7,4.1      l-0.1,1.2h-5.7c0,1.6,0.6,2.4,2.2,2.4C80.3,150,82.2,149.9,82.2,149.9z M80.9,146.3c0-1.9-0.6-2.5-2-2.5c-1.4,0-2.1,0.7-2.1,2.5      H80.9z"/>
				<path class="st1" d="M85.1,138.8h1.7v1.9h-1.7V138.8z M85.1,142.5h1.7v8.9h-1.7V142.5z"/>
				<path class="st1" d="M90.1,151.4v-8.9h1.7v0.5c0,0,1.5-0.7,2.6-0.7c2.5,0,3.1,1.3,3.1,4.5v4.7h-1.7v-4.7c0-2-0.2-2.9-1.7-2.9      c-1,0-2.3,0.5-2.3,0.5v7H90.1z"/>
				<path class="st1" d="M107.1,149.3c0,0.6,0.3,0.8,0.9,0.9l-0.1,1.4c-1.3,0-1.8-0.2-2.3-0.6c0,0-1.6,0.7-3.1,0.7      c-1.6,0-2.5-1-2.5-2.8c0-1.8,1-2.5,2.9-2.7l2.5-0.2v-0.6c0-0.9-0.5-1.4-1.3-1.4c-1.3,0-3.4,0.2-3.4,0.2l-0.1-1.5      c0,0,2.2-0.4,3.6-0.4c1.9,0,2.9,0.8,2.9,3V149.3z M103.1,147.4c-0.9,0.1-1.3,0.5-1.3,1.4c0,0.9,0.4,1.4,1.1,1.4      c1.1,0,2.6-0.4,2.6-0.4v-2.5L103.1,147.4z"/>
				<path class="st1" d="M110.4,151.4v-8.9h1.7v0.5c0,0,1.5-0.7,2.6-0.7c2.5,0,3.1,1.3,3.1,4.5v4.7h-1.7v-4.7c0-2-0.2-2.9-1.7-2.9      c-1,0-2.3,0.5-2.3,0.5v7H110.4z"/>
				<path class="st1" d="M127.9,151.4h-1.7v-0.5c0,0-1.3,0.7-2.5,0.7c-2.1,0-3.3-1-3.3-4.7c0-3.2,1.1-4.7,3.7-4.7      c0.7,0,1.9,0.2,2.1,0.2v-3.6h1.7V151.4z M126.2,149.5V144c-0.2,0-1.3-0.2-2-0.2c-1.6,0-2.1,1-2.1,3.1c0,2.5,0.8,3.1,1.8,3.1      C125,150,126.2,149.5,126.2,149.5z"/>
				<path class="st1" d="M137.8,149.9l0,1.3c0,0-2,0.4-3.6,0.4c-2.7,0-3.6-1.5-3.6-4.6c0-3.3,1.4-4.7,3.8-4.7c2.5,0,3.7,1.3,3.7,4.1      l-0.1,1.2h-5.7c0,1.6,0.6,2.4,2.2,2.4C135.8,150,137.8,149.9,137.8,149.9z M136.4,146.3c0-1.9-0.6-2.5-2-2.5      c-1.4,0-2.1,0.7-2.1,2.5H136.4z"/>
				<path class="st1" d="M140.7,142.5h1.7v1.1c0,0,1.3-0.9,2.9-1.3v1.8c-1.6,0.3-2.9,1.1-2.9,1.1v6.3h-1.7V142.5z"/>
				<path class="st1" d="M164.1,151.4h-1.7V144h-1.1v-1.5h1.1v-0.7c0-2.6,0.7-3.3,2.5-3.3c0.6,0,1.9,0.2,1.9,0.2l0,1.4      c0,0-0.9,0-1.5,0c-0.9,0-1.2,0.4-1.2,1.8v0.7h2.5v1.5h-2.5V151.4z"/>
				<path class="st1" d="M175.6,142.5v8.9h-1.7v-0.5c0,0-1.4,0.7-2.5,0.7c-2.5,0-3.1-1.3-3.1-4.5v-4.7h1.7v4.6c0,2.2,0.2,3,1.7,3      c1,0,2.2-0.5,2.2-0.5v-7H175.6z M169.4,138.5h1.6v1.9h-1.6V138.5z M173.1,138.5h1.6v1.9h-1.6V138.5z"/>
				<path class="st1" d="M178.9,142.5h1.7v1.1c0,0,1.3-0.9,2.9-1.3v1.8c-1.6,0.3-2.9,1.1-2.9,1.1v6.3h-1.7V142.5z"/>
				<path class="st1" d="M192.3,149.9l0,1.3c0,0-2,0.4-3.6,0.4c-2.7,0-3.6-1.5-3.6-4.6c0-3.3,1.4-4.7,3.8-4.7c2.5,0,3.7,1.3,3.7,4.1      l-0.1,1.2h-5.7c0,1.6,0.6,2.4,2.2,2.4C190.4,150,192.3,149.9,192.3,149.9z M190.9,146.3c0-1.9-0.6-2.5-2-2.5      c-1.4,0-2.1,0.7-2.1,2.5H190.9z"/>
				<path class="st1" d="M195.2,138.8h1.7v1.9h-1.7V138.8z M195.2,142.5h1.7v8.9h-1.7V142.5z"/>
				<path class="st1" d="M200.1,151.4v-8.9h1.7v0.5c0,0,1.5-0.7,2.6-0.7c2.5,0,3.1,1.3,3.1,4.5v4.7h-1.7v-4.7c0-2-0.2-2.9-1.7-2.9      c-1,0-2.3,0.5-2.3,0.5v7H200.1z"/>
				<path class="st1" d="M217.2,149.3c0,0.6,0.3,0.8,0.9,0.9l-0.1,1.4c-1.3,0-1.8-0.2-2.3-0.6c0,0-1.6,0.7-3.1,0.7      c-1.6,0-2.5-1-2.5-2.8c0-1.8,1-2.5,2.9-2.7l2.5-0.2v-0.6c0-0.9-0.5-1.4-1.3-1.4c-1.3,0-3.4,0.2-3.4,0.2l-0.1-1.5      c0,0,2.2-0.4,3.6-0.4c1.9,0,2.9,0.8,2.9,3V149.3z M213.1,147.4c-0.9,0.1-1.3,0.5-1.3,1.4c0,0.9,0.4,1.4,1.1,1.4      c1.1,0,2.6-0.4,2.6-0.4v-2.5L213.1,147.4z"/>
				<path class="st1" d="M220.5,151.4v-8.9h1.7v0.5c0,0,1.5-0.7,2.6-0.7c2.5,0,3.1,1.3,3.1,4.5v4.7h-1.7v-4.7c0-2-0.2-2.9-1.7-2.9      c-1,0-2.3,0.5-2.3,0.5v7H220.5z"/>
				<path class="st1" d="M238,151.4h-1.7v-0.5c0,0-1.3,0.7-2.5,0.7c-2.1,0-3.3-1-3.3-4.7c0-3.2,1.1-4.7,3.7-4.7      c0.7,0,1.9,0.2,2.1,0.2v-3.6h1.7V151.4z M236.3,149.5V144c-0.2,0-1.3-0.2-2-0.2c-1.6,0-2.1,1-2.1,3.1c0,2.5,0.8,3.1,1.8,3.1      C235,150,236.3,149.5,236.3,149.5z"/>
				<path class="st1" d="M247.8,149.9l0,1.3c0,0-2,0.4-3.6,0.4c-2.7,0-3.6-1.5-3.6-4.6c0-3.3,1.4-4.7,3.8-4.7c2.5,0,3.7,1.3,3.7,4.1      l-0.1,1.2h-5.7c0,1.6,0.6,2.4,2.2,2.4C245.9,150,247.8,149.9,247.8,149.9z M246.5,146.3c0-1.9-0.6-2.5-2-2.5      c-1.4,0-2.1,0.7-2.1,2.5H246.5z"/>
				<path class="st1" d="M250.8,142.5h1.7v1.1c0,0,1.3-0.9,2.9-1.3v1.8c-1.6,0.3-2.9,1.1-2.9,1.1v6.3h-1.7V142.5z"/>
			</g>
			<path class="st1" d="M154.4,145.5c0,0.8-0.7,1.5-1.5,1.5c-0.8,0-1.5-0.7-1.5-1.5c0-0.8,0.7-1.5,1.5-1.5     C153.7,144,154.4,144.7,154.4,145.5z"/>
		</g>
	</g>
</g>
</svg>