<?xml version="1.0" encoding="UTF-8"?>
<svg xmlns="http://www.w3.org/2000/svg" xmlns:xlink="http://www.w3.org/1999/xlink" version="1.1" viewBox="0 0 700 214">
  <defs>
    <style>
      .cls-1 {
        fill: none;
      }

      .cls-2 {
        fill: #522583;
      }

      .cls-3 {
        fill: #ffc832;
      }

      .cls-4 {
        clip-path: url(#clippath);
      }
    </style>
    <clipPath id="clippath">
      <rect class="cls-1" x="7.5" y="10.5" width="686.5" height="100.3"></rect>
    </clipPath>
  </defs>
  <g>
    <g id="Ebene_1">
      <g class="cls-4">
        <path class="cls-3" d="M650.5,56.7l38.1-41.9h-22.1l-39.2,44.8V14.8h-19.3v94.3h19.3v-32l8.6-9.3,34,41.4h24l-43.5-52.4ZM555.3,56.7l38.1-41.9h-22.1l-39.2,44.8V14.8h-19.3v94.3h19.3v-32l8.6-9.3,34,41.4h24l-43.5-52.4ZM442.5,95v-29.4h16.5c12.7,0,19.7,5.2,19.7,14.3s-6.7,15.2-21.9,15.2h-14.3ZM442.5,52.7v-23.4h10.4c14.8,0,19.5,3,19.5,10.9s-5.2,12.5-17.1,12.5h-12.7ZM423.9,109.1h36.5c24.8,0,37.9-10.2,37.9-28.8s-7.4-20.2-20.6-23v-.8c9-2.9,14.1-10.1,14.1-20.1,0-15.1-10-21.7-37-21.7h-30.9v94.3Z"></path>
        <path class="cls-2" d="M368.1,68.9l27.4-30.7h-20.1l-27.8,30.9V10.5h-18.6v98.6h18.6v-23.2l6.7-6.7,24.5,30h21.5l-32.3-40.2ZM292,110.7c8,0,18-2.7,23.6-6.4v-15h-2.6c-6,4.8-8.3,6-12.8,7.1-2.1.6-4.4.9-6.9.9-12.7,0-19.9-8-19.9-23.5s6.7-23.6,19.6-23.6,13.2,2.7,20,8h2.6v-15.8c-8.3-4-16.2-6.1-23.7-6.1-23.4,0-37.8,14.3-37.8,37.5s13.9,36.8,37.9,36.8M249.8,38.7c-2.1-.5-4.5-.9-7.4-.9-7.3,0-14.8,3.9-22.6,11.5v-11.2h-18.5v71h18.5v-47.9c4.5-4.7,10.5-7.3,17.6-7.3s7.5.5,10.8,1.7h1.6v-17ZM136.2,65.7c.6-10.3,7.1-17.3,17.6-17.3s15.1,6.2,15.3,17.3h-33ZM187.3,76.7v-7.5c0-20.9-11.7-32.9-32.3-32.9s-37.4,14.7-37.4,37.9,15.1,36.7,39.3,36.7,18.9-1.6,29.1-5.8v-14.1h-1.9c-5.8,4.4-16.9,7.7-24.3,7.7-14.5,0-23.4-8.3-23.7-21.8h51.2ZM101.9,14.8h-22.6l-24.6,51.9L30.2,14.8H7.5v94.3h17.6V37.5l23,48.9h12.3l23-48.9v71.6h18.6V14.8Z"></path>
      </g>
      <g>
        <path class="cls-2" d="M40.6,183.1c0,4.6-1.4,8.1-4.2,10.6-2.8,2.5-6.9,3.7-12.4,3.7s-9.6-1.2-12.4-3.7c-2.8-2.5-4.2-6-4.2-10.6v-23.8h9.7v23.3c0,2.6.5,4.5,1.6,5.8s2.8,1.9,5.3,1.9,4.2-.6,5.3-1.8c1.1-1.2,1.7-3.2,1.7-5.9v-23.3h9.7v23.8Z"></path>
        <path class="cls-2" d="M76.9,196.6h-9v-13.9c0-1.1,0-2.3-.2-3.4-.1-1.1-.3-2-.6-2.5-.3-.6-.8-1.1-1.5-1.4-.6-.3-1.5-.4-2.7-.4s-1.6.1-2.5.4c-.8.3-1.8.7-2.7,1.3v19.9h-9v-28.1h9v3.1c1.6-1.3,3.1-2.2,4.6-2.9s3.1-1,4.9-1c3,0,5.4.9,7.1,2.7,1.7,1.8,2.6,4.4,2.6,7.9v18.3Z"></path>
        <path class="cls-2" d="M109.7,187.7c0,2.9-1.3,5.2-3.9,7-2.6,1.8-6.2,2.7-10.7,2.7s-4.8-.2-6.8-.7-3.7-1-4.9-1.6v-7.4h.8c.5.3,1,.7,1.6,1,.6.4,1.4.8,2.5,1.2.9.4,2,.7,3.2,1,1.2.3,2.5.4,3.8.4s3.1-.2,3.9-.6c.9-.4,1.3-1,1.3-1.7s-.3-1.2-.8-1.5c-.5-.3-1.5-.6-2.9-.9-.7-.2-1.6-.3-2.7-.5-1.1-.2-2.2-.4-3.1-.6-2.6-.7-4.4-1.7-5.7-3.1-1.2-1.4-1.9-3.2-1.9-5.3s1.3-5,3.8-6.7c2.6-1.8,6.1-2.7,10.5-2.7s4.1.2,6,.6c1.9.4,3.4.9,4.5,1.4v7.1h-.8c-1.3-.9-2.9-1.7-4.6-2.2-1.7-.6-3.4-.9-5.2-.9s-2.7.2-3.7.6c-1,.4-1.5,1-1.5,1.7s.2,1.2.7,1.5,1.5.7,3.2,1.1c.9.2,1.9.4,3,.5,1.1.2,2.1.4,3.2.7,2.4.6,4.1,1.6,5.3,2.9,1.1,1.3,1.7,3,1.7,5Z"></path>
        <path class="cls-2" d="M143.4,184.2h-20.6c.1,2.2,1,3.9,2.5,5.1,1.5,1.2,3.8,1.8,6.8,1.8s3.7-.3,5.5-1c1.8-.7,3.2-1.4,4.2-2.2h1v7.2c-2,.8-4,1.4-5.8,1.8-1.8.4-3.8.6-6,.6-5.6,0-10-1.3-13-3.8-3-2.5-4.5-6.1-4.5-10.8s1.4-8.3,4.3-11c2.8-2.7,6.7-4.1,11.7-4.1s8,1.2,10.3,3.5c2.3,2.3,3.5,5.6,3.5,10v3.2ZM134.5,178.9c0-1.9-.5-3.3-1.4-4.3s-2.3-1.4-4.1-1.4-3.2.5-4.3,1.4-1.7,2.3-1.9,4.3h11.7Z"></path>
        <path class="cls-2" d="M170.3,177.1h-.8c-.4-.1-1-.2-1.8-.3s-1.6-.1-2.1-.1c-1.3,0-2.4,0-3.4.3-1,.2-2,.5-3.2.9v18.8h-9v-28.1h9v4.1c2-1.7,3.7-2.8,5.2-3.4,1.5-.6,2.8-.8,4-.8s.7,0,1.1,0c.4,0,.7,0,1,0v8.6Z"></path>
        <path class="cls-2" d="M227.8,196.6h-9.9l-2.6-7.5h-13.8l-2.6,7.5h-9.7l13.8-37.3h11.1l13.8,37.3ZM213,182.2l-4.6-13.4-4.6,13.4h9.2Z"></path>
        <path class="cls-2" d="M260.9,196.6h-9v-13.9c0-1.1,0-2.3-.2-3.4-.1-1.1-.3-2-.6-2.5-.3-.6-.8-1.1-1.5-1.4s-1.5-.4-2.7-.4-1.6.1-2.5.4-1.8.7-2.7,1.3v19.9h-9v-28.1h9v3.1c1.6-1.3,3.1-2.2,4.6-2.9s3.1-1,4.9-1c3,0,5.4.9,7.1,2.7,1.7,1.8,2.6,4.4,2.6,7.9v18.3Z"></path>
        <path class="cls-2" d="M293.6,187.7c0,2.9-1.3,5.2-3.9,7-2.6,1.8-6.2,2.7-10.7,2.7s-4.8-.2-6.8-.7-3.7-1-4.9-1.6v-7.4h.8c.4.3,1,.7,1.6,1,.6.4,1.4.8,2.5,1.2.9.4,2,.7,3.2,1,1.2.3,2.5.4,3.8.4s3.1-.2,3.9-.6c.9-.4,1.3-1,1.3-1.7s-.2-1.2-.7-1.5c-.5-.3-1.5-.6-2.9-.9-.7-.2-1.6-.3-2.7-.5-1.1-.2-2.2-.4-3.1-.6-2.6-.7-4.4-1.7-5.7-3.1-1.2-1.4-1.8-3.2-1.8-5.3s1.3-5,3.8-6.7c2.6-1.8,6.1-2.7,10.5-2.7s4.1.2,6,.6c1.9.4,3.4.9,4.5,1.4v7.1h-.8c-1.3-.9-2.9-1.7-4.6-2.2-1.7-.6-3.4-.9-5.2-.9s-2.7.2-3.7.6-1.5,1-1.5,1.7.2,1.2.7,1.5,1.5.7,3.2,1.1c.9.2,1.9.4,3,.5,1.1.2,2.1.4,3.2.7,2.4.6,4.1,1.6,5.3,2.9,1.1,1.3,1.7,3,1.7,5Z"></path>
        <path class="cls-2" d="M329,182.2c0,2.3-.4,4.4-1.1,6.3s-1.6,3.5-2.8,4.7c-1.2,1.3-2.6,2.3-4.1,3s-3.1,1-4.9,1-3-.2-4.1-.5c-1.1-.3-2.3-.8-3.4-1.4v11.7h-9v-38.4h9v2.9c1.4-1.1,2.8-2,4.2-2.7,1.4-.7,3.1-1,5-1,3.5,0,6.2,1.3,8.2,3.9,1.9,2.6,2.9,6.1,2.9,10.6ZM319.7,182.3c0-2.7-.5-4.7-1.4-5.9-.9-1.2-2.4-1.9-4.4-1.9s-1.7.1-2.6.4-1.8.6-2.6,1.1v14.1c.6.2,1.2.4,1.9.5.7,0,1.4.1,2,.1,2.4,0,4.2-.7,5.3-2.1,1.2-1.4,1.7-3.5,1.7-6.3Z"></path>
        <path class="cls-2" d="M355.6,177.1h-.8c-.4-.1-1-.2-1.8-.3-.9,0-1.6-.1-2.1-.1-1.3,0-2.4,0-3.4.3s-2,.5-3.2.9v18.8h-9v-28.1h9v4.1c2-1.7,3.7-2.8,5.2-3.4,1.5-.6,2.8-.8,4-.8s.7,0,1.1,0c.4,0,.7,0,1,0v8.6Z"></path>
        <path class="cls-2" d="M388.5,196.6h-9v-3.1c-1.7,1.3-3.2,2.2-4.6,2.9-1.4.7-3,1-4.9,1-3.1,0-5.5-.9-7.2-2.7-1.7-1.8-2.5-4.4-2.5-7.9v-18.3h9v13.9c0,1.4,0,2.6.1,3.5,0,.9.3,1.7.6,2.3.3.6.8,1.1,1.4,1.4s1.5.4,2.7.4,1.6-.1,2.6-.4,1.8-.7,2.7-1.3v-19.9h9v28.1Z"></path>
        <path class="cls-2" d="M411.3,197.4c-2.5,0-4.7-.3-6.7-.9-2-.6-3.8-1.5-5.3-2.7-1.5-1.2-2.6-2.8-3.5-4.6-.8-1.9-1.2-4-1.2-6.5s.4-4.9,1.3-6.8c.9-1.9,2.1-3.5,3.7-4.7,1.5-1.2,3.3-2.1,5.3-2.6,2-.6,4-.8,6.2-.8s3.7.2,5.3.6,3.1,1,4.5,1.6v7.7h-1.3c-.4-.3-.8-.7-1.3-1.1-.5-.4-1.1-.8-1.8-1.2-.7-.4-1.4-.7-2.2-.9-.8-.2-1.8-.4-2.8-.4-2.4,0-4.2.8-5.5,2.3-1.3,1.5-1.9,3.6-1.9,6.2s.7,4.8,2,6.2c1.3,1.4,3.2,2.1,5.6,2.1s2.2-.1,3.1-.4c.9-.3,1.7-.6,2.3-.9.6-.3,1.1-.7,1.5-1.1.4-.4.8-.7,1.2-1.1h1.3v7.7c-1.4.7-2.9,1.2-4.4,1.6-1.5.4-3.3.6-5.1.6Z"></path>
        <path class="cls-2" d="M455.6,196.6h-9v-13.9c0-1.1,0-2.3-.2-3.4-.1-1.1-.3-2-.6-2.5-.3-.6-.8-1.1-1.5-1.4s-1.5-.4-2.7-.4-1.6.1-2.5.4-1.8.7-2.7,1.3v19.9h-9v-38.9h9v13.9c1.6-1.3,3.1-2.2,4.6-2.9,1.5-.7,3.1-1,4.9-1,3,0,5.4.9,7.1,2.7,1.7,1.8,2.6,4.4,2.6,7.9v18.3Z"></path>
        <path class="cls-2" d="M510.8,182.2c0,4.4-1.2,8-3.7,10.8-2.4,2.8-5.5,4.2-9.1,4.2s-2.9-.2-4.1-.5-2.3-.8-3.4-1.5l-.4,1.4h-8.7v-38.9h9v13.8c1.4-1.1,2.8-2,4.2-2.7,1.4-.7,3.1-1,5-1,3.6,0,6.3,1.3,8.2,3.8,1.9,2.6,2.9,6.1,2.9,10.6ZM501.5,182.3c0-2.5-.4-4.4-1.3-5.8-.9-1.3-2.4-2-4.5-2s-1.7.1-2.6.4c-.9.3-1.8.6-2.6,1.1v14.1c.6.2,1.3.4,1.8.5.6,0,1.3.1,2.1.1,2.4,0,4.2-.7,5.3-2.1,1.2-1.4,1.7-3.5,1.7-6.3Z"></path>
        <path class="cls-2" d="M526.2,164.5h-9.5v-6.8h9.5v6.8ZM526,196.6h-9v-28.1h9v28.1Z"></path>
        <path class="cls-2" d="M558.9,187.7c0,2.9-1.3,5.2-3.9,7-2.6,1.8-6.2,2.7-10.7,2.7s-4.8-.2-6.8-.7c-2-.5-3.7-1-4.9-1.6v-7.4h.8c.5.3,1,.7,1.6,1,.6.4,1.4.8,2.5,1.2.9.4,2,.7,3.2,1,1.2.3,2.5.4,3.8.4s3.1-.2,3.9-.6c.8-.4,1.3-1,1.3-1.7s-.3-1.2-.8-1.5c-.5-.3-1.5-.6-2.9-.9-.7-.2-1.6-.3-2.7-.5-1.1-.2-2.2-.4-3.1-.6-2.5-.7-4.4-1.7-5.7-3.1-1.2-1.4-1.9-3.2-1.9-5.3s1.3-5,3.8-6.7c2.6-1.8,6.1-2.7,10.5-2.7s4.1.2,6,.6c1.9.4,3.4.9,4.5,1.4v7.1h-.8c-1.3-.9-2.9-1.7-4.6-2.2-1.7-.6-3.4-.9-5.2-.9s-2.7.2-3.7.6-1.5,1-1.5,1.7.2,1.2.7,1.5c.4.4,1.5.7,3.2,1.1.9.2,1.9.4,3,.5,1.1.2,2.1.4,3.2.7,2.4.6,4.1,1.6,5.3,2.9,1.1,1.3,1.7,3,1.7,5Z"></path>
        <path class="cls-2" d="M583.1,196.4c-1,.3-2,.4-3.1.6-1.1.1-2.4.2-4,.2-3.5,0-6.1-.7-7.8-2.1-1.7-1.4-2.6-3.8-2.6-7.3v-13.1h-3.7v-6.1h3.7v-8h9v8h8.4v6.1h-8.4v10c0,1,0,1.8,0,2.6,0,.7.2,1.4.4,2,.2.6.6,1,1.2,1.4s1.5.5,2.6.5,1.1-.1,1.8-.3,1.3-.4,1.6-.6h.7v6.2Z"></path>
        <path class="cls-2" d="M641.7,178c0,3.5-.8,6.6-2.4,9.3-1.6,2.7-3.6,4.9-6,6.3-1.8,1.1-3.8,1.9-6,2.3-2.2.4-4.7.7-7.7.7h-13.1v-37.3h13.5c3,0,5.7.3,7.9.8,2.2.5,4.1,1.2,5.6,2.2,2.6,1.6,4.6,3.7,6.1,6.3,1.5,2.7,2.2,5.8,2.2,9.4ZM631.8,177.9c0-2.5-.4-4.6-1.3-6.3-.9-1.7-2.3-3.1-4.2-4.1-1-.5-2-.8-3-1-1-.2-2.6-.3-4.6-.3h-2.4v23.3h2.4c2.3,0,4-.1,5-.3,1.1-.2,2.1-.6,3.1-1.1,1.8-1,3-2.3,3.9-4,.8-1.7,1.2-3.7,1.2-6.2Z"></path>
        <path class="cls-2" d="M676.4,196.6h-9v-3.1c-1.7,1.3-3.2,2.2-4.6,2.9-1.4.7-3,1-4.9,1-3.1,0-5.5-.9-7.2-2.7s-2.5-4.4-2.5-7.9v-18.3h9v13.9c0,1.4,0,2.6.1,3.5,0,.9.3,1.7.6,2.3.3.6.8,1.1,1.4,1.4s1.5.4,2.7.4,1.6-.1,2.6-.4,1.8-.7,2.7-1.3v-19.9h9v28.1Z"></path>
        <path class="cls-2" d="M694,196.6h-9.4v-9.8h9.4v9.8Z"></path>
      </g>
    </g>
  </g>
</svg>
