<svg class="o-logo__icon" xmlns="http://www.w3.org/2000/svg" xmlns:xlink="http://www.w3.org/1999/xlink" viewBox="0 0 649.25 255.79" role="img" aria-label="Mobil Krankenkasse" focusable="false"><path fill="#3c3c3b" d="M10.15,227.22h-.14v-19.93H0v47.25h10.02v-21.24h.14l16.42,21.24h12.88l-20.58-25.44,19.49-21.81h-12.33l-15.88,19.93h0ZM76.79,234.61c6.88-1.07,10.49-7.08,10.49-13.1,0-10.09-7.02-14.23-17.17-14.23h-13.56v47.25h10.02v-19.05h.14l12.47,19.05h12.13l-14.51-19.93h0ZM66.57,214.81h1.36c5.31,0,9.33,1.13,9.33,6.96s-3.88,7.27-9.4,7.27h-1.29v-14.23h0ZM137.24,244.58l3.95,9.96h10.7l-19.49-48.51h-7.77l-20.03,48.51h10.56l4.22-9.96h17.85ZM134.44,237.05h-12.2l5.66-17.17h.14l6.41,17.17h0ZM169.26,254.54h10.02v-32.09h.14l27.05,33.03h7.22v-48.19h-10.02v31.77h-.14l-27.05-33.03h-7.22v48.51h0ZM245.44,227.22h-.14v-19.93h-10.02v47.25h10.02v-21.24h.14l16.42,21.24h12.88l-20.58-25.44,19.49-21.81h-12.33l-15.88,19.93h0ZM318.42,215.31v-8.02h-26.58v47.25h26.58v-8.02h-16.56v-12.78h15.94v-8.02h-15.94v-10.4h16.56ZM339.41,254.54h10.02v-32.09h.14l27.05,33.03h7.22v-48.19h-10.02v31.77h-.14l-27.05-33.03h-7.22v48.51h0ZM415.59,227.22h-.14v-19.93h-10.02v47.25h10.02v-21.24h.14l16.42,21.24h12.88l-20.58-25.44,19.49-21.81h-12.33l-15.88,19.93h0ZM490.34,244.58l3.95,9.96h10.7l-19.49-48.51h-7.77l-20.03,48.51h10.56l4.23-9.96h17.85ZM487.55,237.05h-12.2l5.66-17.17h.14l6.41,17.17h0ZM551.26,211.3c-3.14-3.2-9.47-5.26-14.04-5.26-8.65,0-14.99,6.33-14.99,14.16,0,7.33,4.84,10.4,11.45,12.91,4.02,1.44,8.93,2.82,8.93,7.71,0,3.63-2.52,6.83-6.61,6.83-4.29,0-7.9-3.26-9.27-6.89l-6.47,5.83c3.54,5.45,8.72,9.21,15.81,9.21,10.49,0,16.9-6.71,16.9-16.17,0-15.86-20.37-12.53-20.37-20.49,0-3.07,3.07-5.33,6.27-5.33s5.79,1.5,7.7,3.89l4.7-6.39h0ZM601.41,211.3c-3.13-3.2-9.47-5.26-14.04-5.26-8.65,0-14.99,6.33-14.99,14.16,0,7.33,4.84,10.4,11.45,12.91,4.02,1.44,8.93,2.82,8.93,7.71,0,3.63-2.52,6.83-6.61,6.83-4.29,0-7.9-3.26-9.27-6.89l-6.47,5.83c3.54,5.45,8.72,9.21,15.81,9.21,10.49,0,16.9-6.71,16.9-16.17,0-15.86-20.37-12.53-20.37-20.49,0-3.07,3.07-5.33,6.27-5.33s5.79,1.5,7.7,3.89l4.7-6.39h0ZM649.24,215.31v-8.02h-26.57v47.25h26.57v-8.02h-16.56v-12.78h15.95v-8.02h-15.95v-10.4h16.56Z"></path><path fill="#e20026" d="M281.83,43.37c-39.69,0-71.88,32.18-71.88,71.88s32.18,71.89,71.88,71.89,71.89-32.19,71.89-71.89-32.18-71.88-71.89-71.88ZM281.83,149.47c-18.9,0-34.23-15.31-34.23-34.22s15.33-34.24,34.23-34.24,34.24,15.34,34.24,34.24-15.34,34.22-34.24,34.22Z"></path><polygon fill="#0c419a" points="109.54 184.84 149.48 50.71 149.48 184.84 186 184.84 186 0 127.8 0 93 116.73 58.2 0 0 0 0 184.84 36.51 184.84 36.51 50.71 76.45 184.84 109.54 184.84"></polygon><path fill="#0c419a" d="M447.12,43.37c-12.32,0-23.61,4.95-32.93,13.29V0h-36.52v184.84h36.52v-10.9c9.32,8.31,20.67,13.19,32.93,13.19,39.7,0,71.88-32.19,71.88-71.89s-32.17-71.88-71.88-71.88ZM447.12,149.47c-18.91,0-34.24-15.31-34.24-34.22s15.33-34.24,34.24-34.24,34.24,15.34,34.24,34.24-15.34,34.22-34.24,34.22Z"></path><rect fill="#0c419a" x="612.74" y="0" width="36.51" height="184.84"></rect><rect fill="#0c419a" x="543.15" width="36.5" height="35.38"></rect><rect fill="#0c419a" x="543.15" y="49.07" width="36.5" height="135.77"></rect></svg>