<?xml version="1.0" encoding="UTF-8" standalone="no"?>
<!-- Created with Inkscape (http://www.inkscape.org/) -->

<svg
   xmlns:dc="http://purl.org/dc/elements/1.1/"
   xmlns:cc="http://creativecommons.org/ns#"
   xmlns:rdf="http://www.w3.org/1999/02/22-rdf-syntax-ns#"
   xmlns:svg="http://www.w3.org/2000/svg"
   xmlns="http://www.w3.org/2000/svg"
   xmlns:sodipodi="http://sodipodi.sourceforge.net/DTD/sodipodi-0.dtd"
   xmlns:inkscape="http://www.inkscape.org/namespaces/inkscape"
   width="252.89"
   height="24.34"
   id="svg3174"
   version="1.1"
   inkscape:version="0.48.1 "
   sodipodi:docname="Neues Dokument 3">
  <defs
     id="defs3176" />
  <sodipodi:namedview
     id="base"
     pagecolor="#ffffff"
     bordercolor="#666666"
     borderopacity="1.0"
     inkscape:pageopacity="0.0"
     inkscape:pageshadow="2"
     inkscape:zoom="3.5633324"
     inkscape:cx="126.445"
     inkscape:cy="12.169995"
     inkscape:document-units="px"
     inkscape:current-layer="layer1"
     showgrid="false"
     fit-margin-top="0"
     fit-margin-left="0"
     fit-margin-right="0"
     fit-margin-bottom="0"
     inkscape:window-width="1024"
     inkscape:window-height="678"
     inkscape:window-x="-4"
     inkscape:window-y="-4"
     inkscape:window-maximized="1" />
  <metadata
     id="metadata3179">
    <rdf:RDF>
      <cc:Work
         rdf:about="">
        <dc:format>image/svg+xml</dc:format>
        <dc:type
           rdf:resource="http://purl.org/dc/dcmitype/StillImage" />
        <dc:title></dc:title>
      </cc:Work>
    </rdf:RDF>
  </metadata>
  <g
     inkscape:label="Ebene 1"
     inkscape:groupmode="layer"
     id="layer1"
     transform="translate(-76.800947,-470.47413)">
    <path
       inkscape:connector-curvature="0"
       d="m 91.32657,475.61976 2.80625,0 c 2.995,0 3.50125,0.86625 3.16,2.445 -0.3225,1.485 -1.4125,2.44375 -4.1875,2.44375 l -2.8375,0 1.05875,-4.88875 z m -13.525,18.19625 16.77375,0 c 4.9175,0 6.5075,-0.495 8.2575,-1.7325 1.18875,-0.83625 2.16625,-2.29 2.54125,-4.02375 0.83125,-3.8375 -1.93,-5.35375 -5.10625,-5.53875 l 0.0138,-0.0625 c 3.15,-0.71125 5.79125,-2.135 6.4475,-5.1675 0.8175,-3.77625 -1.64,-5.81875 -8.545,-5.81875 l -15.54375,0 -4.83875,22.34375 z m 11.60875,-9.34625 2.8375,0 c 3.31,0 4.3275,0.83625 3.925,2.6925 -0.40125,1.8575 -1.78125,2.6925 -5.09125,2.6925 l -2.8375,0 1.16625,-5.385 z m 37.765,9.34625 12.04375,0 -7.53,-12.255 11.36,-10.08875 -11.82375,0 -10.51625,10.7075 6.46625,11.63625 z m -18.69625,0 9.585,0 4.8375,-22.34375 -9.58375,0 -4.83875,22.34375 z m 52.495,0 12.04375,0 -7.53,-12.255 11.36,-10.08875 -11.82375,0 -10.51625,10.7075 6.46625,11.63625 z m -18.69625,0 9.585,0 4.8375,-22.34375 -9.58375,0 -4.83875,22.34375 z m 47.35625,0 9.58375,0 1.555,-7.18 7.50375,0 c 4.7925,0 8.90375,-1.94875 10.08375,-7.39625 1.25875,-5.8175 -2.165,-7.7675 -7.65125,-7.7675 l -16.2375,0 -4.8375,22.34375 z m 13.40375,-17.64 2.90125,0 c 2.7425,0 3.48125,0.96 3.07875,2.81625 -0.47625,2.1975 -1.86625,2.94 -5.27125,2.94 l -1.955,0 1.24625,-5.75625 z m 16.51625,17.64 9.585,0 1.79625,-8.29375 10.7825,0 1.01875,-4.70375 -10.7825,0 1.005,-4.6425 11.35,0 1.01875,-4.70375 -20.935,0 -4.83875,22.34375 z m 35.6,-8.6025 5.3775,-7.79875 1.8425,7.79875 -7.22,0 z m -15.325,8.6025 9.395,0 2.57,-3.71375 11.76,0 0.8675,3.71375 10.56125,0 -6.76375,-22.34375 -11.94875,0 -16.44125,22.34375 z m 37.83375,0 9.585,0 1.79625,-8.29375 10.7825,0 1.01875,-4.70375 -10.7825,0 1.005,-4.6425 11.35,0 1.01875,-4.70375 -20.935,0 -4.83875,22.34375 z m 25.25375,0 9.585,0 1.79625,-8.29375 10.7825,0 1.01875,-4.70375 -10.7825,0 1.005,-4.6425 11.35,0 1.01875,-4.70375 -20.935,0 -4.83875,22.34375"
       style="fill:#ffd400;fill-opacity:1;fill-rule:nonzero;stroke:none"
       id="path36" />
  </g>
</svg>
