<svg id="Ebene_1" xmlns="http://www.w3.org/2000/svg" viewBox="0 0 719.7244 136.4273"><defs><style>.cls-1{fill:#007bc0;}.cls-2{fill:#fff;}.cls-3{fill:#ed0007;fill-rule:evenodd;}</style></defs><polygon class="cls-1" points="468.2556 0 468.2556 136.4273 719.7244 136.4273 719.7244 0 468.2556 0 468.2556 0"></polygon><path class="cls-2" d="m506.9014,98.2106h29.1108c6.4782,0,11.5072-1.2569,15.0884-3.7721,4.127-2.8425,6.1912-7.1752,6.1912-12.9974,0-3.389-.7111-6.1636-2.1321-8.3232-1.64-2.4601-4.4012-4.4281-8.2822-5.9042,3.061-1.4209,5.2686-3.1366,6.6217-5.1456,1.353-2.0091,2.0296-4.5716,2.0296-7.6877,0-4.8106-1.5036-8.6102-4.5101-11.3983-3.4441-3.1981-8.5282-4.7971-15.2524-4.7971h-28.8648v60.0256h0Zm16.1955-36.614v-10.9883h10.4963c4.2641,0,6.3962,1.845,6.3962,5.5352,0,3.6356-2.1051,5.4531-6.3142,5.4531h-10.5783Zm0,24.1907v-12.7513h10.6603c5.111,0,7.6672,2.1321,7.6672,6.3962,0,2.0232-.6291,3.5876-1.8861,4.6946-1.2576,1.107-3.0481,1.6606-5.3711,1.6606h-11.0703Zm44.4452,12.4233h16.5235v-16.1954l4.7151-5.8632,14.1864,22.0586h18.2865l-21.6486-34.4409,19.9675-25.5847h-18.0405l-17.4664,23.2476v-23.2476h-16.5235v60.0256h0Zm61.9937,0h16.5235v-16.1954l4.7151-5.8632,14.1864,22.0586h18.2864l-21.6486-34.4409,19.9675-25.5847h-18.0405l-17.4664,23.2476v-23.2476h-16.5235v60.0256h0Z"></path><path class="cls-3" d="m162.0486,85.6758h-11.0423v-11.7974h10.7592c5.3796,0,7.9278,2.3595,7.9278,5.8515,0,4.3414-3.2089,5.9459-7.6447,5.9459h0Zm-11.0423-35.0146h10.9479c3.3976,0,5.6627,2.2651,5.6627,5.6627,0,2.6426-2.0763,5.474-5.9459,5.474h-10.6648v-11.1367h0Zm23.7835,16.3276s8.3054-2.8314,8.3054-12.2693c0-11.0423-7.8335-16.5163-18.5927-16.5163h-28.2193v60.025h30.6732c9.4379,0,18.687-6.6065,18.687-16.7051,0-11.9861-10.8536-14.44-10.8536-14.5343h0Z"></path><path class="cls-3" d="m218.1097,85.2039c-8.4941,0-12.7411-7.6447-12.7411-17.0826s4.2471-16.9882,12.7411-16.9882,12.8355,7.6447,12.8355,16.9882c0,9.5323-4.3414,17.0826-12.8355,17.0826h0Zm0-48.5108c-17.3657,0-27.5586,13.8737-27.5586,31.4282,0,17.6489,10.1929,31.4282,27.5586,31.4282,17.4601,0,27.5586-13.7793,27.5586-31.4282,0-17.5545-10.0985-31.4282-27.5586-31.4282h0Z"></path><path class="cls-3" d="m277.6628,61.798l-2.0763-.4719c-5.0965-1.0382-9.1548-2.3595-9.1548-6.0402,0-3.9639,3.8695-5.5684,7.2672-5.5684,5.0021,0,9.4379,2.4539,12.2693,5.5684l9.3435-9.2491c-4.2471-4.8133-11.1367-9.4379-21.8959-9.4379-12.6468,0-22.2734,7.0784-22.2734,18.8758,0,10.7592,7.739,16.0444,17.177,18.0264l2.0763.4719c7.8335,1.6044,10.7592,2.8314,10.7592,6.6065,0,3.5864-3.2089,5.9459-8.1166,5.9459-5.8515,0-11.1367-2.5482-15.195-7.739l-9.5323,9.4379c5.2852,6.3234,11.9861,11.2311,24.9161,11.2311,11.2311,0,23.2172-6.4178,23.2172-19.5364.1887-13.6849-10.1929-16.3276-18.7814-18.1207h0Z"></path><path class="cls-3" d="m330.0431,85.2039c-6.6066,0-13.4962-5.474-13.4962-17.4601,0-10.6648,6.4178-16.6107,13.1187-16.6107,5.2852,0,8.3997,2.4539,10.8535,6.7009l12.0805-8.0222c-6.0402-9.1548-13.213-13.0243-23.1228-13.0243-18.1207,0-27.9362,14.0624-27.9362,31.0507,0,17.8376,10.8536,31.8057,27.7474,31.8057,11.8917,0,17.5544-4.1527,23.6891-13.0243l-12.1749-8.211c-2.4538,3.9639-5.0965,6.7953-10.7592,6.7953h0Z"></path><polygon class="cls-3" points="392.8994 38.2032 392.8994 60.2879 374.6843 60.2879 374.6843 38.2032 358.923 38.2032 358.923 98.2282 374.6843 98.2282 374.6843 74.5391 392.8994 74.5391 392.8994 98.2282 408.6607 98.2282 408.6607 38.2032 392.8994 38.2032 392.8994 38.2032"></polygon><path d="m45.4906,109.6481c-22.7453,0-41.2436-18.4983-41.2436-41.2436S22.7453,27.1609,45.4906,27.1609s41.2436,18.4983,41.2436,41.2436-18.4983,41.2436-41.2436,41.2436h0Zm0-86.7342C20.3858,22.9138,0,43.2997,0,68.4045s20.3858,45.4906,45.4906,45.4906,45.4906-20.3859,45.4906-45.4906-20.3858-45.4907-45.4906-45.4907h0Z"></path><path d="m65.4046,90.5835v-9.4379h0v-25.5767h0v-9.4379c6.229,5.5683,9.9098,13.5905,9.9098,22.179,0,8.6829-3.6808,16.7051-9.9098,22.2734h0Zm-4.2471-13.6849h-31.2394v-17.0826h31.2394v17.0826h0Zm-35.5808,13.7793c-6.3234-5.5683-10.0042-13.5905-10.0042-22.2734s3.6808-16.7051,10.0042-22.2734v44.5468h0Zm38.6953-50.6815h-3.1145v15.5725h-31.2394v-15.5725h-3.2089c-9.1547,6.1346-15.2894,16.5163-15.2894,28.4081s6.1347,22.2734,15.2894,28.408h3.2089v-15.5725h31.2394v15.5725h3.1145c9.2492-6.1346,15.2894-16.5163,15.2894-28.408s-6.0402-22.2734-15.2894-28.4081h0Z"></path></svg>