<?xml version="1.0" encoding="utf-8"?>
<!-- Generator: Adobe Illustrator 18.0.0, SVG Export Plug-In . SVG Version: 6.00 Build 0)  -->
<!DOCTYPE svg PUBLIC "-//W3C//DTD SVG 1.1//EN" "http://www.w3.org/Graphics/SVG/1.1/DTD/svg11.dtd">
<svg version="1.1" id="Ebene_1" xmlns="http://www.w3.org/2000/svg" xmlns:xlink="http://www.w3.org/1999/xlink" x="0px" y="0px"
	 viewBox="0 0 640 270" enable-background="new 0 0 640 270" xml:space="preserve">
<g>
	<path fill-rule="evenodd" clip-rule="evenodd" d="M100.9,243.5v-84.4h15.4v84.4H100.9L100.9,243.5z M100.9,143.6v-15.3h15.4v15.3
		H100.9z"/>
	<polygon fill-rule="evenodd" clip-rule="evenodd" points="141.3,243.5 141.3,120.6 156.6,120.6 156.6,199.3 193.1,159.1 
		208.6,159.1 174.9,196.6 217,243.5 196.4,243.5 156.6,199.5 156.6,243.5 	"/>
	<polygon fill-rule="evenodd" clip-rule="evenodd" points="229.6,243.5 229.6,120.6 244.9,120.6 244.9,199.3 281.5,159.1 
		296.7,159.1 263.2,196.6 305.3,243.5 284.6,243.5 244.9,199.5 244.9,243.5 	"/>
	<path d="M376,122.4v39.2c0,7.1-1.6,12.3-4.9,15.7c-3.6,3.9-9.5,5.9-17.6,5.9c-2.4,0-4.8-0.2-7.2-0.6c-2.4-0.4-4.7-1-6.9-1.8
		l0.9-6.9c2.1,1,4.4,1.8,6.7,2.4c2.4,0.6,4.7,0.9,7.1,0.9c5.4,0,9.1-1.5,11.3-4.5c1.7-2.4,2.5-6,2.5-10.8l0.5-4.8h-0.5
		c-1.3,2.8-3.3,5.1-5.9,6.7c-2.7,1.7-5.5,2.5-8.6,2.5c-6.1,0-10.6-2.2-13.7-6.7c-2.6-3.9-4-8.9-4-15.2c0-6.3,1.6-11.6,4.7-15.8
		c3.5-4.7,8.3-7.1,14.5-7.1c5.3,0,9.6,2,12.9,6h0.5v-5H376z M367.9,152.1v-19.2c-1.5-1.7-3.3-3.1-5.3-4c-2-1-4.2-1.4-6.4-1.4
		c-4.1,0-7.2,1.7-9.2,5.2c-1.7,3-2.6,7.1-2.6,12.3c0,4.2,0.7,7.5,2,9.9c1.8,3.1,4.6,4.6,8.3,4.6c2.5,0,4.9-0.7,7.2-2
		C364.1,156,366.1,154.2,367.9,152.1z"/>
	<path d="M422,145.6h-27.6c0,4.8,1.3,8.6,3.8,11.4c2.5,2.8,6.3,4.2,11.1,4.2c4.2,0,8.4-1,12.7-2.9v6.4c-2.4,0.7-4.8,1.3-7.2,1.8
		c-2.5,0.4-5,0.7-7.7,0.7c-8,0-13.8-2.9-17.5-8.7c-2.5-4-3.8-8.8-3.8-14.2c0-6.2,1.6-11.4,4.8-15.7c3.6-4.8,8.4-7.2,14.4-7.2
		c6.4,0,11,2.6,13.8,7.8C420.9,133.3,422,138.8,422,145.6z M394.6,140.2h18.8c0-3.6-0.6-6.5-1.7-8.6c-1.5-2.8-4-4.1-7.3-4.1
		c-3.2,0-5.7,1.4-7.5,4.1C395.4,133.9,394.6,136.8,394.6,140.2z"/>
	<path d="M430.5,164.8v-7.4c2.1,1,4.4,2,6.9,2.7c2.5,0.8,4.7,1.2,6.7,1.2c2.1,0,4-0.5,5.5-1.6c1.8-1.3,2.7-2.9,2.7-4.9
		c0-2.4-1.8-4.5-5.4-6.1c-1.8-0.9-3.6-1.7-5.3-2.6c-1.8-0.8-3.5-1.7-5.3-2.5c-3.8-2.5-5.6-5.8-5.6-10c0-4,1.4-7.1,4.1-9.1
		c2.7-2.1,6.5-3.1,11.3-3.1c0.9,0,1.8,0,2.6,0.1c0.9,0.1,1.7,0.1,2.5,0.2c2.4,0.4,4.3,0.8,5.8,1v6.6c-2.1-0.7-4-1.2-5.6-1.5
		c-1.6-0.3-3.4-0.5-5.2-0.5c-2.1,0-3.9,0.5-5.5,1.4c-1.6,0.9-2.4,2.3-2.4,4.3c0,2.2,1.9,4.1,5.7,5.9c3.3,1.5,5.8,2.7,7.6,3.6
		c1.7,0.9,2.7,1.4,3,1.5c3.9,2.6,5.8,5.9,5.8,9.9c0,4.3-1.7,7.7-5.2,10.1c-3.1,2.1-7,3.1-11.5,3.1c-2,0-4.1-0.2-6.2-0.6
		C435.4,166.2,433,165.6,430.5,164.8z"/>
	<path d="M508.7,166.3h-8.1l0.5-8.2h-0.5c-1.9,2.8-4.2,5-7,6.7c-2.8,1.6-5.8,2.4-8.9,2.4c-3.8,0-6.8-1.2-9.1-3.7
		c-2.2-2.4-3.4-5.4-3.4-8.9v-32.2h8.1v31.2c0,2.1,0.6,3.7,1.7,4.9c1.1,1.2,2.6,1.8,4.5,1.8c2.9,0,5.6-1,8.2-2.9
		c2.2-1.6,4.1-3.8,5.9-6.6v-28.4h8.1V166.3z"/>
	<path d="M529.3,122.4l-0.5,8.2h0.5c2-2.8,4.3-5,6.8-6.5c3-1.8,6-2.7,9.2-2.7c3.8,0,6.8,1.3,9.2,3.9c2.2,2.4,3.3,5.4,3.3,8.8v32.2
		h-8.1v-31.2c0-2.1-0.6-3.7-1.7-4.9c-1.1-1.2-2.6-1.8-4.6-1.8c-2.9,0-5.6,1-8.3,2.9c-2.2,1.6-4.2,3.8-5.9,6.6v28.4h-8.1v-43.9H529.3
		z"/>
	<path d="M600.6,166.3l0.5-8.2h-0.5c-1.5,3-3.5,5.2-6.1,6.8c-2.5,1.5-5.5,2.3-8.8,2.3c-5.9,0-10.3-2.2-13.4-6.6
		c-2.6-3.9-3.9-8.9-3.9-15c0-6.5,1.5-11.9,4.4-16.3c3.5-5.2,8.3-7.9,14.4-7.9c2.9,0,5.4,0.5,7.6,1.4c2.2,0.9,4.1,2.4,5.8,4.6h0.5
		l-0.5-6v-19h8.1v63.9H600.6z M600.6,153.1v-20.1c-1.1-1-2.1-1.8-3.1-2.5c-0.9-0.7-1.7-1.2-2.4-1.6c-2-1-4.2-1.5-6.6-1.5
		c-4.1,0-7.1,2-9.2,5.9c-1.6,3-2.4,6.8-2.4,11.4c0,5.8,1,10,3.1,12.5c1.7,2.1,4.1,3.1,7.1,3.1c2.5,0,4.9-0.7,7.4-2.2
		C596.7,157,598.7,155.3,600.6,153.1z"/>
	<path d="M479.8,201.3l-0.5,7.8h0.5c1.5-2.8,3.4-5,5.9-6.5c2.4-1.5,5.3-2.2,8.5-2.2c5.7,0,10.1,2.1,13,6.4c2.5,3.6,3.7,8.3,3.7,14.3
		c0,6.2-1.4,11.3-4.2,15.5c-3.3,4.9-7.9,7.4-13.9,7.4c-2.8,0-5.2-0.4-7.3-1.3c-2.1-0.9-4-2.3-5.7-4.4h-0.5l0.5,5.7v14.3H472v-57
		H479.8z M479.8,213.9v19.1c1.1,0.9,2.1,1.7,3,2.4c0.9,0.6,1.7,1.1,2.3,1.5c1.8,0.9,4,1.4,6.4,1.4c4,0,6.9-1.9,8.9-5.6
		c1.5-2.9,2.3-6.5,2.3-10.9c0-5.5-1-9.5-3-11.9c-1.6-2-3.9-3-6.9-3c-2.4,0-4.8,0.7-7.2,2C483.6,210.2,481.6,211.8,479.8,213.9z"/>
	<path d="M521.2,243.9v-60.8h8v60.8H521.2z"/>
	<path d="M574.2,243.1h-7.7l0.5-7.8h-0.5c-1.8,2.7-4,4.8-6.7,6.4c-2.6,1.6-5.5,2.3-8.5,2.3c-3.6,0-6.5-1.2-8.7-3.5
		c-2.1-2.3-3.2-5.1-3.2-8.4v-30.7h7.7v29.8c0,2,0.5,3.6,1.6,4.7c1.1,1.1,2.5,1.7,4.3,1.7c2.7,0,5.3-0.9,7.9-2.8
		c2.1-1.5,3.9-3.6,5.6-6.3v-27.1h7.7V243.1z"/>
	<path d="M584.1,241.7v-7.1c2,1,4.1,1.9,6.4,2.6c2.3,0.7,4.4,1.1,6.3,1.1c2,0,3.7-0.5,5.2-1.5c1.7-1.2,2.5-2.8,2.5-4.6
		c0-2.3-1.7-4.3-5-5.8c-1.7-0.8-3.3-1.7-5-2.4c-1.6-0.8-3.3-1.6-4.9-2.4c-3.5-2.4-5.3-5.5-5.3-9.5c0-3.8,1.3-6.7,3.8-8.7
		c2.6-2,6.1-3,10.5-3c0.8,0,1.7,0,2.5,0.1c0.8,0.1,1.6,0.1,2.3,0.2c2.2,0.4,4.1,0.7,5.4,0.9v6.3c-2-0.6-3.7-1.1-5.3-1.4
		c-1.5-0.3-3.1-0.5-4.9-0.5c-1.9,0-3.6,0.4-5.1,1.3c-1.5,0.9-2.2,2.2-2.2,4.1c0,2.1,1.8,3.9,5.3,5.6c3.1,1.5,5.4,2.6,7.1,3.4
		c1.6,0.8,2.6,1.3,2.8,1.5c3.6,2.5,5.4,5.6,5.4,9.5c0,4.1-1.6,7.3-4.9,9.6c-2.9,2-6.5,3-10.8,3c-1.9,0-3.8-0.2-5.8-0.6
		C588.6,243,586.4,242.4,584.1,241.7z"/>
	<path fill-rule="evenodd" clip-rule="evenodd" fill="#00B2FF" d="M278.2,59.1C238.4,17.4,149.2,30.7,88.9,87.7
		C39,134.8,32,191.1,63.6,221.6c-37-31.8-30.3-93.2,25.2-144.5c65.7-60.6,163.6-75.5,207-31.2c24.7,25.2,19.8,64.6,0.2,99.8h10.1
		c21.3-37.9,26.3-79.6,0.5-107.9C259.4-13.7,150.5,1.7,78.1,70.7c-64.2,61.2-64.7,133.8-12.8,164.6c5.6,3.3,11.6,6.1,18,8.3V222
		c-37.7-27-33.6-84.4,17.4-131.8C158.2,36.6,243,24,281.4,62.7C281.4,62.7,279.4,60.3,278.2,59.1z"/>
</g>
</svg>
