<svg width="330" height="67" viewBox="0 0 330 67" aria-hidden="true" xmlns="http://www.w3.org/2000/svg" class="h-9 fill-current lg:h-[39px] hidden max-w-full sm:block w-auto"><title>BIG direkt gesund</title><path d="M54.902 18.633c-8.764 0-14.06 6.026-14.06 14.79s4.565 14.971 13.877 14.971c9.312 0 6.756-.547 8.764-1.643V31.597s-2.19-.548-3.651-.548c-1.461 0-3.652.548-3.652.548v11.868c-.365 0-1.278.365-2.191.365-3.287 0-5.66-3.834-5.66-10.407s2.556-10.043 7.12-10.408c2.922-.182 6.574 1.096 6.574 1.096 1.278-1.096 1.643-2.191 1.46-3.835 0 0-4.2-1.825-8.581-1.825h-.183M28.427 17.173v32.682s2.191.548 3.652.548c1.46 0 3.651-.548 3.651-.548V17.173s-2.19-.548-3.651-.548c-1.46 0-3.652.548-3.652.548ZM.674 20.276H.492V46.57h.182c2.374 1.278 6.573 1.825 10.773 1.825 7.486 0 12.416-2.556 12.416-8.581 0-6.025-2.922-6.025-5.478-7.12 2.191-.914 4.565-2.922 4.565-6.391 0-3.47-3.835-7.851-11.868-7.851-8.034 0-8.217.73-10.408 1.643m7.121 23.37V23.382c.73 0 2.374-.183 3.287-.183 3.103 0 4.382 1.278 4.382 3.834s-3.47 4.017-3.47 4.017c-.547 1.46-.365 2.556 0 4.017 0 0 4.2.913 4.2 4.564 0 3.652-1.643 4.2-4.747 4.2s-2.739 0-3.47-.365M58.736 52.411c-5.842 8.217-15.52 13.694-26.474 13.694-10.956 0-20.633-5.477-26.475-13.694h10.042a25.211 25.211 0 0 0 16.615 6.208c6.39 0 12.05-2.373 16.615-6.208h10.042-.365ZM5.604 14.799C11.447 6.583 21.124 1.105 32.08 1.105c10.955 0 20.632 5.478 26.474 13.694H48.511a25.212 25.212 0 0 0-16.615-6.208c-6.39 0-12.05 2.374-16.615 6.208H5.239h.365ZM324.396 18.086V29.77c-1.461-2.374-3.834-3.652-6.39-3.652-5.295 0-9.312 4.2-9.312 10.955 0 6.756 3.286 10.955 9.129 10.955s5.112-1.278 6.573-3.651v3.286h5.112V17.72h-5.112v.366Zm-5.295 25.927c-2.921 0-5.112-2.557-5.112-6.573 0-4.017 2.373-6.756 5.295-6.756 2.921 0 5.295 1.826 5.295 6.573s-2.374 6.938-5.295 6.938m-27.753-17.71h-5.112v21.544h5.112V36.527c0-4.017 2.191-6.026 4.747-6.026s3.834 1.461 3.834 4.2v13.146h5.113V33.605c0-4.747-2.739-7.486-6.939-7.486-4.199 0-5.477 1.461-6.573 4.017v-3.651h-.182Zm-14.972 0v11.502c0 4.2-1.826 6.026-4.747 6.026-2.922 0-3.652-1.461-3.652-4.2V26.484h-5.112v14.607c0 4.565 2.556 7.121 6.938 7.121s5.477-1.278 6.573-3.652v3.47h5.112V26.483h-5.112Zm-18.076.73c-1.278-.548-3.286-.913-5.477-.913-4.382 0-7.852 2.19-7.852 6.39 0 4.2 2.374 5.113 4.748 6.026 2.373 1.095 4.564 1.825 4.564 3.469 0 1.643-1.095 2.008-2.921 2.008-1.826 0-4.565-.913-6.208-1.826v4.565c1.278.73 3.834 1.278 6.39 1.278 4.748 0 7.852-2.374 7.852-6.39 0-4.017-2.374-4.748-4.93-6.026-2.191-1.095-4.382-1.826-4.382-3.469 0-1.643 1.095-2.008 2.739-2.008 1.643 0 4.016.547 5.295 1.278v-4.565l.182.183ZM240.59 42.369c-1.461 1.096-3.469 1.644-5.66 1.644-3.469 0-5.843-1.644-6.756-4.748h13.511c0-.73.366-2.19.366-3.104 0-6.755-3.652-9.86-9.13-9.86-5.477 0-9.859 3.835-9.859 10.956 0 7.12 4.017 10.955 11.137 10.955 7.121 0 4.93-.365 6.391-1.46v-4.383Zm-3.469-6.755h-8.947c.548-3.47 2.556-5.295 4.93-5.295 2.374 0 4.017 2.008 4.199 4.564v.548l-.182.183Zm-22.823-9.13v3.104c-1.096-2.008-3.104-3.286-6.026-3.286-5.295 0-8.764 4.564-8.764 10.772s4.382 10.408 8.764 10.408 4.748-1.096 6.026-3.104v1.826c0 3.834-2.009 5.66-5.843 5.66s-5.112-.73-6.938-2.009v5.113c2.373 1.095 4.93 1.46 7.486 1.46 5.66 0 10.407-3.104 10.407-10.224V26.667h-5.112v-.183Zm-4.93 16.616c-2.556 0-4.565-2.009-4.565-6.208 0-4.2 1.826-6.39 4.748-6.39 2.921 0 4.747 1.825 4.747 6.572 0 4.748-2.191 5.843-4.93 5.843M180.885 30.32h5.295v-3.834h-5.295v-5.113h-5.113v5.113h-3.286v3.834h3.286V41.09c0 4.565 2.191 6.938 6.939 6.938 4.747 0 2.738-.182 3.834-.73v-4.382c-.913.548-2.009.913-2.921.913-1.644 0-2.739-.913-2.739-2.739V30.136v.183Zm-9.86 17.71-8.033-11.137 7.851-10.225H165l-7.486 10.042V18.633h-5.112V48.03h5.112V36.892l7.669 11.137h6.025-.183Zm-24.101-5.66c-1.461 1.096-3.469 1.644-5.66 1.644-3.469 0-5.843-1.644-6.756-4.748h13.512c0-.73.365-2.19.365-3.104 0-6.755-3.652-9.86-9.129-9.86-5.478 0-9.86 3.835-9.86 10.956 0 7.12 4.017 10.955 11.138 10.955 7.12 0 4.929-.365 6.39-1.46v-4.383Zm-3.469-6.755h-8.947c.548-3.47 2.557-5.295 4.93-5.295 2.374 0 4.017 2.008 4.2 4.564v.548l-.183.183Zm-22.275-9.13h-5.113V48.03h5.113V36.892c0-3.287 1.826-5.843 4.747-5.843s1.461 0 2.191.365v-4.93h-1.461c-2.738 0-4.564 1.644-5.477 4.017v-4.017Zm-15.702-6.39c0 1.826 1.278 3.104 3.103 3.104 1.826 0 3.104-1.278 3.104-3.104s-1.278-3.104-3.104-3.104c-1.825 0-3.103 1.278-3.103 3.104Zm.547 27.935h5.113V26.484h-5.113V48.03ZM95.983 18.086V29.77c-1.46-2.374-3.834-3.652-6.39-3.652-5.295 0-9.312 4.2-9.312 10.955 0 6.756 3.286 10.955 9.13 10.955 5.842 0 5.111-1.278 6.572-3.651v3.286h5.112V17.72h-5.112v.366Zm-5.295 25.927c-2.921 0-5.112-2.557-5.112-6.573 0-4.017 2.373-6.756 5.295-6.756 2.921 0 5.295 1.826 5.295 6.573s-2.374 6.938-5.295 6.938"></path></svg>