<?xml version="1.0" encoding="UTF-8" standalone="no"?>
<!-- Created with Inkscape (http://www.inkscape.org/) -->

<svg
   xmlns:dc="http://purl.org/dc/elements/1.1/"
   xmlns:cc="http://creativecommons.org/ns#"
   xmlns:rdf="http://www.w3.org/1999/02/22-rdf-syntax-ns#"
   xmlns:svg="http://www.w3.org/2000/svg"
   xmlns="http://www.w3.org/2000/svg"
   xmlns:sodipodi="http://sodipodi.sourceforge.net/DTD/sodipodi-0.dtd"
   xmlns:inkscape="http://www.inkscape.org/namespaces/inkscape"
   width="98.777779mm"
   height="29.475883mm"
   viewBox="0 0 350 104.44211"
   id="svg33000"
   version="1.1"
   inkscape:version="0.91 r13725"
   sodipodi:docname="logo.svg">
  <defs
     id="defs33002" />
  <sodipodi:namedview
     id="base"
     pagecolor="#ffffff"
     bordercolor="#666666"
     borderopacity="1.0"
     inkscape:pageopacity="0.0"
     inkscape:pageshadow="2"
     inkscape:zoom="0.35"
     inkscape:cx="1874.7371"
     inkscape:cy="-1176.424"
     inkscape:document-units="px"
     inkscape:current-layer="layer1"
     showgrid="false"
     fit-margin-top="0"
     fit-margin-left="0"
     fit-margin-right="0"
     fit-margin-bottom="0"
     inkscape:window-width="1920"
     inkscape:window-height="1137"
     inkscape:window-x="-8"
     inkscape:window-y="-8"
     inkscape:window-maximized="1" />
  <metadata
     id="metadata33005">
    <rdf:RDF>
      <cc:Work
         rdf:about="">
        <dc:format>image/svg+xml</dc:format>
        <dc:type
           rdf:resource="http://purl.org/dc/dcmitype/StillImage" />
        <dc:title></dc:title>
      </cc:Work>
    </rdf:RDF>
  </metadata>
  <g
     inkscape:label="Ebene 1"
     inkscape:groupmode="layer"
     id="layer1"
     transform="translate(2124.0228,748.50389)">
    <g
       transform="matrix(2.1854416,0,0,-2.1854416,-2104.7756,-697.22034)"
       id="g27295"
       inkscape:export-xdpi="90"
       inkscape:export-ydpi="90">
      <path
         inkscape:connector-curvature="0"
         id="path27297"
         style="fill:#ff8f00;fill-opacity:1;fill-rule:nonzero;stroke:none"
         d="m 0,0 c 0,-1.787 -1.182,-2.617 -3.699,-2.617 -0.452,0 -0.704,0 -1.736,0.025 l 0,4.982 1.686,0 c 1.333,0 2.164,-0.1 2.592,-0.352 C -0.427,1.661 0,0.906 0,0 M -0.881,7.171 C -0.881,6.492 -1.107,5.989 -1.56,5.586 -2.063,5.158 -2.592,5.032 -3.875,5.032 l -1.56,0 0,4.051 c 1.081,0.025 1.309,0.025 1.585,0.025 2.164,0 2.969,-0.528 2.969,-1.937 m 4.48,-7.272 c 0,2.214 -1.234,3.523 -3.826,4.026 1.862,0.604 2.769,1.736 2.769,3.523 0,1.484 -0.503,2.591 -1.511,3.346 -1.031,0.781 -2.49,1.057 -5.56,1.057 -0.654,0 -1.334,-0.025 -1.888,-0.051 l -2.012,-0.074 -0.378,0 0,-16.96 0.453,0 c 3.044,-0.126 3.044,-0.126 3.926,-0.126 2.767,0 4.177,0.227 5.459,0.881 1.612,0.805 2.568,2.44 2.568,4.378 m 17.385,-5.209 -6.392,10.82 5.235,6.29 -3.8,0 -5.611,-6.869 0,6.869 -3.548,0 0,-17.11 3.548,0 0,5.763 1.988,2.44 4.73,-8.203 3.85,0 z m 9.661,10.82 5.233,6.29 -3.798,0 -5.612,-6.869 0,6.869 -3.548,0 0,-17.11 3.548,0 0,5.763 1.988,2.44 4.731,-8.203 3.849,0 -6.391,10.82 z" />
    </g>
    <path
       inkscape:connector-curvature="0"
       id="path27299"
       style="fill:#006daf;fill-opacity:1;fill-rule:nonzero;stroke:none"
       d="m -1984.7981,-712.34155 -4.8932,0 0,26.72586 4.8932,0 0,-26.72586 z m -8.9625,-8.46864 1.5386,-3.68452 c -1.8686,-0.87858 -3.3548,-1.26322 -5.4441,-1.26322 -6.047,0 -9.1284,3.13384 -9.1284,9.23567 l 0,4.18071 -4.5633,0 0,3.73933 4.5633,0 0,22.98653 4.8954,0 0,-22.98653 7.6993,0 0,-3.73933 -7.6993,0 0,-3.73935 c 0,-4.12379 1.3745,-5.93993 4.5085,-5.93993 1.2631,0 2.5286,0.44136 3.63,1.21064 m 3.9032,3.41159 5.2253,0 0,-5.60789 -5.2253,0 0,5.60789 z m 25.5128,9.40171 1.3201,-4.34466 c -0.8786,-0.49395 -1.8686,-0.71463 -2.9701,-0.71463 -3.6825,0 -6.4886,2.74938 -7.2578,7.20316 -0.1089,-3.63002 -0.1089,-3.96001 -0.2186,-6.48853 l -4.4015,0 0,0.65997 c 0.1117,3.46401 0.1683,5.2779 0.1683,6.76405 l 0,19.30184 4.891,0 0,-12.04401 c 0,-6.70717 2.4193,-11.21785 6.0494,-11.21785 0.9899,0 1.7614,0.27533 2.4192,0.88066 m 36.8925,22.3812 4.8932,0 0,-17.76328 c 0,-6.5432 -2.5832,-9.67721 -7.8611,-9.67721 -4.29,0 -7.2053,2.14388 -8.4686,6.32476 -0.7168,-4.12623 -3.3568,-6.32476 -7.5901,-6.32476 -4.5653,0 -7.367,2.31009 -8.6871,7.09404 -0.056,-1.75942 -0.1131,-3.90555 -0.1682,-6.37941 l -4.3971,0 c 0.1089,2.25543 0.164,4.67465 0.164,5.27996 l 0,21.4459 4.8954,0 0,-11.9873 c 0,-6.76388 3.0246,-11.71385 7.0939,-11.71385 2.8585,0 4.0692,1.97992 4.0692,6.59784 l 0,17.10331 4.8932,0 0,-11.9873 c 0,-6.76388 3.0269,-11.71385 7.0941,-11.71385 2.8585,0 4.0692,1.97992 4.0692,6.59784 l 0,17.10331 z m 29.58,0 4.126,0 c -0.166,-2.037 -0.33,-6.70939 -0.33,-9.29481 l 0,-17.43105 -4.8954,0 0,9.67928 c 0,4.17862 -0.4939,7.42178 -1.4292,9.51118 -1.2633,2.86058 -3.5733,4.51069 -6.1587,4.51069 -1.5954,0 -2.9699,-0.71687 -3.6277,-1.8139 -0.5507,-1.04686 -0.7716,-2.36681 -0.7716,-4.78619 l 0,-17.10106 -4.8385,0 0,17.76104 c 0,3.40934 0.3846,5.05928 1.4861,6.60009 1.3725,2.03457 3.6803,3.07935 6.5978,3.07935 3.3547,0 5.9947,-1.32011 7.7519,-3.73933 0.6075,-0.93325 0.826,-1.42925 1.5974,-3.40936 0.164,2.97007 0.2186,3.40936 0.4919,6.43407 m 24.4135,-21.61192 1.7615,-3.57538 c -2.3648,-1.53856 -4.7294,-2.25319 -7.5901,-2.25319 -5.8286,0 -9.4018,2.74938 -9.4018,7.25782 0,3.19074 1.4293,4.94998 5.7193,6.87319 4.2332,1.98009 4.6179,2.14612 5.6078,2.9154 1.3747,1.04686 1.8708,1.92544 1.8708,3.3547 0,2.47386 -1.9822,4.12398 -5.0046,4.12398 -2.1987,0 -4.5655,-0.99014 -6.8755,-2.8061 l -1.8138,3.57538 c 2.8039,1.97992 5.3325,2.86074 8.5231,2.86074 6.1587,0 9.9548,-3.07935 9.9548,-8.02934 0,-3.96001 -1.8686,-6.04942 -7.6447,-8.41175 -5.0048,-2.09146 -5.8286,-2.69695 -5.8286,-4.61998 0,-2.14406 1.9779,-3.57556 4.8932,-3.57556 1.9821,0 3.96,0.82617 5.8286,2.31009"
       inkscape:export-xdpi="90"
       inkscape:export-ydpi="90" />
    <g
       transform="matrix(2.1854416,0,0,-2.1854416,-1788.3793,-744.56582)"
       id="g27301"
       inkscape:export-xdpi="90"
       inkscape:export-ydpi="90">
      <path
         inkscape:connector-curvature="0"
         id="path27303"
         style="fill:none;stroke:#ff8f00;stroke-width:1.778;stroke-linecap:butt;stroke-linejoin:miter;stroke-miterlimit:10;stroke-dasharray:none;stroke-opacity:1"
         d="m 0,0 c 7.581,-7.581 7.581,-19.872 0,-27.452 -7.58,-7.581 -19.871,-7.581 -27.451,0" />
    </g>
    <g
       transform="matrix(2.1854416,0,0,-2.1854416,-1792.6158,-723.80621)"
       id="g27305"
       inkscape:export-xdpi="90"
       inkscape:export-ydpi="90">
      <path
         inkscape:connector-curvature="0"
         id="path27307"
         style="fill:#ff8f00;fill-opacity:1;fill-rule:nonzero;stroke:none"
         d="m 0,0 c 0,0.275 -0.027,0.545 -0.041,0.817 0.665,-1.548 1.037,-3.252 1.037,-5.044 0,-7.06 -5.724,-12.783 -12.783,-12.783 -1.926,0 -3.745,0.437 -5.383,1.2 0.428,-0.035 0.858,-0.065 1.294,-0.065 C -7.108,-15.875 0,-8.768 0,0 m 3.742,-4.227 c 0,8.576 -6.953,15.528 -15.529,15.528 -8.577,0 -15.53,-6.952 -15.53,-15.528 0,-8.577 6.953,-15.529 15.53,-15.529 8.576,0 15.529,6.952 15.529,15.529" />
    </g>
    <path
       inkscape:connector-curvature="0"
       id="path27309"
       style="fill:#8599d0;fill-opacity:1;fill-rule:nonzero;stroke:none"
       d="m -1856.5039,-650.58964 3.1033,0 0,-3.16245 -3.1033,0 0,3.16245 z m 0.5223,-5.71718 2.1177,0 0.5223,-14.01309 -3.1623,0 0.5223,14.01309 z m -10.5033,-12.59245 0,4.20691 -2.439,0 0,1.97354 2.4106,0 -0.057,7.9221 c 0,1.24582 0.1131,2.17458 0.4044,2.81265 0.5507,1.16048 1.7397,1.77028 3.4814,1.77028 1.2764,0 2.1461,-0.23172 3.1908,-0.84135 l -0.8109,-1.91457 c -0.6971,0.5529 -1.2762,0.78238 -1.8292,0.78238 -0.8413,0 -1.5363,-0.4917 -1.7112,-1.21944 -0.1159,-0.40429 -0.1464,-0.92652 -0.1464,-1.76803 l 0.059,-7.54402 4.0627,0 0,-1.97354 -4.0343,0 0,-4.9893 -2.581,0.78239 z m -4.9631,4.20691 -2.5788,0 0,5.10739 c 0,2.20508 -0.2644,3.91622 -0.7562,5.01997 -0.6688,1.51012 -1.8861,2.37767 -3.2498,2.37767 -0.8413,0 -1.5669,-0.37584 -1.9144,-0.9572 -0.2907,-0.54844 -0.4086,-1.24788 -0.4086,-2.52422 l 0,-9.02361 -2.5526,0 0,9.37118 c 0,1.8008 0.2031,2.67059 0.7823,3.48143 0.7256,1.07529 1.945,1.62596 3.4836,1.62596 1.7702,0 3.1601,-0.69721 4.0911,-1.97354 0.3192,-0.4917 0.4349,-0.75394 0.8415,-1.79631 0.087,1.56683 0.1159,1.79631 0.2622,3.394 l 2.1745,0 c -0.087,-1.07529 -0.1748,-3.54055 -0.1748,-4.90411 l 0,-9.19861 z m -17.7852,6.09303 c -0.059,2.11992 -0.2031,3.07712 -0.697,4.00589 -0.5792,1.15823 -1.6544,1.88613 -2.7843,1.88613 -2.0609,0 -3.4246,-2.08941 -3.4246,-5.16653 0,-3.394 1.6238,-5.22307 4.6419,-5.22307 0.7845,0 1.4227,0.11559 2.3231,0.4655 l -0.059,4.03208 z m 2.4084,-5.68874 c -0.4065,-0.0844 -0.813,-0.20103 -1.1888,-0.28843 -1.3354,-0.34964 -2.4674,-0.49396 -3.6847,-0.49396 -4.6157,0 -7.083,2.55473 -7.083,7.28197 0,4.32501 2.2073,7.05231 5.7193,7.05231 2.0587,0 3.453,-1.01392 3.9163,-2.84316 0.057,0.90031 0.087,1.27632 0.087,1.82924 0,1.85544 -0.1464,2.78419 -0.6098,3.71296 -0.6098,1.27632 -1.8554,2.00199 -3.4814,2.00199 -1.3658,0 -2.699,-0.49189 -4.1217,-1.53856 l -0.9572,2.00406 c 1.5669,1.01392 3.2214,1.50787 5.1664,1.50787 2.6399,0 4.7008,-1.10358 5.6864,-3.01816 0.5813,-1.13202 0.7824,-2.55249 0.7824,-5.1948 0,-0.60757 -0.029,-1.45115 -0.059,-2.40835 -0.056,-2.087 -0.085,-3.68452 -0.085,-4.23536 0,-1.42047 0.085,-4.75774 0.1443,-5.30841 l -0.2316,-0.0603 z m -40.5356,-0.40429 c 0.061,1.18892 0.087,2.46731 0.087,2.78644 l 0,11.31628 2.5832,0 0,-6.32699 c 0,-3.56658 1.5954,-6.18028 3.7438,-6.18028 1.5079,0 2.1461,1.04668 2.1461,3.48141 l 0,9.02586 2.5831,0 0,-6.32699 c 0,-3.56658 1.5931,-6.18028 3.7415,-6.18028 1.5101,0 2.1483,1.04668 2.1483,3.48141 l 0,9.02586 2.5832,0 0,-9.37343 c 0,-3.45297 -1.3638,-5.10739 -4.1524,-5.10739 -2.262,0 -3.7983,1.13428 -4.467,3.33936 -0.3738,-2.17664 -1.7681,-3.33936 -4.0037,-3.33936 -2.4085,0 -3.888,1.21945 -4.5829,3.74365 -0.03,-0.92651 -0.059,-2.06077 -0.087,-3.36555 l -2.3233,0 z m -4.0321,0 -2.5832,0 0,5.10739 c 0,2.20508 -0.26,3.91622 -0.7539,5.01997 -0.6666,1.51012 -1.8839,2.37767 -3.2498,2.37767 -0.8391,0 -1.567,-0.37584 -1.9144,-0.9572 -0.2908,-0.54844 -0.4065,-1.24788 -0.4065,-2.52422 l 0,-9.02361 -2.5526,0 0,9.37118 c 0,1.8008 0.201,2.67059 0.7823,3.48143 0.7277,1.07529 1.9429,1.62596 3.4836,1.62596 1.7681,0 3.1624,-0.69721 4.0912,-1.97354 0.319,-0.4917 0.4349,-0.75394 0.8393,-1.79631 0.087,1.56683 0.1172,1.79631 0.26,3.394 l 2.1789,0 c -0.086,-1.07529 -0.1749,-3.54055 -0.1749,-4.90411 l 0,-9.19861 z m -18.0168,6.12356 c 0,3.9469 -1.4533,6.38147 -3.772,6.38147 -2.2074,0 -3.6279,-2.14596 -3.6279,-5.45479 0,-3.47918 1.6829,-5.45479 4.6419,-5.45479 0.9288,0 1.8292,0.23379 2.758,0.72549 l 0,3.80262 z m 0,-5.89185 c -0.9004,-0.4043 -1.8576,-0.60981 -3.0203,-0.60981 -4.3796,0 -7.0218,2.87386 -7.0218,7.63161 0,4.46914 2.2358,7.22506 5.8898,7.22506 2.439,0 3.7742,-1.16047 4.4715,-3.85951 0.029,1.13203 0.1158,2.23355 0.2315,3.48366 l 2.2052,0 c -0.059,-1.36597 -0.1749,-4.3819 -0.1749,-4.93257 l 0,-16.07609 -2.581,0 0,7.13765 z m -15.4663,13.87101 2.581,0 0,-9.37343 c 0,-1.82924 -0.2011,-2.69902 -0.7825,-3.51193 -0.7539,-1.07099 -1.945,-1.59546 -3.5688,-1.59546 -2.5832,0 -4.2068,1.30685 -4.9041,3.94916 -0.029,-1.04685 -0.057,-2.20732 -0.1158,-3.57106 l -2.321,0 0,0.31912 c 0.059,2.03026 0.087,2.93282 0.087,3.65624 l 0,10.12736 2.581,0 0,-6.32699 c 0,-3.59711 1.7134,-6.18028 4.1195,-6.18028 0.9288,0 1.567,0.37809 1.9757,1.16254 0.2601,0.52239 0.3475,1.13202 0.3475,2.31887 l 0,9.02586 z m -13.1432,-14.10272 -2.5832,0 0,5.10739 c 0,2.20508 -0.2602,3.91622 -0.7541,5.01997 -0.6666,1.51012 -1.886,2.37767 -3.2496,2.37767 -0.8415,0 -1.567,-0.37584 -1.9168,-0.9572 -0.2884,-0.54844 -0.4042,-1.24788 -0.4042,-2.52422 l 0,-9.02361 -2.5548,0 0,9.37118 c 0,1.8008 0.2055,2.67059 0.7824,3.48143 0.7277,1.07529 1.945,1.62596 3.4858,1.62596 1.7679,0 3.1602,-0.69721 4.0889,-1.97354 0.3191,-0.4917 0.4349,-0.75394 0.8414,-1.79631 0.087,1.56683 0.1159,1.79631 0.2623,3.394 l 2.1744,0 c -0.086,-1.07529 -0.1725,-3.54055 -0.1725,-4.90411 l 0,-9.19861 z m -24.1711,12.97053 c 1.4818,1.04254 2.8149,1.50804 4.4998,1.50804 3.2476,0 5.2495,-1.62596 5.2495,-4.23535 0,-2.0894 -0.9856,-3.19298 -4.0343,-4.43862 -2.6379,-1.10375 -3.0727,-1.4227 -3.0727,-2.43905 0,-1.13202 1.0424,-1.88595 2.581,-1.88595 1.0446,0 2.0893,0.43481 3.0749,1.21943 l 0.931,-1.88596 c -1.25,-0.81307 -2.4958,-1.19117 -4.0059,-1.19117 -3.075,0 -4.9609,1.4534 -4.9609,3.83107 0,1.68286 0.7539,2.61162 3.018,3.62779 2.2335,1.04254 2.4346,1.13219 2.9569,1.53649 0.7256,0.5529 0.9878,1.01617 0.9878,1.77235 0,1.30477 -1.0446,2.17456 -2.64,2.17456 -1.1605,0 -2.4083,-0.52239 -3.6279,-1.4796 l -0.9572,1.88597 z m -11.4015,-7.57471 c 0.4066,-2.43456 1.7681,-3.80037 3.8006,-3.80037 1.7702,0 2.8148,1.16254 2.8148,3.19281 0,0.20102 0,0.31913 -0.029,0.60756 l -6.5869,0 z m 8.1234,5.54238 c -1.1889,1.04685 -2.4957,1.56683 -3.8879,1.56683 -2.6117,0 -4.1764,-1.88597 -4.266,-5.16411 l 8.8794,0 c 0.1749,-0.84135 0.2624,-1.59546 0.2624,-2.46525 0,-3.36763 -1.8862,-5.25377 -5.2539,-5.25377 -3.9753,0 -6.4711,2.81714 -6.4711,7.31248 0,2.08923 0.4655,3.77434 1.3943,5.10739 1.1605,1.65218 2.8432,2.4368 5.3106,2.4368 2.0302,0 3.7721,-0.55067 5.1642,-1.59546 l -1.132,-1.94491 z m -15.9909,-4.84517 c -0.059,2.11992 -0.2032,3.07712 -0.6971,4.00589 -0.5792,1.15823 -1.6522,1.88613 -2.7843,1.88613 -2.0609,0 -3.4246,-2.08941 -3.4246,-5.16653 0,-3.394 1.626,-5.22307 4.6419,-5.22307 0.7845,0 1.4227,0.11559 2.3231,0.4655 l -0.059,4.03208 z m 2.4083,-5.68874 c -0.4065,-0.0844 -0.8107,-0.20103 -1.1888,-0.28843 -1.3354,-0.34964 -2.4673,-0.49396 -3.6847,-0.49396 -4.6135,0 -7.0808,2.55473 -7.0808,7.28197 0,4.32501 2.2052,7.05231 5.7172,7.05231 2.0608,0 3.4507,-1.01392 3.9162,-2.84316 0.057,0.90031 0.087,1.27632 0.087,1.82924 0,1.85544 -0.1443,2.78419 -0.6098,3.71296 -0.6097,1.27632 -1.8575,2.00199 -3.4813,2.00199 -1.3637,0 -2.6991,-0.49189 -4.1196,-1.53856 l -0.9572,2.00406 c 1.567,1.01392 3.2192,1.50787 5.1642,1.50787 2.64,0 4.6987,-1.10358 5.6865,-3.01816 0.5791,-1.13202 0.7846,-2.55249 0.7846,-5.1948 0,-0.60757 -0.03,-1.45115 -0.059,-2.40835 -0.059,-2.087 -0.087,-3.68452 -0.087,-4.23536 0,-1.42047 0.087,-4.75774 0.1463,-5.30841 l -0.2339,-0.0603 z m -24.4309,13.69843 3.3371,0 0,-3.42244 -3.3371,0 0,3.42244 z m -8.1234,0 3.3372,0 0,-3.42244 -3.3372,0 0,3.42244 z m -8.1255,0 3.3372,0 0,-3.42244 -3.3372,0 0,3.42244 z"
       inkscape:export-xdpi="90"
       inkscape:export-ydpi="90" />
  </g>
</svg>
