<?xml version="1.0" encoding="UTF-8" standalone="no"?>
<svg
   xmlns:dc="http://purl.org/dc/elements/1.1/"
   xmlns:cc="http://creativecommons.org/ns#"
   xmlns:rdf="http://www.w3.org/1999/02/22-rdf-syntax-ns#"
   xmlns:svg="http://www.w3.org/2000/svg"
   xmlns="http://www.w3.org/2000/svg"
   xmlns:sodipodi="http://sodipodi.sourceforge.net/DTD/sodipodi-0.dtd"
   xmlns:inkscape="http://www.inkscape.org/namespaces/inkscape"
   version="1.1"
   id="Ebene_1"
   x="0px"
   y="0px"
   viewBox="0 0 566.99998 160"
   xml:space="preserve"
   sodipodi:docname="BAHN-BKK_RGB.svg"
   width="567"
   height="160"
   inkscape:version="1.0.2 (e86c870879, 2021-01-15, custom)"><metadata
   id="metadata31"><rdf:RDF><cc:Work
       rdf:about=""><dc:format>image/svg+xml</dc:format><dc:type
         rdf:resource="http://purl.org/dc/dcmitype/StillImage" /><dc:title></dc:title></cc:Work></rdf:RDF></metadata><defs
   id="defs29" /><sodipodi:namedview
   pagecolor="#ffffff"
   bordercolor="#666666"
   borderopacity="1"
   objecttolerance="10"
   gridtolerance="10"
   guidetolerance="10"
   inkscape:pageopacity="0"
   inkscape:pageshadow="2"
   inkscape:window-width="1680"
   inkscape:window-height="988"
   id="namedview27"
   showgrid="false"
   fit-margin-top="0"
   fit-margin-left="0"
   fit-margin-right="0"
   fit-margin-bottom="0"
   inkscape:zoom="0.41490028"
   inkscape:cx="512.49148"
   inkscape:cy="157.17562"
   inkscape:window-x="-8"
   inkscape:window-y="-8"
   inkscape:window-maximized="1"
   inkscape:current-layer="Ebene_1" />
<style
   type="text/css"
   id="style2">
	.st0{fill:#4B4F54;}
	.st1{fill:#FFB81C;}
</style>
<g
   id="g14"
   transform="translate(-34.9,-92.7)">
	<g
   id="g10">
		<path
   class="st0"
   d="m 200.7,155.9 c 1.6,4.7 -0.9,7.6 -4.8,7.6 -2.4,0 -4.1,-1.6 -5.2,-4.7 l -5.3,-14 h -29.6 l -5.3,14 c -1.1,3.1 -2.9,4.7 -5.4,4.7 -3.7,0 -6.3,-3 -4.7,-7.5 l 21.1,-56.9 c 1.5,-4.3 4.5,-6.4 9.1,-6.4 4.6,0 7.7,2.1 9.2,6.4 z m -29.9,-53 h -0.3 l -11.9,33.4 h 24.1 z"
   id="path4" />
		<path
   class="st0"
   d="M 271.5,98.7 V 158 c 0,3.5 -2.2,5.6 -5.5,5.6 -3.2,0 -5.4,-2 -5.4,-5.6 V 133.2 H 224.5 V 158 c 0.6,7.3 -11.6,7.5 -10.9,0 V 98.7 c -0.7,-7.4 11.5,-7.4 10.9,0 v 25.4 h 36.1 V 98.7 c 0,-3.6 2.2,-5.6 5.4,-5.6 3.3,0 5.5,2 5.5,5.6 z"
   id="path6" />
		<path
   class="st0"
   d="m 344.9,98.7 v 57.9 c 0,4.4 -2.5,7 -6.9,7 -2.8,0 -5.2,-1.6 -7.1,-4.7 l -32.3,-49.2 h -0.2 l 0.5,22.6 v 25.6 c 0,3.6 -2.3,5.6 -5.6,5.6 -3.2,0 -5.3,-2 -5.3,-5.6 v -58 c 0,-4.3 2.3,-6.8 6.6,-6.8 2.8,0 5.2,1.5 7.1,4.4 l 32.6,49.1 h 0.2 L 334,123.8 V 98.7 c 0,-3.6 2.2,-5.6 5.5,-5.6 3.2,0 5.4,2 5.4,5.6 z"
   id="path8" />
	</g>
	<path
   class="st0"
   d="m 107.1,93.3 c 12.7,0 21,7 21,18.5 0,8.9 -5.1,14.2 -10.7,15.8 7.5,1.5 13.3,7.3 13.3,16.8 0,5.9 -2.1,10.6 -6.2,14 -4.1,3.3 -9.1,5 -15,5 H 80.7 c -3.5,0 -5.2,-1.7 -5.2,-5.2 V 98.6 c 0,-3.4 1.7,-5.2 5.2,-5.3 z m -20.8,9 v 21.4 h 20.2 c 6.3,0 10.4,-4.4 10.4,-10.5 0,-6.7 -4.9,-11 -10.9,-10.9 z m 0,29.7 v 22.3 h 21.5 c 6.7,0 11.5,-4.4 11.5,-11.1 0,-6.3 -4.2,-11.2 -11.4,-11.2 z"
   id="path12" />
</g>
<g
   id="g22"
   transform="translate(-34.9,-92.7)">
	<path
   class="st1"
   d="m 400.6,93.3 c 12.7,0 21,7 21,18.5 0,8.9 -5.1,14.2 -10.7,15.8 7.5,1.5 13.3,7.3 13.3,16.8 0,5.9 -2.1,10.6 -6.2,14 -4.1,3.3 -9.1,5 -15,5 h -28.8 c -3.5,0 -5.2,-1.7 -5.2,-5.2 V 98.6 c 0,-3.4 1.7,-5.2 5.2,-5.3 z m -20.8,9 v 21.4 H 400 c 6.3,0 10.4,-4.4 10.4,-10.5 0,-6.7 -4.9,-11 -10.9,-10.9 z m 0,29.7 v 22.3 h 21.5 c 6.7,0 11.5,-4.4 11.5,-11.1 0,-6.3 -4.2,-11.2 -11.4,-11.2 z"
   id="path16" />
	<path
   class="st1"
   d="m 492,154.8 -25.4,-32.2 21.3,-21.1 c 1.1,-1.1 1.6,-2.1 1.6,-3.4 0,-2.4 -2.2,-5 -5.4,-5 -1.5,0 -2.6,0.5 -3.5,1.6 l -31.7,32.1 -0.3,-0.1 0.3,-28 c 0.6,-7.4 -11.6,-7.4 -10.9,0 V 158 c -0.6,7.4 11.6,7.4 10.9,0 v -18 l 10.1,-9.9 24.1,31.2 c 0.7,1 2,2.2 4.4,2.2 3.5,0 5.7,-2.9 5.7,-5.6 0,-1.1 -0.3,-2 -1.2,-3.1 z"
   id="path18" />
	<path
   class="st1"
   d="m 560.2,154.8 -25.4,-32.2 21.3,-21.1 c 1.1,-1.1 1.6,-2.1 1.6,-3.4 0,-2.4 -2.2,-5 -5.4,-5 -1.5,0 -2.6,0.5 -3.5,1.6 l -31.8,32.1 -0.3,-0.1 0.3,-28 c 0.6,-7.4 -11.6,-7.4 -10.9,0 V 158 c -0.6,7.4 11.6,7.4 10.9,0 v -18 l 10.1,-9.9 24.1,31.2 c 0.7,1 2,2.2 4.4,2.2 3.5,0 5.7,-2.9 5.7,-5.6 0.1,-1.1 -0.3,-2 -1.1,-3.1 z"
   id="path20" />
</g>
<path
   class="st1"
   d="m 283.5,140.5 c -103,0 -283.5,-40 -283.5,-40 0.1,2.8 2.5,5.1 22.3,11.3 37.1,11.7 143.2,48.2 261.2,48.2 118,0 224,-36.5 261.2,-48.2 19.8,-6.2 22.2,-8.5 22.3,-11.3 0,-0.1 -180.5,40 -283.5,40 z"
   id="path24" />
</svg>
