<?xml version="1.0" encoding="utf-8"?>
<!-- Generator: Adobe Illustrator 21.0.2, SVG Export Plug-In . SVG Version: 6.00 Build 0)  -->
<!DOCTYPE svg PUBLIC "-//W3C//DTD SVG 1.1//EN" "http://www.w3.org/Graphics/SVG/1.1/DTD/svg11.dtd">
<svg version="1.1" id="Ebene_1" xmlns="http://www.w3.org/2000/svg" xmlns:xlink="http://www.w3.org/1999/xlink" x="0px" y="0px"
	 viewBox="0 0 420 143.3" style="enable-background:new 0 0 420 143.3;" xml:space="preserve">
<style type="text/css">
	.st0{fill:#202F58;}
</style>
<g>
	<g>
		<path class="st0" d="M44,81.6c-3.5,0-5.8-0.4-6.8-1.1c-0.8-0.6-1.2-1.6-1.2-3.1V23.4H18.5c-1.5,0-2.6-0.2-3.1-0.5
			c-0.4-0.3-0.7-0.6-0.9-1.1c-0.1-0.4-0.2-1.1-0.2-1.9c0-1.5,0.1-3,0.4-4.4c0.3-1.4,0.6-2.5,1.1-3.4c0.4-0.8,1-1.2,1.7-1.5
			c0.7-0.2,1.7-0.3,2.8-0.3h49c0.9,0,1.6,0,2.1,0.1c0.5,0.1,0.9,0.2,1.1,0.4c0.4,0.3,0.7,0.6,0.8,1.1c0.1,0.4,0.2,1.1,0.2,1.9
			c0,1-0.1,2.3-0.4,4c-0.3,1.7-0.6,2.9-1.1,3.9c-0.4,0.8-1,1.2-1.7,1.5c-0.7,0.2-1.7,0.3-2.8,0.3H51.8v53.9c0,0.9-0.1,1.5-0.3,1.9
			c-0.2,0.4-0.5,0.8-0.9,1.2C49.6,81.2,47.4,81.6,44,81.6z"/>
		<path class="st0" d="M109.5,82.7c-5.1,0-9.4-0.6-13-1.9c-3.6-1.2-6.6-3-8.9-5.2c-2.3-2.2-4-4.8-5.1-7.8c-1.1-3-1.6-6.3-1.6-9.8
			V14.2c0-0.9,0.1-1.5,0.3-2c0.2-0.4,0.5-0.8,0.9-1.1c1-0.8,3.2-1.1,6.8-1.1c3.4,0,5.6,0.4,6.7,1.1c0.8,0.6,1.1,1.6,1.1,3.1v43.6
			c0,1.7,0.2,3.3,0.7,4.7c0.5,1.4,1.2,2.7,2.3,3.7c1,1,2.4,1.8,4,2.3c1.6,0.6,3.6,0.8,5.9,0.8c3.3,0,6-0.6,8.1-1.8
			c2-1.2,3.3-2.7,3.9-4.5c0.6-1.8,0.9-3.6,0.9-5.3V14.2c0-0.9,0.1-1.5,0.3-2c0.2-0.4,0.5-0.8,0.9-1.1c1-0.8,3.2-1.1,6.8-1.1
			c3.4,0,5.6,0.4,6.7,1.1c0.8,0.6,1.1,1.6,1.1,3.1V58c0,3.5-0.5,6.8-1.6,9.8c-1.1,3-2.8,5.6-5.1,7.8c-2.3,2.2-5.3,3.9-8.9,5.2
			C118.9,82,114.6,82.7,109.5,82.7z"/>
		<path class="st0" d="M160.6,81.6c-3.5,0-5.8-0.4-6.8-1.1c-0.8-0.7-1.2-1.7-1.2-3.1V14.2c0-0.9,0.1-1.5,0.3-2
			c0.2-0.4,0.5-0.8,0.9-1.1c1-0.8,3.2-1.1,6.8-1.1c3.5,0,5.7,0.4,6.7,1.1c0.4,0.3,0.7,0.7,0.9,1.1c0.2,0.4,0.3,1.1,0.3,2v63.2
			c0,0.9-0.1,1.5-0.3,1.9c-0.2,0.4-0.5,0.8-0.9,1.2C166.3,81.2,164.1,81.6,160.6,81.6z"/>
		<path class="st0" d="M217.3,81.2c-1.8,0-3.1-0.1-4-0.3c-0.9-0.2-1.6-0.5-2.1-0.9c-0.4-0.3-0.7-0.7-0.9-1.3
			c-0.2-0.5-0.4-1.3-0.4-2.2V15c0-0.9,0.1-1.6,0.4-2.2c0.2-0.5,0.5-1,0.9-1.3c0.5-0.4,1.2-0.7,2.1-0.9c0.9-0.2,2.3-0.3,4-0.3h21.5
			c5.1,0,9.4,0.9,13,2.6c3.5,1.8,6,4,7.5,6.6c1.4,2.7,2.2,5.3,2.2,8c0,4-0.7,7.2-2,9.7c-1.4,2.5-3.4,4.4-6.1,5.9
			c2.9,1.1,5.2,2.6,7,4.3c1.8,1.7,3,3.7,3.7,5.9c0.7,2.2,1.1,4.4,1.1,6.7c0,3.3-0.6,6.2-1.7,8.8c-1.2,2.6-2.8,4.8-5.1,6.7
			c-2.2,1.8-5,3.3-8.2,4.2c-3.3,1-7,1.5-11.2,1.5H217.3z M225.3,37.9h10.6c2.9,0,5-0.5,6.5-1.4c1.5-0.9,2.4-2,2.7-3.3
			c0.3-1.2,0.5-2.3,0.5-3.3c0-2.3-0.7-4.1-2.2-5.3c-1.5-1.2-3.8-1.8-6.9-1.8h-11.1V37.9z M225.3,68.6h12c2.1,0,3.9-0.2,5.4-0.7
			c1.5-0.5,2.7-1.2,3.6-2c0.9-0.9,1.6-1.9,2-3c0.4-1.2,0.6-2.4,0.6-3.7c0-2.2-0.5-4-1.5-5.3c-1-1.3-2.4-2.2-4.4-2.7
			c-1.9-0.5-4-0.7-6.3-0.7h-11.5V68.6z"/>
		<path class="st0" d="M284.5,81.6c-3.5,0-5.8-0.4-6.8-1.1c-0.8-0.7-1.2-1.7-1.2-3.1V14.2c0-0.9,0.1-1.5,0.3-2
			c0.2-0.4,0.5-0.8,0.9-1.1c1-0.8,3.2-1.1,6.8-1.1c3.5,0,5.7,0.4,6.7,1.1c0.4,0.3,0.7,0.7,0.9,1.1c0.2,0.4,0.3,1.1,0.3,2v23.6
			l21.5-25c1-1.1,2.1-1.9,3.5-2.3c1.4-0.4,3.4-0.6,6-0.6c1.8,0,3.2,0.2,4.4,0.5c1.2,0.3,2,0.6,2.5,0.9c0.8,0.4,1.1,1.2,1.1,2.1
			c0,0.6-0.3,1.2-0.8,1.9c-0.5,0.7-1.2,1.6-2.1,2.6l-22.6,26l25.1,29.6c1.9,2.2,2.8,3.7,2.8,4.5c0,0.5-0.1,0.9-0.3,1.3
			c-0.2,0.3-0.5,0.6-0.9,0.9c-0.4,0.3-1.3,0.5-2.7,0.9c-1.4,0.3-2.9,0.5-4.7,0.5c-1,0-2,0-3-0.1c-1,0-1.9-0.2-2.7-0.4
			c-0.9-0.2-1.7-0.5-2.5-1c-0.8-0.4-1.5-1-2.1-1.8l-22.8-27.5v26.4c0,0.9-0.1,1.5-0.3,1.9c-0.2,0.4-0.5,0.8-0.9,1.2
			C290.2,81.2,288,81.6,284.5,81.6z"/>
		<path class="st0" d="M349.9,81.6c-3.5,0-5.8-0.4-6.8-1.1c-0.8-0.7-1.2-1.7-1.2-3.1V14.2c0-0.9,0.1-1.5,0.3-2
			c0.2-0.4,0.5-0.8,0.9-1.1c1-0.8,3.2-1.1,6.8-1.1c3.5,0,5.7,0.4,6.7,1.1c0.4,0.3,0.7,0.7,0.9,1.1c0.2,0.4,0.3,1.1,0.3,2v23.6
			l21.5-25c1-1.1,2.1-1.9,3.5-2.3c1.4-0.4,3.4-0.6,6-0.6c1.8,0,3.2,0.2,4.4,0.5c1.2,0.3,2,0.6,2.5,0.9c0.8,0.4,1.1,1.2,1.1,2.1
			c0,0.6-0.3,1.2-0.8,1.9c-0.5,0.7-1.2,1.6-2.1,2.6l-22.6,26l25.1,29.6c1.9,2.2,2.8,3.7,2.8,4.5c0,0.5-0.1,0.9-0.3,1.3
			c-0.2,0.3-0.5,0.6-0.9,0.9c-0.4,0.3-1.3,0.5-2.7,0.9c-1.4,0.3-2.9,0.5-4.7,0.5c-1,0-2,0-3-0.1c-1,0-1.9-0.2-2.7-0.4
			c-0.9-0.2-1.7-0.5-2.5-1c-0.8-0.4-1.5-1-2.1-1.8l-22.8-27.5v26.4c0,0.9-0.1,1.5-0.3,1.9c-0.2,0.4-0.5,0.8-0.9,1.2
			C355.6,81.2,353.4,81.6,349.9,81.6z"/>
	</g>
	<g>
		<path class="st0" d="M23.4,135.7c-2.1,0-3.9-0.3-5.4-0.8c-1.5-0.5-2.5-1.2-3-2c-0.5-0.8-0.8-1.6-0.8-2.5c0-0.5,0.1-1,0.3-1.4
			c0.2-0.4,0.4-0.8,0.7-1.1c0.3-0.3,0.6-0.5,1-0.8c0.4-0.2,0.7-0.4,1.1-0.5c-0.4-0.3-0.7-0.7-0.9-1.1c-0.2-0.4-0.4-0.9-0.4-1.4
			c0-0.6,0.2-1.2,0.5-1.7s0.8-0.9,1.4-1.1c-1.1-0.6-1.9-1.3-2.4-2.3c-0.5-1-0.8-2-0.8-3.1c0-1.5,0.4-2.7,1.3-3.8
			c0.9-1.1,2-1.8,3.2-2.2c1.3-0.4,2.6-0.6,3.8-0.6c0.8,0,1.5,0.1,2.3,0.2s1.4,0.3,1.9,0.5c1.1-0.9,1.9-1.4,2.3-1.7
			c0.7-0.4,1.1-0.5,1.4-0.5c0.4,0,0.7,0.1,1,0.4c0.3,0.2,0.5,0.5,0.7,0.8c0.4,0.6,0.7,1.2,0.7,1.6c0,0.3-0.1,0.6-0.4,0.8
			c-0.2,0.2-0.5,0.4-0.9,0.6l-1.5,0.7c0.3,0.5,0.5,1,0.6,1.6c0.1,0.6,0.2,1.2,0.2,1.8c0,1.4-0.4,2.7-1.3,3.8
			c-0.9,1.1-1.9,1.8-3.1,2.2c-1.2,0.4-2.3,0.6-3.4,0.6c-0.6,0-1.2-0.1-2-0.2c-0.2,0.1-0.3,0.2-0.4,0.4c-0.1,0.2-0.1,0.3-0.1,0.5
			c0,0.2,0.1,0.4,0.3,0.6c0.2,0.2,0.6,0.3,1.1,0.4l3.9,0.4c1.1,0.1,2,0.3,2.8,0.5c0.8,0.2,1.5,0.5,2.1,0.9c0.6,0.4,1,0.9,1.3,1.6
			c0.3,0.6,0.5,1.4,0.5,2.4c0,1.4-0.5,2.6-1.5,3.5c-1,0.9-2.3,1.5-3.8,1.8C26.3,135.6,24.8,135.7,23.4,135.7z M23.8,132.1
			c1.3,0,2.3-0.2,2.9-0.5s0.9-0.7,0.9-1.1c0-0.4-0.1-0.7-0.4-0.9s-0.8-0.4-1.5-0.5l-5-0.7c-0.4,0.2-0.6,0.4-0.9,0.7
			c-0.2,0.3-0.3,0.6-0.3,1c0,0.6,0.4,1.1,1.1,1.4C21.3,131.9,22.4,132.1,23.8,132.1z M23.2,119c0.7,0,1.2-0.2,1.7-0.5
			c0.4-0.3,0.8-0.7,0.9-1.2c0.2-0.5,0.3-0.9,0.3-1.2c0-0.9-0.2-1.6-0.7-2.1s-1.2-0.8-2.1-0.8c-0.5,0-1,0.1-1.4,0.2
			c-0.4,0.1-0.7,0.4-0.9,0.6c-0.2,0.3-0.4,0.6-0.5,0.9c-0.1,0.3-0.2,0.7-0.2,1.1c0,0.8,0.2,1.5,0.7,2.1
			C21.4,118.7,22.2,119,23.2,119z"/>
		<path class="st0" d="M43.5,128c-1.4,0-2.6-0.2-3.7-0.6c-1.1-0.4-2.1-1-2.9-1.8c-0.8-0.8-1.4-1.8-1.9-2.9c-0.4-1.1-0.7-2.4-0.7-3.9
			c0-1.4,0.2-2.7,0.6-3.8c0.4-1.2,1-2.1,1.8-3c0.8-0.8,1.7-1.5,2.9-1.9c1.1-0.5,2.5-0.7,3.9-0.7c1.4,0,2.6,0.2,3.7,0.7
			c1,0.5,1.9,1.1,2.6,1.9c0.7,0.8,1.2,1.7,1.5,2.8c0.3,1.1,0.5,2.2,0.5,3.4c0,1.1-0.2,1.8-0.5,2.1c-0.2,0.2-0.4,0.3-0.8,0.4
			c-0.4,0.1-0.9,0.1-1.5,0.1h-9c0.1,0.4,0.2,0.7,0.5,1.1c0.2,0.3,0.5,0.6,0.9,0.8c0.4,0.2,0.8,0.4,1.3,0.6c0.5,0.1,1.1,0.2,1.8,0.2
			c1,0,1.9-0.1,2.5-0.2c0.3-0.1,0.6-0.1,0.9-0.2c0.3-0.1,0.6-0.1,1-0.1c0.4,0,0.7,0.1,0.8,0.4c0.2,0.3,0.4,0.6,0.6,1
			c0.3,0.6,0.4,1.2,0.4,1.6c0,0.2-0.1,0.4-0.2,0.7c-0.1,0.2-0.5,0.4-1.1,0.6c-0.5,0.2-1,0.3-1.6,0.5c-0.6,0.1-1.3,0.2-2,0.3
			C45.1,128,44.3,128,43.5,128z M39.9,116.8h6.6c0-0.8-0.2-1.4-0.5-2c-0.3-0.6-0.8-0.9-1.3-1.1c-0.5-0.2-1-0.3-1.4-0.3
			c-0.7,0-1.3,0.2-1.8,0.5c-0.5,0.3-0.9,0.8-1.2,1.3C40.1,115.8,39.9,116.3,39.9,116.8z"/>
		<path class="st0" d="M62,128c-1.2,0-2.4-0.1-3.5-0.3c-1.1-0.2-2-0.4-2.6-0.7c-0.6-0.3-1.1-0.5-1.4-0.6c-0.5-0.3-0.7-0.5-0.8-0.8
			c-0.1-0.2-0.2-0.4-0.2-0.7c0-0.3,0.1-0.5,0.2-0.8c0.1-0.3,0.3-0.6,0.4-0.9c0.4-0.7,0.9-1,1.2-1c0.3,0,1.2,0.3,2.6,0.9
			c0.5,0.2,1.1,0.3,1.8,0.4c0.7,0.1,1.4,0.2,2.2,0.2c0.8,0,1.4-0.1,1.8-0.4c0.4-0.3,0.5-0.6,0.5-1c0-0.3-0.1-0.6-0.3-0.8
			c-0.2-0.2-0.6-0.3-1-0.4s-0.9-0.2-1.4-0.3l-1.9-0.4c-0.7-0.1-1.5-0.3-2.2-0.6c-0.7-0.3-1.3-0.6-1.9-1c-0.5-0.4-1-0.9-1.3-1.5
			c-0.3-0.6-0.5-1.3-0.5-2.2c0-1.4,0.4-2.5,1.3-3.5c0.8-0.9,1.9-1.6,3.1-1.9c1.2-0.3,2.4-0.5,3.6-0.5c1.2,0,2.3,0.1,3.3,0.3
			c1.1,0.2,1.9,0.4,2.7,0.7c0.5,0.2,0.8,0.4,1,0.6c0.1,0.2,0.2,0.4,0.2,0.7c0,0.3-0.1,0.8-0.4,1.5c-0.1,0.3-0.3,0.6-0.5,0.9
			c-0.2,0.3-0.5,0.4-0.8,0.4c-0.4,0-0.8-0.1-1.2-0.2c-0.4-0.1-0.9-0.3-1.4-0.4c-1.2-0.2-2.2-0.3-3.1-0.3c-0.7,0-1.3,0.1-1.6,0.3
			s-0.4,0.5-0.4,0.9c0,0.4,0.2,0.7,0.7,0.9c0.5,0.2,1.1,0.4,1.8,0.5l2,0.4c1.4,0.3,2.5,0.6,3.4,1.1c0.9,0.5,1.6,1.1,2,1.8
			c0.4,0.8,0.6,1.6,0.6,2.6c0,1-0.2,1.9-0.6,2.7c-0.4,0.8-1,1.4-1.7,1.9c-0.7,0.5-1.6,0.9-2.6,1.1C64.3,127.9,63.2,128,62,128z"/>
		<path class="st0" d="M79,128c-0.9,0-1.7-0.1-2.4-0.4c-0.7-0.3-1.4-0.7-1.9-1.2c-0.5-0.5-1-1.2-1.3-2s-0.5-1.7-0.5-2.8v-10.4
			c0-0.3,0-0.6,0.1-0.7c0.1-0.2,0.2-0.3,0.3-0.5c0.2-0.1,0.4-0.3,0.8-0.3c0.4-0.1,0.9-0.1,1.6-0.1c1.3,0,2.1,0.1,2.5,0.4
			c0.3,0.3,0.4,0.7,0.4,1.2v9.3c0,0.7,0.1,1.2,0.4,1.6c0.3,0.4,0.6,0.7,0.9,0.8c0.3,0.1,0.7,0.1,1.1,0.1c0.6,0,1.2-0.2,1.8-0.6
			c0.5-0.4,0.9-0.8,1.1-1.3s0.3-1,0.3-1.4v-8.6c0-0.3,0-0.6,0.1-0.7c0.1-0.2,0.2-0.3,0.3-0.5c0.2-0.1,0.5-0.3,0.8-0.3
			c0.4-0.1,0.9-0.1,1.6-0.1c1.3,0,2.1,0.1,2.5,0.4c0.2,0.1,0.3,0.3,0.4,0.5c0.1,0.2,0.1,0.4,0.1,0.7v14.9c0,0.3,0,0.6-0.1,0.8
			c-0.1,0.2-0.2,0.3-0.4,0.5c-0.2,0.1-0.4,0.2-0.8,0.3c-0.4,0.1-0.9,0.1-1.6,0.1c-0.7,0-1.2,0-1.6-0.1c-0.4-0.1-0.6-0.2-0.8-0.3
			c-0.3-0.2-0.4-0.6-0.4-1.2v-0.8c-0.3,0.6-0.8,1.1-1.4,1.5c-0.6,0.4-1.2,0.7-1.9,0.9C80.4,127.9,79.7,128,79,128z"/>
		<path class="st0" d="M97.5,127.8c-0.7,0-1.2,0-1.6-0.1c-0.4-0.1-0.7-0.2-0.9-0.3c-0.3-0.2-0.4-0.6-0.4-1.2v-14
			c0-0.8,0.1-1.3,0.4-1.6c0.2-0.2,0.4-0.3,0.8-0.4c0.4-0.1,0.7-0.2,1.1-0.3c1.1-0.2,1.8-0.3,2.1-0.3c0.2,0,0.4,0,0.6,0.1
			c0.2,0,0.3,0.1,0.4,0.2c0.2,0.2,0.3,0.7,0.3,1.4v0.9c0.3-0.5,0.7-1,1.3-1.5c0.6-0.4,1.2-0.7,1.9-0.9c0.7-0.2,1.4-0.3,2.2-0.3
			c1.4,0,2.5,0.3,3.5,0.9c1,0.6,1.6,1.4,2,2.4c0.4,1,0.5,2,0.5,3.1v10.4c0,0.3,0,0.6-0.1,0.8c-0.1,0.2-0.2,0.3-0.4,0.4
			c-0.3,0.3-1.2,0.4-2.5,0.4c-0.7,0-1.2,0-1.6-0.1c-0.4-0.1-0.7-0.2-0.8-0.3c-0.3-0.2-0.4-0.6-0.4-1.2v-9.3c0-0.9-0.2-1.6-0.6-2
			c-0.4-0.4-1-0.6-1.7-0.6c-0.7,0-1.3,0.2-1.8,0.6c-0.5,0.4-0.9,0.8-1.1,1.3c-0.2,0.5-0.3,1-0.3,1.4v8.6c0,0.3,0,0.6-0.1,0.8
			c-0.1,0.2-0.2,0.3-0.3,0.4C99.6,127.6,98.8,127.8,97.5,127.8z"/>
		<path class="st0" d="M122.9,128c-1,0-1.9-0.2-2.8-0.6c-0.9-0.4-1.7-0.9-2.4-1.6c-0.8-0.8-1.4-1.8-1.8-3c-0.4-1.2-0.6-2.6-0.6-4.1
			c0-1.5,0.2-2.8,0.6-3.9c0.4-1.2,0.9-2.1,1.6-2.9c0.7-0.8,1.5-1.4,2.4-1.8c0.9-0.4,2-0.6,3.1-0.6c0.9,0,1.7,0.1,2.4,0.4
			c0.7,0.2,1.3,0.5,1.7,0.9c0.4,0.3,0.7,0.6,0.8,0.8v-8.8c0-0.4,0-0.7,0.1-1c0.1-0.2,0.2-0.5,0.4-0.6c0.2-0.3,0.9-0.5,2-0.7
			c1.1-0.2,1.8-0.3,2.1-0.3c0.2,0,0.4,0,0.6,0.1c0.2,0,0.3,0.1,0.4,0.2c0.2,0.2,0.3,0.7,0.3,1.4v24.5c0,0.3,0,0.6-0.1,0.8
			c-0.1,0.2-0.2,0.3-0.4,0.5c-0.2,0.1-0.4,0.2-0.8,0.3c-0.4,0.1-0.9,0.1-1.6,0.1c-0.7,0-1.2,0-1.5-0.1c-0.4-0.1-0.6-0.2-0.8-0.3
			c-0.3-0.2-0.4-0.6-0.4-1.2v-0.6c-0.3,0.5-0.7,0.9-1.3,1.3c-0.6,0.4-1.2,0.7-1.9,0.9C124.2,127.9,123.5,128,122.9,128z M124.6,123
			c1,0,1.8-0.4,2.4-1.1s0.9-1.9,0.9-3.3c0-0.9-0.2-1.7-0.5-2.4c-0.3-0.7-0.8-1.1-1.3-1.4c-0.5-0.3-1-0.4-1.5-0.4
			c-0.8,0-1.5,0.2-2,0.7c-0.5,0.5-0.9,1-1.1,1.6c-0.2,0.6-0.3,1.3-0.3,1.9c0,0.7,0.1,1.3,0.2,1.8c0.2,0.5,0.4,1,0.7,1.4
			c0.3,0.4,0.7,0.7,1.1,0.9C123.6,122.9,124.1,123,124.6,123z"/>
		<path class="st0" d="M156.4,123.7c-0.7,0-1.2,0-1.6-0.1c-0.4-0.1-0.6-0.2-0.8-0.3c-0.2-0.1-0.3-0.3-0.3-0.4
			c-0.1-0.2-0.1-0.4-0.1-0.7v-4.6h-4c-0.3,0-0.6,0-0.7-0.1c-0.2-0.1-0.3-0.2-0.4-0.3c-0.1-0.1-0.3-0.4-0.3-0.7
			c-0.1-0.3-0.1-0.8-0.1-1.4c0-0.6,0-1.1,0.1-1.4c0.1-0.3,0.2-0.6,0.3-0.7c0.1-0.2,0.3-0.3,0.4-0.4c0.2-0.1,0.4-0.1,0.7-0.1h4v-4.6
			c0-0.3,0-0.6,0.1-0.8c0.1-0.2,0.2-0.3,0.3-0.4c0.2-0.1,0.4-0.3,0.8-0.3c0.4-0.1,0.9-0.1,1.6-0.1c0.7,0,1.2,0,1.6,0.1
			c0.4,0.1,0.7,0.2,0.8,0.3c0.2,0.1,0.3,0.3,0.3,0.4c0.1,0.2,0.1,0.4,0.1,0.8v4.6h3.9c0.3,0,0.6,0,0.8,0.1c0.2,0.1,0.3,0.2,0.4,0.4
			c0.1,0.1,0.3,0.4,0.3,0.7c0.1,0.3,0.1,0.8,0.1,1.4c0,0.6,0,1.1-0.1,1.4c-0.1,0.3-0.2,0.5-0.3,0.7c-0.3,0.3-0.7,0.4-1.2,0.4h-3.9
			v4.6c0,0.3,0,0.6-0.1,0.7c-0.1,0.2-0.2,0.3-0.3,0.4c-0.2,0.1-0.4,0.3-0.8,0.3C157.6,123.7,157.1,123.7,156.4,123.7z"/>
		<path class="st0" d="M183.3,127.8c-0.7,0-1.2,0-1.6-0.1c-0.4-0.1-0.7-0.2-0.8-0.3c-0.3-0.2-0.4-0.6-0.4-1.2v-11.8h-1.7
			c-0.6,0-1-0.1-1.2-0.2c-0.2-0.1-0.4-0.5-0.4-1c0-0.5,0-1,0.1-1.5c0.1-0.5,0.2-1,0.4-1.3c0.1-0.2,0.4-0.4,0.6-0.5
			c0.3-0.1,0.6-0.1,1-0.1h1.1v-2.4c0-1.6,0.3-3,1-4.2c0.7-1.2,1.6-2,2.8-2.5c1.2-0.5,2.4-0.7,3.7-0.7c0.9,0,1.7,0.1,2.5,0.2
			c0.8,0.2,1.5,0.4,2.1,0.7c0.5,0.3,0.8,0.5,1,0.7c0.2,0.2,0.3,0.4,0.3,0.7c0,0.4-0.2,1-0.5,1.7c-0.1,0.2-0.2,0.4-0.3,0.6
			c-0.1,0.2-0.2,0.4-0.3,0.5c-0.1,0.1-0.2,0.3-0.4,0.3c-0.1,0.1-0.3,0.1-0.5,0.1c-0.4,0-0.7-0.1-1.1-0.2c-0.9-0.3-1.7-0.5-2.4-0.5
			c-0.7,0-1.2,0.2-1.6,0.6c-0.4,0.4-0.6,1.1-0.6,2v2.2h3.8c0.6,0,1,0.1,1.2,0.2c0.1,0.1,0.2,0.2,0.3,0.3c0,0.1,0.1,0.4,0.1,0.7
			c0,0.5,0,1-0.1,1.5c-0.1,0.5-0.2,1-0.4,1.3c-0.1,0.2-0.4,0.4-0.6,0.4c-0.3,0.1-0.6,0.1-1,0.1h-3.2v11.8c0,0.3,0,0.6-0.1,0.8
			c-0.1,0.2-0.2,0.3-0.4,0.4C185.4,127.6,184.6,127.8,183.3,127.8z"/>
		<path class="st0" d="M196.7,107.2c-0.5,0-0.9-0.1-1.3-0.2s-0.7-0.4-1.1-0.7c-0.3-0.3-0.5-0.6-0.7-1c-0.2-0.4-0.3-0.8-0.3-1.2
			c0-0.6,0.2-1.1,0.5-1.6c0.3-0.5,0.8-0.9,1.3-1.1c0.5-0.2,1-0.4,1.5-0.4c0.7,0,1.2,0.2,1.8,0.5c0.5,0.3,0.9,0.7,1.2,1.2
			c0.3,0.5,0.4,1,0.4,1.4c0,0.6-0.2,1.2-0.6,1.7s-0.8,0.9-1.3,1.1C197.6,107.1,197.1,107.2,196.7,107.2z M196.7,127.8
			c-0.7,0-1.2,0-1.6-0.1c-0.4-0.1-0.7-0.2-0.9-0.3c-0.3-0.2-0.4-0.6-0.4-1.2v-14c0-0.8,0.1-1.3,0.4-1.6c0.2-0.2,0.5-0.3,0.8-0.4
			c0.4-0.1,0.8-0.2,1.1-0.3c1.1-0.2,1.8-0.3,2.1-0.3c0.2,0,0.4,0,0.6,0.1c0.2,0,0.3,0.1,0.4,0.2c0.2,0.2,0.3,0.7,0.3,1.4v15
			c0,0.3,0,0.6-0.1,0.8c-0.1,0.2-0.2,0.3-0.3,0.4C198.8,127.6,198,127.8,196.7,127.8z"/>
		<path class="st0" d="M211.1,128c-1,0-1.9-0.1-2.6-0.3c-0.7-0.2-1.3-0.5-1.8-0.9c-0.6-0.5-1-1.1-1.3-1.8c-0.3-0.7-0.4-1.5-0.4-2.5
			v-8.2h-1.7c-0.6,0-1-0.1-1.2-0.2c-0.2-0.1-0.4-0.5-0.4-1c0-0.5,0-1,0.1-1.5c0.1-0.5,0.2-1,0.4-1.3c0.1-0.2,0.4-0.4,0.6-0.5
			c0.3-0.1,0.6-0.1,1-0.1h1v-3.3c0-0.8,0.1-1.3,0.4-1.6c0.2-0.2,0.9-0.5,2-0.7c0.9-0.2,1.5-0.3,2.1-0.3c0.2,0,0.4,0,0.5,0.1
			c0.2,0,0.3,0.1,0.4,0.2c0.2,0.2,0.3,0.7,0.3,1.4v4.3h3.7c0.6,0,1,0.1,1.1,0.2c0.3,0.1,0.4,0.5,0.4,1c0,0.5,0,1-0.1,1.5
			c-0.1,0.5-0.2,1-0.4,1.3c-0.1,0.2-0.4,0.4-0.6,0.4c-0.3,0.1-0.6,0.1-1,0.1h-3v7.3c0,0.5,0.1,0.9,0.4,1.1c0.2,0.2,0.5,0.3,1,0.3
			c0.4,0,0.8-0.1,1.2-0.2c0.2-0.1,0.4-0.1,0.6-0.2s0.4-0.1,0.6-0.1c0.4,0,0.8,0.4,1.3,1.2c0.4,0.8,0.6,1.3,0.6,1.7
			c0,0.3-0.1,0.6-0.5,0.9c-0.3,0.3-0.7,0.5-1.1,0.7c-0.3,0.2-0.8,0.4-1.5,0.6C213,127.9,212.1,128,211.1,128z"/>
		<path class="st0" d="M231.9,107.2c-0.5,0-0.9-0.1-1.3-0.2s-0.7-0.4-1.1-0.7c-0.3-0.3-0.5-0.6-0.7-1c-0.2-0.4-0.3-0.8-0.3-1.2
			c0-0.6,0.2-1.1,0.5-1.6c0.3-0.5,0.8-0.9,1.3-1.1c0.5-0.2,1-0.4,1.5-0.4c0.7,0,1.2,0.2,1.8,0.5c0.5,0.3,0.9,0.7,1.2,1.2
			c0.3,0.5,0.4,1,0.4,1.4c0,0.6-0.2,1.2-0.6,1.7s-0.8,0.9-1.3,1.1C232.8,107.1,232.4,107.2,231.9,107.2z M231.9,127.8
			c-0.7,0-1.2,0-1.6-0.1c-0.4-0.1-0.7-0.2-0.9-0.3c-0.3-0.2-0.4-0.6-0.4-1.2v-14c0-0.8,0.1-1.3,0.4-1.6c0.2-0.2,0.5-0.3,0.8-0.4
			c0.4-0.1,0.8-0.2,1.1-0.3c1.1-0.2,1.8-0.3,2.1-0.3c0.2,0,0.4,0,0.6,0.1c0.2,0,0.3,0.1,0.4,0.2c0.2,0.2,0.3,0.7,0.3,1.4v15
			c0,0.3,0,0.6-0.1,0.8c-0.1,0.2-0.2,0.3-0.3,0.4C234,127.6,233.2,127.8,231.9,127.8z"/>
		<path class="st0" d="M242.2,127.8c-0.7,0-1.2,0-1.6-0.1c-0.4-0.1-0.7-0.2-0.9-0.3c-0.3-0.2-0.4-0.6-0.4-1.2v-14
			c0-0.8,0.1-1.3,0.4-1.6c0.2-0.2,0.4-0.3,0.8-0.4c0.4-0.1,0.7-0.2,1.1-0.3c1.1-0.2,1.8-0.3,2.1-0.3c0.2,0,0.4,0,0.6,0.1
			c0.2,0,0.3,0.1,0.4,0.2c0.2,0.2,0.3,0.7,0.3,1.4v0.9c0.3-0.5,0.7-1,1.3-1.4c0.6-0.4,1.2-0.7,1.9-0.9c0.7-0.2,1.3-0.3,2-0.3
			c1.1,0,2,0.2,2.8,0.6c0.8,0.4,1.5,1.1,2,2c0.4-0.5,1-1,1.6-1.4c0.6-0.4,1.3-0.7,2-0.9c0.7-0.2,1.4-0.3,2-0.3
			c1.3,0,2.4,0.3,3.3,0.8c0.9,0.5,1.6,1.3,2,2.2c0.4,0.9,0.6,1.8,0.6,2.9v10.9c0,0.3,0,0.6-0.1,0.8c-0.1,0.2-0.2,0.3-0.3,0.4
			c-0.4,0.3-1.2,0.4-2.5,0.4c-0.7,0-1.2,0-1.6-0.1c-0.4-0.1-0.7-0.2-0.8-0.3c-0.3-0.2-0.4-0.6-0.4-1.2v-9.7c0-0.8-0.2-1.4-0.5-1.7
			c-0.3-0.3-0.9-0.5-1.5-0.5c-0.5,0-1,0.2-1.5,0.5c-0.5,0.3-0.8,0.7-1,1.1c-0.2,0.4-0.3,0.8-0.3,1.2v9c0,0.3,0,0.6-0.1,0.8
			c-0.1,0.2-0.2,0.3-0.4,0.4c-0.3,0.3-1.2,0.4-2.5,0.4c-0.7,0-1.2,0-1.6-0.1c-0.4-0.1-0.7-0.2-0.8-0.3c-0.3-0.2-0.5-0.6-0.5-1.2
			v-9.7c0-0.8-0.2-1.4-0.5-1.7c-0.3-0.3-0.8-0.5-1.5-0.5c-0.5,0-1,0.2-1.5,0.5c-0.5,0.3-0.8,0.7-1,1.1c-0.2,0.4-0.3,0.8-0.3,1.2v9
			c0,0.3,0,0.6-0.1,0.8c-0.1,0.2-0.2,0.3-0.3,0.4C244.4,127.6,243.5,127.8,242.2,127.8z"/>
		<path class="st0" d="M284.5,127.6c-0.7,0-1.2,0-1.6-0.1c-0.4-0.1-0.6-0.2-0.8-0.3c-0.1-0.1-0.3-0.3-0.4-0.5
			c-0.1-0.2-0.1-0.5-0.1-0.8V102c0-0.3,0-0.6,0.1-0.8c0.1-0.2,0.2-0.4,0.4-0.5c0.2-0.1,0.5-0.3,0.8-0.3c0.4-0.1,0.9-0.1,1.6-0.1h8.3
			c2,0,3.6,0.3,5,1c1.4,0.7,2.3,1.5,2.9,2.6c0.6,1,0.8,2.1,0.8,3.1c0,1.5-0.3,2.8-0.8,3.8c-0.5,1-1.3,1.7-2.4,2.3
			c1.1,0.4,2,1,2.7,1.7c0.7,0.7,1.2,1.4,1.5,2.3c0.3,0.8,0.4,1.7,0.4,2.6c0,1.3-0.2,2.4-0.7,3.4c-0.4,1-1.1,1.9-2,2.6
			c-0.9,0.7-1.9,1.3-3.2,1.6c-1.3,0.4-2.7,0.6-4.3,0.6H284.5z M287.6,110.9h4.1c1.1,0,1.9-0.2,2.5-0.5c0.6-0.4,0.9-0.8,1-1.3
			s0.2-0.9,0.2-1.3c0-0.9-0.3-1.6-0.9-2c-0.6-0.5-1.5-0.7-2.7-0.7h-4.3V110.9z M287.6,122.7h4.6c0.8,0,1.5-0.1,2.1-0.3
			c0.6-0.2,1-0.4,1.4-0.8c0.4-0.3,0.6-0.7,0.8-1.2c0.2-0.4,0.2-0.9,0.2-1.4c0-0.9-0.2-1.5-0.6-2c-0.4-0.5-0.9-0.9-1.7-1
			s-1.6-0.3-2.4-0.3h-4.4V122.7z"/>
		<path class="st0" d="M315.1,128c-1.4,0-2.6-0.2-3.7-0.6c-1.1-0.4-2.1-1-2.9-1.8s-1.4-1.8-1.9-2.9c-0.4-1.1-0.7-2.4-0.7-3.9
			c0-1.4,0.2-2.7,0.6-3.8c0.4-1.2,1-2.1,1.8-3c0.8-0.8,1.7-1.5,2.9-1.9c1.1-0.5,2.5-0.7,3.9-0.7c1.4,0,2.6,0.2,3.7,0.7
			c1,0.5,1.9,1.1,2.6,1.9c0.7,0.8,1.2,1.7,1.5,2.8c0.3,1.1,0.5,2.2,0.5,3.4c0,1.1-0.2,1.8-0.5,2.1c-0.2,0.2-0.4,0.3-0.8,0.4
			c-0.4,0.1-0.9,0.1-1.5,0.1h-9c0.1,0.4,0.2,0.7,0.5,1.1s0.5,0.6,0.9,0.8c0.4,0.2,0.8,0.4,1.3,0.6c0.5,0.1,1.1,0.2,1.8,0.2
			c1,0,1.9-0.1,2.5-0.2c0.3-0.1,0.6-0.1,0.9-0.2c0.3-0.1,0.6-0.1,1-0.1c0.4,0,0.7,0.1,0.8,0.4c0.2,0.3,0.4,0.6,0.6,1
			c0.3,0.6,0.4,1.2,0.4,1.6c0,0.2-0.1,0.4-0.2,0.7c-0.1,0.2-0.5,0.4-1.1,0.6c-0.5,0.2-1,0.3-1.6,0.5c-0.6,0.1-1.3,0.2-2,0.3
			C316.7,128,315.9,128,315.1,128z M311.5,116.8h6.6c0-0.8-0.2-1.4-0.5-2c-0.3-0.6-0.8-0.9-1.3-1.1c-0.5-0.2-1-0.3-1.4-0.3
			c-0.7,0-1.3,0.2-1.8,0.5c-0.5,0.3-0.9,0.8-1.2,1.3C311.7,115.8,311.5,116.3,311.5,116.8z"/>
		<path class="st0" d="M333.8,128c-1,0-1.9-0.1-2.6-0.3c-0.7-0.2-1.3-0.5-1.8-0.9c-0.6-0.5-1-1.1-1.3-1.8c-0.3-0.7-0.4-1.5-0.4-2.5
			v-8.2h-1.7c-0.6,0-1-0.1-1.2-0.2c-0.2-0.1-0.4-0.5-0.4-1c0-0.5,0-1,0.1-1.5c0.1-0.5,0.2-1,0.4-1.3c0.1-0.2,0.4-0.4,0.6-0.5
			c0.3-0.1,0.6-0.1,1-0.1h1v-3.3c0-0.8,0.1-1.3,0.4-1.6c0.2-0.2,0.9-0.5,2-0.7c0.9-0.2,1.5-0.3,2.1-0.3c0.2,0,0.4,0,0.5,0.1
			c0.2,0,0.3,0.1,0.4,0.2c0.2,0.2,0.3,0.7,0.3,1.4v4.3h3.7c0.6,0,1,0.1,1.1,0.2c0.3,0.1,0.4,0.5,0.4,1c0,0.5,0,1-0.1,1.5
			c-0.1,0.5-0.2,1-0.4,1.3c-0.1,0.2-0.4,0.4-0.6,0.4c-0.3,0.1-0.6,0.1-1,0.1h-3v7.3c0,0.5,0.1,0.9,0.4,1.1c0.2,0.2,0.5,0.3,1,0.3
			c0.4,0,0.8-0.1,1.2-0.2c0.2-0.1,0.4-0.1,0.6-0.2s0.4-0.1,0.6-0.1c0.4,0,0.8,0.4,1.3,1.2c0.4,0.8,0.6,1.3,0.6,1.7
			c0,0.3-0.1,0.6-0.5,0.9c-0.3,0.3-0.7,0.5-1.1,0.7c-0.3,0.2-0.8,0.4-1.5,0.6C335.7,127.9,334.9,128,333.8,128z"/>
		<path class="st0" d="M344.4,127.8c-0.7,0-1.2,0-1.6-0.1c-0.4-0.1-0.7-0.2-0.9-0.3c-0.3-0.2-0.4-0.6-0.4-1.2v-14
			c0-0.8,0.1-1.3,0.4-1.6c0.2-0.2,0.4-0.3,0.8-0.4c0.4-0.1,0.7-0.2,1.1-0.3c1.1-0.2,1.8-0.3,2.1-0.3c0.2,0,0.4,0,0.6,0.1
			c0.2,0,0.3,0.1,0.4,0.2c0.2,0.2,0.3,0.7,0.3,1.4v0.6c0.2-0.4,0.5-0.7,0.9-1.1c0.4-0.4,0.8-0.7,1.4-0.8c0.5-0.2,1-0.3,1.5-0.3
			c0.5,0,1,0,1.4,0.1c0.4,0.1,0.8,0.2,1.2,0.4c0.4,0.2,0.7,0.4,0.9,0.7c0.2,0.2,0.3,0.5,0.3,0.7c0,0.5-0.2,1.2-0.7,2
			c-0.2,0.4-0.4,0.7-0.7,1c-0.3,0.3-0.5,0.4-0.8,0.4c-0.3,0-0.7-0.1-1.2-0.3c-0.5-0.2-0.9-0.3-1.2-0.3c-0.5,0-0.8,0.1-1.1,0.2
			c-0.3,0.1-0.6,0.3-0.8,0.6c-0.3,0.3-0.5,0.7-0.7,1.1c-0.2,0.4-0.3,1-0.3,1.8v8.1c0,0.3,0,0.6-0.1,0.8c-0.1,0.2-0.2,0.3-0.3,0.4
			C346.5,127.6,345.7,127.8,344.4,127.8z"/>
		<path class="st0" d="M360,107.2c-0.5,0-0.9-0.1-1.3-0.2s-0.7-0.4-1.1-0.7c-0.3-0.3-0.5-0.6-0.7-1c-0.2-0.4-0.3-0.8-0.3-1.2
			c0-0.6,0.2-1.1,0.5-1.6c0.3-0.5,0.8-0.9,1.3-1.1s1-0.4,1.5-0.4c0.7,0,1.2,0.2,1.8,0.5c0.5,0.3,0.9,0.7,1.2,1.2
			c0.3,0.5,0.4,1,0.4,1.4c0,0.6-0.2,1.2-0.6,1.7s-0.8,0.9-1.3,1.1C360.9,107.1,360.4,107.2,360,107.2z M360,127.8
			c-0.7,0-1.2,0-1.6-0.1c-0.4-0.1-0.7-0.2-0.9-0.3c-0.3-0.2-0.4-0.6-0.4-1.2v-14c0-0.8,0.1-1.3,0.4-1.6c0.2-0.2,0.5-0.3,0.8-0.4
			c0.4-0.1,0.8-0.2,1.1-0.3c1.1-0.2,1.8-0.3,2.1-0.3c0.2,0,0.4,0,0.6,0.1c0.2,0,0.3,0.1,0.4,0.2c0.2,0.2,0.3,0.7,0.3,1.4v15
			c0,0.3,0,0.6-0.1,0.8c-0.1,0.2-0.2,0.3-0.3,0.4C362.1,127.6,361.3,127.8,360,127.8z"/>
		<path class="st0" d="M375.6,128c-1.4,0-2.6-0.2-3.7-0.6c-1.1-0.4-2.1-1-2.9-1.8s-1.4-1.8-1.9-2.9c-0.4-1.1-0.7-2.4-0.7-3.9
			c0-1.4,0.2-2.7,0.6-3.8c0.4-1.2,1-2.1,1.8-3c0.8-0.8,1.7-1.5,2.9-1.9c1.1-0.5,2.5-0.7,3.9-0.7c1.4,0,2.6,0.2,3.7,0.7
			c1,0.5,1.9,1.1,2.6,1.9c0.7,0.8,1.2,1.7,1.5,2.8c0.3,1.1,0.5,2.2,0.5,3.4c0,1.1-0.2,1.8-0.5,2.1c-0.2,0.2-0.4,0.3-0.8,0.4
			c-0.4,0.1-0.9,0.1-1.5,0.1h-9c0.1,0.4,0.2,0.7,0.5,1.1c0.2,0.3,0.5,0.6,0.9,0.8c0.4,0.2,0.8,0.4,1.3,0.6c0.5,0.1,1.1,0.2,1.8,0.2
			c1,0,1.9-0.1,2.5-0.2c0.3-0.1,0.6-0.1,0.9-0.2c0.3-0.1,0.6-0.1,1-0.1c0.4,0,0.7,0.1,0.8,0.4c0.2,0.3,0.4,0.6,0.6,1
			c0.3,0.6,0.4,1.2,0.4,1.6c0,0.2-0.1,0.4-0.2,0.7c-0.1,0.2-0.5,0.4-1.1,0.6c-0.5,0.2-1,0.3-1.6,0.5c-0.6,0.1-1.3,0.2-2,0.3
			C377.2,128,376.4,128,375.6,128z M372,116.8h6.6c0-0.8-0.2-1.4-0.5-2c-0.3-0.6-0.8-0.9-1.3-1.1c-0.5-0.2-1-0.3-1.4-0.3
			c-0.7,0-1.3,0.2-1.8,0.5c-0.5,0.3-0.9,0.8-1.2,1.3C372.2,115.8,372.1,116.3,372,116.8z"/>
		<path class="st0" d="M397.8,128c-0.8,0-1.6-0.1-2.4-0.4c-0.8-0.3-1.3-0.6-1.7-1c-0.4-0.4-0.7-0.7-0.8-1v0.6c0,0.3,0,0.6-0.1,0.8
			c-0.1,0.2-0.2,0.3-0.4,0.5c-0.2,0.1-0.4,0.2-0.8,0.3c-0.4,0.1-0.9,0.1-1.5,0.1c-0.7,0-1.2,0-1.6-0.1c-0.4-0.1-0.6-0.2-0.8-0.3
			c-0.3-0.2-0.4-0.6-0.4-1.2v-23.5c0-0.8,0.1-1.3,0.4-1.6c0.3-0.3,0.9-0.5,2-0.7c1.1-0.2,1.8-0.3,2.1-0.3c0.2,0,0.4,0,0.6,0.1
			c0.2,0,0.3,0.1,0.4,0.2c0.2,0.2,0.3,0.7,0.3,1.4v9.8c0.3-0.4,0.7-0.8,1.2-1.1c0.5-0.3,1.1-0.6,1.7-0.7c0.7-0.2,1.3-0.2,2-0.2
			c1.2,0,2.2,0.2,3.1,0.6c0.9,0.4,1.7,1,2.4,1.8c0.7,0.8,1.2,1.7,1.5,2.8c0.3,1.1,0.5,2.4,0.5,3.7c0,1.7-0.2,3.2-0.6,4.4
			c-0.4,1.2-1.1,2.3-1.9,3.1c-0.7,0.7-1.5,1.2-2.4,1.6C400,127.8,399,128,397.8,128z M396.4,123c0.8,0,1.4-0.2,2-0.7
			c0.5-0.5,0.9-1.1,1.1-1.7c0.2-0.7,0.3-1.3,0.3-2c0-0.9-0.2-1.7-0.5-2.4c-0.3-0.6-0.8-1.1-1.3-1.4c-0.5-0.3-1.1-0.4-1.6-0.4
			c-0.8,0-1.4,0.2-2,0.7c-0.5,0.5-0.9,1-1.1,1.6c-0.2,0.6-0.3,1.2-0.3,1.9c0,1.4,0.3,2.5,0.9,3.3C394.6,122.6,395.4,123,396.4,123z"
			/>
	</g>
</g>
</svg>
