<svg role="img" aria-labelledby="pnkIkkLogoSvgTitle" width="180" height="57" viewBox="0 0 257 81" version="1.1" xmlns="http://www.w3.org/2000/svg" xmlns:xlink="http://www.w3.org/1999/xlink">
    <title id="pnkIkkLogoSvgTitle">IKK classic</title>
    <g id="ikk-logo-a" stroke="none" stroke-width="1" fill="none" fill-rule="evenodd">
        <g id="ikk-logo-b" fill-rule="nonzero">
            <g id="ikk-logo-c" transform="translate(0.000000, -1.000000)">
                <path d="M70.06,39.85 C67.75,16.19 49.08,11 40,11 C23.4084237,11.0386154 9.98340207,24.508387 10,41.1 C10,50.62 15.1,63.98 30.88,69.56 L30.88,80.23 C1.25,71.19 -1.78881839e-15,46.29 -1.78881839e-15,41.1 C-0.0246577727,22.9460144 12.1646372,7.04591209 29.7022385,2.35545976 C47.2398398,-2.33499258 65.7389887,5.35744887 74.78,21.1 C79.4,28.98 79.88,35.52 80.26,39.85 L70.06,39.85 Z" id="shape" fill="#0BA1E2"></path>
                <path d="M45.86,29.08 L45.86,40.19 L34.45,40.19 L34.45,29.08 L45.86,29.08 Z M34.45,80.23 L34.45,43.73 L45.86,43.73 L45.86,80.23 L34.45,80.23 Z M59.86,43.73 L59.86,58.87 L69.93,43.73 L80.09,43.73 L70.79,57.15 L81.44,78.7 L81.44,43.73 L91.89,43.73 L91.89,58.87 L102.05,43.73 L112.12,43.73 L102.92,57.15 L114.23,80.23 L102.05,80.23 L95.72,66.63 L91.89,72 L91.89,80.23 L69.93,80.23 L63.7,66.63 L59.86,72 L59.86,80.23 L49.41,80.23 L49.41,43.73 L59.86,43.73 Z M138.49,61.46 C137.34,57.46 134.56,54.94 130.34,54.94 C123.82,54.94 121.13,60.88 121.13,66.53 C121.13,72.18 123.82,78 130.34,78 C135.04,78 138.01,75.22 138.68,70.72 L142,70.72 C140.84,76.72 137.11,80.87 130.2,80.87 C121.48,80.87 117.64,74.65 117.64,66.5 C117.64,58.94 122.05,52.04 130.2,52.04 C136.43,52.04 140.56,55.04 141.52,61.33 L138.45,61.33 L138.49,61.46 Z M145.3,80.23 L145.3,43.73 L148.46,43.73 L148.46,80.23 L145.3,80.23 Z M165.43,64.24 C166.837172,64.1434592 168.223933,63.8506239 169.55,63.37 C170.61,62.89 170.7,61.46 170.7,60.5 C170.7,57.24 168.79,54.94 163.9,54.94 C159.49,54.94 156.51,56.38 155.9,61.07 L152.64,61.07 C153.12,54.66 157.91,52.07 163.86,52.07 C169.42,52.07 173.73,54.27 173.73,60.59 L173.73,75.44 C173.73,77.93 174.4,78.51 177.09,77.55 L177.09,80 C176.292181,80.2963337 175.450804,80.458527 174.6,80.48 C174.114773,80.4659902 173.632255,80.4023247 173.16,80.29 C171.05,80 170.66,78.09 170.66,76.29 C168.08577,79.1918663 164.378863,80.8337053 160.5,80.79 C155.71,80.79 151.39,78.2 151.39,72.93 C151.39,68.33 154.56,65.56 160.98,64.69 L165.43,64.24 Z M170.7,65.86 C168.08961,66.8292363 165.33407,67.3499149 162.55,67.4 C157.76,67.78 154.88,69.5 154.88,73.24 C154.88,76.59 157.76,78.13 160.88,78.13 C165.88,78.13 170.88,75.73 170.88,70.13 L170.88,65.86 L170.7,65.86 Z M181.35,71.61 C182.35,76.31 184.8,78.03 189.5,78.03 C194.2,78.03 196.21,75.64 196.21,72.95 C196.21,64.95 178.66,70.65 178.66,59.95 C178.66,55.45 182.21,52.19 188.25,52.19 C194.29,52.19 198.03,54.59 198.8,60.82 L195.73,60.82 C195.15,56.6 192.28,55.07 188.35,55.07 C184.42,55.07 182.21,56.98 182.21,59.76 C182.21,67.23 199.76,62.54 199.76,73.08 C199.76,78.25 195.06,81.08 188.63,81.08 C182.2,81.08 178.47,76.96 178.28,71.79 L181.35,71.79 L181.35,71.61 Z M205.13,71.61 C206.13,76.31 208.58,78.03 213.28,78.03 C217.98,78.03 220,75.64 220,73 C220,65 202.45,70.7 202.45,60 C202.45,55.5 206,52.24 212.04,52.24 C218.08,52.24 221.82,54.64 222.59,60.87 L219.33,60.87 C218.75,56.65 215.88,55.12 211.94,55.12 C208,55.12 205.8,57 205.8,59.73 C205.8,67.2 223.34,62.51 223.34,73.05 C223.34,78.22 218.65,81.05 212.22,81.05 C205.79,81.05 202.06,76.93 201.87,71.76 L205.13,71.76 L205.13,71.61 Z M226.51,43.73 L229.67,43.73 L229.67,48.42 L226.51,48.42 L226.51,43.73 Z M226.51,52.84 L229.67,52.84 L229.67,80.14 L226.51,80.14 L226.51,52.84 Z M253.45,61.46 C252.3,57.46 249.52,54.94 245.3,54.94 C238.78,54.94 236.1,60.88 236.1,66.53 C236.1,72.18 238.69,78 245.3,78 C250,78 252.97,75.22 253.64,70.72 L257,70.72 C255.85,76.72 252.11,80.87 245.21,80.87 C236.48,80.87 232.65,74.65 232.65,66.5 C232.65,58.94 237.06,52.04 245.21,52.04 C251.44,52.04 255.56,55.04 256.52,61.33 L253.45,61.33 L253.45,61.46 Z" id="ikk" fill="#000000"></path>
            </g>
        </g>
    </g>
</svg>