<svg width="400" height="192" viewBox="0 0 400 192" fill="none" xmlns="http://www.w3.org/2000/svg">
<path d="M192 64.0001V128H336V64.0001H192Z" fill="white"/>
<path d="M208 0H272L336 64.0001H272L208 0Z" fill="#009EE2"/>
<path d="M336 128V64.0001L400 9.15527e-05V64.0001L336 128Z" fill="#009EE2"/>
<path d="M272 128V192H336V128H272Z" fill="#009EE2"/>
<path d="M220.327 84.9363H228.357C229.8 84.9363 230.891 85.2257 231.629 85.8049C232.368 86.3838 232.737 87.2358 232.737 88.3597C232.737 89.5684 232.343 90.4705 231.554 91.0659C230.765 91.662 229.565 91.9598 227.954 91.9598H220.327V84.9363ZM220.327 98.983H228.457C230.169 98.983 231.457 99.323 232.322 100.003C233.186 100.682 233.618 101.694 233.618 103.036C233.618 104.53 233.165 105.591 232.259 106.221C231.352 106.85 229.766 107.165 227.501 107.165H220.327V98.983ZM225.739 114.54C229.162 114.54 231.696 114.406 233.341 114.138C234.986 113.869 236.387 113.416 237.544 112.778C239.256 111.856 240.587 110.555 241.536 108.876C242.482 107.198 242.957 105.319 242.957 103.237C242.957 101.106 242.387 99.323 241.245 97.888C240.104 96.4531 238.459 95.4587 236.312 94.9051C238.192 94.2 239.589 93.1974 240.504 91.8968C241.419 90.5963 241.875 88.9475 241.875 86.9502C241.875 83.7278 240.848 81.3408 238.792 79.7883C236.736 78.2361 233.551 77.4598 229.238 77.4598H211.239V114.54H225.739ZM258.163 114.54V102.885L258.256 96.2446L271.781 114.54H283.109L267.755 94.3019L282.757 77.4598H271.355L258.163 92.867V77.4598H248.824V114.54H258.163ZM295.797 114.54V102.885L295.89 96.2446L309.416 114.54H320.744L305.389 94.3019L320.392 77.4598H308.989L295.797 92.867V77.4598H286.459V114.54H295.797Z" fill="#009EE2"/>
<path d="M0 64.0001V128H192V64.0001H0Z" fill="#009EE2"/>
<path d="M157.522 108.364C156.698 109.198 155.166 110.468 154.087 109.677C153.163 108.997 154.199 104.719 155.086 101.659C155.146 101.451 155.207 101.249 155.263 101.056C155.418 100.549 156.179 98.4448 155.996 98.5051C155.904 98.5371 155.455 98.9963 155.035 99.4435C155.027 99.4504 155.019 99.4595 155.011 99.4683C154.612 99.894 154.245 100.3 154.245 100.3C153.495 101.1 152.434 102.197 151.315 103.225C150.197 104.256 149.021 105.219 148.046 105.76C148.044 105.762 148.04 105.764 148.039 105.764C148.007 105.785 147.975 105.805 147.943 105.822C147.936 105.826 147.93 105.829 147.923 105.833C147.882 105.856 147.843 105.879 147.805 105.9C147.763 105.923 147.723 105.945 147.684 105.966C147.643 105.987 147.604 106.008 147.563 106.028C147.325 106.152 147.097 106.252 146.877 106.324C146.772 106.363 146.667 106.393 146.566 106.418C146.407 106.457 146.254 106.482 146.11 106.493C145.936 106.505 145.773 106.496 145.623 106.464C145.443 106.425 145.284 106.354 145.145 106.25C143.868 105.281 144.915 101.758 147.482 98.3827C147.521 98.3312 147.561 98.2797 147.602 98.2283V98.2267H147.604C148.642 96.8857 149.763 95.7787 150.813 95.007C150.861 94.9665 150.909 94.9272 150.957 94.8883C150.962 94.8848 150.967 94.8792 150.972 94.8757C151.019 94.844 151.063 94.8121 151.107 94.7819C151.109 94.78 151.111 94.78 151.112 94.7782C151.132 94.764 151.153 94.7499 151.173 94.7374C151.191 94.7251 151.207 94.7144 151.224 94.7038L151.226 94.7019C151.343 94.608 151.464 94.5193 151.583 94.4377C151.599 94.427 151.613 94.4163 151.627 94.4075C151.675 94.3755 151.721 94.3472 151.767 94.3189C151.803 94.2957 151.84 94.2725 151.875 94.2531C151.978 94.1894 152.081 94.1326 152.182 94.0795C152.187 94.0758 152.193 94.0739 152.198 94.0705C152.977 93.6712 153.72 93.5453 154.199 93.7352C154.204 93.7371 154.21 93.7387 154.213 93.7424C154.35 93.7974 154.463 93.879 154.55 93.9906C155.074 94.647 154.431 96.0323 153.117 97.0824C152.601 97.4958 152.056 97.7955 151.554 97.9659L151.631 98.7161C151.967 98.6595 152.312 98.5832 152.659 98.4857C153.314 98.303 153.921 98.0597 154.462 97.7795C154.502 97.7581 154.541 97.7371 154.581 97.7157C154.588 97.7123 154.597 97.7086 154.603 97.7033H154.605C156.345 96.7525 157.371 95.3779 157.044 94.207C156.966 93.9285 156.819 93.6819 156.61 93.4672C156.356 93.2033 156.014 92.9866 155.6 92.827C155.593 92.8235 155.586 92.8216 155.579 92.8182C155.027 92.6054 154.357 92.4884 153.615 92.4811C153.227 92.4757 152.821 92.5006 152.402 92.5574C151.87 92.6195 151.334 92.717 150.795 92.8502C150.79 92.8502 150.783 92.8517 150.777 92.8555C149.924 93.0665 149.067 93.3661 148.216 93.7478C148.209 93.7528 148.202 93.7566 148.195 93.7585C144.111 95.6846 140.099 99.9065 137.399 105.547C137.399 105.549 137.397 105.551 137.395 105.554C137.387 105.577 137.209 105.971 137.133 106.149C137.09 106.246 137.05 106.345 137.01 106.441C136.904 106.683 136.792 106.931 136.674 107.177C136.225 108.121 135.696 109.065 135.167 109.634C135.123 109.682 135.079 109.726 135.034 109.769C134.912 109.893 134.797 110 134.692 110.09C134.41 110.335 134.201 110.472 134.119 110.521C134.08 110.541 134.043 110.562 134.004 110.58C132.956 111.041 132.166 110.503 131.627 109.81C131.235 109.389 130.947 108.76 130.735 108.08C130.733 108.071 130.73 108.064 130.73 108.064C130.341 106.809 130.211 105.395 130.174 104.845C130.806 104.646 131.854 104.228 133.582 103.401C133.603 103.39 133.624 103.378 133.646 103.367C134.312 103.062 134.981 102.672 135.627 102.195C135.84 102.037 136.049 101.87 136.257 101.694C136.427 101.549 136.592 101.402 136.751 101.248C137.261 100.767 137.711 100.254 138.094 99.7272C139.821 97.368 140.237 94.7374 138.921 93.1889C137.545 91.5694 134.694 91.6296 131.975 93.1427C131.366 93.4798 130.767 93.8912 130.19 94.3721H130.187C130.187 94.3721 128.062 96.027 126.016 98.7427C126.988 96.0536 127.914 93.4923 128.732 91.2251C128.984 90.5299 129.225 89.8612 129.456 89.2262C129.477 89.2209 129.498 89.2155 129.52 89.2102C130.614 88.9318 131.765 88.5326 132.938 88.0147C133.566 87.784 134.197 87.4859 134.818 87.1259C135.006 87.0158 135.191 86.9025 135.37 86.7853C135.971 86.3915 136.519 85.9606 137.003 85.5011C139.279 83.0638 140.134 80.2328 138.891 78.7374C137.504 77.0684 134.002 77.6659 130.925 80.043C130.893 80.0678 130.862 80.0907 130.832 80.1157C130.628 80.2806 130.422 80.4526 130.217 80.6302C130.172 80.6672 130.13 80.7065 130.087 80.7454C129.786 81.0097 129.486 81.2899 129.186 81.5861L129.188 81.5808C129.188 81.5808 128.707 81.9872 127.888 82.9592C127.882 82.9661 127.875 82.9734 127.868 82.9822C127.222 83.7521 126.373 84.8696 125.387 86.4128C124.849 87.2502 124.274 88.2131 123.669 89.3131C122.484 91.4702 121.186 94.1555 119.861 97.4622C119.85 97.4923 119.84 97.5225 119.831 97.5526V97.5544L117.431 104.201C117.431 104.203 117.429 104.206 117.429 104.208L117.151 104.979C117.149 104.981 117.145 104.985 117.143 104.987C116.59 105.464 115.996 105.913 115.356 106.267C115.336 106.278 115.317 106.289 115.299 106.297C115.151 106.379 115.003 106.455 114.852 106.525C114.834 106.532 114.816 106.541 114.798 106.548C114.119 106.876 113.475 107.126 112.881 107.289C112.87 107.293 112.858 107.296 112.847 107.3C112.815 107.309 112.785 107.316 112.753 107.325C112.571 107.374 112.397 107.406 112.241 107.42C112.234 107.42 112.225 107.422 112.218 107.422C112.186 107.424 112.155 107.428 112.125 107.429C111.806 107.456 111.478 107.424 111.157 107.328C110.133 107.025 109.424 106.163 109.243 105.157C109.241 105.154 109.241 105.148 109.241 105.145C109.229 105.063 109.218 104.978 109.209 104.893C109.207 104.861 109.204 104.829 109.2 104.795C109.2 104.785 109.2 104.772 109.198 104.761C109.179 104.54 109.172 104.309 109.174 104.07C109.202 104.064 109.232 104.057 109.261 104.052C109.298 104.045 109.335 104.036 109.372 104.029C109.463 104.009 109.551 103.99 109.64 103.97C110.465 103.784 111.252 103.548 111.996 103.268C112.171 103.202 112.345 103.135 112.515 103.064C112.526 103.059 112.539 103.053 112.549 103.05C112.688 102.995 112.826 102.936 112.961 102.876C113.254 102.748 113.539 102.61 113.816 102.462C114.075 102.326 114.325 102.181 114.568 102.028C114.602 102.007 114.635 101.987 114.669 101.964C115.121 101.677 115.545 101.365 115.937 101.029C116.026 100.953 116.113 100.877 116.198 100.797C116.368 100.641 116.532 100.479 116.688 100.316C116.723 100.281 116.757 100.243 116.791 100.208C118.662 98.2053 119.535 95.7821 118.963 93.9515C118.933 93.8488 118.896 93.7493 118.855 93.6484C118.79 93.4976 118.708 93.3557 118.614 93.2227C118.611 93.2136 118.605 93.2048 118.598 93.1942C118.474 93.0238 118.332 92.8659 118.171 92.7259C117.683 92.3 117.027 92.0254 116.276 91.9099C116.264 91.908 116.253 91.9064 116.243 91.9045C116.21 91.8992 116.179 91.8957 116.147 91.8923C116.033 91.8763 115.918 91.8638 115.799 91.855C115.794 91.8531 115.788 91.8531 115.783 91.8531C115.774 91.8531 115.763 91.8516 115.753 91.8516C115.701 91.8478 115.648 91.8443 115.595 91.8424C115.559 91.8408 115.522 91.8408 115.485 91.8389C115.439 91.8371 115.391 91.8371 115.341 91.8371C115.292 91.8371 115.242 91.8389 115.19 91.8389C115.175 91.8389 115.16 91.8408 115.144 91.8408C115.079 91.8443 115.01 91.8478 114.942 91.8516C114.916 91.8531 114.889 91.855 114.862 91.8568C114.854 91.8568 114.845 91.8585 114.836 91.8585C114.79 91.8621 114.742 91.8656 114.694 91.8691H114.692C114.628 91.8744 114.563 91.8816 114.497 91.8886H114.495C114.025 91.94 113.525 92.0323 113.014 92.1707C112.979 92.1814 112.943 92.1902 112.907 92.2027C112.876 92.2096 112.844 92.2187 112.814 92.2275C112.799 92.231 112.785 92.2347 112.771 92.2398C112.691 92.2611 112.611 92.2843 112.53 92.3091C112.317 92.3729 112.104 92.4438 111.891 92.5254C111.881 92.5273 111.875 92.5307 111.866 92.5344C111.6 92.6336 111.331 92.7472 111.063 92.8696C111.052 92.875 111.043 92.8784 111.033 92.8838C110.949 92.923 110.868 92.9635 110.784 93.0042L110.774 93.0097C110.486 93.1534 110.199 93.3131 109.913 93.4851C109.912 93.4851 109.908 93.487 109.906 93.4885C109.058 93.998 108.221 94.6203 107.419 95.3459C107.331 95.4257 107.242 95.5072 107.155 95.5888L107.15 95.5942C106.951 95.7821 106.754 95.9755 106.561 96.1779C106.215 96.5344 105.878 96.9121 105.553 97.3078C105.491 97.3822 105.429 97.4603 105.367 97.5366C105.363 97.5419 105.36 97.5453 105.357 97.5507C105.335 97.5774 105.314 97.604 105.292 97.6307C105.273 97.6571 105.252 97.6857 105.232 97.7123C105.193 97.7638 105.154 97.8168 105.117 97.8699C104.932 98.1307 104.757 98.3934 104.588 98.6576C104.551 98.7161 104.514 98.7747 104.478 98.8334C104.453 98.8742 104.429 98.9147 104.404 98.9555C104.391 98.9752 104.379 98.9963 104.368 99.016C104.327 99.0816 104.288 99.1472 104.25 99.2129C104.241 99.2307 104.228 99.2483 104.218 99.2678C104.161 99.3638 104.108 99.4595 104.054 99.5534C104.001 99.6491 103.948 99.7451 103.898 99.8408C103.895 99.848 103.891 99.855 103.888 99.8603C103.834 99.9598 103.783 100.057 103.733 100.157C103.682 100.258 103.632 100.359 103.583 100.458C103.583 100.46 103.581 100.46 103.581 100.462C103.533 100.561 103.485 100.662 103.441 100.761C103.41 100.825 103.38 100.891 103.352 100.957C103.338 100.99 103.322 101.026 103.307 101.059C103.306 101.061 103.304 101.065 103.304 101.066C103.288 101.102 103.272 101.139 103.256 101.175C103.196 101.315 103.139 101.455 103.084 101.595C103.079 101.609 103.074 101.622 103.068 101.636C103.061 101.654 103.054 101.672 103.047 101.689C103.041 101.703 103.036 101.718 103.031 101.73C103.013 101.776 102.995 101.82 102.979 101.865C102.951 101.939 102.925 102.014 102.898 102.088C102.884 102.129 102.869 102.17 102.855 102.209C102.843 102.244 102.83 102.28 102.818 102.315C102.814 102.326 102.811 102.337 102.807 102.347C102.781 102.424 102.756 102.496 102.733 102.573C102.729 102.583 102.726 102.596 102.722 102.606C102.717 102.606 102.71 102.605 102.705 102.605C102.589 102.594 102.474 102.583 102.359 102.569C102.165 102.549 101.975 102.526 101.784 102.5C101.695 102.488 101.606 102.475 101.52 102.461C101.347 102.438 101.179 102.409 101.008 102.379C101.246 101.521 101.406 100.667 101.489 99.8374C101.518 99.5801 101.537 99.3264 101.55 99.0745H101.543C101.555 98.6771 101.532 98.2638 101.472 97.8435C101.461 97.7707 101.448 97.6979 101.436 97.6253C101.411 97.4816 101.381 97.3398 101.347 97.2014C101.337 97.1587 101.326 97.116 101.315 97.0736C101.309 97.047 101.301 97.0203 101.294 96.9955C101.291 96.9814 101.287 96.9691 101.282 96.9547C101.27 96.9051 101.255 96.8537 101.239 96.8057C101.23 96.7738 101.222 96.7438 101.211 96.7136C101.211 96.7124 101.21 96.7117 101.209 96.7117C101.2 96.6798 101.19 96.6497 101.179 96.6195C101.154 96.5432 101.127 96.4686 101.097 96.3942C101.08 96.3427 101.06 96.2931 101.039 96.2435C101.026 96.215 101.014 96.1849 101.002 96.1566C100.963 96.0625 100.92 95.9686 100.875 95.8797C100.845 95.8176 100.814 95.7555 100.782 95.6971C100.751 95.6387 100.719 95.5801 100.688 95.5251C100.649 95.4557 100.608 95.3902 100.567 95.3264C100.547 95.2963 100.53 95.2677 100.51 95.2395C100.496 95.2163 100.48 95.1952 100.464 95.172C100.439 95.1348 100.413 95.0977 100.386 95.0603C100.381 95.0531 100.375 95.0461 100.37 95.039C100.322 94.9734 100.274 94.9112 100.223 94.851C100.18 94.7976 100.136 94.748 100.091 94.6985C100.065 94.6683 100.037 94.6382 100.008 94.608C99.9781 94.578 99.9495 94.5475 99.9194 94.5193C99.8981 94.498 99.8768 94.4766 99.8538 94.459C99.8008 94.4057 99.7458 94.3579 99.6906 94.3118C99.6498 94.2779 99.609 94.2462 99.5664 94.2142C99.5328 94.1876 99.4992 94.1627 99.4637 94.1397C99.4123 94.1025 99.3589 94.0688 99.3058 94.0369V94.035C99.0362 93.8717 98.7542 93.76 98.4666 93.7086C98.2947 93.6768 98.1208 93.6662 97.9469 93.6784C97.8992 93.6819 97.8512 93.6876 97.8015 93.6944C97.5637 93.7299 97.3367 93.8044 97.1274 93.9163C97.0103 93.9782 96.8987 94.0509 96.7922 94.1361C96.5829 94.2992 96.393 94.5016 96.2264 94.7358C96.223 94.7393 96.221 94.7427 96.2192 94.7464C95.7688 95.3813 95.4813 96.2504 95.4104 97.2315V97.2331C95.3962 97.4176 95.389 97.6076 95.3944 97.8009C95.3928 97.8061 95.3928 97.8115 95.3944 97.8168C95.3856 98.3065 95.4336 98.7995 95.5452 99.2891C95.5701 99.4008 95.5984 99.5107 95.6322 99.619C95.7493 100.032 95.9124 100.428 96.1112 100.802C96.3221 101.199 96.576 101.572 96.8685 101.92C97.1115 102.213 97.383 102.484 97.6776 102.738C97.752 102.801 97.8283 102.865 97.908 102.927C97.977 102.982 98.0483 103.037 98.1189 103.089C98.1226 103.09 98.1261 103.094 98.1298 103.096C98.1387 103.103 98.1493 103.11 98.1581 103.117C98.1615 103.121 98.1634 103.122 98.1669 103.124C98.2202 103.163 98.2734 103.2 98.3266 103.236C98.3549 103.257 98.3851 103.277 98.4155 103.296C98.4437 103.316 98.472 103.335 98.5021 103.353C98.5501 103.387 98.6016 103.417 98.6511 103.449C97.9735 106.324 96.5581 108.304 94.9226 108.3C94.9013 108.3 94.8783 108.3 94.857 108.299C94.7879 108.302 94.7168 108.3 94.6461 108.297C94.5962 108.293 94.5466 108.29 94.4986 108.284C94.4845 108.282 94.472 108.281 94.4597 108.279C94.4205 108.274 94.3815 108.266 94.3424 108.26C94.3213 108.256 94.2981 108.251 94.277 108.245C94.252 108.24 94.229 108.235 94.2042 108.228C94.1936 108.226 94.1813 108.222 94.1703 108.219C94.1261 108.208 94.0819 108.194 94.0392 108.18C93.9735 108.157 93.908 108.132 93.8442 108.104C93.8123 108.089 93.7802 108.075 93.7502 108.059C93.7112 108.041 93.672 108.02 93.6349 107.999C93.5834 107.97 93.5335 107.938 93.484 107.906C93.4575 107.89 93.4325 107.873 93.4077 107.853C93.3722 107.829 93.3368 107.802 93.3031 107.775C93.2624 107.742 93.2215 107.708 93.1842 107.672C93.1663 107.656 93.1488 107.64 93.1312 107.623C93.0957 107.591 93.0619 107.555 93.0282 107.52C92.9963 107.486 92.9642 107.45 92.9341 107.413C92.9324 107.412 92.9306 107.41 92.9288 107.408C92.9165 107.392 92.904 107.378 92.8914 107.36C92.8613 107.323 92.8311 107.284 92.803 107.243C92.8011 107.241 92.7994 107.239 92.7994 107.238C92.762 107.186 92.7266 107.135 92.6947 107.082C92.661 107.025 92.6272 106.968 92.597 106.909C92.5723 106.865 92.5509 106.819 92.5279 106.771C92.5208 106.755 92.5138 106.737 92.5066 106.722C92.4837 106.67 92.4624 106.619 92.4426 106.565C92.4037 106.464 92.3701 106.36 92.3434 106.253C92.3293 106.211 92.3149 106.166 92.3008 106.12C92.2904 106.085 92.2813 106.048 92.2725 106.01C92.2619 105.968 92.2511 105.923 92.2424 105.879C92.2317 105.835 92.223 105.79 92.2157 105.742C92.2104 105.719 92.2069 105.696 92.2035 105.672V105.668C92.1997 105.645 92.1962 105.62 92.1928 105.597C92.189 105.572 92.1856 105.547 92.182 105.522C92.1786 105.498 92.1749 105.473 92.173 105.446C92.1696 105.418 92.1661 105.389 92.1642 105.361C92.1607 105.338 92.1589 105.313 92.1573 105.288C92.152 105.235 92.1464 105.18 92.1448 105.125V105.123C92.1429 105.104 92.1413 105.084 92.1413 105.065C92.1375 105.01 92.1341 104.955 92.1341 104.898C92.1322 104.884 92.1322 104.871 92.1322 104.857C92.1322 104.834 92.1306 104.809 92.1306 104.785C92.1288 104.719 92.1288 104.653 92.1288 104.586V104.518C92.1288 104.44 92.1306 104.361 92.1322 104.279C92.1375 104.116 92.1448 103.947 92.1573 103.773V103.765C92.1626 103.679 92.1696 103.594 92.1765 103.507C92.1786 103.504 92.1786 103.498 92.1786 103.495C92.1786 103.486 92.1786 103.479 92.1802 103.472C92.1928 103.328 92.2069 103.181 92.2245 103.03C92.2336 102.956 92.2424 102.879 92.2511 102.803C92.2619 102.714 92.2743 102.624 92.2866 102.532C92.3061 102.397 92.3258 102.258 92.3487 102.117C92.3611 102.031 92.3754 101.945 92.3896 101.858C92.4056 101.769 92.4215 101.68 92.4376 101.59C92.4568 101.476 92.4781 101.361 92.5013 101.244C92.5208 101.145 92.5405 101.042 92.5597 100.939C92.5634 100.925 92.5653 100.91 92.5685 100.896C92.5863 100.806 92.606 100.715 92.6256 100.623C92.6523 100.49 92.6824 100.353 92.7141 100.217C92.7248 100.167 92.7373 100.118 92.748 100.066C92.7694 99.9721 92.7922 99.8763 92.8154 99.7806C92.8437 99.6582 92.8739 99.5339 92.9058 99.408C92.9058 99.4008 92.9075 99.3955 92.9093 99.3883C92.9376 99.2716 92.9677 99.1545 92.9997 99.0355C93.0282 98.9202 93.0584 98.8067 93.0902 98.6897C93.0973 98.6648 93.1045 98.6382 93.1115 98.6116C93.14 98.4998 93.1717 98.3861 93.2018 98.2725C93.2694 98.0315 93.3386 97.7883 93.4111 97.5419C93.4466 97.4195 93.484 97.2971 93.5213 97.1747C93.5408 97.1073 93.5621 97.0382 93.5834 96.9707C93.6261 96.8304 93.6685 96.6904 93.7147 96.5486C93.7592 96.4067 93.805 96.2648 93.8512 96.1212C93.892 95.9934 93.9346 95.8638 93.9788 95.7345C94.0216 95.6048 94.0658 95.4752 94.1101 95.3459C94.3781 94.5619 94.669 93.76 94.9866 92.9459C94.9902 92.9352 94.9954 92.923 95.0007 92.9123C95.0451 92.795 95.0911 92.6798 95.1373 92.5627C95.1461 92.5413 95.153 92.5219 95.1621 92.5006C95.1728 92.4757 95.1816 92.4491 95.1922 92.4242C95.2224 92.348 95.2506 92.2736 95.2826 92.199C95.3624 92.0002 95.4442 91.8035 95.5258 91.6083C95.556 91.5355 95.5861 91.463 95.6162 91.3902H95.609C95.6445 91.3032 95.68 91.2163 95.7154 91.1312C95.8256 90.8723 95.9339 90.6169 96.0437 90.3648C96.1819 90.0475 96.3221 89.7352 96.4624 89.4283C96.4658 89.4267 96.4711 89.4267 96.4747 89.4249C96.716 89.368 96.9608 89.3059 97.2072 89.2368C97.6917 89.1056 98.1829 88.9531 98.6832 88.7774C99.0893 88.6355 99.4847 88.4845 99.8664 88.3251C99.9053 88.3091 99.9442 88.2912 99.9834 88.2736C99.9994 88.2664 100.014 88.2611 100.028 88.2539C100.076 88.2345 100.121 88.2169 100.17 88.1955C100.281 88.1478 100.395 88.0979 100.508 88.0465C101.266 87.7059 101.961 87.3368 102.575 86.9574C103.283 86.5212 103.882 86.0685 104.349 85.6252C104.608 85.3787 104.826 85.1339 104.996 84.8963C104.998 84.8926 105 84.8907 105.003 84.8872C105.074 84.7969 105.142 84.7046 105.209 84.6123C105.905 83.6525 106.366 82.647 106.559 81.7086C106.561 81.7052 106.561 81.7033 106.563 81.6998C106.573 81.6499 106.582 81.6003 106.589 81.5526C106.61 81.4355 106.628 81.3201 106.639 81.2048C106.639 81.2013 106.641 81.1995 106.641 81.196C106.644 81.1606 106.648 81.1232 106.65 81.0878V81.0806C106.681 80.6993 106.664 80.3374 106.594 79.9985C106.589 79.9648 106.582 79.9294 106.573 79.8957C106.543 79.7608 106.502 79.6227 106.451 79.4859C106.279 79.0317 106.02 78.6558 105.727 78.4022C105.702 78.379 105.677 78.3576 105.652 78.3381C105.548 78.2459 105.434 78.168 105.314 78.0987C104.75 77.7723 104.03 77.6571 103.224 77.7368C103.098 77.7493 102.969 77.7673 102.839 77.7883C102.838 77.7867 102.836 77.7883 102.836 77.7883C102.44 77.8557 102.028 77.9675 101.608 78.1185C101.328 78.2195 101.042 78.34 100.757 78.4766C100.019 78.8118 99.256 79.259 98.4792 79.8107C98.4757 79.8142 98.472 79.8158 98.4685 79.8195C96.7584 81.0363 94.9829 82.7534 93.2872 84.8643C92.4677 85.8825 91.664 86.9928 90.896 88.183C90.7843 88.3569 90.6724 88.5307 90.5624 88.708C90.4402 88.9051 90.3179 89.1038 90.197 89.3044C89.892 89.8096 89.5941 90.3294 89.3031 90.8597C89.2872 90.8883 89.273 90.9147 89.2586 90.9433C89.248 90.9627 89.2375 90.9822 89.2269 91.0016C89.2109 91.0317 89.1949 91.0603 89.1807 91.0904C88.5634 92.3072 88.0151 93.5225 87.5415 94.7198C87.2632 95.424 87.0077 96.123 86.7789 96.811C86.7789 96.8122 86.7783 96.8134 86.777 96.8147C86.7221 96.9795 86.6688 97.1446 86.6175 97.3078C86.5997 97.3612 86.5837 97.4161 86.5677 97.4691C86.5627 97.487 86.557 97.5046 86.552 97.5225C86.5111 97.6502 86.472 97.776 86.4347 97.9019C86.4347 97.9072 86.433 97.911 86.4311 97.9163C86.3691 98.1219 86.3106 98.3259 86.2538 98.5283C86.2008 98.7161 86.1509 98.9025 86.1029 99.0885C86.009 99.4523 85.9221 99.8123 85.8424 100.167C85.8157 100.286 85.7909 100.405 85.766 100.522C85.7642 100.531 85.7624 100.538 85.7607 100.547C85.736 100.662 85.7128 100.777 85.6915 100.889C85.665 101.02 85.64 101.15 85.617 101.278C85.5976 101.393 85.5763 101.506 85.5584 101.62C85.5389 101.733 85.5195 101.847 85.5034 101.959C85.5019 101.966 85.5 101.975 85.5 101.982C85.4893 102.033 85.4821 102.085 85.4768 102.136C85.4751 102.143 85.4733 102.152 85.4733 102.159C85.4592 102.246 85.4466 102.333 85.4362 102.418C85.4006 102.656 85.3722 102.892 85.349 103.124C85.3475 103.135 85.3475 103.142 85.3456 103.153C84.7638 103.805 84.1272 104.41 83.4618 104.987C82.3496 105.948 81.0671 106.789 79.5842 107.005C76.9269 107.394 75.8397 105.001 75.9728 102.707C76.2192 102.695 76.4711 102.67 76.7266 102.635C76.7301 102.635 76.7336 102.635 76.7388 102.633C77.3562 102.567 78.0037 102.422 78.6584 102.198C79.4973 101.916 80.3506 101.506 81.1736 100.973C84.2795 98.9573 85.9115 95.8603 85.1328 93.7086C85.1007 93.6147 85.0619 93.524 85.0192 93.4337C84.9501 93.297 84.8666 93.1693 84.7709 93.0488C84.7675 93.0397 84.7602 93.0329 84.7533 93.0238C84.6272 92.8696 84.4818 92.7278 84.3186 92.6019C83.7597 92.1725 82.9936 91.9171 82.1173 91.855C82.0517 91.8497 81.9824 91.8443 81.9133 91.8424C81.8778 91.8408 81.8405 91.8408 81.8031 91.8389C81.757 91.8371 81.7092 91.8371 81.6597 91.8371C81.6098 91.8371 81.5602 91.8389 81.5088 91.8389C81.4272 91.8424 81.344 91.8461 81.2605 91.8516C81.2338 91.8531 81.2072 91.855 81.1805 91.8568C81.0619 91.8656 80.9394 91.8744 80.8151 91.8886H80.8136C80.3434 91.94 79.8432 92.0323 79.3323 92.1707C79.2968 92.1814 79.2613 92.1902 79.2258 92.2027C79.1941 92.2096 79.1621 92.2187 79.132 92.2275C78.825 92.3107 78.5181 92.4084 78.2092 92.5254C78.1989 92.5273 78.1936 92.5307 78.1848 92.5344C77.9186 92.6336 77.649 92.7472 77.3811 92.8696C77.3704 92.875 77.3616 92.8784 77.3509 92.8838C77.2675 92.923 77.1858 92.9635 77.1026 93.0042C77.0992 93.0061 77.0955 93.008 77.092 93.0097C75.9514 93.5861 74.8125 94.3721 73.7375 95.3459C73.649 95.4257 73.5602 95.5072 73.4733 95.5888L73.4679 95.5942C72.8419 96.1833 72.2405 96.8376 71.6746 97.5507C71.6533 97.5774 71.632 97.604 71.6109 97.6307C71.5911 97.6571 71.5701 97.6857 71.5504 97.7123C71.5115 97.7638 71.4725 97.8168 71.4351 97.8699C71.2506 98.1307 71.0751 98.3934 70.9066 98.6576C68.8861 101.842 68.072 105.264 68.5136 107.94C68.762 109.448 69.4096 110.718 70.4666 111.575C70.5464 111.642 70.6298 111.704 70.7149 111.765C72.3595 112.928 74.5802 112.953 76.8596 112.052C77.3811 111.844 77.9061 111.591 78.4296 111.289C78.5624 111.213 78.6936 111.131 78.825 111.05C78.8941 111.007 78.9615 110.963 79.0309 110.918C79.084 110.885 79.1354 110.849 79.1885 110.814C79.2543 110.771 79.32 110.729 79.3856 110.684C79.4902 110.612 79.593 110.537 79.6978 110.462C80.7584 109.698 81.8317 108.846 82.896 107.919C83.1781 107.674 83.453 107.428 83.7245 107.179C84.2511 106.697 84.7549 106.211 85.2392 105.725V105.726C85.2411 105.764 85.2429 105.801 85.2445 105.836C85.2463 105.897 85.248 105.957 85.2517 106.017C85.2551 106.111 85.2605 106.203 85.2675 106.294C85.273 106.358 85.2765 106.422 85.2837 106.486C85.2887 106.555 85.2941 106.624 85.3013 106.692C85.3066 106.745 85.312 106.798 85.3173 106.849C85.3207 106.879 85.3245 106.908 85.328 106.936C85.342 107.057 85.3596 107.174 85.3775 107.289C85.383 107.341 85.3917 107.392 85.4006 107.444C85.4165 107.543 85.4343 107.64 85.4539 107.736C85.4645 107.795 85.4751 107.852 85.4875 107.906C85.4911 107.922 85.4946 107.938 85.4981 107.954C85.5053 107.983 85.5106 108.011 85.5176 108.039C85.5282 108.088 85.5389 108.137 85.5514 108.183C85.5533 108.19 85.5549 108.196 85.5568 108.203C85.5709 108.265 85.5869 108.327 85.6045 108.387C85.6258 108.469 85.649 108.549 85.6739 108.627C85.6951 108.705 85.72 108.781 85.7466 108.856C85.7483 108.864 85.7517 108.875 85.7555 108.884C85.7784 108.951 85.8015 109.015 85.8245 109.079C85.844 109.13 85.8637 109.18 85.8848 109.23C85.8973 109.265 85.9115 109.299 85.9256 109.333C85.9275 109.338 85.9309 109.343 85.9328 109.349C85.9469 109.384 85.963 109.42 85.9788 109.453C85.9824 109.464 85.9877 109.474 85.993 109.483C86.0109 109.528 86.032 109.572 86.0533 109.615C86.064 109.641 86.0765 109.666 86.0906 109.691C86.1066 109.725 86.1243 109.758 86.1421 109.792C86.1509 109.812 86.1615 109.829 86.1722 109.849C86.1776 109.861 86.1845 109.874 86.1917 109.884C86.2253 109.948 86.2592 110.009 86.2965 110.069C86.3442 110.149 86.3923 110.227 86.4437 110.301C86.4525 110.315 86.4613 110.328 86.472 110.34C86.6546 110.61 86.8624 110.853 87.0928 111.062C87.0981 111.068 87.1053 111.073 87.1106 111.078C87.2151 111.185 87.3271 111.288 87.4405 111.383C87.4424 111.383 87.4424 111.385 87.4439 111.385C87.9728 111.836 88.5704 112.183 89.2338 112.407C90.8534 112.953 92.6112 112.682 94.2557 111.777C95.1175 111.303 95.9495 110.654 96.7125 109.86C96.7266 109.845 96.7407 109.831 96.7533 109.817C98.0322 108.54 99.1693 106.924 100.033 105.047C100.152 104.788 100.264 104.529 100.367 104.27C100.531 104.329 100.7 104.384 100.87 104.433C101.179 104.526 101.497 104.604 101.821 104.666C101.951 104.692 102.082 104.715 102.213 104.735H102.215C102.204 104.809 102.194 104.882 102.183 104.957C102.176 105.01 102.169 105.063 102.163 105.114C102.154 105.18 102.147 105.246 102.141 105.311C102.124 105.468 102.112 105.623 102.101 105.778C102.096 105.865 102.092 105.953 102.087 106.04C102.078 106.246 102.077 106.448 102.08 106.647V106.65C102.084 106.842 102.094 107.03 102.108 107.217C102.119 107.339 102.13 107.461 102.144 107.582C102.158 107.702 102.176 107.821 102.195 107.94C102.444 109.448 103.091 110.718 104.148 111.575C104.228 111.642 104.311 111.704 104.397 111.765C104.718 111.992 105.062 112.176 105.424 112.318C106.039 112.559 106.708 112.68 107.411 112.685C108.326 112.671 109.299 112.453 110.282 112.052C110.788 111.844 111.297 111.591 111.804 111.289C111.934 111.213 112.06 111.131 112.187 111.05C112.255 111.007 112.321 110.963 112.388 110.918C112.439 110.885 112.489 110.849 112.541 110.814C112.604 110.771 112.668 110.729 112.732 110.684C112.833 110.612 112.932 110.537 113.034 110.462C113.532 110.092 114.032 109.702 114.532 109.29C115.045 108.871 115.559 108.432 116.07 107.974L114.541 112.208H118.163V112.21H121.761C121.761 112.21 122.394 110.12 123.315 107.176C123.547 107.777 123.868 108.602 124.179 109.373C124.372 109.945 124.595 110.482 124.847 110.984C124.851 110.993 124.856 111.003 124.86 111.012C124.867 111.029 124.874 111.042 124.883 111.057C124.89 111.071 124.897 111.083 124.904 111.098C126.126 113.473 127.967 114.984 130.027 114.984C130.763 114.984 131.469 114.789 132.131 114.434C132.139 114.431 132.147 114.425 132.156 114.42C132.283 114.349 132.411 114.275 132.535 114.191C134.701 112.829 135.96 110.886 136.509 109.875C136.553 109.794 136.592 109.719 136.627 109.65C136.652 109.801 136.684 109.95 136.723 110.094C136.725 110.095 136.725 110.099 136.727 110.101C136.819 110.351 136.977 110.73 137.213 111.167C137.308 111.342 137.339 111.403 137.33 111.357C137.342 111.378 137.355 111.399 137.367 111.421C137.491 111.617 137.633 111.795 137.798 111.951C137.874 112.025 137.954 112.093 138.039 112.157C139.489 113.248 141.883 112.73 144.354 111.044C145.19 110.477 146.032 109.774 146.852 108.957C147.038 108.77 147.223 108.579 147.405 108.382C147.377 108.811 147.373 109.223 147.395 109.611C147.393 109.694 147.393 109.78 147.395 109.861V109.883C147.395 109.898 147.395 109.916 147.396 109.932C147.414 110.361 147.496 110.773 147.641 111.153C147.65 111.183 147.659 111.213 147.668 111.241C147.781 111.516 147.93 111.772 148.108 112.004C148.138 112.036 148.168 112.068 148.198 112.098C148.221 112.13 148.248 112.158 148.274 112.189C148.945 112.925 149.899 113.295 150.967 113.319C152.498 113.352 154.258 112.674 155.719 111.344C155.76 111.307 155.801 111.27 155.84 111.229C156.84 110.285 157.534 109.169 157.883 108.066C157.759 108.165 157.637 108.268 157.522 108.364ZM134.522 79.7131C136.807 77.2297 136.212 80.0555 136.212 80.0555C134.364 86.6702 129.903 87.9384 129.903 87.9384C129.903 87.9384 132.237 82.1963 134.522 79.7131ZM110.232 99.2873C110.426 98.8652 110.637 98.4342 110.866 97.9961C111.161 97.432 111.481 96.8537 111.833 96.2648C111.842 96.247 111.852 96.2291 111.863 96.2115C112.021 95.9598 112.177 95.7203 112.333 95.495C113.17 94.1929 114.009 93.2635 114.603 92.9885C114.607 92.9866 114.611 92.9848 114.614 92.9814C114.752 92.9193 114.878 92.8926 114.987 92.9051C114.999 92.9032 115.01 92.9032 115.022 92.9032C115.125 92.9085 115.217 92.9425 115.293 92.9989C115.295 92.9989 115.296 92.9996 115.297 93.0008C115.386 93.0648 115.451 93.1606 115.48 93.2704C115.48 93.2704 115.482 93.2723 115.482 93.2742C115.488 93.3059 115.494 93.3398 115.499 93.3734C115.499 93.3769 115.501 93.3806 115.501 93.384C115.517 93.4885 115.529 93.5987 115.537 93.7104C115.559 94.0387 115.538 94.3949 115.476 94.7729C115.297 95.8763 114.774 97.1465 113.924 98.3774C112.764 100.062 111.274 101.27 109.958 101.726C109.779 101.789 109.604 101.833 109.434 101.866C109.61 101.038 109.876 100.169 110.232 99.2873ZM98.1261 85.4958C98.1298 85.4885 98.1333 85.4816 98.1402 85.4709C98.4864 84.8358 98.8837 84.1654 99.3234 83.4843C99.8184 82.7198 100.315 82.0225 100.782 81.4249C102.036 79.7326 103.146 78.7 103.593 78.8651C103.604 78.8651 103.611 78.8686 103.622 78.8704C103.703 78.8918 103.769 78.9433 103.818 79.0212L103.82 79.023C103.884 79.1259 103.912 79.2677 103.897 79.4221C103.895 79.4416 103.893 79.4631 103.889 79.4825C103.868 79.6545 103.836 79.8389 103.794 80.0254C103.714 80.38 103.597 80.7541 103.446 81.1446C103.008 82.2797 102.282 83.5267 101.349 84.6657C99.845 86.4998 98.2131 87.5392 97.156 87.4718C97.4256 86.8262 97.7502 86.1593 98.1261 85.4958ZM76.7442 99.3512C76.7461 99.344 76.7496 99.3371 76.753 99.328C76.973 98.7321 77.2426 98.0953 77.5602 97.4427C77.9167 96.7083 78.2947 96.0307 78.669 95.44C79.6464 93.7833 80.6504 92.7012 81.2269 92.7435C81.2392 92.7419 81.2498 92.7419 81.262 92.7419C81.3651 92.7419 81.4592 92.7721 81.5389 92.8251C81.5401 92.8251 81.5413 92.8257 81.5424 92.827C81.649 92.8979 81.7253 93.0097 81.7517 93.1392C81.7555 93.1568 81.7589 93.1747 81.7607 93.1907C81.7874 93.338 81.8031 93.4958 81.8085 93.6589C81.821 93.9675 81.7944 94.3011 81.7323 94.6542C81.553 95.683 81.0687 96.8625 80.3043 97.9961C79.0733 99.8214 77.4573 101.019 76.1872 101.184C76.3133 100.595 76.4976 99.9774 76.7442 99.3512ZM123.533 105.585C124.963 101.774 127.402 99.3174 127.402 99.3174L127.403 99.3192C127.501 99.2093 127.604 99.0993 127.712 98.9912C127.82 98.8831 127.932 98.7766 128.049 98.6737C129.459 97.4264 131.097 96.875 132.106 97.2155C132.34 97.2936 132.541 97.4214 132.695 97.5968C132.698 97.6006 132.7 97.604 132.702 97.6057C132.745 97.6555 132.784 97.7086 132.817 97.7638C132.824 97.776 132.833 97.7867 132.84 97.799C132.872 97.8542 132.901 97.9144 132.923 97.9748C132.931 97.9888 132.936 98.0048 132.941 98.0208C132.965 98.083 132.982 98.1451 132.996 98.2123C133 98.2267 133.002 98.2443 133.005 98.2585C133.018 98.3225 133.026 98.388 133.032 98.4555C133.032 98.4696 133.034 98.4857 133.034 98.5016C133.037 98.5672 133.035 98.6329 133.034 98.7019C133.032 98.7232 133.032 98.7464 133.03 98.7694C133.025 98.8387 133.016 98.9097 133.005 98.9806C133 99.0089 132.995 99.039 132.989 99.0672C132.977 99.1384 132.961 99.2093 132.941 99.2803C132.934 99.3123 132.923 99.3459 132.915 99.3779C132.897 99.4329 132.879 99.4878 132.862 99.5427C132.844 99.5907 132.826 99.6403 132.808 99.6883C132.787 99.7414 132.766 99.7948 132.743 99.848C132.725 99.8851 132.709 99.9241 132.691 99.9632C132.691 99.9648 132.69 99.9648 132.69 99.9667C132.523 100.322 132.301 100.684 132.028 101.04C131.755 101.397 131.43 101.748 131.058 102.076C131.04 102.092 131.02 102.106 131.003 102.122C130.935 102.182 130.85 102.253 130.753 102.331C130.738 102.342 130.724 102.354 130.708 102.365C129.445 103.364 126.004 105.585 123.533 105.585ZM68.7781 100.122C69.0389 99.7779 69.2818 99.4304 69.509 99.0808C69.5606 99.0014 69.6101 98.9233 69.6597 98.8433C69.7271 98.7368 69.7928 98.6307 69.8549 98.524C69.9186 98.4174 69.9807 98.3112 70.0411 98.2048C70.1013 98.0985 70.1615 97.9899 70.2184 97.8835C70.309 97.7134 70.396 97.5448 70.4792 97.3763C70.5184 97.2966 70.5554 97.2166 70.5928 97.1388C70.6743 96.9631 70.7524 96.7875 70.8269 96.6117C70.8501 96.5603 70.8712 96.5089 70.8909 96.4576C70.928 96.3654 70.9652 96.2712 71.0007 96.179C71.0381 96.083 71.0736 95.9875 71.1072 95.8915C71.1408 95.8011 71.1728 95.7089 71.203 95.6169C71.233 95.5246 71.2634 95.432 71.2917 95.3381C71.313 95.2689 71.3343 95.1982 71.3538 95.1289C71.3645 95.0934 71.3749 95.0597 71.3839 95.0243C71.4034 94.9585 71.4211 94.8912 71.437 94.8254C71.4477 94.7883 71.4565 94.7528 71.4656 94.7157C71.4797 94.6587 71.4938 94.6038 71.508 94.5472C71.5294 94.4566 71.5487 94.3661 71.5685 94.2757C71.5933 94.1657 71.6147 94.0539 71.6341 93.944C71.657 93.8197 71.6783 93.6939 71.6962 93.5697C71.7085 93.4865 71.7208 93.4011 71.7314 93.3176C71.7405 93.2448 71.7493 93.1741 71.7546 93.1033C71.7581 93.0907 71.76 93.0785 71.76 93.0659C71.7672 92.9985 71.7741 92.931 71.7776 92.8638C71.7866 92.7785 71.792 92.6934 71.7973 92.6099C71.8043 92.5001 71.8096 92.3918 71.813 92.2819V92.2712C71.8167 92.1614 71.8184 92.0512 71.8184 91.9414C71.8184 91.3152 71.7634 90.6873 71.6517 90.0627C70.5466 83.9093 64.1485 79.4888 55.4565 77.935C54.1387 77.6993 52.7693 77.5307 51.3573 77.4312L52.6218 73.9529H46.1402L45.1415 76.7021L44.9058 77.3497C44.2157 77.371 43.5202 77.4011 42.8197 77.4419C40.3843 77.5857 38.0178 77.8568 35.749 78.2438C33.383 78.6427 31.1213 79.1662 28.9944 79.7957C26.9775 80.3918 25.0813 81.0835 23.3323 81.8553L24.3843 83.943L25.9133 86.9763C29.0955 85.1315 32.9928 83.6361 37.3139 82.7368C39.336 82.3163 41.3226 82.0505 43.2402 81.9316L43.1514 82.1744L39.9282 91.0366L33.977 107.397L33.383 109.032L33.3243 109.192L33.1896 109.566H33.1877L32.2227 112.225C33.2872 112.268 34.3674 112.287 35.46 112.282C36.5581 112.277 37.6437 112.246 38.7151 112.191C47.3783 111.762 55.0981 109.799 60.6717 106.888H60.6733C61.8015 106.297 62.8411 105.669 63.783 105.007C65.0211 104.136 66.0906 103.207 66.967 102.23C67.2173 101.972 67.4549 101.713 67.6838 101.453C67.7888 101.335 67.8917 101.218 67.9933 101.1C68.0549 101.029 68.116 100.958 68.1749 100.887C68.2229 100.832 68.269 100.777 68.3133 100.72C68.3967 100.617 68.4784 100.514 68.5581 100.411C68.6328 100.316 68.7072 100.22 68.7781 100.122ZM62.7205 93.1227C62.7205 93.1457 62.7187 93.1689 62.7187 93.1902C62.717 93.247 62.7133 93.3035 62.7098 93.3603C62.7098 93.3693 62.7079 93.3779 62.7079 93.387V93.3976C62.7064 93.4278 62.7045 93.4598 62.7026 93.4899C62.6973 93.5412 62.6938 93.591 62.6885 93.6425C62.6866 93.6512 62.6866 93.6619 62.6851 93.6706C62.6798 93.7416 62.6706 93.8144 62.6619 93.8857C62.6565 93.928 62.6511 93.9707 62.6461 94.0131C62.6354 94.0947 62.623 94.1763 62.6087 94.258C62.5981 94.3361 62.584 94.4121 62.568 94.4902C62.568 94.4939 62.568 94.4989 62.5661 94.5046C62.5645 94.5168 62.5608 94.5295 62.5588 94.5416C62.5432 94.6163 62.5272 94.6923 62.5111 94.767C62.4917 94.8576 62.4704 94.9499 62.4472 95.0403C62.4296 95.1094 62.4117 95.1784 62.3923 95.2478C62.38 95.2955 62.3656 95.3454 62.3515 95.3934C62.346 95.4144 62.3392 95.4339 62.3338 95.4552C62.3 95.5723 62.2629 95.6896 62.2221 95.8048C62.2042 95.8595 62.1848 95.9147 62.1653 95.9699C62.1351 96.0566 62.1032 96.1435 62.0696 96.2286C62.0322 96.3245 61.9949 96.4202 61.9541 96.516C61.9117 96.6171 61.8691 96.7163 61.8229 96.8176C61.7802 96.9097 61.7379 97.0038 61.6934 97.096C61.6384 97.2078 61.5815 97.3195 61.5232 97.4312C61.4751 97.5254 61.4256 97.6193 61.3722 97.7115C61.3688 97.7187 61.3653 97.7238 61.3616 97.7312C61.3192 97.8091 61.2749 97.8853 61.2304 97.9616C61.1629 98.0768 61.0938 98.1904 61.0229 98.304C60.9768 98.3784 60.9288 98.4531 60.8792 98.5277C60.8013 98.6499 60.7179 98.7723 60.6328 98.8948C60.576 98.9763 60.5192 99.0563 60.4624 99.1361C60.2709 99.3968 60.072 99.654 59.8592 99.9075C59.8237 99.9536 59.7848 99.9998 59.7458 100.044C59.6162 100.199 59.4832 100.351 59.3447 100.502C59.2773 100.576 59.2083 100.651 59.1392 100.725L59.132 100.733C59.0629 100.805 58.992 100.88 58.9211 100.953C58.9154 100.958 58.912 100.961 58.9084 100.967C58.857 101.02 58.8056 101.071 58.7542 101.123C58.7114 101.167 58.6672 101.208 58.6248 101.25C58.536 101.339 58.4472 101.424 58.3568 101.508C58.3053 101.559 58.2522 101.609 58.1989 101.657C58.1051 101.745 58.0075 101.832 57.9098 101.919C57.8389 101.983 57.7679 102.047 57.6952 102.107C57.6366 102.159 57.5781 102.21 57.5178 102.26C57.4397 102.325 57.3616 102.391 57.2818 102.457C57.2784 102.46 57.2747 102.462 57.2712 102.465C57.1807 102.54 57.0901 102.616 56.9963 102.687C56.8951 102.769 56.7922 102.849 56.6877 102.929C56.4677 103.097 56.2442 103.264 56.0151 103.425C55.9301 103.487 55.8432 103.548 55.7562 103.608C55.6498 103.682 55.54 103.755 55.4317 103.83C55.3075 103.913 55.1816 103.995 55.0538 104.076C54.9084 104.17 54.7613 104.264 54.6104 104.356C54.3479 104.516 54.0819 104.674 53.8085 104.828C53.7306 104.873 53.6525 104.917 53.5746 104.959C53.5266 104.986 53.4787 105.013 53.4309 105.039C53.3581 105.08 53.2853 105.119 53.2109 105.158C53.2002 105.165 53.1896 105.17 53.1789 105.176C53.0211 105.259 52.8632 105.343 52.7034 105.424C52.6965 105.426 52.6912 105.43 52.6839 105.433C52.6007 105.476 52.5173 105.518 52.4338 105.559C52.3488 105.601 52.2656 105.642 52.1802 105.683C52.0437 105.749 51.9071 105.814 51.7688 105.878C51.5896 105.962 51.4104 106.043 51.2277 106.125C51.1354 106.166 51.0432 106.205 50.9494 106.246C50.7701 106.322 50.589 106.398 50.4083 106.471C50.3053 106.513 50.2008 106.556 50.0959 106.597C50.0924 106.598 50.0906 106.598 50.0872 106.6C49.9861 106.641 49.885 106.68 49.7821 106.719C49.7802 106.719 49.7802 106.721 49.7786 106.719C49.6506 106.769 49.5232 106.817 49.3936 106.865C49.2642 106.913 49.1362 106.958 49.0069 107.003C48.8861 107.045 48.7639 107.088 48.6415 107.129C48.6202 107.138 48.597 107.145 48.5757 107.152C48.5741 107.152 48.5706 107.154 48.5688 107.154C48.4677 107.188 48.3682 107.221 48.2653 107.253C48.0613 107.321 47.8573 107.386 47.6498 107.448C47.5381 107.482 47.4245 107.517 47.3092 107.549C47.2117 107.578 47.1141 107.606 47.0149 107.634C46.8747 107.674 46.7346 107.712 46.5943 107.75C45.9648 107.918 45.3245 108.071 44.6717 108.206C43.8698 108.371 43.0717 108.505 42.2805 108.612C42.2752 108.612 42.2698 108.614 42.2626 108.614C41.4787 108.717 40.7018 108.791 39.9355 108.837L40.6698 106.82L46.7453 90.1125L49.5922 82.2827L49.6437 82.1389C49.8547 82.1657 50.0658 82.1957 50.2736 82.2293C50.3728 82.2438 50.472 82.2598 50.5696 82.2774C50.5749 82.2774 50.5802 82.2793 50.5856 82.2793C50.7488 82.3059 50.912 82.3341 51.0733 82.3661C51.217 82.3928 51.3608 82.4193 51.5026 82.4494C51.5258 82.4548 51.5488 82.4582 51.572 82.4638C51.593 82.4689 51.6162 82.4726 51.6375 82.4779C51.7298 82.4974 51.8221 82.5168 51.9124 82.5382C51.9957 82.5561 52.0773 82.5755 52.1589 82.595C52.2388 82.6125 52.3186 82.6321 52.3967 82.6518C52.4766 82.6712 52.5562 82.6907 52.6362 82.7121C52.7515 82.7422 52.8651 82.7723 52.9787 82.8044C53.0744 82.8291 53.1702 82.8557 53.2639 82.884C53.3599 82.9106 53.4539 82.939 53.5479 82.9691C53.6418 82.9958 53.736 83.0259 53.8283 83.0561C53.9205 83.0846 54.0128 83.1147 54.1051 83.1466C54.1955 83.1768 54.2877 83.2086 54.3781 83.2406C54.4685 83.2707 54.5588 83.3044 54.6477 83.3381C54.7381 83.3702 54.8269 83.4038 54.9154 83.4393C54.9794 83.4625 55.0415 83.4872 55.1038 83.512C55.2189 83.5582 55.3324 83.6043 55.4458 83.6521C55.5026 83.6752 55.5594 83.7 55.6162 83.7248C55.6429 83.7355 55.6696 83.7462 55.6943 83.7585C55.7795 83.7957 55.8645 83.8331 55.9479 83.8721C56.1147 83.9483 56.2796 84.0264 56.4411 84.108C56.5226 84.147 56.6042 84.1877 56.6839 84.2305C57.0832 84.4363 57.4683 84.6561 57.8336 84.8867C57.9061 84.9329 57.9788 84.9789 58.0517 85.0267C58.1955 85.1208 58.3355 85.2166 58.4739 85.3161C58.543 85.364 58.6122 85.4137 58.6798 85.4651C58.7472 85.5147 58.8144 85.5662 58.8802 85.6176C58.9475 85.6672 59.013 85.7187 59.077 85.7717C59.1408 85.8232 59.2048 85.8766 59.2685 85.9297C59.352 85.9989 59.4351 86.0715 59.5168 86.1462C59.6196 86.2331 59.7192 86.3254 59.8167 86.4176C59.8752 86.4726 59.9338 86.5295 59.9904 86.5859C60.017 86.6129 60.0418 86.6374 60.0685 86.6641C60.12 86.7155 60.1696 86.767 60.2194 86.8203C60.2549 86.8557 60.2885 86.8928 60.3221 86.9302C60.3773 86.9885 60.4303 87.0491 60.4819 87.1076C60.5279 87.1608 60.5741 87.2123 60.6184 87.2654C60.7407 87.411 60.8596 87.5601 60.9733 87.7107C60.9768 87.7142 60.9787 87.7195 60.9821 87.723C61.0069 87.755 61.0298 87.787 61.053 87.8189C61.0797 87.8544 61.1045 87.8899 61.1292 87.9254C61.1347 87.9307 61.1381 87.9377 61.1434 87.9449C61.2517 88.0993 61.3565 88.2552 61.4539 88.415C61.4575 88.4202 61.4592 88.4238 61.463 88.4291C61.484 88.4646 61.5053 88.4982 61.5247 88.5336C61.564 88.5977 61.6011 88.6614 61.6368 88.7253C61.6418 88.7361 61.649 88.7467 61.6544 88.7574C61.7021 88.8424 61.7466 88.9276 61.7928 89.0125C61.7981 89.0251 61.805 89.0392 61.8123 89.0518C61.8565 89.1388 61.8992 89.2272 61.9399 89.3161C61.9418 89.3214 61.9453 89.3248 61.9472 89.3302C61.993 89.4259 62.0356 89.5235 62.0765 89.623C62.0784 89.6265 62.0802 89.6299 62.0819 89.6336C62.1211 89.7293 62.16 89.8251 62.1955 89.9227C62.2327 90.0219 62.2679 90.123 62.3018 90.2243C62.3354 90.3272 62.3674 90.4298 62.3975 90.5329C62.4277 90.6357 62.4562 90.7403 62.481 90.8451C62.4917 90.884 62.5005 90.923 62.5094 90.9622C62.5253 91.0277 62.5394 91.0934 62.5538 91.1608C62.6885 91.8118 62.7419 92.4665 62.7205 93.1227Z" fill="white"/>
</svg>
