<?xml version="1.0" encoding="iso-8859-1"?>
<!-- Generator: Adobe Illustrator 29.8.2, SVG Export Plug-In . SVG Version: 9.03 Build 0)  -->
<svg version="1.1" id="Ebene_1" xmlns="http://www.w3.org/2000/svg" xmlns:xlink="http://www.w3.org/1999/xlink" x="0px" y="0px"
	 viewBox="0 0 667 262" style="enable-background:new 0 0 667 262;" xml:space="preserve">
<g>
	<path d="M573.864,73.922c-12.779,2.045-18.912,11.245-18.912,27.602s8.689,27.602,21.468,27.602
		c12.779,0,11.756-2.045,23.512-7.667v13.29c-13.801,6.645-21.979,8.178-33.735,8.178c-11.756,0-20.957-3.067-27.602-10.223
		c-7.156-7.156-10.734-16.868-10.734-27.09c0-23.512,17.379-39.358,42.936-39.358c25.557,0,28.624,7.667,28.624,18.912
		s-5.622,12.267-13.29,12.267s-7.667-1.022-11.756-3.578V73.922l0,0L573.864,73.922z M512.016,105.101
		c11.245-14.312,15.334-19.935,15.334-27.09s-5.623-12.779-12.779-12.779c-7.156,0-8.689,2.045-10.734,4.6v29.135l-18.401,24.535
		V67.277h-17.379l-29.135,48.558V67.277h-10.223l-26.579,6.645v6.645l14.312,1.533v59.292h18.912l28.113-46.003v46.003h20.446
		L512.016,105.101C512.016,105.101,512.016,105.101,512.016,105.101z M346.406,82.611c4.089,0,6.645-1.022,8.689-1.022
		c12.267,0,18.912,8.178,18.912,23.512s-8.178,27.602-23.001,27.602c-14.823,0-2.045,0-4.089,0V83.122l0,0L346.406,82.611z
		 M346.406,140.881c4.6,0,9.712,0,12.267,0c25.046,0,40.891-15.845,40.891-39.869s-11.756-35.269-28.113-35.269
		c-16.357,0-11.756,1.533-25.046,9.712v-9.712h-7.667l-29.135,8.689v7.156h12.267v82.805l-10.734,2.556v6.645h47.536v-6.645
		l-12.267-2.556V140.37l0,0V140.881z"/>
	<path style="fill:#FD5108;" d="M559.938,45.809h-79.227l13.29-22.49h79.227L559.938,45.809z M666.256,0.828h-79.227l-13.29,22.49
		h79.227L666.256,0.828z"/>
	<g>
		<path d="M22.595,231.566h-1.472c-0.275-1.034-0.847-2.14-1.718-3.318c-0.871-1.178-1.705-1.826-2.503-1.943
			c-0.406-0.053-0.887-0.091-1.443-0.118s-1.187-0.04-1.895-0.04H8.892v11.191H12.1c0.97,0,1.725-0.102,2.263-0.305
			c0.538-0.202,0.998-0.513,1.378-0.932c0.262-0.288,0.501-0.736,0.718-1.345c0.217-0.609,0.358-1.26,0.424-1.954h1.472v10.955
			h-1.472c-0.04-0.575-0.174-1.23-0.403-1.963c-0.23-0.733-0.476-1.263-0.738-1.589c-0.394-0.484-0.889-0.815-1.486-0.992
			c-0.597-0.177-1.315-0.266-2.155-0.266H8.892v9.585c0,0.431,0.085,0.817,0.255,1.157c0.17,0.34,0.471,0.614,0.903,0.823
			c0.196,0.091,0.621,0.202,1.276,0.333c0.654,0.13,1.152,0.202,1.492,0.216v1.394H0.744v-1.394
			c0.393-0.026,0.916-0.069,1.571-0.128c0.654-0.058,1.08-0.134,1.276-0.226c0.393-0.169,0.677-0.422,0.854-0.755
			c0.177-0.334,0.265-0.736,0.265-1.208v-20.103c0-0.432-0.073-0.814-0.216-1.149c-0.144-0.333-0.445-0.605-0.903-0.814
			c-0.354-0.17-0.828-0.32-1.424-0.452c-0.596-0.13-1.07-0.209-1.423-0.235v-1.394h21.851V231.566z"/>
		<path d="M45.302,252.102l-6.321,0.431l-0.296-0.274v-2.455h-0.117c-0.314,0.328-0.667,0.678-1.059,1.051
			c-0.392,0.373-0.843,0.71-1.352,1.01c-0.588,0.354-1.157,0.622-1.705,0.805c-0.549,0.184-1.326,0.275-2.332,0.275
			c-1.712,0-3.016-0.558-3.911-1.676c-0.895-1.119-1.342-2.743-1.342-4.874v-9.257c0-0.471-0.089-0.866-0.267-1.186
			c-0.178-0.32-0.438-0.598-0.78-0.833c-0.237-0.157-0.534-0.271-0.889-0.343c-0.356-0.073-0.731-0.121-1.126-0.148v-1.296
			l6.459-0.471l0.295,0.275v13.448c0,1.4,0.314,2.454,0.942,3.161c0.629,0.706,1.381,1.06,2.258,1.06
			c0.719,0,1.361-0.111,1.924-0.333c0.563-0.222,1.034-0.484,1.414-0.785c0.353-0.274,0.664-0.565,0.932-0.872
			c0.268-0.307,0.475-0.591,0.619-0.853v-10.961c0-0.431-0.092-0.814-0.275-1.147s-0.439-0.618-0.766-0.853
			c-0.236-0.157-0.586-0.251-1.05-0.284c-0.465-0.033-0.985-0.062-1.561-0.089v-1.296l7.047-0.471l0.296,0.274v15.356
			c0,0.444,0.091,0.824,0.274,1.137c0.183,0.314,0.438,0.582,0.766,0.804c0.235,0.144,0.517,0.239,0.844,0.284
			c0.327,0.046,0.687,0.075,1.08,0.089V252.102z M32.502,225.677c0,0.668-0.226,1.236-0.677,1.708
			c-0.452,0.471-0.998,0.706-1.639,0.706c-0.641,0-1.188-0.235-1.639-0.706c-0.452-0.472-0.677-1.04-0.677-1.708
			s0.226-1.237,0.677-1.708c0.452-0.472,0.998-0.707,1.639-0.707c0.641,0,1.188,0.235,1.639,0.707
			C32.276,224.439,32.502,225.009,32.502,225.677z M40.944,225.677c0,0.668-0.226,1.236-0.677,1.708
			c-0.452,0.471-0.998,0.706-1.639,0.706s-1.188-0.235-1.639-0.706c-0.452-0.472-0.677-1.04-0.677-1.708s0.226-1.237,0.677-1.708
			c0.452-0.472,0.998-0.707,1.639-0.707s1.188,0.235,1.639,0.707C40.718,224.439,40.944,225.009,40.944,225.677z"/>
		<path d="M62.368,235.591c0,0.668-0.164,1.26-0.491,1.777c-0.327,0.517-0.831,0.775-1.512,0.775c-0.733,0-1.292-0.189-1.678-0.569
			c-0.386-0.379-0.579-0.798-0.579-1.257c0-0.287,0.023-0.549,0.069-0.785c0.046-0.235,0.089-0.471,0.128-0.706
			c-0.615,0-1.335,0.249-2.16,0.746c-0.824,0.497-1.525,1.204-2.101,2.121v11.269c0,0.458,0.089,0.831,0.265,1.119
			c0.177,0.288,0.455,0.504,0.834,0.648c0.327,0.131,0.749,0.23,1.266,0.295c0.517,0.066,0.965,0.111,1.345,0.137v1.296H47.545
			v-1.296c0.301-0.026,0.612-0.052,0.933-0.079c0.321-0.025,0.599-0.078,0.834-0.156c0.366-0.118,0.638-0.323,0.815-0.618
			c0.177-0.294,0.265-0.676,0.265-1.147v-11.942c0-0.405-0.095-0.804-0.285-1.196c-0.19-0.392-0.455-0.706-0.795-0.942
			c-0.249-0.156-0.543-0.271-0.883-0.343c-0.34-0.072-0.707-0.121-1.099-0.148v-1.296l6.439-0.431l0.275,0.275v2.729h0.098
			c0.811-1.06,1.714-1.865,2.709-2.415s1.904-0.824,2.729-0.824c0.825,0,1.495,0.268,2.013,0.804
			C62.11,233.967,62.368,234.688,62.368,235.591z"/>
		<path d="M90.305,250.452c0.523,0.498,0.935,1.06,1.237,1.688c0.301,0.629,0.451,1.407,0.451,2.337c0,0.928-0.203,1.802-0.609,2.62
			c-0.406,0.818-1.021,1.528-1.845,2.13c-0.877,0.615-1.924,1.093-3.141,1.433c-1.217,0.341-2.723,0.51-4.515,0.51
			c-2.932,0-5.124-0.428-6.577-1.285c-1.453-0.858-2.179-2.111-2.179-3.76c0-1.335,0.524-2.389,1.571-3.161
			c1.047-0.772,2.382-1.191,4.005-1.256v-0.275c-0.393-0.118-0.798-0.266-1.217-0.442c-0.419-0.177-0.779-0.383-1.08-0.619
			c-0.34-0.275-0.615-0.599-0.824-0.972c-0.21-0.373-0.314-0.834-0.314-1.384c0-0.694,0.245-1.331,0.736-1.914
			c0.491-0.582,1.234-1.083,2.228-1.502v-0.295c-1.256-0.589-2.232-1.345-2.925-2.267c-0.694-0.923-1.04-1.992-1.04-3.21
			c0-1.832,0.684-3.337,2.052-4.515c1.367-1.178,3.118-1.767,5.251-1.767c0.589,0,1.175,0.059,1.758,0.177
			c0.582,0.118,1.174,0.268,1.776,0.451h6.754v1.885h-4.555v0.118c0.484,0.563,0.844,1.185,1.08,1.865
			c0.236,0.681,0.354,1.348,0.354,2.002c0,1.702-0.691,3.141-2.071,4.319c-1.381,1.178-2.988,1.767-4.82,1.767h-2.376
			c-0.301,0.105-0.615,0.295-0.942,0.57c-0.327,0.275-0.491,0.648-0.491,1.119c0,0.484,0.137,0.854,0.412,1.109
			c0.275,0.255,0.609,0.429,1.001,0.521c0.379,0.105,0.821,0.169,1.325,0.196c0.503,0.026,1.024,0.046,1.561,0.059
			c0.576,0.013,1.364,0.052,2.366,0.118c1.001,0.065,1.711,0.105,2.13,0.118c0.602,0.026,1.208,0.17,1.816,0.432
			C89.255,249.635,89.808,249.995,90.305,250.452z M88.774,255.204c0-0.734-0.17-1.335-0.51-1.806
			c-0.34-0.472-0.857-0.792-1.551-0.962c-0.367-0.052-1.119-0.111-2.258-0.176c-1.138-0.066-2.461-0.099-3.966-0.099
			c-1.414,0.275-2.418,0.736-3.014,1.384c-0.596,0.648-0.893,1.482-0.893,2.504c0,0.458,0.098,0.895,0.294,1.314
			c0.196,0.419,0.537,0.805,1.021,1.159c0.458,0.34,1.073,0.618,1.846,0.834c0.772,0.216,1.715,0.324,2.827,0.324
			c1.924,0,3.439-0.37,4.545-1.109C88.221,257.831,88.774,256.708,88.774,255.204z M85.004,238.967c0-1.531-0.311-2.751-0.933-3.661
			c-0.622-0.91-1.495-1.365-2.621-1.365c-0.615,0-1.142,0.128-1.58,0.383c-0.438,0.255-0.795,0.619-1.07,1.089
			c-0.262,0.432-0.449,0.952-0.56,1.561c-0.111,0.608-0.167,1.234-0.167,1.875c0,1.453,0.317,2.637,0.952,3.554
			c0.635,0.916,1.456,1.374,2.464,1.374c1.125,0,1.992-0.455,2.601-1.364C84.7,241.503,85.004,240.355,85.004,238.967z"/>
		<path d="M110.007,247.9c-0.812,1.544-1.898,2.775-3.259,3.691c-1.361,0.915-2.925,1.374-4.692,1.374
			c-1.558,0-2.922-0.275-4.093-0.825c-1.172-0.549-2.137-1.296-2.896-2.237c-0.759-0.943-1.325-2.042-1.698-3.298
			c-0.373-1.257-0.56-2.585-0.56-3.986c0-1.256,0.2-2.49,0.599-3.701c0.399-1.211,0.985-2.3,1.757-3.269
			c0.746-0.928,1.672-1.678,2.778-2.248c1.106-0.57,2.346-0.854,3.72-0.854c1.414,0,2.624,0.223,3.632,0.668
			c1.008,0.445,1.826,1.054,2.454,1.826c0.602,0.734,1.05,1.597,1.345,2.591c0.294,0.995,0.442,2.075,0.442,3.239v1.297h-12.82
			c0,1.272,0.121,2.427,0.363,3.463c0.242,1.036,0.625,1.947,1.149,2.734c0.51,0.761,1.178,1.362,2.002,1.8
			c0.824,0.44,1.806,0.659,2.945,0.659c1.165,0,2.169-0.272,3.014-0.818c0.844-0.546,1.659-1.53,2.444-2.951L110.007,247.9z
			 M105.669,240.518c0-0.731-0.062-1.513-0.186-2.348c-0.125-0.835-0.324-1.533-0.599-2.094c-0.301-0.601-0.714-1.089-1.237-1.468
			c-0.524-0.379-1.198-0.568-2.022-0.568c-1.374,0-2.516,0.571-3.426,1.713c-0.91,1.141-1.403,2.73-1.482,4.765H105.669z"/>
		<path d="M140.692,234.354c-0.55,0.053-1.142,0.282-1.777,0.687c-0.635,0.406-1.097,1.014-1.384,1.826
			c-0.654,1.924-1.273,3.747-1.855,5.468c-0.582,1.721-1.234,3.655-1.953,5.801c-0.235,0.681-0.475,1.413-0.717,2.199
			c-0.242,0.785-0.461,1.539-0.658,2.258h-1.675l-5.222-14.268l-5.232,14.268h-1.614c-0.982-2.906-1.941-5.788-2.876-8.648
			c-0.936-2.86-1.764-5.35-2.483-7.471c-0.21-0.615-0.609-1.1-1.198-1.453s-1.158-0.562-1.708-0.628v-1.296h8.634v1.374
			c-0.432,0.013-0.9,0.086-1.403,0.217c-0.504,0.131-0.756,0.347-0.756,0.648c0,0.053,0.023,0.164,0.069,0.333
			c0.046,0.17,0.101,0.354,0.167,0.55c0.419,1.372,0.893,2.904,1.422,4.595c0.53,1.692,1.213,3.89,2.05,6.593l4.937-13.917h1.902
			l5.043,13.723c0.564-1.75,1.123-3.445,1.681-5.085c0.557-1.639,1.045-3.178,1.464-4.615c0.091-0.339,0.18-0.65,0.265-0.931
			c0.085-0.282,0.128-0.559,0.128-0.834c0-0.236-0.105-0.445-0.314-0.629c-0.21-0.183-0.465-0.333-0.766-0.451
			c-0.262-0.105-0.547-0.184-0.854-0.235c-0.308-0.053-0.533-0.079-0.677-0.079v-1.256h7.361V234.354z"/>
		<path d="M159.547,242.579c0,1.362-0.217,2.7-0.649,4.015c-0.432,1.315-1.048,2.431-1.847,3.347
			c-0.904,1.047-1.953,1.826-3.145,2.336c-1.193,0.51-2.529,0.766-4.009,0.766c-1.232,0-2.404-0.233-3.518-0.698
			c-1.113-0.464-2.103-1.141-2.967-2.032c-0.851-0.877-1.53-1.946-2.034-3.21c-0.504-1.263-0.757-2.68-0.757-4.25
			c0-3.023,0.881-5.497,2.644-7.421c1.762-1.924,4.071-2.886,6.927-2.886c2.712,0,4.949,0.913,6.711,2.739
			C158.666,237.112,159.547,239.544,159.547,242.579z M148.298,225.677c0,0.668-0.226,1.236-0.677,1.708
			c-0.452,0.471-0.998,0.706-1.639,0.706s-1.188-0.235-1.639-0.706c-0.452-0.472-0.677-1.04-0.677-1.708s0.226-1.237,0.677-1.708
			c0.451-0.472,0.998-0.707,1.639-0.707s1.188,0.235,1.639,0.707C148.072,224.439,148.298,225.009,148.298,225.677z
			 M155.483,242.619c0-0.981-0.098-2.019-0.295-3.112c-0.197-1.092-0.492-2.019-0.885-2.778c-0.419-0.812-0.97-1.462-1.652-1.953
			c-0.682-0.492-1.515-0.736-2.498-0.736c-1.01,0-1.871,0.249-2.586,0.746c-0.715,0.497-1.295,1.178-1.741,2.041
			c-0.419,0.798-0.715,1.708-0.885,2.73c-0.171,1.021-0.256,2.008-0.256,2.964c0,1.256,0.102,2.418,0.305,3.485
			c0.203,1.067,0.527,2.019,0.974,2.856c0.445,0.838,1.006,1.496,1.681,1.974c0.676,0.477,1.511,0.717,2.508,0.717
			c1.639,0,2.937-0.792,3.895-2.376C155.004,247.593,155.483,245.407,155.483,242.619z M156.74,225.677
			c0,0.668-0.226,1.236-0.677,1.708c-0.452,0.471-0.998,0.706-1.639,0.706s-1.188-0.235-1.639-0.706
			c-0.452-0.472-0.677-1.04-0.677-1.708s0.226-1.237,0.677-1.708c0.452-0.472,0.998-0.707,1.639-0.707s1.188,0.235,1.639,0.707
			C156.514,224.439,156.74,225.009,156.74,225.677z"/>
		<path d="M182.311,252.455h-9.522v-1.296c0.301-0.026,0.635-0.052,1.001-0.079c0.366-0.025,0.667-0.078,0.903-0.156
			c0.366-0.118,0.638-0.324,0.814-0.619c0.177-0.295,0.265-0.677,0.265-1.149v-9.954c0-1.374-0.325-2.434-0.974-3.18
			c-0.649-0.747-1.44-1.12-2.371-1.12c-0.682,0-1.315,0.108-1.899,0.324c-0.584,0.216-1.105,0.481-1.564,0.796
			c-0.446,0.327-0.787,0.654-1.023,0.981c-0.236,0.328-0.42,0.603-0.551,0.825v11.132c0,0.444,0.089,0.812,0.265,1.099
			c0.177,0.288,0.448,0.51,0.815,0.668c0.288,0.131,0.586,0.23,0.893,0.295c0.307,0.066,0.645,0.111,1.011,0.137v1.296h-9.482
			v-1.296c0.298-0.026,0.611-0.056,0.936-0.089c0.325-0.032,0.598-0.082,0.819-0.148c0.364-0.118,0.637-0.324,0.819-0.619
			c0.182-0.294,0.273-0.677,0.273-1.149v-22.554c0-0.445-0.101-0.891-0.304-1.336c-0.203-0.445-0.468-0.78-0.795-1.002
			c-0.235-0.17-0.651-0.291-1.247-0.363c-0.596-0.073-1.077-0.121-1.443-0.148v-1.256l7.166-0.432l0.274,0.295v13.507h0.079
			c0.433-0.432,0.826-0.815,1.18-1.149c0.354-0.333,0.82-0.684,1.396-1.05c0.498-0.314,1.085-0.576,1.76-0.785
			c0.675-0.21,1.432-0.314,2.271-0.314c1.731,0,3.061,0.546,3.992,1.639c0.931,1.093,1.396,2.667,1.396,4.721v10.071
			c0,0.459,0.082,0.829,0.247,1.109c0.164,0.282,0.438,0.501,0.82,0.658c0.303,0.118,0.577,0.206,0.821,0.265
			c0.244,0.059,0.564,0.102,0.959,0.128V252.455z"/>
		<path d="M205.918,252.455h-9.463v-1.296c0.301-0.026,0.631-0.052,0.992-0.079c0.36-0.025,0.658-0.078,0.894-0.156
			c0.366-0.118,0.638-0.324,0.814-0.619c0.177-0.295,0.265-0.677,0.265-1.149v-9.954c0-1.374-0.325-2.434-0.974-3.18
			c-0.65-0.747-1.44-1.12-2.371-1.12c-0.695,0-1.331,0.108-1.909,0.324c-0.577,0.216-1.089,0.481-1.534,0.796
			c-0.433,0.3-0.777,0.624-1.033,0.972c-0.256,0.347-0.443,0.625-0.561,0.834v11.132c0,0.444,0.091,0.812,0.275,1.099
			c0.183,0.288,0.458,0.51,0.824,0.668c0.275,0.131,0.572,0.23,0.894,0.295c0.321,0.066,0.651,0.111,0.992,0.137v1.296h-9.483
			v-1.296c0.301-0.026,0.612-0.052,0.933-0.079c0.321-0.025,0.599-0.078,0.834-0.156c0.366-0.118,0.638-0.323,0.815-0.618
			c0.177-0.294,0.265-0.676,0.265-1.147v-11.942c0-0.444-0.095-0.853-0.285-1.225c-0.19-0.373-0.455-0.677-0.795-0.912
			c-0.249-0.156-0.543-0.271-0.883-0.343c-0.34-0.072-0.707-0.121-1.099-0.148v-1.296l6.439-0.431l0.275,0.275v2.729h0.098
			c0.314-0.314,0.707-0.69,1.178-1.129c0.471-0.439,0.916-0.796,1.335-1.07c0.484-0.314,1.06-0.576,1.728-0.785
			c0.668-0.21,1.42-0.314,2.258-0.314c1.858,0,3.236,0.579,4.133,1.737c0.896,1.158,1.345,2.7,1.345,4.623v10.071
			c0,0.459,0.078,0.829,0.235,1.109c0.157,0.282,0.425,0.501,0.805,0.658c0.314,0.131,0.586,0.222,0.814,0.275
			c0.229,0.053,0.547,0.091,0.952,0.118V252.455z"/>
		<path d="M217.424,252.455h-9.443v-1.296c0.301-0.026,0.621-0.056,0.962-0.089c0.34-0.032,0.621-0.082,0.844-0.148
			c0.366-0.118,0.641-0.324,0.825-0.619c0.183-0.294,0.275-0.677,0.275-1.149v-22.437c0-0.472-0.102-0.913-0.305-1.326
			c-0.203-0.413-0.468-0.737-0.795-0.973c-0.235-0.157-0.667-0.301-1.296-0.432c-0.628-0.131-1.132-0.21-1.512-0.236v-1.256
			l7.284-0.432l0.275,0.295v26.563c0,0.459,0.085,0.834,0.255,1.129c0.17,0.295,0.445,0.52,0.824,0.677
			c0.288,0.131,0.573,0.23,0.854,0.295c0.282,0.066,0.599,0.111,0.952,0.137V252.455z"/>
		<path d="M229.046,252.455h-9.345v-1.296c0.301-0.026,0.612-0.052,0.933-0.079c0.32-0.025,0.598-0.078,0.834-0.156
			c0.366-0.118,0.638-0.323,0.814-0.618c0.177-0.294,0.265-0.676,0.265-1.147v-11.942c0-0.418-0.095-0.8-0.284-1.147
			c-0.19-0.347-0.455-0.637-0.795-0.873c-0.249-0.156-0.609-0.291-1.08-0.402s-0.903-0.179-1.296-0.206v-1.296l6.832-0.431
			l0.274,0.275v15.784c0,0.459,0.088,0.838,0.264,1.138c0.175,0.301,0.451,0.524,0.828,0.668c0.286,0.118,0.565,0.213,0.839,0.285
			c0.273,0.072,0.579,0.121,0.917,0.147V252.455z M226.592,225.225c0,0.746-0.245,1.397-0.736,1.954
			c-0.491,0.556-1.096,0.834-1.816,0.834c-0.668,0-1.247-0.266-1.738-0.796c-0.491-0.53-0.736-1.135-0.736-1.815
			c0-0.72,0.246-1.348,0.736-1.885c0.491-0.537,1.07-0.805,1.738-0.805c0.746,0,1.357,0.252,1.835,0.756
			C226.353,223.971,226.592,224.557,226.592,225.225z"/>
		<path d="M239.361,252.965c-2.801,0-4.994-0.929-6.577-2.788c-1.584-1.858-2.376-4.351-2.376-7.479
			c0-1.362,0.213-2.635,0.638-3.819c0.425-1.185,1.043-2.261,1.855-3.23c0.772-0.928,1.741-1.678,2.906-2.248
			c1.165-0.57,2.435-0.854,3.809-0.854c1.897,0,3.442,0.455,4.633,1.364c1.191,0.91,1.787,2.15,1.787,3.72
			c0,0.654-0.157,1.234-0.471,1.737c-0.314,0.505-0.831,0.756-1.551,0.756c-0.772,0-1.371-0.196-1.796-0.587
			c-0.426-0.392-0.638-0.829-0.638-1.312c0-0.587,0.078-1.19,0.235-1.81c0.157-0.62,0.249-1.073,0.275-1.361
			c-0.235-0.404-0.584-0.674-1.048-0.812c-0.463-0.137-0.963-0.205-1.498-0.205c-0.627,0-1.224,0.134-1.792,0.402
			c-0.568,0.268-1.12,0.763-1.655,1.482c-0.483,0.655-0.875,1.539-1.175,2.651c-0.3,1.113-0.451,2.442-0.451,3.986
			c0,2.434,0.539,4.42,1.617,5.959c1.078,1.538,2.493,2.306,4.244,2.306c1.267,0,2.33-0.309,3.185-0.927
			c0.856-0.618,1.65-1.546,2.382-2.782l1.254,0.824c-0.863,1.545-2.002,2.768-3.416,3.671
			C242.325,252.514,240.865,252.965,239.361,252.965z"/>
		<path d="M269.237,252.455h-9.522v-1.296c0.301-0.026,0.635-0.052,1.001-0.079c0.366-0.025,0.667-0.078,0.903-0.156
			c0.366-0.118,0.638-0.324,0.815-0.619c0.177-0.295,0.265-0.677,0.265-1.149v-9.954c0-1.374-0.325-2.434-0.974-3.18
			c-0.649-0.747-1.44-1.12-2.371-1.12c-0.682,0-1.315,0.108-1.899,0.324c-0.584,0.216-1.105,0.481-1.564,0.796
			c-0.446,0.327-0.787,0.654-1.023,0.981c-0.236,0.328-0.42,0.603-0.551,0.825v11.132c0,0.444,0.089,0.812,0.265,1.099
			c0.177,0.288,0.448,0.51,0.815,0.668c0.288,0.131,0.586,0.23,0.893,0.295c0.307,0.066,0.645,0.111,1.011,0.137v1.296h-9.482
			v-1.296c0.298-0.026,0.611-0.056,0.936-0.089c0.325-0.032,0.598-0.082,0.819-0.148c0.364-0.118,0.637-0.324,0.819-0.619
			c0.182-0.294,0.273-0.677,0.273-1.149v-22.554c0-0.445-0.101-0.891-0.304-1.336c-0.203-0.445-0.468-0.78-0.795-1.002
			c-0.235-0.17-0.651-0.291-1.247-0.363c-0.596-0.073-1.077-0.121-1.443-0.148v-1.256l7.166-0.432l0.274,0.295v13.507h0.079
			c0.433-0.432,0.826-0.815,1.18-1.149s0.82-0.684,1.396-1.05c0.498-0.314,1.085-0.576,1.76-0.785
			c0.675-0.21,1.432-0.314,2.271-0.314c1.731,0,3.061,0.546,3.992,1.639c0.931,1.093,1.396,2.667,1.396,4.721v10.071
			c0,0.459,0.082,0.829,0.247,1.109c0.164,0.282,0.438,0.501,0.82,0.658c0.303,0.118,0.577,0.206,0.821,0.265
			c0.244,0.059,0.564,0.102,0.959,0.128V252.455z"/>
		<path d="M288.654,260.779h-2.493v-38.225h2.493V260.779z"/>
		<path d="M324.385,252.102c-0.615,0.222-1.155,0.402-1.62,0.54c-0.465,0.137-0.992,0.206-1.581,0.206
			c-1.021,0-1.836-0.239-2.444-0.717c-0.608-0.477-0.998-1.174-1.168-2.091h-0.118c-0.851,0.943-1.764,1.663-2.739,2.16
			c-0.975,0.497-2.15,0.746-3.524,0.746c-1.453,0-2.647-0.444-3.583-1.335c-0.936-0.89-1.404-2.055-1.404-3.494
			c0-0.746,0.105-1.413,0.314-2.003c0.21-0.589,0.524-1.119,0.943-1.589c0.327-0.393,0.759-0.743,1.296-1.051
			c0.537-0.307,1.04-0.553,1.512-0.736c0.589-0.222,1.783-0.635,3.583-1.236c1.799-0.602,3.014-1.073,3.642-1.414v-1.943
			c0-0.169-0.036-0.497-0.108-0.981c-0.072-0.484-0.226-0.943-0.461-1.375c-0.262-0.484-0.631-0.906-1.109-1.266
			c-0.478-0.361-1.155-0.54-2.032-0.54c-0.602,0-1.161,0.102-1.678,0.304c-0.517,0.203-0.88,0.416-1.09,0.638
			c0,0.262,0.062,0.648,0.187,1.158c0.124,0.51,0.186,0.982,0.186,1.413c0,0.459-0.206,0.878-0.619,1.257
			c-0.412,0.379-0.985,0.569-1.718,0.569c-0.654,0-1.136-0.232-1.443-0.697c-0.308-0.464-0.461-0.985-0.461-1.56
			c0-0.603,0.212-1.178,0.638-1.728c0.425-0.55,0.978-1.04,1.659-1.473c0.589-0.366,1.302-0.677,2.14-0.932
			c0.838-0.255,1.655-0.383,2.454-0.383c1.1,0,2.058,0.075,2.876,0.226c0.818,0.151,1.561,0.475,2.228,0.972
			c0.668,0.484,1.175,1.142,1.522,1.973c0.347,0.831,0.52,1.902,0.52,3.21c0,1.872-0.02,3.531-0.059,4.977
			c-0.039,1.446-0.059,3.026-0.059,4.741c0,0.51,0.089,0.916,0.265,1.218s0.448,0.556,0.814,0.766
			c0.196,0.118,0.507,0.184,0.933,0.196c0.425,0.013,0.861,0.02,1.306,0.02V252.102z M317.534,241.736
			c-1.113,0.328-2.088,0.65-2.925,0.964c-0.838,0.314-1.617,0.708-2.337,1.18c-0.654,0.446-1.171,0.975-1.551,1.585
			c-0.38,0.609-0.569,1.334-0.569,2.174c0,1.089,0.284,1.888,0.854,2.4c0.569,0.511,1.292,0.767,2.169,0.767
			c0.929,0,1.747-0.227,2.454-0.679c0.707-0.453,1.302-0.987,1.787-1.604L317.534,241.736z"/>
		<path d="M345.621,252.102l-6.321,0.431l-0.296-0.274v-2.455h-0.117c-0.315,0.328-0.667,0.678-1.059,1.051
			c-0.392,0.373-0.843,0.71-1.352,1.01c-0.588,0.354-1.156,0.622-1.705,0.805c-0.549,0.184-1.326,0.275-2.332,0.275
			c-1.712,0-3.015-0.558-3.911-1.676c-0.895-1.119-1.342-2.743-1.342-4.874v-9.257c0-0.471-0.089-0.866-0.267-1.186
			c-0.178-0.32-0.438-0.598-0.78-0.833c-0.237-0.157-0.534-0.271-0.889-0.343c-0.356-0.073-0.731-0.121-1.126-0.148v-1.296
			l6.459-0.471l0.295,0.275v13.448c0,1.4,0.314,2.454,0.942,3.161c0.629,0.706,1.381,1.06,2.258,1.06
			c0.719,0,1.362-0.111,1.924-0.333c0.563-0.222,1.034-0.484,1.414-0.785c0.353-0.274,0.664-0.565,0.932-0.872
			s0.475-0.591,0.619-0.853v-10.961c0-0.431-0.092-0.814-0.275-1.147c-0.184-0.333-0.439-0.618-0.766-0.853
			c-0.236-0.157-0.587-0.251-1.051-0.284c-0.464-0.033-0.985-0.062-1.56-0.089v-1.296l7.047-0.471l0.296,0.274v15.356
			c0,0.444,0.091,0.824,0.274,1.137c0.184,0.314,0.439,0.582,0.766,0.804c0.235,0.144,0.517,0.239,0.844,0.284
			c0.327,0.046,0.687,0.075,1.08,0.089V252.102z"/>
		<path d="M364.819,236.631c0.654,0.681,1.195,1.522,1.626,2.523c0.431,1.001,0.647,2.176,0.647,3.524
			c0,2.944-0.816,5.346-2.45,7.205c-1.633,1.859-3.652,2.787-6.055,2.787c-0.419,0-0.843-0.02-1.274-0.058
			c-0.431-0.04-0.798-0.092-1.098-0.157v-1.59c0.3,0.066,0.601,0.115,0.9,0.148c0.3,0.032,0.581,0.049,0.843,0.049
			c0.9,0,1.683-0.223,2.348-0.668c0.666-0.445,1.181-1.04,1.547-1.787c0.391-0.772,0.678-1.652,0.861-2.64
			c0.183-0.988,0.275-2.123,0.275-3.406c0-2.265-0.487-4.097-1.459-5.497c-0.972-1.401-2.351-2.101-4.138-2.101h-0.392v-1.669h0.704
			c0.508,0,1.033-0.098,1.574-0.294c0.541-0.197,1.027-0.497,1.458-0.903c0.456-0.445,0.817-0.995,1.086-1.65
			c0.266-0.654,0.4-1.433,0.4-2.336c0-1.479-0.326-2.614-0.979-3.406c-0.653-0.792-1.521-1.188-2.604-1.188
			c-1.527,0-2.653,0.703-3.378,2.11c-0.724,1.408-1.087,3.413-1.087,6.018v20.811h-6.42v-1.296c0.275-0.026,0.582-0.056,0.923-0.089
			c0.34-0.032,0.621-0.089,0.844-0.167c0.328-0.118,0.57-0.331,0.727-0.638c0.157-0.307,0.235-0.71,0.235-1.207v-16.354
			c0-1.793,0.137-3.314,0.412-4.565c0.275-1.25,0.949-2.45,2.022-3.603c0.878-0.943,1.832-1.596,2.867-1.963
			c1.033-0.366,2.048-0.55,3.042-0.55c0.929,0,1.777,0.108,2.542,0.325c0.766,0.216,1.489,0.579,2.169,1.089
			c0.641,0.484,1.152,1.092,1.532,1.826c0.379,0.733,0.569,1.642,0.569,2.729c0,0.981-0.18,1.843-0.539,2.582
			c-0.359,0.739-0.799,1.345-1.322,1.815c-0.523,0.472-1.088,0.845-1.695,1.12c-0.607,0.275-1.165,0.439-1.674,0.491v0.177
			c0.692,0.144,1.434,0.419,2.224,0.824C363.423,235.407,364.152,235.951,364.819,236.631z"/>
		<path d="M386.801,247.9c-0.812,1.544-1.898,2.775-3.26,3.691c-1.362,0.915-2.925,1.374-4.692,1.374
			c-1.557,0-2.922-0.275-4.093-0.825c-1.171-0.549-2.137-1.296-2.895-2.237c-0.76-0.943-1.326-2.042-1.699-3.298
			c-0.373-1.257-0.559-2.585-0.559-3.986c0-1.256,0.2-2.49,0.599-3.701c0.399-1.211,0.985-2.3,1.757-3.269
			c0.746-0.928,1.671-1.678,2.778-2.248s2.346-0.854,3.72-0.854c1.414,0,2.624,0.223,3.633,0.668
			c1.008,0.445,1.825,1.054,2.454,1.826c0.601,0.734,1.051,1.597,1.345,2.591c0.294,0.995,0.441,2.075,0.441,3.239v1.297h-12.819
			c0,1.272,0.121,2.427,0.363,3.463c0.242,1.036,0.624,1.947,1.149,2.734c0.51,0.761,1.178,1.362,2.002,1.8
			c0.825,0.44,1.806,0.659,2.945,0.659c1.164,0,2.169-0.272,3.013-0.818c0.844-0.546,1.659-1.53,2.444-2.951L386.801,247.9z
			 M382.462,240.518c0-0.731-0.062-1.513-0.186-2.348s-0.324-1.533-0.599-2.094c-0.301-0.601-0.714-1.089-1.237-1.468
			c-0.524-0.379-1.198-0.568-2.022-0.568c-1.375,0-2.517,0.571-3.427,1.713c-0.91,1.141-1.403,2.73-1.482,4.765H382.462z"/>
		<path d="M403.032,235.591c0,0.668-0.164,1.26-0.491,1.777c-0.328,0.517-0.831,0.775-1.512,0.775c-0.733,0-1.293-0.189-1.678-0.569
			c-0.387-0.379-0.58-0.798-0.58-1.257c0-0.287,0.024-0.549,0.069-0.785c0.046-0.235,0.089-0.471,0.128-0.706
			c-0.616,0-1.335,0.249-2.159,0.746c-0.825,0.497-1.525,1.204-2.101,2.121v11.269c0,0.458,0.088,0.831,0.265,1.119
			c0.177,0.288,0.455,0.504,0.834,0.648c0.327,0.131,0.75,0.23,1.266,0.295c0.517,0.066,0.965,0.111,1.345,0.137v1.296h-10.209
			v-1.296c0.301-0.026,0.612-0.052,0.933-0.079c0.32-0.025,0.599-0.078,0.834-0.156c0.366-0.118,0.637-0.323,0.814-0.618
			c0.177-0.294,0.265-0.676,0.265-1.147v-11.942c0-0.405-0.095-0.804-0.284-1.196c-0.19-0.392-0.455-0.706-0.795-0.942
			c-0.25-0.156-0.543-0.271-0.884-0.343c-0.34-0.072-0.706-0.121-1.099-0.148v-1.296l6.44-0.431l0.275,0.275v2.729h0.098
			c0.811-1.06,1.715-1.865,2.709-2.415c0.994-0.55,1.905-0.824,2.729-0.824c0.825,0,1.495,0.268,2.012,0.804
			C402.773,233.967,403.032,234.688,403.032,235.591z"/>
		<path d="M421.061,250.452c0.524,0.498,0.936,1.06,1.237,1.688c0.301,0.629,0.452,1.407,0.452,2.337
			c0,0.928-0.203,1.802-0.609,2.62c-0.406,0.818-1.021,1.528-1.846,2.13c-0.877,0.615-1.924,1.093-3.141,1.433
			c-1.217,0.341-2.722,0.51-4.515,0.51c-2.932,0-5.124-0.428-6.577-1.285c-1.453-0.858-2.179-2.111-2.179-3.76
			c0-1.335,0.523-2.389,1.571-3.161c1.047-0.772,2.381-1.191,4.005-1.256v-0.275c-0.393-0.118-0.798-0.266-1.217-0.442
			c-0.419-0.177-0.779-0.383-1.079-0.619c-0.341-0.275-0.616-0.599-0.825-0.972c-0.21-0.373-0.315-0.834-0.315-1.384
			c0-0.694,0.246-1.331,0.736-1.914c0.491-0.582,1.234-1.083,2.229-1.502v-0.295c-1.257-0.589-2.232-1.345-2.926-2.267
			c-0.694-0.923-1.04-1.992-1.04-3.21c0-1.832,0.684-3.337,2.052-4.515c1.367-1.178,3.118-1.767,5.251-1.767
			c0.589,0,1.175,0.059,1.757,0.177c0.583,0.118,1.175,0.268,1.777,0.451h6.754v1.885h-4.556v0.118
			c0.484,0.563,0.845,1.185,1.08,1.865s0.353,1.348,0.353,2.002c0,1.702-0.69,3.141-2.071,4.319
			c-1.381,1.178-2.988,1.767-4.82,1.767h-2.376c-0.301,0.105-0.615,0.295-0.943,0.57c-0.327,0.275-0.491,0.648-0.491,1.119
			c0,0.484,0.137,0.854,0.412,1.109c0.275,0.255,0.608,0.429,1.001,0.521c0.379,0.105,0.822,0.169,1.326,0.196
			c0.504,0.026,1.024,0.046,1.56,0.059c0.576,0.013,1.364,0.052,2.366,0.118c1.001,0.065,1.711,0.105,2.13,0.118
			c0.602,0.026,1.207,0.17,1.816,0.432C420.011,249.635,420.564,249.995,421.061,250.452z M419.53,255.204
			c0-0.734-0.17-1.335-0.51-1.806c-0.341-0.472-0.858-0.792-1.551-0.962c-0.366-0.052-1.12-0.111-2.258-0.176
			c-1.138-0.066-2.46-0.099-3.966-0.099c-1.413,0.275-2.418,0.736-3.013,1.384c-0.596,0.648-0.894,1.482-0.894,2.504
			c0,0.458,0.099,0.895,0.295,1.314c0.197,0.419,0.537,0.805,1.021,1.159c0.459,0.34,1.073,0.618,1.846,0.834
			c0.772,0.216,1.715,0.324,2.828,0.324c1.924,0,3.439-0.37,4.544-1.109C418.977,257.831,419.53,256.708,419.53,255.204z
			 M415.761,238.967c0-1.531-0.311-2.751-0.932-3.661c-0.622-0.91-1.496-1.365-2.621-1.365c-0.615,0-1.142,0.128-1.58,0.383
			c-0.439,0.255-0.796,0.619-1.071,1.089c-0.262,0.432-0.448,0.952-0.559,1.561c-0.111,0.608-0.167,1.234-0.167,1.875
			c0,1.453,0.317,2.637,0.952,3.554c0.635,0.916,1.456,1.374,2.464,1.374c1.125,0,1.992-0.455,2.601-1.364
			C415.457,241.503,415.761,240.355,415.761,238.967z"/>
		<path d="M440.764,247.9c-0.812,1.544-1.898,2.775-3.259,3.691c-1.362,0.915-2.926,1.374-4.692,1.374
			c-1.558,0-2.923-0.275-4.094-0.825c-1.171-0.549-2.137-1.296-2.895-2.237c-0.759-0.943-1.325-2.042-1.699-3.298
			c-0.373-1.257-0.559-2.585-0.559-3.986c0-1.256,0.2-2.49,0.599-3.701c0.399-1.211,0.985-2.3,1.757-3.269
			c0.747-0.928,1.672-1.678,2.778-2.248c1.106-0.57,2.346-0.854,3.721-0.854c1.413,0,2.623,0.223,3.632,0.668
			c1.008,0.445,1.826,1.054,2.454,1.826c0.602,0.734,1.051,1.597,1.345,2.591c0.295,0.995,0.442,2.075,0.442,3.239v1.297h-12.82
			c0,1.272,0.121,2.427,0.363,3.463c0.242,1.036,0.625,1.947,1.149,2.734c0.51,0.761,1.178,1.362,2.002,1.8
			c0.825,0.44,1.807,0.659,2.945,0.659c1.165,0,2.169-0.272,3.013-0.818c0.845-0.546,1.659-1.53,2.444-2.951L440.764,247.9z
			 M436.425,240.518c0-0.731-0.062-1.513-0.186-2.348c-0.124-0.835-0.324-1.533-0.599-2.094c-0.301-0.601-0.714-1.089-1.237-1.468
			s-1.197-0.568-2.022-0.568c-1.375,0-2.517,0.571-3.426,1.713c-0.911,1.141-1.404,2.73-1.483,4.765H436.425z"/>
		<path d="M471.448,234.354c-0.55,0.053-1.142,0.282-1.777,0.687s-1.096,1.014-1.384,1.826c-0.654,1.924-1.273,3.747-1.855,5.468
			c-0.583,1.721-1.234,3.655-1.954,5.801c-0.235,0.681-0.475,1.413-0.717,2.199c-0.242,0.785-0.461,1.539-0.657,2.258h-1.675
			l-5.222-14.268l-5.232,14.268h-1.614c-0.982-2.906-1.941-5.788-2.877-8.648c-0.936-2.86-1.764-5.35-2.483-7.471
			c-0.21-0.615-0.609-1.1-1.198-1.453c-0.589-0.353-1.158-0.562-1.708-0.628v-1.296h8.634v1.374c-0.432,0.013-0.9,0.086-1.404,0.217
			s-0.755,0.347-0.755,0.648c0,0.053,0.023,0.164,0.069,0.333c0.045,0.17,0.101,0.354,0.167,0.55
			c0.418,1.372,0.893,2.904,1.423,4.595c0.529,1.692,1.213,3.89,2.05,6.593l4.937-13.917h1.902l5.043,13.723
			c0.563-1.75,1.123-3.445,1.681-5.085c0.556-1.639,1.044-3.178,1.464-4.615c0.091-0.339,0.18-0.65,0.266-0.931
			c0.085-0.282,0.127-0.559,0.127-0.834c0-0.236-0.105-0.445-0.314-0.629c-0.21-0.183-0.465-0.333-0.766-0.451
			c-0.262-0.105-0.546-0.184-0.854-0.235c-0.307-0.053-0.533-0.079-0.677-0.079v-1.256h7.361V234.354z"/>
		<path d="M490.303,242.579c0,1.362-0.217,2.7-0.649,4.015c-0.432,1.315-1.048,2.431-1.847,3.347
			c-0.904,1.047-1.952,1.826-3.144,2.336c-1.193,0.51-2.529,0.766-4.009,0.766c-1.232,0-2.405-0.233-3.518-0.698
			c-1.114-0.464-2.103-1.141-2.968-2.032c-0.851-0.877-1.53-1.946-2.034-3.21c-0.505-1.263-0.756-2.68-0.756-4.25
			c0-3.023,0.88-5.497,2.643-7.421c1.762-1.924,4.072-2.886,6.927-2.886c2.712,0,4.949,0.913,6.712,2.739
			C489.421,237.112,490.303,239.544,490.303,242.579z M479.053,225.677c0,0.668-0.226,1.236-0.677,1.708
			c-0.452,0.471-0.999,0.706-1.639,0.706c-0.642,0-1.188-0.235-1.639-0.706c-0.452-0.472-0.678-1.04-0.678-1.708
			s0.226-1.237,0.678-1.708c0.451-0.472,0.997-0.707,1.639-0.707c0.64,0,1.187,0.235,1.639,0.707
			C478.827,224.439,479.053,225.009,479.053,225.677z M486.239,242.619c0-0.981-0.099-2.019-0.295-3.112
			c-0.197-1.092-0.492-2.019-0.885-2.778c-0.42-0.812-0.971-1.462-1.653-1.953c-0.682-0.492-1.514-0.736-2.498-0.736
			c-1.009,0-1.872,0.249-2.586,0.746c-0.716,0.497-1.296,1.178-1.741,2.041c-0.42,0.798-0.715,1.708-0.885,2.73
			c-0.17,1.021-0.256,2.008-0.256,2.964c0,1.256,0.102,2.418,0.305,3.485c0.203,1.067,0.528,2.019,0.974,2.856
			c0.446,0.838,1.007,1.496,1.682,1.974c0.675,0.477,1.511,0.717,2.508,0.717c1.639,0,2.938-0.792,3.894-2.376
			C485.759,247.593,486.239,245.407,486.239,242.619z M487.495,225.677c0,0.668-0.225,1.236-0.677,1.708
			c-0.452,0.471-0.998,0.706-1.639,0.706c-0.641,0-1.187-0.235-1.639-0.706c-0.451-0.472-0.677-1.04-0.677-1.708
			s0.226-1.237,0.677-1.708c0.452-0.472,0.998-0.707,1.639-0.707c0.641,0,1.187,0.235,1.639,0.707
			C487.27,224.439,487.495,225.009,487.495,225.677z"/>
		<path d="M513.066,252.455h-9.522v-1.296c0.301-0.026,0.635-0.052,1.001-0.079c0.366-0.025,0.668-0.078,0.903-0.156
			c0.366-0.118,0.638-0.324,0.815-0.619c0.176-0.295,0.265-0.677,0.265-1.149v-9.954c0-1.374-0.325-2.434-0.974-3.18
			c-0.65-0.747-1.441-1.12-2.372-1.12c-0.682,0-1.314,0.108-1.898,0.324c-0.585,0.216-1.105,0.481-1.565,0.796
			c-0.446,0.327-0.787,0.654-1.024,0.981c-0.235,0.328-0.419,0.603-0.551,0.825v11.132c0,0.444,0.089,0.812,0.266,1.099
			c0.176,0.288,0.448,0.51,0.815,0.668c0.288,0.131,0.586,0.23,0.894,0.295c0.307,0.066,0.644,0.111,1.01,0.137v1.296h-9.482v-1.296
			c0.298-0.026,0.611-0.056,0.936-0.089c0.325-0.032,0.598-0.082,0.819-0.148c0.363-0.118,0.637-0.324,0.818-0.619
			c0.182-0.294,0.273-0.677,0.273-1.149v-22.554c0-0.445-0.102-0.891-0.304-1.336c-0.203-0.445-0.468-0.78-0.795-1.002
			c-0.236-0.17-0.652-0.291-1.247-0.363c-0.596-0.073-1.077-0.121-1.443-0.148v-1.256l7.166-0.432l0.275,0.295v13.507h0.079
			c0.432-0.432,0.826-0.815,1.18-1.149s0.819-0.684,1.396-1.05c0.498-0.314,1.085-0.576,1.76-0.785
			c0.675-0.21,1.432-0.314,2.271-0.314c1.73,0,3.061,0.546,3.991,1.639c0.93,1.093,1.396,2.667,1.396,4.721v10.071
			c0,0.459,0.082,0.829,0.247,1.109c0.165,0.282,0.439,0.501,0.821,0.658c0.303,0.118,0.576,0.206,0.82,0.265
			c0.244,0.059,0.563,0.102,0.959,0.128V252.455z"/>
		<path d="M536.674,252.455h-9.463v-1.296c0.301-0.026,0.632-0.052,0.992-0.079c0.36-0.025,0.658-0.078,0.894-0.156
			c0.366-0.118,0.637-0.324,0.815-0.619c0.177-0.295,0.266-0.677,0.266-1.149v-9.954c0-1.374-0.326-2.434-0.975-3.18
			c-0.65-0.747-1.44-1.12-2.371-1.12c-0.696,0-1.332,0.108-1.91,0.324c-0.577,0.216-1.089,0.481-1.535,0.796
			c-0.433,0.3-0.777,0.624-1.033,0.972c-0.256,0.347-0.443,0.625-0.56,0.834v11.132c0,0.444,0.091,0.812,0.274,1.099
			c0.184,0.288,0.459,0.51,0.825,0.668c0.275,0.131,0.573,0.23,0.894,0.295c0.32,0.066,0.651,0.111,0.992,0.137v1.296h-9.483v-1.296
			c0.301-0.026,0.612-0.052,0.933-0.079c0.32-0.025,0.599-0.078,0.834-0.156c0.366-0.118,0.638-0.323,0.815-0.618
			c0.177-0.294,0.265-0.676,0.265-1.147v-11.942c0-0.444-0.095-0.853-0.284-1.225c-0.19-0.373-0.455-0.677-0.795-0.912
			c-0.25-0.156-0.543-0.271-0.884-0.343c-0.34-0.072-0.706-0.121-1.099-0.148v-1.296l6.44-0.431l0.275,0.275v2.729h0.098
			c0.314-0.314,0.706-0.69,1.178-1.129c0.471-0.439,0.916-0.796,1.335-1.07c0.484-0.314,1.06-0.576,1.727-0.785
			c0.668-0.21,1.42-0.314,2.258-0.314c1.859,0,3.236,0.579,4.133,1.737c0.896,1.158,1.345,2.7,1.345,4.623v10.071
			c0,0.459,0.079,0.829,0.236,1.109c0.156,0.282,0.425,0.501,0.804,0.658c0.315,0.131,0.586,0.222,0.815,0.275
			c0.229,0.053,0.546,0.091,0.952,0.118V252.455z"/>
		<path d="M548.18,252.455h-9.443v-1.296c0.301-0.026,0.621-0.056,0.962-0.089c0.34-0.032,0.621-0.082,0.844-0.148
			c0.366-0.118,0.641-0.324,0.825-0.619c0.183-0.294,0.275-0.677,0.275-1.149v-22.437c0-0.472-0.102-0.913-0.304-1.326
			c-0.203-0.413-0.468-0.737-0.796-0.973c-0.235-0.157-0.668-0.301-1.296-0.432c-0.628-0.131-1.132-0.21-1.511-0.236v-1.256
			l7.283-0.432l0.275,0.295v26.563c0,0.459,0.085,0.834,0.255,1.129c0.169,0.295,0.444,0.52,0.825,0.677
			c0.287,0.131,0.573,0.23,0.854,0.295c0.281,0.066,0.599,0.111,0.952,0.137V252.455z"/>
		<path d="M559.801,252.455h-9.345v-1.296c0.3-0.026,0.612-0.052,0.932-0.079c0.321-0.025,0.599-0.078,0.834-0.156
			c0.366-0.118,0.638-0.323,0.815-0.618c0.176-0.294,0.265-0.676,0.265-1.147v-11.942c0-0.418-0.095-0.8-0.284-1.147
			c-0.19-0.347-0.455-0.637-0.796-0.873c-0.249-0.156-0.608-0.291-1.079-0.402c-0.472-0.111-0.903-0.179-1.296-0.206v-1.296
			l6.831-0.431l0.275,0.275v15.784c0,0.459,0.088,0.838,0.264,1.138c0.175,0.301,0.451,0.524,0.829,0.668
			c0.285,0.118,0.565,0.213,0.838,0.285c0.273,0.072,0.578,0.121,0.917,0.147V252.455z M557.346,225.225
			c0,0.746-0.245,1.397-0.736,1.954c-0.491,0.556-1.096,0.834-1.815,0.834c-0.668,0-1.247-0.266-1.737-0.796
			c-0.492-0.53-0.736-1.135-0.736-1.815c0-0.72,0.245-1.348,0.736-1.885c0.491-0.537,1.07-0.805,1.737-0.805
			c0.746,0,1.358,0.252,1.835,0.756C557.107,223.971,557.346,224.557,557.346,225.225z"/>
		<path d="M570.115,252.965c-2.801,0-4.993-0.929-6.577-2.788c-1.584-1.858-2.376-4.351-2.376-7.479
			c0-1.362,0.213-2.635,0.638-3.819c0.425-1.185,1.043-2.261,1.855-3.23c0.772-0.928,1.741-1.678,2.906-2.248
			c1.165-0.57,2.434-0.854,3.809-0.854c1.897,0,3.442,0.455,4.633,1.364c1.191,0.91,1.787,2.15,1.787,3.72
			c0,0.654-0.157,1.234-0.472,1.737c-0.314,0.505-0.831,0.756-1.551,0.756c-0.772,0-1.371-0.196-1.797-0.587
			c-0.425-0.392-0.637-0.829-0.637-1.312c0-0.587,0.078-1.19,0.235-1.81s0.249-1.073,0.275-1.361
			c-0.235-0.404-0.585-0.674-1.048-0.812c-0.463-0.137-0.963-0.205-1.498-0.205c-0.626,0-1.224,0.134-1.792,0.402
			s-1.12,0.763-1.654,1.482c-0.483,0.655-0.875,1.539-1.175,2.651c-0.3,1.113-0.45,2.442-0.45,3.986c0,2.434,0.539,4.42,1.618,5.959
			c1.077,1.538,2.492,2.306,4.244,2.306c1.267,0,2.33-0.309,3.185-0.927c0.856-0.618,1.65-1.546,2.382-2.782l1.254,0.824
			c-0.863,1.545-2.002,2.768-3.416,3.671C573.079,252.514,571.62,252.965,570.115,252.965z"/>
		<path d="M599.992,252.455h-9.522v-1.296c0.301-0.026,0.635-0.052,1.001-0.079c0.366-0.025,0.668-0.078,0.903-0.156
			c0.366-0.118,0.638-0.324,0.815-0.619c0.176-0.295,0.265-0.677,0.265-1.149v-9.954c0-1.374-0.325-2.434-0.974-3.18
			c-0.65-0.747-1.441-1.12-2.372-1.12c-0.682,0-1.315,0.108-1.898,0.324c-0.585,0.216-1.105,0.481-1.565,0.796
			c-0.446,0.327-0.787,0.654-1.023,0.981c-0.235,0.328-0.419,0.603-0.551,0.825v11.132c0,0.444,0.089,0.812,0.266,1.099
			c0.176,0.288,0.448,0.51,0.815,0.668c0.288,0.131,0.586,0.23,0.894,0.295c0.307,0.066,0.644,0.111,1.01,0.137v1.296h-9.482v-1.296
			c0.298-0.026,0.611-0.056,0.936-0.089c0.325-0.032,0.598-0.082,0.819-0.148c0.363-0.118,0.637-0.324,0.818-0.619
			c0.182-0.294,0.273-0.677,0.273-1.149v-22.554c0-0.445-0.102-0.891-0.304-1.336c-0.203-0.445-0.468-0.78-0.795-1.002
			c-0.236-0.17-0.652-0.291-1.247-0.363c-0.596-0.073-1.077-0.121-1.443-0.148v-1.256l7.166-0.432l0.275,0.295v13.507h0.079
			c0.432-0.432,0.826-0.815,1.18-1.149s0.819-0.684,1.396-1.05c0.498-0.314,1.085-0.576,1.76-0.785
			c0.675-0.21,1.432-0.314,2.271-0.314c1.73,0,3.061,0.546,3.992,1.639c0.93,1.093,1.396,2.667,1.396,4.721v10.071
			c0,0.459,0.082,0.829,0.247,1.109c0.165,0.282,0.439,0.501,0.821,0.658c0.303,0.118,0.576,0.206,0.82,0.265
			c0.244,0.059,0.563,0.102,0.959,0.128V252.455z"/>
	</g>
	<g>
		<path d="M66.204,107.399c2.227,1.533,4.038,3.454,5.431,5.77c1.392,2.316,2.089,5.039,2.089,8.172c0,3.76-0.792,6.937-2.376,9.529
			c-1.585,2.593-3.856,4.639-6.814,6.135c-3.133,1.6-6.745,2.734-10.835,3.394c-4.091,0.661-8.903,0.992-14.438,0.992H0.777v-4.073
			c1.078-0.104,2.436-0.261,4.073-0.47c1.636-0.209,2.784-0.452,3.446-0.731c1.287-0.522,2.167-1.209,2.637-2.063
			c0.47-0.854,0.705-1.958,0.705-3.316V78.523c0-1.253-0.192-2.298-0.574-3.133c-0.384-0.835-1.305-1.566-2.767-2.193
			c-1.08-0.452-2.333-0.826-3.76-1.123c-1.428-0.295-2.681-0.53-3.76-0.705v-4.073h40.259c10.13,0,17.44,1.393,21.931,4.177
			c4.491,2.786,6.736,6.893,6.736,12.323c0,2.506-0.505,4.709-1.514,6.605c-1.01,1.898-2.454,3.544-4.334,4.935
			c-1.706,1.287-3.743,2.402-6.109,3.342c-2.368,0.94-4.908,1.723-7.624,2.35v0.992c2.715,0.279,5.535,0.88,8.459,1.801
			C61.504,104.744,64.045,105.937,66.204,107.399z M49.39,85.102c0-4.107-1.158-7.31-3.472-9.608
			c-2.316-2.298-5.788-3.446-10.417-3.446c-0.662,0-1.523,0.026-2.585,0.078c-1.063,0.052-1.976,0.097-2.741,0.131v27.466h2.715
			c5.639,0,9.798-1.313,12.48-3.942C48.05,93.153,49.39,89.593,49.39,85.102z M53.045,120.688c0-5.159-1.533-9.117-4.595-11.871
			c-3.064-2.754-7.467-4.133-13.211-4.133c-0.662,0-1.54,0.026-2.637,0.078c-1.097,0.052-1.906,0.097-2.428,0.131v27.145
			c0.313,1.29,1.287,2.381,2.924,3.269c1.636,0.89,3.62,1.334,5.953,1.334c4.142,0,7.51-1.394,10.104-4.185
			C51.748,129.667,53.045,125.743,53.045,120.688z"/>
		<path d="M160.799,141.392h-29.346c-4.421-6.788-8.407-12.461-11.958-17.023c-3.551-4.561-8.094-10.287-13.628-17.179h-2.715
			v23.289c0,1.253,0.226,2.316,0.679,3.185c0.452,0.869,1.358,1.6,2.715,2.193c0.627,0.279,1.557,0.556,2.794,0.835
			c1.235,0.279,2.462,0.488,3.681,0.627v4.073H73.65v-4.073c0.94-0.07,2.271-0.175,3.995-0.313c1.723-0.138,2.932-0.347,3.629-0.627
			c1.253-0.488,2.123-1.167,2.611-2.036c0.487-0.869,0.731-1.966,0.731-3.29v-52.53c0-1.218-0.209-2.245-0.627-3.081
			s-1.324-1.583-2.715-2.245c-1.08-0.487-2.385-0.888-3.916-1.201c-1.533-0.313-2.767-0.522-3.707-0.627v-4.073h40.677v4.073
			c-1.08,0.104-2.376,0.253-3.89,0.444c-1.514,0.192-2.812,0.462-3.89,0.809c-1.358,0.453-2.264,1.167-2.715,2.141
			c-0.453,0.975-0.679,2.055-0.679,3.237v24.96h2.193c2.715-2.472,5.882-5.449,9.503-8.929c3.62-3.481,6.423-6.336,8.407-8.564
			c2.784-3.098,4.83-5.552,6.135-7.363c1.305-1.809,1.958-3.376,1.958-4.699c0-0.591-0.627-1.044-1.88-1.358
			c-1.253-0.313-3.168-0.539-5.744-0.679v-4.073h32.218v4.073c-3.895,0.418-7.164,1.123-9.808,2.115
			c-2.643,0.992-5.269,2.655-7.877,4.987c-3.716,3.338-6.782,6.232-9.194,8.682c-2.415,2.452-5.514,5.588-9.3,9.411
			c3.338,4.078,7.353,9.067,12.048,14.973c4.693,5.906,9.37,11.663,14.029,17.271c1.181,1.428,2.536,2.794,4.065,4.099
			c1.529,1.305,3.214,2.358,5.056,3.159c0.868,0.384,1.859,0.679,2.971,0.888c1.111,0.209,2.066,0.332,2.865,0.366V141.392z"/>
		<path d="M252.446,141.392H223.1c-4.421-6.788-8.407-12.461-11.958-17.023c-3.551-4.561-8.094-10.287-13.628-17.179h-2.715v23.289
			c0,1.253,0.226,2.316,0.679,3.185c0.452,0.869,1.358,1.6,2.715,2.193c0.627,0.279,1.557,0.556,2.794,0.835
			c1.235,0.279,2.462,0.488,3.681,0.627v4.073h-39.371v-4.073c0.94-0.07,2.271-0.175,3.995-0.313
			c1.723-0.138,2.932-0.347,3.629-0.627c1.253-0.488,2.123-1.167,2.611-2.036c0.487-0.869,0.731-1.966,0.731-3.29v-52.53
			c0-1.218-0.209-2.245-0.627-3.081s-1.324-1.583-2.715-2.245c-1.08-0.487-2.385-0.888-3.916-1.201
			c-1.533-0.313-2.767-0.522-3.707-0.627v-4.073h40.677v4.073c-1.08,0.104-2.376,0.253-3.89,0.444
			c-1.514,0.192-2.812,0.462-3.89,0.809c-1.358,0.453-2.264,1.167-2.715,2.141c-0.453,0.975-0.679,2.055-0.679,3.237v24.96h2.193
			c2.715-2.472,5.882-5.449,9.503-8.929c3.62-3.481,6.423-6.336,8.407-8.564c2.784-3.098,4.83-5.552,6.135-7.363
			c1.305-1.809,1.958-3.376,1.958-4.699c0-0.591-0.627-1.044-1.88-1.358c-1.253-0.313-3.168-0.539-5.744-0.679v-4.073h32.218v4.073
			c-3.895,0.418-7.164,1.123-9.808,2.115c-2.643,0.992-5.269,2.655-7.877,4.987c-3.717,3.338-6.782,6.232-9.194,8.682
			c-2.415,2.452-5.514,5.588-9.3,9.411c3.338,4.078,7.353,9.067,12.048,14.973c4.693,5.906,9.37,11.663,14.029,17.271
			c1.181,1.428,2.536,2.794,4.065,4.099c1.529,1.305,3.214,2.358,5.056,3.159c0.868,0.384,1.859,0.679,2.971,0.888
			c1.111,0.209,2.066,0.332,2.865,0.366V141.392z"/>
	</g>
</g>
</svg>
