<?xml version="1.0" encoding="utf-8"?>
<!-- Generator: Adobe Illustrator 26.1.0, SVG Export Plug-In . SVG Version: 6.00 Build 0)  -->
<svg version="1.1" id="Ebene_1" xmlns="http://www.w3.org/2000/svg" xmlns:xlink="http://www.w3.org/1999/xlink" x="0px" y="0px"
	 viewBox="0 0 392 119.1" style="enable-background:new 0 0 392 119.1;" xml:space="preserve">
<style type="text/css">
	.st0{fill:#9B9E9E;}
	.st1{fill:#44A8A8;}
	.st2{fill-rule:evenodd;clip-rule:evenodd;fill:#44A8A8;}
</style>
<g>
	<path d="M165.2,54.6h1.2v6.3h5.5v-6.3h1.2v14.2h-1.2V62h-5.5v6.8h-1.2V54.6L165.2,54.6z M182.6,63.9l-5.7,0c0,1.3,0.2,2.2,0.7,2.9
		c0.5,0.7,1.2,1,2.1,1c0.4,0,0.8-0.1,1.2-0.2c0.4-0.1,0.8-0.3,1.1-0.5v1.2c-0.3,0.2-0.7,0.3-1.1,0.4c-0.4,0.1-0.9,0.2-1.3,0.2
		c-1.3,0-2.3-0.5-2.9-1.4c-0.7-0.9-1-2.2-1-4c0-1.6,0.3-2.9,1-3.9c0.7-1,1.5-1.4,2.6-1.4c1.1,0,1.9,0.4,2.5,1.2
		c0.6,0.8,0.9,2,0.9,3.4c0,0.2,0,0.4,0,0.5C182.6,63.6,182.6,63.8,182.6,63.9L182.6,63.9z M181.4,62.9c0-1.1-0.2-2-0.5-2.6
		c-0.4-0.6-0.9-0.9-1.6-0.9c-0.7,0-1.3,0.3-1.7,0.9c-0.4,0.6-0.6,1.5-0.7,2.7H181.4L181.4,62.9z M189.3,58.6l-0.2,1.2
		c-0.3-0.1-0.5-0.2-0.8-0.3c-0.3-0.1-0.6-0.1-0.9-0.1c-0.6,0-1,0.1-1.4,0.4c-0.3,0.3-0.5,0.7-0.5,1.2c0,0.4,0.1,0.7,0.3,1
		c0.2,0.3,0.8,0.6,1.7,1.1c0.9,0.5,1.5,0.9,1.8,1.3c0.3,0.4,0.5,0.9,0.5,1.5c0,0.9-0.3,1.7-0.9,2.3c-0.6,0.6-1.4,0.8-2.4,0.8
		c-0.4,0-0.7,0-1.1-0.1c-0.4-0.1-0.8-0.2-1.3-0.5l0.2-1.3c0.4,0.3,0.7,0.4,1.1,0.6c0.4,0.1,0.8,0.2,1.2,0.2c0.6,0,1.1-0.2,1.4-0.5
		c0.3-0.3,0.5-0.8,0.5-1.3c0-0.8-0.7-1.5-2-2.2c-0.1-0.1-0.2-0.1-0.3-0.2c-0.7-0.4-1.3-0.8-1.6-1.2c-0.3-0.4-0.4-0.9-0.4-1.5
		c0-0.9,0.3-1.6,0.8-2.1c0.6-0.5,1.3-0.8,2.2-0.8c0.3,0,0.6,0,0.9,0.1C188.6,58.4,188.9,58.5,189.3,58.6L189.3,58.6z M196.5,58.6
		l-0.2,1.2c-0.3-0.1-0.5-0.2-0.8-0.3c-0.3-0.1-0.6-0.1-0.9-0.1c-0.6,0-1,0.1-1.4,0.4c-0.3,0.3-0.5,0.7-0.5,1.2c0,0.4,0.1,0.7,0.3,1
		c0.2,0.3,0.8,0.6,1.7,1.1c0.9,0.5,1.5,0.9,1.8,1.3c0.3,0.4,0.5,0.9,0.5,1.5c0,0.9-0.3,1.7-0.9,2.3c-0.6,0.6-1.4,0.8-2.4,0.8
		c-0.4,0-0.7,0-1.1-0.1c-0.4-0.1-0.8-0.2-1.3-0.5l0.2-1.3c0.4,0.3,0.7,0.4,1.1,0.6c0.4,0.1,0.8,0.2,1.2,0.2c0.6,0,1.1-0.2,1.4-0.5
		c0.3-0.3,0.5-0.8,0.5-1.3c0-0.8-0.7-1.5-2-2.2c-0.1-0.1-0.2-0.1-0.3-0.2c-0.7-0.4-1.3-0.8-1.6-1.2c-0.3-0.4-0.4-0.9-0.4-1.5
		c0-0.9,0.3-1.6,0.8-2.1c0.6-0.5,1.3-0.8,2.2-0.8c0.3,0,0.6,0,0.9,0.1C195.8,58.4,196.1,58.5,196.5,58.6L196.5,58.6z M199.3,58.4
		h1.1v10.3h-1.1V58.4L199.3,58.4z M199.2,54.4h1.4v1.7h-1.4V54.4L199.2,54.4z M207.7,58.6l-0.2,1.2c-0.3-0.1-0.5-0.2-0.8-0.3
		c-0.3-0.1-0.6-0.1-0.9-0.1c-0.6,0-1,0.1-1.4,0.4c-0.3,0.3-0.5,0.7-0.5,1.2c0,0.4,0.1,0.7,0.3,1c0.2,0.3,0.8,0.6,1.7,1.1
		c0.9,0.5,1.5,0.9,1.8,1.3c0.3,0.4,0.5,0.9,0.5,1.5c0,0.9-0.3,1.7-0.9,2.3c-0.6,0.6-1.4,0.8-2.4,0.8c-0.4,0-0.7,0-1.1-0.1
		c-0.4-0.1-0.8-0.2-1.3-0.5l0.2-1.3c0.4,0.3,0.7,0.4,1.1,0.6c0.4,0.1,0.8,0.2,1.2,0.2c0.6,0,1.1-0.2,1.4-0.5
		c0.3-0.3,0.5-0.8,0.5-1.3c0-0.8-0.7-1.5-2-2.2c-0.1-0.1-0.2-0.1-0.3-0.2c-0.7-0.4-1.3-0.8-1.6-1.2c-0.3-0.4-0.4-0.9-0.4-1.5
		c0-0.9,0.3-1.6,0.8-2.1c0.6-0.5,1.3-0.8,2.2-0.8c0.3,0,0.6,0,0.9,0.1C207.1,58.4,207.4,58.5,207.7,58.6L207.7,58.6z M216.1,58.6
		v1.2c-0.3-0.2-0.6-0.3-0.9-0.4c-0.3-0.1-0.7-0.1-1-0.1c-0.9,0-1.7,0.4-2.2,1.1c-0.5,0.7-0.8,1.7-0.8,3c0,1.5,0.3,2.6,0.8,3.3
		c0.5,0.8,1.3,1.2,2.3,1.2c0.3,0,0.7,0,1-0.1c0.3-0.1,0.6-0.2,0.9-0.4v1.2c-0.3,0.1-0.6,0.2-1,0.3c-0.3,0.1-0.6,0.1-1,0.1
		c-1.4,0-2.4-0.5-3.2-1.4c-0.7-0.9-1.1-2.3-1.1-4c0-1.7,0.4-3,1.1-3.9c0.8-0.9,1.8-1.4,3.1-1.4c0.3,0,0.6,0,0.9,0.1
		C215.5,58.4,215.8,58.5,216.1,58.6L216.1,58.6z M217.9,53.5h1.1v6.2c0.3-0.5,0.7-0.9,1.1-1.1c0.4-0.2,0.9-0.4,1.4-0.4
		c0.9,0,1.6,0.3,2.1,0.9c0.5,0.6,0.7,1.4,0.7,2.4v7.2h-1.1v-7.2c0-0.7-0.2-1.3-0.5-1.7c-0.3-0.4-0.8-0.6-1.4-0.6
		c-0.7,0-1.3,0.3-1.8,0.9c-0.4,0.6-0.7,1.4-0.7,2.3v6.3h-1.1V53.5L217.9,53.5z M233.7,63.9l-5.7,0c0,1.3,0.2,2.2,0.7,2.9
		c0.5,0.7,1.2,1,2.1,1c0.4,0,0.8-0.1,1.2-0.2c0.4-0.1,0.8-0.3,1.1-0.5v1.2c-0.3,0.2-0.7,0.3-1.1,0.4c-0.4,0.1-0.9,0.2-1.3,0.2
		c-1.3,0-2.3-0.5-2.9-1.4c-0.7-0.9-1-2.2-1-4c0-1.6,0.3-2.9,1-3.9c0.7-1,1.5-1.4,2.6-1.4c1.1,0,1.9,0.4,2.5,1.2
		c0.6,0.8,0.9,2,0.9,3.4c0,0.2,0,0.4,0,0.5C233.7,63.6,233.7,63.8,233.7,63.9L233.7,63.9z M232.5,62.9c0-1.1-0.2-2-0.5-2.6
		c-0.4-0.6-0.9-0.9-1.6-0.9c-0.7,0-1.3,0.3-1.7,0.9c-0.4,0.6-0.6,1.5-0.7,2.7H232.5L232.5,62.9z M25.8,79.1H27v6.3l5.1-6.3h1.5
		l-5.6,6.7l6.1,7.5h-1.6l-5.6-7v7h-1.2V79.1L25.8,79.1z M38.8,82.8v1.3h-0.3c-0.7,0-1.3,0.3-1.7,0.8c-0.4,0.5-0.6,1.3-0.6,2.2v6.3
		H35v-7.6c0-0.4,0-0.8,0-1.3c0-0.5,0-1-0.1-1.5H36c0,0.3,0,0.6,0,0.9c0,0.3,0,0.6,0,0.9c0.3-0.6,0.6-1.1,1.1-1.4
		C37.6,83,38.1,82.8,38.8,82.8L38.8,82.8z M45.1,88c-0.1,0-0.2,0-0.4,0c-0.3,0-0.6,0-0.8,0c-1.1,0-2,0.2-2.5,0.6
		c-0.6,0.4-0.8,1-0.8,1.8c0,0.6,0.2,1.1,0.5,1.5c0.3,0.4,0.8,0.5,1.4,0.5c0.9,0,1.5-0.3,1.9-0.9c0.4-0.6,0.6-1.5,0.6-2.7V88L45.1,88
		z M46.3,86.8v4.6c0,0.3,0,0.6,0,0.9c0,0.3,0.1,0.6,0.1,1h-1.1l-0.2-1.2c-0.3,0.5-0.7,0.8-1.1,1.1c-0.4,0.2-0.9,0.3-1.5,0.3
		c-1,0-1.7-0.3-2.3-0.8c-0.5-0.5-0.8-1.3-0.8-2.2c0-1.1,0.4-2,1.2-2.5c0.8-0.6,2-0.8,3.5-0.8c0.1,0,0.2,0,0.5,0c0.2,0,0.4,0,0.5,0
		v-0.8c0-0.8-0.2-1.5-0.6-1.9c-0.4-0.4-0.9-0.6-1.7-0.6c-0.5,0-0.9,0.1-1.3,0.3c-0.4,0.2-0.8,0.5-1.1,0.8l-0.2-1.2
		c0.4-0.3,0.8-0.5,1.3-0.7c0.5-0.2,1-0.2,1.4-0.2c1.2,0,2,0.3,2.5,0.9C46,84.3,46.3,85.3,46.3,86.8L46.3,86.8z M55.8,86v7.2h-1.1
		v-7.2c0-0.7-0.2-1.3-0.5-1.7c-0.3-0.4-0.8-0.6-1.4-0.6c-0.7,0-1.3,0.3-1.8,0.9c-0.4,0.6-0.7,1.4-0.7,2.3v6.3h-1.1v-7.6
		c0-0.4,0-0.8,0-1.3c0-0.5,0-1-0.1-1.5h1.1c0,0.2,0,0.5,0,1c0,0.2,0,0.4,0,0.5c0.3-0.5,0.6-0.9,1.1-1.2c0.5-0.3,1-0.4,1.6-0.4
		c0.9,0,1.6,0.3,2.1,0.9C55.5,84.2,55.8,85,55.8,86L55.8,86z M58.7,78h1.1v9l3.9-4.1h1.4l-4.3,4.5l4.7,5.8h-1.4L59.8,88v5.3h-1.1V78
		L58.7,78z M73,88.4l-5.7,0c0,1.3,0.2,2.2,0.7,2.9c0.5,0.7,1.2,1,2.1,1c0.4,0,0.8-0.1,1.2-0.2c0.4-0.1,0.8-0.3,1.1-0.5v1.2
		c-0.3,0.2-0.7,0.3-1.1,0.4c-0.4,0.1-0.9,0.2-1.3,0.2c-1.3,0-2.3-0.5-2.9-1.4c-0.7-0.9-1-2.2-1-4c0-1.6,0.3-2.9,1-3.9
		c0.7-1,1.5-1.4,2.6-1.4c1.1,0,1.9,0.4,2.5,1.2c0.6,0.8,0.9,2,0.9,3.4c0,0.2,0,0.4,0,0.5C73,88.1,73,88.3,73,88.4L73,88.4z
		 M71.8,87.4c0-1.1-0.2-2-0.5-2.6c-0.4-0.6-0.9-0.9-1.6-0.9c-0.7,0-1.3,0.3-1.7,0.9c-0.4,0.6-0.6,1.5-0.7,2.7H71.8L71.8,87.4z
		 M81.9,86v7.2h-1.1v-7.2c0-0.7-0.2-1.3-0.5-1.7c-0.3-0.4-0.8-0.6-1.4-0.6c-0.7,0-1.3,0.3-1.8,0.9c-0.4,0.6-0.7,1.4-0.7,2.3v6.3
		h-1.1v-7.6c0-0.4,0-0.8,0-1.3c0-0.5,0-1-0.1-1.5h1.1c0,0.2,0,0.5,0,1c0,0.2,0,0.4,0,0.5c0.3-0.5,0.6-0.9,1.1-1.2
		c0.5-0.3,1-0.4,1.6-0.4c0.9,0,1.6,0.3,2.1,0.9C81.6,84.2,81.9,85,81.9,86L81.9,86z M84.8,78H86v6.2c0.3-0.5,0.7-0.9,1.1-1.1
		c0.4-0.2,0.9-0.4,1.4-0.4c0.9,0,1.6,0.3,2.1,0.9c0.5,0.6,0.7,1.4,0.7,2.4v7.2h-1.1v-7.2c0-0.7-0.2-1.3-0.5-1.7
		c-0.3-0.4-0.8-0.6-1.4-0.6c-0.7,0-1.3,0.3-1.8,0.9C86.2,85.3,86,86,86,87v6.3h-1.1V78L84.8,78z M99.1,88c-0.1,0-0.2,0-0.4,0
		c-0.3,0-0.6,0-0.8,0c-1.1,0-2,0.2-2.5,0.6c-0.6,0.4-0.8,1-0.8,1.8c0,0.6,0.2,1.1,0.5,1.5c0.3,0.4,0.8,0.5,1.4,0.5
		c0.9,0,1.5-0.3,1.9-0.9c0.4-0.6,0.6-1.5,0.6-2.7V88L99.1,88z M100.2,86.8v4.6c0,0.3,0,0.6,0,0.9c0,0.3,0.1,0.6,0.1,1h-1.1l-0.2-1.2
		c-0.3,0.5-0.7,0.8-1.1,1.1c-0.4,0.2-0.9,0.3-1.5,0.3c-1,0-1.7-0.3-2.3-0.8c-0.5-0.5-0.8-1.3-0.8-2.2c0-1.1,0.4-2,1.2-2.5
		c0.8-0.6,2-0.8,3.5-0.8c0.1,0,0.2,0,0.5,0c0.2,0,0.4,0,0.5,0v-0.8c0-0.8-0.2-1.5-0.6-1.9c-0.4-0.4-0.9-0.6-1.7-0.6
		c-0.5,0-0.9,0.1-1.3,0.3c-0.4,0.2-0.8,0.5-1.1,0.8l-0.2-1.2c0.4-0.3,0.8-0.5,1.3-0.7c0.5-0.2,1-0.2,1.4-0.2c1.2,0,2,0.3,2.5,0.9
		C99.9,84.3,100.2,85.3,100.2,86.8L100.2,86.8z M103,82.9h1.1v7.2c0,0.7,0.2,1.3,0.5,1.7c0.3,0.4,0.8,0.6,1.4,0.6
		c0.7,0,1.3-0.3,1.8-0.9c0.4-0.6,0.7-1.4,0.7-2.3v-6.3h1.1v7.6c0,0.4,0,0.9,0,1.3c0,0.5,0,0.9,0.1,1.4h-1.1c0-0.2,0-0.5-0.1-1
		c0-0.2,0-0.4,0-0.5c-0.3,0.5-0.6,1-1.1,1.2c-0.5,0.3-1,0.4-1.6,0.4c-0.9,0-1.6-0.3-2.1-0.8c-0.5-0.6-0.7-1.4-0.7-2.4V82.9L103,82.9
		z M116.9,83.1l-0.2,1.2c-0.3-0.1-0.5-0.2-0.8-0.3c-0.3-0.1-0.6-0.1-0.9-0.1c-0.6,0-1,0.1-1.4,0.4c-0.3,0.3-0.5,0.7-0.5,1.2
		c0,0.4,0.1,0.7,0.3,1c0.2,0.3,0.8,0.6,1.7,1.1c0.9,0.5,1.5,0.9,1.8,1.3c0.3,0.4,0.5,0.9,0.5,1.5c0,0.9-0.3,1.7-0.9,2.3
		c-0.6,0.6-1.4,0.8-2.4,0.8c-0.4,0-0.7,0-1.1-0.1c-0.4-0.1-0.8-0.2-1.3-0.5l0.2-1.3c0.4,0.3,0.7,0.4,1.1,0.6
		c0.4,0.1,0.8,0.2,1.2,0.2c0.6,0,1.1-0.2,1.4-0.5c0.3-0.3,0.5-0.8,0.5-1.3c0-0.8-0.7-1.5-2-2.2c-0.1-0.1-0.2-0.1-0.3-0.2
		c-0.7-0.4-1.3-0.8-1.6-1.2c-0.3-0.4-0.4-0.9-0.4-1.5c0-0.9,0.3-1.6,0.8-2.1c0.6-0.5,1.3-0.8,2.2-0.8c0.3,0,0.6,0,0.9,0.1
		C116.3,82.9,116.6,83,116.9,83.1L116.9,83.1z M125.2,87.4c0-1.1-0.2-2-0.6-2.6c-0.4-0.6-1-0.9-1.8-0.9c-0.8,0-1.4,0.4-1.8,1.1
		c-0.4,0.7-0.6,1.8-0.6,3.2c0,1.4,0.2,2.5,0.6,3.2c0.4,0.7,1,1.1,1.8,1.1c0.8,0,1.4-0.3,1.8-0.9c0.4-0.6,0.6-1.5,0.6-2.7V87.4
		L125.2,87.4z M125.4,84.4c0-0.1,0-0.3,0-0.5c0-0.5,0-0.8,0.1-1h1c0,0.6,0,1.1-0.1,1.6c0,0.5,0,0.9,0,1.1v6.8c0,2-0.3,3.4-1,4.2
		c-0.6,0.8-1.7,1.2-3.2,1.2c-0.5,0-1,0-1.4-0.1c-0.4-0.1-0.9-0.2-1.3-0.4l0.1-1.2c0.5,0.3,0.9,0.5,1.3,0.6c0.4,0.1,0.9,0.2,1.3,0.2
		c1.1,0,1.8-0.3,2.2-0.9c0.4-0.6,0.6-1.8,0.6-3.4v-0.6c-0.3,0.5-0.6,0.9-1,1.1c-0.4,0.2-0.9,0.4-1.5,0.4c-1.2,0-2-0.4-2.6-1.3
		c-0.6-0.9-0.9-2.2-0.9-3.9c0-1.8,0.3-3.1,0.9-4c0.6-0.9,1.5-1.3,2.7-1.3c0.5,0,1,0.1,1.4,0.4C124.7,83.4,125,83.9,125.4,84.4
		L125.4,84.4z M135.7,88.4l-5.7,0c0,1.3,0.2,2.2,0.7,2.9c0.5,0.7,1.2,1,2.1,1c0.4,0,0.8-0.1,1.2-0.2c0.4-0.1,0.8-0.3,1.1-0.5v1.2
		c-0.3,0.2-0.7,0.3-1.1,0.4c-0.4,0.1-0.9,0.2-1.3,0.2c-1.3,0-2.3-0.5-2.9-1.4c-0.7-0.9-1-2.2-1-4c0-1.6,0.3-2.9,1-3.9
		c0.7-1,1.5-1.4,2.6-1.4c1.1,0,1.9,0.4,2.5,1.2c0.6,0.8,0.9,2,0.9,3.4c0,0.2,0,0.4,0,0.5C135.7,88.1,135.7,88.3,135.7,88.4
		L135.7,88.4z M134.5,87.4c0-1.1-0.2-2-0.5-2.6c-0.4-0.6-0.9-0.9-1.6-0.9c-0.7,0-1.3,0.3-1.7,0.9c-0.4,0.6-0.6,1.5-0.7,2.7H134.5
		L134.5,87.4z M142.3,83.1l-0.2,1.2c-0.3-0.1-0.5-0.2-0.8-0.3c-0.3-0.1-0.6-0.1-0.9-0.1c-0.6,0-1,0.1-1.4,0.4
		c-0.3,0.3-0.5,0.7-0.5,1.2c0,0.4,0.1,0.7,0.3,1c0.2,0.3,0.8,0.6,1.7,1.1c0.9,0.5,1.5,0.9,1.8,1.3c0.3,0.4,0.5,0.9,0.5,1.5
		c0,0.9-0.3,1.7-0.9,2.3c-0.6,0.6-1.4,0.8-2.4,0.8c-0.4,0-0.7,0-1.1-0.1c-0.4-0.1-0.8-0.2-1.3-0.5l0.2-1.3c0.4,0.3,0.7,0.4,1.1,0.6
		c0.4,0.1,0.8,0.2,1.2,0.2c0.6,0,1.1-0.2,1.4-0.5c0.3-0.3,0.5-0.8,0.5-1.3c0-0.8-0.7-1.5-2-2.2c-0.1-0.1-0.2-0.1-0.3-0.2
		c-0.7-0.4-1.3-0.8-1.6-1.2c-0.3-0.4-0.4-0.9-0.4-1.5c0-0.9,0.3-1.6,0.8-2.1c0.6-0.5,1.3-0.8,2.2-0.8c0.3,0,0.6,0,0.9,0.1
		C141.7,82.9,142,83,142.3,83.1L142.3,83.1z M151.5,88.4l-5.7,0c0,1.3,0.2,2.2,0.7,2.9c0.5,0.7,1.2,1,2.1,1c0.4,0,0.8-0.1,1.2-0.2
		c0.4-0.1,0.8-0.3,1.1-0.5v1.2c-0.3,0.2-0.7,0.3-1.1,0.4c-0.4,0.1-0.9,0.2-1.3,0.2c-1.3,0-2.3-0.5-2.9-1.4c-0.7-0.9-1-2.2-1-4
		c0-1.6,0.3-2.9,1-3.9c0.7-1,1.5-1.4,2.6-1.4c1.1,0,1.9,0.4,2.5,1.2c0.6,0.8,0.9,2,0.9,3.4c0,0.2,0,0.4,0,0.5
		C151.5,88.1,151.5,88.3,151.5,88.4L151.5,88.4z M150.3,87.4c0-1.1-0.2-2-0.5-2.6c-0.4-0.6-0.9-0.9-1.6-0.9c-0.7,0-1.3,0.3-1.7,0.9
		c-0.4,0.6-0.6,1.5-0.7,2.7H150.3L150.3,87.4z M153.8,78h1.1v15.2h-1.1V78L153.8,78z M157.9,78h1.1v15.2h-1.1V78L157.9,78z
		 M166.3,83.1l-0.2,1.2c-0.3-0.1-0.5-0.2-0.8-0.3c-0.3-0.1-0.6-0.1-0.9-0.1c-0.6,0-1,0.1-1.4,0.4c-0.3,0.3-0.5,0.7-0.5,1.2
		c0,0.4,0.1,0.7,0.3,1c0.2,0.3,0.8,0.6,1.7,1.1c0.9,0.5,1.5,0.9,1.8,1.3c0.3,0.4,0.5,0.9,0.5,1.5c0,0.9-0.3,1.7-0.9,2.3
		c-0.6,0.6-1.4,0.8-2.4,0.8c-0.4,0-0.7,0-1.1-0.1c-0.4-0.1-0.8-0.2-1.3-0.5l0.2-1.3c0.4,0.3,0.7,0.4,1.1,0.6
		c0.4,0.1,0.8,0.2,1.2,0.2c0.6,0,1.1-0.2,1.4-0.5c0.3-0.3,0.5-0.8,0.5-1.3c0-0.8-0.7-1.5-2-2.2c-0.1-0.1-0.2-0.1-0.3-0.2
		c-0.7-0.4-1.3-0.8-1.6-1.2c-0.3-0.4-0.4-0.9-0.4-1.5c0-0.9,0.3-1.6,0.8-2.1c0.6-0.5,1.3-0.8,2.2-0.8c0.3,0,0.6,0,0.9,0.1
		C165.7,82.9,166,83,166.3,83.1L166.3,83.1z M174.7,83.1v1.2c-0.3-0.2-0.6-0.3-0.9-0.4c-0.3-0.1-0.7-0.1-1-0.1
		c-0.9,0-1.7,0.4-2.2,1.1c-0.5,0.7-0.8,1.7-0.8,3c0,1.5,0.3,2.6,0.8,3.3c0.5,0.8,1.3,1.2,2.3,1.2c0.3,0,0.7,0,1-0.1
		c0.3-0.1,0.6-0.2,0.9-0.4v1.2c-0.3,0.1-0.6,0.2-1,0.3c-0.3,0.1-0.6,0.1-1,0.1c-1.4,0-2.4-0.5-3.2-1.4c-0.7-0.9-1.1-2.3-1.1-4
		c0-1.7,0.4-3,1.1-3.9c0.8-0.9,1.8-1.4,3.1-1.4c0.3,0,0.6,0,0.9,0.1C174.1,82.9,174.4,83,174.7,83.1L174.7,83.1z M176.5,78h1.1v6.2
		c0.3-0.5,0.7-0.9,1.1-1.1c0.4-0.2,0.9-0.4,1.4-0.4c0.9,0,1.6,0.3,2.1,0.9c0.5,0.6,0.7,1.4,0.7,2.4v7.2h-1.1v-7.2
		c0-0.7-0.2-1.3-0.5-1.7c-0.3-0.4-0.8-0.6-1.4-0.6c-0.7,0-1.3,0.3-1.8,0.9c-0.4,0.6-0.7,1.4-0.7,2.3v6.3h-1.1V78L176.5,78z
		 M190.8,88c-0.1,0-0.2,0-0.4,0c-0.3,0-0.6,0-0.8,0c-1.1,0-2,0.2-2.5,0.6c-0.6,0.4-0.8,1-0.8,1.8c0,0.6,0.2,1.1,0.5,1.5
		c0.3,0.4,0.8,0.5,1.4,0.5c0.9,0,1.5-0.3,1.9-0.9c0.4-0.6,0.6-1.5,0.6-2.7V88L190.8,88z M191.9,86.8v4.6c0,0.3,0,0.6,0,0.9
		c0,0.3,0.1,0.6,0.1,1h-1.1l-0.2-1.2c-0.3,0.5-0.7,0.8-1.1,1.1c-0.4,0.2-0.9,0.3-1.5,0.3c-1,0-1.7-0.3-2.3-0.8
		c-0.5-0.5-0.8-1.3-0.8-2.2c0-1.1,0.4-2,1.2-2.5c0.8-0.6,2-0.8,3.5-0.8c0.1,0,0.2,0,0.5,0c0.2,0,0.4,0,0.5,0v-0.8
		c0-0.8-0.2-1.5-0.6-1.9c-0.4-0.4-0.9-0.6-1.7-0.6c-0.5,0-0.9,0.1-1.3,0.3c-0.4,0.2-0.8,0.5-1.1,0.8l-0.2-1.2
		c0.4-0.3,0.8-0.5,1.3-0.7c0.5-0.2,1-0.2,1.4-0.2c1.2,0,2,0.3,2.5,0.9C191.6,84.3,191.9,85.3,191.9,86.8L191.9,86.8z M198.4,77.9V79
		c-0.1,0-0.3-0.1-0.4-0.1c-0.1,0-0.3,0-0.5,0c-0.5,0-0.8,0.1-1,0.4c-0.2,0.3-0.3,0.7-0.3,1.4v2.2h1.8v1h-1.8v9.3h-1.1V84h-1.7v-1
		h1.7v-2.1c0-1.1,0.2-1.9,0.6-2.3c0.4-0.5,1-0.7,1.9-0.7c0.2,0,0.3,0,0.5,0C198.1,77.9,198.3,77.9,198.4,77.9L198.4,77.9z
		 M200.9,80.5v2.4h2.1v1h-2.1v6.4c0,0.8,0.1,1.3,0.3,1.5c0.2,0.2,0.5,0.4,0.9,0.4c0.1,0,0.3,0,0.4,0c0.1,0,0.3-0.1,0.5-0.1v1.1
		c-0.2,0.1-0.4,0.1-0.6,0.2c-0.2,0-0.4,0.1-0.6,0.1c-0.8,0-1.3-0.2-1.6-0.6c-0.3-0.4-0.4-1.3-0.4-2.7V84h-1.5v-1h1.5v-2.1
		L200.9,80.5L200.9,80.5z M216.1,88.4l-5.7,0c0,1.3,0.2,2.2,0.7,2.9c0.5,0.7,1.2,1,2.1,1c0.4,0,0.8-0.1,1.2-0.2
		c0.4-0.1,0.8-0.3,1.1-0.5v1.2c-0.3,0.2-0.7,0.3-1.1,0.4c-0.4,0.1-0.9,0.2-1.3,0.2c-1.3,0-2.3-0.5-2.9-1.4c-0.7-0.9-1-2.2-1-4
		c0-1.6,0.3-2.9,1-3.9c0.7-1,1.5-1.4,2.6-1.4c1.1,0,1.9,0.4,2.5,1.2c0.6,0.8,0.9,2,0.9,3.4c0,0.2,0,0.4,0,0.5
		C216.1,88.1,216.1,88.3,216.1,88.4L216.1,88.4z M214.9,87.4c0-1.1-0.2-2-0.5-2.6c-0.4-0.6-0.9-0.9-1.6-0.9c-0.7,0-1.3,0.3-1.7,0.9
		c-0.4,0.6-0.6,1.5-0.7,2.7H214.9L214.9,87.4z M218.6,91.3h1.5v2h-1.5V91.3L218.6,91.3z M222.1,79.1h1.3l3.5,12.5l3.8-12.5h1.2
		l-4.5,14.2h-1.1L222.1,79.1L222.1,79.1z M231.3,91.3h1.5v2h-1.5V91.3L231.3,91.3z"/>
	<polygon class="st0" points="247.6,53.5 254.7,53.5 254.7,69.4 273.3,69.4 273.3,53.5 280.4,53.5 280.4,93.3 273.3,93.3
		273.3,75.8 254.7,75.8 254.7,93.3 247.6,93.3 247.6,53.5 	"/>
	<polygon class="st1" points="288.3,53.5 295.4,53.5 295.4,70.4 295.7,70.4 312.7,53.5 321.1,53.5 303.1,71.9 322.4,93.3
		313.3,93.3 295.7,73.7 295.4,73.7 295.4,93.3 288.3,93.3 288.3,53.5 	"/>
	<path class="st0" d="M356.9,90.4c-4.9,2.6-10.4,3.9-16.5,3.9c-3.1,0-5.9-0.5-8.5-1.5c-2.6-1-4.8-2.4-6.6-4.2
		c-1.9-1.8-3.3-4-4.4-6.5c-1-2.5-1.6-5.4-1.6-8.5c0-3.2,0.5-6.1,1.6-8.7c1-2.6,2.5-4.8,4.4-6.7c1.9-1.8,4.1-3.2,6.6-4.2
		c2.6-1,5.4-1.5,8.5-1.5c3,0,5.9,0.4,8.5,1.1c2.7,0.7,5,2,7.1,3.9l-5.2,5.3c-1.3-1.2-2.8-2.2-4.6-2.9c-1.8-0.7-3.7-1-5.8-1
		c-2.1,0-3.9,0.4-5.6,1.1c-1.7,0.7-3.1,1.7-4.3,3c-1.2,1.3-2.1,2.8-2.8,4.5c-0.7,1.7-1,3.6-1,5.6c0,2.1,0.3,4.1,1,5.9
		c0.7,1.8,1.6,3.4,2.8,4.7c1.2,1.3,2.6,2.3,4.3,3.1c1.7,0.7,3.5,1.1,5.6,1.1c1.8,0,3.5-0.2,5.1-0.5c1.6-0.3,3-0.9,4.2-1.6v-9.4h-8.1
		V70h15.2V90.4L356.9,90.4z"/>
	<polygon class="st2" points="344.5,30 340.4,25.8 336.2,30 336.2,30 336.2,30 336.2,30 314.6,51.6 323,51.6 340.4,34.2 357.9,51.6
		366.2,51.6 344.6,30 344.6,30 344.6,30 344.5,30 	"/>
</g>
</svg>
