<?xml version="1.0" encoding="utf-8"?>
<!-- Generator: Adobe Illustrator 25.3.1, SVG Export Plug-In . SVG Version: 6.00 Build 0)  -->
<svg version="1.1" id="Ebene_1" xmlns="http://www.w3.org/2000/svg" xmlns:xlink="http://www.w3.org/1999/xlink" x="0px" y="0px"
	 viewBox="0 0 566.9 184.2" style="enable-background:new 0 0 566.9 184.2;" xml:space="preserve">
<style type="text/css">
	.st0{fill:#155698;}
	.st1{fill:#b1d1ea;}
</style>
<g>
	<g>
		<path class="st0" d="M1.9,180.8l0-115.9C1.9,30.2,29.8,2,64.4,2c0,0,125.5,0,128.3,0c1.4,0,1.4,1.4,1.4,1.4v116.8h0
			c-0.3,34.4-28.3,61.9-62.8,61.9c0,0-125.3,0-128,0C1.9,182.2,1.9,180.8,1.9,180.8z"/>
		<path class="st1" d="M102,88.8c0,0-0.2-0.3,0-0.5c0.2-0.3,18.1-22.8,18.1-22.8s0.2-0.2,0-0.2h-15.6c-0.3,0-0.4,0.2-0.4,0.2
			l-15,20.3H89V65.9c0,0,0-0.7-0.7-0.7H76.4c-0.7,0-0.7,0.7-0.7,0.7v48.7c0,0,0,0.7,0.7,0.7h11.9c0.7,0,0.7-0.7,0.7-0.7V92.5h0.1
			l15.4,22.5c0,0,0.2,0.3,0.5,0.3h16.4c0.3,0,0-0.4,0-0.4L102,88.8z M57.9,89.7v-0.1c5.6-1.9,8.8-5.4,8.8-11.7
			c0-8.6-7-12.7-16.3-12.7c0,0-21.6,0-22.3,0c-0.7,0-0.7,0.7-0.7,0.7v48.7c0,0,0,0.7,0.7,0.7c0.7,0,20.4,0,20.4,0
			c9,0,19.5-2.5,19.5-14.5C68.1,94.7,64.6,91.1,57.9,89.7z M40.8,74.7h3.9c4.4,0,8.8,0.4,8.8,5c0,4.2-4.5,5.3-8.9,5.3h-3.7V74.7z
			 M44.7,105.8h-4V94h4.1c4.6,0,9.8,0.5,9.8,6C54.7,105.1,49.6,105.8,44.7,105.8z M168,113.5v-22c0,0,0-0.7-0.7-0.7h-11.6
			c-0.7,0-0.7,0.7-0.7,0.7v13.8c-1.2,0.6-3,0.9-4.8,0.9c-9.8,0-16.8-6-16.8-15.9c0-11.8,9-16.3,19.9-16.3c3.1,0,7.9,0.8,12.1,3.1
			c0,0,0.2,0.1,0.2-0.2c0-0.2,0.8-8.6,1-10.4c0-0.3-0.1-0.4-0.2-0.4c-4.9-1.8-11.7-2.1-15-2.1c-18.5,0-31.9,7.3-31.9,26.3
			c0,19.1,15.5,25.9,29,25.9c4.6,0,10.9-0.1,19.3-2.3C168.1,113.7,168,113.5,168,113.5z"/>
	</g>
	<path class="st0" d="M227.6,79.6c0-2.5-1.7-4.2-4.2-4.4v-0.1c2.3-0.6,3.7-1.8,3.7-4.3c0-3.4-2.6-4.6-6.4-4.6h-4.9v18.1h4.8
		C224.4,84.4,227.6,83.5,227.6,79.6z M218.5,68.4h2.7c1.5,0,3.4,0.5,3.4,2.7c0,2.7-2.1,2.9-4.7,2.9h-1.4V68.4z M218.5,82.3v-6.1h1.7
		c2.2,0,4.7,0.4,4.7,3.2c0,2.4-2.1,2.9-4.4,2.9H218.5z M241.7,76.4c0-3.6-1.5-5.5-5.3-5.5c-1.7,0-3.1,0.5-4.4,1.2l0.1,2.1
		c1-0.8,2.5-1.4,3.8-1.4c2.4,0,3.3,1.2,3.3,3.5c-1-0.1-1.6-0.1-2.6-0.1c-2.5,0-6.2,1-6.2,4.4c0,2.9,2,4.1,4.9,4.1
		c2.2,0,3.5-1.2,4.1-2h0.1v1.7h2.3c-0.1-0.4-0.1-1.1-0.1-2.6V76.4z M239.2,79.3c0,2-1.3,3.5-3.7,3.5c-1.1,0-2.5-0.8-2.5-2.2
		c0-2.3,3.3-2.5,4.6-2.5c0.5,0,1,0.1,1.6,0.1V79.3z M250.3,82.2L250.3,82.2l-3.6-11h-2.7l4.5,12.4c0.2,0.4,0.5,1.1,0.5,1.4
		c0,0.3-0.7,3.3-2.9,3.3c-0.4,0-0.8-0.1-1.1-0.2l-0.2,2c0.4,0.1,0.9,0.2,1.7,0.2c3.2,0,4.2-2.9,5.1-5.5l4.9-13.5H254L250.3,82.2z
		 M264.3,70.9c-3.7,0-6.2,2.8-6.2,6.7c0,4.3,2.2,7.2,6.9,7.2c2.2,0,3.3-0.5,4.2-0.9v-2.4c-0.6,0.5-2.5,1.3-4.1,1.3
		c-2.3,0-4.4-1.8-4.4-4.4h9.5C270.2,74.1,268.7,70.9,264.3,70.9z M260.7,76.5c0.2-1.7,1.2-3.7,3.6-3.7c2.1,0,3.3,1.7,3.3,3.7H260.7z
		 M275.9,78.4c0-3.3,1.4-5.4,3.6-5.4c0.4,0,0.9,0.1,1.4,0.2v-2.2c-0.5-0.1-0.9-0.2-1.6-0.2c-1.4,0-2.8,1-3.5,2.4h-0.1v-2.1h-2.3
		v13.3h2.4V78.4z M283.5,68.2h2.8v-2.8h-2.8V68.2z M283.6,84.4h2.4V71.2h-2.4V84.4z M295.6,80.9c0,1.4-1.4,1.9-2.5,1.9
		c-0.7,0-2.1-0.3-3-0.9L290,84c1.1,0.6,2.4,0.7,3.6,0.7c2.4,0,4.6-1.3,4.6-4.1c0-4.2-5.7-3.5-5.7-6.2c0-1.1,1.1-1.6,2.3-1.6
		c0.6,0,2,0.3,2.6,0.7l0.2-2.1c-1-0.3-1.9-0.5-3-0.5c-2.6,0-4.7,1.3-4.7,4.1C289.9,78.7,295.6,78.5,295.6,80.9z M307.2,84.8
		c0.9,0,2.1-0.1,3.1-0.5L310,82c-0.8,0.5-1.8,0.8-2.6,0.8c-3.1,0-4.4-2.6-4.4-5c0-2.5,1.5-5,4.3-5c0.8,0,1.7,0.2,2.7,0.6l0.2-2
		c-0.7-0.3-2-0.5-3-0.5c-4.1,0-6.8,2.9-6.8,6.9C300.4,81.6,303.1,84.8,307.2,84.8z M322.4,77.6v6.9h2.4v-7.9c0-3.6-1.5-5.7-5-5.7
		c-1.8,0-3.4,0.8-4.3,2.2h-0.1v-8.1h-2.4v19.5h2.4v-6.1c0-3.2,1.2-5.5,4-5.5C321.8,73,322.4,74.5,322.4,77.6z M339.3,83.9v-2.4
		c-0.6,0.5-2.5,1.3-4.1,1.3c-2.3,0-4.4-1.8-4.4-4.4h9.5c0-4.3-1.4-7.5-5.9-7.5c-3.7,0-6.2,2.8-6.2,6.7c0,4.3,2.2,7.2,6.9,7.2
		C337.3,84.8,338.3,84.2,339.3,83.9z M334.4,72.8c2.1,0,3.3,1.7,3.3,3.7h-6.9C331,74.8,332,72.8,334.4,72.8z M230,97.1h-3.5l-7.7,8
		v-8h-2.6v18.1h2.6v-8.9l8.1,8.9h3.8l-9.2-9.6L230,97.1z M235.4,104L235.4,104l-0.1-2.1H233v13.3h2.4v-6c0-3.3,1.4-5.4,3.6-5.4
		c0.4,0,0.9,0.1,1.4,0.2v-2.2c-0.5-0.1-0.9-0.2-1.6-0.2C237.4,101.7,236,102.7,235.4,104z M253,107.2c0-3.6-1.5-5.5-5.3-5.5
		c-1.7,0-3.1,0.5-4.4,1.2l0.1,2.1c1-0.8,2.5-1.4,3.8-1.4c2.4,0,3.3,1.2,3.3,3.5c-1-0.1-1.6-0.1-2.6-0.1c-2.5,0-6.2,1-6.2,4.4
		c0,2.9,2,4.1,4.9,4.1c2.2,0,3.5-1.2,4.1-2h0.1v1.7h2.3c-0.1-0.4-0.1-1.1-0.1-2.6V107.2z M250.6,110.1c0,2-1.3,3.5-3.7,3.5
		c-1.1,0-2.5-0.8-2.5-2.2c0-2.3,3.3-2.5,4.6-2.5c0.5,0,1,0.1,1.6,0.1V110.1z M264.1,101.7c-1.8,0-3.6,0.9-4.3,2.4h-0.1V102h-2.4
		v13.3h2.4v-6.1c0-3.2,1.2-5.5,4-5.5c2.1,0.1,2.8,1.6,2.8,4.7v6.9h2.4v-7.9C269,103.8,267.5,101.7,264.1,101.7z M284.4,102H281
		l-5.3,5.4V95.7h-2.4v19.5h2.4v-6.8l5.9,6.8h3.5l-6.9-7.4L284.4,102z M292.7,101.7c-3.7,0-6.2,2.8-6.2,6.7c0,4.3,2.2,7.2,6.9,7.2
		c2.2,0,3.2-0.5,4.2-0.9v-2.4c-0.6,0.5-2.5,1.3-4.1,1.3c-2.3,0-4.4-1.8-4.4-4.4h9.5C298.5,104.9,297.1,101.7,292.7,101.7z
		 M289.1,107.3c0.2-1.7,1.2-3.7,3.6-3.7c2.1,0,3.3,1.7,3.3,3.7H289.1z M308.6,101.7c-1.8,0-3.6,0.9-4.3,2.4h-0.1V102h-2.4v13.3h2.4
		v-6.1c0-3.2,1.2-5.5,4-5.5c2.1,0.1,2.8,1.6,2.8,4.7v6.9h2.4v-7.9C313.6,103.8,312,101.7,308.6,101.7z M324.7,101.7
		c-1.8,0-3.4,0.8-4.3,2.2h-0.1v-8.1h-2.4v19.5h2.4v-6.1c0-3.2,1.2-5.5,4-5.5c2.1,0.1,2.8,1.6,2.8,4.7v6.9h2.4v-7.9
		C329.6,103.8,328.1,101.7,324.7,101.7z M344.2,107.2c0-3.6-1.5-5.5-5.3-5.5c-1.7,0-3.1,0.5-4.4,1.2l0.1,2.1c1-0.8,2.5-1.4,3.8-1.4
		c2.4,0,3.3,1.2,3.3,3.5c-1-0.1-1.6-0.1-2.6-0.1c-2.5,0-6.2,1-6.2,4.4c0,2.9,2,4.1,4.9,4.1c2.2,0,3.5-1.2,4.1-2h0.1v1.7h2.3
		c-0.1-0.4-0.1-1.1-0.1-2.6V107.2z M341.8,110.1c0,2-1.3,3.5-3.7,3.5c-1.1,0-2.5-0.8-2.5-2.2c0-2.3,3.3-2.5,4.6-2.5
		c0.5,0,1,0.1,1.6,0.1V110.1z M357.6,108.1c0,3.2-1.2,5.5-4,5.5c-2.1-0.1-2.8-1.6-2.8-4.7V102h-2.4v7.9c0,3.6,1.5,5.7,5,5.7
		c1.8,0,3.6-0.9,4.3-2.4h0.1v2.1h2.4V102h-2.4V108.1z M366.4,105.3c0-1.1,1.1-1.6,2.3-1.6c0.6,0,2,0.3,2.6,0.7l0.2-2.1
		c-1-0.3-1.9-0.5-3-0.5c-2.6,0-4.7,1.3-4.7,4.1c0,3.7,5.7,3.5,5.7,5.9c0,1.4-1.4,1.9-2.5,1.9c-0.7,0-2.1-0.3-3-0.9l-0.1,2.2
		c1.1,0.6,2.4,0.7,3.6,0.7c2.4,0,4.6-1.3,4.6-4.1C372.1,107.2,366.4,108,366.4,105.3z M385,104L385,104c-0.8-1.4-2.1-2.3-4.4-2.3
		c-4,0-5.9,3.6-5.9,7c0,3.4,1.9,6.5,5.7,6.5c1.7,0,3.4-0.7,4.4-2.1h0.1v1.3c0,2.8-1.5,4.5-4.1,4.5c-1.8,0-2.9-0.3-4.8-1.2l-0.3,2.3
		c2.1,0.7,3.4,0.9,4.8,0.9c4.8,0,6.8-2.3,6.8-6.3V102H385V104z M380.9,113.3c-2.3,0-3.7-2.2-3.7-4.7c0-2.3,1.2-4.9,3.7-4.9
		c2.6,0,3.9,2.4,3.9,5.1C384.8,111.2,383.2,113.3,380.9,113.3z M396.8,101.7c-3.7,0-6.2,2.8-6.2,6.7c0,4.3,2.2,7.2,6.9,7.2
		c2.2,0,3.2-0.5,4.2-0.9v-2.4c-0.6,0.5-2.5,1.3-4.1,1.3c-2.3,0-4.4-1.8-4.4-4.4h9.5C402.7,104.9,401.2,101.7,396.8,101.7z
		 M393.2,107.3c0.2-1.7,1.2-3.7,3.6-3.7c2.1,0,3.3,1.7,3.3,3.7H393.2z M407.7,105.3c0-1.1,1.1-1.6,2.3-1.6c0.6,0,2,0.3,2.6,0.7
		l0.2-2.1c-1-0.3-1.9-0.5-3-0.5c-2.6,0-4.7,1.3-4.7,4.1c0,3.7,5.7,3.5,5.7,5.9c0,1.4-1.4,1.9-2.5,1.9c-0.7,0-2.1-0.3-3-0.9l-0.1,2.2
		c1.1,0.6,2.4,0.7,3.6,0.7c2.4,0,4.6-1.3,4.6-4.1C413.5,107.2,407.7,108,407.7,105.3z M421.9,101.7c-3.7,0-6.2,2.8-6.2,6.7
		c0,4.3,2.2,7.2,6.9,7.2c2.2,0,3.2-0.5,4.2-0.9v-2.4c-0.6,0.5-2.5,1.3-4.1,1.3c-2.3,0-4.4-1.8-4.4-4.4h9.5
		C427.8,104.9,426.4,101.7,421.9,101.7z M418.3,107.3c0.2-1.7,1.2-3.7,3.6-3.7c2.1,0,3.3,1.7,3.3,3.7H418.3z M431.2,115.2h2.4V95.7
		h-2.4V115.2z M438.6,115.2h2.4V95.7h-2.4V115.2z M447.1,105.3c0-1.1,1.1-1.6,2.3-1.6c0.6,0,2,0.3,2.6,0.7l0.2-2.1
		c-1-0.3-1.9-0.5-3-0.5c-2.6,0-4.7,1.3-4.7,4.1c0,3.7,5.7,3.5,5.7,5.9c0,1.4-1.4,1.9-2.5,1.9c-0.7,0-2.1-0.3-3-0.9l-0.1,2.2
		c1.1,0.6,2.4,0.7,3.6,0.7c2.4,0,4.6-1.3,4.6-4.1C452.9,107.2,447.1,108,447.1,105.3z M461.9,113.6c-3.1,0-4.4-2.6-4.4-5
		c0-2.5,1.5-5,4.3-5c0.8,0,1.7,0.2,2.7,0.6l0.2-2c-0.7-0.3-2-0.5-3-0.5c-4.1,0-6.8,2.9-6.8,6.9c0,3.8,2.8,6.9,6.8,6.9
		c0.9,0,2.1-0.1,3.1-0.5l-0.2-2.2C463.7,113.3,462.7,113.6,461.9,113.6z M474.4,101.7c-1.8,0-3.4,0.8-4.3,2.2h-0.1v-8.1h-2.4v19.5
		h2.4v-6.1c0-3.2,1.2-5.5,4-5.5c2.1,0.1,2.8,1.6,2.8,4.7v6.9h2.4v-7.9C479.3,103.8,477.8,101.7,474.4,101.7z M493.7,107.2
		c0-3.6-1.5-5.5-5.3-5.5c-1.7,0-3.1,0.5-4.4,1.2l0.1,2.1c1-0.8,2.5-1.4,3.8-1.4c2.4,0,3.3,1.2,3.3,3.5c-1-0.1-1.6-0.1-2.6-0.1
		c-2.5,0-6.2,1-6.2,4.4c0,2.9,2,4.1,4.9,4.1c2.2,0,3.5-1.2,4.1-2h0.1v1.7h2.3c-0.1-0.4-0.1-1.1-0.1-2.6V107.2z M491.3,110.1
		c0,2-1.3,3.5-3.7,3.5c-1.1,0-2.5-0.8-2.5-2.2c0-2.3,3.3-2.5,4.6-2.5c0.5,0,1,0.1,1.6,0.1V110.1z M499.5,100.8v1.2h-3.1v2h3.1v11.3
		h2.4V104h3.5v-2h-3.5v-1.4c0-1.8,0.3-3.1,2.4-3.1c0.4,0,0.9,0.1,1.2,0.2l0.1-2c-0.5-0.1-1-0.2-1.6-0.2
		C500.3,95.4,499.5,97.5,499.5,100.8z M511.7,111.2V104h3.5v-2h-3.5v-3.8l-2.4,0.8v3.1h-3v2h3v7.7c0,2.7,1.6,3.8,4.1,3.8
		c0.8,0,1.5-0.2,2.1-0.4v-2.1c-0.4,0.2-0.9,0.5-1.7,0.5C512.7,113.6,511.7,112.7,511.7,111.2z M530.3,101.7c-3.7,0-6.2,2.8-6.2,6.7
		c0,4.3,2.2,7.2,6.9,7.2c2.2,0,3.2-0.5,4.2-0.9v-2.4c-0.6,0.5-2.5,1.3-4.1,1.3c-2.3,0-4.4-1.8-4.4-4.4h9.5
		C536.1,104.9,534.7,101.7,530.3,101.7z M526.6,107.3c0.2-1.7,1.2-3.7,3.6-3.7c2.1,0,3.3,1.7,3.3,3.7H526.6z M539.6,115.2h2.9v-2.9
		h-2.9V115.2z M553.6,113L553.6,113l-5.6-15.9H545l6.8,18.1h3.2l6.9-18.1h-2.7L553.6,113z M562.1,112.3v2.9h2.9v-2.9H562.1z"/>
</g>
</svg>
