<?xml version="1.0" encoding="UTF-8"?> <svg xmlns="http://www.w3.org/2000/svg" width="252" height="142.68" viewBox="0 0 252 142.68"><g id="Group_1" data-name="Group 1" transform="translate(-231 -190.276)"><path id="Path_2" data-name="Path 2" d="M328.943,393.122v-4.357h1.707a3.287,3.287,0,0,1,2.029.523,1.845,1.845,0,0,1,.677,1.554,2.35,2.35,0,0,1-.177.926,1.938,1.938,0,0,1-.527.721,2.457,2.457,0,0,1-.869.467,3.949,3.949,0,0,1-1.2.165Zm3.607,1.369a1.545,1.545,0,0,0-.515-.491,4.442,4.442,0,0,0,1.2-.451,3.361,3.361,0,0,0,.894-.721,3.039,3.039,0,0,0,.559-.954,3.318,3.318,0,0,0,.193-1.144,3.384,3.384,0,0,0-.249-1.324,2.573,2.573,0,0,0-.769-1.011,3.629,3.629,0,0,0-1.317-.64,7.135,7.135,0,0,0-1.892-.221h-3.261v11.54h1.554v-4.815h1.184a1.068,1.068,0,0,1,.487.084.89.89,0,0,1,.294.278l3,4.123a.682.682,0,0,0,.628.33h1.385l-3.366-4.582Zm13.473-6.958v5.146H339.8v-5.146h-1.562v11.54H339.8v-5.251h6.225v5.251h1.563v-11.54Zm6.829,10.268v-3.938h4.493v-1.224h-4.493v-3.833H358.4v-1.273h-7.11v11.54h7.11l.009-1.272Zm10.058-10.268h-1.562v11.54h1.562v-11.54Zm11.685,0v8.174q0,.177.012.375t.028.406L367.96,387.8a1.242,1.242,0,0,0-.121-.133.49.49,0,0,0-.112-.08.465.465,0,0,0-.129-.041,1.116,1.116,0,0,0-.177-.012h-.806v11.54h1.37v-8.222c0-.113,0-.233-.009-.362s-.013-.26-.024-.395l6.676,8.7a.774.774,0,0,0,.246.217.668.668,0,0,0,.31.064h.781v-11.54Zm6.627,10.227V387.533h-1.554v11.54h6.547V397.76Zm9.293-2.972,1.812-4.687a8.786,8.786,0,0,0,.347-1.087q.08.314.169.592c.059.185.116.347.169.488l1.812,4.695Zm2.948-7.256h-1.579l-4.614,11.54h1.208a.515.515,0,0,0,.338-.112A.575.575,0,0,0,389,398.7l1.079-2.787h5.179l1.079,2.787a.65.65,0,0,0,.193.266.519.519,0,0,0,.338.1h1.208l-4.614-11.54Zm14.874,0v8.174q0,.177.013.375t.028.406L401.7,387.8a1.324,1.324,0,0,0-.121-.133.494.494,0,0,0-.113-.08.458.458,0,0,0-.129-.041,1.116,1.116,0,0,0-.177-.012h-.805v11.54h1.369v-8.222c0-.113,0-.233-.008-.362s-.013-.26-.024-.395l6.676,8.7a.766.766,0,0,0,.246.217.665.665,0,0,0,.31.064h.781v-11.54ZM423,390.948a5.284,5.284,0,0,0-1.16-1.824,5.141,5.141,0,0,0-1.8-1.176,6.282,6.282,0,0,0-2.323-.414h-4.309v11.54h4.309a6.282,6.282,0,0,0,2.323-.414,5.158,5.158,0,0,0,1.8-1.172,5.249,5.249,0,0,0,1.16-1.82,6.987,6.987,0,0,0,0-4.719Zm-1.482,4.26a3.955,3.955,0,0,1-.822,1.413,3.521,3.521,0,0,1-1.289.882,4.476,4.476,0,0,1-1.691.306h-2.746V388.8h2.746a4.476,4.476,0,0,1,1.691.306,3.5,3.5,0,0,1,1.289.886,4,4,0,0,1,.822,1.417,6.382,6.382,0,0,1,0,3.8Zm4.429-1.087h3.979V392.9H425.95v1.216Zm8.762-.6v-4.751h1.852a2.982,2.982,0,0,1,2.066.62,2.213,2.213,0,0,1,.68,1.723,2.608,2.608,0,0,1-.177.974,2.032,2.032,0,0,1-.528.761,2.465,2.465,0,0,1-.861.5,3.6,3.6,0,0,1-1.18.177Zm-1.554-5.983v11.54h1.554v-4.316h1.852a5.78,5.78,0,0,0,1.848-.27,3.823,3.823,0,0,0,1.345-.753,3.169,3.169,0,0,0,.826-1.152,3.754,3.754,0,0,0,.282-1.474,3.967,3.967,0,0,0-.262-1.474,2.9,2.9,0,0,0-.793-1.127,3.646,3.646,0,0,0-1.341-.721,6.383,6.383,0,0,0-1.9-.254Zm17.54,1.273v-1.273h-7.111v11.54h1.562v-4.96h4.744V392.84h-4.744v-4.034Zm3.64,5.983,1.812-4.687a8.786,8.786,0,0,0,.347-1.087q.08.314.169.592c.059.185.116.347.169.488l1.812,4.695Zm2.948-7.256h-1.579l-4.614,11.54H452.3a.515.515,0,0,0,.338-.112.575.575,0,0,0,.185-.258l1.079-2.787h5.178l1.079,2.787a.65.65,0,0,0,.193.266.519.519,0,0,0,.338.1H461.9l-4.614-11.54Zm8.447,10.227V387.533h-1.554v11.54h6.547V397.76ZM480.9,387.533h-8.439v1.273h6.394l-6.548,9.2a1.375,1.375,0,0,0-.108.217.649.649,0,0,0-.045.242v.612h8.649V397.8h-6.6l6.531-9.173a.942.942,0,0,0,.161-.515v-.58Zm9.2,10.268v-3.938h4.493v-1.224H490.1v-3.833h5.549v-1.273h-7.111v11.54h7.111l.008-1.272Zm7.992.785a1.024,1.024,0,0,0,.21.318.938.938,0,0,0,.318.213,1.057,1.057,0,0,0,.789,0,.987.987,0,0,0,.322-.213,1.057,1.057,0,0,0,.217-.318,1.018,1.018,0,0,0,0-.793,1.021,1.021,0,0,0-.539-.54,1,1,0,0,0-1.107.218,1,1,0,0,0-.21.322,1.067,1.067,0,0,0,0,.793ZM510.1,387.533a.519.519,0,0,0-.342.117.586.586,0,0,0-.189.254l-3.245,8.141c-.07.183-.134.382-.193.6s-.116.44-.169.676q-.081-.354-.181-.676c-.068-.215-.136-.414-.206-.6l-3.253-8.141a.645.645,0,0,0-.193-.266.519.519,0,0,0-.338-.1h-1.248l4.7,11.54h1.4l4.7-11.54Zm1.84,11.053a1.022,1.022,0,0,0,.209.318.938.938,0,0,0,.318.213,1.058,1.058,0,0,0,.789,0,.987.987,0,0,0,.322-.213,1.044,1.044,0,0,0,.217-.318,1.01,1.01,0,0,0,0-.793,1.021,1.021,0,0,0-.539-.54,1,1,0,0,0-1.107.218,1,1,0,0,0-.209.322,1.067,1.067,0,0,0,0,.793Z" transform="translate(-32.367 -66.238)" fill="#005a94"></path><path id="Path_3" data-name="Path 3" d="M232.554,354.093H231v11.54h1.554V360.35h.709a1.427,1.427,0,0,1,.564.084.967.967,0,0,1,.346.286l3.979,4.582a1.017,1.017,0,0,0,.116.141.622.622,0,0,0,.141.1.616.616,0,0,0,.189.064,1.481,1.481,0,0,0,.262.02h1.353l-4.59-5.468a1.991,1.991,0,0,0-.346-.367,1.289,1.289,0,0,0-.395-.213,1.511,1.511,0,0,0,.318-.205,2.589,2.589,0,0,0,.31-.318l4.4-4.969h-1.321a1.052,1.052,0,0,0-.434.08.929.929,0,0,0-.339.29l-3.841,4.349a.879.879,0,0,1-.338.262,1.309,1.309,0,0,1-.491.076h-.588v-5.057Zm11.427,5.589v-4.357h1.708a3.287,3.287,0,0,1,2.029.523,1.845,1.845,0,0,1,.677,1.554,2.35,2.35,0,0,1-.177.926,1.946,1.946,0,0,1-.527.721,2.454,2.454,0,0,1-.87.467,3.942,3.942,0,0,1-1.2.165Zm3.608,1.369a1.545,1.545,0,0,0-.515-.491,4.44,4.44,0,0,0,1.2-.451,3.345,3.345,0,0,0,.893-.721,3.026,3.026,0,0,0,.56-.954,3.319,3.319,0,0,0,.193-1.144,3.373,3.373,0,0,0-.25-1.324,2.561,2.561,0,0,0-.769-1.011,3.621,3.621,0,0,0-1.316-.64,7.135,7.135,0,0,0-1.892-.221h-3.262v11.54h1.554v-4.815h1.184a1.068,1.068,0,0,1,.487.084.891.891,0,0,1,.294.278l3,4.123a.682.682,0,0,0,.628.33h1.385l-3.366-4.582Zm7.506.3,1.812-4.687a8.687,8.687,0,0,0,.346-1.087q.081.314.169.592c.059.185.116.347.169.488l1.812,4.695Zm2.948-7.256h-1.579l-4.614,11.54h1.208a.516.516,0,0,0,.338-.112.575.575,0,0,0,.185-.258l1.079-2.787h5.178l1.079,2.787a.65.65,0,0,0,.193.266.519.519,0,0,0,.338.1h1.208l-4.614-11.54Zm14.874,0v8.174q0,.177.012.375c.008.132.017.267.029.407l-6.676-8.689a1.325,1.325,0,0,0-.121-.133.51.51,0,0,0-.113-.08.459.459,0,0,0-.129-.041,1.12,1.12,0,0,0-.177-.012h-.8v11.54H266.3v-8.222c0-.113,0-.233-.008-.362s-.013-.26-.025-.395l6.677,8.7a.772.772,0,0,0,.245.217.67.67,0,0,0,.31.064h.781v-11.54Zm6.627,0h-1.554v11.54h1.554V360.35h.709a1.427,1.427,0,0,1,.564.084.968.968,0,0,1,.346.286l3.979,4.582a.976.976,0,0,0,.117.141.594.594,0,0,0,.141.1.61.61,0,0,0,.189.064,1.471,1.471,0,0,0,.262.02H287.2l-4.59-5.468a2.015,2.015,0,0,0-.347-.367,1.29,1.29,0,0,0-.395-.213,1.512,1.512,0,0,0,.318-.205,2.547,2.547,0,0,0,.31-.318l4.4-4.969h-1.321a1.055,1.055,0,0,0-.434.08.923.923,0,0,0-.338.29l-3.842,4.349a.874.874,0,0,1-.338.262,1.309,1.309,0,0,1-.492.076h-.588v-5.057Zm11.436,10.268v-3.938h4.493V359.2h-4.493v-3.833h5.548v-1.273h-7.11v11.54h7.11l.009-1.272Zm16.476-10.268v8.174q0,.177.013.375t.028.407l-6.676-8.689a1.321,1.321,0,0,0-.121-.133.494.494,0,0,0-.113-.08.451.451,0,0,0-.129-.041,1.12,1.12,0,0,0-.177-.012h-.8v11.54h1.369v-8.222c0-.113,0-.233-.008-.362s-.013-.26-.024-.395l6.676,8.7a.767.767,0,0,0,.246.217.665.665,0,0,0,.31.064h.781v-11.54Zm12.861,0v5.146h-6.225v-5.146h-1.563v11.54h1.563v-5.251h6.225v5.251h1.562v-11.54Zm7.086,7.256,1.812-4.687a8.691,8.691,0,0,0,.346-1.087q.081.314.169.592c.059.185.116.347.169.488l1.812,4.695Zm2.948-7.256h-1.579l-4.614,11.54h1.208a.515.515,0,0,0,.338-.112.575.575,0,0,0,.185-.258l1.079-2.787h5.178l1.079,2.787a.65.65,0,0,0,.193.266.519.519,0,0,0,.338.1h1.208l-4.614-11.54Zm9.8,10.054a2.719,2.719,0,0,1-.958-.68,2.96,2.96,0,0,1-.6-1.039,4.108,4.108,0,0,1-.205-1.329v-7.006h-1.554v7.014a5.253,5.253,0,0,0,.318,1.852,4.257,4.257,0,0,0,.914,1.478,4.206,4.206,0,0,0,1.449.978,5.365,5.365,0,0,0,3.833,0,4.167,4.167,0,0,0,1.446-.978,4.308,4.308,0,0,0,.91-1.478,5.267,5.267,0,0,0,.318-1.852v-7.014h-1.554v7.014a4.089,4.089,0,0,1-.206,1.329,2.961,2.961,0,0,1-.6,1.039,2.685,2.685,0,0,1-.954.676,3.494,3.494,0,0,1-2.564,0Zm15.715-8.991a4.151,4.151,0,0,0-1.4-.885,4.853,4.853,0,0,0-1.76-.306,4.083,4.083,0,0,0-1.526.266,3.385,3.385,0,0,0-1.119.709,3.02,3.02,0,0,0-.693,1.015,3.316,3.316,0,0,0,0,2.468,2.584,2.584,0,0,0,.624.865,3.266,3.266,0,0,0,.885.564q.5.217,1.015.383t1.015.322a4.324,4.324,0,0,1,.885.383,1.966,1.966,0,0,1,.624.559,1.449,1.449,0,0,1,.238.858,2.214,2.214,0,0,1-.161.861,1.87,1.87,0,0,1-.463.664,2.108,2.108,0,0,1-.737.431,2.988,2.988,0,0,1-.991.153,3.443,3.443,0,0,1-.8-.084,3.371,3.371,0,0,1-.632-.213,3.194,3.194,0,0,1-.495-.282c-.145-.1-.274-.2-.387-.282s-.214-.157-.3-.213a.457.457,0,0,0-.238-.085.371.371,0,0,0-.205.06.59.59,0,0,0-.157.149l-.451.741a4.8,4.8,0,0,0,1.57,1.1,5,5,0,0,0,2.046.406,4.474,4.474,0,0,0,1.639-.282,3.527,3.527,0,0,0,1.216-.773,3.27,3.27,0,0,0,.753-1.156,3.891,3.891,0,0,0,.258-1.421,2.769,2.769,0,0,0-.237-1.208,2.56,2.56,0,0,0-.628-.829,3.558,3.558,0,0,0-.886-.56q-.5-.221-1.014-.4t-1.015-.342a4.846,4.846,0,0,1-.886-.391,2.042,2.042,0,0,1-.628-.544,1.3,1.3,0,0,1-.238-.8,1.794,1.794,0,0,1,.137-.7,1.565,1.565,0,0,1,.407-.568,1.99,1.99,0,0,1,.669-.383,2.767,2.767,0,0,1,.922-.141,2.879,2.879,0,0,1,.946.137,3.746,3.746,0,0,1,.669.3q.278.165.463.3a.573.573,0,0,0,.322.137.347.347,0,0,0,.205-.06.6.6,0,0,0,.157-.181l.378-.741Zm9.044,4.929v.885a.289.289,0,0,0,.092.218.341.341,0,0,0,.246.088h1.8v2.537a6.176,6.176,0,0,1-1.22.5,5.634,5.634,0,0,1-3.273-.133,3.774,3.774,0,0,1-1.4-.914,4.07,4.07,0,0,1-.886-1.458,5.7,5.7,0,0,1-.31-1.945,5.636,5.636,0,0,1,.3-1.888,4.031,4.031,0,0,1,.854-1.433,3.732,3.732,0,0,1,1.345-.91,4.683,4.683,0,0,1,1.763-.318,5.618,5.618,0,0,1,1.156.1,4.968,4.968,0,0,1,.846.254,3.939,3.939,0,0,1,.608.31c.166.108.314.2.443.274a.468.468,0,0,0,.366.077.46.46,0,0,0,.27-.206l.443-.709a5.738,5.738,0,0,0-.8-.608,5.138,5.138,0,0,0-.926-.459,5.913,5.913,0,0,0-1.087-.29,7.63,7.63,0,0,0-1.273-.1,6.685,6.685,0,0,0-2.448.427,5.233,5.233,0,0,0-1.86,1.2,5.325,5.325,0,0,0-1.18,1.864,6.711,6.711,0,0,0-.414,2.408,6.5,6.5,0,0,0,.426,2.392,5.277,5.277,0,0,0,1.22,1.864,5.539,5.539,0,0,0,1.913,1.208,6.953,6.953,0,0,0,2.513.43,7.163,7.163,0,0,0,2.162-.31,6.474,6.474,0,0,0,1.856-.938v-4.429Zm8.255,4.276v-3.938h4.493V359.2H373.16v-3.833h5.548v-1.273H371.6v11.54h7.111l.008-1.272Zm14.777-9.205a4.154,4.154,0,0,0-1.4-.885,4.853,4.853,0,0,0-1.759-.306,4.077,4.077,0,0,0-1.526.266,3.4,3.4,0,0,0-1.12.709,3.063,3.063,0,0,0-.93,2.2,3.079,3.079,0,0,0,.238,1.285,2.583,2.583,0,0,0,.624.865,3.27,3.27,0,0,0,.886.564,10.8,10.8,0,0,0,1.015.383q.515.165,1.014.322a4.331,4.331,0,0,1,.886.383,1.973,1.973,0,0,1,.624.559,1.449,1.449,0,0,1,.237.858,2.226,2.226,0,0,1-.161.861,1.87,1.87,0,0,1-.463.664,2.111,2.111,0,0,1-.737.431,2.981,2.981,0,0,1-.99.153,3.435,3.435,0,0,1-.8-.084,3.372,3.372,0,0,1-.632-.213,3.2,3.2,0,0,1-.5-.282c-.145-.1-.274-.2-.387-.282s-.213-.157-.3-.213a.459.459,0,0,0-.238-.085.371.371,0,0,0-.205.06.6.6,0,0,0-.157.149l-.451.741a4.8,4.8,0,0,0,1.571,1.1,4.994,4.994,0,0,0,2.045.406,4.475,4.475,0,0,0,1.639-.282,3.524,3.524,0,0,0,1.216-.773,3.281,3.281,0,0,0,.753-1.156,3.891,3.891,0,0,0,.258-1.421,2.759,2.759,0,0,0-.238-1.208,2.557,2.557,0,0,0-.628-.829,3.569,3.569,0,0,0-.886-.56q-.5-.221-1.015-.4t-1.015-.342a4.838,4.838,0,0,1-.885-.391,2.045,2.045,0,0,1-.628-.544,1.3,1.3,0,0,1-.238-.8,1.794,1.794,0,0,1,.138-.7,1.564,1.564,0,0,1,.406-.568,1.987,1.987,0,0,1,.668-.383,2.769,2.769,0,0,1,.922-.141,2.883,2.883,0,0,1,.947.137,3.738,3.738,0,0,1,.668.3q.278.165.464.3a.571.571,0,0,0,.321.137.348.348,0,0,0,.206-.06.6.6,0,0,0,.157-.181l.379-.741Zm4.776,9.205v-3.938h4.493V359.2h-4.493v-3.833h5.548v-1.273H391.15v11.54h7.111l.009-1.272Zm10.05-.041V354.093h-1.554v11.54h6.547V364.32Zm9.027,0V354.093h-1.554v11.54h6.547V364.32Zm13.754-9.165a4.151,4.151,0,0,0-1.4-.885,4.854,4.854,0,0,0-1.76-.306,4.083,4.083,0,0,0-1.526.266,3.385,3.385,0,0,0-1.119.709,3.02,3.02,0,0,0-.693,1.015,3.316,3.316,0,0,0,0,2.468,2.584,2.584,0,0,0,.624.865,3.266,3.266,0,0,0,.885.564q.5.217,1.015.383t1.015.322a4.325,4.325,0,0,1,.885.383,1.966,1.966,0,0,1,.624.559,1.449,1.449,0,0,1,.238.858,2.215,2.215,0,0,1-.161.861,1.863,1.863,0,0,1-.463.664,2.107,2.107,0,0,1-.737.431,2.988,2.988,0,0,1-.991.153,3.442,3.442,0,0,1-.8-.084,3.371,3.371,0,0,1-.632-.213,3.193,3.193,0,0,1-.495-.282c-.145-.1-.274-.2-.387-.282s-.214-.157-.3-.213a.457.457,0,0,0-.238-.085.371.371,0,0,0-.205.06.59.59,0,0,0-.157.149l-.451.741a4.8,4.8,0,0,0,1.57,1.1,5,5,0,0,0,2.046.406,4.471,4.471,0,0,0,1.639-.282,3.527,3.527,0,0,0,1.216-.773,3.27,3.27,0,0,0,.753-1.156,3.89,3.89,0,0,0,.258-1.421,2.769,2.769,0,0,0-.237-1.208,2.56,2.56,0,0,0-.628-.829,3.559,3.559,0,0,0-.886-.56q-.5-.221-1.014-.4t-1.015-.342a4.848,4.848,0,0,1-.886-.391,2.043,2.043,0,0,1-.628-.544,1.3,1.3,0,0,1-.238-.8,1.806,1.806,0,0,1,.137-.7,1.565,1.565,0,0,1,.407-.568,1.99,1.99,0,0,1,.669-.383,2.767,2.767,0,0,1,.922-.141,2.886,2.886,0,0,1,.946.137,3.759,3.759,0,0,1,.668.3q.278.165.463.3a.573.573,0,0,0,.322.137.347.347,0,0,0,.205-.06.6.6,0,0,0,.157-.181l.378-.741Zm11.041,8.214a4.643,4.643,0,0,1-.6.472,3.255,3.255,0,0,1-.652.326,3.84,3.84,0,0,1-.765.189,6.567,6.567,0,0,1-.931.06,4.028,4.028,0,0,1-1.574-.306,3.566,3.566,0,0,1-1.264-.89,4.253,4.253,0,0,1-.846-1.429,5.573,5.573,0,0,1-.31-1.925,5.717,5.717,0,0,1,.3-1.908,4.135,4.135,0,0,1,.834-1.433,3.57,3.57,0,0,1,1.277-.9,4.2,4.2,0,0,1,1.635-.31,4.07,4.07,0,0,1,2.094.507,5.356,5.356,0,0,1,.547.35.638.638,0,0,0,.354.157.362.362,0,0,0,.206-.052.434.434,0,0,0,.125-.133l.515-.717a5.477,5.477,0,0,0-1.659-1.071,5.593,5.593,0,0,0-2.175-.395,5.927,5.927,0,0,0-2.295.431,5.165,5.165,0,0,0-1.784,1.211,5.49,5.49,0,0,0-1.156,1.868,6.722,6.722,0,0,0-.41,2.392,6.964,6.964,0,0,0,.395,2.392,5.465,5.465,0,0,0,1.111,1.864,4.972,4.972,0,0,0,1.732,1.208,5.72,5.72,0,0,0,2.255.43,5.883,5.883,0,0,0,2.444-.459,4.934,4.934,0,0,0,1.719-1.281l-.62-.668a.3.3,0,0,0-.226-.1.417.417,0,0,0-.274.121Zm11.475-9.277v5.146h-6.225v-5.146h-1.562v11.54h1.562v-5.251h6.225v5.251h1.562v-11.54Zm7.086,7.256,1.813-4.687a8.916,8.916,0,0,0,.346-1.087c.054.209.11.406.169.592s.116.347.169.488l1.812,4.695Zm2.948-7.256h-1.578l-4.615,11.54h1.208a.514.514,0,0,0,.338-.112.565.565,0,0,0,.185-.258l1.079-2.787h5.178l1.079,2.787a.65.65,0,0,0,.193.266.521.521,0,0,0,.339.1h1.208l-4.614-11.54Zm14,1.273v-1.273h-7.111v11.54h1.562v-4.96h4.744V359.4h-4.744v-4.034Zm10.558-1.273h-9.036v1.313h3.745v10.227h1.554V355.405h3.737v-1.312Z" transform="translate(0 -54.966)" fill="#005a94"></path><path id="Path_4" data-name="Path 4" d="M430.927,255.771s2.144-3.812,6.37-3.575c3.213.18,4.385-.154,6.026-1.663.8-.733,6.335-5.2,8.485-5.82,4.014-1.153,9.577-2.212,11.085-4.542,1.537-2.375,4.517-5.96,5.763-2.228,1.677,5.023,5.425,7.529,5.12,8.944-.615,2.851-3.891,3.409-3.153,5.666a9.016,9.016,0,0,1-1.059,7.624c-1.556,2.247-2.743,3.105-.864,4.493,3.89,2.875,8.519-1.64,9.257,2.755s-1.185,8.766.044,12.092,1.845,5.464.123,9.74-.984,10.572-6.886,9.027-8.558-4.631-11.69-4.783c-3.71-.179-4.681-.919-4.566-4.115.112-3.146.1-5.425-2.022-7.921-2.843-3.347-7.476-3.147-9.436-3.147-3.37,0-9.126.217-9.126-2.278,0-4.516.826-4.6-1.265-7.217s-5.239-7.191-2.206-13.052Z" transform="translate(-66.713 -15.463)" fill="#b3cdc5"></path><path id="Path_5" data-name="Path 5" d="M438.395,248.1s2.145-3.812,6.37-3.575c3.213.18,4.385-.154,6.026-1.663.8-.733,6.334-5.2,8.485-5.82,4.013-1.153,9.577-2.212,11.084-4.543,1.538-2.375,4.517-5.96,5.763-2.228,1.677,5.023,5.425,7.529,5.12,8.944-.615,2.851-3.891,3.409-3.153,5.666a9.016,9.016,0,0,1-1.059,7.624c-1.556,2.247-2.743,3.105-.864,4.493,3.89,2.875,8.519-1.64,9.257,2.755s-1.186,8.765.044,12.092,1.845,5.464.123,9.74-.984,10.572-6.886,9.027-8.559-4.632-11.69-4.783c-3.711-.179-4.681-.919-4.566-4.115.112-3.146.1-5.425-2.022-7.921-2.843-3.347-7.476-3.147-9.436-3.147-3.37,0-9.125.217-9.125-2.278,0-4.516.826-4.6-1.265-7.217s-5.24-7.191-2.207-13.052Z" transform="translate(-69.22 -12.889)" fill="#5e9987"></path><path id="Path_6" data-name="Path 6" d="M461.1,190.277l-44.736,21.915a16.049,16.049,0,0,1-3.257,1.271,29.259,29.259,0,0,1-5.895.434h-21.33l44.879-23.621" transform="translate(-52.009 0)" fill="#005a94"></path><path id="Path_7" data-name="Path 7" d="M453.451,190.277l73.754,37.15a12.375,12.375,0,0,0,3.257,1.271,29.261,29.261,0,0,0,5.895.434h21.33l-73.9-38.856" transform="translate(-74.698 0)" fill="#5e9987"></path><path id="Path_8" data-name="Path 8" d="M453.451,190.276h30.338l-15.4,7.533-14.941-7.533Z" transform="translate(-74.698)" fill="#508287"></path><path id="Path_9" data-name="Path 9" d="M333.49,259.429h-6.5V294.38h6.5V279.007h2.054a4.473,4.473,0,0,1,1.74.266,2.593,2.593,0,0,1,1.063.919l9.887,12.908a2.7,2.7,0,0,0,.954.954,3.567,3.567,0,0,0,1.728.326h5.729l-12.134-16.364a6.406,6.406,0,0,0-1.221-1.366,4.952,4.952,0,0,0-1.438-.81A6.533,6.533,0,0,0,344,273.955l11.772-14.527h-5.608a4.071,4.071,0,0,0-1.68.3,3.5,3.5,0,0,0-1.269,1.075l-9.644,12.207a2.571,2.571,0,0,1-1.039.81,3.953,3.953,0,0,1-1.523.254H333.49V259.429Zm42.058,17.427v3.674a1.166,1.166,0,0,0,.351.858,1.322,1.322,0,0,0,.979.351h4.4v6.333a16.963,16.963,0,0,1-2.973,1.112,14.572,14.572,0,0,1-8.364-.447,10.3,10.3,0,0,1-3.759-2.489,11.265,11.265,0,0,1-2.417-3.989,15.585,15.585,0,0,1-.858-5.354,15.262,15.262,0,0,1,.8-5.076,11.232,11.232,0,0,1,2.272-3.892,9.9,9.9,0,0,1,3.565-2.489,12.055,12.055,0,0,1,4.677-.87,16.216,16.216,0,0,1,2.816.217,14.62,14.62,0,0,1,2.2.556,10.328,10.328,0,0,1,1.777.8l1.6.919a2.03,2.03,0,0,0,1.522.351,1.778,1.778,0,0,0,1.136-.858l1.861-2.949a17.239,17.239,0,0,0-2.393-1.861,14.894,14.894,0,0,0-2.889-1.439,20.174,20.174,0,0,0-3.432-.931,22.144,22.144,0,0,0-3.977-.338,20.684,20.684,0,0,0-7.541,1.305,15.913,15.913,0,0,0-9.355,9.33,19.743,19.743,0,0,0-1.281,7.227,18.978,18.978,0,0,0,1.329,7.179,16.2,16.2,0,0,0,3.783,5.656,17.34,17.34,0,0,0,5.922,3.7,21.49,21.49,0,0,0,7.747,1.33,22.219,22.219,0,0,0,6.441-.907A18.529,18.529,0,0,0,387.15,291V276.856Z" transform="translate(-32.232 -23.091)" fill="#005a94"></path><path id="Path_10" data-name="Path 10" d="M532.548,276.254v-11.6h4.157a8.381,8.381,0,0,1,5.354,1.426,4.963,4.963,0,0,1,1.752,4.085,6.637,6.637,0,0,1-.435,2.441,5.093,5.093,0,0,1-1.317,1.922,6.185,6.185,0,0,1-2.248,1.269,10.066,10.066,0,0,1-3.2.46Zm12.037,5.414a6.118,6.118,0,0,0-.967-1.172,6.367,6.367,0,0,0-1.16-.858,12.117,12.117,0,0,0,3.276-1.522,10.092,10.092,0,0,0,2.417-2.248,9.658,9.658,0,0,0,1.5-2.852,10.563,10.563,0,0,0,.52-3.336,10.456,10.456,0,0,0-.773-4.073,8.09,8.09,0,0,0-2.405-3.179,11.691,11.691,0,0,0-4.182-2.066,22.159,22.159,0,0,0-6.1-.737H526.046v34.952h6.5V280.919h2.78a3.187,3.187,0,0,1,1.463.266,2.584,2.584,0,0,1,.906.895l7.348,11.191a2.577,2.577,0,0,0,2.418,1.305h5.874l-8.75-12.908Zm19.047-4.471V264.652h4.859a10.423,10.423,0,0,1,3.142.422,5.815,5.815,0,0,1,2.2,1.221,5.006,5.006,0,0,1,1.305,1.934,7.041,7.041,0,0,1,.435,2.538,7.763,7.763,0,0,1-.435,2.671,5.184,5.184,0,0,1-1.317,2.03,5.914,5.914,0,0,1-2.212,1.281,9.79,9.79,0,0,1-3.118.447Zm-6.5-17.573v34.952h6.5v-12.3h4.859a18.93,18.93,0,0,0,5.958-.846,11.8,11.8,0,0,0,4.242-2.369,9.654,9.654,0,0,0,2.538-3.638,12.421,12.421,0,0,0,.846-4.653,12.165,12.165,0,0,0-.81-4.5,9.109,9.109,0,0,0-2.477-3.529,11.684,11.684,0,0,0-4.23-2.3,19.97,19.97,0,0,0-6.067-.822Z" transform="translate(-99.075 -23.287)" fill="#5e9987"></path></g></svg>