<svg version="1.2" xmlns="http://www.w3.org/2000/svg" viewBox="0 0 936 140" width="936" height="140">
	<title>BWKG_GR_Rubin_RGB_QUER-ai</title>
	<style>
		.s0 { fill: #857671 }
		.s1 { fill: #da0f64 }
	</style>
	<g id="Ebene 1">
		<path id="&lt;Compound Path&gt;" fill-rule="evenodd" class="s0" d="m58.2 131.2h-58.2v-128.8h58.8c24.8 0 40.6 12 40.6 34.1 0 11-5.1 19.8-13.6 25 10.3 4.6 18 14 18 28.1 0 27.1-18.1 41.6-45.6 41.6zm-0.6-105h-32.5v24.4h33.8c10.6 0 14.5-4.9 14.5-12.1 0-8.1-4.6-12.3-15.8-12.3zm1.5 47.2h-34v33.3h34c12.5 0 18.3-6.6 18.3-16.7 0-11-5.8-16.6-18.3-16.6z"/>
		<path id="&lt;Compound Path&gt;" class="s0" d="m233.1 131.2h-25l-15.8-66.2c-1.8-7.8-3.6-17.3-4.4-22.1-0.5 4.8-2.3 14.5-4.2 22.1l-16.1 66.2h-23.9l-26.8-128.8h26.8l11.1 62.8c1.1 6.2 2.6 15.8 3.1 21.1 0.9-5.3 3-14.9 4.4-21.1l15-62.8h22.4l15.1 62.8c1.5 6.2 3.5 15.8 4.4 21.1 0.6-5.3 2.1-15.1 3.1-21.1l11.2-62.8h26.4z"/>
		<path id="&lt;Compound Path&gt;" class="s0" d="m366.4 131.2l-34.8-62.2-20.5 24.3v37.9h-25.6v-128.8h25.6v36.6c0 4.8-0.2 16.4-0.4 20.5 1.9-3 6.6-8.9 10.1-13.1l35.9-44h30.9l-37.5 44.5 47 84.3z"/>
		<path id="&lt;Compound Path&gt;" class="s0" d="m458.7 133.2c-33.5 0-56-25.7-56-66.4 0-39.2 23.5-66.4 56.9-66.4 26.2 0 40.1 12.3 48.5 32.2l-24.3 10.1c-4.8-9.5-10.6-16.7-24.5-16.7-19.2 0-30.2 16.9-30.2 40.8 0 23.8 11.1 41.2 30.4 41.2 17.5 0 23.6-8.2 25-19.5h-20.3v-24.1h46v17c0 33.1-21.8 51.8-51.5 51.8z"/>
		<path id="&lt;Compound Path&gt;" class="s0" d="m686.9 35.1l-9.4-16.7-6.1 7.3v9.4h-4.8v-32.6h4.8v11.2c0 1.2 0 4.7-0.1 5.7 0.6-0.8 2.7-3.5 3.8-4.9l9.7-12h5.5l-9.6 11.8 11.7 20.8z"/>
		<path id="&lt;Compound Path&gt;" class="s0" d="m709.5 15.7c-1-0.5-2.1-0.9-3.7-0.9-3 0-4.8 2.2-4.8 6.3v14h-4.8v-24.5h4.8v2.4c1.2-1.7 3.2-2.9 5.6-2.9 2 0 3.2 0.4 4.2 1z"/>
		<path id="&lt;Compound Path&gt;" fill-rule="evenodd" class="s0" d="m727.9 35.1v-2.4c-1.7 1.7-4.1 2.9-6.8 2.9-3.9 0-8.4-2.2-8.4-8.2 0-5.5 4.2-8 9.7-8q3.4 0.1 5.5 1v-1.8c0-2.7-1.7-4.2-4.7-4.2-2.5 0-4.4 0.5-6.3 1.5l-1.9-3.6c2.3-1.4 4.9-2.2 8.4-2.2 5.4 0 9.2 2.7 9.2 8.2v16.8zm0-10.4c-1.3-0.7-3-1.1-5.6-1.1-3.1 0-5.1 1.4-5.1 3.6 0 2.5 1.6 4.1 4.8 4.1 2.5 0 4.8-1.6 5.9-3.1z"/>
		<path id="&lt;Compound Path&gt;" class="s0" d="m754.1 35.1v-13.8c0-5-1.9-6.8-5-6.8-3.3 0-5.1 2.3-5.1 6.3v14.3h-4.8v-24.5h4.8v2.4c1.2-1.8 3.7-2.9 6.2-2.9 5.7 0 8.7 3.7 8.7 11v14z"/>
		<path id="&lt;Compound Path&gt;" class="s0" d="m779.5 35.1l-5.4-12.2-3.8 5v7.2h-4.8v-31.5l4.8-2.5v15.5c0 1.4 0 4 0 5.2 0.6-1 1.9-2.9 2.7-4l5.1-7.2h5.4l-6.2 8.2 7.4 16.3z"/>
		<path id="&lt;Compound Path&gt;" fill-rule="evenodd" class="s0" d="m808.5 24.6h-16.2c0.5 4.7 3.2 6.7 6.2 6.7 2 0 3.7-0.7 5.3-2l2.8 3.1c-2.1 2.1-4.7 3.2-8.4 3.2-5.7 0-10.6-4.6-10.6-12.7 0-8.3 4.4-12.8 10.7-12.8 7 0 10.3 5.7 10.3 12.3 0 0.9 0 1.7-0.1 2.2zm-10.5-10.1c-3.2 0-5.2 2.2-5.6 6.1h11.4c-0.2-3.3-1.8-6.1-5.8-6.1z"/>
		<path id="&lt;Compound Path&gt;" class="s0" d="m829.2 35.1v-13.8c0-5-1.8-6.8-5-6.8-3.2 0-5.1 2.3-5.1 6.3v14.3h-4.8v-24.5h4.8v2.4c1.3-1.8 3.7-2.9 6.2-2.9 5.7 0 8.7 3.7 8.7 11v14z"/>
		<path id="&lt;Compound Path&gt;" class="s0" d="m855.6 35.1v-13.8c0-5-1.9-6.8-5.1-6.8-3.2 0-5 2.3-5 6.3v14.3h-4.8v-31.5l4.8-2.5v11.9c1.2-1.8 3.6-2.9 6.1-2.9 5.7 0 8.8 3.7 8.8 11v14z"/>
		<path id="&lt;Compound Path&gt;" fill-rule="evenodd" class="s0" d="m881 35.1v-2.4c-1.6 1.7-4 2.9-6.7 2.9-4 0-8.5-2.2-8.5-8.2 0-5.5 4.2-8 9.8-8q3.4 0.1 5.4 1v-1.8c0-2.7-1.6-4.2-4.6-4.2-2.5 0-4.5 0.5-6.4 1.5l-1.8-3.6c2.3-1.4 4.9-2.2 8.4-2.2 5.4 0 9.2 2.7 9.2 8.2v16.8zm0-10.4c-1.4-0.7-3-1.1-5.7-1.1-3 0-5 1.4-5 3.6 0 2.5 1.5 4.1 4.7 4.1 2.6 0 4.8-1.6 6-3.1z"/>
		<path id="&lt;Compound Path&gt;" class="s0" d="m907.1 35.1v-2.3c-1.2 1.8-3.7 2.8-6.2 2.8-5.7 0-8.7-3.7-8.7-10.9v-14.1h4.8v13.9c0 4.9 1.9 6.7 5 6.7 3.3 0 5.1-2.3 5.1-6.2v-14.4h4.8v24.5z"/>
		<path id="&lt;Compound Path&gt;" class="s0" d="m926.6 35.6c-3.3 0-6.9-1.3-9.4-3.1l2.2-3.6c2.3 1.6 4.9 2.4 7.2 2.4 3 0 4.5-1 4.5-2.7 0-1.9-2.2-2.8-5.7-4.1-5.3-2.1-7.2-3.8-7.2-7.7 0-4.4 3.4-6.7 8.3-6.7 3.1 0 6.2 1.1 8.3 2.7l-2.1 3.7c-2-1.4-4-2.1-6.3-2.1-2.3 0-3.4 0.9-3.4 2.2 0 1.3 0.9 2.1 4.6 3.6 5.4 2.1 8.2 3.6 8.2 8.2 0 5.4-4.4 7.2-9.2 7.2z"/>
		<path id="&lt;Compound Path&gt;" fill-rule="evenodd" class="s0" d="m852.1 70l6.7 13.4h-5.6l-6.5-12.9h-7.4v12.9h-4.8v-32.7h14.3c5.7 0 10.5 3 10.5 9.8 0 5.2-2.7 8.4-7.2 9.5zm-3.3-14.7h-9.5v10.5h9.5c3.3 0 5.6-1.6 5.6-5.2 0-3.4-2.3-5.3-5.6-5.3z"/>
		<path id="&lt;Compound Path&gt;" fill-rule="evenodd" class="s0" d="m883.8 72.8h-15.5c0.5 4.7 2.5 6.8 5.4 6.8 2.1 0 3.7-0.8 5.4-2l2.8 3.1c-2.1 2-4.7 3.2-8.4 3.2-5.8 0-10.6-4.6-10.6-12.7 0-8.4 4.4-12.8 10.7-12.8 7 0 10.3 5.6 10.3 12.2 0 0.9-0.1 1.7-0.1 2.2zm-10.5-10.1c-3.2 0-5.2 2.2-5.6 6.2h11.4c-0.3-3.4-1.9-6.2-5.8-6.2z"/>
		<path id="&lt;Compound Path&gt;" class="s0" d="m905.2 83.4v-13.9c0-4.9-1.9-6.7-5-6.7-3.3 0-5.1 2.3-5.1 6.3v14.3h-4.8v-31.5l4.8-2.5v11.8c1.2-1.8 3.7-2.8 6.2-2.8 5.7 0 8.7 3.7 8.7 10.9v14.1z"/>
		<path id="&lt;Compound Path&gt;" fill-rule="evenodd" class="s0" d="m930.7 83.4v-2.4c-1.7 1.6-4.1 2.9-6.7 2.9-4 0-8.5-2.2-8.5-8.3 0-5.4 4.2-7.9 9.7-7.9q3.5 0 5.5 0.9v-1.8c0-2.6-1.7-4.1-4.6-4.1-2.6 0-4.5 0.4-6.4 1.5l-1.9-3.6c2.3-1.5 4.9-2.2 8.4-2.2 5.5 0 9.2 2.6 9.2 8.2v16.8zm0-10.5c-1.3-0.6-3-1-5.6-1-3.1 0-5 1.4-5 3.6 0 2.4 1.5 4.1 4.7 4.1 2.5 0 4.8-1.6 5.9-3.2z"/>
		<path id="&lt;Compound Path&gt;" fill-rule="evenodd" class="s0" d="m820.5 118.8h-8.6v12.2h-4.8v-32.7h13.7c6 0 10.5 3.5 10.5 10.2 0 6.8-4.5 10.3-10.8 10.3zm0.2-15.9h-8.8v11.3h8.8c3.7 0 5.6-2.2 5.6-5.7 0-3.6-2.2-5.6-5.6-5.6z"/>
		<path id="&lt;Compound Path&gt;" class="s0" d="m844.1 101.3c-1.6 0-2.2 0.6-2.2 2.4v2.8h4.5v4.5h-4.5v20h-4.8v-20h-3.2v-4.5h3.2v-3.2c0-4.5 2.7-6.2 6.2-6.2 1.2 0 2.6 0.2 3.6 0.5v4.2c-1.1-0.4-1.9-0.5-2.8-0.5z"/>
		<path id="&lt;Compound Path&gt;" class="s0" d="m852.1 131v-31.5l4.8-2.5v34z"/>
		<path id="&lt;Compound Path&gt;" fill-rule="evenodd" class="s0" d="m883.6 120.4h-16.1c0.5 4.8 3.1 6.8 6.1 6.8 2.1 0 3.7-0.8 5.3-2l2.9 3.1c-2.2 2-4.7 3.2-8.5 3.2-5.7 0-10.6-4.6-10.6-12.7 0-8.3 4.4-12.8 10.8-12.8 6.9 0 10.3 5.6 10.3 12.2 0 0.9-0.1 1.7-0.2 2.2zm-10.5-10.1c-3.2 0-5.1 2.3-5.6 6.2h11.4c-0.2-3.4-1.8-6.2-5.8-6.2z"/>
		<path id="&lt;Compound Path&gt;" fill-rule="evenodd" class="s0" d="m897.4 140l-1.6-3.6c6.9-0.4 8.4-2.2 8.4-7.3v-0.4c-1.8 1.6-3.8 2.8-6.4 2.8-5.2 0-9.4-3.8-9.4-13.2 0-8.4 4.6-12.3 9.7-12.3 2.4 0 4.8 1.3 6.1 2.8v-2.3h4.8v22.2c0 7.4-2.7 11-11.6 11.3zm6.9-26.4c-1.1-1.4-3.3-3.2-5.8-3.2-3.4 0-5.3 2.6-5.3 7.8 0 6.2 2 8.9 5.5 8.9 2.3 0 4.3-1.6 5.6-3.2z"/>
		<path id="&lt;Compound Path&gt;" fill-rule="evenodd" class="s0" d="m935.5 120.4h-16.1c0.5 4.8 3.1 6.8 6.1 6.8 2.1 0 3.7-0.8 5.3-2l2.9 3.1c-2.2 2-4.7 3.2-8.5 3.2-5.7 0-10.6-4.6-10.6-12.7 0-8.3 4.4-12.8 10.8-12.8 6.9 0 10.3 5.6 10.3 12.2 0 0.9-0.1 1.7-0.2 2.2zm-10.5-10.1c-3.2 0-5.1 2.3-5.6 6.2h11.4c-0.2-3.4-1.8-6.2-5.8-6.2z"/>
		<path id="&lt;Path&gt;" class="s1" d="m643.5 35.2h-66.6v-16.7h66.6z"/>
		<path id="&lt;Path&gt;" class="s1" d="m811.3 83.3h-234.4v-16.7h234.4z"/>
		<path id="&lt;Path&gt;" class="s1" d="m783.9 131.1h-207v-16.7h207z"/>
	</g>
</svg>