<svg viewBox="0 0 165 120" version="1.1" xmlns="http://www.w3.org/2000/svg" xmlns:xlink="http://www.w3.org/1999/xlink">
				<title>Logo-kgnw</title>
				<g id="Symbols" stroke="none" stroke-width="1" fill="none" fill-rule="evenodd">
					<g id="_LARGE/_ATOMS/Logo" transform="translate(-1.000000, -1.000000)">
						<g id="Logo-kgnw" transform="translate(1.000000, 1.000000)">
							<g id="map" transform="translate(0.158400, 0.259600)">
								<polygon id="Fill-1" fill="#E2E2E2" points="39.285 15.75 40.915 15.931 41.819 14.482 47.251 14.844 56.121 9.051 55.798 9.168 56.297 6.337 56.665 3.982 59.923 4.706 60.648 7.603 64.267 9.413 66.621 8.689 69.337 12.853 69.45 13.164 69.45 13.696 69.337 14.844 69.337 15.75 68.251 17.026 66.985 18.465 67.708 19.552 70.786 19.009 70.786 23.535 67.166 24.62 67.889 26.431 69.881 26.431 72.114 27.149 72.777 25.526 76.761 24.62 78.208 21.543 83.097 22.629 85.811 19.552 83.639 16.474 84.001 15.388 83.82 10.138 79.114 7.784 79.295 5.249 79.572 3.573 79.839 2.641 82.602 1.009 84.266 0.843 85.993 0.904 87.803 2.172 89.974 7.81597009e-14 91.786 0.904 93.416 7.603 95.768 7.241 97.58 7.784 99.752 6.698 103.193 1.628 105.181 1.628 106.089 3.62 106.578 5.338 106.451 7.241 104.097 10.681 102.105 11.767 101.017 14.301 105.181 15.75 106.245 15.827 106.746 16.993 105.912 17.992 105.078 19.323 104.46 20.276 107.175 20.999 107.536 23.173 108.076 26.483 107.899 26.069 111.007 27.814 112.738 29.413 113.671 30.745 113.873 32.224 114.236 35.121 116.735 36.073 116.95 37.836 116.95 40.552 116.9 41.468 117.533 44.198 118.199 46.196 116.588 48.698 115.403 49.959 114.416 50.69 113.148 52.863 113.148 54.311 112.872 56.586 110.977 57.931 109.541 58.05 108.26 58.294 106.089 58.837 105.364 57.208 106.089 55.76 103.193 54.311 99.932 56.122 101.017 58.294 101.017 61.552 98.666 61.552 98.088 61.647 96.855 61.552 94.502 62.277 92.329 62.459 92.511 63.725 89.07 67.527 90.893 68.44 93.825 69.771 96.311 71.329 93.777 74.768 94.502 76.216 92.692 77.847 87.984 77.664 87.984 79.656 88.889 81.285 85.811 87.079 84.001 86.898 83.097 89.071 80.381 89.796 78.508 90.417 75.673 92.691 76.579 95.589 75.131 98.846 71.329 98.666 69.156 91.062 68.783 89.484 67.452 87.355 65.174 86.174 62.639 86.355 62.277 90.518 59.923 92.147 59.923 94.501 57.027 97.037 49.785 97.759 48.88 101.924 44.716 103.011 43.268 101.563 40.19 104.82 38.199 104.278 34.578 106.269 32.586 111.519 31.622 112.262 31.356 112.794 30.556 113.725 31.138 115.863 27.879 117.493 23.896 115.14 19.914 117.132 19.635 117.456 19.1 117.988 18.284 118.253 17.016 118.253 15.207 114.779 16.473 110.796 14.121 108.261 11.587 108.441 10.318 105 10.843 102.271 10.862 101.38 10.681 99.391 7.602 96.855 5.43 97.037 2.851 96.013 2.534 93.596 3.802 90.881 4.317 89.484 5.068 89.796 6.698 89.796 7.241 85.81 4.706 85.45 2.985 84.823 1.266 84.001 -3.37507799e-12 79.838 1.447 78.388 3.259 79.295 9.595 73.32 9.957 71.872 6.879 72.595 6.336 69.881 12.308 63 11.587 55.76 7.028 48.522 8.271 44.793 18.598 33.7 22.042 29.682 26.25 25.283 29.502 20.501 35.431 17.25"></polygon>
								<polygon id="Fill-2" fill="#1B4175" points="17.0186 26.6684 20.5176 26.6684 20.5176 23.1684 17.0186 23.1684"></polygon>
								<polygon id="Fill-3" fill="#1B4175" points="17.0186 22.0874 20.5176 22.0874 20.5176 18.5884 17.0186 18.5884"></polygon>
								<polygon id="Fill-4" fill="#1B4175" points="21.6756 26.6684 25.1746 26.6684 25.1746 23.1684 21.6756 23.1684"></polygon>
								<polygon id="Fill-5" fill="#1B4175" points="21.6846 22.0874 25.1836 22.0874 25.1836 18.5884 21.6846 18.5884"></polygon>
								<polygon id="Fill-6" fill="#1B4175" points="26.2796 26.6684 29.7776 26.6684 29.7776 23.1684 26.2796 23.1684"></polygon>
								<polygon id="Fill-7" fill="#1B4175" points="26.2796 22.0874 29.7776 22.0874 29.7776 18.5884 26.2796 18.5884"></polygon>
								<polygon id="Fill-8" fill="#1B4175" points="30.9056 26.6684 34.4046 26.6684 34.4046 23.1684 30.9056 23.1684"></polygon>
								<polygon id="Fill-9" fill="#1B4175" points="30.9056 22.0874 34.4046 22.0874 34.4046 18.5884 30.9056 18.5884"></polygon>
								<polygon id="Fill-10" fill="#1B4175" points="17.0186 17.5864 20.5176 17.5864 20.5176 14.0874 17.0186 14.0874"></polygon>
								<polygon id="Fill-11" fill="#1B4175" points="21.6346 17.5864 25.1336 17.5864 25.1336 14.0874 21.6346 14.0874"></polygon>
								<polygon id="Fill-12" fill="#1B4175" points="26.2796 17.5864 29.7776 17.5864 29.7776 14.0874 26.2796 14.0874"></polygon>
								<polygon id="Fill-13" fill="#1B4175" points="30.9056 17.5864 34.4046 17.5864 34.4046 14.0874 30.9056 14.0874"></polygon>
								<polygon id="Fill-14" fill="#1B4175" points="17.0506 45.1014 20.5496 45.1014 20.5496 41.6014 17.0506 41.6014"></polygon>
								<polygon id="Fill-15" fill="#1B4175" points="17.0606 40.4574 20.5596 40.4574 20.5596 36.9584 17.0606 36.9584"></polygon>
								<polygon id="Fill-16" fill="#1B4175" points="21.6756 45.1014 25.1746 45.1014 25.1746 41.6014 21.6756 41.6014"></polygon>
								<polygon id="Fill-17" fill="#1B4175" points="21.6846 40.4574 25.1836 40.4574 25.1836 36.9584 21.6846 36.9584"></polygon>
								<polygon id="Fill-18" fill="#1B4175" points="49.3626 47.7574 52.8626 47.7574 52.8626 44.2584 49.3626 44.2584"></polygon>
								<polygon id="Fill-19" fill="#1B4175" points="26.2796 40.4574 29.7776 40.4574 29.7776 36.9584 26.2796 36.9584"></polygon>
								<polygon id="Fill-20" fill="#1B4175" points="30.9056 45.1014 34.4046 45.1014 34.4046 41.6014 30.9056 41.6014"></polygon>
								<polygon id="Fill-21" fill="#1B4175" points="30.9056 40.4574 34.4046 40.4574 34.4046 36.9584 30.9056 36.9584"></polygon>
								<polygon id="Fill-22" fill="#1B4175" points="17.0186 35.8764 20.5176 35.8764 20.5176 32.3774 17.0186 32.3774"></polygon>
								<polygon id="Fill-23" fill="#1B4175" points="17.0186 31.2324 20.5186 31.2324 20.5186 27.7324 17.0186 27.7324"></polygon>
								<polygon id="Fill-24" fill="#1B4175" points="21.6346 35.8764 25.1336 35.8764 25.1336 32.3774 21.6346 32.3774"></polygon>
								<polygon id="Fill-25" fill="#1B4175" points="21.6436 31.2324 25.1426 31.2324 25.1426 27.7324 21.6436 27.7324"></polygon>
								<polygon id="Fill-26" fill="#1B4175" points="26.2796 35.8764 29.7776 35.8764 29.7776 32.3774 26.2796 32.3774"></polygon>
								<polygon id="Fill-27" fill="#1B4175" points="26.2796 31.2324 29.7776 31.2324 29.7776 27.7324 26.2796 27.7324"></polygon>
								<polygon id="Fill-28" fill="#1B4175" points="30.9056 35.8764 34.4046 35.8764 34.4046 32.3774 30.9056 32.3774"></polygon>
								<polygon id="Fill-29" fill="#1B4175" points="30.9056 31.2324 34.4046 31.2324 34.4046 27.7324 30.9056 27.7324"></polygon>
								<polygon id="Fill-30" fill="#1B4175" points="17.0506 60.4184 20.5496 60.4184 20.5496 56.9184 17.0506 56.9184"></polygon>
								<polygon id="Fill-31" fill="#1B4175" points="26.3516 59.1124 29.8506 59.1124 29.8506 55.6134 26.3516 55.6134"></polygon>
								<polygon id="Fill-32" fill="#1B4175" points="17.0506 54.4344 20.5496 54.4344 20.5496 50.9344 17.0506 50.9344"></polygon>
								<polygon id="Fill-33" fill="#1B4175" points="17.0566 49.8314 20.5566 49.8314 20.5566 46.3324 17.0566 46.3324"></polygon>
								<polygon id="Fill-34" fill="#1B4175" points="21.6346 54.4344 25.1336 54.4344 25.1336 50.9344 21.6346 50.9344"></polygon>
								<polygon id="Fill-35" fill="#1B4175" points="21.6436 49.8314 25.1426 49.8314 25.1426 46.3324 21.6436 46.3324"></polygon>
								<polygon id="Fill-36" fill="#1B4175" points="33.3226 64.2674 36.8216 64.2674 36.8216 60.7674 33.3226 60.7674"></polygon>
								<polygon id="Fill-37" fill="#1B4175" points="26.2796 49.8294 29.7776 49.8294 29.7776 46.3304 26.2796 46.3304"></polygon>
								<polygon id="Fill-38" fill="#1B4175" points="30.9166 54.4344 34.4166 54.4344 34.4166 50.9344 30.9166 50.9344"></polygon>
								<polygon id="Fill-39" fill="#1B4175" points="39.0286 51.0644 42.5286 51.0644 42.5286 47.5664 39.0286 47.5664"></polygon>
								<polygon id="Fill-40" fill="#1B4175" points="35.4876 40.4574 38.9876 40.4574 38.9876 36.9584 35.4876 36.9584"></polygon>
								<polygon id="Fill-41" fill="#1B4175" points="61.9166 20.6714 65.4146 20.6714 65.4146 17.1724 61.9166 17.1724"></polygon>
								<polygon id="Fill-42" fill="#1B4175" points="44.5266 40.4574 48.0256 40.4574 48.0256 36.9584 44.5266 36.9584"></polygon>
								<polygon id="Fill-43" fill="#1B4175" points="93.5296 39.1494 97.0276 39.1494 97.0276 35.6504 93.5296 35.6504"></polygon>
								<polygon id="Fill-44" fill="#1B4175" points="40.0766 35.8764 43.5756 35.8764 43.5756 32.3774 40.0766 32.3774"></polygon>
								<polygon id="Fill-45" fill="#1B4175" points="48.2486 20.2174 51.7476 20.2174 51.7476 16.7174 48.2486 16.7174"></polygon>
								<polygon id="Fill-46" fill="#1B4175" points="3.4146 45.1014 6.9146 45.1014 6.9146 41.6014 3.4146 41.6014"></polygon>
								<polygon id="Fill-47" fill="#1B4175" points="3.4146 40.4574 6.9146 40.4574 6.9146 36.9584 3.4146 36.9584"></polygon>
								<polygon id="Fill-48" fill="#1B4175" points="7.9566 45.1014 11.4556 45.1014 11.4556 41.6014 7.9566 41.6014"></polygon>
								<polygon id="Fill-49" fill="#1B4175" points="7.9566 40.4574 11.4556 40.4574 11.4556 36.9584 7.9566 36.9584"></polygon>
								<polygon id="Fill-50" fill="#1B4175" points="12.5246 45.1014 16.0236 45.1014 16.0236 41.6014 12.5246 41.6014"></polygon>
								<polygon id="Fill-51" fill="#1B4175" points="12.5346 40.4574 16.0316 40.4574 16.0316 36.9584 12.5346 36.9584"></polygon>
								<polygon id="Fill-52" fill="#1B4175" points="3.4146 35.8764 6.9146 35.8764 6.9146 32.3774 3.4146 32.3774"></polygon>
								<polygon id="Fill-53" fill="#1B4175" points="3.4146 31.2324 6.9146 31.2324 6.9146 27.7324 3.4146 27.7324"></polygon>
								<polygon id="Fill-54" fill="#1B4175" points="7.9566 35.8764 11.4556 35.8764 11.4556 32.3774 7.9566 32.3774"></polygon>
								<polygon id="Fill-55" fill="#1B4175" points="7.9656 31.2324 11.4646 31.2324 11.4646 27.7324 7.9656 27.7324"></polygon>
								<polygon id="Fill-56" fill="#1B4175" points="12.5346 35.8764 16.0316 35.8764 16.0316 32.3774 12.5346 32.3774"></polygon>
								<polygon id="Fill-57" fill="#1B4175" points="12.5346 31.2324 16.0316 31.2324 16.0316 27.7324 12.5346 27.7324"></polygon>
								<polygon id="Fill-58" fill="#1B4175" points="85.3076 27.6894 88.8066 27.6894 88.8066 24.1904 85.3076 24.1904"></polygon>
								<polygon id="Fill-59" fill="#1B4175" points="33.1356 93.1374 36.6346 93.1374 36.6346 89.6384 33.1356 89.6384"></polygon>
								<polygon id="Fill-60" fill="#1B4175" points="21.5416 109.3874 25.0406 109.3874 25.0406 105.8884 21.5416 105.8884"></polygon>
								<polygon id="Fill-61" fill="#1B4175" points="33.9016 86.0124 37.4016 86.0124 37.4016 82.5144 33.9016 82.5144"></polygon>
								<polygon id="Fill-62" fill="#1B4175" points="27.4286 88.2164 30.9276 88.2164 30.9276 84.7184 27.4286 84.7184"></polygon>
								<polygon id="Fill-63" fill="#1B4175" points="13.7726 70.1564 17.2726 70.1564 17.2726 66.6574 13.7726 66.6574"></polygon>
								<polygon id="Fill-64" fill="#1B4175" points="86.6016 42.9024 90.1006 42.9024 90.1006 39.4024 86.6016 39.4024"></polygon>
								<polygon id="Fill-65" fill="#1B4175" points="73.6536 54.5084 77.2986 54.5084 77.2986 50.8654 73.6536 50.8654"></polygon>
								<polygon id="Fill-66" fill="#1B4175" points="106.4076 38.0474 109.9046 38.0474 109.9046 34.5474 106.4076 34.5474"></polygon>
								<polygon id="Fill-67" fill="#1B4175" points="83.0196 7.5304 86.5186 7.5304 86.5186 4.0304 83.0196 4.0304"></polygon>
								<polygon id="Fill-68" fill="#1B4175" points="52.3336 35.0454 55.8336 35.0454 55.8336 31.5464 52.3336 31.5464"></polygon>
								<polygon id="Fill-69" fill="#1B4175" points="11.5076 79.5714 15.0066 79.5714 15.0066 76.0724 11.5076 76.0724"></polygon>
								<polygon id="Fill-70" fill="#1B4175" points="17.3336 75.6544 20.8326 75.6544 20.8326 72.1554 17.3336 72.1554"></polygon>
								<polygon id="Fill-71" fill="#1B4175" points="91.7786 47.4944 95.2786 47.4944 95.2786 43.9954 91.7786 43.9954"></polygon>
								<polygon id="Fill-72" fill="#1B4175" points="31.1676 104.0104 34.6666 104.0104 34.6666 100.5114 31.1676 100.5114"></polygon>
								<polygon id="Fill-73" fill="#1B4175" points="69.7706 37.4004 73.2686 37.4004 73.2686 33.9004 69.7706 33.9004"></polygon>
								<polygon id="Fill-74" fill="#1B4175" points="40.0766 31.2224 43.5756 31.2224 43.5756 27.7234 40.0766 27.7234"></polygon>
								<polygon id="Fill-75" fill="#1B4175" points="40.0696 45.1014 43.5696 45.1014 43.5696 41.6014 40.0696 41.6014"></polygon>
								<polygon id="Fill-76" fill="#1B4175" points="46.7246 31.2324 50.2236 31.2324 50.2236 27.7324 46.7246 27.7324"></polygon>
								<polygon id="Fill-77" fill="#1B4175" points="58.6426 27.0754 62.1416 27.0754 62.1416 23.5764 58.6426 23.5764"></polygon>
								<polygon id="Fill-78" fill="#1B4175" points="35.4986 31.2324 38.9976 31.2324 38.9976 27.7284 35.4986 27.7284"></polygon>
							</g>
							<g id="subline" transform="translate(46.493000, 99.103500)" fill="#EE7723">
								<path d="M115.509,18.9413 C115.509,18.5523 115.241,18.3633 114.902,18.3633 C114.543,18.3633 114.295,18.5733 114.295,18.9413 C114.295,19.2993 114.543,19.5193 114.902,19.5193 C115.28,19.5193 115.509,19.2993 115.509,18.9413 L115.509,18.9413 Z M114.036,12.1453 L113.029,12.1453 L111.324,17.7363 C111.254,17.9643 111.207,18.3343 111.207,18.4933 L111.136,18.4933 C111.136,18.3343 111.086,17.9643 111.015,17.7363 L109.312,12.1453 L108.276,12.1453 L110.558,19.4513 L111.753,19.4513 L114.036,12.1453 Z M105.166,18.9413 C105.166,18.5523 104.9,18.3633 104.559,18.3633 C104.2,18.3633 103.952,18.5733 103.952,18.9413 C103.952,19.2993 104.2,19.5193 104.559,19.5193 C104.939,19.5193 105.166,19.2993 105.166,18.9413 L105.166,18.9413 Z M101.699,16.3813 C101.699,16.3813 100.225,16.4003 99.488,16.4223 C99.517,15.1263 99.946,14.7163 100.673,14.7163 C101.332,14.7163 101.71,15.1063 101.71,15.9533 C101.71,16.0123 101.71,16.2013 101.699,16.3813 L101.699,16.3813 Z M102.457,19.2023 L102.298,18.4133 C101.282,18.7313 100.983,18.7533 100.763,18.7533 C99.876,18.7533 99.477,18.3743 99.477,17.0193 C100.515,16.9883 101.521,16.9683 102.547,16.9503 C102.547,16.9503 102.576,16.2613 102.576,16.0913 C102.576,14.7073 101.86,14.0603 100.695,14.0603 C99.327,14.0603 98.542,14.9473 98.542,16.9293 C98.542,18.6923 99.239,19.5493 100.763,19.5493 C101.122,19.5493 101.58,19.4603 102.457,19.2023 L102.457,19.2023 Z M94.884,19.4513 L94.884,15.2353 C94.884,14.3493 94.406,14.0603 93.659,14.0603 C93.112,14.0603 92.752,14.1603 91.796,14.6163 L91.727,14.6163 L91.727,14.1603 L90.839,14.1603 L90.839,19.4513 L91.727,19.4513 L91.727,15.3053 C92.315,15.0163 92.863,14.8863 93.34,14.8863 C93.899,14.8863 93.999,15.0563 93.999,15.4753 L93.999,19.4513 L94.884,19.4513 Z M88.34,16.3813 C88.34,16.3813 86.864,16.4003 86.126,16.4223 C86.158,15.1263 86.584,14.7163 87.314,14.7163 C87.969,14.7163 88.348,15.1063 88.348,15.9533 C88.348,16.0123 88.348,16.2013 88.34,16.3813 L88.34,16.3813 Z M89.096,19.2023 L88.936,18.4133 C87.92,18.7313 87.62,18.7533 87.402,18.7533 C86.515,18.7533 86.117,18.3743 86.117,17.0193 C87.154,16.9883 88.159,16.9683 89.185,16.9503 C89.185,16.9503 89.215,16.2613 89.215,16.0913 C89.215,14.7073 88.497,14.0603 87.332,14.0603 C85.967,14.0603 85.181,14.9473 85.181,16.9293 C85.181,18.6923 85.877,19.5493 87.402,19.5493 C87.761,19.5493 88.219,19.4603 89.096,19.2023 L89.096,19.2023 Z M83.557,19.4513 L83.557,11.6983 L82.668,11.8273 L82.668,19.4513 L83.557,19.4513 Z M79.83,18.5343 C79.202,18.7723 78.803,18.8623 78.534,18.8623 C77.939,18.8623 77.717,18.6433 77.717,18.0853 C77.717,17.8243 77.787,17.5483 77.976,17.3373 L79.83,17.1473 L79.83,18.5343 Z M80.677,19.4513 L80.677,15.2053 C80.677,14.3283 80.249,14.0603 79.392,14.0603 C78.843,14.0603 78.066,14.1793 77.179,14.4373 L77.359,15.2143 C78.105,14.9853 78.894,14.8563 79.281,14.8563 C79.662,14.8563 79.83,14.9973 79.83,15.3143 L79.83,16.5303 L78.225,16.7093 C77.408,16.8003 76.842,17.2083 76.842,18.1553 C76.842,19.1123 77.328,19.5493 78.196,19.5493 C78.486,19.5493 78.904,19.5003 79.8,19.0623 L79.87,19.0623 L79.92,19.4513 L80.677,19.4513 Z M75.816,11.7593 C75.665,11.7173 75.396,11.6983 75.266,11.6983 C74.191,11.6983 73.605,12.3463 73.605,13.5013 L73.605,14.1603 L72.855,14.1603 L72.855,14.9373 L73.605,14.9373 L73.605,19.4513 L74.489,19.4513 L74.489,14.9373 L75.824,14.9373 L75.824,14.1603 L74.489,14.1603 L74.489,13.2923 C74.489,12.7043 74.739,12.5153 75.256,12.5153 C75.386,12.5153 75.554,12.5253 75.754,12.5633 L75.816,11.7593 Z M71.719,19.1313 L71.55,18.3453 C70.734,18.6923 70.505,18.7123 70.343,18.7123 C70.134,18.7123 70.035,18.6313 70.035,18.4043 L70.035,14.9373 L71.57,14.9373 L71.57,14.1603 L70.035,14.1603 L70.035,12.8333 L69.15,13.0033 L69.15,14.1603 L68.411,14.1603 L68.411,14.9373 L69.15,14.9373 L69.15,18.4133 C69.15,19.2023 69.448,19.5493 70.174,19.5493 C70.473,19.5493 70.762,19.5193 71.719,19.1313 L71.719,19.1313 Z M67.205,17.9643 C67.205,17.2683 66.819,16.8683 66.271,16.6613 L65.443,16.3403 C64.795,16.0823 64.646,15.9933 64.646,15.6043 C64.646,15.0363 65.053,14.8063 65.572,14.8063 C65.862,14.8063 66.1,14.8373 66.867,14.9973 L67.027,14.2083 C66.428,14.0993 65.95,14.0603 65.642,14.0603 C64.567,14.0603 63.778,14.6473 63.778,15.7243 C63.778,16.3403 64.116,16.7093 64.715,16.9293 L65.523,17.2373 C66.151,17.4773 66.34,17.6483 66.34,18.0853 C66.34,18.5923 65.991,18.8023 65.462,18.8023 C65.154,18.8023 64.874,18.7623 63.898,18.4933 L63.719,19.2603 C64.595,19.5003 64.994,19.5493 65.383,19.5493 C66.469,19.5493 67.205,19.0223 67.205,17.9643 L67.205,17.9643 Z M61.607,16.3813 C61.607,16.3813 60.131,16.4003 59.393,16.4223 C59.423,15.1263 59.853,14.7163 60.58,14.7163 C61.238,14.7163 61.616,15.1063 61.616,15.9533 C61.616,16.0123 61.616,16.2013 61.607,16.3813 L61.607,16.3813 Z M62.364,19.2023 L62.204,18.4133 C61.189,18.7313 60.889,18.7533 60.669,18.7533 C59.783,18.7533 59.384,18.3743 59.384,17.0193 C60.42,16.9883 61.427,16.9683 62.452,16.9503 C62.452,16.9503 62.484,16.2613 62.484,16.0913 C62.484,14.7073 61.766,14.0603 60.599,14.0603 C59.236,14.0603 58.448,14.9473 58.448,16.9293 C58.448,18.6923 59.144,19.5493 60.669,19.5493 C61.03,19.5493 61.488,19.4603 62.364,19.2023 L62.364,19.2023 Z M57.59,12.1453 L56.655,12.1453 L55.609,17.2683 C55.549,17.5663 55.468,18.0763 55.468,18.3253 L55.4,18.3253 C55.388,18.0763 55.309,17.5773 55.219,17.2683 L53.855,12.6253 L52.788,12.6253 L51.452,17.2683 C51.382,17.5183 51.253,18.0763 51.244,18.3253 L51.174,18.3253 C51.174,18.0763 51.124,17.6363 51.045,17.2683 L50.008,12.1453 L49.012,12.1453 L50.568,19.4513 L51.642,19.4513 L53.087,14.6163 C53.166,14.3383 53.256,13.9103 53.266,13.6603 L53.337,13.6603 C53.346,13.9103 53.435,14.3383 53.515,14.6163 L54.96,19.4513 L56.047,19.4513 L57.59,12.1453 Z M46.133,17.1783 L48.165,17.1783 L48.165,16.4313 L46.133,16.4313 L46.133,17.1783 Z M44.926,19.4513 L44.926,15.2353 C44.926,14.3493 44.448,14.0603 43.702,14.0603 C43.154,14.0603 42.794,14.1603 41.837,14.6163 L41.768,14.6163 L41.768,14.1603 L40.881,14.1603 L40.881,19.4513 L41.768,19.4513 L41.768,15.3053 C42.357,15.0163 42.905,14.8863 43.382,14.8863 C43.941,14.8863 44.039,15.0563 44.039,15.4753 L44.039,19.4513 L44.926,19.4513 Z M39.007,12.5363 C39.007,12.1763 38.769,11.9973 38.45,11.9973 C38.101,11.9973 37.883,12.1963 37.883,12.5363 C37.883,12.8833 38.101,13.0823 38.45,13.0823 C38.799,13.0823 39.007,12.8743 39.007,12.5363 L39.007,12.5363 Z M38.001,19.4523 L38.887,19.4523 L38.887,14.1603 L38.001,14.1603 L38.001,19.4523 Z M35.5,16.3813 C35.5,16.3813 34.027,16.4003 33.289,16.4223 C33.32,15.1263 33.748,14.7163 34.474,14.7163 C35.133,14.7163 35.512,15.1063 35.512,15.9533 C35.512,16.0123 35.512,16.2013 35.5,16.3813 L35.5,16.3813 Z M36.259,19.2023 L36.1,18.4133 C35.083,18.7313 34.784,18.7533 34.566,18.7533 C33.678,18.7533 33.28,18.3743 33.28,17.0193 C34.317,16.9883 35.321,16.9683 36.348,16.9503 C36.348,16.9503 36.377,16.2613 36.377,16.0913 C36.377,14.7073 35.661,14.0603 34.495,14.0603 C33.13,14.0603 32.342,14.9473 32.342,16.9293 C32.342,18.6923 33.039,19.5493 34.566,19.5493 C34.923,19.5493 35.382,19.4603 36.259,19.2023 L36.259,19.2023 Z M30.738,19.4513 L30.738,15.2353 C30.738,14.3783 30.291,14.0603 29.514,14.0603 C29.035,14.0603 28.647,14.1293 27.651,14.6163 L27.58,14.6163 L27.58,11.6983 L26.694,11.8273 L26.694,19.4513 L27.58,19.4513 L27.58,15.3053 C28.178,15.0163 28.716,14.8863 29.195,14.8863 C29.752,14.8863 29.851,15.0563 29.851,15.4753 L29.851,19.4513 L30.738,19.4513 Z M25.36,14.1083 C25.228,14.0803 25.119,14.0603 25.039,14.0603 C24.721,14.0603 24.461,14.1493 23.765,14.7163 L23.704,14.7163 L23.704,14.1603 L22.819,14.1603 L22.819,19.4513 L23.704,19.4513 L23.704,15.4443 C24.242,15.0763 24.482,14.9673 24.88,14.9673 C24.989,14.9673 25.119,14.9973 25.249,15.0363 L25.36,14.1083 Z M19.939,18.3343 C19.2,18.7123 18.912,18.7723 18.613,18.7723 C17.955,18.7723 17.496,18.4743 17.496,16.8793 C17.496,15.1263 18.125,14.8063 18.833,14.8063 C19.101,14.8063 19.53,14.8673 19.939,14.9973 L19.939,18.3343 Z M20.824,19.4513 L20.824,11.6983 L19.939,11.8273 L19.939,14.3083 C19.401,14.1203 18.951,14.0603 18.663,14.0603 C17.556,14.0603 16.54,14.7073 16.54,16.8683 C16.54,19.0313 17.347,19.5493 18.383,19.5493 C18.762,19.5493 19.16,19.4513 19.908,19.0223 L19.977,19.0223 L19.977,19.4513 L20.824,19.4513 Z M15.573,14.1083 C15.446,14.0803 15.336,14.0603 15.255,14.0603 C14.937,14.0603 14.677,14.1493 13.981,14.7163 L13.919,14.7163 L13.919,14.1603 L13.033,14.1603 L13.033,19.4513 L13.919,19.4513 L13.919,15.4443 C14.458,15.0763 14.696,14.9673 15.095,14.9673 C15.205,14.9673 15.336,14.9973 15.464,15.0363 L15.573,14.1083 Z M10.463,16.8093 C10.463,18.4043 10.004,18.8113 9.148,18.8113 C8.28,18.8113 7.832,18.3943 7.832,16.8093 C7.832,15.1753 8.321,14.7973 9.148,14.7973 C9.934,14.7973 10.463,15.1263 10.463,16.8093 L10.463,16.8093 Z M11.409,16.8093 C11.409,14.7163 10.433,14.0603 9.157,14.0603 C7.802,14.0603 6.885,14.7863 6.885,16.8093 C6.885,18.7823 7.763,19.5493 9.148,19.5493 C10.531,19.5493 11.409,18.7723 11.409,16.8093 L11.409,16.8093 Z M5.172,19.4513 L5.172,12.1453 L4.265,12.1453 L4.265,17.1583 C4.265,17.3983 4.276,17.6653 4.295,17.9243 L4.236,17.9243 C4.135,17.6363 4.027,17.3873 3.897,17.1583 L1.107,12.1453 L2.73558953e-12,12.1453 L2.73558953e-12,19.4513 L0.927,19.4513 L0.927,14.3183 C0.927,14.0383 0.908,13.7803 0.888,13.5213 L0.947,13.5213 C1.028,13.7693 1.136,14.0503 1.285,14.3183 L4.135,19.4513 L5.172,19.4513 Z" id="nrwev"></path>
								<path d="M114.6232,7.434 L114.4532,6.647 C113.6372,6.997 113.4062,7.017 113.2472,7.017 C113.0392,7.017 112.9392,6.936 112.9392,6.707 L112.9392,3.238 L114.4732,3.238 L114.4732,2.461 L112.9392,2.461 L112.9392,1.138 L112.0532,1.308 L112.0532,2.461 L111.3142,2.461 L111.3142,3.238 L112.0532,3.238 L112.0532,6.717 C112.0532,7.503 112.3522,7.852 113.0782,7.852 C113.3772,7.852 113.6672,7.824 114.6232,7.434 L114.6232,7.434 Z M110.2592,0.061 C110.1082,0.021 109.8402,-5.5067062e-14 109.7102,-5.5067062e-14 C108.6352,-5.5067062e-14 108.0472,0.648 108.0472,1.805 L108.0472,2.461 L107.2992,2.461 L107.2992,3.238 L108.0472,3.238 L108.0472,7.753 L108.9342,7.753 L108.9342,3.238 L110.2682,3.238 L110.2682,2.461 L108.9342,2.461 L108.9342,1.595 C108.9342,1.008 109.1832,0.818 109.7002,0.818 C109.8302,0.818 109.9992,0.827 110.1982,0.868 L110.2592,0.061 Z M104.8192,6.836 C104.1902,7.075 103.7922,7.166 103.5222,7.166 C102.9262,7.166 102.7052,6.947 102.7052,6.388 C102.7052,6.13 102.7752,5.849 102.9652,5.64 L104.8192,5.452 L104.8192,6.836 Z M105.6642,7.753 L105.6642,3.508 C105.6642,2.631 105.2382,2.361 104.3802,2.361 C103.8322,2.361 103.0542,2.483 102.1692,2.741 L102.3482,3.518 C103.0942,3.29 103.8812,3.159 104.2692,3.159 C104.6482,3.159 104.8192,3.299 104.8192,3.618 L104.8192,4.833 L103.2162,5.013 C102.3972,5.103 101.8292,5.512 101.8292,6.457 C101.8292,7.415 102.3162,7.852 103.1842,7.852 C103.4742,7.852 103.8922,7.803 104.7872,7.364 L104.8572,7.364 L104.9082,7.753 L105.6642,7.753 Z M100.2452,7.753 L100.2452,3.538 C100.2452,2.682 99.7972,2.361 99.0192,2.361 C98.5422,2.361 98.1512,2.431 97.1572,2.92 L97.0872,2.92 L97.0872,-5.5067062e-14 L96.1992,0.13 L96.1992,7.753 L97.0872,7.753 L97.0872,3.608 C97.6852,3.317 98.2222,3.189 98.7002,3.189 C99.2592,3.189 99.3602,3.359 99.3602,3.777 L99.3602,7.753 L100.2452,7.753 Z M94.7352,7.554 L94.5652,6.737 C93.8572,7.017 93.6402,7.056 93.3802,7.056 C92.5612,7.056 92.1552,6.647 92.1552,5.093 C92.1552,3.668 92.4822,3.159 93.3892,3.159 C93.6282,3.159 93.9292,3.189 94.4662,3.359 L94.6352,2.543 C93.9782,2.392 93.6402,2.361 93.3012,2.361 C91.9652,2.361 91.2072,3.189 91.2072,5.103 C91.2072,7.017 91.9252,7.852 93.3012,7.852 C93.6182,7.852 93.9672,7.803 94.7352,7.554 L94.7352,7.554 Z M90.0122,6.267 C90.0122,5.569 89.6242,5.172 89.0752,4.962 L88.2492,4.644 C87.6012,4.386 87.4522,4.295 87.4522,3.906 C87.4522,3.339 87.8622,3.11 88.3782,3.11 C88.6682,3.11 88.9062,3.138 89.6742,3.299 L89.8332,2.513 C89.2352,2.402 88.7562,2.361 88.4482,2.361 C87.3722,2.361 86.5852,2.95 86.5852,4.026 C86.5852,4.644 86.9232,5.013 87.5212,5.232 L88.3292,5.542 C88.9562,5.78 89.1452,5.949 89.1452,6.388 C89.1452,6.896 88.7972,7.106 88.2692,7.106 C87.9602,7.106 87.6812,7.066 86.7032,6.796 L86.5232,7.563 C87.4002,7.803 87.8002,7.852 88.1892,7.852 C89.2742,7.852 90.0122,7.324 90.0122,6.267 L90.0122,6.267 Z M84.9202,7.753 L84.9202,-5.5067062e-14 L84.0352,0.13 L84.0352,7.753 L84.9202,7.753 Z M82.0412,7.753 L82.0412,-5.5067062e-14 L81.1552,0.13 L81.1552,7.753 L82.0412,7.753 Z M78.6532,4.684 C78.6532,4.684 77.1792,4.705 76.4422,4.723 C76.4722,3.428 76.8992,3.021 77.6272,3.021 C78.2862,3.021 78.6632,3.408 78.6632,4.255 C78.6632,4.315 78.6632,4.505 78.6532,4.684 L78.6532,4.684 Z M79.4112,7.503 L79.2522,6.717 C78.2352,7.035 77.9372,7.056 77.7182,7.056 C76.8312,7.056 76.4322,6.677 76.4322,5.322 C77.4692,5.293 78.4752,5.273 79.5012,5.252 C79.5012,5.252 79.5312,4.565 79.5312,4.395 C79.5312,3.01 78.8122,2.361 77.6472,2.361 C76.2842,2.361 75.4952,3.248 75.4952,5.232 C75.4952,6.997 76.1922,7.852 77.7182,7.852 C78.0762,7.852 78.5342,7.764 79.4112,7.503 L79.4112,7.503 Z M74.2992,6.267 C74.2992,5.569 73.9122,5.172 73.3632,4.962 L72.5372,4.644 C71.8892,4.386 71.7392,4.295 71.7392,3.906 C71.7392,3.339 72.1462,3.11 72.6662,3.11 C72.9542,3.11 73.1942,3.138 73.9622,3.299 L74.1202,2.513 C73.5212,2.402 73.0442,2.361 72.7352,2.361 C71.6602,2.361 70.8722,2.95 70.8722,4.026 C70.8722,4.644 71.2112,5.013 71.8092,5.232 L72.6162,5.542 C73.2442,5.78 73.4332,5.949 73.4332,6.388 C73.4332,6.896 73.0852,7.106 72.5572,7.106 C72.2472,7.106 71.9672,7.066 70.9922,6.796 L70.8112,7.563 C71.6882,7.803 72.0882,7.852 72.4762,7.852 C73.5622,7.852 74.2992,7.324 74.2992,6.267 L74.2992,6.267 Z M68.7012,4.684 C68.7012,4.684 67.2262,4.705 66.4882,4.723 C66.5192,3.428 66.9472,3.021 67.6752,3.021 C68.3322,3.021 68.7102,3.408 68.7102,4.255 C68.7102,4.315 68.7102,4.505 68.7012,4.684 L68.7012,4.684 Z M69.4582,7.503 L69.2982,6.717 C68.2822,7.035 67.9822,7.056 67.7632,7.056 C66.8772,7.056 66.4772,6.677 66.4772,5.322 C67.5162,5.293 68.5202,5.273 69.5482,5.252 C69.5482,5.252 69.5782,4.565 69.5782,4.395 C69.5782,3.01 68.8602,2.361 67.6942,2.361 C66.3292,2.361 65.5412,3.248 65.5412,5.232 C65.5412,6.997 66.2392,7.852 67.7632,7.852 C68.1222,7.852 68.5812,7.764 69.4582,7.503 L69.4582,7.503 Z M63.0802,4.106 C63.0802,4.814 62.8012,5.163 62.0152,5.163 C61.3072,5.163 60.9772,4.924 60.9772,4.106 C60.9772,3.317 61.3162,3.021 62.0152,3.021 C62.7132,3.021 63.0802,3.279 63.0802,4.106 L63.0802,4.106 Z M63.7192,8.241 C63.7192,8.969 63.0612,9.318 62.0942,9.318 C61.2182,9.318 60.9082,9.097 60.9082,8.58 C60.9082,8.32 60.9592,8.042 61.2882,7.604 L63.0102,7.663 C63.4992,7.684 63.7192,7.753 63.7192,8.241 L63.7192,8.241 Z M64.5372,8.17 C64.5372,7.185 64.0072,6.916 63.1802,6.886 L61.3862,6.827 C61.0972,6.817 61.0782,6.796 61.0782,6.607 C61.0782,6.498 61.1782,6.088 61.2972,5.73 C61.5172,5.8 61.7662,5.819 62.0152,5.819 C63.1802,5.819 63.9382,5.362 63.9382,4.185 C63.9382,3.818 63.8392,3.428 63.5692,3.179 L63.5692,3.11 L64.3542,3.11 C64.3862,2.891 64.4262,2.682 64.4652,2.461 L62.8222,2.461 C62.5722,2.402 62.2852,2.361 62.0152,2.361 C60.7982,2.361 60.1312,3.021 60.1312,4.106 C60.1312,4.844 60.3512,5.193 60.6892,5.472 C60.4302,6.279 60.3102,6.806 60.3102,7.035 C60.3102,7.284 60.4612,7.424 60.7002,7.495 L60.7002,7.563 C60.2412,8.032 60.1122,8.39 60.1122,8.799 C60.1122,9.597 60.6492,10.044 62.0052,10.044 C63.6482,10.044 64.5372,9.179 64.5372,8.17 L64.5372,8.17 Z M58.8762,6.267 C58.8762,5.569 58.4882,5.172 57.9392,4.962 L57.1122,4.644 C56.4652,4.386 56.3162,4.295 56.3162,3.906 C56.3162,3.339 56.7252,3.11 57.2422,3.11 C57.5312,3.11 57.7692,3.138 58.5372,3.299 L58.6962,2.513 C58.0992,2.402 57.6212,2.361 57.3112,2.361 C56.2352,2.361 55.4492,2.95 55.4492,4.026 C55.4492,4.644 55.7872,5.013 56.3852,5.232 L57.1912,5.542 C57.8192,5.78 58.0092,5.949 58.0092,6.388 C58.0092,6.896 57.6612,7.106 57.1332,7.106 C56.8252,7.106 56.5452,7.066 55.5662,6.796 L55.3882,7.563 C56.2652,7.803 56.6642,7.852 57.0532,7.852 C58.1392,7.852 58.8762,7.324 58.8762,6.267 L58.8762,6.267 Z M53.7852,7.753 L53.7852,2.461 L52.8972,2.461 L52.8972,6.607 C52.3202,6.916 51.8022,7.035 51.3242,7.035 C50.7662,7.035 50.6672,6.856 50.6672,6.447 L50.6672,2.461 L49.7782,2.461 L49.7782,6.666 C49.7782,7.503 50.2082,7.852 51.0152,7.852 C51.4532,7.852 51.9312,7.764 52.8782,7.293 L52.9382,7.293 L52.9382,7.753 L53.7852,7.753 Z M46.9502,6.836 C46.3212,7.075 45.9222,7.166 45.6542,7.166 C45.0572,7.166 44.8372,6.947 44.8372,6.388 C44.8372,6.13 44.9072,5.849 45.0962,5.64 L46.9502,5.452 L46.9502,6.836 Z M47.7962,7.753 L47.7962,3.508 C47.7962,2.631 47.3682,2.361 46.5112,2.361 C45.9632,2.361 45.1852,2.483 44.2992,2.741 L44.4782,3.518 C45.2262,3.29 46.0132,3.159 46.3992,3.159 C46.7812,3.159 46.9502,3.299 46.9502,3.618 L46.9502,4.833 L45.3462,5.013 C44.5282,5.103 43.9602,5.512 43.9602,6.457 C43.9602,7.415 44.4492,7.852 45.3142,7.852 C45.6042,7.852 46.0212,7.803 46.9192,7.364 L46.9892,7.364 L47.0392,7.753 L47.7962,7.753 Z M42.3772,7.753 L42.3772,3.538 C42.3772,2.682 41.9282,2.361 41.1502,2.361 C40.6732,2.361 40.2832,2.431 39.2872,2.92 L39.2172,2.92 L39.2172,-5.5067062e-14 L38.3302,0.13 L38.3302,7.753 L39.2172,7.753 L39.2172,3.608 C39.8142,3.317 40.3522,3.189 40.8312,3.189 C41.3892,3.189 41.4892,3.359 41.4892,3.777 L41.4892,7.753 L42.3772,7.753 Z M36.3582,7.753 L36.3582,3.538 C36.3582,2.651 35.8812,2.361 35.1332,2.361 C34.5842,2.361 34.2252,2.461 33.2692,2.92 L33.2002,2.92 L33.2002,2.461 L32.3122,2.461 L32.3122,7.753 L33.2002,7.753 L33.2002,3.608 C33.7882,3.317 34.3362,3.189 34.8132,3.189 C35.3722,3.189 35.4712,3.359 35.4712,3.777 L35.4712,7.753 L36.3582,7.753 Z M29.8112,4.684 C29.8112,4.684 28.3372,4.705 27.6002,4.723 C27.6302,3.428 28.0582,3.021 28.7862,3.021 C29.4442,3.021 29.8222,3.408 29.8222,4.255 C29.8222,4.315 29.8222,4.505 29.8112,4.684 L29.8112,4.684 Z M30.5692,7.503 L30.4102,6.717 C29.3942,7.035 29.0942,7.056 28.8752,7.056 C27.9882,7.056 27.5902,6.677 27.5902,5.322 C28.6272,5.293 29.6332,5.273 30.6592,5.252 C30.6592,5.252 30.6882,4.565 30.6882,4.395 C30.6882,3.01 29.9712,2.361 28.8072,2.361 C27.4392,2.361 26.6542,3.248 26.6542,5.232 C26.6542,6.997 27.3502,7.852 28.8752,7.852 C29.2332,7.852 29.6922,7.764 30.5692,7.503 L30.5692,7.503 Z M25.6382,7.753 L25.6382,6.896 C25.5872,6.907 25.5082,6.916 25.4372,6.916 C25.2692,6.916 25.2092,6.856 25.0892,6.647 L23.8842,4.525 L25.6962,2.492 L24.7402,2.443 L23.0282,4.337 C22.8772,4.496 22.6592,4.804 22.5592,5.032 L22.4992,5.032 L22.4992,-5.5067062e-14 L21.6322,0.13 L21.6322,7.753 L22.4992,7.753 L22.4992,6.109 L23.3062,5.202 L24.4122,7.166 C24.6612,7.604 24.8602,7.773 25.3282,7.773 C25.4292,7.773 25.5672,7.764 25.6382,7.753 L25.6382,7.753 Z M19.6592,7.753 L19.6592,3.538 C19.6592,2.651 19.1812,2.361 18.4342,2.361 C17.8862,2.361 17.5262,2.461 16.5702,2.92 L16.5002,2.92 L16.5002,2.461 L15.6132,2.461 L15.6132,7.753 L16.5002,7.753 L16.5002,3.608 C17.0882,3.317 17.6362,3.189 18.1142,3.189 C18.6732,3.189 18.7712,3.359 18.7712,3.777 L18.7712,7.753 L19.6592,7.753 Z M12.7732,6.836 C12.1452,7.075 11.7482,7.166 11.4782,7.166 C10.8802,7.166 10.6622,6.947 10.6622,6.388 C10.6622,6.13 10.7302,5.849 10.9212,5.64 L12.7732,5.452 L12.7732,6.836 Z M13.6212,7.753 L13.6212,3.508 C13.6212,2.631 13.1922,2.361 12.3352,2.361 C11.7882,2.361 11.0112,2.483 10.1232,2.741 L10.3032,3.518 C11.0502,3.29 11.8382,3.159 12.2262,3.159 C12.6042,3.159 12.7732,3.299 12.7732,3.618 L12.7732,4.833 L11.1702,5.013 C10.3522,5.103 9.7852,5.512 9.7852,6.457 C9.7852,7.415 10.2722,7.852 11.1412,7.852 C11.4292,7.852 11.8472,7.803 12.7452,7.364 L12.8132,7.364 L12.8642,7.753 L13.6212,7.753 Z M8.9892,2.413 C8.8572,2.382 8.7492,2.361 8.6702,2.361 C8.3502,2.361 8.0912,2.452 7.3932,3.021 L7.3352,3.021 L7.3352,2.461 L6.4472,2.461 L6.4472,7.753 L7.3352,7.753 L7.3352,3.748 C7.8722,3.379 8.1122,3.269 8.5092,3.269 C8.6202,3.269 8.7492,3.299 8.8792,3.339 L8.9892,2.413 Z M5.0212,6.865 C4.9622,6.877 4.8832,6.886 4.8042,6.886 C4.5632,6.886 4.4852,6.806 4.3452,6.547 L2.6612,3.487 L5.0832,0.509 L5.0832,0.449 L4.0172,0.449 L1.5642,3.56 C1.3552,3.827 1.1562,4.125 1.0662,4.295 L1.0072,4.295 L1.0072,0.449 L0.0102,0.449 L0.0102,7.753 L1.0072,7.753 L1.0072,5.622 L2.0342,4.355 L3.5092,7.017 C3.8072,7.554 4.0452,7.783 4.5842,7.783 C4.7132,7.783 4.8122,7.773 4.9732,7.753 L5.0212,6.865 Z" id="krankenhausgestellschaft"></path>
							</g>
							<g id="kgnw" transform="translate(43.240000, 60.774000)">
								<path d="M120.2795,2.6853 L114.8915,2.6853 L111.1725,22.1533 C110.9205,23.4903 110.7115,25.5793 110.7115,26.6243 L110.3355,26.6243 C110.3355,25.5793 110.0435,23.4063 109.7105,22.1533 L104.9045,4.5633 L98.9305,4.5633 L94.2525,22.1533 C93.8755,23.5743 93.4165,25.5793 93.4165,26.6243 L93.0805,26.6243 C93.0805,25.5793 92.8725,23.5743 92.6205,22.1533 L89.0295,2.6853 L83.3055,2.6853 L89.5705,33.3093 L95.7555,33.3093 L101.0195,14.7173 C101.3555,13.5463 101.6035,11.7513 101.6035,10.6653 L101.9395,10.6653 C101.9395,11.7513 102.2325,13.5893 102.5655,14.7173 L107.8305,33.3093 L114.0135,33.3093 L120.2795,2.6853 Z M79.3775,33.3093 L79.3775,2.6853 L74.1555,2.6853 L74.1555,20.5653 C74.1555,21.6103 74.2405,22.8643 74.3665,23.9503 L73.9905,23.9503 C73.6555,22.7803 73.1545,21.5683 72.6105,20.5653 L62.9185,2.6853 L56.7765,2.6853 L56.7765,33.3093 L61.9985,33.3093 L61.9985,14.4663 C61.9985,13.2963 61.9575,12.0843 61.8315,10.9573 L62.2085,10.9573 C62.4585,12.0843 62.9595,13.3803 63.5445,14.4663 L73.7395,33.3093 L79.3775,33.3093 Z" id="Fill-83" fill="#EE7723"></path>
								<path d="M16.6829,14.7122 L26.2139,2.4572 L26.2139,2.1182 L20.0879,2.1182 L11.4489,13.8612 C10.3859,15.3092 9.6609,16.6712 9.3629,17.4362 L9.0239,17.4362 L9.0239,2.1182 L5.6349,2.1182 L5.6349,5.1702 L3.1939,5.1702 L3.1939,33.3092 L9.0239,33.3092 L9.0239,25.0522 L13.0659,19.8622 L18.0879,29.3082 C19.8749,32.6272 20.8969,33.4782 23.6619,33.4782 C24.3859,33.4782 25.1939,33.3932 25.9169,33.3092 L25.9169,28.1602 C25.6189,28.2032 25.3639,28.2452 25.0229,28.2452 C24.0869,28.2452 23.7889,28.0732 23.2359,27.0112 L16.6829,14.7122 Z M45.7029,20.2462 L45.7029,28.0332 C43.6599,28.5422 42.3839,28.7122 41.1079,28.7122 C36.3839,28.7122 34.1709,26.7132 34.1709,17.6062 C34.1709,8.4152 36.5539,6.7552 41.8289,6.7552 C43.7449,6.7552 45.5749,7.0532 49.6169,8.5002 L50.8519,3.2662 C46.3839,1.9462 44.0439,1.6912 41.4899,1.6912 C32.2989,1.6912 28.0009,6.3302 28.0009,17.6902 C28.0009,28.4992 31.7039,33.7332 40.8949,33.7332 C43.6599,33.7332 47.4059,33.0512 51.1919,31.7772 L51.1919,15.3512 L40.6819,15.3512 L40.6819,20.2462 L45.7029,20.2462 Z" id="Fill-86" fill="#1B4175"></path>
								<polygon id="rectangle" fill="#1B4175" points="2.84217094e-12 3.654 3.653 3.654 3.653 2.22044605e-16 2.84217094e-12 2.22044605e-16"></polygon>
							</g>
						</g>
					</g>
				</g>
			</svg>