<svg xmlns="http://www.w3.org/2000/svg" width="400" height="130" viewBox="0 0 400 130"><path fill="#131211" d="M159.922 77.044h1.666l-9.6 9.448 10.199 10.177h-1.64l-9.418-9.369-.521.52v8.85h-1.249V77.044h1.249v9.161l9.314-9.161zm4.76 9.161h.051c.469-1.092 1.324-1.82 2.599-1.82.47 0 .859.104 1.277.285l-.625 1.043c-.287-.158-.521-.236-.833-.236-2.625 0-2.468 3.28-2.468 5.05v6.143h-1.172V84.645h1.172v1.56zm16.072 10.464h-1.164v-2.16h-.052c-.886 1.536-2.811 2.421-4.58 2.421-3.646 0-5.935-2.838-5.935-6.351 0-3.515 2.263-6.194 5.881-6.194 1.85 0 3.619.832 4.634 2.342h.052v-2.082h1.164v12.024zm-10.561-6.09c0 2.759 1.823 5.259 4.738 5.259 3.072 0 4.735-2.5 4.735-5.389 0-2.785-1.898-4.973-4.813-4.973-2.759.001-4.66 2.501-4.66 5.103zm15.19-4.059h.049c.705-1.328 2.006-2.135 3.568-2.135 3.096 0 3.955 1.926 3.955 5.022v7.262h-1.171v-7.262c0-2.159-.26-3.931-2.888-3.931-3.021 0-3.514 2.812-3.514 5.259v5.934h-1.171V84.645h1.171v1.875zm12.203 3.225l4.937-5.101h1.512l-5.041 5.206 6.731 6.818h-1.535l-5.953-6.012-.65.676v5.336h-1.171V75.197h1.171v14.548zm9.385 1.016c-.078 3.046 2.03 5.077 4.814 5.077 1.873 0 3.385-1.12 4.244-2.734l.987.572c-1.093 2.082-3.018 3.254-5.388 3.254-3.565 0-5.831-2.89-5.831-6.3 0-3.356 2.316-6.245 5.831-6.245 3.646 0 5.804 2.915 5.779 6.376h-10.436zm9.264-1.093c-.284-2.213-2.106-4.191-4.58-4.191-2.446 0-4.477 1.926-4.685 4.191h9.265zm4.619-3.148h.052c.703-1.328 2.006-2.135 3.568-2.135 3.095 0 3.954 1.926 3.954 5.022v7.262h-1.17v-7.262c0-2.159-.26-3.931-2.89-3.931-3.02 0-3.515 2.812-3.515 5.259v5.934h-1.161V84.645h1.161v1.875zm12.206-11.323V86.52h.052c.703-1.328 2.006-2.135 3.568-2.135 3.095 0 3.944 1.926 3.944 5.022v7.262h-1.162v-7.262c0-2.159-.26-3.931-2.888-3.931-3.02 0-3.515 2.812-3.515 5.259v5.934h-1.17V75.197h1.171zm21.59 21.472h-1.173v-2.16h-.05c-.886 1.536-2.811 2.421-4.581 2.421-3.645 0-5.934-2.838-5.934-6.351 0-3.515 2.263-6.194 5.88-6.194 1.851 0 3.619.832 4.635 2.342h.05v-2.082h1.173v12.024zm-10.567-6.09c0 2.759 1.822 5.259 4.737 5.259 3.07 0 4.735-2.5 4.735-5.389 0-2.785-1.897-4.973-4.812-4.973-2.76.001-4.66 2.501-4.66 5.103zm22.478-5.934v7.21c0 1.224.024 2.446-.729 3.462-.833 1.092-2.24 1.613-3.593 1.613-1.354 0-2.749-.521-3.584-1.613-.754-1.016-.728-2.238-.728-3.462v-7.21h1.171v6.793c0 2.316.26 4.4 3.141 4.4 2.89 0 3.149-2.084 3.149-4.4v-6.793h1.173zm8.324 2.186c-.392-.833-1.173-1.354-2.109-1.354-1.016 0-2.057.834-2.057 1.874 0 2.891 5.857 1.484 5.857 5.83 0 2.214-1.719 3.749-3.879 3.749-2.003 0-3.644-1.223-4.136-3.176l1.144-.364c.442 1.431 1.405 2.448 2.992 2.448a2.69 2.69 0 002.709-2.708c0-1.484-1.146-1.951-2.344-2.369-1.641-.6-3.515-1.301-3.515-3.332 0-1.821 1.536-3.044 3.281-3.044 1.221 0 2.55.807 3.071 1.926l-1.014.52zm14.902 9.265c0 1.849-.052 3.515-1.197 5.103-1.119 1.535-2.89 2.316-4.79 2.316-3.148 0-5.744-1.848-5.926-5.154h1.173c.128 2.5 2.23 4.061 4.649 4.061 1.512 0 2.969-.52 3.853-1.797.936-1.378 1.067-2.939 1.067-4.554v-1.482h-.054c-1.065 1.43-2.862 2.342-4.685 2.342-3.487 0-5.822-2.942-5.822-6.3 0-3.461 2.465-6.245 5.979-6.245 1.952 0 3.409.832 4.528 2.342h.054v-2.082h1.171v11.45zm-10.558-5.517c0 2.759 1.812 5.259 4.728 5.259 3.071 0 4.738-2.5 4.738-5.389 0-2.785-1.9-4.973-4.816-4.973-2.761.001-4.65 2.501-4.65 5.103zm14.016.182c-.078 3.046 2.029 5.077 4.814 5.077 1.873 0 3.376-1.12 4.235-2.734l.987.572c-1.093 2.082-3.017 3.254-5.38 3.254-3.565 0-5.83-2.89-5.83-6.3 0-3.356 2.316-6.245 5.83-6.245 3.638 0 5.796 2.915 5.771 6.376h-10.427zm9.256-1.093c-.285-2.213-2.106-4.191-4.571-4.191-2.446 0-4.478 1.926-4.685 4.191h9.256zm9.056-2.837c-.392-.833-1.173-1.354-2.111-1.354-1.014 0-2.055.834-2.055 1.874 0 2.891 5.857 1.484 5.857 5.83 0 2.214-1.719 3.749-3.88 3.749-2.002 0-3.643-1.223-4.137-3.176l1.144-.364c.442 1.431 1.407 2.448 2.993 2.448a2.69 2.69 0 002.709-2.708c0-1.484-1.146-1.951-2.343-2.369-1.641-.6-3.515-1.301-3.515-3.332 0-1.821 1.536-3.044 3.279-3.044 1.223 0 2.552.807 3.071 1.926l-1.012.52zm4.706 3.93c-.078 3.046 2.033 5.077 4.807 5.077 1.875 0 3.384-1.12 4.242-2.734l.991.572c-1.095 2.082-3.021 3.254-5.388 3.254-3.56 0-5.822-2.89-5.822-6.3 0-3.356 2.316-6.245 5.822-6.245 3.643 0 5.804 2.915 5.776 6.376h-10.428zm9.258-1.093c-.287-2.213-2.111-4.191-4.582-4.191-2.438 0-4.468 1.926-4.677 4.191h9.259zm5.177 7.001h-1.174V75.197h1.174v21.472zm5.175 0h-1.171V75.197h1.171v21.472zm9.047-9.838c-.39-.833-1.171-1.354-2.107-1.354-1.015 0-2.056.834-2.056 1.874 0 2.891 5.855 1.484 5.855 5.83 0 2.214-1.719 3.749-3.877 3.749-2.006 0-3.638-1.223-4.132-3.176l1.146-.364c.437 1.431 1.397 2.448 2.986 2.448a2.689 2.689 0 002.706-2.708c0-1.484-1.146-1.951-2.341-2.369-1.641-.6-3.506-1.301-3.506-3.332 0-1.821 1.527-3.044 3.269-3.044 1.224 0 2.551.807 3.071 1.926l-1.014.52zm13.923.598c-1.146-1.248-2.525-1.952-4.242-1.952-2.837 0-4.972 2.421-4.972 5.153 0 2.733 2.107 5.208 4.944 5.208 1.719 0 3.333-.834 4.427-2.162v1.588c-1.226 1.066-2.762 1.666-4.375 1.666-3.565 0-6.169-2.785-6.169-6.3 0-3.487 2.654-6.245 6.195-6.245 1.562 0 2.993.469 4.191 1.482v1.562zm4.359-12.232V86.52h.051c.703-1.328 2.006-2.135 3.568-2.135 3.096 0 3.954 1.926 3.954 5.022v7.262h-1.171v-7.262c0-2.159-.261-3.931-2.889-3.931-3.02 0-3.514 2.812-3.514 5.259v5.934h-1.171V75.197h1.172zm22.139 21.472h-1.173v-2.16h-.051c-.886 1.536-2.811 2.421-4.571 2.421-3.646 0-5.936-2.838-5.936-6.351 0-3.515 2.264-6.194 5.882-6.194 1.841 0 3.61.832 4.625 2.342h.051v-2.082h1.173v12.024zm-10.561-6.09c0 2.759 1.823 5.259 4.738 5.259 3.062 0 4.728-2.5 4.728-5.389 0-2.785-1.897-4.973-4.806-4.973-2.759.001-4.66 2.501-4.66 5.103zm15.738 6.09h-1.173V85.738h-1.327v-1.094h1.327v-5.388c0-.885.027-2.161.47-2.94.545-.964 1.587-1.458 2.68-1.458.365 0 .703.051 1.041.181v1.067c-.312-.051-.623-.155-.961-.155-2.032 0-2.057 2.031-2.057 3.54v5.153h3.018v1.094h-3.018v10.931zm6.373 0h-1.171V85.738h-1.327v-1.094h1.327V80.35h1.171v4.295H399v1.094h-2.109v10.93zM199.444 57.44v-8.328h1.24v19.625h-1.24V58.612h-11.92v10.125h-1.25V49.112h1.25v8.328h11.92zm15.914 11.297h-1.17v-2.16h-.053c-.884 1.536-2.811 2.42-4.581 2.42-3.642 0-5.932-2.837-5.932-6.35 0-3.514 2.263-6.195 5.882-6.195 1.847 0 3.615.833 4.631 2.343h.053v-2.082h1.17v12.024zm-10.564-6.09c0 2.758 1.819 5.258 4.733 5.258 3.073 0 4.739-2.5 4.739-5.388 0-2.786-1.9-4.973-4.815-4.973-2.757 0-4.657 2.5-4.657 5.103zm15.734-4.425h.05c.548-1.119 1.746-1.77 3.02-1.77 1.535 0 2.76.78 3.387 2.186.648-1.431 1.974-2.186 3.511-2.186 3.099 0 3.723 2.107 3.723 4.737v7.548h-1.17v-7.706c0-1.847-.287-3.487-2.576-3.487-2.501 0-3.099 2.187-3.099 4.269v6.924h-1.17v-7.418c0-1.874-.34-3.775-2.684-3.775-2.522 0-2.991 2.629-2.991 4.582v6.611h-1.164V56.713h1.164v1.509zm17.694-10.958h1.171v11.531h.051c1.009-1.51 2.776-2.343 4.625-2.343 3.591 0 5.881 2.681 5.881 6.195 0 3.513-2.29 6.35-5.932 6.35-1.771 0-3.698-.884-4.574-2.42h-.051v2.16h-1.171V47.264zm10.556 15.383c0-2.629-1.9-5.103-4.683-5.103-3.046 0-4.781 2.265-4.781 5.128 0 2.811 1.76 5.232 4.729 5.232 2.94.001 4.735-2.499 4.735-5.257zm12.456-5.934v7.209c0 1.222.024 2.445-.729 3.462-.824 1.092-2.228 1.613-3.583 1.613-1.354 0-2.757-.521-3.592-1.613-.754-1.017-.727-2.24-.727-3.462v-7.209h1.17v6.792c0 2.317.26 4.4 3.148 4.4 2.891 0 3.148-2.083 3.148-4.4v-6.792h1.165zm4.995 1.561h.05c.468-1.093 1.327-1.822 2.605-1.822.468 0 .855.103 1.274.287l-.626 1.041c-.286-.157-.521-.235-.832-.235-2.63 0-2.472 3.279-2.472 5.05v6.143h-1.173V56.713h1.173v1.561zm16.801 9.89c0 1.848-.051 3.514-1.197 5.101-1.119 1.537-2.879 2.318-4.779 2.318-3.149 0-5.753-1.849-5.934-5.155h1.171c.13 2.499 2.238 4.06 4.658 4.06 1.511 0 2.962-.519 3.843-1.796.938-1.379 1.068-2.94 1.068-4.554v-1.484h-.053c-1.066 1.432-2.854 2.343-4.677 2.343-3.486 0-5.83-2.94-5.83-6.299 0-3.461 2.472-6.246 5.986-6.246 1.951 0 3.4.833 4.521 2.343h.053v-2.082h1.17v11.451zm-10.556-5.517c0 2.758 1.82 5.258 4.735 5.258 3.062 0 4.729-2.5 4.729-5.388 0-2.786-1.898-4.973-4.808-4.973-2.758 0-4.656 2.5-4.656 5.103zm16.672-9.943c0 .599-.471 1.068-1.07 1.068a1.055 1.055 0 01-1.065-1.068 1.07 1.07 0 011.065-1.066 1.072 1.072 0 011.07 1.066zm-.498 16.033h-1.171V56.713h1.171v12.024zm9.524-9.84c-.389-.832-1.17-1.353-2.106-1.353-1.016 0-2.057.834-2.057 1.875 0 2.89 5.855 1.483 5.855 5.831 0 2.211-1.719 3.747-3.877 3.747-2.005 0-3.646-1.222-4.139-3.175l1.146-.364c.443 1.43 1.403 2.447 2.992 2.447a2.689 2.689 0 002.706-2.708c0-1.483-1.146-1.952-2.341-2.369-1.641-.599-3.514-1.3-3.514-3.332 0-1.821 1.535-3.044 3.278-3.044 1.224 0 2.55.807 3.071 1.926l-1.014.519zm13.915.6c-1.146-1.248-2.526-1.952-4.242-1.952-2.837 0-4.972 2.421-4.972 5.154s2.108 5.207 4.945 5.207c1.718 0 3.331-.834 4.424-2.161v1.588c-1.225 1.067-2.76 1.666-4.374 1.666-3.563 0-6.166-2.785-6.166-6.299 0-3.487 2.652-6.246 6.193-6.246 1.562 0 2.994.469 4.191 1.483v1.56zm4.367-12.233v11.323h.052c.703-1.327 2.005-2.134 3.56-2.134 3.095 0 3.954 1.926 3.954 5.023v7.262h-1.17v-7.262c0-2.16-.261-3.931-2.89-3.931-3.011 0-3.506 2.812-3.506 5.258v5.935h-1.17V47.264h1.17zm11.571 15.564c-.077 3.046 2.031 5.077 4.815 5.077 1.874 0 3.383-1.12 4.241-2.734l.992.573c-1.096 2.082-3.021 3.253-5.389 3.253-3.567 0-5.831-2.889-5.831-6.299 0-3.357 2.316-6.246 5.831-6.246 3.643 0 5.805 2.915 5.777 6.376h-10.436zm9.268-1.092c-.288-2.212-2.108-4.191-4.583-4.191-2.445 0-4.476 1.926-4.685 4.191h9.268z"/><path fill="#D30009" d="M71.952 128.001C157.253 25.591 199.186 6.059 350.376.845c.479-.004.779.586-.067.698-149.896 12.364-215.94 59.473-278.442 127.352-.677.659-.562-.049.085-.894z"/><path fill="#131211" d="M32.512 41.218V21.282h2.991v46.976h-2.991V44.022H3.99v24.235H1V21.282h2.99v19.936h28.522zM70.87 21.282h3.987L51.876 43.897l24.41 24.36h-3.92L49.821 45.829l-1.247 1.245v21.183h-2.986V21.282h2.986v21.93l22.296-21.93zm54.179 24.36c.125 5.918-.748 11.09-4.922 15.637-4.482 4.86-11.21 7.601-17.81 7.601-13.017 0-24.103-10.965-24.103-23.924 0-13.458 11.023-24.298 24.476-24.298 8.532 0 15.442 4.236 20.365 10.965l-2.43 1.932c-4.174-6.23-10.524-10.093-18.121-10.093-11.459 0-21.299 10.03-21.299 21.307 0 11.587 9.591 21.307 21.299 21.307 5.042 0 9.964-2.056 13.823-5.171 4.05-3.426 5.544-7.352 5.731-12.46h-16.812v-2.803h19.803z"/></svg>