<svg width="169" height="47" viewBox="0 0 169 47" fill="none" xmlns="http://www.w3.org/2000/svg">
  <path d="M1 23.0766C1 10.8854 10.8825 1.00289 23.0737 1.00289C35.265 1.00289 45.1475 10.8854 45.1475 23.0766C45.1475 35.2679 35.265 45.1504 23.0737 45.1504C10.8825 45.1504 1 35.2679 1 23.0766Z" fill="#0071BC"/>
  <path d="M26.8516 23.0766C26.8516 10.8854 36.7341 1.00289 48.9253 1.00289C56.2453 1.00289 62.7328 4.56664 66.7491 10.0529H52.2803C48.4328 10.0529 45.3141 13.1716 45.3141 17.0191V29.6004C45.3141 33.4479 48.4328 36.5666 52.2803 36.5666H66.3978C62.3603 41.7879 56.0353 45.1504 48.9253 45.1504C36.7341 45.1504 26.8516 35.2679 26.8516 23.0766Z" fill="#FFCB04"/>
  <path fill-rule="evenodd" clip-rule="evenodd" d="M50.6211 33.1055H59.2286C60.9836 33.1055 62.9523 33.1055 64.4911 32.2955C66.6223 31.163 67.1898 29.3817 67.1898 27.8705C67.1898 23.8767 63.7086 23.2555 62.4948 23.0405V22.9867C63.4661 22.743 66.6498 22.0155 66.6498 18.5605C66.6498 16.8342 65.7861 15.7817 65.1661 15.2155C63.3848 13.623 60.8748 13.623 58.4198 13.623H50.6211V33.1055ZM55.8561 17.158H58.7973C59.3636 17.158 59.9573 17.158 60.5511 17.6167C61.0911 18.048 61.3073 18.7505 61.3073 19.343C61.3073 20.1805 60.9023 20.8817 60.2811 21.233C59.8223 21.4755 59.2561 21.4755 58.3923 21.4755H55.8561V17.158ZM55.8823 24.9292H58.7161C59.4448 24.9292 61.6573 24.9292 61.6573 27.2767C61.6573 29.543 59.4986 29.543 58.8786 29.543H55.8823V24.9292Z" fill="#0071BC"/>
  <path d="M67.7266 32.9141H73.0966V22.7566L79.4453 32.9141H86.0053L78.8891 22.2266L85.4766 13.8153H79.2066L73.0966 22.2003V13.8153H67.7266V32.9141Z" fill="#0071BC"/>
  <path d="M86.3438 32.9141H91.7137V22.7566L98.0625 32.9141H104.622L97.5063 22.2266L104.094 13.8153H97.8237L91.7137 22.2003V13.8153H86.3438V32.9141Z" fill="#0071BC"/>
  <path fill-rule="evenodd" clip-rule="evenodd" d="M110.117 32.9141H115.435V26.0366L117.235 26.0103C118.266 26.0103 120.567 26.0103 122.048 25.1891C122.79 24.7928 124.932 23.3378 124.932 19.9791C124.932 17.4916 123.848 15.7728 122.235 14.7941C120.673 13.8153 118.742 13.8153 117.261 13.8153H110.117V32.9141ZM115.435 17.3603H116.943C118.477 17.3603 119.536 17.4916 119.536 19.8203C119.536 22.3866 118.266 22.3866 116.97 22.3866H115.435V17.3603Z" fill="#0071BC"/>
  <path d="M134.916 13.8678C134.361 13.8416 133.329 13.7353 131.98 13.7353C126.769 13.7353 126.716 16.5128 126.795 19.6878H125.379V22.9141H126.716V32.9141H131.583V22.9141H134.784V19.6878H131.583C131.556 18.5766 131.504 16.9366 133.54 16.9366C134.201 16.9366 134.705 17.0416 134.916 17.0953V13.8678Z" fill="#0071BC"/>
  <path fill-rule="evenodd" clip-rule="evenodd" d="M148.417 32.914C148.179 31.5915 148.152 31.3265 148.152 30.3752V24.184C148.152 22.7565 147.834 21.5127 146.988 20.6927C145.587 19.3165 143.047 19.1577 141.857 19.1577C139.449 19.1577 137.385 19.7665 136.354 20.8252C135.349 21.8565 135.349 22.994 135.323 23.6027H140.084C140.058 22.0952 140.93 21.5927 141.857 21.5927C143.364 21.5927 143.549 22.914 143.523 24.3427C137.809 24.1052 134.449 25.4277 134.449 29.0515C134.449 31.4065 135.878 33.1777 139.132 33.1777C141.857 33.1777 142.888 31.909 143.497 31.009C143.497 31.8565 143.549 32.4377 143.655 32.914H148.417ZM143.497 26.644C143.523 27.2002 143.523 28.2852 143.127 29.1315C142.624 30.189 141.698 30.4015 141.168 30.4015C139.978 30.4015 139.343 29.5802 139.343 28.6027C139.343 26.6977 141.38 26.6715 143.497 26.644Z" fill="#0071BC"/>
  <path d="M149.305 32.9132H154.278V13.8145H149.305V32.9132Z" fill="#0071BC"/>
  <path d="M155.172 32.9141H167.526V29.7666H160.754L167.208 22.9153V19.6353H155.463V22.8353H161.547L155.172 29.5541V32.9141Z" fill="#0071BC"/>
</svg>
