<svg xmlns:xlink="http://www.w3.org/1999/xlink" version="1.1" id="Ebene_1" x="0px" y="0px" viewBox="0 0 436 67.8" style="enable-background:new 0 0 436 67.8;" xml:space="preserve" xmlns="http://www.w3.org/2000/svg" xmlns:svg="http://www.w3.org/2000/svg" width="436"  height="67.8" ><defs id="defs15"/>
<style type="text/css" id="style2">
	.st0{fill:#1D1D1B;}
	.st1{fill:#EE7D00;}
</style>

<style type="text/css" id="style97">
	.st0{fill:#EB691C;}
</style><g id="g105" transform="matrix(1.859392,0,0,1.859392,-92.407442,-229.77784)">
	<path d="m 224.4,133 v -7 h 1.7 c 1.4,0 2.3,0.4 2.9,0.9 0.8,0.6 1.2,1.5 1.2,2.6 0,1.4 -0.6,2.4 -1.6,3 -0.7,0.4 -1.5,0.6 -2.5,0.6 h -1.7 z m -2,9.4 h 2 v -7.7 h 2 c 0.6,0.1 1.2,1 2.1,2.5 l 3.2,5.3 h 2.4 l -3.3,-5.5 c -0.9,-1.6 -1.6,-2.6 -2.2,-2.9 V 134 c 2.3,-0.7 3.7,-2.3 3.7,-4.8 0,-1.6 -0.7,-3.1 -2.1,-4 -0.9,-0.6 -2.2,-1 -4.1,-1 h -3.7 z m -12.9,0 h 8.9 v -1.7 h -6.9 V 134 h 6 v -1.7 h -6 V 126 h 6.1 l 0.7,-1.7 h -8.8 z m -10.3,0 h 2 V 126 h 5.1 l 0.7,-1.7 h -13 v 1.7 h 5.2 z m -13.7,0 h 2 V 126 h 5.1 l 0.7,-1.7 h -13.1 v 1.7 h 5.2 v 16.4 z m -10.2,0 h 2 v -18.2 h -2 z m -4.5,-8.6 h -2 v 6.3 c -0.8,0.4 -2.2,0.7 -3.7,0.7 -4.3,0 -7.1,-2.9 -7.1,-7.6 0,-4.4 2.7,-7.5 7.3,-7.5 2,0 3.6,0.5 4.9,1.2 V 125 c -1.1,-0.4 -2.8,-1 -5,-1 -5.6,0 -9.4,3.9 -9.4,9.5 0,5.3 3.6,9.1 9,9.1 2.5,0 4.7,-0.7 6,-1.4 z m -29.5,8.6 h 12.8 v -1.7 h -9.5 l 9.1,-16.4 h -12.3 l 0.6,1.7 h 8.5 z m -10.8,0 h 8.8 v -1.7 h -6.8 v -16.4 h -2 z m -13.5,-6.6 1.9,-5.2 c 0.6,-1.6 0.9,-2.5 1.1,-3.1 h 0.1 c 0.2,0.7 0.5,1.5 1.1,3.1 l 1.9,5.2 z m -4.6,6.6 h 2.2 l 1.8,-4.9 h 7.3 l 1.8,4.9 h 2.2 l -7,-18.2 h -1.4 z m -12.6,-1.1 c 1.1,0.7 2.7,1.4 4.8,1.4 3.5,0 5.8,-1.8 5.8,-4.9 0,-5.7 -8,-5.2 -8,-9.3 0,-2 1.7,-2.7 3.3,-2.7 1.4,0 2.8,0.4 3.9,1 v -1.9 c -0.8,-0.4 -2.3,-0.8 -3.9,-0.8 -3.4,0 -5.4,2 -5.4,4.6 0,5.4 8,4.9 8,9.3 0,2.2 -1.7,3 -3.7,3 -1.7,0 -3.1,-0.6 -3.9,-1.2 z" id="path99"/>
	<path class="st0" d="m 83.4,142.4 h 3.8 v -7.9 h 0.1 l 6.2,7.9 h 4.6 l -7.6,-9.4 7.2,-8.7 h -4.3 l -6,7.5 h -0.1 v -7.5 h -3.8 v 18.1 z m -17.2,0 H 70 v -7.9 h 0.1 l 6.2,7.9 h 4.6 l -7.6,-9.4 7.2,-8.7 h -4.3 l -6,7.5 H 70 v -7.5 H 66.2 Z M 54.1,131.7 v -4.3 h 1.4 c 1.8,0 2.6,1 2.6,2.2 0,1.2 -0.9,2.1 -2.5,2.1 z m 0,7.6 v -4.6 h 2.3 c 1.7,0 2.8,0.8 2.8,2.2 0,1.7 -1,2.4 -3.1,2.4 z m -3.8,3.1 h 6.2 c 4.3,0 6.5,-2.7 6.5,-5.5 0,-2 -1.2,-3.8 -3.4,-4.4 v -0.1 c 1.4,-0.7 2.2,-2.2 2.2,-3.7 0,-2.3 -1.8,-4.6 -5.7,-4.6 h -5.7 v 18.3 z" id="path101"/>
	<path d="m 234,151.5 h 0.1 c 0.1,0 0.1,0 0.1,-0.1 v -0.5 c 0,-0.1 0,-0.1 -0.1,-0.1 H 234 c -0.6,0 -1,0.2 -1.3,0.5 -0.3,0.3 -0.4,0.8 -0.4,1.5 v 0.4 c 0,0 0,0 0,0 h -0.5 c -0.1,0 -0.1,0 -0.1,0.1 v 0.4 c 0,0.1 0,0.1 0.1,0.1 h 0.5 c 0,0 0,0 0,0 v 5.3 c 0,0.1 0,0.1 0.1,0.1 h 0.6 c 0.1,0 0.1,0 0.1,-0.1 v -5.3 c 0,0 0,0 0,0 h 0.9 c 0.1,0 0.1,0 0.1,-0.1 v -0.4 c 0,-0.1 0,-0.1 -0.1,-0.1 h -0.9 c 0,0 0,0 0,0 v -0.4 c 0,-0.4 0.1,-0.8 0.2,-1 0.2,-0.2 0.4,-0.3 0.7,-0.3 m -4.3,1.8 v 4 c 0,0.4 -0.1,0.7 -0.3,1 -0.2,0.2 -0.4,0.3 -0.8,0.3 -0.3,0 -0.6,-0.1 -0.7,-0.3 -0.2,-0.2 -0.2,-0.5 -0.2,-0.9 v -4.1 c 0,-0.1 0,-0.1 -0.1,-0.1 H 227 c -0.1,0 -0.1,0 -0.1,0.1 v 4.3 c 0,0.6 0.1,1 0.4,1.3 0.3,0.3 0.7,0.4 1.2,0.4 0.6,0 1,-0.2 1.2,-0.6 0,0 0,0 0,0 0,0 0,0 0,0 v 0.4 c 0,0.1 0,0.1 0.1,0.1 h 0.6 c 0.1,0 0.1,0 0.1,-0.1 v -5.9 c 0,-0.1 0,-0.1 -0.1,-0.1 h -0.6 c 0,0.1 -0.1,0.2 -0.1,0.2 m -4.2,-0.2 c -0.5,0 -0.9,0.3 -1.1,0.9 0,0 0,0 0,0 0,0 0,0 0,0 v -0.7 c 0,-0.1 0,-0.1 -0.1,-0.1 h -0.6 c -0.1,0 -0.1,0 -0.1,0.1 v 5.9 c 0,0.1 0,0.1 0.1,0.1 h 0.6 c 0.1,0 0.1,0 0.1,-0.1 v -3.6 c 0,-0.4 0.1,-0.8 0.3,-1 0.2,-0.3 0.4,-0.4 0.7,-0.5 0,0 0.1,0 0.1,0 0.1,0 0.3,0 0.4,0.1 0.1,0 0.1,0 0.1,-0.1 l 0.1,-0.6 c 0,-0.1 0,-0.1 -0.1,-0.2 -0.2,-0.1 -0.3,-0.2 -0.5,-0.2 m -5.3,0.8 c 0.3,0 0.6,0.1 0.8,0.3 0.2,0.2 0.3,0.5 0.3,0.8 v 0.8 c 0,0 0,0 0,0 h -2 c 0,0 0,0 0,0 V 155 c 0,-0.3 0.1,-0.6 0.3,-0.8 0.1,-0.2 0.3,-0.3 0.6,-0.3 m 1.9,2.6 V 155 c 0,-0.5 -0.2,-1 -0.5,-1.3 -0.3,-0.3 -0.8,-0.5 -1.4,-0.5 -0.6,0 -1,0.2 -1.4,0.5 -0.3,0.3 -0.5,0.8 -0.5,1.3 v 2.6 c 0,0.6 0.2,1 0.5,1.3 0.3,0.3 0.8,0.5 1.4,0.5 0.5,0 0.9,-0.1 1.3,-0.4 0.3,-0.3 0.5,-0.7 0.6,-1.1 0,0 0,-0.1 0,-0.1 0,0 -0.1,0 -0.1,0 h -0.6 c -0.1,0 -0.1,0 -0.1,0.1 -0.1,0.2 -0.2,0.5 -0.4,0.6 -0.2,0.2 -0.4,0.2 -0.7,0.2 -0.3,0 -0.6,-0.1 -0.7,-0.3 -0.2,-0.2 -0.3,-0.5 -0.3,-0.8 v -0.9 c 0,0 0,0 0,0 h 2.8 c 0.1,-0.1 0.1,-0.1 0.1,-0.2 m -7,2.1 h -1 c 0,0 0,0 0,0 v -3.2 c 0,0 0,0 0,0 h 1 c 0.4,0 0.8,0.1 1,0.4 0.2,0.3 0.4,0.7 0.4,1.2 0,0.5 -0.1,0.9 -0.4,1.2 -0.3,0.2 -0.6,0.4 -1,0.4 m -1,-7 h 1 c 0.4,0 0.8,0.1 1,0.4 0.2,0.3 0.4,0.6 0.4,1.1 0,0.5 -0.1,0.8 -0.4,1.1 -0.2,0.3 -0.6,0.4 -1,0.4 h -1 c 0,0 0,0 0,0 v -3 c -0.1,0 -0.1,0 0,0 m 3.2,5.4 c 0,-1 -0.4,-1.6 -1.1,-2.1 0,0 0,0 0,0 0,0 0,0 0,0 0.7,-0.3 1,-0.9 1,-1.9 0,-0.7 -0.2,-1.3 -0.6,-1.6 -0.4,-0.4 -0.9,-0.6 -1.6,-0.6 h -1.7 c -0.1,0 -0.1,0 -0.1,0.1 v 8.2 c 0,0.1 0,0.1 0.1,0.1 h 1.8 c 0.7,0 1.2,-0.2 1.6,-0.6 0.4,-0.3 0.6,-0.8 0.6,-1.6 m -10,1.7 c -0.3,0 -0.6,-0.1 -0.8,-0.3 -0.2,-0.2 -0.3,-0.5 -0.3,-0.8 V 155 c 0,-0.3 0.1,-0.6 0.3,-0.8 0.2,-0.2 0.4,-0.3 0.8,-0.3 0.3,0 0.5,0.1 0.7,0.3 0.2,0.2 0.3,0.5 0.3,0.8 v 2.5 c 0,0.3 -0.1,0.6 -0.3,0.8 -0.2,0.3 -0.4,0.4 -0.7,0.4 m 1,-7.7 v 2.6 c 0,0 0,0 0,0 0,0 0,0 0,0 -0.3,-0.3 -0.7,-0.5 -1.2,-0.5 -0.5,0 -0.9,0.2 -1.2,0.5 -0.3,0.3 -0.5,0.8 -0.5,1.3 v 2.6 c 0,0.5 0.2,1 0.5,1.3 0.3,0.3 0.7,0.5 1.2,0.5 0.5,0 0.9,-0.2 1.2,-0.5 0,0 0,0 0,0 0,0 0,0 0,0 v 0.3 c 0,0.1 0,0.1 0.1,0.1 h 0.6 c 0.1,0 0.1,0 0.1,-0.1 V 151 c 0,-0.1 0,-0.1 -0.1,-0.1 h -0.6 c -0.1,0 -0.1,0 -0.1,0.1 m -5.7,2.1 c -0.2,0 -0.5,0.1 -0.7,0.2 -0.2,0.1 -0.4,0.3 -0.6,0.5 0,0 0,0 0,0 0,0 0,0 0,0 v -0.4 c 0,-0.1 0,-0.1 -0.1,-0.1 h -0.6 c -0.1,0 -0.1,0 -0.1,0.1 v 5.9 c 0,0.1 0,0.1 0.1,0.1 h 0.6 c 0.1,0 0.1,0 0.1,-0.1 v -4 c 0,-0.4 0.1,-0.7 0.3,-1 0.2,-0.2 0.4,-0.3 0.8,-0.3 0.3,0 0.5,0.1 0.7,0.3 0.2,0.2 0.3,0.5 0.3,0.9 v 4.1 c 0,0.1 0,0.1 0.1,0.1 h 0.6 c 0.1,0 0.1,0 0.1,-0.1 V 155 c 0,-0.6 -0.1,-1.1 -0.4,-1.4 -0.3,-0.3 -0.7,-0.5 -1.2,-0.5 m -4.6,0.2 v 4 c 0,0.4 -0.1,0.7 -0.3,1 -0.2,0.2 -0.4,0.3 -0.8,0.3 -0.3,0 -0.6,-0.1 -0.7,-0.3 -0.2,-0.2 -0.2,-0.5 -0.2,-0.9 v -4.1 c 0,-0.1 0,-0.1 -0.1,-0.1 h -0.6 c -0.1,0 -0.1,0 -0.1,0.1 v 4.3 c 0,0.6 0.1,1 0.4,1.3 0.3,0.3 0.7,0.4 1.2,0.4 0.6,0 1,-0.2 1.2,-0.6 0,0 0,0 0,0 0,0 0,0 0,0 v 0.4 c 0,0.1 0,0.1 0.1,0.1 h 0.6 c 0.1,0 0.1,0 0.1,-0.1 v -5.9 c 0,-0.1 0,-0.1 -0.1,-0.1 h -0.6 c 0,0.1 -0.1,0.2 -0.1,0.2 m -8.3,0.6 c 0.3,0 0.6,0.1 0.8,0.3 0.2,0.2 0.3,0.5 0.3,0.8 v 0.8 c 0,0 0,0 0,0 h -2 c 0,0 0,0 0,0 V 155 c 0,-0.3 0.1,-0.6 0.3,-0.8 0,-0.2 0.3,-0.3 0.6,-0.3 m 1.9,2.6 V 155 c 0,-0.5 -0.2,-1 -0.5,-1.3 -0.3,-0.3 -0.8,-0.5 -1.4,-0.5 -0.6,0 -1,0.2 -1.4,0.5 -0.3,0.3 -0.5,0.8 -0.5,1.3 v 2.6 c 0,0.6 0.2,1 0.5,1.3 0.3,0.3 0.8,0.5 1.4,0.5 0.5,0 0.9,-0.1 1.3,-0.4 0.3,-0.3 0.5,-0.7 0.6,-1.1 0,0 0,-0.1 0,-0.1 0,0 -0.1,0 -0.1,0 h -0.6 c -0.1,0 -0.1,0 -0.1,0.1 -0.1,0.2 -0.2,0.5 -0.4,0.6 -0.2,0.2 -0.4,0.2 -0.7,0.2 -0.3,0 -0.6,-0.1 -0.7,-0.3 -0.2,-0.2 -0.3,-0.5 -0.3,-0.8 v -0.9 c 0,0 0,0 0,0 h 2.8 c 0,-0.1 0.1,-0.1 0.1,-0.2 m -6,2.8 h 0.6 c 0.1,0 0.1,0 0.1,-0.1 v -5.9 c 0,-0.1 0,-0.1 -0.1,-0.1 h -0.6 c -0.1,0 -0.1,0 -0.1,0.1 v 5.9 c 0,0.1 0,0.1 0.1,0.1 m 0.3,-7.2 c 0.2,0 0.4,-0.1 0.5,-0.2 0.1,-0.1 0.2,-0.3 0.2,-0.5 0,-0.2 -0.1,-0.4 -0.2,-0.5 -0.1,-0.1 -0.3,-0.2 -0.5,-0.2 -0.2,0 -0.4,0.1 -0.5,0.2 -0.1,0.1 -0.2,0.3 -0.2,0.5 0,0.2 0.1,0.4 0.2,0.5 0.2,0.1 0.3,0.2 0.5,0.2 m -2.6,7.2 h 0.6 c 0.1,0 0.1,0 0.1,-0.1 V 151 c 0,-0.1 0,-0.1 -0.1,-0.1 h -0.6 c -0.1,0 -0.1,0 -0.1,0.1 v 8.2 c -0.1,0.1 0,0.1 0.1,0.1 m -2.4,0 h 0.6 c 0.1,0 0.1,0 0.1,-0.1 v -5.9 c 0,-0.1 0,-0.1 -0.1,-0.1 h -0.6 c -0.1,0 -0.1,0 -0.1,0.1 v 5.9 c 0,0.1 0,0.1 0.1,0.1 m 0.3,-7.2 c 0.2,0 0.4,-0.1 0.5,-0.2 0.1,-0.1 0.2,-0.3 0.2,-0.5 0,-0.2 -0.1,-0.4 -0.2,-0.5 -0.1,-0.1 -0.3,-0.2 -0.5,-0.2 -0.2,0 -0.4,0.1 -0.5,0.2 -0.1,0.1 -0.2,0.3 -0.2,0.5 0,0.2 0.1,0.4 0.2,0.5 0.2,0.1 0.3,0.2 0.5,0.2 m -3.4,1 c -0.3,0 -0.5,0.1 -0.8,0.2 -0.2,0.1 -0.4,0.4 -0.6,0.6 0,0 0,0 0,0 0,0 0,0 0,0 -0.1,-0.3 -0.3,-0.5 -0.5,-0.6 -0.2,-0.1 -0.5,-0.2 -0.8,-0.2 -0.2,0 -0.5,0 -0.7,0.1 -0.2,0.1 -0.4,0.2 -0.5,0.4 0,0 0,0 0,0 0,0 0,0 0,0 v -0.4 c 0,-0.1 0,-0.1 -0.1,-0.1 H 173 c -0.1,0 -0.1,0 -0.1,0.1 v 5.9 c 0,0.1 0,0.1 0.1,0.1 h 0.6 c 0.1,0 0.1,0 0.1,-0.1 v -4 c 0,-0.4 0.1,-0.7 0.3,-1 0.2,-0.2 0.4,-0.3 0.7,-0.3 0.3,0 0.5,0.1 0.7,0.4 0.2,0.2 0.3,0.6 0.3,1 v 4 c 0,0.1 0,0.1 0.1,0.1 h 0.6 c 0.1,0 0.1,0 0.1,-0.1 v -4 c 0,-0.4 0.1,-0.7 0.3,-1 0.2,-0.2 0.4,-0.3 0.7,-0.3 0.3,0 0.5,0.1 0.7,0.4 0.2,0.2 0.3,0.6 0.3,1 v 4 c 0,0.1 0,0.1 0.1,0.1 h 0.6 c 0.1,0 0.1,0 0.1,-0.1 v -4.1 c 0,-0.6 -0.1,-1.1 -0.4,-1.5 -0.3,-0.4 -0.7,-0.6 -1.1,-0.6 m -8.4,5.6 c -0.3,0 -0.5,-0.1 -0.7,-0.3 -0.2,-0.2 -0.3,-0.4 -0.3,-0.8 0,-0.4 0.1,-0.7 0.3,-0.9 0.2,-0.2 0.5,-0.3 0.9,-0.3 h 0.9 c 0,0 0,0 0,0 v 1 c 0,0.4 -0.1,0.7 -0.4,0.9 0,0.3 -0.3,0.4 -0.7,0.4 m 0.3,-5.6 c -0.5,0 -0.9,0.1 -1.3,0.4 -0.3,0.3 -0.5,0.7 -0.6,1.2 0,0 0,0.1 0,0.1 0,0 0.1,0 0.1,0 h 0.7 c 0.1,0 0.1,0 0.1,-0.1 0,-0.2 0.1,-0.5 0.3,-0.6 0.2,-0.2 0.4,-0.2 0.6,-0.2 0.3,0 0.6,0.1 0.8,0.4 0.2,0.2 0.3,0.6 0.3,1 v 0.5 c 0,0 0,0 0,0 h -0.8 c -0.6,0 -1.2,0.2 -1.6,0.5 -0.4,0.3 -0.6,0.8 -0.6,1.5 0,0.6 0.2,1.1 0.5,1.3 0.3,0.3 0.7,0.4 1.2,0.4 0.6,0 1,-0.2 1.3,-0.6 0,0 0,0 0,0 0,0 0,0 0,0 v 0.4 c 0,0.1 0,0.1 0.1,0.1 h 0.6 c 0.1,0 0.1,0 0.1,-0.1 v -4.1 c 0,-0.6 -0.2,-1.1 -0.5,-1.5 -0.3,-0.4 -0.8,-0.6 -1.3,-0.6 m -2.6,-1.6 V 151 c 0,-0.1 0,-0.1 -0.1,-0.1 h -3.6 c -0.1,0 -0.1,0 -0.1,0.1 v 8.2 c 0,0.1 0,0.1 0.1,0.1 h 0.6 c 0.1,0 0.1,0 0.1,-0.1 v -3.7 c 0,0 0,0 0,0 h 1.8 c 0.1,0 0.1,0 0.1,-0.1 v -0.5 c 0,-0.1 0,-0.1 -0.1,-0.1 h -1.8 c 0,0 0,0 0,0 v -3 c 0,0 0,0 0,0 h 2.8 c 0.1,-0.2 0.2,-0.2 0.2,-0.3 m -7.9,1.6 c -0.5,0 -0.9,0.3 -1.1,0.9 0,0 0,0 0,0 0,0 0,0 0,0 v -0.7 c 0,-0.1 0,-0.1 -0.1,-0.1 h -0.6 c -0.1,0 -0.1,0 -0.1,0.1 v 5.9 c 0,0.1 0,0.1 0.1,0.1 h 0.6 c 0.1,0 0.1,0 0.1,-0.1 v -3.6 c 0,-0.4 0.1,-0.8 0.3,-1 0.2,-0.3 0.4,-0.4 0.7,-0.5 0,0 0.1,0 0.1,0 0.1,0 0.3,0 0.4,0.1 0.1,0 0.1,0 0.1,-0.1 l 0.1,-0.6 c 0,-0.1 0,-0.1 -0.1,-0.2 -0.1,-0.1 -0.3,-0.2 -0.5,-0.2 m -6.3,-1 c 0.2,0 0.4,-0.1 0.5,-0.2 0.1,-0.1 0.2,-0.3 0.2,-0.5 0,-0.2 -0.1,-0.4 -0.2,-0.5 -0.1,-0.1 -0.3,-0.2 -0.5,-0.2 -0.2,0 -0.4,0.1 -0.5,0.2 -0.1,0.1 -0.2,0.3 -0.2,0.5 0,0.2 0.1,0.4 0.2,0.5 0.2,0.1 0.3,0.2 0.5,0.2 m 1.8,0 c 0.2,0 0.4,-0.1 0.5,-0.2 0.1,-0.1 0.2,-0.3 0.2,-0.5 0,-0.2 -0.1,-0.4 -0.2,-0.5 -0.1,-0.1 -0.3,-0.2 -0.5,-0.2 -0.2,0 -0.4,0.1 -0.5,0.2 -0.1,0.1 -0.2,0.3 -0.2,0.5 0,0.2 0.1,0.4 0.2,0.5 0.2,0.1 0.3,0.2 0.5,0.2 m 0.1,1.2 v 4 c 0,0.4 -0.1,0.7 -0.3,1 -0.2,0.2 -0.4,0.3 -0.8,0.3 -0.3,0 -0.6,-0.1 -0.7,-0.3 -0.2,-0.2 -0.2,-0.5 -0.2,-0.9 v -4.1 c 0,-0.1 0,-0.1 -0.1,-0.1 h -0.6 c -0.1,0 -0.1,0 -0.1,0.1 v 4.3 c 0,0.6 0.1,1 0.4,1.3 0.3,0.3 0.7,0.4 1.2,0.4 0.6,0 1,-0.2 1.2,-0.6 0,0 0,0 0,0 0,0 0,0 0,0 v 0.4 c 0,0.1 0,0.1 0.1,0.1 h 0.6 c 0.1,0 0.1,0 0.1,-0.1 v -5.9 c 0,-0.1 0,-0.1 -0.1,-0.1 H 155 c -0.1,0.1 -0.2,0.2 -0.2,0.2 m -4.2,-1.8 h 0.1 c 0.1,0 0.1,0 0.1,-0.1 v -0.5 c 0,-0.1 0,-0.1 -0.1,-0.1 h -0.2 c -0.6,0 -1,0.2 -1.3,0.5 -0.3,0.3 -0.4,0.8 -0.4,1.5 v 0.4 c 0,0 0,0 0,0 h -0.5 c -0.1,0 -0.1,0 -0.1,0.1 v 0.4 c 0,0.1 0,0.1 0.1,0.1 h 0.5 c 0,0 0,0 0,0 v 5.3 c 0,0.1 0,0.1 0.1,0.1 h 0.6 c 0.1,0 0.1,0 0.1,-0.1 v -5.3 c 0,0 0,0 0,0 h 0.9 c 0.1,0 0.1,0 0.1,-0.1 v -0.4 c 0,-0.1 0,-0.1 -0.1,-0.1 h -0.9 c 0,0 0,0 0,0 v -0.4 c 0,-0.4 0.1,-0.8 0.2,-1 0.3,-0.2 0.5,-0.3 0.8,-0.3 m -5.4,2.2 v -0.4 c 0,-0.1 0,-0.1 -0.1,-0.1 h -0.9 c 0,0 0,0 0,0 v -1.4 c 0,-0.1 0,-0.1 -0.1,-0.1 h -0.6 c -0.1,0 -0.1,0 -0.1,0.1 v 1.4 c 0,0 0,0 0,0 h -0.5 c -0.1,0 -0.1,0 -0.1,0.1 v 0.4 c 0,0.1 0,0.1 0.1,0.1 h 0.5 c 0,0 0,0 0,0 v 4 c 0,0.6 0.1,1 0.4,1.2 0.2,0.2 0.6,0.3 1.1,0.3 h 0.3 c 0.1,0 0.1,0 0.1,-0.1 v -0.5 c 0,-0.1 0,-0.1 -0.1,-0.1 h -0.1 c -0.3,0 -0.5,-0.1 -0.6,-0.2 -0.1,-0.1 -0.2,-0.4 -0.2,-0.8 v -3.7 c 0,0 0,0 0,0 h 0.9 c 0,0 0,-0.1 0,-0.2 m -4.4,5.6 h 0.6 c 0.1,0 0.1,0 0.1,-0.1 v -5.9 c 0,-0.1 0,-0.1 -0.1,-0.1 h -0.6 c -0.1,0 -0.1,0 -0.1,0.1 v 5.9 c -0.1,0.1 0,0.1 0.1,0.1 m 0.3,-7.2 c 0.2,0 0.4,-0.1 0.5,-0.2 0.1,-0.1 0.2,-0.3 0.2,-0.5 0,-0.2 -0.1,-0.4 -0.2,-0.5 -0.1,-0.1 -0.3,-0.2 -0.5,-0.2 -0.2,0 -0.4,0.1 -0.5,0.2 -0.1,0.1 -0.2,0.3 -0.2,0.5 0,0.2 0.1,0.4 0.2,0.5 0.1,0.1 0.3,0.2 0.5,0.2 m -3.7,1.8 c 0.3,0 0.6,0.1 0.8,0.3 0.2,0.2 0.3,0.5 0.3,0.8 v 0.8 c 0,0 0,0 0,0 h -2 c 0,0 0,0 0,0 V 155 c 0,-0.3 0.1,-0.6 0.3,-0.8 0,-0.2 0.3,-0.3 0.6,-0.3 m 1.9,2.6 V 155 c 0,-0.5 -0.2,-1 -0.5,-1.3 -0.3,-0.3 -0.8,-0.5 -1.4,-0.5 -0.6,0 -1,0.2 -1.4,0.5 -0.4,0.3 -0.5,0.8 -0.5,1.3 v 2.6 c 0,0.6 0.2,1 0.5,1.3 0.3,0.3 0.8,0.5 1.4,0.5 0.5,0 0.9,-0.1 1.3,-0.4 0.3,-0.3 0.5,-0.7 0.6,-1.1 0,0 0,-0.1 0,-0.1 0,0 -0.1,0 -0.1,0 h -0.6 c -0.1,0 -0.1,0 -0.1,0.1 -0.1,0.2 -0.2,0.5 -0.4,0.6 -0.2,0.2 -0.4,0.2 -0.7,0.2 -0.3,0 -0.6,-0.1 -0.7,-0.3 -0.2,-0.2 -0.3,-0.5 -0.3,-0.8 v -0.9 c 0,0 0,0 0,0 h 2.8 c 0,-0.1 0.1,-0.1 0.1,-0.2 m -6.6,-3.4 c -0.2,0 -0.5,0.1 -0.7,0.2 -0.2,0.1 -0.4,0.3 -0.6,0.5 0,0 0,0 0,0 0,0 0,0 0,0 V 151 c 0,-0.1 0,-0.1 -0.1,-0.1 h -0.6 c -0.1,0 -0.1,0 -0.1,0.1 v 8.2 c 0,0.1 0,0.1 0.1,0.1 h 0.6 c 0.1,0 0.1,0 0.1,-0.1 v -4 c 0,-0.4 0.1,-0.7 0.3,-1 0.2,-0.2 0.4,-0.3 0.8,-0.3 0.3,0 0.5,0.1 0.7,0.3 0.2,0.2 0.3,0.5 0.3,0.9 v 4.1 c 0,0.1 0,0.1 0.1,0.1 h 0.6 c 0.1,0 0.1,0 0.1,-0.1 V 155 c 0,-0.6 -0.1,-1.1 -0.4,-1.4 -0.4,-0.3 -0.7,-0.5 -1.2,-0.5 m -5.6,5.6 c -0.3,0 -0.6,-0.1 -0.8,-0.3 -0.2,-0.2 -0.3,-0.5 -0.3,-0.8 V 155 c 0,-0.3 0.1,-0.6 0.3,-0.8 0.2,-0.2 0.4,-0.3 0.8,-0.3 0.3,0 0.5,0.1 0.7,0.3 0.2,0.2 0.3,0.5 0.3,0.8 v 2.5 c 0,0.3 -0.1,0.6 -0.3,0.8 -0.1,0.3 -0.4,0.4 -0.7,0.4 m 1.1,-7.7 v 2.6 c 0,0 0,0 0,0 0,0 0,0 0,0 -0.3,-0.3 -0.7,-0.5 -1.2,-0.5 -0.5,0 -0.9,0.2 -1.2,0.5 -0.3,0.3 -0.5,0.8 -0.5,1.3 v 2.6 c 0,0.5 0.2,1 0.5,1.3 0.3,0.3 0.7,0.5 1.2,0.5 0.5,0 0.9,-0.2 1.2,-0.5 0,0 0,0 0,0 0,0 0,0 0,0 v 0.3 c 0,0.1 0,0.1 0.1,0.1 h 0.6 c 0.1,0 0.1,0 0.1,-0.1 V 151 c 0,-0.1 0,-0.1 -0.1,-0.1 h -0.6 c -0.1,0 -0.1,0 -0.1,0.1 m -5.8,2.1 c -0.2,0 -0.5,0.1 -0.7,0.2 -0.2,0.1 -0.4,0.3 -0.6,0.5 0,0 0,0 0,0 0,0 0,0 0,0 v -0.4 c 0,-0.1 0,-0.1 -0.1,-0.1 h -0.6 c -0.1,0 -0.1,0 -0.1,0.1 v 5.9 c 0,0.1 0,0.1 0.1,0.1 h 0.6 c 0.1,0 0.1,0 0.1,-0.1 v -4 c 0,-0.4 0.1,-0.7 0.3,-1 0.2,-0.2 0.4,-0.3 0.8,-0.3 0.3,0 0.5,0.1 0.7,0.3 0.2,0.2 0.3,0.5 0.3,0.9 v 4.1 c 0,0.1 0,0.1 0.1,0.1 h 0.6 c 0.1,0 0.1,0 0.1,-0.1 V 155 c 0,-0.6 -0.1,-1.1 -0.4,-1.4 -0.3,-0.3 -0.7,-0.5 -1.2,-0.5 m -4.5,0.2 v 4 c 0,0.4 -0.1,0.7 -0.3,1 -0.2,0.2 -0.4,0.3 -0.8,0.3 -0.3,0 -0.6,-0.1 -0.7,-0.3 -0.2,-0.2 -0.2,-0.5 -0.2,-0.9 v -4.1 c 0,-0.1 0,-0.1 -0.1,-0.1 h -0.6 c -0.1,0 -0.1,0 -0.1,0.1 v 4.3 c 0,0.6 0.1,1 0.4,1.3 0.3,0.3 0.7,0.4 1.2,0.4 0.6,0 1,-0.2 1.2,-0.6 0,0 0,0 0,0 0,0 0,0 0,0 v 0.4 c 0,0.1 0,0.1 0.1,0.1 h 0.6 c 0.1,0 0.1,0 0.1,-0.1 v -5.9 c 0,-0.1 0,-0.1 -0.1,-0.1 H 118 c 0,0.1 -0.1,0.2 -0.1,0.2 m -5.7,6.1 c 0.6,0 1,-0.1 1.3,-0.4 0.3,-0.3 0.5,-0.7 0.5,-1.2 0,-0.3 -0.1,-0.6 -0.2,-0.9 -0.2,-0.2 -0.3,-0.4 -0.6,-0.5 -0.2,-0.1 -0.5,-0.3 -0.8,-0.4 -0.3,-0.1 -0.5,-0.2 -0.6,-0.3 -0.2,-0.1 -0.3,-0.2 -0.4,-0.3 -0.1,-0.1 -0.2,-0.3 -0.2,-0.5 0,-0.3 0.1,-0.5 0.3,-0.7 0.2,-0.2 0.4,-0.3 0.7,-0.3 0.3,0 0.5,0.1 0.7,0.3 0.2,0.2 0.3,0.4 0.3,0.7 v 0.1 c 0,0.1 0,0.1 0.1,0.1 h 0.6 c 0.1,0 0.1,0 0.1,-0.1 v 0 c 0,-0.5 -0.2,-0.9 -0.5,-1.2 -0.3,-0.3 -0.8,-0.5 -1.3,-0.5 -0.5,0 -1,0.1 -1.3,0.4 -0.3,0.3 -0.5,0.7 -0.5,1.2 0,0.4 0.1,0.6 0.2,0.9 0.1,0.2 0.3,0.4 0.5,0.5 0.2,0.1 0.5,0.3 0.8,0.4 0.3,0.1 0.5,0.2 0.7,0.3 0.1,0.1 0.3,0.2 0.4,0.3 0.1,0.1 0.2,0.3 0.2,0.5 0,0.3 -0.1,0.5 -0.3,0.7 -0.2,0.2 -0.4,0.3 -0.7,0.3 -0.3,0 -0.6,-0.1 -0.7,-0.3 -0.2,-0.2 -0.3,-0.4 -0.3,-0.7 v -0.1 c 0,-0.1 0,-0.1 -0.1,-0.1 h -0.6 c -0.1,0 -0.1,0 -0.1,0.1 v 0.1 c 0,0.5 0.2,0.9 0.5,1.1 0.3,0.3 0.7,0.5 1.3,0.5 m -4.7,-5.5 c 0.3,0 0.6,0.1 0.8,0.3 0.2,0.2 0.3,0.5 0.3,0.8 v 0.8 c 0,0 0,0 0,0 h -2 c 0,0 0,0 0,0 V 155 c 0,-0.3 0.1,-0.6 0.3,-0.8 0,-0.2 0.3,-0.3 0.6,-0.3 m 1.9,2.6 V 155 c 0,-0.5 -0.2,-1 -0.5,-1.3 -0.3,-0.3 -0.8,-0.5 -1.4,-0.5 -0.6,0 -1,0.2 -1.4,0.5 -0.4,0.3 -0.5,0.8 -0.5,1.3 v 2.6 c 0,0.6 0.2,1 0.5,1.3 0.3,0.3 0.8,0.5 1.4,0.5 0.5,0 0.9,-0.1 1.3,-0.4 0.3,-0.3 0.5,-0.7 0.6,-1.1 0,0 0,-0.1 0,-0.1 0,0 -0.1,0 -0.1,0 h -0.6 c -0.1,0 -0.1,0 -0.1,0.1 -0.1,0.2 -0.2,0.5 -0.4,0.6 -0.2,0.2 -0.4,0.2 -0.7,0.2 -0.3,0 -0.6,-0.1 -0.7,-0.3 -0.2,-0.2 -0.3,-0.5 -0.3,-0.8 v -0.9 c 0,0 0,0 0,0 h 2.8 c 0,-0.1 0.1,-0.1 0.1,-0.2 m -7,2.9 c 0.6,0 1.1,-0.2 1.5,-0.6 0.4,-0.4 0.6,-0.9 0.6,-1.5 v -2.2 c 0,-0.1 0,-0.1 -0.1,-0.1 h -1.8 c -0.1,0 -0.1,0 -0.1,0.1 v 0.5 c 0,0.1 0,0.1 0.1,0.1 h 1 c 0,0 0,0 0,0 v 1.5 c 0,0.4 -0.1,0.7 -0.3,0.9 -0.2,0.2 -0.5,0.3 -0.9,0.3 -0.4,0 -0.6,-0.1 -0.9,-0.4 -0.2,-0.2 -0.3,-0.5 -0.3,-0.9 v -4.6 c 0,-0.4 0.1,-0.7 0.3,-0.9 0.2,-0.2 0.5,-0.4 0.9,-0.4 0.4,0 0.7,0.1 0.9,0.3 0.2,0.2 0.3,0.5 0.3,0.9 v 0.5 c 0,0.1 0,0.1 0.1,0.1 h 0.6 c 0.1,0 0.1,0 0.1,-0.1 v -0.5 c 0,-0.6 -0.2,-1.1 -0.6,-1.5 -0.4,-0.4 -0.9,-0.6 -1.5,-0.6 -0.6,0 -1.1,0.2 -1.5,0.6 -0.4,0.4 -0.6,0.9 -0.6,1.5 v 4.6 c 0,0.6 0.2,1.1 0.6,1.5 0.5,0.7 1,0.9 1.6,0.9" id="path103"/>
</g></svg>