<?xml version="1.0" encoding="UTF-8" standalone="no"?>
<svg
   xmlns:svg="http://www.w3.org/2000/svg"
   xmlns="http://www.w3.org/2000/svg"
   version="1.1"
   width="774.00299"
   height="277.70868"
   id="svg3079">
  <defs
     id="defs3081" />
  <g
     transform="translate(47.0015,-362.07928)"
     id="layer1">
    <path
       d="m -45.999662,548.98414 315.096792,0 0,-44.49063 -315.096792,0 0,44.49063 z"
       id="path42"
       style="fill:#e96015;fill-opacity:1;fill-rule:nonzero;stroke:none" />
    <path
       d="m 269.09713,548.98414 47.93243,0 0,-44.49063 -47.93243,0 0,44.49063 z"
       id="path44"
       style="fill:#9b0b7d;fill-opacity:1;fill-rule:nonzero;stroke:none" />
    <path
       d="m 317.02956,548.98414 183.72031,0 0,-44.49063 -183.72031,0 0,44.49063 z"
       id="path46"
       style="fill:#7eb61c;fill-opacity:1;fill-rule:nonzero;stroke:none" />
    <path
       d="m 500.74987,548.98414 168.07368,0 0,-44.49063 -168.07368,0 0,44.49063 z"
       id="path48"
       style="fill:#009ee0;fill-opacity:1;fill-rule:nonzero;stroke:none" />
    <path
       d="m 668.82355,548.98414 57.17795,0 0,-44.49063 -57.17795,0 0,44.49063 z"
       id="path50"
       style="fill:#e2007a;fill-opacity:1;fill-rule:nonzero;stroke:none" />
    <path
       d="m 726.0015,626.6061 -11.82342,0 0,11.72692 11.82342,0 0,-11.72692 z m -32.04686,-12.79301 -15.71555,0 c 0.0871,-1.81051 0.33086,-2.91335 0.95121,-4.42058 1.1396,-2.46761 3.4326,-4.27812 6.91116,-4.27812 3.49694,0 5.78994,1.81051 6.90657,4.27812 0.62954,1.50723 0.87768,2.61007 0.94661,4.42058 m 10.15078,7.0674 0,-4.60898 c 0,-11.33633 -6.48841,-19.73174 -18.00396,-19.73174 -10.71139,0 -17.99476,7.60963 -17.99476,21.07354 0,16.74487 9.34661,21.17464 19.11139,21.17464 7.44881,0 11.51555,-2.293 15.69258,-6.4976 l -6.25865,-6.08863 c -2.60547,2.61007 -4.83414,3.88753 -9.35581,3.88753 -5.78994,0 -9.05712,-3.88753 -9.05712,-9.20876 l 25.86633,0 z m -41.32914,17.45253 0,-8.71248 -3.96565,0 c -2.61926,0 -3.64399,-1.28206 -3.64399,-3.7221 l 0,-44.04031 -10.28403,0 0,44.66985 c 0,5.85427 3.55667,11.80504 12.01642,11.80504 l 5.87725,0 z m -26.53263,0 0,-8.71248 -3.97484,0 c -2.62386,0 -3.63939,-1.28206 -3.63939,-3.7221 l 0,-44.04031 -10.29323,0 0,44.66985 c 0,5.85427 3.55668,11.80504 12.0348,11.80504 l 5.87266,0 z m -42.23899,-19.27682 -14.0429,0 7.14092,-20.5405 6.90198,20.5405 z m 17.76041,19.27682 -20.63241,-56.47489 -8.62517,0 -20.55428,56.47489 11.51095,0 3.40503,-10.00373 20.0626,0 3.3453,10.00373 11.48798,0 z m -63.24361,-37.91951 c -2.89037,-2.83523 -5.7256,-3.87374 -9.77856,-3.87374 -4.43436,0 -8.39541,2.04945 -10.37134,4.43435 l 0,-3.96564 -10.06807,0 0,41.32454 10.29323,0 0,-24.92431 c 0,-5.21554 3.49694,-7.58666 6.6906,-7.58666 2.53195,0 3.85996,0.87309 5.45908,2.45843 l 7.77506,-7.86697 z m -42.8961,37.91951 0,-41.32454 -10.32539,0 0,24.96107 c 0,5.66127 -3.64399,7.5499 -6.89738,7.5499 -3.25799,0 -6.82845,-1.88863 -6.82845,-7.5499 l 0,-24.96107 -10.31161,0 0,26.41774 c 0,4.50789 0.87768,8.39542 4.21838,11.71774 2.27922,2.30219 5.61073,3.64399 9.751,3.64399 3.81401,0 7.60044,-1.41532 10.31161,-4.27813 l 0,3.8232 10.08184,0 z m -21.60658,-57.96832 -8.77682,0 0,9.89344 8.77682,0 0,-9.89344 z m 17.53984,0 -8.79979,0 0,9.89344 8.79979,0 0,-9.89344 z m -38.0206,11.32255 0,-9.82912 -37.1705,0 0,56.47489 11.01927,0 0,-22.93459 22.29127,0 0,-9.81533 -22.29127,0 0,-13.89585 26.15123,0 z m -61.76396,34.91885 -11.80504,0 0,11.72692 11.80504,0 0,-11.72692 z m -22.94378,11.72692 0,-8.71248 -3.73589,0 c -2.45843,0 -3.56128,-1.36937 -3.56128,-3.7221 l 0,-19.84663 7.29717,0 0,-7.86697 -7.29717,0 0,-12.19563 -10.27944,0 0,12.19563 -4.36543,0 0,7.86697 4.36543,0 0,20.47617 c 0,5.85427 3.55668,11.80504 11.95209,11.80504 l 5.62452,0 z m -31.25189,0 0,-41.32454 -10.29323,0 0,24.96107 c 0,5.66127 -3.64858,7.5499 -6.90657,7.5499 -3.26718,0 -6.82386,-1.88863 -6.82386,-7.5499 l 0,-24.96107 -10.28403,0 0,26.41774 c 0,4.50789 0.8593,8.39542 4.17703,11.71774 2.29299,2.30219 5.63829,3.64399 9.75558,3.64399 3.80942,0 7.62342,-1.41532 10.30702,-4.27813 l 0,3.8232 10.06806,0 z m -45.02368,-23.17814 0,-8.22998 -21.32627,0 0,9.18119 10.4081,0 0,2.15514 c 0,2.93633 -0.72144,5.46828 -2.54114,7.5453 -1.82429,1.98972 -4.51248,3.17987 -7.86696,3.17987 -3.01905,0 -5.47747,-1.12582 -7.06281,-2.95011 -2.13677,-2.38031 -2.70657,-5.09147 -2.70657,-15.93152 0,-10.88141 0.5698,-13.50067 2.70657,-15.87179 1.58534,-1.83348 4.04376,-3.02363 7.06281,-3.02363 5.64748,0 8.89169,2.95011 10.15537,8.25755 l 11.09738,0 c -1.50722,-9.51204 -8.15646,-18.07288 -21.25275,-18.07288 -6.35056,0 -11.26741,2.22867 -15.21928,6.18053 -5.71182,5.69804 -5.54639,12.76544 -5.54639,22.53022 0,9.72342 -0.16543,16.80461 5.54639,22.50264 3.95187,3.96565 9.04334,6.18054 15.21928,6.18054 6.04267,0 11.42364,-1.73239 15.94531,-6.4057 3.95186,-4.13108 5.38096,-9.02955 5.38096,-17.22737 m -64.71866,11.45122 -11.80504,0 0,11.72692 11.80504,0 0,-11.72692 z m -22.58536,11.72692 0,-26.72103 c 0,-8.74005 -4.76061,-15.07222 -13.79476,-15.07222 -3.65318,0 -7.13633,1.41991 -9.91642,4.26893 l 0,-18.95057 -10.30242,0 0,56.47489 10.30242,0 0,-25.24138 c 0,-5.38097 3.40963,-7.26959 6.66762,-7.26959 3.2488,0 6.74574,1.81051 6.74574,7.26959 l 0,25.24138 10.29782,0 z m -42.84096,-5.16499 -6.9755,-6.89279 c -2.14595,2.30679 -3.97484,3.24421 -6.65843,3.24421 -2.46302,0 -4.37002,-0.8639 -5.87724,-2.6744 -1.58075,-1.99891 -2.2976,-4.8755 -2.2976,-9.23174 0,-4.35624 0.71685,-7.11795 2.2976,-9.10767 1.50722,-1.8105 3.41422,-2.68359 5.87724,-2.68359 2.68359,0 4.51248,0.92363 6.65843,3.23042 l 6.9755,-6.96631 c -3.64858,-3.80941 -7.9313,-5.54639 -13.63393,-5.54639 -8.25296,0 -18.47726,4.35624 -18.47726,21.07354 0,16.74487 10.2243,21.17464 18.47726,21.17464 5.70263,0 9.98535,-1.82429 13.63393,-5.61992 m -51.15825,-10.08185 c 0,2.55952 -0.39059,4.21839 -1.50263,5.2523 -1.82888,1.75077 -3.65317,1.98972 -6.51598,1.98972 -4.02998,0 -5.94158,-1.9116 -5.94158,-4.76062 0,-2.96389 2.06784,-4.68709 5.78075,-4.68709 l 8.17944,0 0,2.20569 z m 10.31161,15.24684 0,-27.20352 c 0,-9.68667 -6.02889,-14.58973 -17.60877,-14.58973 -6.89738,0 -10.85844,1.26827 -14.9068,5.69803 l 6.58031,6.43327 c 2.14136,-2.45383 3.97025,-3.40504 7.92211,-3.40504 5.48666,0 7.70154,1.96215 7.70154,6.4976 l 0,2.04946 -9.75559,0 c -9.58557,0 -14.111829,5.39475 -14.111829,11.99344 0,3.64858 1.190155,6.96631 3.409629,9.25931 2.46302,2.46762 5.86806,3.66237 10.54596,3.66237 4.75603,0 7.37069,-1.19475 10.15537,-3.97944 l 0,3.58425 10.06807,0 z m -40.230894,-32.28121 0,-7.86697 -7.609636,0 0,-4.49409 c 0,-2.3941 1.107441,-3.73589 3.565868,-3.73589 l 4.043768,0 0,-8.71708 -5.863463,0 c -8.404603,0 -12.053184,5.94158 -12.053184,11.81883 l 0,5.12823 -4.278123,0 0,7.86697 4.278123,0 0,32.28121 10.307011,0 0,-32.28121 7.609636,0 z m -31.408126,32.28121 0,-26.40396 c 0,-4.52167 -0.863896,-8.43677 -4.195409,-11.7545 -2.293,-2.293 -5.624513,-3.63479 -9.746399,-3.63479 -3.804817,0 -7.618825,1.41991 -10.320797,4.26893 l 0,-3.80022 -10.058872,0 0,41.32454 10.297822,0 0,-24.99783 c 0,-5.62452 3.653176,-7.51314 6.906571,-7.51314 3.253395,0 6.828453,1.88862 6.828453,7.51314 l 0,24.99783 10.288631,0 z m -46.94906,-41.33833 -10.297821,0 0,41.33833 10.297821,0 0,-41.33833 z m 0.0919,-15.43524 -10.5413663,0 0,8.39541 10.5413663,0 0,-8.39541 z m -21.8777008,56.77357 0,-9.82911 -26.1787992,0 0,-13.73962 22.291268,0 0,-9.80154 -22.291268,0 0,-13.2755 26.1787992,0 0,-9.82912 -37.1888752,0 0,56.47489 37.1888752,0 z M 238.78542,471.61628 l -38.43877,-65.19196 35.86546,-43.00639 -25.68711,0 -38.13549,47.1007 0,-47.1007 -21.11949,0 0,108.19835 21.11949,0 0,-32.52475 13.96938,-16.71731 27.81009,49.24206 24.61644,0 z m -100.68981,0 -38.438768,-65.19196 35.851678,-43.00639 -25.67793,0 -38.144671,47.1007 0,-47.1007 -21.1149,0 0,108.19835 21.1149,0 0,-32.52475 13.978569,-16.71731 27.810092,49.24206 24.62103,0 z M 11.291333,439.39481 c 0,7.29257 -4.5676194,13.39038 -14.1348056,13.39038 l -22.0339374,0 0,-26.60615 22.0339374,0 c 9.5671862,0 14.1348056,5.9278 14.1348056,13.21577 M 9.7703248,394.71577 c 0,7.44421 -5.0179479,12.46216 -13.978569,12.46216 l -20.6691658,0 0,-24.90593 20.6691658,0 c 8.9606211,0 13.978569,5.00875 13.978569,12.44377 m 22.6359072,45.74512 c 0,-14.43809 -8.354056,-21.27573 -14.888416,-24.31774 5.463681,-2.5825 13.367408,-10.33459 13.367408,-22.34182 0,-18.52781 -12.305919,-30.3834 -33.4208189,-30.3834 l -43.4659051,0 0,108.19835 45.28560047,0 c 19.29520453,0 33.12213153,-10.95493 33.12213153,-31.15539 M 720.37974,375.89527 c 0,5.4453 -3.70372,8.12889 -8.8825,8.12889 l -11.87857,0 0,-16.32211 11.87857,0 c 5.17878,0 8.8825,2.74792 8.8825,8.19322 m 5.61992,32.07902 -10.55975,-20.20505 c 5.74859,-1.19015 9.68667,-5.42692 9.68667,-11.9383 0,-7.70154 -5.43611,-12.38404 -13.19739,-12.38404 l -17.05735,0 0,44.52739 4.74683,0 0,-19.7731 10.67923,0 10.14158,19.7731 5.56018,0 z m -44.12302,0 0,-4.25514 -22.88404,0 0,-16.07857 19.51117,0 0,-4.24596 -19.51117,0 0,-15.69257 22.88404,0 0,-4.25515 -27.64926,0 0,44.52739 27.64926,0 z m -38.19981,-40.27224 0,-4.25515 -30.52126,0 0,4.25515 12.87113,0 0,40.27224 4.76981,0 0,-40.27224 12.88032,0 z m -37.67597,28.01228 c 0,-3.69454 -1.31422,-6.75034 -3.73589,-8.81817 -1.87484,-1.6267 -3.95186,-2.50898 -8.13348,-3.13392 l -4.8755,-0.74902 c -2.34355,-0.36762 -4.64574,-1.2407 -6.00132,-2.43086 -1.39234,-1.18096 -2.01269,-2.94092 -2.01269,-5.12823 0,-4.93983 3.4326,-8.25756 9.36959,-8.25756 4.70088,0 7.65099,1.31423 10.39892,3.8232 l 3.0512,-3.06499 c -3.80022,-3.44639 -7.55909,-4.8755 -13.25712,-4.8755 -8.7906,0 -14.26347,4.99957 -14.26347,12.56325 0,3.57047 1.1396,6.32758 3.38206,8.32189 1.93917,1.68184 4.68709,2.81686 8.17944,3.36828 l 5.20635,0.80875 c 3.25799,0.51466 4.38381,0.88228 5.79913,2.12758 1.47046,1.25448 2.15514,3.25339 2.15514,5.57396 0,5.18797 -4.0162,8.25756 -10.52298,8.25756 -4.99038,0 -8.42299,-1.19016 -12.1359,-4.8755 l -3.23961,3.23961 c 4.19081,4.2 8.56084,5.87725 15.24684,5.87725 9.28228,0 15.38929,-4.79738 15.38929,-12.62758 m -44.90879,-32.26743 -4.72386,0 0,44.52739 4.72386,0 0,-44.52739 z m -19.89718,44.52739 0,-4.25514 -22.91162,0 0,-16.07857 19.52956,0 0,-4.24596 -19.52956,0 0,-15.69257 22.91162,0 0,-4.25515 -27.63547,0 0,44.52739 27.63547,0 z m -42.31251,0 0,-44.52739 -4.75143,0 -14.1348,31.58274 -14.49783,-31.58274 -4.76521,0 0,44.52739 4.76521,0 0,-33.82519 12.38404,26.82212 4.05296,0 12.19563,-26.82212 0,33.82519 4.75143,0 z m -51.73725,0 0,-4.25514 -22.86107,0 0,-16.07857 19.50658,0 0,-4.24596 -19.50658,0 0,-15.69257 22.86107,0 0,-4.25515 -27.62169,0 0,44.52739 27.62169,0 z m -46.41601,-22.76457 c 0,5.44071 0.12425,12.06238 -2.94093,15.25603 -2.32976,2.38031 -5.31663,3.2534 -8.76302,3.2534 l -9.70045,0 0,-36.0171 9.70045,0 c 3.44639,0 6.43326,0.86849 8.76302,3.2488 3.065,3.18446 2.94093,8.82736 2.94093,14.25887 m 4.76061,0 c 0,-6.18513 0.23895,-13.00439 -4.393,-17.63634 -2.68819,-2.68359 -6.62626,-4.12648 -11.24902,-4.12648 l -15.27442,0 0,44.52739 15.27442,0 c 4.62276,0 8.56083,-1.44289 11.24902,-4.12648 4.63195,-4.62276 4.393,-12.45296 4.393,-18.63809 m -41.43023,22.76457 0,-4.25514 -22.74619,0 0,-40.27225 -4.74684,0 0,44.52739 27.49303,0 z m -44.18735,-44.52739 -4.75143,0 0,44.52739 4.75143,0 0,-44.52739 z m -19.50199,28.26042 0,-7.05362 -15.69258,0 0,4.17703 10.94115,0 0,3.39125 c 0,3.43261 -0.69847,5.87265 -2.50897,8.06456 -2.06324,2.49519 -5.19257,3.81401 -8.43218,3.81401 -2.95011,0 -5.76236,-1.12582 -7.69234,-3.12933 -2.84902,-2.87659 -3.1523,-5.94617 -3.1523,-15.26062 0,-9.32364 0.30328,-12.3243 3.1523,-15.1963 1.92998,-2.0035 4.74223,-3.17987 7.69234,-3.17987 5.5464,0 9.54881,3.43261 10.8033,9.05253 l 4.73764,0 c -1.30504,-7.81642 -7.04443,-13.30768 -15.54094,-13.30768 -4.45733,0 -8.39081,1.62211 -11.40066,4.62277 -4.18163,4.18621 -4.18163,8.56543 -4.18163,18.00855 0,9.43392 0,13.81773 4.18163,18.00855 3.00985,3.00985 7.00307,4.62276 11.40066,4.62276 4.54465,0 8.74925,-1.74617 11.87857,-5.11445 2.73414,-2.94092 3.81401,-6.38272 3.81401,-11.52014 m 420.00958,47.78491 c 0,5.4453 -3.70372,8.13808 -8.8825,8.13808 l -11.86938,0 0,-16.34509 11.86938,0 c 5.17878,0 8.8825,2.76171 8.8825,8.20701 m 5.61992,32.07442 -10.55975,-20.20045 c 5.74859,-1.18556 9.68667,-5.43611 9.68667,-11.9429 0,-7.68776 -5.43611,-12.37485 -13.19739,-12.37485 l -17.05735,0 0,44.5182 4.75602,0 0,-19.75931 10.68382,0 10.1278,19.75931 5.56018,0 z m -40.97531,0 0,-4.25055 -22.87026,0 0,-16.07857 19.52037,0 0,-4.22757 -19.52037,0 0,-15.72474 22.87026,0 0,-4.23677 -27.61709,0 0,44.5182 27.61709,0 z m -34.86371,0 -16.01883,-27.32759 14.00614,-17.19061 -5.81292,0 -20.75647,25.59521 0,-25.59521 -4.74683,0 0,44.5182 4.74683,0 0,-12.43918 9.36959,-11.25362 13.58798,23.6928 5.62451,0 z m -43.78297,-12.87572 -4.74683,0 c -1.17637,5.4453 -5.11905,8.99738 -10.68842,8.99738 -2.95011,0 -5.76237,-1.12582 -7.70154,-3.12013 -2.81225,-2.88118 -3.12932,-5.93239 -3.12932,-15.26063 0,-9.31445 0.31725,-12.37944 3.12932,-15.26062 1.93917,-2.00351 4.75143,-3.12473 7.70154,-3.12473 5.56937,0 9.38338,3.56127 10.55975,9.00657 l 4.8755,0 c -1.49344,-8.38622 -7.44421,-13.25253 -15.43525,-13.25253 -4.39759,0 -8.38622,1.63129 -11.38688,4.60898 -4.19081,4.2 -4.19081,8.57922 -4.19081,18.02233 0,9.44312 0,13.82234 4.19081,18.00855 3.00066,3.00066 6.98929,4.61817 11.38688,4.61817 7.92671,0 13.99695,-4.86631 15.43525,-13.24334 m -42.14709,-31.64248 -4.75142,0 0,44.5182 4.75142,0 0,-44.5182 z m -12.9952,4.23677 0,-4.23677 -30.52125,0 0,4.23677 12.8941,0 0,40.28143 4.74684,0 0,-40.28143 12.88031,0 z m -35.83789,28.03525 c 0,-3.69913 -1.30503,-6.75033 -3.76346,-8.81817 -1.84726,-1.63129 -3.92429,-2.50438 -8.09213,-3.12473 l -4.88928,-0.7628 c -2.32976,-0.36761 -4.65033,-1.25449 -6.0151,-2.43085 -1.38315,-1.19475 -2.00351,-2.94552 -2.00351,-5.12824 0,-4.95361 3.43261,-8.25755 9.38798,-8.25755 4.6825,0 7.6372,1.30963 10.37134,3.80941 l 3.06499,-3.06499 c -3.80022,-3.42802 -7.56368,-4.86631 -13.24793,-4.86631 -8.82736,0 -14.25887,4.99497 -14.25887,12.56325 0,3.56587 1.12582,6.31839 3.37746,8.3127 1.92539,1.70022 4.67331,2.82604 8.18403,3.38206 l 5.20635,0.80875 c 3.22583,0.51466 4.35625,0.88228 5.79914,2.13217 1.44288,1.24989 2.11378,3.2534 2.11378,5.55559 0,5.20635 -3.97484,8.25755 -10.48622,8.25755 -4.99957,0 -8.44596,-1.18096 -12.1313,-4.87549 l -3.24421,3.2488 c 4.18162,4.19081 8.56084,5.87265 15.25144,5.87265 9.25471,0 15.3755,-4.80197 15.3755,-12.6138 m -39.6427,12.24618 0,-44.5182 -4.72386,0 0,35.58056 -23.66982,-35.58056 -4.48491,0 0,44.5182 4.73764,0 0,-35.70462 23.65604,35.70462 4.48491,0 z m -42.71689,0 0,-4.25055 -22.88864,0 0,-16.07857 19.50658,0 0,-4.22757 -19.50658,0 0,-15.72474 22.88864,0 0,-4.23677 -27.6125,0 0,44.5182 27.6125,0 z m -43.50726,-22.75997 c 0,5.4453 0.11469,12.07616 -2.95011,15.26062 -2.3022,2.38031 -5.31664,3.2488 -8.74925,3.2488 l -9.69125,0 0,-36.03088 9.69125,0 c 3.43261,0 6.44705,0.88687 8.74925,3.26258 3.06499,3.18906 2.95011,8.82736 2.95011,14.25888 m 4.73764,0 c 0,-6.19432 0.25255,-13.00899 -4.37003,-17.63634 -2.68359,-2.679 -6.63545,-4.12189 -11.25821,-4.12189 l -15.25144,0 0,44.5182 15.25144,0 c 4.62276,0 8.57462,-1.43369 11.25821,-4.12188 4.62276,-4.63195 4.37003,-12.44378 4.37003,-18.63809 m -42.93746,-21.75823 -4.75143,0 0,44.5182 4.75143,0 0,-44.5182 z m -15.34794,44.5182 0,-4.25055 -22.87485,0 0,-16.07857 19.50658,0 0,-4.22757 -19.50658,0 0,-15.72474 22.87485,0 0,-4.23677 -27.61249,0 0,44.5182 27.61249,0 z m -37.51513,-12.24618 c 0,-3.69913 -1.31882,-6.75033 -3.74967,-8.81817 -1.86106,-1.63129 -3.9243,-2.50438 -8.1289,-3.12473 l -4.87549,-0.7628 c -2.31598,-0.36761 -4.63655,-1.25449 -6.0197,-2.43085 -1.36937,-1.19475 -1.98972,-2.94552 -1.98972,-5.12824 0,-4.95361 3.45099,-8.25755 9.38797,-8.25755 4.6871,0 7.63721,1.30963 10.38513,3.80941 l 3.05121,-3.06499 c -3.79563,-3.42802 -7.5453,-4.86631 -13.25712,-4.86631 -8.83196,0 -14.24969,4.99497 -14.24969,12.56325 0,3.56587 1.12582,6.31839 3.36828,8.3127 1.93457,1.70022 4.68709,2.82604 8.19322,3.38206 l 5.19257,0.80875 c 3.25799,0.51466 4.38381,0.88228 5.81751,2.13217 1.44289,1.24989 2.13676,3.2534 2.13676,5.55559 0,5.20635 -4.0116,8.25755 -10.52299,8.25755 -4.99037,0 -8.43677,-1.18096 -12.12211,-4.87549 l -3.25799,3.2488 c 4.18163,4.19081 8.56544,5.87265 15.26522,5.87265 9.25931,0 15.37551,-4.80197 15.37551,-12.6138"
       id="path72"
       style="fill:#000000;fill-opacity:1;fill-rule:nonzero;stroke:none" />
  </g>
</svg>
