<?xml version="1.0" encoding="UTF-8"?>
<svg id="Ebene_1" xmlns="http://www.w3.org/2000/svg" version="1.1" viewBox="0 0 385.8 69.6">
  <!-- Generator: Adobe Illustrator 29.1.0, SVG Export Plug-In . SVG Version: 2.1.0 Build 142)  -->
  <defs>
    <style>
      .st0 {
        fill: #faba05;
      }

      .st1 {
        stroke: #9c9b9b;
        stroke-miterlimit: 3.9;
        stroke-width: .2px;
      }

      .st1, .st2, .st3 {
        fill: none;
      }

      .st4 {
        fill: #615f5c;
      }

      .st5 {
        fill: #ffd400;
      }

      .st6, .st7 {
        fill: #da261b;
      }

      .st8, .st9 {
        fill: #9c9b9b;
      }

      .st8, .st7 {
        fill-rule: evenodd;
      }

      .st10 {
        fill: #1d1d1b;
      }

      .st2 {
        stroke: #da261b;
      }

      .st2, .st3 {
        stroke-width: .1px;
      }

      .st3 {
        stroke: #faba05;
      }
    </style>
  </defs>
  <ellipse class="st6" cx="279" cy="34.8" rx="10.9" ry="11.2"/>
  <path class="st1" d="M42.4,32.2c1.1,0,1.9-.9,1.9-2s-.8-2-1.9-2-1.9.9-1.9,2,.9,2,1.9,2Z"/>
  <path class="st8" d="M41.9,30v-.7h.6c.3,0,.5,0,.5.4s-.4.4-.7.4h-.4M41.9,30.3h.5l.6,1h.3l-.6-1c.4,0,.7-.2.7-.6s-.2-.6-.8-.6h-.9v2.3h.3v-1Z"/>
  <polyline class="st5" points="44.8 23.4 67.2 .3 67.2 23.4 44.9 46.5 44.9 23.4 22.9 23.4 .5 .2 22.5 .2 44.8 23.4"/>
  <path class="st8" d="M9.5,31.5c-.3-.8-1.4-.9-2.7-.9-.6,0-1.1,0-1.1,0v3.1c1.3,0,2.7.4,3.6-.6.4-.4.4-1.1.2-1.6M9.7,36.4c-.7-1.2-2.8-.8-4-.9v3.4c1,0,2.2,0,3.2-.1.4-.2.8-.5,1-1,.1-.4,0-1-.1-1.4M10.6,28.6c1,.3,2,1.3,2.2,2.4.3,1.2-.3,2.2-1.2,2.9-.4.2-.8.4-1.2.6h0c1.1.2,2.1.9,2.6,1.9.4,1.1.2,2.1-.3,3.1-1.1,1.4-2.8,1.8-4.6,1.7H2.1s0-12.9,0-12.9c2.9,0,6.4-.2,8.5.3"/>
  <path class="st9" d="M18.7,28.3v6s2.9-4,4.3-5.9h4l-4.5,5.9,4.8,7.1h-4.3s-4.1-6.8-4.2-6.8c0,2.4,0,6.7,0,6.7h-3.7s0-13,0-13h3.7"/>
  <path class="st9" d="M32.1,28.3v6.1l4.4-6h4.1l-4.6,5.9c1.5,2.4,4.7,7.1,4.7,7.1h-4.3s-4.2-6.7-4.2-6.7v6.7h-3.6v-13h3.6"/>
  <rect class="st5" x="22.8" y="46.5" width="22.1" height="22.9"/>
  <path class="st7" d="M344.9,28.7v2.8c-.9-.2-2.6-.5-2.7.7,0,.8.5,1.1,1,1.5,1.1.9,2.1,1.8,2,4-.2,2.4-2.1,3.8-4.8,3.6-.5,0-1-.1-1.5-.3v-3.1c1,.2,2.2.4,2.5-.6.2-.7-.3-1.1-.6-1.5-1.3-.8-2.3-2.1-2.1-4,.1-2,1.5-3.4,3.5-3.5,1,0,1.9,0,2.7.3"/>
  <path class="st7" d="M352.1,28.7v2.8c-.9-.2-2.5-.5-2.6.7,0,.8.5,1.1,1,1.5,1.1.9,2.1,1.8,2,4-.2,2.4-2,3.8-4.8,3.6-.5,0-1-.1-1.6-.3v-3.1c1,.2,2.2.4,2.5-.6.2-.7-.3-1.1-.6-1.5-1.2-.8-2.2-2.1-2.1-4,.1-2,1.5-3.4,3.5-3.5,1.1,0,1.9,0,2.7.3"/>
  <path class="st7" d="M326.6,28.4h6.9c.3,1.1.5,2.3.7,3.4h-4.3v1.3c.8,0,1.7,0,2.6,0,0,1.1,0,2.3,0,3.4h-2.6c0,.4,0,.8,0,1.3,1.4,0,2.8,0,4.3,0-.2,1.2-.5,2.3-.7,3.4h-6.9v-12.8s0,0,0,0"/>
  <path class="st7" d="M334.9,28.4h3.2v12.9h-3.2v-12.8s0,0,0,0"/>
  <path class="st7" d="M353.1,28.4h6.9c.3,1.1.5,2.3.7,3.4h-4.3v1.3c.8,0,1.7,0,2.6,0,0,1.1,0,2.3,0,3.4h-2.6c0,.4,0,.8,0,1.3,1.4,0,2.8,0,4.2,0-.2,1.2-.4,2.3-.7,3.4h-6.9v-12.8s0,0,0,0"/>
  <path class="st7" d="M315.9,28.4c.3,1.6.6,3.1.8,4.7.2,0,.2-.3.3-.5.7-1.3,1.5-2.8,2.3-4.1.8,1.6,1.6,3.1,2.3,4.6.4-1.6.6-3.2,1-4.8h3.2c-.5,4.3-1.1,8.6-1.6,12.9h-2.6c-.8-1.6-1.6-3.2-2.4-4.8-.8,1.6-1.6,3.2-2.4,4.8h-2.6c-.5-4.3-1.2-8.6-1.6-12.9h3.1"/>
  <path class="st7" d="M368.3,35.8c.9,1.9,1.7,3.7,2.6,5.5h-2.8c-.2,0-.7,0-.9,0-.2,0-.6-1-.7-1.2-.6-1.2-1.3-2.5-1.9-3.6v4.8h-3.4v-12.9c2,.1,5-.4,6.6.3.2,0,.4.2.6.4,1.5,1.1,2.1,3.6,1,5.5-.3.5-.7.7-1.2,1.1M366.8,32.8c0-1.2-.9-2-2-1.8-.1,1,0,2.2,0,3.3,1.2.1,2-.5,2.1-1.5"/>
  <path class="st6" d="M303.6,35.1c0,1.1-.9,2-1.9,2s-1.9-.9-1.9-2,.9-2,1.9-2,1.9.9,1.9,2"/>
  <path class="st10" d="M259.5,29.5v-.5h.4c.2,0,.4,0,.4.2s-.1.3-.3.3h-.5M260.2,29.8c.3,0,.5-.2.5-.5,0-.5-.3-.6-.7-.6h-.9v1.9h.4v-.8h.3l.4.8h.4l-.4-.8ZM259.8,31.5c1,0,1.8-.8,1.8-1.8s-.8-1.8-1.8-1.8-1.8.8-1.8,1.8.8,1.8,1.8,1.8M259.8,31c-.8,0-1.4-.6-1.4-1.4s.6-1.4,1.4-1.4,1.3.6,1.3,1.4-.6,1.4-1.3,1.4"/>
  <path class="st6" d="M184.7,36c1.8-.3,3-1.9,3.3-3.6.4-2.7-1.3-4-3.7-4h-4.8l-2,12.8h3.2l.7-4.9h0l2.3,4.9h4l-3.1-5.3M182.3,31h.3c1.1,0,2.2.2,2,1.6-.2,1.4-1.4,1.6-2.5,1.6h-.3l.5-3.2Z"/>
  <path class="st2" d="M182.3,31.1h.3c1.1,0,2.2.2,2,1.6-.2,1.4-1.4,1.6-2.5,1.6h-.3l.5-3.2Z"/>
  <path class="st2" d="M184.7,36.1c1.8-.3,3-1.9,3.3-3.6.4-2.7-1.3-4-3.7-4h-4.8l-2,12.8h3.2l.7-4.9h0l2.3,4.9h4l-3.1-5.3Z"/>
  <polyline class="st6" points="193.6 41.3 190.3 41.3 192.3 28.5 195.5 28.5 193.6 41.3"/>
  <polygon class="st2" points="193.6 41.3 190.3 41.3 192.3 28.5 195.5 28.5 193.6 41.3"/>
  <path class="st6" d="M207.5,32.8c-.5-.9-1.5-1.4-2.6-1.4-2,0-3.6,1.6-3.9,3.6-.3,2,.8,3.5,2.8,3.5s2.2-.5,3-1.4l-.6,4c-1.1.3-1.9.6-2.9.6-1.7,0-3.3-.7-4.4-1.9-1.2-1.3-1.5-2.9-1.2-4.8.3-1.8,1.2-3.4,2.5-4.7,1.4-1.3,3.3-2.1,5-2.1s2,.2,2.8.6l-.6,4"/>
  <path class="st2" d="M207.5,32.8c-.5-.9-1.5-1.4-2.6-1.4-2,0-3.6,1.6-3.9,3.6-.3,2,.8,3.5,2.8,3.5s2.2-.5,3-1.4l-.6,4c-1.1.3-1.9.6-2.9.6-1.7,0-3.3-.7-4.4-1.9-1.2-1.3-1.5-2.9-1.3-4.8.3-1.8,1.2-3.4,2.5-4.7,1.4-1.3,3.3-2.1,5-2.1s2,.2,2.8.6l-.6,4Z"/>
  <path class="st6" d="M218.1,28.1c-3.6,0-7.3,2.7-7.9,6.6-.6,4.2,1.8,7.1,5.8,7.1s7.3-2.9,8-7.1c.6-3.9-2.3-6.6-5.8-6.6M217.6,31.3c1.9,0,3.3,1.6,3,3.4-.3,2.2-2.2,3.8-4.1,3.8s-3.3-1.6-2.9-3.8c.3-1.8,2.1-3.4,4-3.4"/>
  <path class="st2" d="M217.6,31.3c1.9,0,3.3,1.6,3,3.4-.3,2.2-2.2,3.8-4.1,3.8s-3.3-1.6-2.9-3.8c.3-1.8,2.1-3.4,4-3.4Z"/>
  <path class="st2" d="M218.1,28.1c-3.6,0-7.3,2.7-7.9,6.6-.6,4.2,1.8,7.1,5.8,7.1s7.3-2.9,8-7.1c.6-3.9-2.3-6.6-5.8-6.6Z"/>
  <path class="st6" d="M234.3,31.8c-.5-.5-1.2-.8-2-.8s-1.4.4-1.5,1.1c-.1.8.7,1,1.2,1.2l.8.2c1.6.5,2.8,1.4,2.5,3.5-.2,1.3-.7,2.6-1.8,3.4-1.1.9-2.5,1.2-3.7,1.2s-3-.5-4.1-1.5l1.8-2.7c.7.7,1.6,1.3,2.7,1.3s1.6-.4,1.8-1.3c.1-.9-1.1-1.2-1.7-1.5-1.9-.6-3.2-1.1-2.8-3.6.4-2.6,2.5-4.3,4.9-4.3s2.7.4,3.7,1.1l-1.7,2.6"/>
  <path class="st2" d="M234.3,31.8c-.5-.5-1.2-.8-2-.8s-1.4.4-1.5,1.1c-.1.8.7,1,1.2,1.2l.8.2c1.6.5,2.8,1.4,2.5,3.5-.2,1.3-.7,2.6-1.8,3.4-1.1.8-2.5,1.2-3.7,1.2s-3-.5-4.1-1.5l1.8-2.7c.7.7,1.6,1.3,2.7,1.3s1.6-.4,1.8-1.3c.1-.9-1.1-1.2-1.7-1.5-1.9-.6-3.2-1.1-2.8-3.6.4-2.6,2.5-4.3,4.9-4.3s2.7.4,3.7,1.1l-1.7,2.6Z"/>
  <polyline class="st6" points="242.8 41.3 239.5 41.3 241.1 31.3 238.4 31.3 238.8 28.5 247.4 28.5 247 31.3 244.3 31.3 242.8 41.3"/>
  <polygon class="st2" points="242.8 41.3 239.5 41.3 241.1 31.3 238.4 31.3 238.8 28.5 247.4 28.5 247 31.3 244.3 31.3 242.8 41.3"/>
  <path class="st6" d="M255,39.1l.5,2.2h3.4l-2.7-12.8h-3.5l-6.7,12.8h3.4l1.2-2.2h4.4M254.5,36.5h-2.7l2-4.1h0l.7,4.1Z"/>
  <polygon class="st2" points="254.5 36.6 251.8 36.6 253.8 32.5 253.8 32.5 254.5 36.6"/>
  <polygon class="st2" points="255 39.1 255.4 41.3 258.9 41.3 256.2 28.5 252.6 28.5 245.9 41.3 249.3 41.3 250.5 39.1 255 39.1"/>
  <path class="st0" d="M275.7,31.9c.3-.2,1.2-.5,1.9-.3.9.3,1.6.4,2.2.2.6-.2,2-.7,2.8-.4.8.3,1.3,1.4,1,2.3-.4,1.1-.8,1.4-3.1,2.1-.8.2-1.6.8-1.9,2-.2,1.1.7,1.2.9,2.6.2,1.3-.4,3-2.1,3.2-1.7.2-2.4-1.3-2.7-2-.3-.8-.4-1.1-.5-1.9,0-.4,0-1.4,0-2.3,0-1.6-.4-2.5,0-3.5.5-1.6,1.3-1.8,1.6-2"/>
  <path class="st3" d="M275.7,31.9c.3-.2,1.2-.5,1.9-.3.9.3,1.6.4,2.2.2.6-.2,2-.7,2.8-.4.8.3,1.3,1.4,1,2.3-.4,1.1-.8,1.4-3.1,2.1-.8.2-1.6.8-1.9,2-.2,1.1.7,1.2.9,2.6.2,1.3-.4,3-2.1,3.2-1.7.2-2.4-1.3-2.7-2-.3-.8-.4-1.1-.5-1.9,0-.4,0-1.4,0-2.3,0-1.6-.4-2.5,0-3.5.5-1.6,1.3-1.8,1.6-2Z"/>
  <path class="st0" d="M284.5,28.2c-.3-1.3-1.6-1.4-2.2-.5-.3.4-.6,1.1-.6,1.8,0,.7.5,1.3,1,1.4.6.2,1.3-.2,1.6-1.2.3-.7.3-1.2.2-1.6"/>
  <path class="st3" d="M284.5,28.2c-.3-1.3-1.6-1.4-2.2-.5-.3.4-.6,1.1-.6,1.8,0,.7.5,1.3,1,1.4.6.2,1.3-.2,1.6-1.2.3-.7.3-1.2.2-1.6Z"/>
  <path class="st0" d="M279.6,29.4c0,.5.4,1.1.9,1.1.4,0,.7-.5.7-1.1,0-.6,0-1.1-.4-1.3-.3-.2-.7-.1-1,.2-.2.2-.2.6-.2,1.1"/>
  <path class="st3" d="M279.6,29.4c0,.5.4,1.1.9,1.1.4,0,.7-.5.7-1.1,0-.6,0-1.1-.4-1.3-.3-.2-.7-.1-1,.2-.2.2-.2.6-.2,1.1Z"/>
  <path class="st0" d="M277.8,29.6c0,.4.4,1,.8,1,.4,0,.6-.4.6-.9,0-.6,0-1-.4-1.1-.3-.1-.6,0-.9.2-.2.2-.2.5-.2.9"/>
  <path class="st3" d="M277.8,29.6c0,.4.4,1,.8,1,.4,0,.6-.4.6-.9,0-.6,0-1-.4-1.1-.3-.1-.6,0-.9.2-.2.2-.2.5-.2.9Z"/>
  <path class="st0" d="M276.1,30.2c0,.3.3.8.8.8.3,0,.5-.3.6-.8.1-.6,0-1-.4-1.1-.3-.1-.7,0-.8.3-.1.2-.1.5,0,.8"/>
  <path class="st3" d="M276.1,30.2c0,.3.3.8.8.8.3,0,.5-.3.6-.8.1-.6,0-1-.4-1.1-.3-.1-.7,0-.8.3-.1.2-.1.5,0,.8Z"/>
  <path class="st0" d="M275.1,30.3c.4,0,.7.1.7.7,0,.4-.2.7-.4.8-.3,0-.7-.2-.7-.5-.2-.5,0-.9.4-1"/>
  <path class="st3" d="M275.1,30.3c.4,0,.7.1.7.7,0,.4-.2.7-.4.8-.3,0-.7-.2-.7-.5-.2-.5,0-.9.4-1Z"/>
  <path class="st6" d="M87.7,35.5v-1.7c0-.6.2-1.2.7-1.6.4-.4,1-.7,1.5-.7h5.1v-3.1h-5.5s-.6,0-.6,0h0c-2.7.4-4.8,2.7-4.8,5.6v.3h0s0,6.9,0,6.9h3.6s0-5.9,0-5.9"/>
  <rect class="st6" x="96" y="28.4" width="3.7" height="13"/>
  <path class="st6" d="M115.4,41.4s-7.3,0-8.7,0-5.9-1.9-5.9-6.4,4.1-6.7,7.1-6.7,7.5,1.9,7.5,5.3v3h-8.5v-2.9h4.4s0-2.1-3.3-2.1-3.3,2.6-3.3,3.2c0,0,0,3.2,2.6,3.2h8.2v3.4"/>
  <polyline class="st6" points="116.7 41.5 116.7 22.4 120.4 22.4 120.4 33 120.5 33 126.4 28.4 131.4 28.4 124 34.9 132.4 41.5 126.6 41.5 120.6 36.5 120.5 36.5 120.5 41.5 116.7 41.5"/>
  <path class="st6" d="M144.4,41.5s-7.3,0-8.7,0-5.9-1.9-5.9-6.4,4.1-6.7,7.1-6.7,7.5,1.9,7.5,5.3v3h-8.6v-2.9h4.4s.1-2.1-3.3-2.1-3.4,2.6-3.4,3.3c0,0,0,3.1,2.6,3.1h8.2v3.4"/>
  <path class="st6" d="M150.8,28.6h-.3s-.2,0-.2,0c-2.7.3-4.8,2.7-4.8,5.5v.3s0,6.9,0,6.9h3.6v-5.9s0-1.7,0-1.7c0-.6.2-1.2.6-1.6.4-.4,1-.7,1.6-.7h5.1v-3.1h-5.5"/>
  <path class="st6" d="M101.5,23.2c.4.3,1,1.2,2.4,1.2-.4-.4-1.3-1.4-1.4-1.9-.8-1.2.2-1.3,1.3-1.3v-2c-.4,0-1.3.2-1.2-.4.4-.4.8-.6,1.4-.5.8.2.9,1.3.6,2.2v.3c0,.8,0,1,.2,1.7.2.4.5.7,1,.6.9-.1,2-.9,2.2-1.9-.3,0-.5,0-.7-.3.3-1.7,1.5-2.9,1.8-4.6,0-.7-.3-1.4-.9-1.9-1.1-.8-2.5-.8-3.8-.2-2.1.6-3.7,2.7-4,4.8-.2,0-.4.2-.6,0,.3-1.7,1.5-3.1,1.9-4.7.9-3.3-1.3-6.2-3.8-7.9-1.8,1.6-3.3,3.1-4,5.2-.7,3,1.4,4.9,2,7.5h-.1c-.2,0-.3,0-.6,0-.2-1.6-1.1-3.4-2.6-4.2-1.5-1.1-3.4-1.4-5.2-.2-2.1,2.3,1,4.1,1,6.5-.2.1-.3.4-.6.3.3.9,1,1.6,2.3,1.8,2-.8.2-4.1,1.5-5,.5-.3,1.2,0,1.5.5-.3.3-.8.1-1.2.2v2.1c.6-.1,1.1.1,1.3.3.6.7,0,1.5-.2,1.9-.3.3-.5.7-1.1,1,1.2.2,1.9-.5,2.7-1.2.6-.7.6-2.1,1.6-1.4-.3,1.2-.9,2.3-1.6,3.2,1,.9,2.1,1.6,3.3,2.5l3.2-2.5c-1-1.1-1.6-3.3-1.6-3.3.7-.5,1.3,1.1,1.9,1.6"/>
  <path class="st6" d="M167.2,35c0,1.1-.9,2-2,2s-2-.9-2-2,.9-2,2-2,2,.9,2,2"/>
  <path class="st4" d="M334.3,43.1s7.5,9.3,24.6,8.5c14.3-.5,24.6-8,24.6-16.6-.2-11.1-14.8-16.4-24.9-16.6,0,0-15-1.2-24.3,8.4,0,0,6.9-9.8,24.2-9.8s26.8,7.1,26.8,18.1c-.3,11.5-14.9,17.8-26.3,17.8-7,.2-18.5-1.9-24.6-9.8"/>
</svg>