<svg xmlns="http://www.w3.org/2000/svg" id="Ebene_1" viewBox="0 0 115.4 56.3"><defs><style>      .st0 {        fill: #a01e22;      }      .st1 {        fill: #ef8123;      }      .st2 {        fill: #2d2d2e;      }      .st3 {        fill: #fff;      }      .st4 {        fill: #fcdc29;      }      .st5 {        fill: #fab81b;      }      .st6 {        fill: #db4127;      }      .st7 {        fill: #6d6f71;      }    </style></defs><rect id="Hintergrund" class="st3" x="1.4" y=".7" width="112.5" height="54.9"></rect><g><path class="st2" d="M1.2,30.1h7.4c2.5,0,4.7,3.1,4.7,6.7s-2.2,6.8-4.7,6.8H3.7v6.1c-.4,0-.8,0-1.3,0-.8,0-1.3,0-1.3,0,0,0,0-19.6,0-19.6ZM8.1,41.2c1.5,0,2.5-2.2,2.5-4.5s-1-4.5-2.5-4.5H3.7v9h4.3Z"></path><path class="st2" d="M22.2,37.6c0,.6,0,1,0,1-.7,0-1.4-.1-2-.1-1.1,0-1.9,0-1.9,0v11c-.4,0-.8,0-1.1,0-.7,0-1.3,0-1.3,0v-12.8s1.7-.4,3.9-.4,1.5,0,2.4.2c0,.3,0,.7,0,1"></path><path class="st2" d="M29.1,36.4c3.8,0,5.4,2.3,5.4,6.1s-1.1,7.3-5.4,7.3-5.3-2.6-5.3-7.1,1-6.4,5.3-6.4M29.1,47.8c2.7,0,3-1.7,3-5.3s-.8-4.1-3-4.1-2.9,1.4-2.9,4.3.6,5,2.9,5"></path><path class="st2" d="M44.1,49.6s-.6,0-1.5,0-1.5,0-1.5,0c0,0-3.5-6.1-5.7-19.3,0,0,1.1-.4,2.6-.5,1.5,9.5,4.6,17.6,4.6,17.6h.1s3.2-8.1,4.7-17.6c1.4,0,2.4.5,2.4.5-2.2,13.2-5.7,19.3-5.7,19.3"></path><path class="st2" d="M54.9,33c0,.7,0,1.3,0,1.3,0,0-.6.1-1.3.1s-.8,0-1.2-.1c0-.3-.1-.7-.1-1,0-.7.1-1.2.1-1.2.4,0,.8,0,1.2,0,.8,0,1.3,0,1.3,0,0,.3,0,.7,0,1M54.7,49.6s-.5,0-1.3,0-.8,0-1.1,0v-13.1c.4,0,.8,0,1.1,0,.7,0,1.3,0,1.3,0v13.1Z"></path><path class="st2" d="M58.8,33.5l2.3-.5v3.6h3.4s0,.4,0,1,0,.7,0,1h-3.4v11s-.6,0-1.3,0-.7,0-1.1,0v-16.1h0Z"></path><path class="st2" d="M66.5,46.1c0-2.4,1.5-4.1,4.6-4.1h2.8v-1.5c0-1.3-1-2-2.4-2s-2.4.3-3,.9c0,0-1-.6-1.6-1.6.9-.9,2.9-1.5,4.5-1.5,3,0,4.7,1.2,4.7,4.2v8.9s-2.4.3-5.4.3-4.4-1.3-4.4-3.7M74,47.7v-3.8h-2.8c-2.1,0-2.4,1-2.4,2.2s.3,1.8,2.1,1.8,3.1-.2,3.1-.2"></path><path class="st7" d="M1.2,12.7h2.8c1.7,0,2.7.8,2.7,3.2s-1.3,2.7-1.3,2.7c0,0,1.5.5,1.5,3s-1,3.4-2.7,3.4H1.1v-12.3h0ZM3.6,18.1c1.6,0,2-.5,2-2.2s-.5-2.2-1.6-2.2h-1.6v4.4h1.3,0ZM2.3,19.1v4.9h1.8c1.1,0,1.7-.6,1.7-2.4s-.5-2.4-2-2.4h-1.5Z"></path><path class="st7" d="M9.9,18.2h0l4-5.7c.7,0,1.3,0,1.3,0l-4.3,5.8,4.2,6.4s-.6.1-1.3.1l-4-6.1h0v6.1h-1.1v-12.3h1v5.6h0Z"></path><path class="st7" d="M17.8,18.2h0l4-5.7c.7,0,1.3,0,1.3,0l-4.3,5.8,4.2,6.4s-.6.1-1.3.1l-4-6.1h0v6.1h-1.1v-12.3h1v5.6h0Z"></path><path class="st0" d="M110.3,22.7c0,0-.2-.1-.3-.1s-.1,0-.3,0c-2.4,1.6-4.3,2.6-5.8,2.7.8-.7,1.5-1.8,1.5-2.9,0-1.7-1-2.6-2.3-2.7-1.3,0-2.5.7-2.6,2.4,0,.9.3,2,.9,2.7h0c-.7-.4-1.5-1-2.3-1.8-2.1-2.1-6.1-4.6-10.1-5.1h0c-.2,0-.4.1-.4.4s.1.4.3.5c0,0,1.3.3,3,1.3,1.5.8,3.5,2.4,4.8,4.7,1.5,2.8,1.5,6.4.3,10.2,0,.2,0,.3.1.5s.2.1.3.1h.2c1.7-.8,4.5-2.9,6.8-5.2,2.2-2.2,5-5,6.1-7.2,0-.2,0-.4,0-.6"></path><path class="st1" d="M106.8,1.1c-1.5-.6-2.9-.8-4.4-.8s-2.6.3-4,.8c-2.9,1-5.1,3.1-6.7,6.2-1.4,2.7-2.2,5.9-3,8.9-.2.8-.4,1.5-.6,2.2,0,.2,0,.5.3.6h.1c.2,0,.3-.1.4-.3,1.2-3.1,3.3-7.3,4.7-9.4,1-1.5,1.8-2,2.7-2.1-.6.6-1.3,1.6-1.5,2.4-.3,1.7.6,2.7,1.9,2.9,1.3.3,2.6-.3,2.9-2,.2-1.1-.2-2.4-.8-3.2.4.3,1,.9,1.3,1.5,1.2,2.1.9,4.7-1.5,8.9-.1.2,0,.4.1.6,0,0,.2,0,.3,0,.1,0,.2,0,.3-.1,1-.9,2-2.4,2.8-3.8.8-1.5,1-3.3.7-4.8,0-.3-.1-.5-.1-.8-.4-1.8-.3-3.2.3-5,.3-1,1.5-2,2.7-2s.5,0,.7.1h.1c.2,0,.3-.1.4-.3,0-.2,0-.5-.3-.6"></path><path class="st5" d="M92.2,6c-1.4-1.8-3.5-3.2-5.8-4.1-1.7-.6-3.7-1-5.4-.9-.4,0-.8,0-1.1.1-1.6.3-3.3,1-4.7,2-1,.7-1.9,1.5-2.7,2.7-.6.8-1,1.7-1.3,2.5-.1.4-.3.8-.4,1.3,0,.3,0,.5.2.6h.2c.1,0,.3,0,.4-.3.4-.8,1.7-1.9,2.9-2,.6,0,1.3,0,1.7.3,1.2.5,2.4,2.7,3.3,4.1.4.6.8,1.3,1.3,1.7,1.9,2.3,4.7,4.1,7.9,5h.1c.1,0,.3,0,.4-.3s0-.4-.1-.6c-6.7-4.5-7.8-8.2-7.6-10.2.3.8,1,1.8,1.7,2.2,1.5,1,2.9.5,3.8-.8.8-1.3.7-2.7-.8-3.8-1.2-.8-3.1-.6-4.1-.3.8-.8,1.9-1.1,2.7-1.2,2.7-.2,4.7.9,7.2,2.3h.2c.1,0,.3,0,.3-.1.1-.1.1-.4,0-.6"></path><path class="st4" d="M89,18.5c0-.2-.2-.4-.5-.4h0c-3.8.5-6.2,1.5-8,2.2-.8.3-1.3.5-1.8.6.9-.5,1.7-1.7,1.8-2.9.2-1.7-.8-2.6-2.1-2.7-1.3-.1-2.5.5-2.7,2.2-.1,1,.3,2.3.9,3.1-1.2-.5-2.6-2.5-3.2-4.2-1-2.7-1.4-4.1-1.9-6.8,0-.2-.3-.3-.5-.3s-.4.1-.4.4c-.2,1.2-.2,4.2.8,7.8.6,2,1.3,3.7,2.4,5.4,1.2,2,2,3.3,4.2,5.7,0,0,.3.1.3.1.1,0,.4,0,.5-.2.3-.3,2.3-7.5,9.8-9.4.2,0,.3-.4.3-.6"></path><path class="st6" d="M110.3,3.5c-1.7-1.6-3.4-2.4-3.5-2.4h-.2c-.1,0-.3,0-.3.2-.1.2-.1.4,0,.6,1,.8,2.9,2.2,4.3,5.1.6,1.2,1,3.8.8,4.5-.2-1-.8-2.1-1.5-2.7-1.4-1.2-2.9-.9-3.8.2-1,1.1-1.1,2.6.3,3.8,1,.8,2.6,1.2,3.7,1-.5.4-.8.8-1.6,1-.4.1-1,.1-1.6.2-2.2.1-5.2.1-8,2.7-.2.1-.2.4,0,.6,0,.1.2.2.3.2s.1,0,.2,0c1.1-.7,2.2-1.1,3.2-1.1,3.4,0,6,3.7,6.9,5.9,0,.1.3.3.4.3h0c.1,0,.3,0,.3-.2,1-1.5,1.6-2.9,2.4-4.7.9-2.2,1.4-4.3,1.3-7.3,0-2.9-1.3-5.7-3.7-7.8"></path><path class="st7" d="M95.3,35.3c-.1-2-.8-13.8-6.6-17h-.2c-.1,0-.3,0-.4.2-.1.2-.1.4,0,.6,3.4,3.3,5.1,12.3,2.3,12.9.4-1,.5-2.7,0-3.8-.8-1.7-2.3-2-3.7-1.4s-1.9,2-1.3,3.6c.3.8,1,1.5,2.7,2.4-3.9,0-9.6-5-9.7-5,0,0-.1,0-.2,0-.1,0-.3,0-.4.1-.1.1-.2.4,0,.6,2.5,2.8,5.6,4.6,8,6.4,3.7,2.8,2,9.4-1.4,12.4-1.3,1-2.1,1.5-2.1,2h0c0,.3.5.6,1,.6s.2,0,.3,0c2.2-.2,5.8-4.1,6.9-6.2,1.8,2.6-.7,9.7-.9,11.1h0c0,.3.3.6.6.6s.1,0,.2,0h0c2.8-1,5.1-13.8,4.8-20.1"></path></g></svg>