<svg width="120" height="120" viewBox="0 0 120 120" fill="none" xmlns="http://www.w3.org/2000/svg">
	<path d="M120 0H0V120H120V0Z" fill="#009EE3"/>
	<path d="M52.4021 35.5556V57.7778H33.9048V35.5556H19.9788V19.9788H66.2857V35.5556H52.4021Z" fill="white"/>
	<path d="M75.8942 35.5556H99.8095L77.545 57.7778L100.952 80.0423H77.037L54.8148 57.7778L75.8942 35.5556Z" fill="white"/>
	<path d="M33.2698 69.8836C33.7354 69.8836 34.0741 69.9683 34.2857 70.1799C34.4974 70.3916 34.582 70.6878 34.582 71.0688C34.582 71.4498 34.4974 71.746 34.2857 71.9577C34.0741 72.1693 33.7354 72.254 33.2698 72.254C32.8042 72.254 32.4656 72.1693 32.254 71.9577C32.0423 71.746 31.9577 71.4498 31.9577 71.0688C31.9577 70.6878 32.0423 70.3916 32.254 70.1799C32.5079 69.9683 32.8042 69.8836 33.2698 69.8836ZM32.2116 73.7355L34.3704 73.4392V82.7937H32.2116V73.7355Z" fill="white"/>
	<path d="M20.3175 70.1376C20.4021 70.1376 24.2963 70.1376 24.2963 70.1376C25.3545 70.1376 26.2434 70.2646 26.9206 70.5609C27.5979 70.8572 28.1905 71.2381 28.5714 71.7461C28.9947 72.254 29.291 72.8466 29.4603 73.5238C29.6296 74.2011 29.7143 74.963 29.7143 75.7672V77.0794C29.7143 77.9259 29.6296 78.6879 29.4603 79.3651C29.291 80.0423 28.9947 80.6349 28.5714 81.1429C28.1481 81.6508 27.5979 82.0318 26.8783 82.3281C26.1587 82.6244 25.3122 82.7513 24.254 82.7513H19.9788C19.9788 82.7513 19.9788 70.5185 19.9788 70.4339C19.9788 70.2646 20.1481 70.1376 20.3175 70.1376ZM22.2222 80.9312H24.0847C24.6349 80.9312 25.1429 80.8466 25.5661 80.7196C25.9894 80.5926 26.328 80.381 26.6243 80.0847C26.9206 79.7884 27.1323 79.3651 27.2593 78.8572C27.3862 78.3492 27.4709 77.7143 27.4709 76.9524V75.8942C27.4709 75.1323 27.3862 74.4974 27.2593 73.9894C27.1323 73.4815 26.9206 73.0582 26.6243 72.7619C26.328 72.4656 25.9894 72.254 25.5661 72.127C25.1429 72 24.6772 71.9577 24.0847 71.9577H22.2222V80.9312Z" fill="white"/>
	<path d="M43.8518 74.2857C43.1746 73.6508 42.2434 73.3545 41.0159 73.3545C40.2963 73.3545 39.6614 73.4815 39.1111 73.6931C38.6032 73.9048 38.1376 74.2011 37.7989 74.582C37.4603 74.963 37.2063 75.4286 37.037 75.9789C36.8677 76.5291 36.7831 77.1217 36.7831 77.799V78.5609C36.7831 79.2804 36.8677 79.9154 36.9947 80.4656C37.1217 81.0159 37.3757 81.4815 37.7566 81.8624C38.0952 82.2434 38.5608 82.5397 39.1111 82.709C39.6614 82.8783 40.3809 83.0053 41.1852 83.0053C41.4391 83.0053 41.6931 83.0053 41.9894 82.963C42.2434 82.963 42.5397 82.9207 42.7936 82.8783C43.0476 82.836 43.3016 82.7937 43.5132 82.7513C43.7249 82.709 43.9365 82.6667 44.1058 82.582L44.4021 81.0582C43.8942 81.1429 43.4709 81.2275 43.0899 81.2699C42.709 81.3122 42.328 81.3122 41.9471 81.3122C41.0582 81.3122 40.4233 81.2275 39.9577 81.0159C39.5344 80.8043 39.2381 80.4656 39.0688 79.9154L44.6561 77.4603C44.7831 77.418 44.8254 77.3334 44.8254 77.2064V76.9524C44.8254 75.8095 44.4868 74.9207 43.8518 74.2857ZM39.4074 75.5979C39.7037 75.1746 40.254 74.963 40.9735 74.963C41.5661 74.963 42.0317 75.09 42.2857 75.3863C42.5397 75.6402 42.709 76.0212 42.7936 76.5291L38.9418 78.2646V77.7143C38.9418 76.6984 39.1111 76.0212 39.4074 75.5979Z" fill="white"/>
	<path d="M29.9259 87.2381L29.672 89.1005H25.9471V100.021H23.7037V89.1005H19.7672L19.9788 87.2381H29.9259Z" fill="white"/>
	<path d="M45.9683 99.8095C45.5873 99.9365 45.2064 100.021 44.8254 100.063C44.4444 100.106 44.0635 100.148 43.6402 100.148C42.836 100.148 42.1587 100.063 41.6085 99.8519C41.0582 99.6402 40.6349 99.3439 40.3386 98.963C40 98.582 39.7884 98.1164 39.6614 97.5661C39.5344 97.0159 39.4497 96.4233 39.4497 95.7884V94.8571C39.4497 94.1799 39.5344 93.5873 39.7037 93.0794C39.873 92.5291 40.127 92.0635 40.5079 91.6825C40.8466 91.3016 41.3122 91.0053 41.8624 90.7936C42.4127 90.582 43.0899 90.4974 43.8519 90.4974C44.3175 90.4974 44.7407 90.5397 45.164 90.6243C45.5873 90.709 45.9683 90.7936 46.3069 90.8783L45.9683 92.4444C45.7143 92.3598 45.4603 92.3175 45.164 92.2751C44.8677 92.2328 44.5714 92.1905 44.2328 92.1905C43.3016 92.1905 42.6243 92.4021 42.2434 92.7831C41.8624 93.2063 41.6508 93.8836 41.6508 94.8571V95.619C41.6508 96.6349 41.8624 97.3545 42.2857 97.7778C42.709 98.2011 43.3862 98.4127 44.3598 98.4127C44.6984 98.4127 45.037 98.4127 45.3333 98.3704C45.672 98.328 45.9683 98.2857 46.2646 98.2011L45.9683 99.8095Z" fill="white"/>
	<path d="M48.5503 99.9788V86.8571L50.7513 86.5608V91.5132C51.0476 91.1746 51.4286 90.9206 51.8942 90.7513C52.3598 90.582 52.8677 90.4974 53.418 90.4974C53.9259 90.4974 54.3915 90.582 54.7725 90.709C55.1958 90.836 55.5344 91.0476 55.8307 91.3016C56.127 91.5556 56.381 91.8942 56.5079 92.3175C56.6773 92.7407 56.7619 93.2063 56.7619 93.7566V100.021H54.5608V94.3492C54.5608 93.5873 54.4339 93.0794 54.1376 92.7407C53.8836 92.4444 53.418 92.2751 52.7407 92.2751C52.0212 92.2751 51.5132 92.4444 51.1746 92.8254C50.836 93.2063 50.6667 93.7989 50.6667 94.6032V100.021L48.5503 99.9788Z" fill="white"/>
	<path d="M59.5132 99.9788V90.7936L61.3757 90.5397L61.545 91.6825C61.8413 91.3016 62.2222 91.0053 62.6878 90.7936C63.1534 90.582 63.7037 90.4974 64.2963 90.4974C64.8042 90.4974 65.2698 90.582 65.6508 90.709C66.0741 90.836 66.4127 91.0476 66.709 91.3016C67.0053 91.5556 67.2593 91.8942 67.3862 92.3175C67.5556 92.7407 67.6402 93.2064 67.6402 93.7566V100.021H65.4392V94.3492C65.4392 93.5873 65.3122 93.0794 65.0159 92.7407C64.7619 92.4444 64.2963 92.2751 63.619 92.2751C62.8995 92.2751 62.3915 92.4444 62.0529 92.8254C61.7143 93.2064 61.545 93.7989 61.545 94.6032V100.021L59.5132 99.9788Z" fill="white"/>
	<path d="M71.6614 86.9841C72.127 86.9841 72.4656 87.0688 72.6772 87.2804C72.8889 87.492 72.9735 87.7883 72.9735 88.1693C72.9735 88.5502 72.8889 88.8465 72.6772 89.0582C72.4656 89.2698 72.127 89.3545 71.6614 89.3545C71.1958 89.3545 70.8571 89.2698 70.6455 89.0582C70.4339 88.8465 70.3492 88.5502 70.3492 88.1693C70.3492 87.7883 70.4339 87.492 70.6455 87.2804C70.8571 87.0688 71.1958 86.9841 71.6614 86.9841ZM70.5608 90.836L72.7619 90.5397V99.9788H70.5608V90.836Z" fill="white"/>
	<path d="M77.7989 95.7037V99.9788H75.7249V86.8571L77.7989 86.5608V94.1376L81.3968 90.709H83.8519L79.4921 94.8571L84.0212 100.021H81.4815L77.7989 95.7037Z" fill="white"/>
	<path d="M100.571 92.5714C100.444 92.5291 100.275 92.4868 100.063 92.4444C99.8519 92.4021 99.6402 92.4021 99.4286 92.4021C98.6243 92.4021 98.0741 92.6138 97.7355 93.037C97.3968 93.4603 97.2275 94.0952 97.2275 94.9418V99.9788H95.0265V90.7936L96.8889 90.5397L97.0582 91.8095C97.3545 91.3862 97.7354 91.0899 98.1587 90.8783C98.582 90.6667 99.1323 90.582 99.7672 90.582C100.021 90.582 100.233 90.582 100.402 90.6243C100.571 90.6667 100.783 90.709 100.995 90.7936L100.571 92.5714Z" fill="white"/>
	<path d="M36.4021 91.4286C35.7249 90.7937 34.7937 90.4974 33.5661 90.4974C32.8466 90.4974 32.1693 90.6243 31.6614 90.836C31.1111 91.0476 30.6878 91.3439 30.3492 91.7672C30.0106 92.1481 29.7566 92.6138 29.5873 93.164C29.418 93.7143 29.3333 94.3069 29.3333 94.9841V95.746C29.3333 96.4656 29.418 97.1429 29.545 97.6931C29.7143 98.2434 29.9259 98.709 30.3069 99.09C30.6455 99.4709 31.1111 99.7672 31.7037 99.9365C32.254 100.148 32.9735 100.233 33.8201 100.233C34.0741 100.233 34.3704 100.233 34.6243 100.19C34.8783 100.19 35.1746 100.148 35.4286 100.106C35.6825 100.063 35.9365 100.021 36.1481 99.9788C36.3598 99.9365 36.5714 99.8942 36.7407 99.8095L37.037 98.2434C36.5291 98.328 36.1058 98.4127 35.7249 98.455C35.3439 98.4974 34.963 98.4974 34.582 98.4974C33.6931 98.4974 33.0159 98.4127 32.5926 98.2011C32.1693 97.9894 31.873 97.6508 31.7037 97.1005L37.3333 94.6032C37.4603 94.5608 37.5026 94.4762 37.5026 94.3492V94.0952C37.418 92.9524 37.0794 92.0635 36.4021 91.4286ZM31.9577 92.7407C32.254 92.3175 32.8042 92.1058 33.5238 92.1058C34.1164 92.1058 34.582 92.2328 34.8783 92.5291C35.1323 92.7831 35.3016 93.164 35.3862 93.672L31.4921 95.4074V94.8148C31.4921 93.8413 31.619 93.164 31.9577 92.7407Z" fill="white"/>
	<path d="M91.8095 91.4286C91.1323 90.7937 90.2011 90.4974 88.9735 90.4974C88.254 90.4974 87.5767 90.6243 87.0688 90.836C86.5185 91.0476 86.0952 91.3439 85.7566 91.7672C85.418 92.1481 85.164 92.6138 84.9947 93.164C84.8254 93.7143 84.7407 94.3069 84.7407 94.9841V95.746C84.7407 96.4656 84.8254 97.1429 84.9524 97.6931C85.1217 98.2434 85.3333 98.709 85.7143 99.09C86.0529 99.4709 86.5185 99.7672 87.1111 99.9365C87.6614 100.148 88.381 100.233 89.2275 100.233C89.4815 100.233 89.7778 100.233 90.0317 100.19C90.2857 100.19 90.582 100.148 90.836 100.106C91.09 100.063 91.3439 100.021 91.5556 99.9788C91.7672 99.9365 91.9788 99.8942 92.1481 99.8095L92.4444 98.2434C91.9365 98.328 91.5132 98.4127 91.1323 98.455C90.7513 98.4974 90.3704 98.4974 89.9894 98.4974C89.1005 98.4974 88.4233 98.4127 88 98.2011C87.5767 97.9894 87.2804 97.6508 87.1111 97.1005L92.7407 94.6032C92.8677 94.5608 92.91 94.4762 92.91 94.3492V94.0952C92.7831 92.9524 92.4868 92.0635 91.8095 91.4286ZM87.3228 92.7407C87.6191 92.3175 88.1693 92.1058 88.8889 92.1058C89.4815 92.1058 89.9471 92.2328 90.2434 92.5291C90.4974 92.7831 90.6667 93.164 90.7513 93.672L86.8571 95.4074V94.8148C86.8571 93.8413 87.0265 93.164 87.3228 92.7407Z" fill="white"/>
</svg>
