<?xml version="1.0" encoding="utf-8"?>
<!-- Generator: Adobe Illustrator 24.3.0, SVG Export Plug-In . SVG Version: 6.00 Build 0)  -->
<svg version="1.1" id="svg3364" xmlns:svg="http://www.w3.org/2000/svg"
	 xmlns="http://www.w3.org/2000/svg" xmlns:xlink="http://www.w3.org/1999/xlink" x="0px" y="0px" viewBox="0 0 429 128.3"
	 style="enable-background:new 0 0 429 128.3;" xml:space="preserve">
<style type="text/css">
	.st0{fill:#008C7D;}
</style>
<path id="path3220" class="st0" d="M201.6,51.4c-0.4,0-0.7,0.3-0.7,0.7v40.6c0,0.4,0.3,0.7,0.7,0.7h8.2c0.4,0,0.7-0.3,0.7-0.7V66.1
	c0,0,13.7,19.1,13.9,19.3c0.2,0.3,0.6,0.3,0.9,0c0.1-0.2,13.9-19.3,13.9-19.3v26.7c0,0.4,0.3,0.7,0.7,0.7h8.2c0.4,0,0.7-0.3,0.7-0.7
	V52.2c0-0.4-0.3-0.7-0.7-0.7h-8c-0.5,0-1.1,0.2-1.6,0.8l-13.7,19.1l-13.8-19.1c-0.3-0.5-0.9-0.8-1.5-0.8H201.6z M101,51.4
	c-0.4,0-0.7,0.3-0.7,0.7v40.6c0,0.4,0.3,0.7,0.7,0.7h8.2c0.4,0,0.7-0.3,0.7-0.7V77.5h5c0,0,10.8,14.9,11.1,15.2
	c0.5,0.7,1.1,0.8,1.6,0.8h9.9c0.3,0,0.5-0.4,0.3-0.6c-0.1-0.1-11.7-16.1-11.7-16.1c5.2-1.7,8.9-6.6,8.9-12.3c0-7.1-5.7-12.9-12.7-13
	H101z M346.6,51.4c-0.4,0-0.7,0.3-0.7,0.7v40.6c0,0.4,0.3,0.7,0.7,0.7h29.6c0.4,0,0.7-0.3,0.7-0.7v-7.1c0-0.4-0.3-0.7-0.7-0.7h-20.7
	v-8.6H374c0.4,0,0.7-0.3,0.7-0.7v-7.1c0-0.4-0.3-0.7-0.7-0.7h-18.4V60h19.5c0.4,0,0.7-0.3,0.7-0.7v-7.1c0-0.4-0.3-0.7-0.7-0.7
	L346.6,51.4z M3.7,51.4c-0.4,0-0.7,0.3-0.7,0.7v40.6c0,0.4,0.3,0.7,0.7,0.7H12c0.4,0,0.7-0.3,0.7-0.7V73.6c0,0,16,18.8,16.3,19.2
	c0.3,0.4,0.9,0.6,1.4,0.6h10.6c0.3,0,0.5-0.4,0.3-0.6C38.5,89.5,24,72.5,24,72.5v0c0,0,17.3-20.4,17.4-20.4c0.2-0.2,0-0.6-0.3-0.6
	H30.5c-0.5,0-1,0.2-1.4,0.7S12.7,71.3,12.7,71.3V52.2c0-0.4-0.3-0.7-0.7-0.7L3.7,51.4z M66.7,51.4c-0.3,0-0.7,0.1-0.9,0.4
	c-0.1,0.1-0.1,0.2-0.2,0.3C65.5,52.5,47.1,92.7,47,93c-0.1,0.2,0.1,0.5,0.3,0.5h9.8c0.3,0,0.7-0.2,0.8-0.5c0.6-1.4,2.5-5.9,2.5-5.9
	h19.7c0,0,1.9,4.5,2.5,5.9c0.1,0.4,0.5,0.5,0.8,0.5h9.8c0.3,0,0.4-0.3,0.3-0.5c-0.1-0.3-18.5-40.4-18.6-40.8l0,0
	c-0.1-0.1-0.1-0.2-0.2-0.3c-0.2-0.3-0.5-0.4-0.9-0.4H66.7z M145.6,51.4c-0.4,0-0.7,0.3-0.7,0.7v40.6c0,0.4,0.3,0.7,0.7,0.7h29.6
	c0.4,0,0.7-0.3,0.7-0.7v-7.1c0-0.4-0.3-0.7-0.7-0.7h-20.7V52.2c0-0.4-0.3-0.7-0.7-0.7L145.6,51.4z M276,51.4c-0.3,0-0.7,0.1-0.9,0.4
	c-0.1,0.1-0.1,0.2-0.2,0.3c-0.2,0.4-18.5,40.5-18.6,40.8c-0.1,0.2,0.1,0.5,0.3,0.5h9.8c0.3,0,0.7-0.2,0.8-0.5
	c0.6-1.4,2.5-5.9,2.5-5.9h19.7c0,0,1.9,4.5,2.5,5.9c0.1,0.4,0.5,0.5,0.8,0.5h9.8c0.3,0,0.4-0.3,0.3-0.5
	c-0.1-0.3-18.5-40.4-18.6-40.8l0,0c-0.1-0.1-0.1-0.2-0.2-0.3c-0.2-0.3-0.5-0.4-0.9-0.4H276z M386.5,51.4c-0.4,0-0.7,0.3-0.7,0.7
	v40.6c0,0.4,0.3,0.7,0.7,0.7h8.2c0.4,0,0.7-0.3,0.7-0.7V77.5h5c0,0,10.8,14.9,11.1,15.2c0.5,0.7,1.1,0.8,1.6,0.8h9.9
	c0.3,0,0.5-0.4,0.3-0.6l0,0c-0.1-0.1-11.7-16.1-11.7-16.1c5.2-1.7,8.9-6.6,8.9-12.3c0-7.1-5.7-12.9-12.7-13L386.5,51.4z M298.9,51.4
	c-0.3,0-0.5,0.3-0.3,0.6c0.1,0.2,15.6,24.5,15.6,24.6v16.2c0,0.4,0.3,0.7,0.7,0.7h8.2c0.4,0,0.7-0.3,0.7-0.7V76.6
	c0,0,15.4-24.3,15.6-24.6c0.1-0.2,0-0.6-0.3-0.6l0,0h-9.1c-0.6,0-1.2,0.3-1.6,0.9L319,68.2l-9.4-15.8c-0.4-0.7-1-0.9-1.6-0.9H298.9z
	 M110,60l11.1,0c2.5,0,4.5,2,4.5,4.5s-2,4.5-4.5,4.5l-11.1,0V60z M395.5,60l11.1,0c2.5,0,4.5,2,4.5,4.5s-2,4.5-4.5,4.5l-11.1,0V60z
	 M70.3,63.7L70.3,63.7L70.3,63.7l6.4,15.2h-6.4h-6.4L70.3,63.7z M279.6,63.7L279.6,63.7L279.6,63.7l6.4,15.2h-6.4h-6.4L279.6,63.7z"
	/>
</svg>
