<?xml version="1.0" encoding="UTF-8" standalone="no"?>
<svg
   xmlns:dc="http://purl.org/dc/elements/1.1/"
   xmlns:cc="http://creativecommons.org/ns#"
   xmlns:rdf="http://www.w3.org/1999/02/22-rdf-syntax-ns#"
   xmlns:svg="http://www.w3.org/2000/svg"
   xmlns="http://www.w3.org/2000/svg"
   xmlns:sodipodi="http://sodipodi.sourceforge.net/DTD/sodipodi-0.dtd"
   xmlns:inkscape="http://www.inkscape.org/namespaces/inkscape"
   version="1.1"
   id="svg2"
   xml:space="preserve"
   width="451.05911"
   height="153.82785"
   viewBox="0 0 451.05911 153.82785"
   sodipodi:docname="Freudenberg_BKK_Logo.svg"
   inkscape:version="1.0.2 (e86c870879, 2021-01-15, custom)"
   inkscape:export-filename="F:\DATEN\FOTOS\00_Wiki\Freudenberg_BKK_Logo.png"
   inkscape:export-xdpi="108"
   inkscape:export-ydpi="108"><metadata
     id="metadata8"><rdf:RDF><cc:Work
         rdf:about=""><dc:format>image/svg+xml</dc:format><dc:type
           rdf:resource="http://purl.org/dc/dcmitype/StillImage" /><dc:title></dc:title></cc:Work></rdf:RDF></metadata><defs
     id="defs6"><clipPath
       clipPathUnits="userSpaceOnUse"
       id="clipPath18"><path
         d="M 0,0 H 595.275 V 841.89 H 0 Z"
         id="path16" /></clipPath><radialGradient
       fx="0"
       fy="0"
       cx="0"
       cy="0"
       r="1"
       gradientUnits="userSpaceOnUse"
       gradientTransform="matrix(0,-608.03149,-868.03833,0,-8.5039368,424.48819)"
       spreadMethod="pad"
       id="radialGradient32"><stop
         style="stop-opacity:1;stop-color:#0072bc"
         offset="0"
         id="stop24" /><stop
         style="stop-opacity:1;stop-color:#0072bc"
         offset="0.150909"
         id="stop26" /><stop
         style="stop-opacity:1;stop-color:#00558f"
         offset="0.999955"
         id="stop28" /><stop
         style="stop-opacity:1;stop-color:#00558f"
         offset="1"
         id="stop30" /></radialGradient><clipPath
       clipPathUnits="userSpaceOnUse"
       id="clipPath42"><path
         d="M 0,0 H 595.276 V 841.89 H 0 Z"
         id="path40" /></clipPath><clipPath
       clipPathUnits="userSpaceOnUse"
       id="clipPath54"><path
         d="m 73.805,349.288 c 0,-161.499 130.921,-292.421 292.42,-292.421 v 0 c 92.786,0 175.481,43.218 229.05,110.618 v 0 363.607 c -53.569,67.4 -136.264,110.617 -229.05,110.617 v 0 c -161.499,0 -292.42,-130.921 -292.42,-292.421"
         id="path52" /></clipPath><clipPath
       clipPathUnits="userSpaceOnUse"
       id="clipPath68"><path
         d="M 0,0 H 595.276 V 841.89 H 0 Z"
         id="path66" /></clipPath><clipPath
       clipPathUnits="userSpaceOnUse"
       id="clipPath102"><path
         d="M 39.018,34.733 H 203.15 V 84.087 H 39.018 Z"
         id="path100" /></clipPath><clipPath
       clipPathUnits="userSpaceOnUse"
       id="clipPath238"><path
         d="M 0,0 H 595.276 V 841.89 H 0 Z"
         id="path236" /></clipPath><clipPath
       clipPathUnits="userSpaceOnUse"
       id="clipPath288"><path
         d="M 0,0 H 595.276 V 841.89 H 0 Z"
         id="path286" /></clipPath></defs><sodipodi:namedview
     pagecolor="#ffffff"
     bordercolor="#666666"
     borderopacity="1"
     objecttolerance="10"
     gridtolerance="10"
     guidetolerance="10"
     inkscape:pageopacity="0"
     inkscape:pageshadow="2"
     inkscape:window-width="1680"
     inkscape:window-height="988"
     id="namedview4"
     showgrid="false"
     fit-margin-top="0"
     fit-margin-left="0"
     fit-margin-right="0"
     fit-margin-bottom="0"
     inkscape:zoom="1.8519883"
     inkscape:cx="222.23414"
     inkscape:cy="130.37227"
     inkscape:window-x="-8"
     inkscape:window-y="-8"
     inkscape:window-maximized="1"
     inkscape:current-layer="g10" /><g
     id="g10"
     inkscape:groupmode="layer"
     inkscape:label="bkk-freudenberg_versicherten-magazin_meine-bkk_2022-1"
     transform="matrix(1.3333333,0,0,-1.3333333,-16.3524,177.45965)"><g
       id="g84"
       transform="matrix(2.337601,0,0,2.337601,273.6303,17.728528)"><path
         d="M 0,0 16.455,-0.002 16.45,16.447 0,16.45 Z"
         style="fill:#ffd400;fill-opacity:1;fill-rule:nonzero;stroke:none"
         id="path86" /></g><g
       id="g88"
       transform="matrix(2.337601,0,0,2.337601,235.1805,132.99797)"><path
         d="M 0,0 16.448,-16.411 32.898,-16.413 16.411,0 Z"
         style="fill:#ffd400;fill-opacity:1;fill-rule:nonzero;stroke:none"
         id="path90" /></g><g
       id="g92"
       transform="matrix(2.337601,0,0,2.337601,350.54462,133.09474)"><path
         d="m 0,0 -16.454,-16.455 0.001,-16.451 16.459,16.458 z"
         style="fill:#ffd400;fill-opacity:1;fill-rule:nonzero;stroke:none"
         id="path94" /></g><g
       id="g96"
       style="display:inline;fill:#000000;fill-opacity:1"
       transform="matrix(2.337601,0,0,2.337601,-124.32383,-63.467107)"><g
         id="g98"
         clip-path="url(#clipPath102)"
         style="display:inline;fill:#000000;fill-opacity:1"><g
           id="g104"
           transform="translate(184.3149,62.6688)"
           style="fill:#000000;fill-opacity:1"><path
             d="M 0,0 -0.004,0.561 H 0.49 C 0.693,0.562 0.903,0.529 0.893,0.296 0.905,-0.042 0.554,0.008 0.31,0.008 Z m 0,-0.197 0.383,-0.002 0.487,-0.774 0.251,0.001 -0.516,0.779 c 0.305,0.009 0.537,0.14 0.537,0.478 0.001,0.316 -0.154,0.476 -0.606,0.478 h -0.75 l 0.002,-1.736 H 0 Z M 0.345,-1.396 C -0.389,-1.387 -0.924,-0.86 -0.924,-0.112 -0.93,0.627 -0.388,1.156 0.36,1.162 1.092,1.156 1.638,0.63 1.636,-0.113 1.636,-0.86 1.101,-1.396 0.345,-1.396 m 0,-0.241 c 0.85,-0.006 1.534,0.686 1.534,1.52 -0.003,0.841 -0.685,1.52 -1.519,1.521 -0.837,0 -1.538,-0.68 -1.533,-1.524 0.005,-0.836 0.686,-1.519 1.518,-1.517"
             style="fill:#000000;fill-opacity:1;fill-rule:evenodd;stroke:none"
             id="path106" /></g><g
           id="g108"
           transform="translate(157.3477,58.6062)"
           style="fill:#000000;fill-opacity:1"><path
             d="M 0,0 1.37,0.004 C 1.717,0 2.783,0 2.781,-1.125 2.784,-2.221 1.734,-2.221 1.445,-2.22 L 0,-2.218 Z M -0.017,3.749 1.4,3.753 C 1.678,3.752 1.96,3.76 2.25,3.525 2.507,3.32 2.615,2.979 2.608,2.699 2.608,2.293 2.42,1.956 2.118,1.783 1.904,1.679 1.621,1.679 1.207,1.676 L -0.009,1.672 Z m -2.534,-7.69 4.172,-0.006 c 0.833,0.008 1.784,0.011 2.525,0.397 1.028,0.541 1.311,1.405 1.302,2.137 C 5.457,0.509 3.764,0.81 3.19,0.918 L 3.17,0.933 C 3.653,1.06 5.191,1.403 5.191,3.076 5.197,3.91 4.776,4.422 4.48,4.689 3.62,5.461 2.408,5.458 1.223,5.465 h -3.761 z"
             style="fill:#000000;fill-opacity:1;fill-rule:evenodd;stroke:none"
             id="path110" /></g><g
           id="g112"
           transform="translate(164.4772,54.667)"
           style="fill:#000000;fill-opacity:1"><path
             d="M 0,0 2.643,0.003 2.645,4.999 5.764,0.003 8.99,-0.002 5.496,5.26 8.737,9.397 5.65,9.4 2.647,5.267 2.642,9.4 0,9.397 Z"
             style="fill:#000000;fill-opacity:1;fill-rule:nonzero;stroke:none"
             id="path114" /></g><g
           id="g116"
           transform="translate(174.6789,54.6589)"
           style="fill:#000000;fill-opacity:1"><path
             d="M 0,0 2.648,-0.004 2.65,5.004 5.768,0.006 8.998,0.011 5.491,5.27 8.735,9.414 5.661,9.413 2.652,5.271 2.645,9.405 0.01,9.404 Z"
             style="fill:#000000;fill-opacity:1;fill-rule:nonzero;stroke:none"
             id="path118" /></g><g
           id="g120"
           transform="translate(58.4329,54.5571)"
           style="fill:#000000;fill-opacity:1"><path
             d="M 0,0 2.63,0.002 2.627,3.623 6.459,3.621 6.456,5.457 2.627,5.453 V 7.672 H 6.742 L 6.745,9.507 -0.002,9.505 Z"
             style="fill:#000000;fill-opacity:1;fill-rule:nonzero;stroke:none"
             id="path122" /></g><g
           id="g124"
           transform="translate(66.0523,54.5593)"
           style="fill:#000000;fill-opacity:1"><path
             d="M 0,0 H 2.477 V 2.806 C 2.473,3.526 2.688,4.597 4.206,4.597 4.37,4.596 4.445,4.581 4.729,4.556 L 4.731,6.674 C 4.16,6.695 2.96,6.727 2.404,5.255 L 2.355,6.62 -0.058,6.622 0.007,5.217 Z"
             style="fill:#000000;fill-opacity:1;fill-rule:nonzero;stroke:none"
             id="path126" /></g><g
           id="g128"
           transform="translate(73.464,58.7147)"
           style="fill:#000000;fill-opacity:1"><path
             d="m 0,0 c 0.025,0.324 0.113,1.386 1.199,1.386 1.077,0 1.159,-1.005 1.183,-1.391 z M 4.723,-1.345 C 4.718,-0.17 4.638,0.45 4.351,1.022 3.903,1.956 3.048,2.71 1.201,2.71 -1.239,2.71 -2.327,1.269 -2.318,-0.944 -2.327,-3.141 -1.085,-4.3 1.223,-4.295 2.939,-4.3 4.494,-3.648 4.687,-1.991 L 2.366,-1.986 C 2.302,-2.615 1.897,-2.951 1.235,-2.951 c -1.262,-0.002 -1.272,1.255 -1.262,1.606 z"
             style="fill:#000000;fill-opacity:1;fill-rule:evenodd;stroke:none"
             id="path130" /></g><g
           id="g132"
           transform="translate(79.1734,61.184)"
           style="fill:#000000;fill-opacity:1"><path
             d="M 0,0 -0.002,-3.736 C 0,-4.996 0.149,-6.735 2.44,-6.735 c 0.578,-0.004 1.424,0.073 2.087,1.148 l 0.058,-1.03 2.433,-0.008 c -0.006,0.519 -0.008,0.59 -0.037,1.153 v 5.469 L 4.5,0.002 v -3.845 c 0.008,-0.36 -0.004,-1.313 -1.038,-1.313 -0.998,-0.006 -0.99,0.91 -0.998,1.292 l 0.007,3.861 z"
             style="fill:#000000;fill-opacity:1;fill-rule:nonzero;stroke:none"
             id="path134" /></g><g
           id="g136"
           transform="translate(90.9986,55.8663)"
           style="fill:#000000;fill-opacity:1"><path
             d="m 0,0 c -1.09,0.001 -1.228,1.358 -1.226,1.992 -0.002,0.624 0.13,2.028 1.253,2.021 0.87,0 1.226,-0.869 1.226,-1.982 C 1.259,0.895 0.897,0 0,0 M 1.222,8.222 1.223,4.539 C 0.79,5.008 0.317,5.462 -0.792,5.468 -1.621,5.468 -2.365,5.215 -2.967,4.573 -3.412,4.072 -3.799,3.425 -3.808,2.006 c 0.009,-1.625 0.647,-3.471 2.935,-3.471 1.466,0.003 1.987,0.751 2.248,1.141 L 1.423,-1.307 3.77,-1.299 C 3.733,-0.751 3.705,-0.212 3.713,0.346 L 3.71,8.212 Z"
             style="fill:#000000;fill-opacity:1;fill-rule:evenodd;stroke:none"
             id="path138" /></g><g
           id="g140"
           transform="translate(97.7177,58.7147)"
           style="fill:#000000;fill-opacity:1"><path
             d="M 0,0 C 0.024,0.329 0.112,1.385 1.202,1.385 2.277,1.385 2.36,0.379 2.393,0 Z M 4.726,-1.345 C 4.726,-0.178 4.64,0.446 4.353,1.022 3.905,1.959 3.048,2.71 1.198,2.71 -1.244,2.708 -2.326,1.269 -2.314,-0.945 c -0.002,-2.199 1.232,-3.355 3.538,-3.35 1.718,-0.01 3.274,0.644 3.465,2.304 L 2.373,-1.986 C 2.308,-2.615 1.904,-2.95 1.236,-2.951 c -1.26,-0.002 -1.262,1.255 -1.26,1.606 z"
             style="fill:#000000;fill-opacity:1;fill-rule:evenodd;stroke:none"
             id="path142" /></g><g
           id="g144"
           transform="translate(103.3044,54.5593)"
           style="fill:#000000;fill-opacity:1"><path
             d="m 0,0 2.457,0.008 0.008,3.795 c 0,0.231 0,1.398 1.102,1.398 1.024,-0.006 1.019,-0.942 1.024,-1.4 L 4.586,-0.006 7.067,0.008 7.077,4.01 C 7.069,4.928 7.062,6.769 4.638,6.773 3.263,6.773 2.729,6.114 2.44,5.614 L 2.407,6.625 h -2.479 l 0.069,-1.409 z"
             style="fill:#000000;fill-opacity:1;fill-rule:nonzero;stroke:none"
             id="path146" /></g><g
           id="g148"
           transform="translate(113.9704,57.912)"
           style="fill:#000000;fill-opacity:1"><path
             d="M 0,0 C -0.011,0.491 0.066,2.012 1.3,2.007 2.405,2.012 2.48,0.681 2.48,0.022 2.48,-0.418 2.493,-2.006 1.239,-2.002 0.08,-2.006 -0.017,-0.438 0,0 m -2.415,6.167 v -7.87 c -0.002,-0.037 -0.017,-0.905 -0.09,-1.652 l 2.324,0.002 0.075,0.986 C 0.723,-3.46 1.675,-3.493 2.107,-3.493 2.608,-3.497 3.448,-3.418 4.187,-2.614 4.744,-2.017 5.041,-1.289 5.041,0 5.046,0.717 4.98,1.439 4.622,2.061 4.201,2.769 3.432,3.443 2.169,3.441 1.926,3.443 0.76,3.428 0.077,2.574 L 0.073,6.167 Z"
             style="fill:#000000;fill-opacity:1;fill-rule:evenodd;stroke:none"
             id="path150" /></g><g
           id="g152"
           transform="translate(122.1012,58.7177)"
           style="fill:#000000;fill-opacity:1"><path
             d="m 0,0 c 0.025,0.322 0.115,1.382 1.203,1.382 1.075,0 1.164,-0.996 1.191,-1.372 z m 4.727,-1.347 c 0,1.167 -0.082,1.796 -0.38,2.365 -0.436,0.941 -1.293,1.693 -3.144,1.687 -2.445,0 -3.519,-1.434 -3.522,-3.654 -0.002,-2.198 1.243,-3.35 3.548,-3.354 1.717,-0.009 3.279,0.651 3.46,2.308 l -2.314,0.001 c -0.06,-0.621 -0.469,-0.96 -1.138,-0.962 -1.259,0.002 -1.263,1.256 -1.259,1.613 z"
             style="fill:#000000;fill-opacity:1;fill-rule:evenodd;stroke:none"
             id="path154" /></g><g
           id="g156"
           transform="translate(127.7251,54.567)"
           style="fill:#000000;fill-opacity:1"><path
             d="M 0,0 2.465,-0.01 V 2.802 C 2.474,3.522 2.677,4.579 4.186,4.592 4.369,4.59 4.435,4.571 4.722,4.547 L 4.721,6.67 C 4.157,6.683 2.95,6.717 2.389,5.244 l -0.034,1.37 -2.418,0.003 0.07,-1.406 z"
             style="fill:#000000;fill-opacity:1;fill-rule:nonzero;stroke:none"
             id="path158" /></g><g
           id="g160"
           transform="translate(138.108,58.1096)"
           style="fill:#000000;fill-opacity:1"><path
             d="m 0,0 c -0.002,-0.468 -0.038,-1.869 -1.226,-1.869 -1.094,0 -1.249,1.147 -1.257,1.851 0.008,1.09 0.45,1.871 1.284,1.864 C -0.002,1.846 -0.002,0.343 0,0 M 0.12,3.121 0.119,2.122 C -0.212,2.642 -0.779,3.228 -2.076,3.235 -4.087,3.23 -5.038,1.744 -5.04,-0.054 c -0.007,-2.411 1.537,-3.282 2.943,-3.282 0.381,-0.002 1.457,0.065 2.13,1.074 l 0.005,-0.875 c -0.007,-0.713 -0.077,-1.617 -1.315,-1.617 -0.715,0 -1.071,0.351 -1.087,0.845 L -4.7,-3.907 c 0.013,-0.345 0.023,-0.956 0.613,-1.475 0.751,-0.673 2.004,-0.77 2.752,-0.776 1.366,0 2.167,0.33 2.734,0.733 0.895,0.641 1.063,1.572 1.063,2.366 L 2.455,3.119 Z"
             style="fill:#000000;fill-opacity:1;fill-rule:evenodd;stroke:none"
             id="path162" /></g></g></g></g></svg>
