<?xml version="1.0" encoding="UTF-8" standalone="no"?>
<!DOCTYPE svg PUBLIC "-//W3C//DTD SVG 1.1//EN" "http://www.w3.org/Graphics/SVG/1.1/DTD/svg11.dtd">
<svg width="100%" height="100%" viewBox="0 0 664 111" version="1.1" xmlns="http://www.w3.org/2000/svg" xmlns:xlink="http://www.w3.org/1999/xlink" xml:space="preserve" xmlns:serif="http://www.serif.com/" style="fill-rule:evenodd;clip-rule:evenodd;stroke-linejoin:round;stroke-miterlimit:2;">
    <g transform="matrix(1,0,0,1,-17.77,-38.85)">
        <path d="M126.39,61.27C142.17,59.61 156.18,67.64 153.87,80.3C153.42,82.75 152.19,89.72 151.29,93.77L145.46,121.41C144.43,125.99 144.29,126.12 139.63,126.12L133.8,126.12C129.66,126.12 128.36,125.34 128.36,122.98C128.36,122.547 128.533,121.543 128.88,119.97L135.48,88.83C136.13,85.82 136.26,84.51 136.26,82.68C136.26,78.1 132.77,74.57 128.1,74.57C118.91,74.57 112.3,80.98 109.97,92.37L103.88,121.42C102.85,126 102.71,126.13 98.05,126.13L92.1,126.13C88.09,126.13 86.79,125.35 86.79,122.99C86.79,122.557 86.963,121.553 87.31,119.98L93.12,92.9C94.73,85.45 95.42,81.66 98.31,76.54C103.86,66.71 116.38,62.35 126.39,61.29" style="fill:rgb(227,6,19);fill-rule:nonzero;"/>
    </g>
    <g transform="matrix(1,0,0,1,-17.77,-38.85)">
        <path d="M65.04,88.17C65.17,87.39 65.17,86.73 65.17,86.47C65.17,78.23 60.63,73.39 52.86,73.39C44.7,73.39 38.49,78.88 35.9,88.17L65.04,88.17ZM34.22,98.76C34.22,99.94 34.09,101.12 34.09,101.51C34.09,110.41 39.14,115.64 47.56,115.64C53.52,115.64 57.4,113.42 59.86,108.57C60.64,107 61.42,106.74 64.91,106.74L70.48,106.74C74.5,106.74 75.92,107.52 75.92,109.75C75.92,112.23 73.2,116.69 69.96,119.83C64.14,125.33 56.75,127.81 46.26,127.81C28,127.81 17.77,117.6 17.77,99.55C17.77,77.31 32.79,61.21 53.38,61.21C70.6,61.21 81.35,71.68 81.35,88.56C81.35,97.72 80.7,98.76 75.26,98.76L34.21,98.76L34.22,98.76Z" style="fill:rgb(227,6,19);fill-rule:nonzero;"/>
    </g>
    <g transform="matrix(1,0,0,1,-17.77,-38.85)">
        <path d="M208.9,88.17C209.03,87.39 209.03,86.73 209.03,86.47C209.03,78.23 204.5,73.39 196.73,73.39C188.57,73.39 182.35,78.88 179.77,88.17L208.9,88.17ZM178.08,98.76C178.08,99.94 177.95,101.12 177.95,101.51C177.95,110.41 183,115.64 191.42,115.64C197.37,115.64 201.26,113.42 203.72,108.57C204.5,107 205.28,106.74 208.77,106.74L214.34,106.74C218.35,106.74 219.78,107.52 219.78,109.75C219.78,112.23 217.06,116.69 213.83,119.83C208,125.33 200.63,127.81 190.13,127.81C171.88,127.81 161.65,117.6 161.65,99.55C161.65,77.31 176.67,61.21 197.25,61.21C214.47,61.21 225.22,71.68 225.22,88.56C225.22,97.72 224.57,98.76 219.13,98.76L178.08,98.76Z" style="fill:rgb(227,6,19);fill-rule:nonzero;"/>
    </g>
    <g transform="matrix(1,0,0,1,-17.77,-38.85)">
        <path d="M277.92,61.22C281.42,61.22 283.1,62.27 283.1,64.49C283.1,65.27 283.1,65.14 282.58,67.49L281.54,72.73C280.64,76.39 279.73,77.57 277.91,77.44L272.86,76.92C272.73,76.92 272.21,77.05 271.31,77.18C260.56,78.88 255.38,84.63 252.53,98.12L247.74,121.41C246.71,125.99 246.57,126.12 241.92,126.12L235.96,126.12C231.95,126.12 230.65,125.34 230.65,122.98C230.65,122.547 230.823,121.543 231.17,119.97L242.17,67.63C243.08,63.05 243.34,62.93 247.87,62.93L253.18,62.93C257.32,62.93 258.62,63.71 258.62,66.07C258.62,66.503 258.447,67.463 258.1,68.95C257.753,70.437 269.24,61.23 277.91,61.23" style="fill:rgb(227,6,19);fill-rule:nonzero;"/>
    </g>
    <g transform="matrix(1,0,0,1,-17.77,-38.85)">
        <path d="M298.51,98.25C298.51,106.89 303.17,111.99 310.81,111.99C320.91,111.99 328.68,101.39 328.68,87.78C328.68,79.53 324.01,74.56 316.12,74.56C306.28,74.56 298.51,85.03 298.51,98.24M323.11,115.9C318.45,121.79 313.01,124.28 305.37,124.28C291.26,124.28 280.91,114.17 281.94,99.03C282.99,83.49 289.52,69.23 305.54,62.75C321.56,56.26 337.91,63.91 342.62,74.52C347.87,86.32 344.24,94.65 342.31,104.61C342.18,105.25 339.82,115.79 339.82,115.79C337.1,128.61 334.64,135.6 331.92,138.69C322.79,149.06 309.53,150.26 298.54,149.23C283.58,147.83 274.98,141.58 274.98,132.29C274.98,129.54 276.15,128.76 280.42,128.76L287.15,128.76C291.68,128.76 291.2,129.3 292.85,132.55C295.95,138.66 300.69,138.93 305.86,138.93C314.92,138.93 319.36,133.98 321.95,121.81L323.11,115.92L323.11,115.9Z" style="fill:rgb(227,6,19);fill-rule:nonzero;"/>
    </g>
    <g transform="matrix(1,0,0,1,-17.77,-38.85)">
        <path d="M385.91,48.92C385,53.5 384.87,53.63 380.21,53.63L374.26,53.63C370.24,53.63 368.95,52.84 368.95,50.49C368.95,49.84 369.08,49.31 369.47,47.48L370.25,43.56C371.15,38.98 371.42,38.85 376.08,38.85L381.9,38.85C386.05,38.85 387.21,39.5 387.21,41.99C387.21,42.51 387.08,43.69 386.82,45L385.92,48.92L385.91,48.92Z" style="fill:rgb(227,6,19);fill-rule:nonzero;"/>
    </g>
    <g transform="matrix(1,0,0,1,-17.77,-38.85)">
        <path d="M370.76,121.41C369.73,125.99 369.6,126.12 364.94,126.12L358.98,126.12C354.97,126.12 353.67,125.34 353.67,122.98C353.67,122.547 353.843,121.543 354.19,119.97L365.19,67.63C366.09,63.05 366.35,62.93 370.89,62.93L376.85,62.93C381,62.93 382.16,63.58 382.16,66.07C382.16,66.72 382.03,67.51 381.77,69.08L370.76,121.42L370.76,121.41Z" style="fill:rgb(227,6,19);fill-rule:nonzero;"/>
    </g>
    <g transform="matrix(1,0,0,1,-17.77,-38.85)">
        <path d="M434.6,88.17C434.73,87.39 434.73,86.73 434.73,86.47C434.73,78.23 430.2,73.39 422.43,73.39C414.27,73.39 408.06,78.88 405.46,88.17L434.6,88.17ZM403.78,98.76C403.78,99.94 403.65,101.12 403.65,101.51C403.65,110.41 408.7,115.64 417.12,115.64C423.08,115.64 426.96,113.42 429.42,108.57C430.2,107 430.97,106.74 434.47,106.74L440.04,106.74C444.05,106.74 445.48,107.52 445.48,109.75C445.48,112.23 442.76,116.69 439.53,119.83C433.7,125.33 426.32,127.81 415.83,127.81C397.58,127.81 387.34,117.6 387.34,99.55C387.34,77.31 402.36,61.21 422.95,61.21C440.17,61.21 450.92,71.68 450.92,88.56C450.92,97.72 450.27,98.76 444.84,98.76L403.78,98.76Z" style="fill:rgb(227,6,19);fill-rule:nonzero;"/>
    </g>
    <g transform="matrix(1,0,0,1,-17.77,-38.85)">
        <path d="M507.01,67.65L524.97,67.65C532.72,67.65 539.33,68.97 539.33,78.33C539.33,85.42 535.17,89.1 524.97,89.1L507.01,89.1L507.01,67.65ZM498.03,127.56L530.63,127.56C544.05,127.56 551.14,118.12 551.14,108.19C551.14,99.87 546.93,95.67 538.61,93.97L538.61,93.38C544.85,90.83 548.3,83.81 548.3,76.63C548.3,70.01 544.81,65.19 540.36,62.54C536.3,60.09 528.45,60.09 522.5,60.09L498.03,60.09L498.03,127.56ZM506.92,98.7L527.79,98.3C535.35,98.3 542.16,99.12 542.16,107.91C542.16,115.28 537.25,120 529.5,120L507,120L507,96.66L506.91,98.69L506.92,98.7Z" style="fill:rgb(227,6,19);fill-rule:nonzero;"/>
    </g>
    <g transform="matrix(1,0,0,1,-17.77,-38.85)">
        <path d="M562.75,127.95L571.73,127.95L571.73,104.33L582.98,93.84L607.36,127.95L618.7,127.95L589.12,87.7L617.56,60.48L605.94,60.48L571.73,94.12L571.73,60.48L562.75,60.48L562.75,127.95Z" style="fill:rgb(227,6,19);fill-rule:nonzero;"/>
    </g>
    <g transform="matrix(1,0,0,1,-17.77,-38.85)">
        <path d="M625.77,127.95L634.75,127.95L634.75,104.33L646,93.84L670.38,127.95L681.72,127.95L652.14,87.7L680.58,60.48L668.96,60.48L634.75,94.12L634.75,60.48L625.77,60.48L625.77,127.95Z" style="fill:rgb(227,6,19);fill-rule:nonzero;"/>
    </g>
    <g transform="matrix(1,0,0,1,-17.77,-38.85)">
        <path d="M479.2,95.88C478.55,99.14 478.46,99.23 475.15,99.23L470.92,99.23C468.07,99.23 467.14,98.67 467.14,97C467.14,96.53 467.23,96.16 467.51,94.86L468.06,92.07C468.7,88.81 468.89,88.72 472.2,88.72L476.34,88.72C479.29,88.72 480.11,89.19 480.11,90.95C480.11,91.32 480.02,92.16 479.83,93.09L479.19,95.88L479.2,95.88Z" style="fill:rgb(227,6,19);fill-rule:nonzero;"/>
    </g>
</svg>
