<svg version="1.1" id="Ebene_1" xmlns="http://www.w3.org/2000/svg" xmlns:xlink="http://www.w3.org/1999/xlink" x="0px" y="0px" viewBox="0 0 363 74.3" style="enable-background:new 0 0 363 74.3;" xml:space="preserve" width="363"  height="74.3" >
<style type="text/css">
	.st0{fill:#1D1D1B;}
	.st1{fill:#EE7D00;}
</style>
<g>
	<path class="st0" d="M150.9,34.4h4.2V22.2h20.5c9.1,0,9.6-3.5,9.6-10.3c0-7.2-3.2-8.4-8.8-8.4h-25.4V34.4L150.9,34.4z M181,14.4   c0,3.2-2,4.4-5.3,4.4h-20.6V6.9h20.3c3.6,0,5.6,0.9,5.6,4.6V14.4L181,14.4z M191,26.6c0,6.3,3.2,8.1,11,8.1h14.3   c7.9,0,11-1.8,11-8.1V3.5h-4.2v23.1c0,3-1,4.7-6.7,4.7h-14.5c-5.7,0-6.7-1.8-6.7-4.7V3.5H191V26.6L191,26.6z M266.6,26.8   c0,2.7-1.4,4.1-5.3,4.1h-22.1V20.2h21.5c3.8,0,5.9,0.6,5.9,4.4V26.8L266.6,26.8z M265.4,12.9c0,3.1-2.3,3.8-4.6,3.8h-21.6V6.9H261   c1.3,0,4.4,0.4,4.4,3.2V12.9L265.4,12.9z M235,34.4h26.8c5.1,0,9-2.3,9-6.6v-3.7c0-4.7-2.9-5.9-6.2-6.1v-0.2c3.8-0.4,5-2.6,5-4.9   v-2.6c0-3.5-1.8-6.9-8.2-6.9H235V34.4L235,34.4z M277.8,34.4H306V31h-24V3.5h-4.2V34.4L277.8,34.4z M310.2,34.4h4.2V3.5h-4.2V34.4   L310.2,34.4z M321.4,23.2c0,7.8,2.6,11.6,11,11.6h15.8c8.7,0,10.5-3,10.5-8.6V24h-3.9v1.9c0,4.2-1.6,5.4-7.3,5.4h-14.6   c-4,0-7.3-1.2-7.3-6.6V13.1c0-5.4,3.2-6.6,7.3-6.6h14.5c3.8,0,7.1,0.3,7.1,5.5v1.4h3.7v-2.6c0-4.1-2.1-7.7-9.7-7.7h-16   c-8.4,0-11,3.8-11,11.6V23.2L321.4,23.2z"/>
	<path class="st1" d="M4.3,34.4h30.2c5.4,0,9.4-1.4,9.4-8.2c0-4.7-1.5-6.9-5.7-7.4v-0.1c2.6-0.8,4.6-1.8,4.6-7.1   c0-6.1-3.7-8.1-11.2-8.1H4.3V34.4L4.3,34.4z M13.8,22.1h17c2,0,3.4,0.5,3.4,2.6c0,1.8-1.4,2.3-3.4,2.3h-17V22.1L13.8,22.1z    M13.8,10.9h16.8c1.8,0,2.8,0.6,2.8,2.4c0,1.8-1,2.4-2.8,2.4H13.8V10.9L13.8,10.9z M49.2,34.4h9.5V22.5h4.2l13.7,11.9h13.4   L71.2,18.6L88,3.5H75.1l-12,11.4h-4.4V3.5h-9.5V34.4L49.2,34.4z M93,34.4h9.5V22.5h4.2l13.7,11.9h13.4l-18.7-15.8l16.7-15.1h-12.9   l-12,11.4h-4.4V3.5H93V34.4L93,34.4z"/>
	<path class="st0" d="M27.5,61.8c0,2-1,3.1-3.8,3.1h-3.7c-2.4,0-3.3-0.8-3.3-3.4v-2.1c0-1.9,1.4-2.4,3.4-2.4H24   c2.7,0,3.5,1.4,3.4,3.5V61.8L27.5,61.8z M29.4,55.5h-1.8v2h0c-0.6-1.9-2.1-2.2-3.5-2.2h-4.1c-2.2,0-5.2,0.5-5.2,4.6v1.9   c0,3,1.6,4.6,4.8,4.6h4c2.7,0,3.5-0.7,3.9-1.8h0v1.7c0,3.1-1.5,3.2-5.4,3.2h-1.9c-1.8,0-3.3-0.4-3.3-1.9v-0.3h-1.8v0.4   c0,1.5,0.9,3.4,4.5,3.4H24c2.4,0,5.4-0.7,5.4-4.2V55.5L29.4,55.5z M45.7,60H34.9c0.2-2.6,0.9-3.1,4-3.1h2.8c3.2,0,4,1.2,4,2.3V60   L45.7,60z M33,62.5c0,4.2,2.9,4.7,5.4,4.7h3.5c3.6,0,5.8-0.8,5.8-3.4v-0.2h-1.9c-0.1,1.8-1.1,2.1-3.5,2.1h-2.7   c-3.4,0-4.6-0.7-4.6-3.3v-0.7h12.8v-1.3c0-4.1-2.5-5-6-5h-3.1c-2.7,0-5.6,0.5-5.6,4.6V62.5L33,62.5z M50.7,63.8   c0,3.4,2.7,3.4,5.5,3.4h3.6c2.4,0,5.3-0.1,5.3-3.3v0c0-3.1-2-3.4-4.9-3.4h-5.1c-2,0-2.3-0.5-2.3-1.5v-0.4c0-1.3,0.6-1.6,3.4-1.6   h3.4c2.1,0,3.3,0,3.3,1.8v0.1h1.8v-0.6c0-1.6-0.6-2.9-5-2.9h-3c-4.8,0-5.8,1-5.8,2.9v0.7c0,2.2,1,3.1,3.7,3.1h6   c2.3,0,2.6,0.6,2.6,1.7v0.1c0,1.7-0.9,1.8-3.8,1.8h-4.1c-2,0-2.7-0.6-2.7-2v-0.6h-1.8V63.8L50.7,63.8z M81.2,67H83V55.5h-1.9v6.5   c0,2.7-1,3.6-5.6,3.6H75c-3.8,0-4.2-1.1-4.2-2.8v-7.3h-1.9v7.8c0,2.1,1.1,3.9,4.8,3.9h2.9c2.4,0,3.9-0.4,4.6-2.2h0V67L81.2,67z    M87.1,67H89v-6.5c0-2.7,1-3.6,5.6-3.6h0.5c3.8,0,4.2,1.1,4.2,2.8V67h1.9v-7.8c0-2.1-1.1-3.9-4.8-3.9h-2.9c-2.4,0-3.9,0.4-4.6,2.2   h0v-2h-1.8V67L87.1,67z M106.8,60.1c0-2.7,1.3-3.2,4-3.2h2.6c2.6,0,4.2,0.5,4.2,3.2v2.2c0,2.1-0.9,3.3-3.8,3.3h-3.2   c-3.2,0-3.8-1.1-3.8-3.3V60.1L106.8,60.1z M119.5,50.7h-1.9v6.3h0c-0.4-1.2-1.5-1.7-3.7-1.7h-3c-4.7,0-6.1,1.3-6.1,5v2   c0,4,2.5,4.8,6,4.8h2.7c2,0,3.6-0.6,4.2-2h0V67h1.8V50.7L119.5,50.7z M139,67h1.6v-4.9h4.9v-1.6h-4.9v-4.9H139v4.9h-4.9v1.6h4.9V67   L139,67z M161.5,67h1.9v-9.9h5.5v-1.6h-5.5v-1.4c0-1,0.6-1.8,2-1.8h3.5v-1.6h-3.6c-2.1,0-3.8,1.1-3.8,3.8v1H159v1.6h2.5V67   L161.5,67z M171.7,67h1.9V55.5h-1.9V67L171.7,67z M171.7,52.8h1.9v-2.1h-1.9V52.8L171.7,52.8z M179.4,63.6c0,1.9,0.9,3.6,4.5,3.6   h1.1c4.2,0,4.4-1.8,4.4-4.1v-1.3h-1.6v0.9c0,2.4-0.4,2.9-3,2.9h-0.6c-2.1,0-2.9-0.7-2.9-2.8v-5.7h7.7v-1.6h-7.7v-2.7h-1.9v2.7h-2.5   v1.6h2.5V63.6L179.4,63.6z M203.8,67h1.9V55.5h-1.9V67L203.8,67z M203.8,52.8h1.9v-2.1h-1.9V52.8L203.8,52.8z M210.1,67h1.9v-7.2   c0-1.8,1.1-2.9,3.6-2.9h1.9c3.1,0,3.8,0.9,3.8,3.1v7h1.9v-6.8c0-1.8,0.5-3.3,4-3.3h1.4c3.1,0,3.7,1.3,3.7,2.6V67h1.9v-7.7   c0-2.6-1.9-4-5-4h-2.3c-2,0-3.5,0.6-4.3,2.1c-0.6-1.4-2-2.1-3.7-2.1h-3.1c-1.9,0-3,0.3-3.8,1.5h0v-1.3h-1.8V67L210.1,67z M266.6,63   c0,1.4-0.7,2.2-2.8,2.2h-11.7v-5.7h11.3c2,0,3.1,0.3,3.1,2.3V63L266.6,63z M266,55.7c0,1.6-1.2,2-2.4,2h-11.4v-5.2h11.5   c0.7,0,2.3,0.2,2.3,1.7V55.7L266,55.7z M250,67h14.1c2.7,0,4.7-1.2,4.7-3.5v-1.9c0-2.5-1.5-3.1-3.3-3.2v-0.1c2-0.2,2.6-1.4,2.6-2.6   v-1.4c0-1.9-0.9-3.6-4.3-3.6H250V67L250,67z M285.1,60h-10.8c0.2-2.6,0.9-3.1,4-3.1h2.8c3.2,0,4,1.2,4,2.3V60L285.1,60z    M272.3,62.5c0,4.2,2.9,4.7,5.4,4.7h3.5c3.6,0,5.8-0.8,5.8-3.4v-0.2h-1.9c-0.1,1.8-1.1,2.1-3.5,2.1h-2.7c-3.4,0-4.6-0.7-4.6-3.3   v-0.7H287v-1.3c0-4.1-2.5-5-6-5H278c-2.7,0-5.6,0.5-5.6,4.6V62.5L272.3,62.5z M291.6,63.6c0,1.9,0.9,3.6,4.5,3.6h1.1   c4.2,0,4.4-1.8,4.4-4.1v-1.3h-1.6v0.9c0,2.4-0.4,2.9-3,2.9h-0.6c-2.1,0-2.9-0.7-2.9-2.8v-5.7h7.7v-1.6h-7.7v-2.7h-1.9v2.7H289v1.6   h2.5V63.6L291.6,63.6z M304.5,67h1.9v-7.3c0-1.5,1-2.8,3-2.8h1.2c3.4,0,4,0.4,4,3.3v0.5h1.8v-1.4c0-2.8-1.2-4-4.8-4h-1.8   c-1.3,0-2.8,0.4-3.5,1.8h0v-1.7h-1.8V67L304.5,67z M319.5,67h1.9V55.5h-1.9V67L319.5,67z M319.5,52.8h1.9v-2.1h-1.9V52.8   L319.5,52.8z M338,60h-10.8c0.2-2.6,0.9-3.1,4-3.1h2.8c3.2,0,4,1.2,4,2.3V60L338,60z M325.3,62.5c0,4.2,2.9,4.7,5.4,4.7h3.5   c3.6,0,5.8-0.8,5.8-3.4v-0.2H338c-0.1,1.8-1.1,2.1-3.5,2.1h-2.7c-3.4,0-4.6-0.7-4.6-3.3v-0.7H340v-1.3c0-4.1-2.5-5-6-5h-3.1   c-2.7,0-5.6,0.5-5.6,4.6V62.5L325.3,62.5z M356.2,62.3c0,2.2-0.7,3.3-3.8,3.3h-3.2c-2.9,0-3.8-1.2-3.8-3.3v-2.2   c0-2.7,1.6-3.2,4.2-3.2h2.6c2.7,0,4,0.5,4,3.2V62.3L356.2,62.3z M343.5,67h1.8v-1.8h0c0.6,1.4,2.1,2,4.2,2h2.7c3.5,0,6-0.9,6-4.8   v-2c0-3.7-1.4-5-6.1-5h-2.9c-2.2,0-3.3,0.5-3.7,1.7h0v-6.3h-1.9V67L343.5,67z"/>
</g>
</svg>