<?xml version="1.0" encoding="UTF-8"?>
<!-- Generator: Adobe Illustrator 27.2.0, SVG Export Plug-In . SVG Version: 6.00 Build 0)  -->
<svg xmlns="http://www.w3.org/2000/svg" xmlns:xlink="http://www.w3.org/1999/xlink" version="1.1" id="Ebene_1" x="0px" y="0px" viewBox="0 0 324.28 121.98" style="enable-background:new 0 0 324.28 121.98;" xml:space="preserve">
<style type="text/css">
	.st0{fill:#009FE3;}
</style>
<g>
	<g>
		<path d="M131.38,83.67c2.93,0.91,5.95,1.58,9.02,1.58c9.36,0,11.81-6.53,11.81-9.89c0-10.46-16.32-11.04-16.32-18.14    c0-1.92,1.78-4.94,6-4.94c2.93,0,5.52,1.15,8.21,2.21v-4.27c-2.64-0.96-5.33-1.39-8.11-1.39c-8.06,0-10.42,6.19-10.42,9.22    c0,9.84,16.03,9.74,16.03,18.14c0,3.6-3.07,5.62-6.48,5.62c-3.55,0-6.62-1.29-9.74-2.78V83.67L131.38,83.67z M163.06,54.29h4.03    v-4.03h-4.03V54.29L163.06,54.29z M172.28,54.29h4.03v-4.03h-4.03V54.29L172.28,54.29z M180.1,84.38V58.94h-4.61v16.46    c-1.78,2.83-4.51,5.52-8.06,5.52c-2.11,0-3.55-1.44-3.55-3.89v-18.1h-4.61v18.67c0,3.79,2.59,7.34,7.1,7.34    c3.84,0,7.01-2.26,9.12-5.33h0.29l-0.29,4.75h0.05H180.1L180.1,84.38z M205.54,76.7c-1.92,2.26-4.61,4.22-7.63,4.22    c-4.94,0-5.86-5.18-5.86-9.07c0-4.27,1.34-10.03,6.58-10.03c3.02,0,4.7,1.25,6.91,3.21V76.7L205.54,76.7z M205.54,84.38h4.61    V47.38h-4.61v10.99l0.29,3.46h-0.29c-2.02-2.5-4.51-3.46-7.68-3.46c-7.54,0-10.7,7.49-10.7,14.02c0,6.34,2.64,12.58,9.89,12.58    c3.79,0,6.82-1.97,8.5-5.33h0.29L205.54,84.38L205.54,84.38z M224.64,84.38h4.66l5.71-19.1h0.1l5.33,19.1h4.61l8.11-25.44h-3.65    l-6.38,19.87h-0.1l-5.52-19.87h-4.13l-5.95,19.54h-0.1l-6.1-19.54h-4.51L224.64,84.38L224.64,84.38z M278.4,72.38    c0.24-6.58-1.73-14.02-9.74-14.02c-7.3,0-10.94,6.67-10.94,13.3c0,4.18,1.73,13.29,12.14,13.29c3.26,0,6-0.62,8.54-1.44v-3.7    c-2.35,1.1-4.66,1.68-7.25,1.68c-5.57,0-8.4-3.79-8.54-9.12H278.4L278.4,72.38z M262.76,69.22c0.19-3.41,1.68-7.39,5.62-7.39    c4.18,0,5.23,3.94,5.14,7.39H262.76L262.76,69.22z M285.56,83.52c2.3,0.72,5.09,1.44,7.54,1.44c4.75,0,9.55-2.4,9.55-7.73    c0-8.21-12.62-7.44-12.62-12.14c0-2.4,2.5-3.26,4.51-3.26c2.11,0,4.18,0.53,6.19,1.15v-3.84c-2.54-0.43-4.18-0.77-6.24-0.77    c-5.23,0-8.78,2.3-8.78,7.1c0,8.54,12.34,6.91,12.34,12.29c0,2.54-2.5,3.74-4.7,3.74c-2.54,0-5.52-1.11-7.78-2.26V83.52    L285.56,83.52z M315.75,58.94v-5.14l-4.61,0.48v4.66h-3.17v3.46h3.17v15.31c0,2.54,1.44,7.25,7.54,7.25    c1.25,0,2.45-0.24,3.65-0.58v-3.17c-0.77,0.19-1.49,0.29-2.26,0.29c-3.79,0-4.32-2.3-4.32-5.57V62.4h6.1v-3.46H315.75    L315.75,58.94z"></path>
		<polygon points="36.69,33.53 47.84,33.53 47.84,44.68 36.69,44.68 36.69,33.53   "></polygon>
		<polygon points="36.69,48.7 47.85,48.7 47.85,85.22 36.69,85.22 36.69,48.7   "></polygon>
		<path class="st0" d="M2.07,45.87C2.07,23.52,20.19,5.4,42.54,5.4c21.95,0,39.82,17.48,40.45,39.28H72.84    c-0.62-16.2-13.95-29.14-30.3-29.14c-16.75,0-30.33,13.58-30.33,30.33c0,13.33,8.6,24.65,20.55,28.72v10.56    C15.14,80.77,2.07,64.85,2.07,45.87L2.07,45.87L2.07,45.87z"></path>
		<polygon points="51.91,48.7 62.44,48.7 62.44,64.06 72.85,48.72 82.99,48.72 73.63,62.3 84.46,83.6 84.46,48.7 94.99,48.7     94.99,64.06 105.39,48.72 115.54,48.72 106.18,62.3 117.83,85.22 105.19,85.22 98.8,71.64 94.99,76.89 94.99,85.22 85.28,85.22     84.46,85.22 72.64,85.22 66.25,71.64 62.44,76.89 62.44,85.22 51.91,85.22 51.91,48.7   "></polygon>
	</g>
</g>
<g>
	<path class="st0" d="M138.12,110.74l3.53-8.13c0.34-0.79,0.85-1.18,1.4-1.18c0.8,0,1.17,0.41,1.22,1.32l0.63,12.12h-1.81   l-0.54-10.71l-3.37,8.07c-0.23,0.55-0.56,0.84-1.06,0.84c-0.5,0-0.84-0.28-1.07-0.84l-3.38-8.05l-0.55,10.69h-1.73l0.65-12.13   c0.05-0.91,0.42-1.31,1.21-1.31c0.55,0,1.04,0.35,1.39,1.15L138.12,110.74z"></path>
	<path class="st0" d="M147.42,109.78c0-3.69,1.12-5.22,4.48-5.22c3.54,0,4.41,1.86,4.41,4.75c0,0.27-0.01,0.59-0.03,0.87   c-1.16,0.2-3.58,0.43-4.99,0.49l-2.12,0.09c0.15,2.03,0.96,2.81,3.06,2.81c1.34,0,2.57-0.14,3.62-0.27l0.15,1.35   c-1.14,0.18-2.38,0.35-4.32,0.35C148.3,115.01,147.42,112.8,147.42,109.78z M151.5,109.41c0.83-0.04,2.19-0.15,3.02-0.26   c0.02-0.17,0.02-0.43,0.02-0.6c0-1.64-0.67-2.62-2.65-2.62c-2.36,0-2.78,1.33-2.78,3.59L151.5,109.41z"></path>
	<path class="st0" d="M158.68,101.8c0-0.86,0.25-1.16,1.06-1.16c0.82,0,1.06,0.3,1.06,1.16c0,0.86-0.23,1.15-1.06,1.15   C158.91,102.95,158.68,102.66,158.68,101.8z M158.86,104.71h1.76v10.16h-1.76V104.71z"></path>
	<path class="st0" d="M165.33,114.87h-1.75v-7.64c0-0.63,0.02-1.21,0.07-1.8c1.15-0.53,2.72-0.87,4.59-0.87   c3.52,0,3.88,1.66,3.88,3.74v6.56h-1.75v-6.32c0-1.79-0.32-2.57-2.65-2.57c-0.75,0-1.79,0.17-2.33,0.43   c-0.04,0.44-0.05,1.02-0.05,1.49V114.87z"></path>
	<path class="st0" d="M174.75,109.78c0-3.69,1.12-5.22,4.48-5.22c3.54,0,4.41,1.86,4.41,4.75c0,0.27-0.01,0.59-0.03,0.87   c-1.16,0.2-3.58,0.43-4.99,0.49l-2.12,0.09c0.15,2.03,0.96,2.81,3.06,2.81c1.34,0,2.57-0.14,3.62-0.27l0.15,1.35   c-1.13,0.18-2.38,0.35-4.32,0.35C175.63,115.01,174.75,112.8,174.75,109.78z M178.84,109.41c0.83-0.04,2.19-0.15,3.02-0.26   c0.02-0.17,0.02-0.43,0.02-0.6c0-1.64-0.67-2.62-2.65-2.62c-2.36,0-2.78,1.33-2.78,3.59L178.84,109.41z"></path>
	<path class="st0" d="M192.66,101.57l2.32,11.16l2.43-8.4c0.26-0.88,0.66-1.25,1.31-1.25c0.65,0,1.06,0.37,1.31,1.25l2.34,8.38   l2.32-11.15h1.82l-2.71,12.11c-0.21,0.93-0.67,1.32-1.36,1.32c-0.69,0-1.13-0.41-1.39-1.32l-2.38-8.36l-2.41,8.36   c-0.26,0.91-0.7,1.32-1.39,1.32c-0.68,0-1.15-0.4-1.36-1.32l-2.73-12.12H192.66z"></path>
	<path class="st0" d="M208.48,109.78c0-3.8,1.19-5.22,4.49-5.22c3.3,0,4.49,1.47,4.49,5.22c0,3.74-1.19,5.22-4.49,5.22   C209.67,115.01,208.48,113.59,208.48,109.78z M215.71,109.78c0-2.9-0.63-3.79-2.74-3.79c-2.08,0-2.73,0.76-2.73,3.79   s0.65,3.79,2.73,3.79C215.07,113.58,215.71,112.7,215.71,109.78z"></path>
	<path class="st0" d="M226.86,114.87v-6.33c0-1.78-0.34-2.54-2.69-2.54c-0.73,0-1.57,0.15-2.25,0.43v8.44h-1.75v-14.09h1.75v4.19   c0.83-0.25,1.73-0.4,2.75-0.41c3.53-0.01,3.94,1.57,3.94,3.7v6.6H226.86z"></path>
	<path class="st0" d="M231.17,100.78h1.75v11.36c0,1.02,0.25,1.74,0.78,2.44l-1.5,0.74c-0.67-0.76-1.03-1.67-1.03-3.08V100.78z"></path>
	<path class="st0" d="M238.53,104.71h2.22v1.34h-2.22v8.83h-1.75v-8.83h-1.76v-1.34h1.76v-1.04c0-1.95,1.01-3.02,3.04-3.02   c0.31,0,0.75,0.03,1.08,0.08l-0.13,1.26h-0.61c-1.01,0-1.64,0.48-1.64,1.63V104.71z"></path>
	<path class="st0" d="M242.71,104.71h1.75v6.32c0,1.79,0.31,2.57,2.64,2.57c0.75,0,1.77-0.17,2.32-0.43   c0.03-0.45,0.05-1.02,0.05-1.49v-6.97h1.74v7.64c0,0.63-0.02,1.21-0.07,1.8c-1.15,0.53-2.7,0.87-4.57,0.87   c-3.51,0-3.86-1.65-3.86-3.74V104.71z M244.27,101.8c0-0.56,0.45-1,1.01-1c0.55,0,0.98,0.44,0.98,1c0,0.56-0.42,0.99-0.98,0.99   C244.72,102.79,244.27,102.36,244.27,101.8z M247.66,101.8c0-0.56,0.44-1,1-1c0.57,0,0.99,0.44,0.99,1c0,0.56-0.42,0.99-0.99,0.99   C248.1,102.79,247.66,102.36,247.66,101.8z"></path>
	<path class="st0" d="M260.94,114.87v-6.33c0-1.78-0.34-2.54-2.69-2.54c-0.73,0-1.57,0.15-2.25,0.43v8.44h-1.75v-14.09H256v4.19   c0.83-0.25,1.73-0.4,2.75-0.41c3.53-0.01,3.94,1.57,3.94,3.7v6.6H260.94z"></path>
	<path class="st0" d="M265.25,100.78H267v11.36c0,1.02,0.25,1.74,0.78,2.44l-1.5,0.74c-0.67-0.76-1.03-1.67-1.03-3.08V100.78z"></path>
	<path class="st0" d="M271.83,109.3l4.15-4.59h2.04l-4.5,4.86l4.76,5.31h-2.19l-4.26-4.89v4.89h-1.74v-14.09h1.74V109.3z"></path>
	<path class="st0" d="M280.09,104.93c1.13-0.18,2.38-0.36,3.84-0.36c2.2,0,3.97,0.58,3.97,3.14v4.65c0,0.63-0.02,1.21-0.07,1.8   c-1.17,0.61-2.64,0.85-4.38,0.85c-2.74,0-3.9-0.95-3.9-3.1c0-1.76,0.76-2.88,2.64-3.17c1.19-0.18,2.59-0.23,4-0.28v-0.25   c0-1.54-0.59-2.24-2.48-2.24c-1.2,0-2.4,0.13-3.46,0.27L280.09,104.93z M283.68,113.65c0.78,0,1.7-0.08,2.46-0.4   c0.03-0.45,0.04-1.02,0.04-1.49v-2.08c-1.04,0.03-2.39,0.06-3.35,0.26c-1.11,0.24-1.55,0.64-1.55,1.94   C281.29,113.31,282.05,113.65,283.68,113.65z"></path>
	<path class="st0" d="M292.19,107.23c0,1.22,1.14,1.39,2.31,1.76c1.9,0.61,3.17,1.04,3.17,3.09c0,2.29-1.7,2.92-3.92,2.92   c-1.09,0-2.29-0.12-3.36-0.37l0.17-1.34c0.8,0.14,1.83,0.26,2.65,0.26c1.02,0,2.68,0.01,2.68-1.4c0-1.23-0.97-1.4-2.26-1.79   c-1.61-0.49-3.18-0.88-3.18-3.02c0-2.17,1.52-2.79,3.55-2.79c1.33,0,2.31,0.11,3.45,0.37l-0.17,1.31   c-0.78-0.14-1.63-0.26-2.54-0.26C293.73,105.98,292.19,106,292.19,107.23z"></path>
	<path class="st0" d="M301.44,107.23c0,1.22,1.14,1.39,2.31,1.76c1.9,0.61,3.17,1.04,3.17,3.09c0,2.29-1.7,2.92-3.92,2.92   c-1.09,0-2.29-0.12-3.36-0.37l0.17-1.34c0.8,0.14,1.83,0.26,2.65,0.26c1.02,0,2.68,0.01,2.68-1.4c0-1.23-0.97-1.4-2.26-1.79   c-1.61-0.49-3.18-0.88-3.18-3.02c0-2.17,1.52-2.79,3.55-2.79c1.33,0,2.31,0.11,3.45,0.37l-0.17,1.31   c-0.78-0.14-1.63-0.26-2.54-0.26C302.98,105.98,301.44,106,301.44,107.23z"></path>
	<path class="st0" d="M309.02,109.78c0-3.69,1.12-5.22,4.48-5.22c3.54,0,4.41,1.86,4.41,4.75c0,0.27-0.01,0.59-0.03,0.87   c-1.16,0.2-3.58,0.43-4.99,0.49l-2.12,0.09c0.15,2.03,0.96,2.81,3.06,2.81c1.34,0,2.57-0.14,3.62-0.27l0.15,1.35   c-1.13,0.18-2.38,0.35-4.32,0.35C309.91,115.01,309.02,112.8,309.02,109.78z M313.11,109.41c0.83-0.04,2.19-0.15,3.02-0.26   c0.02-0.17,0.02-0.43,0.02-0.6c0-1.64-0.67-2.62-2.65-2.62c-2.36,0-2.78,1.33-2.78,3.59L313.11,109.41z"></path>
	<path class="st0" d="M320.24,113.86c0-0.86,0.25-1.16,1.06-1.16c0.82,0,1.06,0.3,1.06,1.16c0,0.86-0.23,1.15-1.06,1.15   C320.46,115.01,320.24,114.72,320.24,113.86z"></path>
</g>
</svg>
