<svg fill="none" xmlns="http://www.w3.org/2000/svg" viewBox="0 40 579.68 48.92">
<g clip-path="url(#clip0_1234_9857)">
<path d="M288.67 67.27H272.84V70.93H288.67V67.27Z" fill="black" style="--darkreader-inline-fill: #e8e6e3;" data-darkreader-inline-fill=""/>
<path d="M9.63 45.05L8.21 81.81V82.45C8.21 85.57 9.13 86.2 14.09 86.56V88.26C10.48 87.98 9.06 87.91 7.08 87.91C5.1 87.91 3.68 87.98 0 88.26V86.56C4.96 86.21 5.67 85.64 5.81 81.81L7.3 47.04V46.61C7.3 43.35 6.31 42.64 1.42 42.36V40.59C4.18 40.8 5.25 40.87 7.23 40.87C9.85 40.87 11.27 40.8 13.96 40.51L27.13 76.35L40.52 40.52C43.71 40.8 45.19 40.88 47.32 40.88C49.09 40.88 50.22 40.81 52.92 40.6V42.37C48.1 42.65 47.04 43.36 47.04 46.55V47.05L47.82 81.83C47.89 85.66 48.53 86.22 53.63 86.58V88.28C49.17 87.86 47.47 87.71 44.78 87.71C42.09 87.71 40.39 87.85 35.93 88.28V86.58C40.75 86.3 41.81 85.52 41.81 82.19V81.84L41.17 45.15L29.48 76.74L28.63 79.08L27.64 81.7L26.72 84.39L25.94 86.73H24.88L24.1 84.46L23.11 81.7L22.12 78.94L21.27 76.46L9.63 45.05Z" fill="black" style="--darkreader-inline-fill: #000000;" data-darkreader-inline-fill=""/>
<path d="M72.0295 86.49C65.5895 86.49 62.7495 81.53 62.6795 70.48H83.7895C83.6495 59.57 79.1895 53.76 70.8295 53.76C62.4695 53.76 57.0195 60.63 57.0195 71.54C57.0195 82.45 62.3295 88.82 71.4695 88.82C78.4095 88.82 82.9395 84.5 83.8695 77.2H81.0395C80.1895 83.22 77.0695 86.48 72.0395 86.48M62.8295 67.92C63.5395 59.77 66.2295 55.6 70.7595 55.6C75.2895 55.6 77.6995 59.57 78.1295 67.92H62.8295V67.92Z" fill="black" style="--darkreader-inline-fill: #000000;" data-darkreader-inline-fill=""/>
<path d="M87.9997 56.39V55.12C92.0397 54.77 94.4397 54.34 97.3497 53.49C97.6997 56.11 97.8497 57.24 97.9897 59.37V60.15C99.5497 56.11 102.59 53.77 106.28 53.77C109.97 53.77 112.44 56.11 112.44 59.51C112.44 61.57 111.24 62.91 109.46 62.91C107.83 62.91 106.56 61.92 106.56 60.5C106.56 60.36 106.63 60.08 106.7 59.79L106.84 59.08V58.44C106.84 57.45 105.99 56.74 104.71 56.74C101.03 56.74 98.6897 61.2 98.6897 68.22V83.02C98.6897 86.06 99.3997 86.63 103.72 86.84V88.26C99.8197 87.91 98.3397 87.84 95.8597 87.84C93.3797 87.84 91.8197 87.91 87.9297 88.26V86.84C92.2497 86.63 93.0297 86.06 93.0297 83.02V59.86C92.9597 56.81 92.6097 56.46 88.9197 56.39H87.9997Z" fill="black" style="--darkreader-inline-fill: #000000;" data-darkreader-inline-fill=""/>
<path d="M139.54 53.13V64.82H137.98C136.7 58.66 134.08 55.68 129.76 55.68C124.45 55.68 121.33 61.42 121.33 71.55C121.33 81.68 124.09 86.5 129.55 86.5C133.94 86.5 136.56 83.38 137.41 77.15H140.31C139.39 84.73 135.35 88.84 128.98 88.84C120.76 88.84 115.17 81.9 115.17 71.56C115.17 61.22 120.84 53.78 129.19 53.78C132.24 53.78 134.15 54.56 136.42 56.76L138.33 53.15H139.53L139.54 53.13Z" fill="black" style="--darkreader-inline-fill: #000000;" data-darkreader-inline-fill=""/>
<path d="M160.38 86.49C153.93 86.49 151.1 81.53 151.03 70.48H172.14C172 59.57 167.54 53.76 159.18 53.76C150.82 53.76 145.37 60.63 145.37 71.54C145.37 82.45 150.68 88.82 159.82 88.82C166.76 88.82 171.29 84.5 172.22 77.2H169.39C168.54 83.22 165.42 86.48 160.39 86.48M151.18 67.92C151.89 59.77 154.58 55.6 159.11 55.6C163.64 55.6 166.05 59.57 166.48 67.92H151.18Z" fill="black" style="--darkreader-inline-fill: #000000;" data-darkreader-inline-fill=""/>
<path d="M205.07 80.89V40C201.53 40.94 198.34 41.51 194.37 41.94V43.14C198.83 43.14 199.4 43.64 199.4 47.32V59.72C196.78 55.47 194.73 54.19 190.9 54.19C183.32 54.19 178.01 61.34 178.01 71.54C178.01 81.74 183.39 88.89 191.11 88.89C195.15 88.89 197.91 87.05 199.89 83.08C200.17 85.77 200.17 86.05 200.88 88.75C203.78 87.83 204.99 87.55 209.17 87.05L210.23 86.91V85.7C205.48 85.56 205.06 85.2 205.06 80.88M191.74 86.9C186.64 86.9 183.95 81.59 183.95 71.46C183.95 61.33 186.43 56.16 191.53 56.16C196.63 56.16 199.46 61.54 199.46 71.95C199.46 81.8 196.84 86.9 191.74 86.9" fill="black" style="--darkreader-inline-fill: #000000;" data-darkreader-inline-fill=""/>
<path d="M227.94 86.49C221.49 86.49 218.66 81.53 218.59 70.48H239.7C239.56 59.57 235.1 53.76 226.74 53.76C218.38 53.76 212.93 60.63 212.93 71.54C212.93 82.45 218.24 88.82 227.38 88.82C234.32 88.82 238.85 84.5 239.77 77.2H236.94C236.09 83.22 232.97 86.48 227.94 86.48M218.73 67.92C219.44 59.77 222.13 55.6 226.66 55.6C231.19 55.6 233.6 59.57 234.03 67.92H218.73Z" fill="black" style="--darkreader-inline-fill: #000000;" data-darkreader-inline-fill=""/>
<path d="M245.71 88.9V77.07L247.27 77C248.55 83.45 251.52 86.56 256.48 86.56C260.66 86.56 263.77 83.8 263.77 80.18C263.77 77.77 262.43 76.14 258.95 74.58L256.26 73.38L253 71.89C247.83 69.48 246.2 67.5 246.2 63.39C246.2 57.79 250.59 53.97 256.83 53.97C259.59 53.97 261.65 54.61 264.05 56.24L265.25 53.34H266.53V64.32H264.9C264.26 58.65 261.93 55.96 257.46 55.96C253.71 55.96 250.8 58.51 250.8 61.84C250.8 64.67 251.86 65.59 258.31 68.43L261.28 69.71C266.66 72.05 268.58 74.31 268.58 78.49C268.58 84.44 263.83 88.69 257.18 88.69C253.92 88.69 251.37 87.84 248.68 85.71L246.98 88.9H245.71V88.9Z" fill="black" style="--darkreader-inline-fill: #000000;" data-darkreader-inline-fill=""/>
<path d="M322.14 52.35C322.14 48.67 320.58 45.41 317.89 43.35C315.48 41.58 312.72 40.8 308.12 40.8H289.49V42.57C294.59 42.85 295.3 43.42 295.3 47.25V81.6C295.3 85.43 294.73 85.92 289.49 86.35V88.05H307.41C312.65 88.05 315.49 87.41 318.46 85.57C322 83.3 324.34 78.98 324.34 74.52C324.34 70.69 322.71 67.22 319.95 65.1C318.46 63.97 316.91 63.33 314.35 62.83C319.45 60.92 322.14 57.31 322.14 52.35M301.24 43H307.26C313.21 43 315.83 45.9 315.83 52.49C315.83 55.75 315.05 58.09 313.49 59.93C311.93 61.7 310.02 62.27 306.05 62.27H301.23V43H301.24ZM307.97 64.46C311.72 64.46 313.85 65.1 315.48 66.73C317.11 68.36 318.03 71.4 318.03 74.81C318.03 81.89 314.49 85.86 308.19 85.86H305.64C301.89 85.86 301.25 85.29 301.25 82.18V64.46H307.98H307.97Z" fill="black" style="--darkreader-inline-fill: #000000;" data-darkreader-inline-fill=""/>
<path d="M345.1 86.49C338.65 86.49 335.82 81.53 335.75 70.48H356.86C356.72 59.57 352.26 53.76 343.9 53.76C335.54 53.76 330.09 60.63 330.09 71.54C330.09 82.45 335.4 88.82 344.54 88.82C351.48 88.82 356.01 84.5 356.94 77.2H354.11C353.26 83.22 350.14 86.48 345.12 86.48M335.91 67.92C336.62 59.77 339.31 55.6 343.84 55.6C348.37 55.6 350.78 59.57 351.21 67.92H335.91Z" fill="black" style="--darkreader-inline-fill: #000000;" data-darkreader-inline-fill=""/>
<path d="M360.61 56.67V55.47C364.72 54.9 367.13 54.34 369.96 53.34C370.31 54.97 370.53 56.81 370.67 59.5C373.22 55.67 376.12 53.98 380.23 53.98C384.34 53.98 388.16 56.18 389.58 59.65C390.29 61.35 390.64 63.33 390.64 66.02V83.02C390.64 86.07 391.35 86.63 395.67 86.85V88.27C391.92 87.92 390.5 87.85 387.95 87.85C385.4 87.85 383.91 87.92 380.23 88.27V86.85C384.06 86.71 384.98 86 384.98 83.17V65.81C384.98 59.65 383.14 57.17 378.6 57.17C373.78 57.17 371.23 60.22 371.23 66.02V83.16C371.23 85.99 372.15 86.7 375.83 86.84V88.26C372.15 87.91 370.73 87.84 368.18 87.84C365.63 87.84 364.21 87.91 360.53 88.26V86.84C364.85 86.63 365.56 86.06 365.56 83.01V60.07C365.49 57.17 365.07 56.74 361.52 56.74C361.31 56.74 360.95 56.67 360.6 56.67" fill="black" style="--darkreader-inline-fill: #000000;" data-darkreader-inline-fill=""/>
<path d="M398.42 88.05L417.61 56.46H408.9C404.3 56.46 403.16 57.45 400.61 63.83H399.19L400.82 54.62H425.19L405.93 86.21H414.22C419.04 86.21 421.02 84.3 423.14 77.85H424.63L422.79 88.05H398.42V88.05Z" fill="black" style="--darkreader-inline-fill: #000000;" data-darkreader-inline-fill=""/>
<path d="M486.16 75.31C486.16 83.1 479.51 88.05 470.23 88.05H448.5V86.42C453.31 86.21 454.16 85.57 454.16 80.83V47.98C454.16 43.24 453.31 42.6 448.5 42.39V40.76H467.12C477.24 40.76 483.33 45.29 483.33 52.09C483.33 57.54 479.15 61.51 473.14 63.13V63.2C480.78 64.19 486.16 68.44 486.16 75.31V75.31ZM461.17 42.81V62.56H465.63C472.92 62.56 476.18 59.3 476.18 52.65C476.18 46 472.92 42.81 465.56 42.81H461.17V42.81ZM478.58 75.3C478.58 68.22 475.18 64.61 468.46 64.61H461.17V82.38C461.17 84.72 461.45 85.99 465.63 85.99H468.46C475.18 85.99 478.58 82.45 478.58 75.3V75.3Z" fill="#00ADEF" style="--darkreader-inline-fill: #008abf;" data-darkreader-inline-fill=""/>
<path d="M534.58 86.56V88.19C530.9 87.84 529.2 87.76 527.08 87.76H525.95C523.61 87.76 521.49 87.9 517.74 88.19V86.56C521.99 86.28 522.06 84.79 520.08 82.03L506.77 63.84H503.87V80.62C503.87 85.58 504.72 86.14 509.46 86.57V88.2C504.22 87.85 503.37 87.77 500.47 87.77H500.26C497.36 87.77 496.51 87.84 491.27 88.2V86.57C496.01 86.15 496.86 85.58 496.86 80.62V48.19C496.86 43.23 496.01 42.67 491.27 42.24V40.62C496.51 40.97 497.36 41.04 500.26 41.04H500.47C503.37 41.04 504.22 40.97 509.46 40.62V42.25C504.72 42.67 503.87 43.24 503.87 48.2V61.79H506.91L519.23 46.71C521.78 43.59 520.57 42.6 516.4 42.25V40.62C519.59 40.83 521.28 41.04 523.55 41.04H524.54C526.03 41.04 528.29 40.83 530.06 40.62V42.25C527.37 42.67 524.75 43.24 521.92 46.71L511.73 59.24L528.36 82.17C530.63 85.21 532.47 85.99 534.59 86.56H534.58Z" fill="#00ADEF" style="--darkreader-inline-fill: #008abf;" data-darkreader-inline-fill=""/>
<path d="M579.67 86.56V88.19C575.99 87.84 574.29 87.76 572.17 87.76H571.04C568.7 87.76 566.58 87.9 562.83 88.19V86.56C567.08 86.28 567.15 84.79 565.17 82.03L551.86 63.84H548.96V80.62C548.96 85.58 549.81 86.14 554.55 86.57V88.2C549.31 87.85 548.46 87.77 545.56 87.77H545.35C542.45 87.77 541.6 87.84 536.36 88.2V86.57C541.1 86.15 541.95 85.58 541.95 80.62V48.19C541.95 43.23 541.1 42.67 536.36 42.24V40.62C541.6 40.97 542.45 41.04 545.35 41.04H545.56C548.46 41.04 549.31 40.97 554.55 40.62V42.25C549.81 42.67 548.96 43.24 548.96 48.2V61.79H552L564.32 46.71C566.87 43.59 565.66 42.6 561.49 42.25V40.62C564.68 40.83 566.37 41.04 568.64 41.04H569.63C571.12 41.04 573.38 40.83 575.15 40.62V42.25C572.46 42.67 569.84 43.24 567.01 46.71L556.82 59.24L573.45 82.17C575.72 85.21 577.56 85.99 579.68 86.56H579.67Z" fill="#00ADEF" style="--darkreader-inline-fill: #008abf;" data-darkreader-inline-fill=""/>
</g>
<defs>
<clipPath id="clip0_1234_9857">
<rect width="579.67" height="48.9" fill="white" transform="translate(0 41)" style="--darkreader-inline-fill: #e8e6e3;" data-darkreader-inline-fill=""/>
</clipPath>
</defs>
</svg>