<?xml version="1.0" encoding="UTF-8" standalone="no"?>
<!-- Created with Inkscape (http://www.inkscape.org/) -->

<svg
   width="105.83334mm"
   height="33.866669mm"
   viewBox="0 0 105.83334 33.866669"
   version="1.1"
   id="svg1"
   inkscape:version="1.4.2 (f4327f4, 2025-05-13)"
   sodipodi:docname="Barmer Logo 23.12.2025.svg"
   xmlns:inkscape="http://www.inkscape.org/namespaces/inkscape"
   xmlns:sodipodi="http://sodipodi.sourceforge.net/DTD/sodipodi-0.dtd"
   xmlns="http://www.w3.org/2000/svg"
   xmlns:svg="http://www.w3.org/2000/svg">
  <sodipodi:namedview
     id="namedview1"
     pagecolor="#ffffff"
     bordercolor="#000000"
     borderopacity="0.25"
     inkscape:showpageshadow="2"
     inkscape:pageopacity="0.0"
     inkscape:pagecheckerboard="0"
     inkscape:deskcolor="#d1d1d1"
     inkscape:document-units="mm"
     inkscape:zoom="2.7"
     inkscape:cx="200"
     inkscape:cy="63.888889"
     inkscape:window-width="1920"
     inkscape:window-height="1129"
     inkscape:window-x="-8"
     inkscape:window-y="-8"
     inkscape:window-maximized="1"
     inkscape:current-layer="layer1" />
  <defs
     id="defs1">
    <clipPath
       clipPathUnits="userSpaceOnUse"
       id="clipPath60">
      <path
         d="m 111,95.5 h 102 c 13.246,0 24,10.754 24,24 0,13.246 -10.754,24 -24,24 H 111 c -13.246,0 -24,-10.754 -24,-24 0,-13.246 10.754,-24 24,-24 z"
         id="path60" />
    </clipPath>
  </defs>
  <g
     inkscape:label="Layer 1"
     inkscape:groupmode="layer"
     id="layer1"
     transform="translate(-78.581249,-139.96459)">
    <path
       d="m 87,95.5 h 150 v 48 H 87 Z"
       style="fill:#24c268;fill-opacity:1;fill-rule:nonzero;stroke:none"
       transform="matrix(0.70555556,0,0,0.70555556,17.197915,72.584031)"
       clip-path="url(#clipPath60)"
       id="path61" />
    <path
       id="path62"
       d="m 163.67266,156.15637 v -3.544 h 2.53788 c 1.11056,0 2.27684,0.21238 2.27684,1.79988 0,1.5875 -1.16628,1.74412 -2.27684,1.74412 z m -42.28112,0 v -3.544 h 2.64583 c 1.11054,0 2.16888,0.369 2.16888,1.79988 0,1.42734 -1.05834,1.74412 -2.11668,1.74412 z m -13.38933,1.85208 c 0.58138,-1.74412 1.27071,-3.544 1.90429,-5.29166 0.47696,1.2707 0.9017,2.43346 1.85209,5.29166 z m -13.758333,2.96264 v -8.35872 h 2.276826 c 1.322918,0 2.064456,0.63358 2.064456,1.63972 0,1.37512 -1.483078,1.42734 -1.483078,2.38124 0,0.95392 2.116668,1.11054 2.116668,2.75026 0,1.32292 -0.79375,1.5875 -2.012246,1.5875 z m 8.891413,2.54141 h 3.01484 c 0.31679,-1.00612 0.63711,-2.06444 1.00612,-3.07057 h 5.39609 c 0.32032,0.90168 0.63711,1.90783 1.00612,3.07057 h 3.175 c -1.74413,-5.13151 -3.06705,-8.89141 -4.81471,-13.28137 H 107.95 c -1.69192,4.38996 -3.33516,8.83566 -4.81471,13.28137 z m 66.99179,0.0522 c 0.6336,0 1.2185,-0.1044 1.5875,-0.26458 v -2.11669 c -0.21236,0 -0.47696,0 -0.68932,0 -0.58138,0 -1.05834,-0.21236 -1.47956,-0.84596 l -1.2707,-1.85208 c 2.32904,-0.52916 3.22722,-2.27682 3.22722,-4.07316 0,-2.70158 -1.95652,-4.18112 -4.7625,-4.18112 h -5.97748 v 13.33359 h 2.96264 v -4.86693 h 1.2707 l 2.2733,3.43959 c 0.68932,1.00612 1.79988,1.42734 2.8582,1.42734 z m -21.0065,-0.0522 h 9.20468 v -2.54141 h -6.24206 v -2.96264 h 5.29168 v -2.48566 h -5.29168 v -2.96264 h 5.87306 v -2.43698 h -8.83568 z m -21.32683,0.0522 c 0.63358,0 1.21848,-0.1044 1.5875,-0.26458 v -2.11669 c -0.21238,0 -0.47696,0 -0.68934,0 -0.58138,0 -1.05832,-0.21236 -1.47954,-0.84596 l -1.2707,-1.90428 c 2.38124,-0.58138 3.2272,-2.27684 3.2272,-4.0767 0,-2.69806 -2.00872,-4.1776 -4.86692,-4.1776 h -5.82083 v 13.28139 h 2.96263 v -4.87047 h 1.2707 l 2.2733,3.43959 c 0.63712,1.11408 1.79988,1.5353 2.806,1.5353 z m 3.86432,-0.0522 h 2.85468 c 0.0558,-2.96263 0.21238,-5.98099 0.42474,-8.94363 0.95392,2.69806 2.16888,5.71642 2.91042,6.98713 h 2.43346 c 1.16629,-2.43699 2.16889,-4.71029 3.01837,-6.98713 0.20886,3.01838 0.2646,5.981 0.42122,8.94363 h 2.8582 c -0.1602,-4.39349 -0.42474,-8.89141 -0.84596,-13.28137 h -3.38736 c -1.11054,3.12278 -1.79988,4.91912 -3.22723,7.9375 -1.16628,-2.54142 -2.27682,-5.29168 -3.12278,-7.9375 h -3.544 c -0.37254,4.38996 -0.68934,8.83566 -0.79376,13.28137 z m -40.481243,0 h 6.614582 c 2.485671,0 4.602341,-0.89816 4.602341,-3.70417 0,-1.69192 -0.95391,-2.69804 -2.22109,-3.27942 1.00259,-0.68932 1.53176,-1.74766 1.53176,-2.8582 0,-1.96004 -1.744133,-3.4918 -4.814711,-3.4918 h -5.712882 z"
       style="fill:#ffffff;fill-opacity:1;fill-rule:nonzero;stroke:none;stroke-width:0.705556" />
  </g>
</svg>
