<?xml version="1.0" encoding="UTF-8" standalone="no"?>
<svg
   xmlns:dc="http://purl.org/dc/elements/1.1/"
   xmlns:cc="http://creativecommons.org/ns#"
   xmlns:rdf="http://www.w3.org/1999/02/22-rdf-syntax-ns#"
   xmlns:svg="http://www.w3.org/2000/svg"
   xmlns="http://www.w3.org/2000/svg"
   viewBox="0 0 1272.36 561.78668"
   height="561.78668"
   width="1272.36"
   xml:space="preserve"
   id="svg2"
   version="1.1"><metadata
     id="metadata8"><rdf:RDF><cc:Work
         rdf:about=""><dc:format>image/svg+xml</dc:format><dc:type
           rdf:resource="http://purl.org/dc/dcmitype/StillImage" /></cc:Work></rdf:RDF></metadata><defs
     id="defs6" /><g
     transform="matrix(1.3333333,0,0,-1.3333333,0,561.78667)"
     id="g10"><g
       transform="scale(0.1)"
       id="g12"><path
         id="path14"
         style="fill:none;stroke:#2a2933;stroke-width:10;stroke-linecap:butt;stroke-linejoin:miter;stroke-miterlimit:3.86370993;stroke-dasharray:none;stroke-opacity:1"
         d="m 7977.61,2269.4 c 66.36,0 120.21,54.18 120.21,120.85 0,66.04 -53.85,120.21 -120.21,120.21 -66.68,0 -120.85,-54.17 -120.85,-120.21 0,-66.67 54.17,-120.85 120.85,-120.85 z" /><path
         id="path16"
         style="fill:#2a2933;fill-opacity:1;fill-rule:evenodd;stroke:none"
         d="m 7950.04,2383.2 h 29.49 l 38.79,-61.22 h 19.88 l -41.03,61.22 c 24.04,1.92 42.63,11.86 42.63,38.47 0,24.68 -12.18,38.14 -48.09,38.14 h -59.3 v -137.83 h 17.63 v 61.22 z m 0,16.03 v 44.56 h 37.83 c 16.67,0 32.7,-2.57 32.7,-21.8 0,-25.97 -26.93,-22.76 -46.16,-22.76 h -24.37 v 0" /><path
         id="path18"
         style="fill:#ffd500;fill-opacity:1;fill-rule:nonzero;stroke:none"
         d="m 8131.68,2805.4 1410.05,1404.29 0.95,-1407.29 -1406,-1406 v 1404 l -1382.99,0.03 -1413.01,1412.97 1382.67,-0.34 1408.33,-1407.66 v 0" /><path
         id="path20"
         style="fill:#ffd500;fill-opacity:1;fill-rule:nonzero;stroke:none"
         d="M 8137.84,5.96875 H 6748.23 V 1397.57 H 8137.84 V 5.96875 v 0" /><path
         id="path22"
         style="fill:#2a2933;fill-opacity:1;fill-rule:evenodd;stroke:none"
         d="m 5693.96,2168.83 c 14.93,0 30.05,-0.67 44.67,-1.33 14.12,-0.63 28.72,-1.29 42.67,-1.29 0,0 0,0 0.01,0 39.03,0 83.45,4.69 116.96,39.4 25.26,29.83 24.44,74.91 13.07,104.27 -23.28,51.64 -92.1,58.57 -156.37,58.57 -4.99,0 -10.03,-0.04 -15.12,-0.12 l -36.31,0.03 -39.86,-0.05 v -200.56 l 5.32,0.34 c 7.76,0.5 15.92,0.74 24.96,0.74 z m 6.59,-311.88 c 12.59,0 25.42,-0.22 38.32,-0.46 13.12,-0.24 26.33,-0.48 39.47,-0.48 26.12,0 60.12,0.84 91.37,7.39 l 0.67,0.14 0.6,0.32 c 32.16,16.72 52.54,36.53 62.33,60.55 9.02,30.38 5.62,66.52 -8.31,90.4 -31.25,50.38 -94.82,57.15 -152.88,57.15 -15.73,0 -31.38,-0.54 -46.52,-1.06 -14.15,-0.48 -27.51,-0.94 -40.04,-0.94 -5.77,0 -11.32,0.1 -16.66,0.33 l -5.22,0.24 v -214.48 l 5.23,0.26 c 9.37,0.42 19.72,0.64 31.64,0.64 z m 153.1,-130.36 c -9.89,0 -20.23,0.23 -30.74,0.7 l -377.23,-0.49 0.5,777.4 c 18.36,-0.34 37.08,-0.47 56.03,-0.47 0,0 0,0 0.01,0 34.3,0 69.36,0.44 104.44,0.87 35.11,0.43 70.23,0.86 104.67,0.86 89.7,0 191.46,-2.61 266.09,-22 66.08,-21.36 122.29,-82.39 133.34,-145.03 13.55,-65.04 -13.08,-126.97 -73,-170.07 -21.15,-12.32 -45.72,-23.3 -74.71,-33.34 l -3.37,-1.17 v -13.13 l 4.55,-0.41 c 66.27,-5.92 127.99,-47.09 161.06,-107.41 24.46,-58.6 18.34,-119.31 -18.95,-185.14 -53.3,-67.87 -136.1,-101.17 -252.69,-101.17" /><path
         id="path24"
         style="fill:#2a2933;fill-opacity:1;fill-rule:nonzero;stroke:none"
         d="m 5685.52,2064.95 c 26.21,0 56.4,2.01 86.62,2.01 59.72,0 119.5,-7.86 148.54,-54.66 14,-24 16,-59 8,-86 -11,-27 -35,-45 -60,-58 -28.3,-5.94 -59.1,-7.29 -90.31,-7.29 -26.06,0 -52.41,0.94 -77.82,0.94 -10.82,0 -21.48,-0.17 -31.87,-0.65 v 204 c 5.39,-0.25 11.01,-0.35 16.84,-0.35 z m 54.41,298.38 c 5.07,0.08 10.07,0.12 15.04,0.12 71.02,0 130.94,-9.32 151.71,-55.37 12,-31 10,-73 -12,-99 -30.55,-31.65 -70.13,-37.87 -113.38,-37.87 -28.05,0 -57.65,2.62 -87.32,2.62 -8.44,0 -16.88,-0.21 -25.3,-0.75 v 190.25 c 0,0 13.75,0.03 34.86,0.03 10.55,0 22.95,-0.01 36.39,-0.03 z m -28.6,147.13 c -68.85,0 -140.49,-1.73 -209.13,-1.73 -20.66,0 -41.06,0.16 -61.02,0.57 l -0.5,-787.5 382,0.5 c 10.38,-0.47 20.7,-0.71 30.97,-0.71 100.52,0 194.42,23.86 257.03,103.71 34,60 47,123 19,190 -34,62 -98,104 -165,110 v 5 c 26,9 52,20 76,34 57,41 90,103 75,175 -12,68 -72,128 -137,149 -70.95,18.43 -166.15,22.16 -267.35,22.16 z m -25.81,-435.51 c -6.07,0 -11.43,0.11 -16.39,0.34 l -10.45,0.47 v -10.46 -204 -10.48 l 10.47,0.49 c 9.28,0.43 19.56,0.64 31.4,0.64 12.54,0 25.6,-0.23 38.24,-0.46 12.97,-0.24 26.38,-0.48 39.58,-0.48 26.36,0 60.67,0.85 92.36,7.5 l 1.34,0.28 1.22,0.63 c 33.25,17.29 54.4,37.93 64.65,63.1 l 0.19,0.46 0.14,0.47 c 9.23,31.16 5.63,68.89 -9.09,94.12 -32.48,52.34 -97.61,59.39 -157.04,59.39 -15.82,0 -31.53,-0.54 -46.72,-1.06 -14.11,-0.49 -27.44,-0.95 -39.9,-0.95 m 54.34,298.38 c -13.41,0.02 -25.78,0.03 -36.32,0.03 -21.13,0 -34.89,-0.03 -34.89,-0.03 l -9.97,-0.03 v -9.97 -190.25 -10.67 l 10.64,0.69 c 7.66,0.49 15.72,0.73 24.66,0.73 14.82,0 29.87,-0.67 44.43,-1.32 14.18,-0.64 28.84,-1.3 42.89,-1.3 40.09,0 85.76,4.86 120.57,40.92 l 0.23,0.24 0.21,0.25 c 26.36,31.15 25.58,78.37 13.7,109.07 l -0.1,0.25 -0.11,0.25 c -24.35,53.98 -94.96,61.26 -160.83,61.26 -4.99,0 -10.02,-0.04 -15.11,-0.12 m -28.53,127.13 c 89.27,0 190.49,-2.59 264.55,-21.77 64.59,-20.98 119.21,-80.29 130.01,-141.43 13.07,-62.73 -12.68,-122.68 -70.66,-164.57 -21.16,-12.3 -45.31,-23.08 -73.82,-32.94 l -6.73,-2.33 v -7.12 -5 -9.15 l 9.11,-0.81 c 64.45,-5.78 124.51,-45.76 156.87,-104.39 23.73,-57.21 17.74,-116.12 -18.31,-180.07 -52.71,-66.81 -134.08,-99.29 -248.7,-99.29 -9.82,0 -20.09,0.23 -30.98,0.71 l -371.98,-0.49 0.48,767.3 c 15.75,-0.25 32.54,-0.38 51.03,-0.38 34.35,0 70.03,0.44 104.52,0.87 34.52,0.42 70.22,0.86 104.61,0.86" /><path
         id="path26"
         style="fill:#2a2933;fill-opacity:1;fill-rule:nonzero;stroke:none"
         d="m 6258.85,2497.4 h 223.85 l 1.53,-369.56 -0.03,-4.16 c -0.93,-134.22 -0.59,-368.62 -0.53,-405.76 l -223.71,-0.25 z m 497.59,-782 c -259.86,413.23 -263.62,413.25 -267.24,413.25 h -1.23 l 5.22,7.02 c 1.8,2.41 180.18,242.08 266.78,360.48 h 242.11 l -280.63,-353.55 296.67,-427.2 h -261.68" /><path
         id="path28"
         style="fill:#2a2933;fill-opacity:1;fill-rule:nonzero;stroke:none"
         d="m 6487.68,2502.4 h -233.84 l 1.13,-789.73 233.71,0.26 c 0,0 -0.5,263.72 0.5,410.72 0.01,0 0.01,0 0.02,0 4.62,-0.01 264.48,-413.25 264.48,-413.25 h 274 l -300,432 284.75,358.75 h -255 c -87,-119 -268.25,-362.5 -268.25,-362.5 l -1.5,363.75 z m 504.05,-11.25 -271.88,-342.53 -4.62,-5.82 4.24,-6.11 289.09,-416.29 H 6759.2 c -13.42,21.34 -70.61,112.17 -127.59,201.98 -38.07,60 -68.6,107.82 -90.74,142.12 -29.54,45.75 -39.52,61.22 -44.94,66.46 l 1.27,1.72 c 1.79,2.4 178.15,239.36 265.3,358.47 h 229.23 m -514.01,1.25 1.46,-353.79 0.04,-9.29 -0.04,-5.6 c -0.88,-129.21 -0.59,-351.2 -0.52,-400.8 l -213.7,-0.24 -1.11,769.72 h 213.87" /><path
         id="path30"
         style="fill:#2a2933;fill-opacity:1;fill-rule:nonzero;stroke:none"
         d="m 7109.68,1718.64 v 780.01 h 217.99 l -0.25,-378.44 0.26,-401.81 z m 489.73,-3.26 c -261.24,408.75 -263.29,408.77 -266.98,408.77 h -2.04 l 281.78,373.25 h 244.05 l -287.69,-356.66 1.93,-3.02 c 83.35,-130.85 256.23,-375.36 289.54,-422.34 h -260.59" /><path
         id="path32"
         style="fill:#2a2933;fill-opacity:1;fill-rule:nonzero;stroke:none"
         d="m 7332.68,2503.65 h -228 v -790 l 228,-0.25 -0.25,405.75 c 3,0 264.25,-408.77 264.25,-408.77 h 273 c 0,0 -202,284.02 -295,430.02 l 292,362 h -257 l -277.25,-367.25 0.25,368.5 z m 513.09,-11.25 -278.87,-345.72 -4.51,-5.59 3.86,-6.06 c 79.49,-124.79 240.31,-352.83 284.08,-414.65 h -248.17 c -13.43,21 -70.61,110.4 -128.07,199.79 -38.15,59.35 -68.67,106.64 -90.72,140.56 -29.77,45.79 -39.62,60.94 -44.81,65.94 l 1.85,2.45 274.25,363.28 h 231.11 m -523.1,1.25 -0.24,-358.49 v -6.01 h -0.01 l 0.01,-1.61 -0.02,-22.26 0.03,0.04 0.23,-381.91 -207.99,0.23 v 770.01 h 207.99" /><path
         id="path34"
         style="fill:#ffd500;fill-opacity:1;fill-rule:nonzero;stroke:none"
         d="M 3506.71,4212.8 863.695,3248.16 3506.71,3715.05 Z" /><path
         id="path36"
         style="fill:#2a2933;fill-opacity:1;fill-rule:nonzero;stroke:none"
         d="m 2668.12,2847.13 -227.09,-436.28 -226.55,436.28 h -443.3 l 467.11,-808.82 v -528.09 h 399.73 v 528.09 l 467.73,808.82 z M 1287.77,1817.71 h 668.55 V 1510.22 H 886.824 v 1336.91 h 758.306 l 177.42,-307.49 h -534.78 v -220.62 h 483.43 v -280.71 h -483.43 v -220.6" /><path
         id="path38"
         style="fill:#2a2933;fill-opacity:1;fill-rule:nonzero;stroke:none"
         d="m 3746.82,884.102 -30.14,-73.883 c -11.27,10.64 -24.42,18.16 -42.58,18.16 -35.06,0 -43.74,-29.43 -43.74,-65.117 V 602.34 h -73.89 v 295.539 h 73.89 v -20.66 c 16.9,16.902 38.19,26.922 61.99,26.922 20.66,0 38.82,-6.262 54.47,-20.039 z M 304.93,720.68 c 0,-88.91 -67.621,-124.598 -147.77,-124.598 -57.6053,0 -121.4686,18.156 -157.16,70.746 l 55.1016,48.844 C 80.7734,684.988 117.715,670.59 155.281,670.59 c 44.457,0 70.129,20.039 70.129,48.211 0,11.269 -4.383,22.539 -23.168,31.937 -13.773,6.883 -30.679,11.274 -63.863,19.41 -20.664,5.012 -63.2423,15.024 -89.5392,36.313 -26.3007,21.289 -33.8125,51.969 -33.8125,78.898 0,83.27 71.379,117.081 141.5077,117.081 60.735,0 104.567,-25.042 139.629,-60.729 l -55.101,-53.852 c -25.672,25.672 -50.715,40.071 -89.536,40.071 -33.187,0 -57.6051,-10.641 -57.6051,-38.192 0,-11.898 4.3828,-20.039 16.2771,-26.918 13.778,-7.519 33.188,-13.148 63.242,-20.672 35.692,-9.386 68.875,-17.527 95.797,-39.437 23.793,-19.41 35.692,-45.09 35.692,-82.031 z M 594.207,602.34 H 520.32 v 160.922 c 0,40.07 -8.765,69.5 -50.09,69.5 -40.699,0 -50.714,-26.922 -50.714,-67.621 V 602.34 h -73.887 v 372.551 l 73.887,37.569 V 877.219 c 16.277,16.281 36.312,26.922 69.5,26.922 78.265,0 105.191,-60.11 105.191,-135.25 z m 213.512,86.41 v 37.57 c -15.028,9.391 -34.438,12.52 -49.465,12.52 -32.559,0 -48.211,-14.399 -48.211,-38.192 0,-22.546 14.402,-40.699 41.949,-40.699 14.403,0 39.449,5.012 55.727,28.801 z m 73.886,-86.41 H 807.719 V 623 c -17.531,-17.531 -40.071,-26.918 -68.875,-26.918 -58.231,0 -103.938,37.566 -103.938,102.688 0,64.492 44.457,99.55 115.207,99.55 18.785,0 38.196,-2.5 57.606,-11.89 v 15.652 c 0,27.547 -18.156,38.816 -50.715,38.816 -23.168,0 -45.082,-5.628 -68.25,-19.41 l -29.43,52.602 c 31.934,20.031 62.614,30.051 102.063,30.051 74.508,0 120.218,-36.321 120.218,-103.309 z M 1111.4,745.73 c 0,43.2 -11.27,87.032 -55.73,87.032 -20.66,0 -36.94,-9.391 -48.84,-26.301 V 693.762 c 11.9,-16.91 31.94,-26.934 53.22,-26.934 41.33,0 51.35,37.57 51.35,78.902 z m 76.39,3.75 c 0,-75.761 -31.31,-153.398 -115.21,-153.398 -32.56,0 -52.6,11.898 -65.75,24.418 v -90.16 l -73.881,-36.949 v 404.488 h 73.881 V 877.84 c 19.41,17.539 39.45,26.301 67,26.301 79.52,0 113.96,-75.141 113.96,-154.661 z m 112.08,33.192 h 105.19 c -3.13,33.187 -22.54,55.726 -54.48,55.726 -33.81,0 -48.84,-31.308 -50.71,-55.726 z m 172.81,-31.934 c 0,-9.398 -0.63,-21.289 -1.25,-25.668 h -172.82 c 3.13,-41.332 31.94,-58.242 63.87,-58.242 18.78,0 35.69,5.641 50.72,20.672 l 52.59,-44.461 c -24.42,-32.559 -68.87,-46.957 -108.32,-46.957 -84.53,0 -134.62,66.367 -134.62,152.777 0,90.161 54.47,155.282 131.49,155.282 82.65,0 118.34,-75.141 118.34,-153.403 z m 343.75,-61.988 -10.64,-75.141 c -15.03,-11.89 -41.33,-17.527 -59.49,-17.527 -45.08,0 -80.14,33.809 -80.14,87.656 v 143.391 h -51.35 v 70.75 h 51.35 v 77.012 l 73.88,37.569 V 897.879 h 68.88 v -70.75 h -68.88 V 703.148 c 0,-25.668 10.65,-35.058 28.8,-35.058 18.16,0 35.69,9.39 47.59,20.66 z m 908.53,313.69 v -60.729 c -16.91,4.379 -28.18,6.258 -38.19,6.258 -26.3,0 -31.94,-9.387 -31.94,-24.418 v -25.672 h 50.09 V 826.5 h -50.09 V 602.34 h -73.88 V 826.5 h -36.32 v 71.379 h 36.32 v 35.691 c 0,51.34 26.92,77.64 89.54,77.64 20.03,0 36.31,-3.76 54.47,-8.77 z M 431.41,301.789 338.113,6.26172 H 267.988 L 217.898,185.961 167.18,6.26172 H 97.0508 L 4.38281,301.789 H 89.5391 L 133.992,130.23 184.086,301.789 h 69.5 L 303.68,130.23 348.762,301.789 Z m 40.074,0 V 6.26172 h 76.387 V 301.789 Z M 805.215,95.1719 793.945,18.1484 C 778.293,5.62891 740.723,0 720.688,0 674.352,0 641.168,36.9414 641.168,88.2813 V 230.41 h -51.344 v 71.379 h 51.344 v 77.02 L 717.555,417 V 301.789 h 86.41 V 230.41 h -86.41 V 108.941 c 0,-26.9215 10.019,-35.691 28.175,-35.691 18.786,0 46.336,9.3984 59.485,21.9219 z M 1107.64,6.26172 h -76.39 V 167.172 c 0,41.328 -9.39,68.879 -50.715,68.879 -38.82,0 -51.969,-23.172 -51.969,-67 V 6.26172 h -76.39 V 378.809 L 928.566,417 V 281.762 c 14.399,17.527 44.454,26.297 73.884,26.297 77.64,0 105.19,-61.368 105.19,-134.618 z m 395.1,105.18728 48.83,-46.3396 C 1526.53,33.1797 1492.09,0 1433.86,0 1353.09,0 1293.6,64.4883 1293.6,153.398 c 0,81.403 49.47,154.661 141.51,154.661 52.6,0 88.91,-23.797 115.84,-63.868 l -50.09,-50.722 c -17.54,23.172 -36.32,41.332 -66.37,41.332 -40.7,0 -61.99,-34.442 -61.99,-80.153 0,-42.578 18.78,-80.7691 62.61,-80.7691 26.93,0 49.47,14.4024 67.63,37.5701 z M 1715,73.8789 c -48.84,0 -59.49,46.9611 -59.49,80.1521 0,45.699 18.79,80.77 59.49,80.77 40.7,0 59.48,-35.071 59.48,-80.77 0,-33.191 -10.64,-80.1521 -59.48,-80.1521 z m 0,234.1801 c -85.16,0 -138.38,-67 -138.38,-154.028 C 1576.62,62.6094 1634.85,0 1715,0 c 80.14,0 138.37,62.6094 138.37,154.031 0,87.028 -53.22,154.028 -138.37,154.028 z M 2153.92,6.26172 h -76.39 V 167.172 c 0,41.328 -9.39,68.879 -50.72,68.879 -38.82,0 -51.34,-23.172 -51.34,-67 V 6.26172 h -76.39 V 301.789 h 76.39 v -20.027 c 15.65,15.648 38.82,26.297 72.01,26.297 80.14,0 106.44,-61.989 106.44,-134.618 z M 2378.7,406.988 v -61.367 c -11.27,3.758 -26.29,5.641 -37.56,5.641 -21.92,0 -31.94,-6.891 -31.94,-25.672 v -23.801 h 63.24 V 230.41 H 2309.2 V 6.26172 h -76.39 V 230.41 h -41.32 v 71.379 h 41.32 v 35.691 c 0,55.11 34.44,77.649 90.17,77.649 16.28,0 40.07,-1.879 55.72,-8.141 z m 44.46,-105.199 V 6.26172 h 76.39 V 301.789 Z M 2736.23,97.6719 V 210.379 c -16.28,17.531 -31.93,25.672 -53.22,25.672 -44.46,0 -55.1,-35.063 -55.1,-77.02 0,-47.582 13.77,-87.031 56.98,-87.031 21.29,0 36.31,9.3906 51.34,25.6719 z m 76.39,-91.41018 h -76.39 V 25.6719 C 2711.18,7.51172 2696.16,0 2669.23,0 c -85.15,0 -121.47,73.8789 -121.47,156.531 0,89.539 42.58,151.528 119.6,151.528 25.67,0 50.09,-6.887 68.87,-23.797 v 94.547 L 2812.62,417 Z M 2213.4,782.672 h 105.2 c -2.51,33.187 -23.8,55.726 -53.85,55.726 -35.69,0 -49.47,-31.308 -51.35,-55.726 z m 179.08,-31.934 c 0,-9.398 -0.63,-21.289 -1.25,-25.668 h -179.08 c 3.13,-41.332 31.31,-58.242 63.24,-58.242 18.79,0 36.32,5.641 51.35,20.672 l 52.59,-44.461 c -27.55,-34.437 -69.5,-46.957 -107.07,-46.957 -86.41,0 -135.87,66.367 -135.87,153.398 0,94.551 58.23,154.661 130.86,154.661 77.64,0 125.23,-68.25 125.23,-153.403 z M 3502,602.34 h -72.63 V 623 c -16.28,-18.148 -42.58,-26.918 -68.88,-26.918 -76.39,0 -105.19,55.098 -105.19,134.617 v 167.18 h 73.88 V 736.961 c 0,-40.07 8.14,-70.133 49.47,-70.133 41.33,0 49.46,31.313 49.46,67.633 V 897.879 H 3502 Z m 318.7,180.332 h 105.2 c -2.51,33.187 -23.8,55.726 -53.85,55.726 -35.69,0 -49.47,-31.308 -51.35,-55.726 z m 179.08,-31.934 c 0,-9.398 -0.63,-21.289 -1.25,-25.668 h -179.08 c 3.13,-41.332 31.31,-58.242 63.24,-58.242 18.79,0 36.32,5.641 51.35,20.672 l 52.59,-44.461 c -27.55,-34.437 -69.5,-46.957 -107.07,-46.957 -86.41,0 -135.87,66.367 -135.87,153.398 0,94.551 58.23,154.661 130.86,154.661 77.64,0 125.23,-68.25 125.23,-153.403 z M 509.68,327.469 c 24.418,0 43.828,19.41 43.828,43.832 0,24.418 -19.41,43.828 -43.828,43.828 -24.422,0 -43.832,-19.41 -43.832,-43.828 0,-24.422 19.41,-43.832 43.832,-43.832 z m 1952.3,0 c 24.42,0 43.83,19.41 43.83,43.832 0,24.418 -19.41,43.828 -43.83,43.828 -24.42,0 -43.83,-19.41 -43.83,-43.828 0,-24.422 19.41,-43.832 43.83,-43.832 z M 3417.47,6.26172 h -76.39 V 167.172 c 0,41.328 -9.39,68.879 -50.72,68.879 -38.82,0 -51.34,-23.172 -51.34,-67 V 6.26172 h -76.39 V 301.789 h 76.39 v -20.027 c 15.65,15.648 38.82,26.297 72.01,26.297 80.14,0 106.44,-61.989 106.44,-134.618 z M 2098.82,602.34 h -73.88 v 160.922 c 0,40.07 -8.77,69.5 -50.1,69.5 -40.69,0 -50.71,-26.922 -50.71,-67.621 V 602.34 h -73.89 v 372.551 l 73.89,37.569 V 877.219 c 16.28,16.281 36.31,26.922 69.5,26.922 78.27,0 105.19,-60.11 105.19,-135.25 z m 1122.04,86.41 -10.64,-75.141 c -15.03,-11.89 -42.58,-17.527 -60.74,-17.527 -45.08,0 -80.14,33.809 -80.14,87.656 v 143.391 h -42.58 v 70.75 h 42.58 v 77.012 l 73.88,37.569 V 897.879 h 70.13 v -70.75 h -70.13 V 703.148 c 0,-25.668 10.65,-35.058 28.8,-35.058 18.16,0 36.95,9.39 48.84,20.66 z m -230.42,-86.41 h -72.63 V 623 c -16.28,-18.148 -42.58,-26.918 -68.87,-26.918 -76.39,0 -105.2,55.098 -105.2,134.617 v 167.18 h 73.89 V 736.961 c 0,-40.07 8.14,-70.133 49.46,-70.133 41.33,0 49.47,31.313 49.47,67.633 v 163.418 h 73.88 z m 681.24,-490.891 48.84,-46.3396 C 3695.48,33.1797 3661.04,0 3602.81,0 c -80.77,0 -140.26,64.4883 -140.26,153.398 0,81.403 49.47,154.661 141.51,154.661 52.6,0 88.91,-23.797 115.84,-63.868 l -50.1,-50.722 c -17.53,23.172 -36.31,41.332 -66.37,41.332 -40.7,0 -61.98,-34.442 -61.98,-80.153 0,-42.578 18.78,-80.7691 62.61,-80.7691 26.92,0 49.47,14.4024 67.62,37.5701 z m 149.02,75.129 h 105.2 c -2.51,33.192 -23.8,55.731 -53.85,55.731 -35.69,0 -49.47,-31.309 -51.35,-55.731 z m 179.08,-31.93 c 0,-9.386 -0.63,-21.289 -1.25,-25.668 h -179.08 c 3.13,-41.3316 31.31,-58.23 63.24,-58.23 18.79,0 36.32,5.6289 51.35,20.6602 l 52.59,-44.4493 C 3959.08,12.5195 3917.13,0 3879.56,0 c -86.41,0 -135.87,66.3711 -135.87,153.398 0,94.551 58.23,154.661 130.86,154.661 77.64,0 125.23,-68.25 125.23,-153.411 z m -1064.44,31.93 h 105.19 c -2.5,33.192 -23.79,55.731 -53.84,55.731 -35.69,0 -49.47,-31.309 -51.35,-55.731 z m 179.08,-31.93 c 0,-9.386 -0.63,-21.289 -1.25,-25.668 h -179.08 c 3.13,-41.3316 31.31,-58.23 63.24,-58.23 18.78,0 36.32,5.6289 51.34,20.6602 l 52.6,-44.4493 C 3073.72,12.5195 3031.77,0 2994.2,0 c -86.41,0 -135.87,66.3711 -135.87,153.398 0,94.551 58.23,154.661 130.86,154.661 77.64,0 125.23,-68.25 125.23,-153.411" /></g></g></svg>