<?xml version="1.0" encoding="utf-8"?>
<!-- Generator: Adobe Illustrator 25.2.2, SVG Export Plug-In . SVG Version: 6.00 Build 0)  -->
<svg version="1.1" id="Ebene_1" xmlns="http://www.w3.org/2000/svg" xmlns:xlink="http://www.w3.org/1999/xlink" x="0px" y="0px"
	 viewBox="0 0 670 174.3" style="enable-background:new 0 0 670 174.3;" xml:space="preserve">
<style type="text/css">
	.st0{fill:#FFD500;}
	.st1{fill:#004894;}
	.st2{fill:#87888A;}
</style>
<g>
	<path class="st1" d="M427.2,115.5h50.6v-13.4h-33.5V78.2h30.4V64.8h-30.4v-21h33.3V30.4h-50.4L427.2,115.5L427.2,115.5z
		 M509.1,115.5h22.1l15.2-68h0.2l15.4,68h22l22.3-85h-16.6l-16,68h-0.2l-15-68h-23.2l-14.5,68h-0.2l-15.9-68h-18L509.1,115.5
		L509.1,115.5z M617.4,115.5H668v-13.4h-33.5V78.2h30.4V64.8h-30.4v-21h33.3V30.4h-50.4L617.4,115.5L617.4,115.5z"/>
	<path class="st2" d="M189.2,77.4h8.1c8.6,0,17.6,1.7,17.6,12.8c0,9.9-9.7,11.8-17.6,11.8h-8.1V77.4L189.2,77.4z M189.2,43.8h6.6
		c7.8,0,16.5,0.7,16.5,10.6c0,8.8-8.9,10.4-16.1,10.4h-7V43.8L189.2,43.8z M172.1,115.5h29.8c10.8,0,30.1-3.2,30.1-24.6
		c0-10.5-8-18.3-19.6-19.4v-0.2c10.2-1.8,17-8.9,17-19c0-18.6-16.5-21.8-27.5-21.8h-29.8V115.5L172.1,115.5z M246.8,115.5h17.1V76
		h0.2l30.7,39.5h22.4l-36.6-45l35.1-40.1h-21L263.9,67V30.5h-17.1V115.5L246.8,115.5z M328.4,115.5h17.1V76h0.2l30.7,39.5h22.4
		l-36.6-45l35.1-40.1h-21l-30.8,36.5V30.4h-17.1L328.4,115.5L328.4,115.5z"/>
	<path class="st2" d="M179.7,161.9l3.6-12.2h0.1l3.3,12.2H179.7L179.7,161.9z M189.4,171.8h4.9l-8.3-26h-5.2l-8.7,26h4.7l1.9-6.3
		h8.9L189.4,171.8L189.4,171.8z M197.3,171.8h4.6v-11.2c0-2.5,0.9-4.5,3.3-4.5c1.9,0,2.6,1.2,2.6,4.2v11.5h4.6v-12.4
		c0-3.9-1.3-7.1-5.6-7.1c-3.1,0-4.4,2.1-5.1,3.2l0,0h-0.1c0-1-0.1-2-0.1-2.9h-4.3c0.1,0.9,0.1,2,0.1,3.2V171.8L197.3,171.8z
		 M227.3,171.8h4.7v-26h-4.7V171.8L227.3,171.8z M237.6,171.8h4.6v-11.2c0-2.5,0.9-4.5,3.3-4.5c1.9,0,2.6,1.2,2.6,4.2v11.5h4.6
		v-12.4c0-3.9-1.3-7.1-5.6-7.1c-2.9,0-3.9,1.6-4.7,2.8h-0.1v-11.3h-4.6L237.6,171.8L237.6,171.8z M257.7,171.8h4.6v-10.5
		c0-3.6,2.1-4.7,4-4.7c0.5,0,0.9,0.1,1.3,0.2v-4.3c-0.3,0-0.5-0.1-0.8-0.1c-2.9,0-4.3,2.3-4.9,3.8l0,0c0-1.2-0.1-2.3-0.1-3.5h-4.1
		c0.1,0.9,0.1,2,0.1,3.2v15.9H257.7z M284.8,167.2c-0.9,0.6-2.2,1.5-5,1.5c-3.6,0-4.9-2-4.9-5.3h11v-0.9c0-7.8-3.5-10.3-7.6-10.3
		c-4.9,0-7.9,4.4-7.9,10.2c0,5.2,2.7,9.6,8.8,9.6c2.7,0,4.7-0.8,5.7-1.2L284.8,167.2L284.8,167.2z M274.9,160.5c0-2.5,1-5.1,3.4-5.1
		c2.1,0,3.2,1.7,3.2,5.1H274.9L274.9,160.5z M290.4,171.8h4.6v-10.5c0-3.6,2.1-4.7,4-4.7c0.5,0,0.9,0.1,1.3,0.2v-4.3
		c-0.3,0-0.5-0.1-0.8-0.1c-2.9,0-4.3,2.3-4.9,3.8h-0.1c0-1.2-0.1-2.3-0.1-3.5h-4.1c0.1,0.9,0.1,2,0.1,3.2V171.8L290.4,171.8z
		 M313.4,171c1.3,0.8,3.3,1.2,5.9,1.2c4.9,0,8.7-2.5,8.7-7.8c0-3.7-1.4-5.3-4.5-7l-2.8-1.6c-1.4-0.8-2.7-1.6-2.7-3.5
		c0-1.8,1.2-3.1,3.6-3.1c2.2,0,3.7,0.7,4.9,1.1l0.2-4c-0.7-0.2-2.7-0.9-5.4-0.9c-4.3,0-8.1,2.4-8.1,7.1c0,3.4,1.7,5.4,4.2,6.8
		l2.4,1.3c2.3,1.3,3.4,2.1,3.4,4c0,2.6-1.9,3.8-3.9,3.8c-2.5,0-4.6-1-5.5-1.6L313.4,171L313.4,171z M346.3,167.2
		c-0.9,0.6-2.2,1.5-5,1.5c-3.6,0-4.9-2-4.9-5.3h11v-0.9c0-7.8-3.5-10.3-7.6-10.3c-4.9,0-7.9,4.4-7.9,10.2c0,5.2,2.7,9.6,8.8,9.6
		c2.7,0,4.7-0.8,5.7-1.2L346.3,167.2L346.3,167.2z M336.5,160.5c0-2.5,1-5.1,3.4-5.1c2.1,0,3.2,1.7,3.2,5.1H336.5L336.5,160.5z
		 M352.3,171.8h4.6v-19.2h-4.6V171.8L352.3,171.8z M352.2,149h4.7v-4.5h-4.7V149L352.2,149z M363.9,152.6h-3v3.4h3v10.5
		c0,4,1.9,5.6,5.3,5.6c1.4,0,2.4-0.3,3.1-0.6v-3.3c-0.3,0.2-0.9,0.4-1.7,0.4c-1.3,0-2.1-0.6-2.1-2.6v-10h3.8v-3.4h-3.8v-5.4
		l-4.6,1.4L363.9,152.6L363.9,152.6z M389.8,167.2c-0.9,0.6-2.2,1.5-5,1.5c-3.6,0-4.9-2-4.9-5.3h11v-0.9c0-7.8-3.5-10.3-7.6-10.3
		c-4.9,0-7.9,4.4-7.9,10.2c0,5.2,2.7,9.6,8.8,9.6c2.7,0,4.7-0.8,5.7-1.2L389.8,167.2L389.8,167.2z M379.9,160.5c0-2.5,1-5.1,3.4-5.1
		c2.1,0,3.2,1.7,3.2,5.1H379.9L379.9,160.5z M394.4,171.8h4.4V167h-4.4V171.8L394.4,171.8z"/>
	<path class="st0" d="M143.6,80c0,43.1-35,78-78.1,78c-10.9,0-21.2-2.2-30.6-6.2c6.2,1.6,12.7,2.5,19.3,2.5
		c41.4,0,75.2-32.9,75.2-74.3S95.7,4.5,54.2,4.5c-3.8,0-7.5,0.3-11.1,0.8C50.2,3.2,57.7,2,65.5,2C108.7,2.1,143.6,37,143.6,80
		L143.6,80z"/>
	<path class="st0" d="M86.9,72.9c0,23.5-19,42.5-42.5,42.5S1.9,96.4,1.9,72.9s19-42.5,42.5-42.5S86.9,49.5,86.9,72.9L86.9,72.9z
		 M72.9,72.9c0-15.7-12.7-28.4-28.4-28.4S16.1,57.2,16.1,72.9c0,15.7,12.7,28.4,28.4,28.4C60.1,101.4,72.9,88.7,72.9,72.9L72.9,72.9
		z"/>
	<path class="st0" d="M115.3,80c0-31.5-23.8-57.4-54.4-60.6c23.4,7,40.4,28.7,40.4,54.3c0,31.3-25.4,56.7-56.7,56.7
		c-17,0-32.3-7.5-42.7-19.4c10.6,17.9,30.1,30,52.5,30C88,141,115.3,113.7,115.3,80L115.3,80z"/>
</g>
</svg>
