<?xml version="1.0" encoding="UTF-8"?>
<svg xmlns="http://www.w3.org/2000/svg" width="175" height="46.831" viewBox="0 0 175 46.831">
  <g id="Logo-BKK-SBH" transform="translate(87.5 23.416)">
    <g id="Gruppe_4" data-name="Gruppe 4" transform="translate(-87.5 -23.416)">
      <path id="Pfad_1" data-name="Pfad 1" d="M0,0H27.1L53.764,26.67h-27.1Z" fill="#ffa900"></path>
      <g id="Gruppe_3" data-name="Gruppe 3" transform="translate(15.635 6.51)">
        <g id="Gruppe_1" data-name="Gruppe 1" transform="translate(45.858)">
          <path id="Pfad_2" data-name="Pfad 2" d="M95.594,36.065v.265A5.578,5.578,0,0,0,97.142,40.5a5.718,5.718,0,0,0,4.193,1.522,8.583,8.583,0,0,0,4.749-1.072,3.562,3.562,0,0,0,1.6-3.163q0-2.987-6.826-4.682l-2.434-.609Q90.7,30.431,88,27.837a9.609,9.609,0,0,1-2.7-7.276A9.888,9.888,0,0,1,89.773,12.2q4.471-3.228,11.854-3.227,7.831,0,11.827,2.883t4,8.546v.662H106.6v-.186a4.963,4.963,0,0,0-1.257-3.662,4.963,4.963,0,0,0-3.665-1.257A5.988,5.988,0,0,0,97.9,17.07a3.508,3.508,0,0,0-1.429,2.909q0,2.938,8.546,4.975,2.274.529,3.544.873,5.372,1.4,7.886,4.087a9.866,9.866,0,0,1,2.514,7.024,10.469,10.469,0,0,1-4.6,9.168q-4.606,3.188-13.336,3.189-7.938,0-12.091-3.388t-4.154-9.843Z" transform="translate(-84.773 -8.974)" fill="#161615"></path>
          <path id="Pfad_3" data-name="Pfad 3" d="M140.324,48.873V9.846h14.631q8.835,0,13.056,2.461a8.212,8.212,0,0,1,4.221,7.62,7.823,7.823,0,0,1-2.077,5.623,12.291,12.291,0,0,1-6.257,3.161q4.814.874,7.144,3.216a8.521,8.521,0,0,1,2.329,6.283q0,5.346-3.8,8T158.1,48.873Zm10.449-23.2h4.182A9.443,9.443,0,0,0,160.06,24.6a3.732,3.732,0,0,0,1.615-3.348A3.607,3.607,0,0,0,159.981,18a9.415,9.415,0,0,0-5.026-1.084h-4.182Zm0,16.112h4.182q3.943,0,5.688-1.124a4.031,4.031,0,0,0,1.747-3.665,3.813,3.813,0,0,0-1.8-3.478,10.924,10.924,0,0,0-5.635-1.125h-4.182Z" transform="translate(-100.028 -9.213)" fill="#161615"></path>
          <path id="Pfad_4" data-name="Pfad 4" d="M204.445,33.1V48.873H193.651V9.846h10.794V24.929h12.939V9.846h10.8V48.873h-10.8V33.1Z" transform="translate(-114.672 -9.213)" fill="#161615"></path>
        </g>
        <g id="Gruppe_2" data-name="Gruppe 2" transform="translate(0 27.201)">
          <path id="Pfad_5" data-name="Pfad 5" d="M51.023,46.473H46.962l-4.119,5.711V46.473H39.213V58.931h3.629V52.517L46.9,58.931h4.374L46.57,52.2Z" transform="translate(-26.403 -46.473)" fill="#161615"></path>
          <path id="Pfad_6" data-name="Pfad 6" d="M64.842,52.2l4.453-5.73H65.234l-4.119,5.711V46.473H57.485V58.931h3.629V52.517l4.061,6.414H69.55Z" transform="translate(-31.421 -46.473)" fill="#161615"></path>
          <path id="Pfad_7" data-name="Pfad 7" d="M29.773,52.5a2.988,2.988,0,0,0,2.442-2.863c0-2.426-2.492-3.158-4.219-3.161H21.554V58.932h6.709c1.85,0,4.374-.862,4.374-3.334A3.134,3.134,0,0,0,29.773,52.5Zm-4.65-3.835h2.355a1.553,1.553,0,0,1,1.512,1.422,1.446,1.446,0,0,1-1.473,1.54H25.124Zm2.63,7.995h-2.63V53.488h2.492a1.648,1.648,0,0,1,1.668,1.618A1.556,1.556,0,0,1,27.753,56.657Z" transform="translate(-21.554 -46.473)" fill="#161615"></path>
        </g>
      </g>
    </g>
  </g>
</svg>
