<?xml version="1.0" encoding="UTF-8"?>
<svg width="146px" height="65px" viewBox="0 0 146 65" version="1.1" xmlns="http://www.w3.org/2000/svg" xmlns:xlink="http://www.w3.org/1999/xlink">
    <!-- Generator: sketchtool 57.1 (101010) - https://sketch.com -->
    <title>F9A4D941-9605-41A7-9C18-AEEFA60A7939</title>
    <desc>Created with sketchtool.</desc>
    <g id="Layouts" stroke="none" stroke-width="1" fill="none" fill-rule="evenodd">
        <g id="01_1920_IKKBB_startseite_Navigation_Sticky" transform="translate(-160.000000, -12.000000)">
            <g id="logo" transform="translate(160.000000, 12.000000)">
                <path d="M66,31.559729 L57.7004513,31.559729 C57.0942624,23.3607522 53.4122264,16.9837703 47.2605321,12.7102296 C43.0494089,9.73527731 37.99812,8.14925057 32.8242567,8.17746196 C26.3082337,8.04697603 20.0516852,10.7029609 15.6563895,15.4654413 C10.874625,19.9687252 8.19678366,26.2347173 8.26238216,32.7669857 C8.26305214,37.3878895 9.55833472,41.9181187 12.0042887,45.8542413 C15.2739834,50.624756 19.9914599,54.2430226 25.4751522,56.1862852 L25.4751522,65 C15.0202654,61.9559355 7.6561933,55.8455869 3.36048459,47.6984556 C1.16964395,43.0284462 0.0234525987,37.9453555 0,32.7966117 C-0.070214555,14.776441 14.6160954,0.102702484 32.8242567,0.000704661626 C38.6312533,-0.0368333864 44.3476289,1.42599952 49.4083864,4.24461946 C54.3581494,7.2548162 58.4731689,11.4367637 61.3824873,16.4134711 C63.8446618,20.3463136 65.3788435,25.5086323 65.9925162,31.5893549" id="Path" fill="#006EB7"></path>
                <polygon id="Path" fill="#1D1D1B" points="49.4678925 35.0142752 49.4678925 47.0125523 57.6478618 35.0142752 65.8278312 35.0142752 58.245856 45.5493478 67.3412732 62.836574 67.3412732 35.0142752 75.8091656 35.0142752 75.8091656 47.0125523 83.989135 35.0142752 92.5308539 35 84.5945118 45.8562638 94 64 83.5904722 63.9428993 78.5555091 53.4577898 75.8091656 57.5476249 75.8091656 64 57.9579329 64 52.8122301 53.1508737 49.4678925 57.5476249 49.4678925 64 41 64 41 35.0142752"></polygon>
                <rect id="Rectangle" fill="#1D1D1B" fill-rule="nonzero" x="28" y="22" width="10" height="10"></rect>
                <rect id="Rectangle" fill="#1D1D1B" fill-rule="nonzero" x="28" y="35" width="10" height="29"></rect>
                <path d="M97,64.9705305 L97,35 L110.084411,35 C114.793014,35 118.728008,36.8639489 118.728008,41.8000982 C118.728008,46.2205305 114.324386,48.4307466 110.545602,49.2632613 L110.545602,49.3443026 C115.127749,50.0810413 120,52.4459725 120,57.632613 C120,60.660609 118.013907,65 110.50097,65 L97,64.9705305 Z M104,46.8345538 C104.488589,46.9478173 104.989068,47.0033044 105.490909,46.999848 C108.756364,46.999848 110,44.8941442 110,42.7884405 C110,40.1221739 107.927273,40 106.4,40 L104,40 L104,46.8345538 Z M104.028,59.8664445 C105.06011,59.9802725 106.098501,60.0214137 107.136,59.989584 C108.844,59.989584 111,59.2652337 111,56.7300076 C111,53.0575515 107.934,52 104,52 L104.028,59.8664445 Z" id="Shape" fill="#D20A11" fill-rule="nonzero"></path>
                <path d="M124,64.9705305 L124,35 L136.527679,35 C141.028812,35 144.796374,36.8639489 144.796374,41.8000982 C144.796374,46.2205305 140.580123,48.3865422 136.962124,49.2632613 L136.962124,49.3443026 C141.342182,50.0810413 146,52.4459725 146,57.632613 C146,60.660609 144.091292,65 136.919391,65 L124,64.9705305 Z M131,46.8346092 C131.488124,46.9471456 131.98791,47.0026234 132.489104,46.9999047 C135.757869,46.9999047 137,44.8941839 137,42.7884631 C137,40.1221749 134.929782,40 133.404358,40 L131,40 L131,46.8346092 Z M131.021,59.8664445 C132.05311,59.9802725 133.091501,60.0214137 134.129,59.989584 C135.844,59.989584 138,59.2652337 138,56.7300076 C138,53.0575515 134.927,52 131,52 L131.021,59.8664445 Z" id="Shape" fill="#D20A11" fill-rule="nonzero"></path>
            </g>
        </g>
    </g>
</svg>