<?xml version="1.0" encoding="UTF-8"?>
<svg id="Ebene_1" data-name="Ebene 1" xmlns="http://www.w3.org/2000/svg" width="294.84" height="143.44" viewBox="0 0 294.84 143.44">
  <g>
    <path d="M165.85,47.81h-16.22l-15.99,23.87v-23.87h-15.41v18.7h-10.95v-12.64h-10.76v12.64h-11.03c.85-1.73,1.33-3.67,1.33-5.72,0-7.17-6.4-12.98-13.56-12.98h-25.45v47.81h15.37v-35.59h3.06c3.23,0,5.84,2.62,5.84,5.85s-2.62,5.83-5.84,5.84l9.73,23.91h16.35l-7.66-18.55h11.86v12.65h10.76v-12.65h10.95v18.55h15.41l32.21-47.81h0Z" fill="#001957"/>
    <path d="M185.83,74.04c-.6-.47-1.51-.7-2.73-.7l-1.37.07-2.37.27v5.77h2.2c1.78,0,3.09-.31,3.92-.92s1.25-1.44,1.25-2.49c0-.87-.3-1.54-.9-2h0Z" fill="#001957"/>
    <path d="M185.83,66.56c0-.87-.32-1.54-.95-2s-1.68-.7-3.15-.7c-.78,0-1.57.07-2.37.2v5.94l2.1-.23c2.91-.31,4.37-1.38,4.37-3.2h0Z" fill="#001957"/>
    <path d="M172.98,47.81l-32.25,47.81h106.29v-47.81h-74.05.01ZM190.65,79.86c-.77,1.1-1.94,1.97-3.52,2.6s-3.56.95-5.94.95h-6.7v-22.96c2.18-.36,4.59-.53,7.24-.53,3.14,0,5.44.53,6.9,1.59,1.47,1.06,2.2,2.5,2.2,4.32,0,1.16-.34,2.18-1.02,3.05-.68.88-1.57,1.53-2.69,1.95,1.4.2,2.53.77,3.39,1.7s1.28,2.13,1.28,3.57-.38,2.65-1.15,3.76h.01ZM209.28,83.41l-5-10.21c-.67.22-1.4.42-2.2.6l-1.03.23v9.38h-4.94v-23.3h4.94v9.75l1.03-.23c1.82-.38,3.26-1.36,4.3-2.94,1.04-1.58,1.89-3.77,2.53-6.58h5.04c-.53,2.45-1.23,4.55-2.08,6.31-.86,1.76-1.96,3.2-3.32,4.34l6.4,12.65h-5.67,0ZM231.33,83.41l-5-10.21c-.67.22-1.4.42-2.2.6l-1.03.23v9.38h-4.94v-23.3h4.94v9.75l1.03-.23c1.82-.38,3.26-1.36,4.3-2.94,1.05-1.58,1.89-3.77,2.53-6.58h5.04c-.53,2.45-1.23,4.55-2.08,6.31-.86,1.76-1.96,3.2-3.32,4.34l6.4,12.65h-5.67,0Z" fill="#001957"/>
  </g>
  <rect width="294.84" height="143.44" fill="none"/>
</svg>